<?xml version="1.0" encoding="utf-8"?>
<COLLADA xmlns="http://www.collada.org/2005/11/COLLADASchema" version="1.4.1" xmlns:xsi="http://www.w3.org/2001/XMLSchema-instance">
  <asset>
    <contributor>
      <author>Blender User</author>
      <authoring_tool>Blender 4.0.1 commit date:2023-11-16, commit time:16:40, hash:d0dd92834a08</authoring_tool>
    </contributor>
    <created>2023-11-28T13:45:43</created>
    <modified>2023-11-28T13:45:43</modified>
    <unit name="meter" meter="1"/>
    <up_axis>Z_UP</up_axis>
  </asset>
  <library_effects>
    <effect id="Tray_01-effect">
      <profile_COMMON>
        <newparam sid="Tray_01_png-surface">
          <surface type="2D">
            <init_from>Tray_01_png</init_from>
          </surface>
        </newparam>
        <newparam sid="Tray_01_png-sampler">
          <sampler2D>
            <source>Tray_01_png-surface</source>
          </sampler2D>
        </newparam>
        <technique sid="common">
          <lambert>
            <emission>
              <color sid="emission">0 0 0 1</color>
            </emission>
            <diffuse>
              <texture texture="Tray_01_png-sampler" texcoord="UVMap"/>
            </diffuse>
            <index_of_refraction>
              <float sid="ior">1.45</float>
            </index_of_refraction>
          </lambert>
        </technique>
      </profile_COMMON>
    </effect>
  </library_effects>
  <library_images>
    <image id="Tray_01_png" name="Tray_01_png">
      <init_from>Tray_01.png</init_from>
    </image>
  </library_images>
  <library_materials>
    <material id="Tray_01-material" name="Tray_01">
      <instance_effect url="#Tray_01-effect"/>
    </material>
  </library_materials>
  <library_geometries>
    <geometry id="Tray_01-mesh" name="Tray_01">
      <mesh>
        <source id="Tray_01-mesh-positions">
          <float_array id="Tray_01-mesh-positions-array" count="144">-0.09711307 -0.08561414 -3.12665e-4 -0.1474592 -0.03652369 -3.12665e-4 -0.190039 -0.05344265 0.03298687 -0.1149587 -0.1280796 0.03298687 -0.1474592 0.03652268 -3.12665e-4 -0.09711307 0.08561331 -3.12665e-4 -0.1149588 0.1280799 0.03298687 -0.190039 0.05344247 0.03298687 0.1474593 -0.03652364 -3.12665e-4 0.09711325 -0.08561414 -3.12665e-4 0.1149587 -0.1280796 0.03298687 0.1900389 -0.05344265 0.03298687 0.09711325 0.08561331 -3.12665e-4 0.1474593 0.03652268 -3.12665e-4 0.1900389 0.05344247 0.03298687 0.1149588 0.1280799 0.03298687 -0.1991493 -0.05600464 0.03479319 -0.1204698 -0.1342197 0.03479319 -0.1204698 0.13422 0.03479319 -0.1991493 0.05600446 0.03479319 0.1204698 -0.1342197 0.03479319 0.1991492 -0.05600464 0.03479319 0.1991492 0.05600446 0.03479319 0.1204698 0.13422 0.03479319 -0.1914566 -0.05297869 0.04208719 -0.115792 -0.1281966 0.04208719 -0.115792 0.1299567 0.04208719 -0.1914566 0.05473834 0.04208719 0.1159151 -0.1281966 0.04208719 0.1915796 -0.05297869 0.04208719 0.1915796 0.05473834 0.04208719 0.1159151 0.1299567 0.04208719 -0.09711307 -0.08561414 -3.12665e-4 -0.1474592 -0.03652369 -3.12665e-4 -0.190039 -0.05344265 0.03298687 -0.1149587 -0.1280796 0.03298687 -0.1474592 0.03652268 -3.12665e-4 -0.09711307 0.08561331 -3.12665e-4 -0.1149588 0.1280799 0.03298687 -0.190039 0.05344247 0.03298687 0.1474593 -0.03652364 -3.12665e-4 0.09711325 -0.08561414 -3.12665e-4 0.1149587 -0.1280796 0.03298687 0.1900389 -0.05344265 0.03298687 0.09711325 0.08561331 -3.12665e-4 0.1474593 0.03652268 -3.12665e-4 0.1900389 0.05344247 0.03298687 0.1149588 0.1280799 0.03298687</float_array>
          <technique_common>
            <accessor source="#Tray_01-mesh-positions-array" count="48" stride="3">
              <param name="X" type="float"/>
              <param name="Y" type="float"/>
              <param name="Z" type="float"/>
            </accessor>
          </technique_common>
        </source>
        <source id="Tray_01-mesh-normals">
          <float_array id="Tray_01-mesh-normals-array" count="372">0.2233202 -0.5431028 -0.8094241 -0.2190938 -0.5433951 -0.8103826 0.2190946 -0.5433954 -0.810382 0.5402997 0.2285264 -0.8098469 0.5434108 -0.2244695 -0.8088994 0.5403009 -0.2285309 -0.8098448 -0.5434093 -0.224469 -0.8089005 -0.540298 0.2285262 -0.8098481 -0.5402991 -0.2285308 -0.8098461 -0.2190926 0.5433864 -0.8103887 0.2233169 0.5430951 -0.8094302 0.2190935 0.5433865 -0.8103883 -0.2233203 -0.5431022 -0.8094246 -0.2233169 0.5430945 -0.8094307 -0.5434067 0.2244687 -0.8089023 0.5434082 0.2244693 -0.8089013 0 0 -1 0 0 -1 0 0 -1 -0.06300169 0.2292008 -0.9713382 0.09688925 0.1998687 -0.9750205 0.06300169 0.2292014 -0.971338 0.1719524 -0.08074063 -0.981791 0.09688884 -0.1998695 -0.9750204 0.06300121 -0.2292026 -0.9713378 -0.09688878 -0.1998689 -0.9750206 -0.06300115 -0.2292015 -0.971338 0.1719518 0.08074021 -0.981791 0.1754255 0.068605 -0.9820994 -0.1719512 0.08074009 -0.9817911 -0.09688913 0.1998684 -0.9750207 -0.1719514 -0.08074045 -0.9817911 -0.1754251 -0.068605 -0.9820995 0.1754262 -0.0686053 -0.9820993 -0.175425 0.06860488 -0.9820996 0 -0.7710879 0.6367287 0 -0.7710865 0.6367305 0.492113 -0.4950345 0.7160766 0.4921125 -0.4950347 0.7160767 0.492113 -0.4950345 0.7160766 -0.5327749 0.5359351 0.6549234 -0.5327742 0.5359347 0.6549243 0.6938751 0 0.7200955 0.6938744 0 0.7200961 0.6938744 0 0.7200961 -0.6880522 -1.39997e-7 0.7256612 -0.6880527 3.6226e-7 0.7256608 -0.6880522 -1.78081e-7 0.7256613 0.5359172 0.5390953 0.6497454 0.5359163 0.5390956 0.6497459 0.5359162 0.5390955 0.649746 -0.4891962 -0.4921011 0.7200859 -0.4891955 -0.4921014 0.7200861 -0.4891955 -0.4921014 0.7200861 0 0.8633463 0.504612 0 0.8633465 0.5046117 0 0.8633462 0.504612 0 0.9999175 0.01285213 0 0.9999174 0.01285403 0 0.9999175 0.01285207 -0.7025827 0.7067549 0.08291625 -0.7025831 0.7067546 0.082915 -0.7025827 0.706755 0.08291637 -0.9859697 0 0.1669242 -0.9859698 0 0.1669244 -0.9859698 0 0.1669242 -0.6884962 -0.6925803 0.2151871 -0.6884962 -0.6925804 0.2151871 -0.6884962 -0.6925804 0.2151871 0 -0.9793879 0.2019888 0 -0.9793883 0.2019869 0 -0.9793883 0.2019869 0.6898491 -0.693942 0.2062833 0.6898493 -0.693942 0.2062826 0.6898494 -0.693942 0.2062825 0.9880826 -1.9323e-7 0.1539245 0.9880827 2.11879e-7 0.1539244 0.9880826 2.34689e-7 0.1539244 0.7031047 0.7072808 0.07346946 0.7031046 0.7072806 0.07347208 0.7031046 0.7072806 0.0734722 0.2190938 0.543395 0.8103825 -0.2233202 0.5431028 0.8094242 -0.2190946 0.5433954 0.810382 -0.5402997 -0.2285264 0.8098469 -0.5434108 0.2244695 0.8088994 -0.5434082 -0.2244693 0.8089013 0.540298 -0.2285262 0.8098481 0.5434092 0.224469 0.8089007 0.5402991 0.2285308 0.8098461 0.2190926 -0.5433864 0.8103887 -0.2233169 -0.5430951 0.8094303 0.2233169 -0.5430945 0.8094307 0.2233203 0.5431022 0.8094246 -0.5403009 0.2285309 0.8098448 0 0 1 0 0 1 0 0 1 0 0 -1 0 0 -1 0 0 -1 0 0 -1 0 -0.771088 0.6367287 0.4921125 -0.4950348 0.7160767 -0.5327741 0.5359348 0.6549243 0.6938751 0 0.7200955 -0.6880527 3.92168e-7 0.7256608 0.5359172 0.5390953 0.6497454 -0.4891963 -0.492101 0.7200859 0 0.9999174 0.01285409 -0.7025831 0.7067547 0.08291494 -0.9859697 0 0.1669244 -0.6884962 -0.6925803 0.2151871 0 -0.9793879 0.2019888 0.6898491 -0.693942 0.2062834 0.9880827 -2.173e-7 0.1539245 0.7031047 0.7072808 0.07346928 0.5434067 -0.2244687 0.8089025 -0.2190935 -0.5433865 0.8103883 0 0 1 0 0 1 0 0 1 0 0 1 0 0 1</float_array>
          <technique_common>
            <accessor source="#Tray_01-mesh-normals-array" count="124" stride="3">
              <param name="X" type="float"/>
              <param name="Y" type="float"/>
              <param name="Z" type="float"/>
            </accessor>
          </technique_common>
        </source>
        <source id="Tray_01-mesh-map-0">
          <float_array id="Tray_01-mesh-map-0-array" count="552">0.5964995 0.3013379 0.7925688 0.7710625 0.7925688 0.3013379 0.7424692 0.5805386 0.5963045 0.3657006 0.7424692 0.4043152 0.5974938 0.3657006 0.7439058 0.5805386 0.7439058 0.4043152 0.7970812 0.7708179 0.5945125 0.3036738 0.7970812 0.3036738 0.5964995 0.7710625 0.7925688 0.9676485 0.7925688 0.7710625 0.5945125 0.7708179 0.7970812 0.9663242 0.5945125 0.9663242 0.7970814 0.1081677 0.5945125 0.3036738 0.5945125 0.1081677 0.5964995 0.3013379 0.7925688 0.1047521 0.5964995 0.1047521 0.8215743 0.005482077 0.8031393 0.02345728 0.8215743 0.06817966 0.814593 0.06546676 0.8647466 0.06677484 0.8635726 0.06546676 0.879567 0.02679681 0.8647466 0.009588778 0.8635726 0.0108968 0.8635726 0.0108968 0.8134189 0.009588778 0.814593 0.0108968 0.879567 0.04956668 0.8647466 0.06677484 0.8815078 0.05011248 0.7985985 0.04956668 0.8134189 0.06677484 0.814593 0.06546676 0.7985985 0.02679681 0.8134189 0.009588778 0.7966578 0.02625101 0.879567 0.02679681 0.8815078 0.05011248 0.8815078 0.02625101 0.7985985 0.02679681 0.7966578 0.05011248 0.7985985 0.04956668 0.8647466 0.03759723 0.8144155 0.03915113 0.8134189 0.03759723 0.8647466 0.009588778 0.8798952 0.02689564 0.8637763 0.01087188 0.8134189 0.06677484 0.7982965 0.04984277 0.8144155 0.06586658 0.8815078 0.05011248 0.8798952 0.02689564 0.8815078 0.02625101 0.7966578 0.05011248 0.7982965 0.02689564 0.7982965 0.04984277 0.8647466 0.06677484 0.8798952 0.04984277 0.8815078 0.05011248 0.8134189 0.009588778 0.7982965 0.02689564 0.7966578 0.02625101 0.8647466 0.03759723 0.8144155 0.03915113 0.8637763 0.03915113 0.8144155 0.03915113 0.8635726 0.03721249 0.814593 0.03721249 0.8637763 0.03915113 0.879567 0.03721249 0.8635726 0.03721249 0.8277966 0.03915113 0.8504677 0.03721249 0.8276978 0.03721249 0.8798952 0.03915113 0.8635726 0.03721249 0.879567 0.03721249 0.8144155 0.03915113 0.8635726 0.03721249 0.8637763 0.03915113 0.7982965 0.03915113 0.814593 0.03721249 0.8144155 0.03915113 0.8277966 0.03915113 0.8504677 0.03721249 0.8507437 0.03915113 0.8144155 0.03915113 0.7985985 0.03721249 0.7982965 0.03915113 0.7925688 0.7710625 0.5964995 0.3013379 0.7925688 0.3013379 0.7424692 0.5805386 0.5963045 0.3657006 0.5963045 0.6191551 0.7439058 0.5805386 0.5974938 0.3657006 0.7439058 0.4043152 0.7970812 0.7708179 0.5945125 0.3036738 0.5945125 0.7708179 0.7925688 0.9676485 0.5964995 0.7710625 0.7925688 0.7710625 0.5945125 0.7708179 0.7970812 0.9663242 0.7970812 0.7708179 0.5945125 0.3036738 0.7970814 0.1081677 0.5945125 0.1081677 0.5964995 0.3013379 0.7925688 0.1047521 0.7925688 0.3013379 0.8926932 0.06817966 0.8215743 0.06817966 0.8926932 0.005482077 0.5964995 0.3013379 0.5964995 0.7710625 0.7925688 0.7710625 0.7424692 0.5805386 0.5963045 0.6191551 0.5963045 0.3657006 0.5974938 0.3657006 0.5974939 0.6191551 0.7439058 0.5805386 0.7970812 0.7708179 0.5945125 0.7708179 0.5945125 0.3036738 0.5964995 0.7710625 0.5964995 0.9676485 0.7925688 0.9676485 0.5945125 0.7708179 0.7970812 0.7708179 0.7970812 0.9663242 0.7970814 0.1081677 0.7970812 0.3036738 0.5945125 0.3036738 0.5964995 0.3013379 0.7925688 0.3013379 0.7925688 0.1047521 0.8031393 0.02345728 0.8031393 0.05020439 0.8215743 0.06817966 0.8215743 0.06817966 0.8926932 0.06817966 0.8926932 0.005482077 0.8926932 0.06817966 0.9111282 0.05020439 0.8926932 0.005482077 0.9111282 0.05020439 0.9111282 0.02345728 0.8926932 0.005482077 0.8926932 0.005482077 0.8215743 0.005482077 0.8215743 0.06817966 0.814593 0.06546676 0.8134189 0.06677484 0.8647466 0.06677484 0.879567 0.02679681 0.8815078 0.02625101 0.8647466 0.009588778 0.8635726 0.0108968 0.8647466 0.009588778 0.8134189 0.009588778 0.879567 0.04956668 0.8635726 0.06546676 0.8647466 0.06677484 0.7985985 0.04956668 0.7966578 0.05011248 0.8134189 0.06677484 0.7985985 0.02679681 0.814593 0.0108968 0.8134189 0.009588778 0.879567 0.02679681 0.879567 0.04956668 0.8815078 0.05011248 0.7985985 0.02679681 0.7966578 0.02625101 0.7966578 0.05011248 0.8647466 0.03759723 0.8637763 0.03915113 0.8144155 0.03915113 0.8647466 0.009588778 0.8815078 0.02625101 0.8798952 0.02689564 0.8134189 0.06677484 0.7966578 0.05011248 0.7982965 0.04984277 0.8815078 0.05011248 0.8798952 0.04984277 0.8798952 0.02689564 0.7966578 0.05011248 0.7966578 0.02625101 0.7982965 0.02689564 0.8647466 0.06677484 0.8637763 0.06586658 0.8798952 0.04984277 0.8134189 0.009588778 0.8144155 0.01087188 0.7982965 0.02689564 0.8647466 0.03759723 0.8134189 0.03759723 0.8144155 0.03915113 0.8144155 0.03915113 0.8637763 0.03915113 0.8635726 0.03721249 0.8637763 0.03915113 0.8798952 0.03915113 0.879567 0.03721249 0.8277966 0.03915113 0.8507437 0.03915113 0.8504677 0.03721249 0.8798952 0.03915113 0.8637763 0.03915113 0.8635726 0.03721249 0.8144155 0.03915113 0.814593 0.03721249 0.8635726 0.03721249 0.7982965 0.03915113 0.7985985 0.03721249 0.814593 0.03721249 0.8277966 0.03915113 0.8276978 0.03721249 0.8504677 0.03721249 0.8144155 0.03915113 0.814593 0.03721249 0.7985985 0.03721249 0.7925688 0.7710625 0.5964995 0.7710625 0.5964995 0.3013379 0.7424692 0.5805386 0.7424692 0.4043152 0.5963045 0.3657006 0.7439058 0.5805386 0.5974939 0.6191551 0.5974938 0.3657006 0.7970812 0.7708179 0.7970812 0.3036738 0.5945125 0.3036738 0.7925688 0.9676485 0.5964995 0.9676485 0.5964995 0.7710625 0.5945125 0.7708179 0.5945125 0.9663242 0.7970812 0.9663242 0.5945125 0.3036738 0.7970812 0.3036738 0.7970814 0.1081677 0.5964995 0.3013379 0.5964995 0.1047521 0.7925688 0.1047521 0.8215743 0.06817966 0.8031393 0.05020439 0.8031393 0.02345728 0.8031393 0.02345728 0.8215743 0.005482077 0.8215743 0.06817966 0.8215743 0.005482077 0.8926932 0.005482077 0.8215743 0.06817966 0.8926932 0.005482077 0.9111282 0.02345728 0.9111282 0.05020439 0.9111282 0.05020439 0.8926932 0.06817966 0.8926932 0.005482077</float_array>
          <technique_common>
            <accessor source="#Tray_01-mesh-map-0-array" count="276" stride="2">
              <param name="S" type="float"/>
              <param name="T" type="float"/>
            </accessor>
          </technique_common>
        </source>
        <vertices id="Tray_01-mesh-vertices">
          <input semantic="POSITION" source="#Tray_01-mesh-positions"/>
        </vertices>
        <triangles material="Tray_01-material" count="92">
          <input semantic="VERTEX" source="#Tray_01-mesh-vertices" offset="0"/>
          <input semantic="NORMAL" source="#Tray_01-mesh-normals" offset="1"/>
          <input semantic="TEXCOORD" source="#Tray_01-mesh-map-0" offset="2" set="0"/>
          <p>10 0 0 0 1 1 9 2 2 13 3 3 11 4 4 8 5 5 2 6 6 4 7 7 1 8 8 5 9 9 15 10 10 12 11 11 3 12 12 1 8 13 0 1 14 6 13 15 4 7 16 7 14 17 13 3 18 15 10 19 14 15 20 10 0 21 8 5 22 11 4 23 0 16 24 1 17 25 5 18 26 6 19 27 23 20 28 15 21 29 11 22 30 20 23 31 10 24 32 10 24 33 17 25 34 3 26 35 14 27 36 23 20 37 22 28 38 7 29 39 18 30 40 6 19 41 2 31 42 17 25 43 16 32 44 11 22 45 22 28 46 21 33 47 2 31 48 19 34 49 7 29 50 20 35 51 25 36 52 17 36 53 20 37 54 29 38 55 28 39 56 18 40 57 27 41 58 26 40 59 22 42 60 29 43 61 21 44 62 19 45 63 24 46 64 27 47 65 23 48 66 30 49 67 22 50 68 17 51 69 24 52 70 16 53 71 23 54 72 26 55 73 31 56 74 25 57 75 10 58 76 3 59 77 28 60 78 11 61 79 10 62 80 29 63 81 14 64 82 11 65 83 30 66 84 15 67 85 14 68 86 26 69 87 15 70 88 31 71 89 27 72 90 6 73 91 26 74 92 24 75 93 7 76 94 27 77 95 25 78 96 2 79 97 24 80 98 32 81 99 42 82 100 41 83 101 45 84 102 43 85 103 46 86 104 36 87 105 34 88 106 33 89 107 37 90 108 47 91 109 38 92 110 33 89 111 35 93 112 32 81 113 38 92 114 36 87 115 37 90 116 47 91 117 45 84 118 46 86 119 42 82 120 40 94 121 41 83 122 44 95 123 37 96 124 41 97 125 10 0 126 3 12 127 0 1 128 13 3 129 14 15 130 11 4 131 2 6 132 7 14 133 4 7 134 5 9 135 6 13 136 15 10 137 3 12 138 2 6 139 1 8 140 6 13 141 5 9 142 4 7 143 13 3 144 12 11 145 15 10 146 10 0 147 9 2 148 8 5 149 1 17 150 4 98 151 5 18 152 5 18 153 12 16 154 9 99 155 12 16 156 13 100 157 9 99 158 13 100 159 8 101 160 9 99 161 9 99 162 0 16 163 5 18 164 6 19 165 18 30 166 23 20 167 11 22 168 21 33 169 20 23 170 10 24 171 20 23 172 17 25 173 14 27 174 15 21 175 23 20 176 7 29 177 19 34 178 18 30 179 2 31 180 3 26 181 17 25 182 11 22 183 14 27 184 22 28 185 2 31 186 16 32 187 19 34 188 20 35 189 28 102 190 25 36 191 20 37 192 21 103 193 29 38 194 18 40 195 19 104 196 27 41 197 22 42 198 30 105 199 29 43 200 19 45 201 16 106 202 24 46 203 23 48 204 31 107 205 30 49 206 17 51 207 25 108 208 24 52 209 23 54 210 18 55 211 26 55 212 25 57 213 28 109 214 10 58 215 28 60 216 29 110 217 11 61 218 29 63 219 30 111 220 14 64 221 30 66 222 31 112 223 15 67 224 26 69 225 6 113 226 15 70 227 27 72 228 7 114 229 6 73 230 24 75 231 2 115 232 7 76 233 25 78 234 3 116 235 2 79 236 32 81 237 35 93 238 42 82 239 45 84 240 40 94 241 43 85 242 36 87 243 39 117 244 34 88 245 37 90 246 44 118 247 47 91 248 33 89 249 34 88 250 35 93 251 38 92 252 39 117 253 36 87 254 47 91 255 44 118 256 45 84 257 42 82 258 43 85 259 40 94 260 37 96 261 36 119 262 33 120 263 33 120 264 32 121 265 37 96 266 32 121 267 41 97 268 37 96 269 41 97 270 40 122 271 45 123 272 45 123 273 44 95 274 41 97 275</p>
        </triangles>
      </mesh>
    </geometry>
    <geometry id="Paper_C-mesh" name="Paper_C">
      <mesh>
        <source id="Paper_C-mesh-positions">
          <float_array id="Paper_C-mesh-positions-array" count="102">-0.780577 -0.7229417 0.1092568 0.870995 -0.5600481 0.04026842 -0.8588163 0.6305348 0.07491928 0.9151998 0.6144207 0.09212124 -0.6095165 0.3432942 -0.2414841 -0.6095165 -0.3432953 -0.2414841 0.6095159 -0.3432953 -0.2414841 0.6095159 0.3432942 -0.2414841 0 -0.3327156 -0.2414841 0 0.3327142 -0.2414841 0 -0.6675441 -0.03830999 0 0.6850774 -0.03830999 -0.6138141 0 -0.2414841 0.6138136 0 -0.2414841 -0.9844515 0 0 0.8567352 0 0 -2.73256e-7 -6.6941e-7 -0.2414841 -0.780577 -0.7229417 0.1092568 0.870995 -0.5600481 0.04026842 -0.8588163 0.6305348 0.07491928 0.9151998 0.6144207 0.09212124 -0.6095165 0.3432942 -0.2414841 -0.6095165 -0.3432953 -0.2414841 0.6095159 -0.3432953 -0.2414841 0.6095159 0.3432942 -0.2414841 0 -0.3327156 -0.2414841 0 0.3327142 -0.2414841 0 -0.6675441 -0.03830999 0 0.6850774 -0.03830999 -0.6138141 0 -0.2414841 0.6138136 0 -0.2414841 -0.9844515 0 0 0.8567352 0 0 -2.73256e-7 -6.6941e-7 -0.2414841</float_array>
          <technique_common>
            <accessor source="#Paper_C-mesh-positions-array" count="34" stride="3">
              <param name="X" type="float"/>
              <param name="Y" type="float"/>
              <param name="Z" type="float"/>
            </accessor>
          </technique_common>
        </source>
        <source id="Paper_C-mesh-normals">
          <float_array id="Paper_C-mesh-normals-array" count="102">-0.3839033 0 0.9233734 0 -0.2558791 0.9667089 0 0 1 0.2910281 -0.3023403 0.9076855 0.6335886 0.0191037 0.7734342 0.2868151 0 0.9579859 0.3112396 0.3034617 0.9005782 -0.002546012 0.5839046 0.8118183 0 0.2665705 0.9638155 -0.3325375 0.295355 0.8956475 -0.714182 -0.001889109 0.6999575 -0.3350495 -0.2837857 0.8984473 -0.002857744 -0.57596 0.8174729 0.4270794 -0.4760997 0.7687212 -0.4919614 0.4069678 0.7696436 -0.479246 -0.4127406 0.7745763 0.3807191 0.5290841 0.7583686 0 0.2558791 -0.9667089 0.3839032 0 -0.9233733 0 0 -1 -0.6335887 -0.01910376 -0.7734343 -0.291028 0.3023403 -0.9076855 -0.2868152 0 -0.9579859 0.002546012 -0.5839046 -0.8118183 -0.3112396 -0.3034617 -0.9005782 0 -0.2665705 -0.9638155 0.714182 0.001889109 -0.6999575 0.3325375 -0.295355 -0.8956475 0.002857744 0.57596 -0.817473 0.3350495 0.2837857 -0.8984473 -0.4270794 0.4760997 -0.7687212 -0.3807191 -0.5290841 -0.7583687 0.4919614 -0.4069678 -0.7696437 0.4792461 0.4127406 -0.7745764</float_array>
          <technique_common>
            <accessor source="#Paper_C-mesh-normals-array" count="34" stride="3">
              <param name="X" type="float"/>
              <param name="Y" type="float"/>
              <param name="Z" type="float"/>
            </accessor>
          </technique_common>
        </source>
        <source id="Paper_C-mesh-map-0">
          <float_array id="Paper_C-mesh-map-0-array" count="288">0.3662469 0.5450133 0.2510082 0.6601404 0.2510082 0.5450133 0.1318666 0.6618967 0.06815785 0.5431195 0.1330621 0.5464636 0.1365225 0.4250331 0.2506123 0.3207747 0.2506175 0.4284616 0.3701496 0.4281297 0.4209786 0.5450133 0.3689541 0.5435631 0.3654937 0.6649932 0.2510515 0.7718188 0.2513987 0.6615647 0.1365225 0.6649933 0.2509498 0.7718607 0.09024155 0.7832579 0.3654936 0.4250331 0.2517889 0.3196066 0.4147768 0.3311132 0.1357693 0.5450133 0.2510081 0.6601404 0.1365761 0.6638013 0.2510082 0.4298858 0.1357693 0.5450133 0.1365761 0.426225 0.3701497 0.6618967 0.4209785 0.5450133 0.4384833 0.7548781 0.1318666 0.4281297 0.06924617 0.5493778 0.07813745 0.3019982 0.2510082 0.4298858 0.3662469 0.5450133 0.2510082 0.5450133 0.2510082 0.6601404 0.3662469 0.5450133 0.2510082 0.5450133 0.06815785 0.5431194 0.1318666 0.6618967 0.1330621 0.5464636 0.2506123 0.3207747 0.1365225 0.4250331 0.2506175 0.4284616 0.4209786 0.5450133 0.3701496 0.4281297 0.3689541 0.5435631 0.2510515 0.7718188 0.3654937 0.6649932 0.2513987 0.6615647 0.1365225 0.6649933 0.2509498 0.7718607 0.2506175 0.6615647 0.3654936 0.4250331 0.2517889 0.3196066 0.2513987 0.4284616 0.1357693 0.5450133 0.2510081 0.6601404 0.2510081 0.5450133 0.1357693 0.5450133 0.2510082 0.4298858 0.1365761 0.426225 0.3701497 0.6618967 0.4209785 0.5450133 0.3689541 0.5464635 0.1318666 0.4281297 0.06924611 0.5493779 0.1330621 0.5435631 0.2510082 0.4298858 0.3662469 0.5450133 0.36544 0.426225 0.3662469 0.5450133 0.36544 0.6638013 0.2510082 0.6601404 0.1318666 0.6618967 0.07257187 0.758913 0.06815785 0.5431195 0.1365225 0.4250331 0.1046777 0.2806885 0.2506123 0.3207747 0.3701496 0.4281297 0.4274321 0.3542132 0.4209786 0.5450133 0.3654937 0.6649932 0.4223735 0.7813718 0.2510515 0.7718188 0.1365225 0.6649933 0.2506175 0.6615647 0.2509498 0.7718607 0.3654936 0.4250331 0.2513987 0.4284616 0.2517889 0.3196066 0.1357693 0.5450133 0.2510081 0.5450133 0.2510081 0.6601404 0.2510082 0.4298858 0.2510082 0.5450131 0.1357693 0.5450133 0.3701497 0.6618967 0.3689541 0.5464635 0.4209785 0.5450133 0.1318666 0.4281297 0.1330621 0.5435631 0.06924617 0.5493778 0.2510082 0.4298858 0.36544 0.426225 0.3662469 0.5450133 0.2510082 0.6601404 0.36544 0.6638013 0.3662469 0.5450133 0.06815785 0.5431194 0.07257187 0.758913 0.1318666 0.6618967 0.2506123 0.3207747 0.1046777 0.2806885 0.1365225 0.4250331 0.4209786 0.5450133 0.4274321 0.3542132 0.3701496 0.4281297 0.2510515 0.7718188 0.4223735 0.7813718 0.3654937 0.6649932 0.1365225 0.6649933 0.09024155 0.7832579 0.2509498 0.7718607 0.3654936 0.4250331 0.4147768 0.3311132 0.2517889 0.3196066 0.1357693 0.5450133 0.1365761 0.6638013 0.2510081 0.6601404 0.1357693 0.5450133 0.2510082 0.5450131 0.2510082 0.4298858 0.3701497 0.6618967 0.4384833 0.7548781 0.4209785 0.5450133 0.1318666 0.4281297 0.07813745 0.3019982 0.06924611 0.5493779 0.2510082 0.4298858 0.2510082 0.5450133 0.3662469 0.5450133</float_array>
          <technique_common>
            <accessor source="#Paper_C-mesh-map-0-array" count="144" stride="2">
              <param name="S" type="float"/>
              <param name="T" type="float"/>
            </accessor>
          </technique_common>
        </source>
        <vertices id="Paper_C-mesh-vertices">
          <input semantic="POSITION" source="#Paper_C-mesh-positions"/>
        </vertices>
        <triangles material="Tray_01-material" count="48">
          <input semantic="VERTEX" source="#Paper_C-mesh-vertices" offset="0"/>
          <input semantic="NORMAL" source="#Paper_C-mesh-normals" offset="1"/>
          <input semantic="TEXCOORD" source="#Paper_C-mesh-map-0" offset="2" set="0"/>
          <p>13 0 0 9 1 1 16 2 2 4 3 3 14 4 4 12 5 5 5 6 6 10 7 7 8 8 8 6 9 9 15 10 10 13 0 11 7 11 12 11 12 13 9 1 14 4 3 15 11 12 16 2 13 17 6 9 18 10 7 19 1 14 20 12 5 21 9 1 22 4 3 23 8 8 24 12 5 25 5 6 26 7 11 27 15 10 28 3 15 29 5 6 30 14 4 31 0 16 32 8 8 33 13 0 34 16 2 35 26 17 36 30 18 37 33 19 38 31 20 39 21 21 40 29 22 41 27 23 42 22 24 43 25 25 44 32 26 45 23 27 46 30 18 47 28 28 48 24 29 49 26 17 50 21 21 51 28 28 52 26 17 53 23 27 54 27 23 55 25 25 56 29 22 57 26 17 58 33 19 59 29 22 60 25 25 61 22 24 62 24 29 63 32 26 64 30 18 65 22 24 66 31 20 67 29 22 68 25 25 69 30 18 70 23 27 71 13 0 72 7 11 73 9 1 74 4 3 75 2 13 76 14 4 77 5 6 78 0 16 79 10 7 80 6 9 81 1 14 82 15 10 83 7 11 84 3 15 85 11 12 86 4 3 87 9 1 88 11 12 89 6 9 90 8 8 91 10 7 92 12 5 93 16 2 94 9 1 95 8 8 96 16 2 97 12 5 98 7 11 99 13 0 100 15 10 101 5 6 102 12 5 103 14 4 104 8 8 105 6 9 106 13 0 107 26 17 108 24 29 109 30 18 110 31 20 111 19 30 112 21 21 113 27 23 114 17 31 115 22 24 116 32 26 117 18 32 118 23 27 119 28 28 120 20 33 121 24 29 122 21 21 123 19 30 124 28 28 125 23 27 126 18 32 127 27 23 128 29 22 129 21 21 130 26 17 131 29 22 132 33 19 133 25 25 134 24 29 135 20 33 136 32 26 137 22 24 138 17 31 139 31 20 140 25 25 141 33 19 142 30 18 143</p>
        </triangles>
      </mesh>
    </geometry>
  </library_geometries>
  <library_visual_scenes>
    <visual_scene id="Scene" name="Scene">
      <node id="Tray_01" name="Tray_01" type="NODE">
        <matrix sid="transform">-1 3.25841e-7 0 0 -3.25841e-7 -1 0 0 0 0 1 0 0 0 0 1</matrix>
        <instance_geometry url="#Tray_01-mesh" name="Tray_01">
          <bind_material>
            <technique_common>
              <instance_material symbol="Tray_01-material" target="#Tray_01-material">
                <bind_vertex_input semantic="UVMap" input_semantic="TEXCOORD" input_set="0"/>
              </instance_material>
            </technique_common>
          </bind_material>
        </instance_geometry>
        <node id="Paper_C" name="Paper_C" type="NODE">
          <matrix sid="transform">0.1898514 0 0 0 0 0.1898514 0 0 0 0 0.1898514 0.04754448 0 0 0 1</matrix>
          <instance_geometry url="#Paper_C-mesh" name="Paper_C">
            <bind_material>
              <technique_common>
                <instance_material symbol="Tray_01-material" target="#Tray_01-material">
                  <bind_vertex_input semantic="UVMap" input_semantic="TEXCOORD" input_set="0"/>
                </instance_material>
              </technique_common>
            </bind_material>
          </instance_geometry>
        </node>
      </node>
    </visual_scene>
  </library_visual_scenes>
  <scene>
    <instance_visual_scene url="#Scene"/>
  </scene>
</COLLADA>