<?xml version="1.0" encoding="utf-8"?>
<COLLADA xmlns="http://www.collada.org/2005/11/COLLADASchema" version="1.4.1" xmlns:xsi="http://www.w3.org/2001/XMLSchema-instance">
  <asset>
    <contributor>
      <author>Blender User</author>
      <authoring_tool>Blender 4.0.1 commit date:2023-11-16, commit time:16:40, hash:d0dd92834a08</authoring_tool>
    </contributor>
    <created>2023-11-28T14:00:56</created>
    <modified>2023-11-28T14:00:56</modified>
    <unit name="meter" meter="1"/>
    <up_axis>Z_UP</up_axis>
  </asset>
  <library_effects>
    <effect id="Salt_Pepper-effect">
      <profile_COMMON>
        <newparam sid="Salt_Pepper-surface">
          <surface type="2D">
            <init_from>Salt_Pepper</init_from>
          </surface>
        </newparam>
        <newparam sid="Salt_Pepper-sampler">
          <sampler2D>
            <source>Salt_Pepper-surface</source>
          </sampler2D>
        </newparam>
        <technique sid="common">
          <lambert>
            <emission>
              <color sid="emission">0 0 0 1</color>
            </emission>
            <diffuse>
              <texture texture="Salt_Pepper-sampler" texcoord="UVMap"/>
            </diffuse>
            <index_of_refraction>
              <float sid="ior">1.45</float>
            </index_of_refraction>
          </lambert>
        </technique>
      </profile_COMMON>
    </effect>
  </library_effects>
  <library_images>
    <image id="Salt_Pepper" name="Salt_Pepper">
      <init_from>Salt_Pepper.png</init_from>
    </image>
  </library_images>
  <library_materials>
    <material id="Salt_Pepper-material" name="Salt_Pepper">
      <instance_effect url="#Salt_Pepper-effect"/>
    </material>
  </library_materials>
  <library_geometries>
    <geometry id="Salt-mesh" name="Salt">
      <mesh>
        <source id="Salt-mesh-positions">
          <float_array id="Salt-mesh-positions-array" count="54">-0.1206725 -0.1206725 -0.1206725 -0.1206725 -0.1206725 0.1803368 -0.1206725 0.1206725 -0.1206725 -0.1206725 0.1206725 0.1803368 0.1206725 -0.1206725 -0.1206725 0.1206725 -0.1206725 0.1803368 0.1206725 0.1206725 -0.1206725 0.1206725 0.1206725 0.1803368 -0.08373075 -0.05430847 0.2411379 -0.08373075 0.05430823 0.2411379 0.01956987 0.08787262 0.2411379 0.01956987 -0.08787292 0.2411379 0.08341318 -1.41098e-7 0.2411379 -0.08373075 -0.05430847 0.3251729 -0.08373075 0.05430823 0.3251729 0.01956987 0.08787262 0.3251729 0.08341318 -1.41098e-7 0.3251729 0.01956987 -0.08787292 0.3251729</float_array>
          <technique_common>
            <accessor source="#Salt-mesh-positions-array" count="18" stride="3">
              <param name="X" type="float"/>
              <param name="Y" type="float"/>
              <param name="Z" type="float"/>
            </accessor>
          </technique_common>
        </source>
        <source id="Salt-mesh-normals">
          <float_array id="Salt-mesh-normals-array" count="54">-0.6643079 -0.6668395 0.3376685 -0.5773503 0.5773503 -0.5773503 -0.5773503 -0.5773503 -0.5773503 -0.6643076 0.6668396 0.337669 0.5773503 0.5773503 -0.5773503 0.6633336 0.6567456 0.3587113 0.5773503 -0.5773503 -0.5773503 0.6633338 -0.6567457 0.3587109 0.8784889 0 0.4777629 0.2062467 -0.8686037 0.4505441 -0.6498115 -0.4721158 0.5956944 -0.7736779 -0.4470754 0.448939 -0.773678 0.4470748 0.4489393 0.2062468 0.8686028 0.4505459 -0.6498116 0.4721157 0.5956943 0.2482058 -0.7638994 0.5956943 0.8032113 0 0.5956944 0.2482059 0.7638993 0.5956943</float_array>
          <technique_common>
            <accessor source="#Salt-mesh-normals-array" count="18" stride="3">
              <param name="X" type="float"/>
              <param name="Y" type="float"/>
              <param name="Z" type="float"/>
            </accessor>
          </technique_common>
        </source>
        <source id="Salt-mesh-map-0">
          <float_array id="Salt-mesh-map-0-array" count="192">0.2805069 0.3331809 0.5427711 0.006080865 0.2805069 0.006080865 0.5549329 0.7385138 0.8171971 0.4114138 0.5549329 0.4114138 0.8171971 0.7385138 0.5549329 0.4114138 0.8171971 0.4114138 0.5427711 0.3331809 0.2805069 0.006080865 0.5427711 0.006080865 0.5427711 0.7649969 0.2805069 0.5027327 0.2805069 0.7649969 0.7560158 0.8167468 0.7560158 0.9539873 0.6615553 0.8832157 0.4329051 0.399252 0.3206506 0.4905709 0.3206506 0.399252 0.2805069 0.3331809 0.4706545 0.399252 0.5427711 0.3331809 0.2805069 0.3331809 0.4329051 0.399252 0.3206506 0.399252 0.8171971 0.7385138 0.5549329 0.7385138 0.7073311 0.8045849 0.1998742 0.8726481 0.3815058 0.8136324 0.3815058 0.9316638 0.9026002 0.6490328 0.9939191 0.5367783 0.9026002 0.5367783 0.8293589 0.2092214 0.9206778 0.3047108 0.8293589 0.3047108 0.8293589 0.3047108 0.9206778 0.4002002 0.8293589 0.4002002 0.3526231 0.399252 0.4706545 0.4905709 0.4706545 0.399252 0.6860648 0.8045849 0.5549329 0.7385138 0.8171971 0.7385138 0.9238194 0.7497072 0.9238194 0.8869479 0.8293588 0.8204787 0.8904384 0.5810347 0.8904384 0.7375455 0.8293589 0.6820331 0.2805069 0.3331809 0.5427711 0.3331809 0.5427711 0.006080865 0.5549329 0.7385138 0.8171971 0.7385138 0.8171971 0.4114138 0.8171971 0.7385138 0.5549329 0.7385138 0.5549329 0.4114138 0.5427711 0.3331809 0.2805069 0.3331809 0.2805069 0.006080865 0.5427711 0.7649969 0.5427711 0.5027327 0.2805069 0.5027327 0.4329051 0.399252 0.4329051 0.4905709 0.3206506 0.4905709 0.2805069 0.3331809 0.3526231 0.399252 0.4706545 0.399252 0.2805069 0.3331809 0.5427711 0.3331809 0.4329051 0.399252 0.3815058 0.9316638 0.2692514 0.9681375 0.1998742 0.8726481 0.1998742 0.8726481 0.2692513 0.7771587 0.3815058 0.8136324 0.9026002 0.6490328 0.9939191 0.6490328 0.9939191 0.5367783 0.8293589 0.2092214 0.9206778 0.2092214 0.9206778 0.3047108 0.8293589 0.3047108 0.9206778 0.3047108 0.9206778 0.4002002 0.3526231 0.399252 0.3526231 0.4905709 0.4706545 0.4905709</float_array>
          <technique_common>
            <accessor source="#Salt-mesh-map-0-array" count="96" stride="2">
              <param name="S" type="float"/>
              <param name="T" type="float"/>
            </accessor>
          </technique_common>
        </source>
        <vertices id="Salt-mesh-vertices">
          <input semantic="POSITION" source="#Salt-mesh-positions"/>
        </vertices>
        <triangles material="Salt_Pepper-material" count="32">
          <input semantic="VERTEX" source="#Salt-mesh-vertices" offset="0"/>
          <input semantic="NORMAL" source="#Salt-mesh-normals" offset="1"/>
          <input semantic="TEXCOORD" source="#Salt-mesh-map-0" offset="2" set="0"/>
          <p>1 0 0 2 1 1 0 2 2 3 3 3 6 4 4 2 1 5 7 5 6 4 6 7 6 4 8 5 7 9 0 2 10 4 6 11 6 4 12 0 2 13 2 1 14 5 7 15 12 8 16 11 9 17 11 9 18 13 10 19 8 11 20 1 0 21 9 12 22 3 3 23 1 0 24 11 9 25 8 11 26 7 5 27 3 3 28 10 13 29 14 14 30 17 15 31 16 16 32 9 12 33 15 17 34 10 13 35 10 13 36 16 16 37 12 8 38 12 8 39 17 15 40 11 9 41 8 11 42 14 14 43 9 12 44 12 8 45 5 7 46 7 5 47 12 8 48 7 5 49 10 13 50 10 13 51 3 3 52 9 12 53 1 0 54 3 3 55 2 1 56 3 3 57 7 5 58 6 4 59 7 5 60 5 7 61 4 6 62 5 7 63 1 0 64 0 2 65 6 4 66 4 6 67 0 2 68 11 9 69 17 15 70 13 10 71 1 0 72 8 11 73 9 12 74 1 0 75 5 7 76 11 9 77 16 16 78 15 17 79 14 14 80 14 14 81 13 10 82 17 15 83 9 12 84 14 14 85 15 17 86 10 13 87 15 17 88 16 16 89 12 8 90 16 16 91 17 15 92 8 11 93 13 10 94 14 14 95</p>
        </triangles>
      </mesh>
    </geometry>
  </library_geometries>
  <library_visual_scenes>
    <visual_scene id="Scene" name="Scene">
      <node id="Salt" name="Salt" type="NODE">
        <matrix sid="transform">-0.2700128 8.79813e-8 0 0 -8.79813e-8 -0.2700128 0 0 0 0 0.2700128 0 0 0 0 1</matrix>
        <instance_geometry url="#Salt-mesh" name="Salt">
          <bind_material>
            <technique_common>
              <instance_material symbol="Salt_Pepper-material" target="#Salt_Pepper-material">
                <bind_vertex_input semantic="UVMap" input_semantic="TEXCOORD" input_set="0"/>
              </instance_material>
            </technique_common>
          </bind_material>
        </instance_geometry>
      </node>
    </visual_scene>
  </library_visual_scenes>
  <scene>
    <instance_visual_scene url="#Scene"/>
  </scene>
</COLLADA>