<?xml version="1.0" encoding="utf-8"?>
<COLLADA xmlns="http://www.collada.org/2005/11/COLLADASchema" version="1.4.1" xmlns:xsi="http://www.w3.org/2001/XMLSchema-instance">
  <asset>
    <contributor>
      <author>Blender User</author>
      <authoring_tool>Blender 4.0.1 commit date:2023-11-16, commit time:16:40, hash:d0dd92834a08</authoring_tool>
    </contributor>
    <created>2023-11-28T12:52:48</created>
    <modified>2023-11-28T12:52:48</modified>
    <unit name="meter" meter="1"/>
    <up_axis>Z_UP</up_axis>
  </asset>
  <library_effects>
    <effect id="Store_04-effect">
      <profile_COMMON>
        <newparam sid="Store_04_png-surface">
          <surface type="2D">
            <init_from>Store_04_png</init_from>
          </surface>
        </newparam>
        <newparam sid="Store_04_png-sampler">
          <sampler2D>
            <source>Store_04_png-surface</source>
          </sampler2D>
        </newparam>
        <technique sid="common">
          <lambert>
            <emission>
              <color sid="emission">0 0 0 1</color>
            </emission>
            <diffuse>
              <texture texture="Store_04_png-sampler" texcoord="UVMap"/>
            </diffuse>
            <index_of_refraction>
              <float sid="ior">1.45</float>
            </index_of_refraction>
          </lambert>
        </technique>
      </profile_COMMON>
    </effect>
    <effect id="BrickSmallPainted-effect">
      <profile_COMMON>
        <newparam sid="BrickSmallPainted_jpg-surface">
          <surface type="2D">
            <init_from>BrickSmallPainted_jpg</init_from>
          </surface>
        </newparam>
        <newparam sid="BrickSmallPainted_jpg-sampler">
          <sampler2D>
            <source>BrickSmallPainted_jpg-surface</source>
          </sampler2D>
        </newparam>
        <technique sid="common">
          <lambert>
            <emission>
              <color sid="emission">0 0 0 1</color>
            </emission>
            <diffuse>
              <texture texture="BrickSmallPainted_jpg-sampler" texcoord="UVMap"/>
            </diffuse>
            <index_of_refraction>
              <float sid="ior">1.45</float>
            </index_of_refraction>
          </lambert>
        </technique>
      </profile_COMMON>
    </effect>
    <effect id="Rooftiles-effect">
      <profile_COMMON>
        <newparam sid="Rooftiles_png-surface">
          <surface type="2D">
            <init_from>Rooftiles_png</init_from>
          </surface>
        </newparam>
        <newparam sid="Rooftiles_png-sampler">
          <sampler2D>
            <source>Rooftiles_png-surface</source>
          </sampler2D>
        </newparam>
        <technique sid="common">
          <lambert>
            <emission>
              <color sid="emission">0 0 0 1</color>
            </emission>
            <diffuse>
              <texture texture="Rooftiles_png-sampler" texcoord="UVMap"/>
            </diffuse>
            <index_of_refraction>
              <float sid="ior">1.45</float>
            </index_of_refraction>
          </lambert>
        </technique>
      </profile_COMMON>
    </effect>
  </library_effects>
  <library_images>
    <image id="BrickSmallPainted_jpg" name="BrickSmallPainted_jpg">
      <init_from>BrickSmallPainted.jpg</init_from>
    </image>
    <image id="Rooftiles_png" name="Rooftiles_png">
      <init_from>Rooftiles.png</init_from>
    </image>
    <image id="Store_04_png" name="Store_04_png">
      <init_from>Store_04.png</init_from>
    </image>
  </library_images>
  <library_materials>
    <material id="Store_04-material" name="Store_04">
      <instance_effect url="#Store_04-effect"/>
    </material>
    <material id="BrickSmallPainted-material" name="BrickSmallPainted">
      <instance_effect url="#BrickSmallPainted-effect"/>
    </material>
    <material id="Rooftiles-material" name="Rooftiles">
      <instance_effect url="#Rooftiles-effect"/>
    </material>
  </library_materials>
  <library_geometries>
    <geometry id="Building_02-mesh" name="Building_02">
      <mesh>
        <source id="Building_02-mesh-positions">
          <float_array id="Building_02-mesh-positions-array" count="144">1.863768 1.810522 -1.173916 0.3365597 -1.734083 0.4229188 1.863768 -1.62337 1.161549 1.863768 1.810522 1.161549 -1.85718 1.810522 -1.173916 -1.601464 -1.734083 0.4229188 -1.85718 -1.62337 1.161549 -1.85718 1.810522 1.161549 2.154433 1.810522 -1.173916 2.154433 -1.734083 -1.173916 2.04372 -1.62337 1.161549 2.04372 1.699809 1.161549 -2.147845 1.810522 -1.173916 -2.147845 -1.734083 -1.173916 -2.037132 -1.62337 1.161549 -2.037132 1.699809 1.161549 1.863768 -1.82936 -1.173916 1.863768 -1.82936 1.161549 -1.85718 -1.82936 -1.173916 -1.85718 -1.82936 1.161549 2.154433 -1.82936 -1.173916 2.154433 -1.82936 1.161549 -2.147845 -1.82936 -1.173916 -2.147845 -1.82936 1.161549 0.3365597 -1.734083 0.7671127 -1.601464 -1.734083 0.7671127 1.863768 1.699809 1.161549 -1.85718 1.699809 1.161549 2.154433 -1.734083 1.161549 2.154433 1.810522 1.161549 -2.147845 -1.734083 1.161549 -2.147845 1.810522 1.161549 1.863768 -1.62337 1.095822 1.863768 1.699809 1.095822 -1.85718 -1.62337 1.095822 -1.85718 1.699809 1.095822 2.04372 -1.62337 1.095822 2.04372 1.699809 1.095822 -2.037132 -1.62337 1.095822 -2.037132 1.699809 1.095822 1.863768 -1.734083 -1.173916 1.863768 -1.734083 1.161549 -1.85718 -1.734083 -1.173916 -1.85718 -1.734083 1.161549 0.3365597 -1.812961 0.4229188 0.3365597 -1.812961 0.7671127 -1.601464 -1.812961 0.4229188 -1.601464 -1.812961 0.7671127</float_array>
          <technique_common>
            <accessor source="#Building_02-mesh-positions-array" count="48" stride="3">
              <param name="X" type="float"/>
              <param name="Y" type="float"/>
              <param name="Z" type="float"/>
            </accessor>
          </technique_common>
        </source>
        <source id="Building_02-mesh-normals">
          <float_array id="Building_02-mesh-normals-array" count="30">1 0 0 0 -1 0 0 0 -1 0 1 0 -1 0 0 0 0 1 8.91026e-7 0 1 -8.91026e-7 0 1 0 -1 0 0 -1 0</float_array>
          <technique_common>
            <accessor source="#Building_02-mesh-normals-array" count="10" stride="3">
              <param name="X" type="float"/>
              <param name="Y" type="float"/>
              <param name="Z" type="float"/>
            </accessor>
          </technique_common>
        </source>
        <source id="Building_02-mesh-map-0">
          <float_array id="Building_02-mesh-map-0-array" count="552">-1.403489 0.8311101 -1.403489 0.6837329 -1.403489 0.6837329 -1.284707 0.5340526 2.284706 0.4659475 2.284706 0.5340526 -0.9992997 1.56663e-7 -1.984081 1.51773 -0.9992996 1.51773 1.513179 -0.1869064 -0.5131788 1.186907 1.513179 1.186907 -0.8260389 0.5340526 2.361805 0.4659475 2.361805 0.5340527 -0.2871419 -0.1869064 -0.339028 1.186907 -0.2871419 1.186907 -0.2871419 -0.1869064 1.643183 1.186907 1.643183 -0.1869064 1.643183 1.186907 -0.2871419 -0.1869064 1.643183 -0.1869064 -1.984081 3.57628e-7 -2.061008 1.51773 -1.984081 1.51773 -1.45733 0.5340526 -1.284707 0.4659475 -1.284707 0.5340526 -0.9992997 1.51773 -0.9223725 1.56462e-7 -0.9992997 1.56663e-7 -0.5131788 -0.1869064 -0.6714693 1.186907 -0.5131788 1.186907 -0.6714693 -0.350246 -0.5131788 -0.4062917 -0.5131788 -0.350246 1.513179 1.186907 1.671469 -0.1869064 1.513179 -0.1869064 1.513179 -0.1869064 1.671469 1.186907 1.513179 1.186907 -0.5131788 1.186907 -0.6714693 -0.1869064 -0.5131788 -0.1869064 1.513179 -0.350246 1.671469 -0.4062917 1.671469 -0.350246 -0.2871419 -0.1869064 -0.339028 1.186907 -0.2871419 1.186907 -1.984081 3.57628e-7 -2.061008 -0.04079544 -2.061008 3.57628e-7 -0.2871419 1.186907 -0.339028 -0.1869064 -0.2871419 -0.1869064 -0.9223725 1.56462e-7 -0.9992997 -0.04079562 -0.9992997 1.56663e-7 -0.2871419 1.186907 -0.339028 -0.1869064 -0.2871419 -0.1869064 -0.5131788 -0.2851203 1.513179 -0.350246 1.513179 -0.2851203 1.513178 1.669704 -0.5131786 1.73483 -0.5131788 1.669704 1.611177 -0.2851203 1.671469 1.73483 1.611177 1.669704 -0.6111772 1.669705 -0.6714693 -0.350246 -0.6111772 -0.2851203 1.611177 -0.2851203 1.513179 -0.350246 1.671469 -0.350246 -0.6111771 1.669704 -0.5131786 1.73483 -0.6714693 1.73483 -0.6111772 -0.2851203 -0.5131788 -0.350246 -0.5131788 -0.2851203 1.611177 1.669704 1.513179 1.73483 1.513179 1.669704 2.050141 2.545536 -1.050141 -0.4453018 2.050141 -0.4453018 -1.050141 2.545536 -1.200076 -0.445302 -1.050141 -0.4453018 2.050141 -0.4453018 2.200076 2.545536 2.050141 2.545536 -1.284707 0.5340526 -1.45733 0.4659475 -1.45733 0.5340526 2.45733 0.5340526 2.284706 0.4659475 2.284706 0.5340526 2.361805 0.5340527 -0.8260389 0.4659475 -0.8260389 0.5340526 2.284706 0.5340526 -1.284707 0.4659475 -1.284707 0.5340526 2.284706 0.5340526 2.45733 0.4659475 2.45733 0.5340526 -1.403489 0.6837329 -0.9992997 1 -1.403489 0.8311101 -1.916404 0.6837331 -1.984081 0.9999998 -1.984081 -1.9622e-7 -1.403489 0.83111 -1.984081 0.9999998 -1.916404 0.83111 -1.403489 0.6837332 -1.984081 -1.9622e-7 -0.9992998 0 -1.403489 0.83111 -1.916404 0.683733 -1.403489 0.6837331 -1.403489 0.6837332 -1.916404 0.6837329 -1.916404 0.683733 -1.916404 0.6837331 -1.916404 0.8311099 -1.916404 0.83111 -1.916404 0.83111 -1.403489 0.83111 -1.403489 0.83111 -1.403489 0.8311101 -1.403489 0.8311101 -1.403489 0.6837329 -1.284707 0.5340526 -1.284707 0.4659475 2.284706 0.4659475 -0.9992997 1.56663e-7 -1.984081 3.57628e-7 -1.984081 1.51773 1.513179 -0.1869064 -0.5131788 -0.1869064 -0.5131788 1.186907 -0.8260389 0.5340526 -0.8260389 0.4659475 2.361805 0.4659475 -0.2871419 -0.1869064 -0.339028 -0.1869064 -0.339028 1.186907 -0.2871419 -0.1869064 -0.2871419 1.186907 1.643183 1.186907 1.643183 1.186907 -0.2871419 1.186907 -0.2871419 -0.1869064 -1.984081 3.57628e-7 -2.061008 3.57628e-7 -2.061008 1.51773 -1.45733 0.5340526 -1.45733 0.4659475 -1.284707 0.4659475 -0.9992997 1.51773 -0.9223725 1.51773 -0.9223725 1.56462e-7 -0.5131788 -0.1869064 -0.6714693 -0.1869064 -0.6714693 1.186907 -0.6714693 -0.350246 -0.6714693 -0.4062917 -0.5131788 -0.4062917 1.513179 1.186907 1.671469 1.186907 1.671469 -0.1869064 1.513179 -0.1869064 1.671469 -0.1869064 1.671469 1.186907 -0.5131788 1.186907 -0.6714693 1.186907 -0.6714693 -0.1869064 1.513179 -0.350246 1.513179 -0.4062917 1.671469 -0.4062917 -0.2871419 -0.1869064 -0.339028 -0.1869064 -0.339028 1.186907 -1.984081 3.57628e-7 -1.984081 -0.04079544 -2.061008 -0.04079544 -0.2871419 1.186907 -0.339028 1.186907 -0.339028 -0.1869064 -0.9223725 1.56462e-7 -0.9223726 -0.04079562 -0.9992997 -0.04079562 -0.2871419 1.186907 -0.339028 1.186907 -0.339028 -0.1869064 -0.5131788 -0.2851203 -0.5131788 -0.350246 1.513179 -0.350246 1.513178 1.669704 1.513179 1.73483 -0.5131786 1.73483 1.611177 -0.2851203 1.671469 -0.350246 1.671469 1.73483 -0.6111772 1.669705 -0.6714692 1.73483 -0.6714693 -0.350246 1.611177 -0.2851203 1.513179 -0.2851203 1.513179 -0.350246 -0.6111771 1.669704 -0.5131786 1.669704 -0.5131786 1.73483 -0.6111772 -0.2851203 -0.6714693 -0.350246 -0.5131788 -0.350246 1.611177 1.669704 1.671469 1.73483 1.513179 1.73483 2.050141 2.545536 -1.050141 2.545536 -1.050141 -0.4453018 -1.050141 2.545536 -1.200076 2.545536 -1.200076 -0.445302 2.050141 -0.4453018 2.200076 -0.445302 2.200076 2.545536 -1.284707 0.5340526 -1.284707 0.4659475 -1.45733 0.4659475 2.45733 0.5340526 2.45733 0.4659475 2.284706 0.4659475 2.361805 0.5340527 2.361805 0.4659475 -0.8260389 0.4659475 2.284706 0.5340526 2.284706 0.4659475 -1.284707 0.4659475 2.284706 0.5340526 2.284706 0.4659475 2.45733 0.4659475 -1.403489 0.6837329 -0.9992998 0 -0.9992997 1 -1.916404 0.6837331 -1.916404 0.83111 -1.984081 0.9999998 -1.403489 0.83111 -0.9992997 1 -1.984081 0.9999998 -1.403489 0.6837332 -1.916404 0.683733 -1.984081 -1.9622e-7 -1.403489 0.83111 -1.916404 0.8311099 -1.916404 0.683733 -1.403489 0.6837332 -1.40349 0.6837332 -1.916404 0.6837329 -1.916404 0.6837331 -1.916404 0.683733 -1.916404 0.8311099 -1.916404 0.83111 -1.916404 0.8311099 -1.403489 0.83111</float_array>
          <technique_common>
            <accessor source="#Building_02-mesh-map-0-array" count="276" stride="2">
              <param name="S" type="float"/>
              <param name="T" type="float"/>
            </accessor>
          </technique_common>
        </source>
        <vertices id="Building_02-mesh-vertices">
          <input semantic="POSITION" source="#Building_02-mesh-positions"/>
        </vertices>
        <triangles material="Store_04-material" count="28">
          <input semantic="VERTEX" source="#Building_02-mesh-vertices" offset="0"/>
          <input semantic="NORMAL" source="#Building_02-mesh-normals" offset="1"/>
          <input semantic="TEXCOORD" source="#Building_02-mesh-map-0" offset="2" set="0"/>
          <p>24 0 0 44 0 1 1 0 2 40 2 6 4 2 7 0 2 8 42 2 24 12 2 25 4 2 26 0 2 30 9 2 31 40 2 32 42 2 54 22 2 55 13 2 56 9 2 60 16 2 61 40 2 62 1 1 114 41 1 115 24 1 116 5 1 117 43 1 118 42 1 119 24 8 120 43 8 121 25 8 122 1 1 123 42 1 124 40 1 125 45 1 126 46 1 127 44 1 128 1 2 129 46 2 130 5 2 131 5 4 132 47 4 133 25 4 134 25 5 135 45 5 136 24 5 137 24 0 138 45 0 139 44 0 140 40 2 144 42 2 145 4 2 146 42 2 162 13 2 163 12 2 164 0 2 168 8 2 169 9 2 170 42 2 192 18 2 193 22 2 194 9 2 198 20 2 199 16 2 200 1 1 252 40 1 253 41 1 254 5 1 255 25 1 256 43 1 257 24 1 258 41 1 259 43 1 260 1 9 261 5 9 262 42 9 263 45 1 264 47 1 265 46 1 266 1 2 267 44 2 268 46 2 269 5 4 270 46 4 271 47 4 272 25 5 273 47 5 274 45 5 275</p>
        </triangles>
        <triangles material="BrickSmallPainted-material" count="58">
          <input semantic="VERTEX" source="#Building_02-mesh-vertices" offset="0"/>
          <input semantic="NORMAL" source="#Building_02-mesh-normals" offset="1"/>
          <input semantic="TEXCOORD" source="#Building_02-mesh-map-0" offset="2" set="0"/>
          <p>27 1 3 33 1 4 26 1 5 0 3 9 7 3 10 3 3 11 14 0 12 39 0 13 15 0 14 40 4 15 17 4 16 41 4 17 13 4 18 31 4 19 12 4 20 29 0 21 9 0 22 8 0 23 15 1 27 35 1 28 27 1 29 4 3 33 31 3 34 7 3 35 30 5 36 19 5 37 43 5 38 3 3 39 8 3 40 0 3 41 16 1 42 21 1 43 17 1 44 19 1 45 22 1 46 18 1 47 41 5 48 21 5 49 28 5 50 13 4 51 23 4 52 30 4 53 28 0 57 20 0 58 9 0 59 43 0 63 18 0 64 42 0 65 6 5 66 41 5 67 2 5 68 26 5 69 7 5 70 27 5 71 10 6 72 29 6 73 11 6 74 15 7 75 30 7 76 14 7 77 10 5 78 41 5 79 28 5 80 15 5 81 7 5 82 31 5 83 14 5 84 43 5 85 6 5 86 11 5 87 3 5 88 26 5 89 6 3 99 38 3 100 14 3 101 10 3 102 32 3 103 2 3 104 11 4 105 36 4 106 10 4 107 2 3 108 34 3 109 6 3 110 26 1 111 37 1 112 11 1 113 27 1 141 35 1 142 33 1 143 0 3 147 4 3 148 7 3 149 14 0 150 38 0 151 39 0 152 40 4 153 16 4 154 17 4 155 13 4 156 30 4 157 31 4 158 29 0 159 28 0 160 9 0 161 15 1 165 39 1 166 35 1 167 4 3 171 12 3 172 31 3 173 30 5 174 23 5 175 19 5 176 3 3 177 29 3 178 8 3 179 16 1 180 20 1 181 21 1 182 19 1 183 23 1 184 22 1 185 41 5 186 17 5 187 21 5 188 13 4 189 22 4 190 23 4 191 28 0 195 21 0 196 20 0 197 43 0 201 19 0 202 18 0 203 6 5 204 43 5 205 41 5 206 26 5 207 3 5 208 7 5 209 10 5 210 28 5 211 29 5 212 15 5 213 31 5 214 30 5 215 10 5 216 2 5 217 41 5 218 15 5 219 27 5 220 7 5 221 14 5 222 30 5 223 43 5 224 11 5 225 29 5 226 3 5 227 6 3 237 34 3 238 38 3 239 10 3 240 36 3 241 32 3 242 11 4 243 37 4 244 36 4 245 2 3 246 32 3 247 34 3 248 26 1 249 33 1 250 37 1 251</p>
        </triangles>
        <triangles material="Rooftiles-material" count="6">
          <input semantic="VERTEX" source="#Building_02-mesh-vertices" offset="0"/>
          <input semantic="NORMAL" source="#Building_02-mesh-normals" offset="1"/>
          <input semantic="TEXCOORD" source="#Building_02-mesh-map-0" offset="2" set="0"/>
          <p>33 5 90 34 5 91 32 5 92 35 5 93 38 5 94 34 5 95 32 5 96 37 5 97 33 5 98 33 5 228 35 5 229 34 5 230 35 5 231 39 5 232 38 5 233 32 5 234 36 5 235 37 5 236</p>
        </triangles>
      </mesh>
    </geometry>
  </library_geometries>
  <library_visual_scenes>
    <visual_scene id="Scene" name="Scene">
      <node id="Building_02" name="Building_02" type="NODE">
        <matrix sid="transform">2.210455 0 0 0 0 2.210455 0 0 0 0 2.210455 2.73101 0 0 0 1</matrix>
        <instance_geometry url="#Building_02-mesh" name="Building_02">
          <bind_material>
            <technique_common>
              <instance_material symbol="Store_04-material" target="#Store_04-material">
                <bind_vertex_input semantic="UVMap" input_semantic="TEXCOORD" input_set="0"/>
              </instance_material>
              <instance_material symbol="BrickSmallPainted-material" target="#BrickSmallPainted-material">
                <bind_vertex_input semantic="UVMap" input_semantic="TEXCOORD" input_set="0"/>
              </instance_material>
              <instance_material symbol="Rooftiles-material" target="#Rooftiles-material">
                <bind_vertex_input semantic="UVMap" input_semantic="TEXCOORD" input_set="0"/>
              </instance_material>
            </technique_common>
          </bind_material>
        </instance_geometry>
      </node>
    </visual_scene>
  </library_visual_scenes>
  <scene>
    <instance_visual_scene url="#Scene"/>
  </scene>
</COLLADA>