<?xml version="1.0" encoding="utf-8"?>
<COLLADA xmlns="http://www.collada.org/2005/11/COLLADASchema" version="1.4.1" xmlns:xsi="http://www.w3.org/2001/XMLSchema-instance">
  <asset>
    <contributor>
      <author>Blender User</author>
      <authoring_tool>Blender 4.0.1 commit date:2023-11-16, commit time:16:40, hash:d0dd92834a08</authoring_tool>
    </contributor>
    <created>2023-11-28T13:42:19</created>
    <modified>2023-11-28T13:42:19</modified>
    <unit name="meter" meter="1"/>
    <up_axis>Z_UP</up_axis>
  </asset>
  <library_effects>
    <effect id="Cupcakes-effect">
      <profile_COMMON>
        <newparam sid="Cupcakes-surface">
          <surface type="2D">
            <init_from>Cupcakes</init_from>
          </surface>
        </newparam>
        <newparam sid="Cupcakes-sampler">
          <sampler2D>
            <source>Cupcakes-surface</source>
          </sampler2D>
        </newparam>
        <technique sid="common">
          <lambert>
            <emission>
              <color sid="emission">0 0 0 1</color>
            </emission>
            <diffuse>
              <texture texture="Cupcakes-sampler" texcoord="UVMap"/>
            </diffuse>
            <index_of_refraction>
              <float sid="ior">1.45</float>
            </index_of_refraction>
          </lambert>
        </technique>
      </profile_COMMON>
    </effect>
  </library_effects>
  <library_images>
    <image id="Cupcakes" name="Cupcakes">
      <init_from>Cupcakes.png</init_from>
    </image>
  </library_images>
  <library_materials>
    <material id="Cupcakes-material" name="Cupcakes">
      <instance_effect url="#Cupcakes-effect"/>
    </material>
  </library_materials>
  <library_geometries>
    <geometry id="Cupcake_02-mesh" name="Cupcake_02">
      <mesh>
        <source id="Cupcake_02-mesh-positions">
          <float_array id="Cupcake_02-mesh-positions-array" count="150">0 0.1124935 -0.05845874 0 0.1223005 0.05099105 0.087951 0.07013857 -0.05845874 0.09561836 0.07625311 0.05099105 0.1096731 -0.02503216 -0.05845874 0.1192342 -0.0272144 0.05099105 0.04880911 -0.1013532 -0.05845874 0.05306416 -0.1101889 0.05099105 -0.04880911 -0.1013532 -0.05845874 -0.05306416 -0.1101889 0.05099105 -0.1096731 -0.02503216 -0.05845874 -0.1192342 -0.0272144 0.05099105 -0.087951 0.07013857 -0.05845874 -0.09561836 0.07625311 0.05099105 0.08000862 0.06380474 0.06788444 0 0.1023349 0.06788444 0.09976911 -0.02277165 0.06788444 0.0444014 -0.09220051 0.06788444 -0.0444014 -0.09220051 0.06788444 -0.09976911 -0.02277165 0.06788444 -0.08000862 0.06380474 0.06788444 0.08413457 0.06701618 0.1037032 9.89405e-5 0.1074856 0.1037032 0.1048896 -0.02391779 0.1037032 0.04673516 -0.09684115 0.1037032 -0.04653728 -0.09684115 0.1037032 -0.1046918 -0.02391779 0.1037032 -0.08393669 0.06701618 0.1037032 0.06728208 0.05357676 0.1504302 9.89411e-5 0.08593046 0.1504302 0.08387494 -0.01912128 0.1504302 0.03738272 -0.07742065 0.1504302 -0.03718489 -0.07742065 0.1504302 -0.08367705 -0.01912128 0.1504302 -0.06708419 0.05357676 0.1504302 -0.01528751 0 0.1776826 0.02066129 -0.006208896 0.1930784 -0.01870936 0.003116786 0.1702502 -0.03950917 -0.03601533 0.1539803 -1.53715e-4 -0.04635041 0.1476147 0.03299593 -0.03909158 0.1780316 -0.03059762 -0.04658836 0.1960427 0.01172012 -0.03939956 0.2097997 0.03510934 0.03458994 0.2046617 0.0261411 0.03601723 0.1591022 -0.0184918 0.02408462 0.1493976 -0.0111137 -0.00241363 0.1800504 0.01034462 0.009043395 0.2185868 -0.02325659 0.0534442 0.1821963 0.001682758 0.04628205 0.2190536</float_array>
          <technique_common>
            <accessor source="#Cupcake_02-mesh-positions-array" count="50" stride="3">
              <param name="X" type="float"/>
              <param name="Y" type="float"/>
              <param name="Z" type="float"/>
            </accessor>
          </technique_common>
        </source>
        <source id="Cupcake_02-mesh-normals">
          <float_array id="Cupcake_02-mesh-normals-array" count="150">0 0.9399698 0.3412577 0.5910636 0.4713576 -0.6545731 0 0.7559988 -0.654573 0.734898 0.5860617 0.3412576 0.7370442 -0.1682256 -0.6545731 0.9164029 -0.209163 0.3412575 0.3280155 -0.6811314 -0.6545731 0.4078376 -0.8468835 0.3412577 -0.3280155 -0.6811314 -0.6545731 -0.9164029 -0.209163 0.3412575 -0.7370443 -0.1682256 -0.654573 -0.7132601 0.5684838 0.4099831 -4.04863e-4 0.912535 0.4089985 -0.734898 0.5860617 0.3412576 -0.5910636 0.4713576 -0.6545731 0.8901724 -0.2032685 0.4077684 -0.3961561 -0.8217867 0.4095449 -0.8891387 -0.2028478 0.4102259 0.7136359 0.5694293 0.4080124 0.3957116 -0.8225447 0.4084514 -0.4078376 -0.8468837 0.3412576 -0.77451 0.6179557 0.1351481 -0.9659313 -0.2205547 0.1353977 -0.4296199 -0.8929071 0.1346991 0.7750197 0.617754 0.1331333 0.4303044 -0.8927454 0.1335808 -0.7138769 -0.1644236 0.6806944 -0.5674282 0.4573146 0.6847545 0.004585146 0.7162766 0.6978015 -0.06028342 2.30679e-6 0.9981814 -0.309268 -0.653205 0.6911415 0.6875227 -0.1561304 0.7091798 0.9663006 -0.2204649 0.1328852 3.81155e-4 0.9909624 0.1341395 0.3116755 -0.6388474 0.7033721 0.5541579 0.4390138 0.7072312 -0.8071063 -0.1606377 -0.5681331 -0.2796291 0.9484789 -0.148981 0.2827378 -0.4888045 -0.8253057 -0.6219732 -0.4855822 0.6142957 0.5171984 0.7962544 0.3138231 0.914878 -0.343267 -0.2125232 0.2124471 -0.3639654 0.9068602 -0.5039472 -0.1287265 -0.8540883 0.7335302 0.2035744 -0.6484528 -0.3393978 -0.9401057 -0.03178662 -0.6909447 0.7223515 0.02835166 0.948044 0.1828967 0.2603102 0.07697999 -0.6922553 0.7175353 -0.2168846 0.5951194 0.7738178</float_array>
          <technique_common>
            <accessor source="#Cupcake_02-mesh-normals-array" count="50" stride="3">
              <param name="X" type="float"/>
              <param name="Y" type="float"/>
              <param name="Z" type="float"/>
            </accessor>
          </technique_common>
        </source>
        <source id="Cupcake_02-mesh-map-0">
          <float_array id="Cupcake_02-mesh-map-0-array" count="528">0.4222087 0.538756 0.3736453 0.5991904 0.4222087 0.5991904 0.5366036 0.3866299 0.5925298 0.4470643 0.5399798 0.4470643 0.5937348 0.3866299 0.6346716 0.4470643 0.5925298 0.4470643 0.9639825 0.9317712 0.9035481 0.9880222 0.9035481 0.9341207 0.7774839 0.6178181 0.7365471 0.5573837 0.7353421 0.6178181 0.1738584 0.1173352 0.141559 0.1615132 0.162834 0.1173352 0.7353421 0.6178181 0.6794159 0.5573837 0.6827921 0.6178181 0.4707722 0.5991904 0.4222087 0.538756 0.4222087 0.5991904 0.2421587 0.3264087 0.3368505 0.3047959 0.2947087 0.2172876 0.1484326 0.06453806 0.09375452 0.06224614 0.09130138 0.05149829 0.09130144 0.1831722 0.05541831 0.1418522 0.09375452 0.1724243 0.1738584 0.1173352 0.141559 0.07315725 0.1484326 0.06453806 0.09130138 0.05149829 0.05541831 0.09281831 0.04548573 0.08803504 0.09130144 0.1831722 0.141559 0.1615132 0.1484326 0.1701323 0.04548573 0.08803504 0.05541831 0.1418522 0.04548579 0.1466354 0.7720847 0.9344887 0.7523068 0.8881418 0.7523068 0.9323197 0.5256701 0.858204 0.545448 0.9066413 0.545448 0.8564308 0.1288414 0.1415236 0.1090636 0.09131038 0.1288414 0.09248977 0.1734158 0.9457569 0.2229935 0.9655348 0.175189 0.9655348 0.5256701 0.9443447 0.545448 0.9066413 0.5256701 0.9060085 0.2229935 0.9655348 0.2638921 0.9457569 0.2613297 0.9655348 0.545448 0.8564308 0.5712489 0.9039929 0.5712489 0.8638515 0.9748486 0.7098117 0.9491773 0.7420026 0.9266999 0.7075364 0.1090636 0.1428122 0.08326262 0.09647446 0.1090636 0.09131038 0.1734158 0.9457569 0.2209779 0.9199559 0.2236264 0.9457569 0.7720847 0.9344887 0.7978856 0.8880871 0.7720847 0.8880871 0.545448 0.9066413 0.5712489 0.9361838 0.5712489 0.9039929 0.2236264 0.9457569 0.2531688 0.9199559 0.2638921 0.9457569 0.7720847 0.8880871 0.7978856 0.8509909 0.7720847 0.8416856 0.9080036 0.7420026 0.8823323 0.7098117 0.9266999 0.7075364 0.8914943 0.6696704 0.9285905 0.6518058 0.9266999 0.7075364 0.9656867 0.6696704 0.9748486 0.7098117 0.9266999 0.7075364 0.9491773 0.7420026 0.9080036 0.7420026 0.9266999 0.7075364 0.8823323 0.7098117 0.8914943 0.6696704 0.9266999 0.7075364 0.9285905 0.6518058 0.9656867 0.6696704 0.9266999 0.7075364 0.7720847 0.8880871 0.7523068 0.8439638 0.7523068 0.8881418 0.3081023 0.1459168 0.2840107 0.1360532 0.3104614 0.1285836 0.2234749 0.1510426 0.2391097 0.1360772 0.240029 0.1676491 0.3103896 0.1285496 0.2840107 0.1104179 0.2840107 0.1360532 0.3081023 0.1459168 0.3103896 0.1285496 0.2840107 0.1360532 0.009671032 0.009941697 0.02794146 0.02049016 0.009673297 0.03104609 0.2391097 0.1360772 0.2638921 0.1609261 0.240029 0.1676491 0.3104614 0.1285836 0.2840107 0.1104179 0.3015934 0.1054525 0.3081023 0.1459168 0.2840107 0.1360532 0.3104614 0.1285836 0.2234749 0.1510426 0.2391097 0.1360772 0.240029 0.1676491 0.3103896 0.1285496 0.2840107 0.1104179 0.2840107 0.1360532 0.3081023 0.1459168 0.3103896 0.1285496 0.2840107 0.1360532 0.009671032 0.009941697 0.02794146 0.02049016 0.009673297 0.03104609 0.2391097 0.1360772 0.2638921 0.1609261 0.240029 0.1676491 0.3104614 0.1285836 0.2840107 0.1104179 0.3015934 0.1054525 0.4222087 0.538756 0.3694116 0.538756 0.3736453 0.5991904 0.5366036 0.3866299 0.5937348 0.3866299 0.5925298 0.4470643 0.5937348 0.3866299 0.6395504 0.3866299 0.6346716 0.4470643 0.9639825 0.9317712 0.9639825 0.9903717 0.9035481 0.9880222 0.7774839 0.6178181 0.7823626 0.5573837 0.7365471 0.5573837 0.1738584 0.1173352 0.1484326 0.1701323 0.141559 0.1615132 0.7353421 0.6178181 0.7365471 0.5573837 0.6794159 0.5573837 0.4707722 0.5991904 0.4750059 0.538756 0.4222087 0.538756 0.2421587 0.2292817 0.2187718 0.2778452 0.2421587 0.3264087 0.2421587 0.3264087 0.2947087 0.3384029 0.3368505 0.3047959 0.3368505 0.3047959 0.3368505 0.2508946 0.2947087 0.2172876 0.2947087 0.2172876 0.2421587 0.2292817 0.2421587 0.3264087 0.1484326 0.06453806 0.141559 0.07315725 0.09375452 0.06224614 0.09130144 0.1831722 0.04548579 0.1466354 0.05541831 0.1418522 0.1738584 0.1173352 0.162834 0.1173352 0.141559 0.07315725 0.09130138 0.05149829 0.09375452 0.06224614 0.05541831 0.09281831 0.09130144 0.1831722 0.09375452 0.1724243 0.141559 0.1615132 0.04548573 0.08803504 0.05541831 0.09281831 0.05541831 0.1418522 0.7720847 0.9344887 0.7720847 0.8880871 0.7523068 0.8881418 0.5256701 0.858204 0.5256701 0.9060085 0.545448 0.9066413 0.1288414 0.1415236 0.1090636 0.1428122 0.1090636 0.09131038 0.1734158 0.9457569 0.2236264 0.9457569 0.2229935 0.9655348 0.5256701 0.9443447 0.545448 0.9469071 0.545448 0.9066413 0.2229935 0.9655348 0.2236264 0.9457569 0.2638921 0.9457569 0.545448 0.8564308 0.545448 0.9066413 0.5712489 0.9039929 0.1090636 0.1428122 0.08326262 0.1376481 0.08326262 0.09647446 0.1734158 0.9457569 0.1808366 0.9199559 0.2209779 0.9199559 0.7720847 0.9344887 0.7978856 0.9251833 0.7978856 0.8880871 0.545448 0.9066413 0.545448 0.9469071 0.5712489 0.9361838 0.2236264 0.9457569 0.2209779 0.9199559 0.2531688 0.9199559 0.7720847 0.8880871 0.7978856 0.8880871 0.7978856 0.8509909 0.7720847 0.8880871 0.7720847 0.8416856 0.7523068 0.8439638 0.3103896 0.1285496 0.3017488 0.1060109 0.2840107 0.1104179 0.2391097 0.1360772 0.2638921 0.1398137 0.2638921 0.1609261 0.3104614 0.1285836 0.2840107 0.1360532 0.2840107 0.1104179 0.3103896 0.1285496 0.3017488 0.1060109 0.2840107 0.1104179 0.2391097 0.1360772 0.2638921 0.1398137 0.2638921 0.1609261 0.3104614 0.1285836 0.2840107 0.1360532 0.2840107 0.1104179</float_array>
          <technique_common>
            <accessor source="#Cupcake_02-mesh-map-0-array" count="264" stride="2">
              <param name="S" type="float"/>
              <param name="T" type="float"/>
            </accessor>
          </technique_common>
        </source>
        <vertices id="Cupcake_02-mesh-vertices">
          <input semantic="POSITION" source="#Cupcake_02-mesh-positions"/>
        </vertices>
        <triangles material="Cupcakes-material" count="88">
          <input semantic="VERTEX" source="#Cupcake_02-mesh-vertices" offset="0"/>
          <input semantic="NORMAL" source="#Cupcake_02-mesh-normals" offset="1"/>
          <input semantic="TEXCOORD" source="#Cupcake_02-mesh-map-0" offset="2" set="0"/>
          <p>1 0 0 2 1 1 0 2 2 3 3 3 4 4 4 2 1 5 5 5 6 6 6 7 4 4 8 7 7 9 8 8 10 6 6 11 8 8 12 11 9 13 10 10 14 1 0 15 20 11 16 15 12 17 10 10 18 13 13 19 12 14 20 12 14 21 1 0 22 0 2 23 2 1 24 6 6 25 10 10 26 3 3 27 16 15 28 5 5 29 11 9 30 18 16 31 19 17 32 1 0 33 14 18 34 3 3 35 5 5 36 17 19 37 7 7 38 11 9 39 20 11 40 13 13 41 7 7 42 18 16 43 9 20 44 27 21 45 15 12 46 20 11 47 20 11 48 26 22 49 27 21 50 17 19 51 25 23 52 18 16 53 21 24 54 16 15 55 14 18 56 18 16 57 26 22 58 19 17 59 16 15 60 24 25 61 17 19 62 27 21 63 33 26 64 34 27 65 29 28 66 34 27 67 35 29 68 24 25 69 32 30 70 25 23 71 21 24 72 30 31 73 23 32 74 27 21 75 29 28 76 22 33 77 26 22 78 32 30 79 33 26 80 23 32 81 31 34 82 24 25 83 22 33 84 28 35 85 21 24 86 33 26 87 32 30 88 35 29 89 31 34 90 30 31 91 35 29 92 28 35 93 29 28 94 35 29 95 34 27 96 33 26 97 35 29 98 32 30 99 31 34 100 35 29 101 30 31 102 28 35 103 35 29 104 22 33 105 14 18 106 15 12 107 38 36 108 37 37 109 39 38 110 38 36 111 39 38 112 41 39 113 41 39 114 36 40 115 37 37 116 38 36 117 41 39 118 37 37 119 40 41 120 36 40 121 42 42 122 39 38 123 42 42 124 41 39 125 39 38 126 36 40 127 40 41 128 45 43 129 44 44 130 46 45 131 45 43 132 46 45 133 48 46 134 48 46 135 43 47 136 44 44 137 45 43 138 48 46 139 44 44 140 47 48 141 43 47 142 49 49 143 46 45 144 49 49 145 48 46 146 46 45 147 43 47 148 47 48 149 1 0 150 3 3 151 2 1 152 3 3 153 5 5 154 4 4 155 5 5 156 7 7 157 6 6 158 7 7 159 9 20 160 8 8 161 8 8 162 9 20 163 11 9 164 1 0 165 13 13 166 20 11 167 10 10 168 11 9 169 13 13 170 12 14 171 13 13 172 1 0 173 12 14 174 0 2 175 2 1 176 2 1 177 4 4 178 6 6 179 6 6 180 8 8 181 10 10 182 10 10 183 12 14 184 2 1 185 3 3 186 14 18 187 16 15 188 11 9 189 9 20 190 18 16 191 1 0 192 15 12 193 14 18 194 5 5 195 16 15 196 17 19 197 11 9 198 19 17 199 20 11 200 7 7 201 17 19 202 18 16 203 27 21 204 22 33 205 15 12 206 20 11 207 19 17 208 26 22 209 17 19 210 24 25 211 25 23 212 21 24 213 23 32 214 16 15 215 18 16 216 25 23 217 26 22 218 16 15 219 23 32 220 24 25 221 27 21 222 26 22 223 33 26 224 24 25 225 31 34 226 32 30 227 21 24 228 28 35 229 30 31 230 27 21 231 34 27 232 29 28 233 26 22 234 25 23 235 32 30 236 23 32 237 30 31 238 31 34 239 22 33 240 29 28 241 28 35 242 22 33 243 21 24 244 14 18 245 41 39 246 42 42 247 36 40 248 39 38 249 40 41 250 42 42 251 39 38 252 37 37 253 36 40 254 48 46 255 49 49 256 43 47 257 46 45 258 47 48 259 49 49 260 46 45 261 44 44 262 43 47 263</p>
        </triangles>
      </mesh>
    </geometry>
  </library_geometries>
  <library_visual_scenes>
    <visual_scene id="Scene" name="Scene">
      <node id="Cupcake_02" name="Cupcake_02" type="NODE">
        <matrix sid="transform">-0.3842145 1.25193e-7 0 0 -1.25193e-7 -0.3842145 0 0 0 0 0.3842145 0 0 0 0 1</matrix>
        <instance_geometry url="#Cupcake_02-mesh" name="Cupcake_02">
          <bind_material>
            <technique_common>
              <instance_material symbol="Cupcakes-material" target="#Cupcakes-material">
                <bind_vertex_input semantic="UVMap" input_semantic="TEXCOORD" input_set="0"/>
              </instance_material>
            </technique_common>
          </bind_material>
        </instance_geometry>
      </node>
    </visual_scene>
  </library_visual_scenes>
  <scene>
    <instance_visual_scene url="#Scene"/>
  </scene>
</COLLADA>