<?xml version="1.0" encoding="utf-8"?>
<COLLADA xmlns="http://www.collada.org/2005/11/COLLADASchema" version="1.4.1" xmlns:xsi="http://www.w3.org/2001/XMLSchema-instance">
  <asset>
    <contributor>
      <author>Blender User</author>
      <authoring_tool>Blender 4.0.1 commit date:2023-11-16, commit time:16:40, hash:d0dd92834a08</authoring_tool>
    </contributor>
    <created>2023-11-28T13:11:38</created>
    <modified>2023-11-28T13:11:38</modified>
    <unit name="meter" meter="1"/>
    <up_axis>Z_UP</up_axis>
  </asset>
  <library_effects>
    <effect id="Metal_01-effect">
      <profile_COMMON>
        <newparam sid="Metal_01_png-surface">
          <surface type="2D">
            <init_from>Metal_01_png</init_from>
          </surface>
        </newparam>
        <newparam sid="Metal_01_png-sampler">
          <sampler2D>
            <source>Metal_01_png-surface</source>
          </sampler2D>
        </newparam>
        <technique sid="common">
          <lambert>
            <emission>
              <color sid="emission">0 0 0 1</color>
            </emission>
            <diffuse>
              <texture texture="Metal_01_png-sampler" texcoord="UVMap"/>
            </diffuse>
            <index_of_refraction>
              <float sid="ior">1.45</float>
            </index_of_refraction>
          </lambert>
        </technique>
      </profile_COMMON>
    </effect>
    <effect id="MetalFence-effect">
      <profile_COMMON>
        <newparam sid="MetalFence_png-surface">
          <surface type="2D">
            <init_from>MetalFence_png</init_from>
          </surface>
        </newparam>
        <newparam sid="MetalFence_png-sampler">
          <sampler2D>
            <source>MetalFence_png-surface</source>
          </sampler2D>
        </newparam>
        <technique sid="common">
          <lambert>
            <emission>
              <color sid="emission">0 0 0 1</color>
            </emission>
            <diffuse>
              <texture texture="MetalFence_png-sampler" texcoord="UVMap"/>
            </diffuse>
            <index_of_refraction>
              <float sid="ior">1.45</float>
            </index_of_refraction>
          </lambert>
        </technique>
      </profile_COMMON>
    </effect>
  </library_effects>
  <library_images>
    <image id="MetalFence_png" name="MetalFence_png">
      <init_from>MetalFence.png</init_from>
    </image>
    <image id="Metal_01_png" name="Metal_01_png">
      <init_from>Metal_01.png</init_from>
    </image>
  </library_images>
  <library_materials>
    <material id="Metal_01-material" name="Metal_01">
      <instance_effect url="#Metal_01-effect"/>
    </material>
    <material id="MetalFence-material" name="MetalFence">
      <instance_effect url="#MetalFence-effect"/>
    </material>
  </library_materials>
  <library_geometries>
    <geometry id="Fence-mesh" name="Fence">
      <mesh>
        <source id="Fence-mesh-positions">
          <float_array id="Fence-mesh-positions-array" count="150">0.7023857 -0.7472445 -1.897759 0.7023857 -0.7472445 1.901907 0.7023857 -0.7023857 -1.897759 0.7023857 -0.7023857 1.901907 0.7472445 -0.7472445 -1.897759 0.7472445 -0.7472445 1.901907 0.7472445 -0.7023857 -1.897759 0.7472445 -0.7023857 1.901907 0.8264935 -0.8777614 -1.895942 -0.8095184 0.7654401 -1.895942 0.8521274 -0.8521274 -1.932194 -0.7874792 0.7874792 -1.927111 0.8521274 -0.8521274 -1.85969 -0.7874792 0.7874792 -1.864774 0.8777614 -0.8264934 -1.895942 -0.7654399 0.8095184 -1.895942 0.8264933 -0.8777614 1.890051 -0.8095185 0.7654401 1.890051 0.8521273 -0.8521274 1.853799 -0.7874792 0.7874792 1.858882 0.8521273 -0.8521274 1.926302 -0.7874792 0.7874792 1.921219 0.8777613 -0.8264934 1.890051 -0.7654401 0.8095184 1.890051 -0.8302847 0.7548652 -1.895942 -0.792575 0.792575 -1.949272 -0.7548651 0.8302847 -1.895942 -0.792575 0.792575 -1.842613 -0.8302849 0.7548652 1.890051 -0.7925751 0.792575 1.836721 -0.7548652 0.8302847 1.890051 -0.792575 0.792575 1.94338 -0.8467522 0.8467525 -1.895942 -0.8467524 0.8467525 1.890051 -0.7556426 0.710784 -1.897759 -0.7556426 0.710784 1.901907 -0.7556426 0.7556427 -1.897759 -0.7556426 0.7556427 1.901907 -0.7107839 0.710784 -1.897759 -0.7107839 0.710784 1.901907 -0.7107839 0.7556427 -1.897759 -0.7107839 0.7556427 1.901907 0.7245551 -0.7245549 -1.885214 0.724555 -0.7245548 1.885198 -0.7268975 0.7268974 -1.885214 -0.7268976 0.7268974 1.885198 0.7245551 -0.7245549 -1.885214 0.724555 -0.7245548 1.885198 -0.7268975 0.7268974 -1.885214 -0.7268976 0.7268974 1.885198</float_array>
          <technique_common>
            <accessor source="#Fence-mesh-positions-array" count="50" stride="3">
              <param name="X" type="float"/>
              <param name="Y" type="float"/>
              <param name="Z" type="float"/>
            </accessor>
          </technique_common>
        </source>
        <source id="Fence-mesh-normals">
          <float_array id="Fence-mesh-normals-array" count="147">-1 0 0 0 1 0 1 0 0 0 -1 0 0 0 -1 0 0 1 -0.5010966 -0.4989025 -0.7071057 0.4989029 0.5010955 -0.7071063 0.498902 0.5010958 0.7071067 -0.5010944 -0.4989033 0.7071068 0.707104 -0.7071096 0 0.4335236 -0.8513368 0.2954372 0.4989036 0.5010952 -0.7071059 0.4989001 0.5010964 0.7071076 -0.5010963 -0.4989026 0.7071059 0.7071054 -0.7071083 0 0.4335151 -0.8513408 -0.295438 0.1363583 0.7608594 0.6344284 0.1363603 0.7608583 -0.6344294 0.8513328 -0.4335303 0.2954389 0.8513378 -0.4335234 -0.2954345 0.4335257 -0.8513352 -0.2954386 0.4335277 -0.8513363 0.2954325 0.851338 -0.4335215 0.2954367 0.8513324 -0.4335307 -0.2954394 -0.7608634 -0.1363554 -0.6344243 0.1363604 0.7608581 0.6344296 -0.7608637 -0.1363565 -0.6344237 -0.7608581 -0.1363582 0.6344301 -0.7608586 -0.1363598 0.634429 -0.7071067 -0.7071069 0 0.7071067 0.7071069 0 -0.5010945 -0.498905 -0.7071056 0.4989053 0.5010954 -0.7071048 0.4989066 0.5010949 0.7071041 -0.5010965 -0.4989042 0.7071046 0.4335314 -0.851334 0.2954337 -0.5010951 -0.4989038 -0.7071059 0.4989038 0.5010967 -0.7071048 0.4989074 0.5010955 0.7071031 -0.5010958 -0.4989036 0.7071056 0.4335325 -0.8513318 -0.2954383 0.8513378 -0.4335234 0.2954345 0.8513373 -0.433521 -0.2954393 0.4335277 -0.8513363 -0.2954325 0.4335257 -0.8513352 0.2954386 0.8513391 -0.4335218 -0.2954331 -0.7071067 -0.7071068 0 0.7071067 0.7071068 0</float_array>
          <technique_common>
            <accessor source="#Fence-mesh-normals-array" count="49" stride="3">
              <param name="X" type="float"/>
              <param name="Y" type="float"/>
              <param name="Z" type="float"/>
            </accessor>
          </technique_common>
        </source>
        <source id="Fence-mesh-map-0">
          <float_array id="Fence-mesh-map-0-array" count="432">-0.0346269 1.867601 -0.002402126 -0.8619301 -0.0346269 -0.8619301 0.9953822 1.867601 1.027607 -0.8619301 0.9953822 -0.8619301 -0.002402126 1.867601 -0.0346269 -0.8619301 -0.002402126 -0.8619301 1.027607 1.867601 0.9953822 -0.8619301 1.027607 -0.8619301 1.027607 0.00249207 0.9953822 -0.0297327 0.9953822 0.00249207 0.9953822 0.00249207 1.027607 -0.0297327 1.027607 0.00249207 1.084537 -0.1234909 -0.07487803 1.072752 1.102951 -0.1050763 1.102951 -0.1050763 -0.05904585 1.088585 1.121365 -0.08666193 -0.05904585 1.088585 1.102951 -0.1050763 1.121365 -0.08666193 -0.07487803 1.072752 1.084537 -0.1234909 1.102951 -0.1050763 1.102951 -0.8866669 1.102951 -0.8345831 1.084537 -0.8606249 -0.09071022 1.859084 -0.07853865 1.897393 -0.1056278 1.859084 1.084536 -0.1234909 -0.07487803 1.072752 1.102951 -0.1050763 -0.07487803 1.072752 1.121365 -0.08666193 1.102951 -0.1050763 -0.05904597 1.088585 1.102951 -0.1050763 1.121365 -0.08666193 -0.07487803 1.072752 1.084536 -0.1234909 1.102951 -0.1050763 1.102951 1.833042 1.102951 1.885125 1.084536 1.859084 -0.09071022 1.859084 -0.07853871 1.820774 -0.07487803 1.836694 -0.07853865 1.897393 -0.05144947 1.859084 -0.1174575 1.859084 -0.05144929 -0.8606249 -0.07853865 -0.8989347 -0.1174575 -0.8606249 1.067858 -0.8382349 1.098608 -0.8606249 1.071519 -0.822315 1.067858 1.836694 1.098608 1.859084 1.08369 1.859084 -0.07487803 -0.8830149 -0.1056277 -0.8606249 -0.07853865 -0.8989347 -0.07487803 -0.8382349 -0.1056277 -0.8606249 -0.0907101 -0.8606249 1.067858 1.881474 1.098608 1.859084 1.071519 1.897393 1.067858 -0.8830149 1.098608 -0.8606249 1.08369 -0.8606249 1.071519 1.820774 1.04443 1.859084 1.110438 1.859084 -0.07853865 -0.822315 -0.05144929 -0.8606249 -0.1174575 -0.8606249 1.071519 -0.8989347 1.04443 -0.8606249 1.110438 -0.8606249 1.04443 1.859084 1.071519 1.897393 1.110438 1.859084 -0.05144947 1.859084 -0.07853871 1.820774 -0.1174575 1.859084 1.04443 -0.8606249 1.071519 -0.822315 1.110438 -0.8606249 1.012763 1.867601 1.044988 -0.8619301 1.012763 -0.8619301 -0.05200785 1.867601 -0.01978313 -0.8619301 -0.05200785 -0.8619301 1.044988 1.867601 1.012763 -0.8619301 1.044988 -0.8619301 -0.01978313 1.867601 -0.05200785 -0.8619301 -0.01978313 -0.8619301 -0.01978313 1.049882 -0.05200785 1.017658 -0.05200785 1.049882 -0.05200785 1.049882 -0.01978313 1.017658 -0.01978313 1.049882 5.192729 -2.477463 -7.884012 3.807417 -7.884013 -2.477464 -7.884012 3.807417 5.192729 -2.477463 -7.884013 -2.477464 -0.0346269 1.867601 -0.002402126 1.867601 -0.002402126 -0.8619301 0.9953822 1.867601 1.027607 1.867601 1.027607 -0.8619301 -0.002402126 1.867601 -0.0346269 1.867601 -0.0346269 -0.8619301 1.027607 1.867601 0.9953822 1.867601 0.9953822 -0.8619301 1.027607 0.00249207 1.027607 -0.0297327 0.9953822 -0.0297327 0.9953822 0.00249207 0.9953822 -0.0297327 1.027607 -0.0297327 1.084537 -0.1234909 -0.0907101 1.05692 -0.07487803 1.072752 1.102951 -0.1050763 -0.07487803 1.072752 -0.05904585 1.088585 -0.05904585 1.088585 -0.07487803 1.072752 1.102951 -0.1050763 -0.07487803 1.072752 -0.0907101 1.05692 1.084537 -0.1234909 1.102951 -0.8866669 1.121365 -0.8606249 1.102951 -0.8345831 -0.09071022 1.859084 -0.07487803 1.881474 -0.07853865 1.897393 1.084536 -0.1234909 -0.09071022 1.05692 -0.07487803 1.072752 -0.07487803 1.072752 -0.05904597 1.088585 1.121365 -0.08666193 -0.05904597 1.088585 -0.07487803 1.072752 1.102951 -0.1050763 -0.07487803 1.072752 -0.09071022 1.05692 1.084536 -0.1234909 1.102951 1.833042 1.121365 1.859084 1.102951 1.885125 -0.09071022 1.859084 -0.1056278 1.859084 -0.07853871 1.820774 1.067858 -0.8382349 1.08369 -0.8606249 1.098608 -0.8606249 1.067858 1.836694 1.071519 1.820774 1.098608 1.859084 -0.07487803 -0.8830149 -0.0907101 -0.8606249 -0.1056277 -0.8606249 -0.07487803 -0.8382349 -0.07853865 -0.822315 -0.1056277 -0.8606249 1.067858 1.881474 1.08369 1.859084 1.098608 1.859084 1.067858 -0.8830149 1.071519 -0.8989347 1.098608 -0.8606249 1.012763 1.867601 1.044988 1.867601 1.044988 -0.8619301 -0.05200785 1.867601 -0.01978313 1.867601 -0.01978313 -0.8619301 1.044988 1.867601 1.012763 1.867601 1.012763 -0.8619301 -0.01978313 1.867601 -0.05200785 1.867601 -0.05200785 -0.8619301 -0.01978313 1.049882 -0.01978313 1.017658 -0.05200785 1.017658 -0.05200785 1.049882 -0.05200785 1.017658 -0.01978313 1.017658 5.192729 -2.477463 5.192729 3.807417 -7.884012 3.807417 -7.884012 3.807417 5.192729 3.807417 5.192729 -2.477463</float_array>
          <technique_common>
            <accessor source="#Fence-mesh-map-0-array" count="216" stride="2">
              <param name="S" type="float"/>
              <param name="T" type="float"/>
            </accessor>
          </technique_common>
        </source>
        <vertices id="Fence-mesh-vertices">
          <input semantic="POSITION" source="#Fence-mesh-positions"/>
        </vertices>
        <triangles material="Metal_01-material" count="68">
          <input semantic="VERTEX" source="#Fence-mesh-vertices" offset="0"/>
          <input semantic="NORMAL" source="#Fence-mesh-normals" offset="1"/>
          <input semantic="TEXCOORD" source="#Fence-mesh-map-0" offset="2" set="0"/>
          <p>1 0 0 2 0 1 0 0 2 3 1 3 6 1 4 2 1 5 7 2 6 4 2 7 6 2 8 5 3 9 0 3 10 4 3 11 6 4 12 0 4 13 2 4 14 3 5 15 5 5 16 7 5 17 8 6 18 11 6 19 10 6 20 10 7 21 15 7 22 14 7 23 15 8 24 12 8 25 14 8 26 13 9 27 8 9 28 12 9 29 10 10 30 12 10 31 8 10 32 17 11 33 31 11 34 28 11 35 16 6 36 19 6 37 18 6 38 19 12 39 22 12 40 18 12 41 23 13 42 20 13 43 22 13 44 21 14 45 16 14 46 20 14 47 18 15 48 20 15 49 16 15 50 17 16 51 29 16 52 19 16 53 31 17 54 30 17 55 33 17 56 26 18 57 25 18 58 32 18 59 13 19 60 26 19 61 27 19 62 19 20 63 30 20 64 23 20 65 11 21 66 24 21 67 25 21 68 13 22 69 24 22 70 9 22 71 21 23 72 30 23 73 31 23 74 11 24 75 26 24 76 15 24 77 29 25 78 28 25 79 33 25 80 27 26 81 26 26 82 32 26 83 25 27 84 24 27 85 32 27 86 28 28 87 31 28 88 33 28 89 30 18 90 29 18 91 33 18 92 24 29 93 27 29 94 32 29 95 35 0 96 36 0 97 34 0 98 37 1 99 40 1 100 36 1 101 41 2 102 38 2 103 40 2 104 39 3 105 34 3 106 38 3 107 40 4 108 34 4 109 36 4 110 37 5 111 39 5 112 41 5 113 1 0 120 3 0 121 2 0 122 3 1 123 7 1 124 6 1 125 7 2 126 5 2 127 4 2 128 5 3 129 1 3 130 0 3 131 6 4 132 4 4 133 0 4 134 3 5 135 1 5 136 5 5 137 8 32 138 9 32 139 11 32 140 10 33 141 11 33 142 15 33 143 15 34 144 13 34 145 12 34 146 13 35 147 9 35 148 8 35 149 10 10 150 14 10 151 12 10 152 17 36 153 21 36 154 31 36 155 16 37 156 17 37 157 19 37 158 19 38 159 23 38 160 22 38 161 23 39 162 21 39 163 20 39 164 21 40 165 17 40 166 16 40 167 18 15 168 22 15 169 20 15 170 17 41 171 28 41 172 29 41 173 13 42 174 15 42 175 26 42 176 19 43 177 29 43 178 30 43 179 11 44 180 9 44 181 24 44 182 13 45 183 27 45 184 24 45 185 21 42 186 23 42 187 30 42 188 11 46 189 25 46 190 26 46 191 35 0 192 37 0 193 36 0 194 37 1 195 41 1 196 40 1 197 41 2 198 39 2 199 38 2 200 39 3 201 35 3 202 34 3 203 40 4 204 38 4 205 34 4 206 37 5 207 35 5 208 39 5 209</p>
        </triangles>
        <triangles material="MetalFence-material" count="4">
          <input semantic="VERTEX" source="#Fence-mesh-vertices" offset="0"/>
          <input semantic="NORMAL" source="#Fence-mesh-normals" offset="1"/>
          <input semantic="TEXCOORD" source="#Fence-mesh-map-0" offset="2" set="0"/>
          <p>43 30 114 44 30 115 42 30 116 48 31 117 47 31 118 46 31 119 43 47 210 45 47 211 44 47 212 48 48 213 49 48 214 47 48 215</p>
        </triangles>
      </mesh>
    </geometry>
  </library_geometries>
  <library_visual_scenes>
    <visual_scene id="Scene" name="Scene">
      <node id="Fence" name="Fence" type="NODE">
        <matrix sid="transform">8.43216e-9 -3.52792e-8 -1 0 -0.7071068 -0.7071068 1.89837e-8 0 -0.7071068 0.7071068 -3.09086e-8 0 0 0 0 1</matrix>
        <instance_geometry url="#Fence-mesh" name="Fence">
          <bind_material>
            <technique_common>
              <instance_material symbol="Metal_01-material" target="#Metal_01-material">
                <bind_vertex_input semantic="UVMap" input_semantic="TEXCOORD" input_set="0"/>
              </instance_material>
              <instance_material symbol="MetalFence-material" target="#MetalFence-material">
                <bind_vertex_input semantic="UVMap" input_semantic="TEXCOORD" input_set="0"/>
              </instance_material>
            </technique_common>
          </bind_material>
        </instance_geometry>
      </node>
    </visual_scene>
  </library_visual_scenes>
  <scene>
    <instance_visual_scene url="#Scene"/>
  </scene>
</COLLADA>