<?xml version="1.0" encoding="utf-8"?>
<COLLADA xmlns="http://www.collada.org/2005/11/COLLADASchema" version="1.4.1" xmlns:xsi="http://www.w3.org/2001/XMLSchema-instance">
  <asset>
    <contributor>
      <author>Blender User</author>
      <authoring_tool>Blender 4.0.1 commit date:2023-11-16, commit time:16:40, hash:d0dd92834a08</authoring_tool>
    </contributor>
    <created>2023-11-28T13:12:24</created>
    <modified>2023-11-28T13:12:24</modified>
    <unit name="meter" meter="1"/>
    <up_axis>Z_UP</up_axis>
  </asset>
  <library_effects>
    <effect id="Dumpster-effect">
      <profile_COMMON>
        <newparam sid="Dumpster-surface">
          <surface type="2D">
            <init_from>Dumpster</init_from>
          </surface>
        </newparam>
        <newparam sid="Dumpster-sampler">
          <sampler2D>
            <source>Dumpster-surface</source>
          </sampler2D>
        </newparam>
        <technique sid="common">
          <lambert>
            <emission>
              <color sid="emission">0 0 0 1</color>
            </emission>
            <diffuse>
              <texture texture="Dumpster-sampler" texcoord="UVMap"/>
            </diffuse>
            <index_of_refraction>
              <float sid="ior">1.45</float>
            </index_of_refraction>
          </lambert>
        </technique>
      </profile_COMMON>
    </effect>
  </library_effects>
  <library_images>
    <image id="Dumpster" name="Dumpster">
      <init_from>Dumpster.png</init_from>
    </image>
  </library_images>
  <library_materials>
    <material id="Dumpster-material" name="Dumpster">
      <instance_effect url="#Dumpster-effect"/>
    </material>
  </library_materials>
  <library_geometries>
    <geometry id="Cube_040-mesh" name="Cube.040">
      <mesh>
        <source id="Cube_040-mesh-positions">
          <float_array id="Cube_040-mesh-positions-array" count="102">-0.5280375 -1.379391 -0.152876 -0.5280375 0.001310408 -0.01906841 0.5143603 0.001310408 -0.01906841 0.5143603 -1.379391 -0.152876 -0.5280375 -1.382735 -0.1047796 -0.5280375 -0.00203365 0.02902793 0.5143603 -1.382735 -0.1047796 0.5143603 -0.00203365 0.02902793 -0.5280375 -0.6890403 -0.08597224 0.5143603 -0.6890403 -0.08597224 -0.5280375 -0.6923844 0.03467327 0.5143603 -0.6923844 0.03467327 -0.5010003 -0.6923844 0.03105622 -0.5010003 -0.03784555 0.02570372 0.4873232 -1.346923 -0.1011626 -0.5010003 -1.346923 -0.1011626 0.4873231 -0.03784555 0.02570372 0.4873232 -0.6923844 0.03105622 0.1400012 0.005520641 -0.02154648 0.1400012 -0.01602578 0 0.1400012 0.02706718 0 0.1400012 0.005520641 0.02154648 0.3864833 0.005520641 -0.02154648 0.3864833 -0.01602578 0 0.3864833 0.02706718 0 0.3864833 0.005520641 0.02154648 -0.1400012 0.005520641 -0.02154648 -0.1400012 -0.01602578 0 -0.1400012 0.02706718 0 -0.1400012 0.005520641 0.02154648 -0.3864833 0.005520641 -0.02154648 -0.3864833 -0.01602578 0 -0.3864833 0.02706718 0 -0.3864833 0.005520641 0.02154648</float_array>
          <technique_common>
            <accessor source="#Cube_040-mesh-positions-array" count="34" stride="3">
              <param name="X" type="float"/>
              <param name="Y" type="float"/>
              <param name="Z" type="float"/>
            </accessor>
          </technique_common>
        </source>
        <source id="Cube_040-mesh-normals">
          <float_array id="Cube_040-mesh-normals-array" count="111">0 0.09646081 -0.9953368 0.1325948 0.008104979 0.9911373 0 0.9975916 0.06936234 -1 0 0 1 0 0 0 -0.9975916 -0.06936228 -1 0 0 -0.1325956 0.008104979 0.9911372 0 0.09646087 -0.9953368 0 0.008177161 0.9999666 0 -0.1980035 0.9802013 -0.1300198 -0.1963237 0.9718807 0 -0.1004905 0.9949381 0.1300185 -0.1963225 0.9718811 0 -0.09242665 0.9957195 0 0.7071068 0.7071068 0 -0.7071068 -0.7071067 0 0.7071068 -0.7071068 0 -0.7071068 0.7071067 0 -0.7071067 -0.7071069 0 -0.7071067 0.7071069 0.132595 0.00810492 0.9911372 1 0 0 -1 1.78433e-7 0 -0.1325948 0.008104979 0.9911373 0 0.008177161 0.9999666 0 -0.1980037 0.9802014 -0.1300191 -0.1963217 0.9718812 0 -0.1004901 0.9949381 0.1300192 -0.1963229 0.9718809 0 -0.09242665 0.9957195 0 0.7071068 0.7071068 0 0.7071068 -0.7071068 0 0.7071067 0.7071068 0 -0.7071068 -0.7071068 0 0.7071067 -0.7071068 0 -0.7071068 0.7071068</float_array>
          <technique_common>
            <accessor source="#Cube_040-mesh-normals-array" count="37" stride="3">
              <param name="X" type="float"/>
              <param name="Y" type="float"/>
              <param name="Z" type="float"/>
            </accessor>
          </technique_common>
        </source>
        <source id="Cube_040-mesh-map-0">
          <float_array id="Cube_040-mesh-map-0-array" count="336">0.07165729 0.2354924 0.3637932 0.4289658 0.3637932 0.2354924 0.1755661 0.2291415 0.1742618 0.1339601 0.1755999 0.1287454 0.1689378 0.3046802 0.1747263 0.1530971 0.1689378 0.1530972 0.1592146 0.2286455 0.1561624 0.3294569 0.1755661 0.2291415 0.1689436 0.1282564 0.1755661 0.2291415 0.1592146 0.2286455 0.1494798 0.1530972 0.1552696 0.3046801 0.1494798 0.3046802 0.1592146 0.2286455 0.1561624 0.3294569 0.1494857 0.3290347 0.1689436 0.1282564 0.1755661 0.2291415 0.1755999 0.1287454 0.1755661 0.2291415 0.1742618 0.1339601 0.1750401 0.2291415 0.07165729 0.042019 0.3637932 0.2354924 0.3637932 0.042019 0.356361 0.424317 0.07560634 0.2384131 0.356361 0.2384131 0.356361 0.2384131 0.07560634 0.05271708 0.356361 0.05271708 0.1755661 0.2291415 0.1558591 0.3240817 0.1561624 0.3294569 0.1552696 0.1530972 0.1554327 0.3007485 0.1552696 0.3046801 0.1755661 0.2291415 0.1558591 0.3240817 0.1750401 0.2291415 0.1747263 0.3046802 0.1746056 0.1570289 0.1747263 0.1530971 0.3145779 0.3571299 0.2946693 0.3372213 0.2946693 0.3571299 0.3145779 0.3974849 0.2946693 0.2364448 0.2946693 0.3974849 0.3145779 0.3372213 0.2946693 0.3571299 0.2946693 0.3372213 0.3145779 0.2364448 0.2946693 0.3974849 0.2946693 0.2364448 0.3145779 0.2364448 0.2946693 0.3974849 0.3145779 0.3974849 0.3145779 0.3974849 0.2946693 0.2364448 0.3145779 0.2364448 0.2946693 0.3571299 0.3145779 0.3372213 0.3145779 0.3571299 0.2946693 0.4047389 0.3145779 0.2436987 0.2946693 0.2436987 0.2946693 0.3571299 0.3145779 0.3372213 0.2946693 0.3372213 0.2946693 0.2436987 0.3145779 0.4047389 0.2946693 0.4047389 0.2946693 0.2436987 0.3145779 0.4047389 0.3145779 0.2436987 0.2946693 0.4047389 0.3145779 0.2436987 0.3145779 0.4047389 0.07165729 0.2354924 0.07165729 0.4289658 0.3637932 0.4289658 0.1755661 0.2291415 0.1750401 0.2291415 0.1742618 0.1339601 0.1689378 0.3046802 0.1747263 0.3046802 0.1747263 0.1530971 0.1592146 0.2286455 0.1494857 0.3290347 0.1561624 0.3294569 0.1689436 0.1282564 0.1755999 0.1287454 0.1755661 0.2291415 0.1494798 0.1530972 0.1552696 0.1530972 0.1552696 0.3046801 0.1592146 0.2286455 0.1755661 0.2291415 0.1561624 0.3294569 0.1689436 0.1282564 0.1592146 0.2286455 0.1755661 0.2291415 0.1755661 0.2291415 0.1755999 0.1287454 0.1742618 0.1339601 0.07165729 0.042019 0.07165729 0.2354924 0.3637932 0.2354924 0.356361 0.424317 0.07560634 0.424317 0.07560634 0.2384131 0.356361 0.2384131 0.07560634 0.2384131 0.07560634 0.05271708 0.1755661 0.2291415 0.1750401 0.2291415 0.1558591 0.3240817 0.1552696 0.1530972 0.1554327 0.1570289 0.1554327 0.3007485 0.1755661 0.2291415 0.1561624 0.3294569 0.1558591 0.3240817 0.1747263 0.3046802 0.1746056 0.3007485 0.1746056 0.1570289 0.3145779 0.3571299 0.3145779 0.3372213 0.2946693 0.3372213 0.3145779 0.3974849 0.3145779 0.2364448 0.2946693 0.2364448 0.3145779 0.3372213 0.3145779 0.3571299 0.2946693 0.3571299 0.3145779 0.2364448 0.3145779 0.3974849 0.2946693 0.3974849 0.3145779 0.2364448 0.2946693 0.2364448 0.2946693 0.3974849 0.3145779 0.3974849 0.2946693 0.3974849 0.2946693 0.2364448 0.2946693 0.3571299 0.2946693 0.3372213 0.3145779 0.3372213 0.2946693 0.4047389 0.3145779 0.4047389 0.3145779 0.2436987 0.2946693 0.3571299 0.3145779 0.3571299 0.3145779 0.3372213 0.2946693 0.2436987 0.3145779 0.2436987 0.3145779 0.4047389 0.2946693 0.2436987 0.2946693 0.4047389 0.3145779 0.4047389 0.2946693 0.4047389 0.2946693 0.2436987 0.3145779 0.2436987</float_array>
          <technique_common>
            <accessor source="#Cube_040-mesh-map-0-array" count="168" stride="2">
              <param name="S" type="float"/>
              <param name="T" type="float"/>
            </accessor>
          </technique_common>
        </source>
        <vertices id="Cube_040-mesh-vertices">
          <input semantic="POSITION" source="#Cube_040-mesh-positions"/>
        </vertices>
        <triangles material="Dumpster-material" count="56">
          <input semantic="VERTEX" source="#Cube_040-mesh-vertices" offset="0"/>
          <input semantic="NORMAL" source="#Cube_040-mesh-normals" offset="1"/>
          <input semantic="TEXCOORD" source="#Cube_040-mesh-map-0" offset="2" set="0"/>
          <p>8 0 0 2 0 1 9 0 2 10 1 3 13 1 4 5 1 5 1 2 6 7 2 7 2 2 8 8 3 9 4 3 10 10 3 11 2 4 12 11 4 13 9 4 14 3 5 15 4 5 16 0 5 17 9 4 18 6 4 19 3 4 20 1 6 21 10 6 22 5 6 23 11 7 24 16 7 25 17 7 26 0 8 27 9 8 28 3 8 29 16 9 30 12 9 31 17 9 32 17 10 33 15 10 34 14 10 35 11 11 36 14 11 37 6 11 38 6 12 39 15 12 40 4 12 41 10 13 42 15 13 43 12 13 44 5 14 45 16 14 46 7 14 47 19 3 48 20 3 49 18 3 50 21 15 51 24 15 52 20 15 53 25 4 54 22 4 55 24 4 56 23 16 57 18 16 58 22 16 59 24 17 60 18 17 61 20 17 62 21 18 63 23 18 64 25 18 65 26 4 66 29 4 67 27 4 68 32 15 69 29 15 70 28 15 71 30 3 72 33 3 73 32 3 74 26 19 75 31 19 76 30 19 77 26 17 78 32 17 79 28 17 80 31 20 81 29 20 82 33 20 83 8 0 84 1 0 85 2 0 86 10 21 87 12 21 88 13 21 89 1 2 90 5 2 91 7 2 92 8 3 93 0 3 94 4 3 95 2 22 96 7 22 97 11 22 98 3 5 99 6 5 100 4 5 101 9 4 102 11 4 103 6 4 104 1 23 105 8 23 106 10 23 107 11 24 108 7 24 109 16 24 110 0 0 111 8 0 112 9 0 113 16 25 114 13 25 115 12 25 116 17 26 117 12 26 118 15 26 119 11 27 120 17 27 121 14 27 122 6 28 123 14 28 124 15 28 125 10 29 126 4 29 127 15 29 128 5 30 129 13 30 130 16 30 131 19 3 132 21 3 133 20 3 134 21 31 135 25 31 136 24 31 137 25 4 138 23 4 139 22 4 140 23 16 141 19 16 142 18 16 143 24 32 144 22 32 145 18 32 146 21 18 147 19 18 148 23 18 149 26 4 150 28 4 151 29 4 152 32 33 153 33 33 154 29 33 155 30 3 156 31 3 157 33 3 158 26 34 159 27 34 160 31 34 161 26 35 162 30 35 163 32 35 164 31 36 165 27 36 166 29 36 167</p>
        </triangles>
      </mesh>
    </geometry>
    <geometry id="Cube_041-mesh" name="Cube.041">
      <mesh>
        <source id="Cube_041-mesh-positions">
          <float_array id="Cube_041-mesh-positions-array" count="102">-0.5280375 -1.379391 -0.152876 -0.5280375 0.001310408 -0.01906841 0.5143603 0.001310408 -0.01906841 0.5143603 -1.379391 -0.152876 -0.5280375 -1.382735 -0.1047796 -0.5280375 -0.00203365 0.02902793 0.5143603 -1.382735 -0.1047796 0.5143603 -0.00203365 0.02902793 -0.5280375 -0.6890403 -0.08597224 0.5143603 -0.6890403 -0.08597224 -0.5280375 -0.6923844 0.03467327 0.5143603 -0.6923844 0.03467327 -0.5010003 -0.6923844 0.03105622 -0.5010003 -0.03784555 0.02570372 0.4873232 -1.346923 -0.1011626 -0.5010003 -1.346923 -0.1011626 0.4873231 -0.03784555 0.02570372 0.4873232 -0.6923844 0.03105622 0.1400012 0.005520641 -0.02154648 0.1400012 -0.01602578 0 0.1400012 0.02706718 0 0.1400012 0.005520641 0.02154648 0.3864833 0.005520641 -0.02154648 0.3864833 -0.01602578 0 0.3864833 0.02706718 0 0.3864833 0.005520641 0.02154648 -0.1400012 0.005520641 -0.02154648 -0.1400012 -0.01602578 0 -0.1400012 0.02706718 0 -0.1400012 0.005520641 0.02154648 -0.3864833 0.005520641 -0.02154648 -0.3864833 -0.01602578 0 -0.3864833 0.02706718 0 -0.3864833 0.005520641 0.02154648</float_array>
          <technique_common>
            <accessor source="#Cube_041-mesh-positions-array" count="34" stride="3">
              <param name="X" type="float"/>
              <param name="Y" type="float"/>
              <param name="Z" type="float"/>
            </accessor>
          </technique_common>
        </source>
        <source id="Cube_041-mesh-normals">
          <float_array id="Cube_041-mesh-normals-array" count="111">0 0.09646081 -0.9953368 0.1325948 0.008104979 0.9911373 0 0.9975916 0.06936234 -1 0 0 1 0 0 0 -0.9975916 -0.06936228 -1 0 0 -0.1325956 0.008104979 0.9911372 0 0.09646087 -0.9953368 0 0.008177161 0.9999666 0 -0.1980035 0.9802013 -0.1300198 -0.1963237 0.9718807 0 -0.1004905 0.9949381 0.1300185 -0.1963225 0.9718811 0 -0.09242665 0.9957195 0 0.7071068 0.7071068 0 -0.7071068 -0.7071067 0 0.7071068 -0.7071068 0 -0.7071068 0.7071067 0 -0.7071067 -0.7071069 0 -0.7071067 0.7071069 0.132595 0.00810492 0.9911372 1 0 0 -1 1.78433e-7 0 -0.1325948 0.008104979 0.9911373 0 0.008177161 0.9999666 0 -0.1980037 0.9802014 -0.1300191 -0.1963217 0.9718812 0 -0.1004901 0.9949381 0.1300192 -0.1963229 0.9718809 0 -0.09242665 0.9957195 0 0.7071068 0.7071068 0 0.7071068 -0.7071068 0 0.7071067 0.7071068 0 -0.7071068 -0.7071068 0 0.7071067 -0.7071068 0 -0.7071068 0.7071068</float_array>
          <technique_common>
            <accessor source="#Cube_041-mesh-normals-array" count="37" stride="3">
              <param name="X" type="float"/>
              <param name="Y" type="float"/>
              <param name="Z" type="float"/>
            </accessor>
          </technique_common>
        </source>
        <source id="Cube_041-mesh-map-0">
          <float_array id="Cube_041-mesh-map-0-array" count="336">0.07165729 0.2354924 0.3637932 0.4289658 0.3637932 0.2354924 0.1755661 0.2291415 0.1742618 0.1339601 0.1755999 0.1287454 0.1689378 0.3046802 0.1747263 0.1530971 0.1689378 0.1530972 0.1592146 0.2286455 0.1561624 0.3294569 0.1755661 0.2291415 0.1689436 0.1282564 0.1755661 0.2291415 0.1592146 0.2286455 0.1494798 0.1530972 0.1552696 0.3046801 0.1494798 0.3046802 0.1592146 0.2286455 0.1561624 0.3294569 0.1494857 0.3290347 0.1689436 0.1282564 0.1755661 0.2291415 0.1755999 0.1287454 0.1755661 0.2291415 0.1742618 0.1339601 0.1750401 0.2291415 0.07165729 0.042019 0.3637932 0.2354924 0.3637932 0.042019 0.356361 0.424317 0.07560634 0.2384131 0.356361 0.2384131 0.356361 0.2384131 0.07560634 0.05271708 0.356361 0.05271708 0.1755661 0.2291415 0.1558591 0.3240817 0.1561624 0.3294569 0.1552696 0.1530972 0.1554327 0.3007485 0.1552696 0.3046801 0.1755661 0.2291415 0.1558591 0.3240817 0.1750401 0.2291415 0.1747263 0.3046802 0.1746056 0.1570289 0.1747263 0.1530971 0.3145779 0.3571299 0.2946693 0.3372213 0.2946693 0.3571299 0.3145779 0.3974849 0.2946693 0.2364448 0.2946693 0.3974849 0.3145779 0.3372213 0.2946693 0.3571299 0.2946693 0.3372213 0.3145779 0.2364448 0.2946693 0.3974849 0.2946693 0.2364448 0.3145779 0.2364448 0.2946693 0.3974849 0.3145779 0.3974849 0.3145779 0.3974849 0.2946693 0.2364448 0.3145779 0.2364448 0.2946693 0.3571299 0.3145779 0.3372213 0.3145779 0.3571299 0.2946693 0.4047389 0.3145779 0.2436987 0.2946693 0.2436987 0.2946693 0.3571299 0.3145779 0.3372213 0.2946693 0.3372213 0.2946693 0.2436987 0.3145779 0.4047389 0.2946693 0.4047389 0.2946693 0.2436987 0.3145779 0.4047389 0.3145779 0.2436987 0.2946693 0.4047389 0.3145779 0.2436987 0.3145779 0.4047389 0.07165729 0.2354924 0.07165729 0.4289658 0.3637932 0.4289658 0.1755661 0.2291415 0.1750401 0.2291415 0.1742618 0.1339601 0.1689378 0.3046802 0.1747263 0.3046802 0.1747263 0.1530971 0.1592146 0.2286455 0.1494857 0.3290347 0.1561624 0.3294569 0.1689436 0.1282564 0.1755999 0.1287454 0.1755661 0.2291415 0.1494798 0.1530972 0.1552696 0.1530972 0.1552696 0.3046801 0.1592146 0.2286455 0.1755661 0.2291415 0.1561624 0.3294569 0.1689436 0.1282564 0.1592146 0.2286455 0.1755661 0.2291415 0.1755661 0.2291415 0.1755999 0.1287454 0.1742618 0.1339601 0.07165729 0.042019 0.07165729 0.2354924 0.3637932 0.2354924 0.356361 0.424317 0.07560634 0.424317 0.07560634 0.2384131 0.356361 0.2384131 0.07560634 0.2384131 0.07560634 0.05271708 0.1755661 0.2291415 0.1750401 0.2291415 0.1558591 0.3240817 0.1552696 0.1530972 0.1554327 0.1570289 0.1554327 0.3007485 0.1755661 0.2291415 0.1561624 0.3294569 0.1558591 0.3240817 0.1747263 0.3046802 0.1746056 0.3007485 0.1746056 0.1570289 0.3145779 0.3571299 0.3145779 0.3372213 0.2946693 0.3372213 0.3145779 0.3974849 0.3145779 0.2364448 0.2946693 0.2364448 0.3145779 0.3372213 0.3145779 0.3571299 0.2946693 0.3571299 0.3145779 0.2364448 0.3145779 0.3974849 0.2946693 0.3974849 0.3145779 0.2364448 0.2946693 0.2364448 0.2946693 0.3974849 0.3145779 0.3974849 0.2946693 0.3974849 0.2946693 0.2364448 0.2946693 0.3571299 0.2946693 0.3372213 0.3145779 0.3372213 0.2946693 0.4047389 0.3145779 0.4047389 0.3145779 0.2436987 0.2946693 0.3571299 0.3145779 0.3571299 0.3145779 0.3372213 0.2946693 0.2436987 0.3145779 0.2436987 0.3145779 0.4047389 0.2946693 0.2436987 0.2946693 0.4047389 0.3145779 0.4047389 0.2946693 0.4047389 0.2946693 0.2436987 0.3145779 0.2436987</float_array>
          <technique_common>
            <accessor source="#Cube_041-mesh-map-0-array" count="168" stride="2">
              <param name="S" type="float"/>
              <param name="T" type="float"/>
            </accessor>
          </technique_common>
        </source>
        <vertices id="Cube_041-mesh-vertices">
          <input semantic="POSITION" source="#Cube_041-mesh-positions"/>
        </vertices>
        <triangles material="Dumpster-material" count="56">
          <input semantic="VERTEX" source="#Cube_041-mesh-vertices" offset="0"/>
          <input semantic="NORMAL" source="#Cube_041-mesh-normals" offset="1"/>
          <input semantic="TEXCOORD" source="#Cube_041-mesh-map-0" offset="2" set="0"/>
          <p>8 0 0 2 0 1 9 0 2 10 1 3 13 1 4 5 1 5 1 2 6 7 2 7 2 2 8 8 3 9 4 3 10 10 3 11 2 4 12 11 4 13 9 4 14 3 5 15 4 5 16 0 5 17 9 4 18 6 4 19 3 4 20 1 6 21 10 6 22 5 6 23 11 7 24 16 7 25 17 7 26 0 8 27 9 8 28 3 8 29 16 9 30 12 9 31 17 9 32 17 10 33 15 10 34 14 10 35 11 11 36 14 11 37 6 11 38 6 12 39 15 12 40 4 12 41 10 13 42 15 13 43 12 13 44 5 14 45 16 14 46 7 14 47 19 3 48 20 3 49 18 3 50 21 15 51 24 15 52 20 15 53 25 4 54 22 4 55 24 4 56 23 16 57 18 16 58 22 16 59 24 17 60 18 17 61 20 17 62 21 18 63 23 18 64 25 18 65 26 4 66 29 4 67 27 4 68 32 15 69 29 15 70 28 15 71 30 3 72 33 3 73 32 3 74 26 19 75 31 19 76 30 19 77 26 17 78 32 17 79 28 17 80 31 20 81 29 20 82 33 20 83 8 0 84 1 0 85 2 0 86 10 21 87 12 21 88 13 21 89 1 2 90 5 2 91 7 2 92 8 3 93 0 3 94 4 3 95 2 22 96 7 22 97 11 22 98 3 5 99 6 5 100 4 5 101 9 4 102 11 4 103 6 4 104 1 23 105 8 23 106 10 23 107 11 24 108 7 24 109 16 24 110 0 0 111 8 0 112 9 0 113 16 25 114 13 25 115 12 25 116 17 26 117 12 26 118 15 26 119 11 27 120 17 27 121 14 27 122 6 28 123 14 28 124 15 28 125 10 29 126 4 29 127 15 29 128 5 30 129 13 30 130 16 30 131 19 3 132 21 3 133 20 3 134 21 31 135 25 31 136 24 31 137 25 4 138 23 4 139 22 4 140 23 16 141 19 16 142 18 16 143 24 32 144 22 32 145 18 32 146 21 18 147 19 18 148 23 18 149 26 4 150 28 4 151 29 4 152 32 33 153 33 33 154 29 33 155 30 3 156 31 3 157 33 3 158 26 34 159 27 34 160 31 34 161 26 35 162 30 35 163 32 35 164 31 36 165 27 36 166 29 36 167</p>
        </triangles>
      </mesh>
    </geometry>
    <geometry id="Dumpster-mesh" name="Dumpster">
      <mesh>
        <source id="Dumpster-mesh-positions">
          <float_array id="Dumpster-mesh-positions-array" count="288">-1.022606 -0.6955202 -0.7524341 -1.022606 -0.6955202 0.5118323 -1.022606 0.6691078 -0.7524341 -1.022606 0.6691078 0.6440822 1.022606 -0.6955202 -0.7524341 1.022606 -0.6955202 0.5118323 1.022606 0.6691078 -0.7524341 1.022606 0.6691078 0.6440822 -1.075744 -0.7502274 0.5065305 -1.075744 0.723815 0.649384 1.075744 0.723815 0.649384 1.075744 -0.7502274 0.5065305 -0.9828326 -0.6677876 0.5985811 -0.9828326 0.6413753 0.7254557 0.9828326 0.6413753 0.7254557 0.9828326 -0.6677876 0.5985811 -1.075744 -0.7502274 0.5905916 -1.075744 0.723815 0.7334451 1.075744 0.723815 0.7334451 1.075744 -0.7502274 0.5905916 -0.962302 -0.654114 0.3845202 -0.962302 0.6277016 0.5087446 0.962302 0.6277016 0.5087446 0.962302 -0.654114 0.3845202 -1.143927 -0.5463888 0.03955215 -1.143927 -0.5463888 0.202381 -1.159686 0.4797896 0.02345222 -1.159686 0.4797896 0.218481 -0.9991284 -0.5463888 -0.01605039 -0.9991284 -0.5463888 0.2579836 -0.9991284 0.4797896 -0.01605039 -0.9991284 0.4797896 0.2579836 -1.159686 -0.5463888 0.02345222 -1.159686 -0.5463888 0.218481 -1.014887 0.3468347 0.2341293 -1.014887 -0.5463888 0.2341293 -1.014887 -0.5463888 0.007803916 -1.014887 0.3468347 0.007803916 -1.143927 0.3468347 0.03955215 -1.143927 0.3468347 0.202381 1.143927 -0.5463889 0.03955215 1.143927 -0.5463889 0.202381 1.159686 0.4797897 0.02345222 1.159686 0.4797897 0.218481 0.9991286 -0.5463889 -0.01605039 0.9991286 -0.5463889 0.2579836 0.9991286 0.4797897 -0.01605039 0.9991286 0.4797897 0.2579836 1.159686 -0.5463889 0.02345222 1.159686 -0.5463889 0.218481 1.014887 0.3468347 0.2341293 1.014887 -0.5463889 0.2341293 1.014887 -0.5463889 0.007803916 1.014887 0.3468347 0.007803916 1.143927 0.3468347 0.03955215 1.143927 0.3468347 0.202381 -0.8419474 -0.4647984 -0.7636128 -0.778351 -0.5098503 -0.7636128 -0.8412884 -0.4638682 -0.8838223 -0.777692 -0.50892 -0.8838223 -0.9071716 -0.5568706 -0.9220534 -0.8435752 -0.6019225 -0.9220534 -0.9485486 -0.6152795 -0.8254719 -0.8849522 -0.6603313 -0.8254719 -0.9082379 -0.5583758 -0.7275502 -0.8446415 -0.6034276 -0.7275502 0.8419475 -0.4647983 -0.7636127 0.7783512 -0.5098503 -0.7636127 0.8412886 -0.4638681 -0.8838223 0.7776922 -0.5089199 -0.8838223 0.9071717 -0.5568706 -0.9220533 0.8435752 -0.6019223 -0.9220534 0.9485487 -0.6152794 -0.8254718 0.8849523 -0.6603313 -0.8254719 0.9082379 -0.5583758 -0.7275502 0.8446416 -0.6034275 -0.7275501 -0.8419473 0.4647985 -0.7636127 -0.778351 0.5098504 -0.7636127 -0.8412883 0.4638682 -0.8838223 -0.777692 0.50892 -0.8838222 -0.9071716 0.5568706 -0.9220533 -0.8435751 0.6019225 -0.9220533 -0.9485486 0.6152795 -0.8254718 -0.8849522 0.6603314 -0.8254718 -0.9082378 0.5583758 -0.72755 -0.8446414 0.6034277 -0.72755 0.8419477 0.4647983 -0.7636126 0.7783513 0.5098503 -0.7636126 0.8412886 0.4638682 -0.8838222 0.7776923 0.50892 -0.8838222 0.9071719 0.5568706 -0.9220532 0.8435755 0.6019223 -0.9220532 0.9485489 0.6152793 -0.8254718 0.8849526 0.6603315 -0.8254717 0.908238 0.5583757 -0.7275502 0.8446418 0.6034276 -0.7275499</float_array>
          <technique_common>
            <accessor source="#Dumpster-mesh-positions-array" count="96" stride="3">
              <param name="X" type="float"/>
              <param name="Y" type="float"/>
              <param name="Z" type="float"/>
            </accessor>
          </technique_common>
        </source>
        <source id="Dumpster-mesh-normals">
          <float_array id="Dumpster-mesh-normals-array" count="339">-1 0 0 0 1 0 1 0 0 0 -1 0 0 0 -1 2.65897e-6 0.09646087 -0.9953368 0 0.09646081 -0.9953368 0 0.09646111 -0.9953368 -2.45443e-6 0.0964607 -0.9953368 -0.9954458 -0.009195625 0.09488552 8.6636e-7 -0.09646075 0.9953368 0 -0.0964601 0.995337 1.40224e-6 -0.09646081 0.9953368 0 -0.09646147 0.9953368 0 -0.09646087 0.9953368 0.9954457 -0.009195625 0.09488588 0 0.9979661 0.06374704 0 -0.9980154 0.06297105 -0.2389096 0 -0.9710419 -0.2389099 0 0.9710418 0 -1 7.22557e-7 0.2389099 0 -0.9710418 0.2389096 0 0.9710419 0.2389094 0 -0.9710419 0.2389096 0 0.9710418 0 -1 -7.22554e-7 -0.2389097 0 -0.9710418 -0.2389094 0 0.9710419 0.5780292 0.8159611 0.009483814 0.1838344 0.2595053 -0.9480833 -0.4644122 -0.6555785 -0.5954312 0.8159981 -0.5780546 5.0254e-7 -0.4708566 -0.6646757 0.5800865 0.1734058 0.2447868 0.9539444 -0.8159973 0.5780558 -1.08417e-6 -0.5780299 0.8159605 0.009483516 -0.1838347 0.2595058 -0.9480831 0.4644125 -0.6555789 -0.5954304 -0.8159984 -0.5780541 5.42083e-7 0.4708563 -0.6646754 0.5800871 -0.1734066 0.2447872 0.9539441 0.8159983 0.5780544 0 0.5780299 -0.8159605 0.009483575 0.1838361 -0.259505 -0.9480831 -0.4644133 0.6555774 -0.5954316 0.815998 0.5780549 -1.62625e-6 -0.4708572 0.6646739 0.580088 0.1734074 -0.2447873 0.953944 -0.8159976 -0.5780553 0 -0.5780301 -0.8159604 0.00948292 -0.1838343 -0.2595058 -0.9480832 0.4644126 0.6555791 -0.5954301 -0.8159982 0.5780546 -2.71041e-7 0.4708606 0.6646725 0.5800869 -0.1734075 -0.2447862 0.9539443 0.8159977 -0.5780552 8.37566e-7 1 0 0 -4.54449e-6 0.09646058 -0.9953369 0 0.09646111 -0.9953368 3.02965e-6 0.0964607 -0.9953368 -0.9954458 -0.009195506 0.09488558 -1.40224e-6 -0.09646081 0.9953368 0 -0.09646028 0.9953369 -8.6636e-7 -0.09646075 0.9953368 0 -0.09646159 0.9953367 0 -0.09646087 0.9953368 0.9954457 -0.009195625 0.09488582 0 0.9979662 0.06374758 0 -0.9980154 0.06297105 -0.2389096 0 -0.9710419 -0.2389099 0 0.9710417 0 -1 -7.22557e-7 0.2389097 0 -0.9710419 0.2389096 0 0.9710419 0 -1 -4.64572e-6 0 -1 2.90358e-6 -0.2389094 0 -0.9710419 -0.2389094 0 0.9710419 0.5780293 0.815961 0.009483158 -0.4644136 -0.6555783 -0.5954302 0.8159976 -0.5780554 -6.43723e-7 0.8159978 -0.5780551 -2.71042e-7 -0.470857 -0.6646748 0.5800871 0.1734075 0.2447858 0.9539444 -0.8159978 0.578055 0 -0.8159978 0.578055 3.35026e-7 -0.5780284 0.8159616 0.009482562 -0.1838312 0.259506 -0.9480837 0.464413 -0.6555776 -0.5954315 -0.8159988 -0.5780536 -5.42083e-7 -0.8159974 -0.5780557 0 0.4708578 -0.6646748 0.5800867 -0.1734074 0.2447857 0.9539443 0.8159986 0.578054 1.62625e-6 0.8159975 0.5780556 2.71042e-7 0.578029 -0.8159612 0.009483814 0.1838343 -0.2595051 -0.9480835 -0.4644133 0.6555778 -0.595431 0.8159977 0.5780552 -5.42084e-7 0.8159976 0.5780553 0 -0.4708566 0.6646762 0.5800859 0.1734073 -0.2447863 0.9539443 -0.8159968 -0.5780566 5.42084e-7 -0.8159986 -0.5780541 5.96765e-7 -0.5780296 -0.8159608 0.009482622 -0.1838331 -0.2595058 -0.9480834 0.4644157 0.6555758 -0.5954314 -0.8159972 0.5780559 0 -0.8159983 0.5780544 0 0.4708606 0.6646721 0.5800875 -0.1734059 -0.2447877 0.9539441 0.8159992 -0.5780529 -1.86765e-6 0.8159967 -0.5780566 5.42085e-7</float_array>
          <technique_common>
            <accessor source="#Dumpster-mesh-normals-array" count="113" stride="3">
              <param name="X" type="float"/>
              <param name="Y" type="float"/>
              <param name="Z" type="float"/>
            </accessor>
          </technique_common>
        </source>
        <source id="Dumpster-mesh-map-0">
          <float_array id="Dumpster-mesh-map-0-array" count="912">0.9237026 0.9897903 0.5645603 0.6021382 0.5645604 0.9897904 0.8576714 0.5608023 0.4967446 0.03222125 0.4967446 0.5608023 0.5756348 0.9673736 0.8981786 0.6192253 0.5756348 0.6192253 0.8555814 0.006176769 0.4964392 0.5871638 0.4964391 0.006176829 0.8544491 0.03618228 0.5062727 0.5580058 0.854449 0.5580058 0.02124261 0.601427 0.4244355 0.616522 0.4088947 0.6014269 0.4609501 0.005344867 0.4848295 0.616522 0.4609501 0.616522 0.02124255 0.02043998 0.005701839 0.616522 0.02124261 0.601427 0.4397087 0.01016622 0.4556472 0.6215065 0.4556472 -0.005315184 0.5757448 0.5709004 0.5945385 0.06891542 0.5757448 0.08826404 0.831927 0.9918225 0.8052294 0.6086708 0.7684902 0.9877661 0.4626166 0.6146822 0.486024 0.01558429 0.4626166 0.01558429 0.6579687 0.0414378 0.7065359 0.5609208 0.6770684 0.5648658 0.05703872 0.4640724 0.03327071 0.04568034 0.03327071 0.4663758 0.4253421 0.03173863 0.03002721 0.005344986 0.4487609 0.005344986 0.4268471 0.04590368 0.4498727 0.6208699 0.4268471 0.5949195 0.4243968 0.09097164 0.4572576 0.5831484 0.4243968 0.5539915 0.4253421 0.03173863 0.4487609 0.616522 0.4253421 0.5901284 0.5519339 0.6277318 0.005208492 0.9918593 0.005208432 0.6277319 0.831927 0.9918225 0.8052294 0.6086708 0.8694499 0.6046393 0.8153586 0.008140921 0.7519927 0.5834121 0.8153586 0.5894839 0.8528816 0.008140921 0.7887328 0.5834121 0.7887328 0.01421278 0.7321205 0.5900319 0.6586614 0.1093666 0.6586614 0.5900319 0.6577881 0.3864287 0.7329938 0.2980908 0.6577881 0.3129698 0.6647256 0.5900319 0.7260563 0.1716431 0.7260563 0.5900319 0.7329938 0.5900319 0.6577881 0.1093666 0.6577881 0.5900319 0.6577881 0.5900319 0.7329938 0.1093666 0.7329938 0.5900319 0.6651695 0.3803646 0.6577881 0.3129698 0.6651695 0.319034 0.7256124 0.3070757 0.6577881 0.3129698 0.7329938 0.2980908 0.7256124 0.3923228 0.6577881 0.3864287 0.6651695 0.3803646 0.7256124 0.3070757 0.6651695 0.3803646 0.6651695 0.319034 0.6651695 0.1093666 0.7256124 0.5277553 0.7256124 0.1093666 0.7256124 0.1093666 0.6651695 0.5277553 0.6651695 0.1093666 0.6586614 0.1093666 0.7321205 0.5900319 0.6586614 0.5900319 0.7329938 0.2980908 0.6577881 0.3864287 0.6577881 0.3129698 0.7260563 0.1716431 0.6647256 0.5900319 0.7260563 0.5900319 0.6577881 0.1093666 0.7329938 0.5900319 0.6577881 0.5900319 0.7329938 0.1093666 0.6577881 0.5900319 0.7329938 0.5900319 0.6577881 0.3129698 0.6651695 0.3803646 0.6651695 0.319034 0.7256124 0.3070757 0.6577881 0.3129698 0.6651695 0.319034 0.6577881 0.3864287 0.7256124 0.3923228 0.6651695 0.3803646 0.7256124 0.3070757 0.6651695 0.3803646 0.7256124 0.3923228 0.7256124 0.5277553 0.6651695 0.1093666 0.7256124 0.1093666 0.6651695 0.5277553 0.7256124 0.1093666 0.6651695 0.1093666 0.5175351 0.5615988 0.5388527 0.5786818 0.5388527 0.5615988 0.5223211 0.5786818 0.4972608 0.5615988 0.5223211 0.5615988 0.5307101 0.5615988 0.50436 0.5786818 0.50436 0.5615988 0.5175351 0.5904146 0.50436 0.549866 0.5307101 0.549866 0.4972608 0.5786818 0.5223211 0.5615988 0.4972608 0.5615988 0.4962174 0.5786818 0.5175351 0.5615988 0.4962174 0.5615988 0.5388527 0.5749264 0.5307101 0.549866 0.50436 0.549866 0.5175351 0.5615988 0.5388527 0.5786818 0.5175351 0.5786818 0.4972608 0.5615988 0.5223211 0.5786818 0.5223211 0.5615988 0.5307101 0.5615988 0.50436 0.5786818 0.5307101 0.5786818 0.50436 0.549866 0.4962174 0.5749264 0.5175351 0.5904146 0.5223211 0.5615988 0.4972608 0.5786818 0.4972608 0.5615988 0.4962174 0.5615988 0.5175351 0.5786818 0.4962174 0.5786818 0.4962174 0.5749264 0.5307101 0.549866 0.5388527 0.5749264 0.5175351 0.5615988 0.5388527 0.5786818 0.5175351 0.5786818 0.5223211 0.5615988 0.4972608 0.5786818 0.5223211 0.5786818 0.50436 0.5615988 0.5307101 0.5786818 0.5307101 0.5615988 0.50436 0.549866 0.4962174 0.5749264 0.5175351 0.5904146 0.5223211 0.5615988 0.4972608 0.5786818 0.4972608 0.5615988 0.4962174 0.5615988 0.5175351 0.5786818 0.4962174 0.5786818 0.4962174 0.5749264 0.50436 0.549866 0.5307101 0.549866 0.5175351 0.5786818 0.5388527 0.5615988 0.5175351 0.5615988 0.5223211 0.5615988 0.4972608 0.5786818 0.4972608 0.5615988 0.5307101 0.5786818 0.50436 0.5615988 0.5307101 0.5615988 0.4962174 0.5749264 0.50436 0.549866 0.5307101 0.549866 0.4972608 0.5786818 0.5223211 0.5615988 0.4972608 0.5615988 0.4962174 0.5615988 0.5175351 0.5786818 0.5175351 0.5615988 0.5388527 0.5749264 0.50436 0.549866 0.4962174 0.5749264 0.9237026 0.9897903 0.961271 0.6021382 0.5645603 0.6021382 0.8576714 0.5608023 0.8576713 0.03222125 0.4967446 0.03222125 0.5756348 0.9673736 0.9319187 0.9673736 0.8981786 0.6192253 0.8555814 0.006176769 0.8555815 0.5871638 0.4964392 0.5871638 0.8544491 0.03618228 0.5062727 0.03618228 0.5062727 0.5580058 0.02124261 0.601427 0.005701839 0.616522 0.4244355 0.616522 0.4609501 0.005344867 0.4848294 0.005344867 0.4848295 0.616522 0.02124255 0.02043998 0.005701839 0.005344927 0.005701839 0.616522 0.4397087 0.01016622 0.4397087 0.6060252 0.4556472 0.6215065 0.5757448 0.5709004 0.5945385 0.5902492 0.5945385 0.06891542 0.831927 0.9918225 0.8694499 0.6046393 0.8052294 0.6086708 0.4626166 0.6146822 0.486024 0.6146822 0.486024 0.01558429 0.6579687 0.0414378 0.6874362 0.03749287 0.7065359 0.5609208 0.05703872 0.4640724 0.05703872 0.04337692 0.03327071 0.04568034 0.4253421 0.03173863 0.05344599 0.03173863 0.03002721 0.005344986 0.4268471 0.04590368 0.4498727 0.01995307 0.4498727 0.6208699 0.4243968 0.09097164 0.4572576 0.06181466 0.4572576 0.5831484 0.4253421 0.03173863 0.4487609 0.005344986 0.4487609 0.616522 0.5519339 0.6277318 0.551934 0.9918592 0.005208492 0.9918593 0.831927 0.9918225 0.7684902 0.9877662 0.8052294 0.6086708 0.8153586 0.008140921 0.7519928 0.01421278 0.7519927 0.5834121 0.8528816 0.008140921 0.8528816 0.5894839 0.7887328 0.5834121 0.7321205 0.5900319 0.7321205 0.1093666 0.6586614 0.1093666 0.6577881 0.3864287 0.7329938 0.4013077 0.7329938 0.2980908 0.6647256 0.5900319 0.6647256 0.1716431 0.7260563 0.1716431 0.7329938 0.5900319 0.7329938 0.1093666 0.6577881 0.1093666 0.6577881 0.5900319 0.6577881 0.1093666 0.7329938 0.1093666 0.6651695 0.3803646 0.6577881 0.3864287 0.6577881 0.3129698 0.7256124 0.3070757 0.6651695 0.319034 0.6577881 0.3129698 0.7256124 0.3923228 0.7329938 0.4013077 0.6577881 0.3864287 0.7256124 0.3070757 0.7256124 0.3923228 0.6651695 0.3803646 0.6651695 0.1093666 0.6651695 0.5277553 0.7256124 0.5277553 0.7256124 0.1093666 0.7256124 0.5277553 0.6651695 0.5277553 0.6586614 0.1093666 0.7321205 0.1093666 0.7321205 0.5900319 0.7329938 0.2980908 0.7329938 0.4013077 0.6577881 0.3864287 0.7260563 0.1716431 0.6647256 0.1716431 0.6647256 0.5900319 0.6577881 0.1093666 0.7329938 0.1093666 0.7329938 0.5900319 0.7329938 0.1093666 0.6577881 0.1093666 0.6577881 0.5900319 0.6577881 0.3129698 0.6577881 0.3864287 0.6651695 0.3803646 0.7256124 0.3070757 0.7329938 0.2980908 0.6577881 0.3129698 0.6577881 0.3864287 0.7329938 0.4013077 0.7256124 0.3923228 0.7256124 0.3070757 0.6651695 0.319034 0.6651695 0.3803646 0.7256124 0.5277553 0.6651695 0.5277553 0.6651695 0.1093666 0.6651695 0.5277553 0.7256124 0.5277553 0.7256124 0.1093666 0.5175351 0.5615988 0.5175351 0.5786818 0.5388527 0.5786818 0.5223211 0.5786818 0.4972608 0.5786818 0.4972608 0.5615988 0.5307101 0.5615988 0.5307101 0.5786818 0.50436 0.5786818 0.5307101 0.549866 0.5388527 0.5749264 0.5175351 0.5904146 0.5175351 0.5904146 0.4962174 0.5749264 0.50436 0.549866 0.4972608 0.5786818 0.5223211 0.5786818 0.5223211 0.5615988 0.4962174 0.5786818 0.5175351 0.5786818 0.5175351 0.5615988 0.4962174 0.5749264 0.5175351 0.5904146 0.50436 0.549866 0.5175351 0.5904146 0.5388527 0.5749264 0.50436 0.549866 0.5175351 0.5615988 0.5388527 0.5615988 0.5388527 0.5786818 0.4972608 0.5615988 0.4972608 0.5786818 0.5223211 0.5786818 0.5307101 0.5615988 0.50436 0.5615988 0.50436 0.5786818 0.5175351 0.5904146 0.5388527 0.5749264 0.5307101 0.549866 0.5307101 0.549866 0.50436 0.549866 0.5175351 0.5904146 0.5223211 0.5615988 0.5223211 0.5786818 0.4972608 0.5786818 0.4962174 0.5615988 0.5175351 0.5615988 0.5175351 0.5786818 0.5388527 0.5749264 0.5175351 0.5904146 0.4962174 0.5749264 0.4962174 0.5749264 0.50436 0.549866 0.5307101 0.549866 0.5175351 0.5615988 0.5388527 0.5615988 0.5388527 0.5786818 0.5223211 0.5615988 0.4972608 0.5615988 0.4972608 0.5786818 0.50436 0.5615988 0.50436 0.5786818 0.5307101 0.5786818 0.5175351 0.5904146 0.5388527 0.5749264 0.5307101 0.549866 0.5307101 0.549866 0.50436 0.549866 0.5175351 0.5904146 0.5223211 0.5615988 0.5223211 0.5786818 0.4972608 0.5786818 0.4962174 0.5615988 0.5175351 0.5615988 0.5175351 0.5786818 0.5388527 0.5749264 0.5175351 0.5904146 0.5307101 0.549866 0.5175351 0.5904146 0.4962174 0.5749264 0.5307101 0.549866 0.5175351 0.5786818 0.5388527 0.5786818 0.5388527 0.5615988 0.5223211 0.5615988 0.5223211 0.5786818 0.4972608 0.5786818 0.5307101 0.5786818 0.50436 0.5786818 0.50436 0.5615988 0.5307101 0.549866 0.5388527 0.5749264 0.5175351 0.5904146 0.5175351 0.5904146 0.4962174 0.5749264 0.5307101 0.549866 0.4972608 0.5786818 0.5223211 0.5786818 0.5223211 0.5615988 0.4962174 0.5615988 0.4962174 0.5786818 0.5175351 0.5786818 0.4962174 0.5749264 0.5175351 0.5904146 0.5388527 0.5749264 0.5388527 0.5749264 0.5307101 0.549866 0.50436 0.549866</float_array>
          <technique_common>
            <accessor source="#Dumpster-mesh-map-0-array" count="456" stride="2">
              <param name="S" type="float"/>
              <param name="T" type="float"/>
            </accessor>
          </technique_common>
        </source>
        <vertices id="Dumpster-mesh-vertices">
          <input semantic="POSITION" source="#Dumpster-mesh-positions"/>
        </vertices>
        <triangles material="Dumpster-material" count="152">
          <input semantic="VERTEX" source="#Dumpster-mesh-vertices" offset="0"/>
          <input semantic="NORMAL" source="#Dumpster-mesh-normals" offset="1"/>
          <input semantic="TEXCOORD" source="#Dumpster-mesh-map-0" offset="2" set="0"/>
          <p>1 0 0 2 0 1 0 0 2 3 1 3 6 1 4 2 1 5 6 2 6 5 2 7 4 2 8 5 3 9 0 3 10 4 3 11 6 4 12 0 4 13 2 4 14 1 5 15 9 5 16 3 5 17 11 3 18 16 3 19 8 3 20 5 6 21 8 6 22 1 6 23 7 7 24 9 7 25 10 7 26 7 8 27 11 8 28 5 8 29 15 9 30 22 9 31 23 9 32 9 1 33 18 1 34 10 1 35 10 2 36 19 2 37 11 2 38 9 0 39 16 0 40 17 0 41 12 10 42 17 10 43 16 10 44 14 11 45 17 11 46 13 11 47 15 12 48 18 12 49 14 12 50 12 13 51 19 13 52 15 13 53 21 14 54 23 14 55 22 14 56 12 15 57 21 15 58 13 15 59 15 16 60 20 16 61 12 16 62 14 17 63 21 17 64 22 17 65 33 0 66 26 0 67 32 0 68 27 1 69 30 1 70 26 1 71 24 2 72 39 2 73 25 2 74 30 18 75 32 18 76 26 18 77 27 19 78 29 19 79 31 19 80 25 3 81 32 3 82 24 3 83 36 3 84 32 3 85 28 3 86 35 20 87 33 20 88 25 20 89 37 3 90 39 3 91 38 3 92 25 21 93 34 21 94 35 21 95 36 22 96 38 22 97 24 22 98 42 2 99 49 2 100 48 2 101 46 1 102 43 1 103 42 1 104 55 0 105 40 0 106 41 0 107 48 23 108 46 23 109 42 23 110 45 24 111 43 24 112 47 24 113 48 3 114 41 3 115 40 3 116 52 25 117 48 25 118 40 25 119 49 3 120 51 3 121 41 3 122 53 3 123 55 3 124 50 3 125 50 26 126 41 26 127 51 26 128 54 27 129 52 27 130 40 27 131 56 28 132 59 28 133 58 28 134 59 29 135 60 29 136 58 29 137 60 30 138 63 30 139 62 30 140 57 31 141 63 31 142 61 31 143 63 32 144 64 32 145 62 32 146 65 33 147 56 33 148 64 33 149 58 34 150 60 34 151 62 34 152 66 35 153 69 35 154 67 35 155 70 36 156 69 36 157 68 36 158 70 37 159 73 37 160 71 37 161 73 38 162 75 38 163 67 38 164 74 39 165 73 39 166 72 39 167 74 40 168 67 40 169 75 40 170 74 41 171 70 41 172 68 41 173 76 42 174 79 42 175 77 42 176 78 43 177 81 43 178 79 43 179 82 44 180 81 44 181 80 44 182 83 45 183 85 45 184 77 45 185 84 46 186 83 46 187 82 46 188 84 47 189 77 47 190 85 47 191 84 48 192 82 48 193 80 48 194 87 49 195 88 49 196 86 49 197 88 50 198 91 50 199 90 50 200 91 51 201 92 51 202 90 51 203 95 52 204 93 52 205 91 52 206 93 53 207 94 53 208 92 53 209 94 54 210 87 54 211 86 54 212 88 55 213 92 55 214 94 55 215 1 0 216 3 0 217 2 0 218 3 1 219 7 1 220 6 1 221 6 56 222 7 56 223 5 56 224 5 3 225 1 3 226 0 3 227 6 4 228 4 4 229 0 4 230 1 57 231 8 57 232 9 57 233 11 3 234 19 3 235 16 3 236 5 7 237 11 7 238 8 7 239 7 58 240 3 58 241 9 58 242 7 59 243 10 59 244 11 59 245 15 60 246 14 60 247 22 60 248 9 1 249 17 1 250 18 1 251 10 2 252 18 2 253 19 2 254 9 0 255 8 0 256 16 0 257 12 61 258 13 61 259 17 61 260 14 62 261 18 62 262 17 62 263 15 63 264 19 63 265 18 63 266 12 64 267 16 64 268 19 64 269 21 65 270 20 65 271 23 65 272 12 66 273 20 66 274 21 66 275 15 67 276 23 67 277 20 67 278 14 68 279 13 68 280 21 68 281 33 0 282 27 0 283 26 0 284 27 1 285 31 1 286 30 1 287 24 2 288 38 2 289 39 2 290 30 69 291 28 69 292 32 69 293 27 70 294 33 70 295 29 70 296 25 3 297 33 3 298 32 3 299 36 71 300 24 71 301 32 71 302 35 3 303 29 3 304 33 3 305 37 3 306 34 3 307 39 3 308 25 72 309 39 72 310 34 72 311 36 73 312 37 73 313 38 73 314 42 2 315 43 2 316 49 2 317 46 1 318 47 1 319 43 1 320 55 0 321 54 0 322 40 0 323 48 23 324 44 23 325 46 23 326 45 24 327 49 24 328 43 24 329 48 3 330 49 3 331 41 3 332 52 74 333 44 74 334 48 74 335 49 75 336 45 75 337 51 75 338 53 3 339 54 3 340 55 3 341 50 76 342 55 76 343 41 76 344 54 77 345 53 77 346 52 77 347 56 78 348 57 78 349 59 78 350 59 29 351 61 29 352 60 29 353 60 79 354 61 79 355 63 79 356 61 80 357 59 80 358 57 80 359 57 81 360 65 81 361 63 81 362 63 82 363 65 82 364 64 82 365 65 83 366 57 83 367 56 83 368 64 84 369 56 84 370 62 84 371 56 85 372 58 85 373 62 85 374 66 86 375 68 86 376 69 86 377 70 87 378 71 87 379 69 87 380 70 88 381 72 88 382 73 88 383 67 89 384 69 89 385 71 89 386 71 90 387 73 90 388 67 90 389 74 91 390 75 91 391 73 91 392 74 92 393 66 92 394 67 92 395 68 93 396 66 93 397 74 93 398 74 94 399 72 94 400 70 94 401 76 95 402 78 95 403 79 95 404 78 96 405 80 96 406 81 96 407 82 97 408 83 97 409 81 97 410 77 98 411 79 98 412 81 98 413 81 99 414 83 99 415 77 99 416 84 100 417 85 100 418 83 100 419 84 101 420 76 101 421 77 101 422 78 102 423 76 102 424 80 102 425 76 103 426 84 103 427 80 103 428 87 104 429 89 104 430 88 104 431 88 105 432 89 105 433 91 105 434 91 106 435 93 106 436 92 106 437 91 107 438 89 107 439 87 107 440 87 108 441 95 108 442 91 108 443 93 109 444 95 109 445 94 109 446 94 110 447 95 110 448 87 110 449 94 111 450 86 111 451 88 111 452 88 112 453 90 112 454 92 112 455</p>
        </triangles>
      </mesh>
    </geometry>
  </library_geometries>
  <library_visual_scenes>
    <visual_scene id="Scene" name="Scene">
      <node id="Dumpster" name="Dumpster" type="NODE">
        <matrix sid="transform">1 -6.51683e-7 0 0 6.51683e-7 1 0 0 0 0 1 0 0 0 0 1</matrix>
        <instance_geometry url="#Dumpster-mesh" name="Dumpster">
          <bind_material>
            <technique_common>
              <instance_material symbol="Dumpster-material" target="#Dumpster-material">
                <bind_vertex_input semantic="UVMap" input_semantic="TEXCOORD" input_set="0"/>
              </instance_material>
            </technique_common>
          </bind_material>
        </instance_geometry>
        <node id="Cube_034" name="Cube.034" type="NODE">
          <matrix sid="transform">1 0 0 0.5503868 0 1 0 0.6758333 0 0 1 0.7542063 0 0 0 1</matrix>
          <instance_geometry url="#Cube_041-mesh" name="Cube.034">
            <bind_material>
              <technique_common>
                <instance_material symbol="Dumpster-material" target="#Dumpster-material">
                  <bind_vertex_input semantic="UVMap" input_semantic="TEXCOORD" input_set="0"/>
                </instance_material>
              </technique_common>
            </bind_material>
          </instance_geometry>
        </node>
        <node id="Cube_035" name="Cube.035" type="NODE">
          <matrix sid="transform">1 0 0 -0.5085016 0 1 0 0.6758341 0 0 1 0.7542063 0 0 0 1</matrix>
          <instance_geometry url="#Cube_040-mesh" name="Cube.035">
            <bind_material>
              <technique_common>
                <instance_material symbol="Dumpster-material" target="#Dumpster-material">
                  <bind_vertex_input semantic="UVMap" input_semantic="TEXCOORD" input_set="0"/>
                </instance_material>
              </technique_common>
            </bind_material>
          </instance_geometry>
        </node>
      </node>
    </visual_scene>
  </library_visual_scenes>
  <scene>
    <instance_visual_scene url="#Scene"/>
  </scene>
</COLLADA>