<?xml version="1.0" encoding="utf-8"?>
<COLLADA xmlns="http://www.collada.org/2005/11/COLLADASchema" version="1.4.1" xmlns:xsi="http://www.w3.org/2001/XMLSchema-instance">
  <asset>
    <contributor>
      <author>Blender User</author>
      <authoring_tool>Blender 4.0.1 commit date:2023-11-16, commit time:16:40, hash:d0dd92834a08</authoring_tool>
    </contributor>
    <created>2023-11-28T13:22:31</created>
    <modified>2023-11-28T13:22:31</modified>
    <unit name="meter" meter="1"/>
    <up_axis>Z_UP</up_axis>
  </asset>
  <library_effects>
    <effect id="Metal_03-effect">
      <profile_COMMON>
        <newparam sid="Metal_03_png-surface">
          <surface type="2D">
            <init_from>Metal_03_png</init_from>
          </surface>
        </newparam>
        <newparam sid="Metal_03_png-sampler">
          <sampler2D>
            <source>Metal_03_png-surface</source>
          </sampler2D>
        </newparam>
        <technique sid="common">
          <lambert>
            <emission>
              <color sid="emission">0 0 0 1</color>
            </emission>
            <diffuse>
              <texture texture="Metal_03_png-sampler" texcoord="UVMap"/>
            </diffuse>
            <index_of_refraction>
              <float sid="ior">1.45</float>
            </index_of_refraction>
          </lambert>
        </technique>
      </profile_COMMON>
    </effect>
  </library_effects>
  <library_images>
    <image id="Metal_03_png" name="Metal_03_png">
      <init_from>Metal_03.png</init_from>
    </image>
  </library_images>
  <library_materials>
    <material id="Metal_03-material" name="Metal_03">
      <instance_effect url="#Metal_03-effect"/>
    </material>
  </library_materials>
  <library_geometries>
    <geometry id="Table_M-mesh" name="Table_M">
      <mesh>
        <source id="Table_M-mesh-positions">
          <float_array id="Table_M-mesh-positions-array" count="144">-0.3697868 -0.7374678 -0.4480305 -0.3697868 -0.7374678 -0.3983842 -0.3697868 0.7374678 -0.4480305 -0.3697868 0.7374678 -0.3983842 0.3697868 -0.7374678 -0.4480305 0.3697868 -0.7374678 -0.3983842 0.3697868 0.7374678 -0.4480305 0.3697868 0.7374678 -0.3983842 -0.3865134 0.7097899 -0.5956671 -0.3865134 0.7097899 0.3443909 -0.3865134 0.7601518 -0.5956671 -0.3865134 0.7601518 0.3443909 -0.3361514 0.7097899 -0.5956671 -0.3361514 0.7097899 0.3443909 -0.3361514 0.7601518 -0.5956671 -0.3361514 0.7601518 0.3443909 0.3361513 0.7097899 -0.5956671 0.3361513 0.7097899 0.3443909 0.3361513 0.7601518 -0.5956671 0.3361513 0.7601518 0.3443909 0.3865132 0.7097899 -0.5956671 0.3865132 0.7097899 0.3443909 0.3865132 0.7601518 -0.5956671 0.3865132 0.7601518 0.3443909 0.3361513 -0.7601512 -0.5956671 0.3361513 -0.7601512 0.3443909 0.3361513 -0.7097891 -0.5956671 0.3361513 -0.7097891 0.3443909 0.3865132 -0.7601512 -0.5956671 0.3865132 -0.7601512 0.3443909 0.3865132 -0.7097891 -0.5956671 0.3865132 -0.7097891 0.3443909 -0.386513 -0.7601512 -0.5956671 -0.386513 -0.7601512 0.3443909 -0.386513 -0.7097891 -0.5956671 -0.386513 -0.7097891 0.3443909 -0.336151 -0.7601512 -0.5956671 -0.336151 -0.7601512 0.3443909 -0.336151 -0.7097891 -0.5956671 -0.336151 -0.7097891 0.3443909 -0.4364655 -0.794988 0.3377549 -0.4364655 -0.794988 0.3941682 -0.4364655 0.794988 0.3377549 -0.4364655 0.794988 0.3941682 0.4364655 -0.794988 0.3377549 0.4364655 -0.794988 0.3941682 0.4364655 0.794988 0.3377549 0.4364655 0.794988 0.3941682</float_array>
          <technique_common>
            <accessor source="#Table_M-mesh-positions-array" count="48" stride="3">
              <param name="X" type="float"/>
              <param name="Y" type="float"/>
              <param name="Z" type="float"/>
            </accessor>
          </technique_common>
        </source>
        <source id="Table_M-mesh-normals">
          <float_array id="Table_M-mesh-normals-array" count="18">-1 0 0 0 1 0 1 0 0 0 -1 0 0 0 -1 0 0 1</float_array>
          <technique_common>
            <accessor source="#Table_M-mesh-normals-array" count="6" stride="3">
              <param name="X" type="float"/>
              <param name="Y" type="float"/>
              <param name="Z" type="float"/>
            </accessor>
          </technique_common>
        </source>
        <source id="Table_M-mesh-map-0">
          <float_array id="Table_M-mesh-map-0-array" count="384">0.03932094 0.5166692 1.307466 0.4833308 0.03932094 0.4833308 0.355452 0.5166692 0.9913353 0.4833308 0.355452 0.4833308 1.307466 0.5166692 0.03932094 0.4833308 1.307466 0.4833308 0.9913353 0.5166692 0.355452 0.4833308 0.9913353 0.4833308 0.9913353 0.9952246 0.355452 0.004775345 0.355452 0.9952246 0.002884984 0.9974816 0.6387683 0.007032394 0.6387683 0.9974816 1.123452 0.7327699 1.155385 0.26723 1.123452 0.26723 0.4283161 0.7327699 0.4602492 0.26723 0.4283161 0.26723 1.155385 0.7327699 1.123452 0.26723 1.155385 0.26723 0.4602492 0.7327699 0.4283161 0.26723 0.4602492 0.26723 0.4602492 0.8764457 0.4283161 0.8515052 0.4283161 0.8764457 1.123452 0.7327699 1.155385 0.26723 1.123452 0.26723 0.886538 0.7327699 0.9184711 0.26723 0.886538 0.26723 1.155385 0.7327699 1.123452 0.26723 1.155385 0.26723 0.9184711 0.7327699 0.886538 0.26723 0.9184711 0.26723 0.9184711 0.8764457 0.886538 0.8515052 0.886538 0.8764457 0.1914023 0.7327699 0.2233355 0.26723 0.1914023 0.26723 0.886538 0.7327699 0.9184711 0.26723 0.886538 0.26723 0.2233355 0.7327699 0.1914023 0.26723 0.2233355 0.26723 0.9184711 0.7327699 0.886538 0.26723 0.9184711 0.26723 0.9184711 0.1484948 0.886538 0.1235542 0.886538 0.1484948 0.1914023 0.7327699 0.2233355 0.26723 0.1914023 0.26723 0.4283163 0.7327699 0.4602495 0.26723 0.4283163 0.26723 0.2233355 0.7327699 0.1914023 0.26723 0.2233355 0.26723 0.4602495 0.7327699 0.4283163 0.26723 0.4602495 0.26723 0.4602495 0.1484948 0.4283163 0.1235542 0.4283163 0.1484948 0.1693134 0.5139687 1.177474 0.4860314 0.1693134 0.4860314 0.3966428 0.5139687 0.9501445 0.4860314 0.3966428 0.4860314 1.177474 0.5139687 0.1693134 0.4860314 1.177474 0.4860314 0.9501445 0.5139687 0.3966428 0.4860314 0.9501445 0.4860314 0.9501445 0.8936976 0.3966428 0.1063024 0.3966428 0.8936976 0.2908135 0.9904003 0.9866164 5.71432e-4 0.9866164 0.9904003 0.03932094 0.5166692 1.307466 0.5166692 1.307466 0.4833308 0.355452 0.5166692 0.9913353 0.5166692 0.9913353 0.4833308 1.307466 0.5166692 0.03932094 0.5166692 0.03932094 0.4833308 0.9913353 0.5166692 0.355452 0.5166692 0.355452 0.4833308 0.9913353 0.9952246 0.9913353 0.004775345 0.355452 0.004775345 0.002884984 0.9974816 0.002884984 0.007032394 0.6387683 0.007032394 1.123452 0.7327699 1.155385 0.7327699 1.155385 0.26723 0.4283161 0.7327699 0.4602492 0.7327699 0.4602492 0.26723 1.155385 0.7327699 1.123452 0.7327699 1.123452 0.26723 0.4602492 0.7327699 0.4283161 0.7327699 0.4283161 0.26723 0.4602492 0.8764457 0.4602492 0.8515052 0.4283161 0.8515052 1.123452 0.7327699 1.155385 0.7327699 1.155385 0.26723 0.886538 0.7327699 0.9184711 0.7327699 0.9184711 0.26723 1.155385 0.7327699 1.123452 0.7327699 1.123452 0.26723 0.9184711 0.7327699 0.886538 0.7327699 0.886538 0.26723 0.9184711 0.8764457 0.9184711 0.8515052 0.886538 0.8515052 0.1914023 0.7327699 0.2233355 0.7327699 0.2233355 0.26723 0.886538 0.7327699 0.9184711 0.7327699 0.9184711 0.26723 0.2233355 0.7327699 0.1914023 0.7327699 0.1914023 0.26723 0.9184711 0.7327699 0.886538 0.7327699 0.886538 0.26723 0.9184711 0.1484948 0.9184711 0.1235542 0.886538 0.1235542 0.1914023 0.7327699 0.2233355 0.7327699 0.2233355 0.26723 0.4283163 0.7327699 0.4602495 0.7327699 0.4602495 0.26723 0.2233355 0.7327699 0.1914023 0.7327699 0.1914023 0.26723 0.4602495 0.7327699 0.4283163 0.7327699 0.4283163 0.26723 0.4602495 0.1484948 0.4602495 0.1235542 0.4283163 0.1235542 0.1693134 0.5139687 1.177474 0.5139687 1.177474 0.4860314 0.3966428 0.5139687 0.9501445 0.5139687 0.9501445 0.4860314 1.177474 0.5139687 0.1693134 0.5139687 0.1693134 0.4860314 0.9501445 0.5139687 0.3966428 0.5139687 0.3966428 0.4860314 0.9501445 0.8936976 0.9501445 0.1063024 0.3966428 0.1063024 0.2908135 0.9904003 0.2908135 5.71432e-4 0.9866164 5.71432e-4</float_array>
          <technique_common>
            <accessor source="#Table_M-mesh-map-0-array" count="192" stride="2">
              <param name="S" type="float"/>
              <param name="T" type="float"/>
            </accessor>
          </technique_common>
        </source>
        <vertices id="Table_M-mesh-vertices">
          <input semantic="POSITION" source="#Table_M-mesh-positions"/>
        </vertices>
        <triangles material="Metal_03-material" count="64">
          <input semantic="VERTEX" source="#Table_M-mesh-vertices" offset="0"/>
          <input semantic="NORMAL" source="#Table_M-mesh-normals" offset="1"/>
          <input semantic="TEXCOORD" source="#Table_M-mesh-map-0" offset="2" set="0"/>
          <p>1 0 0 2 0 1 0 0 2 3 1 3 6 1 4 2 1 5 7 2 6 4 2 7 6 2 8 5 3 9 0 3 10 4 3 11 6 4 12 0 4 13 2 4 14 3 5 15 5 5 16 7 5 17 9 0 18 10 0 19 8 0 20 11 1 21 14 1 22 10 1 23 15 2 24 12 2 25 14 2 26 13 3 27 8 3 28 12 3 29 14 4 30 8 4 31 10 4 32 17 0 33 18 0 34 16 0 35 19 1 36 22 1 37 18 1 38 23 2 39 20 2 40 22 2 41 21 3 42 16 3 43 20 3 44 22 4 45 16 4 46 18 4 47 25 0 48 26 0 49 24 0 50 27 1 51 30 1 52 26 1 53 31 2 54 28 2 55 30 2 56 29 3 57 24 3 58 28 3 59 30 4 60 24 4 61 26 4 62 33 0 63 34 0 64 32 0 65 35 1 66 38 1 67 34 1 68 39 2 69 36 2 70 38 2 71 37 3 72 32 3 73 36 3 74 38 4 75 32 4 76 34 4 77 41 0 78 42 0 79 40 0 80 43 1 81 46 1 82 42 1 83 47 2 84 44 2 85 46 2 86 45 3 87 40 3 88 44 3 89 46 4 90 40 4 91 42 4 92 43 5 93 45 5 94 47 5 95 1 0 96 3 0 97 2 0 98 3 1 99 7 1 100 6 1 101 7 2 102 5 2 103 4 2 104 5 3 105 1 3 106 0 3 107 6 4 108 4 4 109 0 4 110 3 5 111 1 5 112 5 5 113 9 0 114 11 0 115 10 0 116 11 1 117 15 1 118 14 1 119 15 2 120 13 2 121 12 2 122 13 3 123 9 3 124 8 3 125 14 4 126 12 4 127 8 4 128 17 0 129 19 0 130 18 0 131 19 1 132 23 1 133 22 1 134 23 2 135 21 2 136 20 2 137 21 3 138 17 3 139 16 3 140 22 4 141 20 4 142 16 4 143 25 0 144 27 0 145 26 0 146 27 1 147 31 1 148 30 1 149 31 2 150 29 2 151 28 2 152 29 3 153 25 3 154 24 3 155 30 4 156 28 4 157 24 4 158 33 0 159 35 0 160 34 0 161 35 1 162 39 1 163 38 1 164 39 2 165 37 2 166 36 2 167 37 3 168 33 3 169 32 3 170 38 4 171 36 4 172 32 4 173 41 0 174 43 0 175 42 0 176 43 1 177 47 1 178 46 1 179 47 2 180 45 2 181 44 2 182 45 3 183 41 3 184 40 3 185 46 4 186 44 4 187 40 4 188 43 5 189 41 5 190 45 5 191</p>
        </triangles>
      </mesh>
    </geometry>
  </library_geometries>
  <library_visual_scenes>
    <visual_scene id="Scene" name="Scene">
      <node id="Table_M" name="Table_M" type="NODE">
        <matrix sid="transform">1.19249e-8 1 0 0 -1 1.19249e-8 0 0 0 0 1 0 0 0 0 1</matrix>
        <instance_geometry url="#Table_M-mesh" name="Table_M">
          <bind_material>
            <technique_common>
              <instance_material symbol="Metal_03-material" target="#Metal_03-material">
                <bind_vertex_input semantic="UVMap" input_semantic="TEXCOORD" input_set="0"/>
              </instance_material>
            </technique_common>
          </bind_material>
        </instance_geometry>
      </node>
    </visual_scene>
  </library_visual_scenes>
  <scene>
    <instance_visual_scene url="#Scene"/>
  </scene>
</COLLADA>