<?xml version="1.0" encoding="utf-8"?>
<COLLADA xmlns="http://www.collada.org/2005/11/COLLADASchema" version="1.4.1" xmlns:xsi="http://www.w3.org/2001/XMLSchema-instance">
  <asset>
    <contributor>
      <author>Blender User</author>
      <authoring_tool>Blender 4.0.1 commit date:2023-11-16, commit time:16:40, hash:d0dd92834a08</authoring_tool>
    </contributor>
    <created>2023-11-28T13:44:21</created>
    <modified>2023-11-28T13:44:21</modified>
    <unit name="meter" meter="1"/>
    <up_axis>Z_UP</up_axis>
  </asset>
  <library_effects>
    <effect id="Breads-effect">
      <profile_COMMON>
        <newparam sid="Breads-surface">
          <surface type="2D">
            <init_from>Breads</init_from>
          </surface>
        </newparam>
        <newparam sid="Breads-sampler">
          <sampler2D>
            <source>Breads-surface</source>
          </sampler2D>
        </newparam>
        <technique sid="common">
          <lambert>
            <emission>
              <color sid="emission">0 0 0 1</color>
            </emission>
            <diffuse>
              <texture texture="Breads-sampler" texcoord="UVMap"/>
            </diffuse>
            <index_of_refraction>
              <float sid="ior">1.45</float>
            </index_of_refraction>
          </lambert>
        </technique>
      </profile_COMMON>
    </effect>
  </library_effects>
  <library_images>
    <image id="Breads" name="Breads">
      <init_from>Breads.png</init_from>
    </image>
  </library_images>
  <library_materials>
    <material id="Breads-material" name="Breads">
      <instance_effect url="#Breads-effect"/>
    </material>
  </library_materials>
  <library_geometries>
    <geometry id="Bread-mesh" name="Bread">
      <mesh>
        <source id="Bread-mesh-positions">
          <float_array id="Bread-mesh-positions-array" count="84">-0.02609771 0.1300188 0.01526641 0.07548749 0.0825892 0.01526641 0.1163741 0.004648506 0.01526641 -0.05429542 -0.1372433 0.01526641 -0.1431917 -0.04751712 0.01526641 -0.1234533 0.07694965 0.01526641 0.05782711 -0.1212829 0.01526641 -0.02822357 0.1071622 -0.04969668 -0.0267632 0.1372084 -0.02365964 0.06207925 0.06500023 -0.04969668 0.0803672 0.08718973 -0.02365964 0.09307342 0.005917191 -0.04969668 0.1234857 0.004994571 -0.02365964 -0.04585677 -0.1188007 -0.04969668 -0.05650007 -0.1446426 -0.02365964 -0.1220307 -0.04191559 -0.04969668 -0.1502489 -0.0500186 -0.02365964 -0.1050289 0.0652951 -0.04969668 -0.129433 0.08124238 -0.02365964 0.04082727 -0.1064614 -0.04969668 0.06174284 -0.127811 -0.02365964 0.04458457 0.05345427 0.04860901 -0.02188354 0.08448791 0.04860901 0.07133704 0.002456963 0.04860901 0.03302925 -0.07994103 0.04860901 -0.09849911 -0.03167545 0.04860901 -0.0403335 -0.09038406 0.04860901 -0.08558416 0.04976427 0.04860901</float_array>
          <technique_common>
            <accessor source="#Bread-mesh-positions-array" count="28" stride="3">
              <param name="X" type="float"/>
              <param name="Y" type="float"/>
              <param name="Z" type="float"/>
            </accessor>
          </technique_common>
        </source>
        <source id="Bread-mesh-normals">
          <float_array id="Bread-mesh-normals-array" count="84">-0.7097202 0.5009341 0.4953408 -0.0269432 0.9557912 -0.2928095 -0.7839964 0.5509968 -0.2859239 0.9547113 0.02049362 -0.2968274 0.5154945 -0.6962502 0.4995011 0.575394 -0.7666786 -0.2848257 -0.2744653 -0.8175163 0.5062962 -0.9125693 -0.2930245 -0.2852264 -0.3092492 -0.9110069 -0.2728213 -0.8249849 -0.2662158 0.4985271 0.8732032 0.02130842 0.4868903 0.2387367 -0.296755 0.9246304 0.6573206 0.6917566 -0.2990024 -0.0280196 0.871631 0.4893613 -0.02461266 0.4340143 -0.9005697 0.4291249 0.01762259 -0.9030733 0.2955903 0.3009578 -0.9066703 0.2476111 -0.3687696 -0.8959339 -0.4174422 -0.139219 -0.8979755 -0.1357266 -0.4323304 -0.891442 -0.3567403 0.2575778 -0.8979923 -0.3616393 -0.1123694 0.9255216 -0.1224141 -0.3494117 0.9289383 0.2626224 0.2812224 0.9230079 0.6056456 0.6329763 0.4822184 -0.003681898 0.3888002 0.9213147 -0.312071 0.2188934 0.9244986 0.3903349 0.006060659 0.9206531</float_array>
          <technique_common>
            <accessor source="#Bread-mesh-normals-array" count="28" stride="3">
              <param name="X" type="float"/>
              <param name="Y" type="float"/>
              <param name="Z" type="float"/>
            </accessor>
          </technique_common>
        </source>
        <source id="Bread-mesh-map-0">
          <float_array id="Bread-mesh-map-0-array" count="312">0.4327697 0.821644 0.3392375 0.8592988 0.4385541 0.8592988 0.8281325 0.5282319 0.7904778 0.4060786 0.8281325 0.3997638 0.4781458 0.6034801 0.3937699 0.6411349 0.4853035 0.6411349 0.3913502 0.6034801 0.2667959 0.6411349 0.3937699 0.6411349 0.9349885 0.8875703 0.8963768 0.7793815 0.9349885 0.7532302 0.8281325 0.6077425 0.7904778 0.5278971 0.8281325 0.5282319 0.3385937 0.8216441 0.2356059 0.8592988 0.3392375 0.8592988 0.2139016 0.3753747 0.2515564 0.4876232 0.2139016 0.4897559 0.8725507 0.3849399 0.7691525 0.3581748 0.7581804 0.3851262 0.8725507 0.3849399 0.91684 0.3188312 0.865558 0.3580177 0.2139016 0.4897559 0.1887149 0.3956072 0.2139016 0.3753747 0.8470374 0.1257663 0.7476625 0.1891519 0.8458349 0.1527746 0.6909443 0.2941644 0.7476625 0.1891519 0.7262147 0.1705365 0.6909443 0.2941644 0.7691525 0.3581748 0.7188546 0.2901281 0.9438931 0.1887512 0.91684 0.3188312 0.9438931 0.3304244 0.865558 0.3580177 0.91684 0.198949 0.7476625 0.1891519 0.7613201 0.7680804 0.8362835 0.7403031 0.852113 0.9011051 0.8673388 0.939264 0.781153 0.9012207 0.852113 0.9011051 0.7588884 0.9394407 0.739437 0.8447843 0.781153 0.9012207 0.7285773 0.7359584 0.8362835 0.7403031 0.7613201 0.7680804 0.8673388 0.939264 0.8963768 0.8672814 0.9349885 0.8875703 0.9349885 0.7532302 0.8362835 0.7403031 0.8431461 0.6935055 0.6951326 0.8531872 0.7613201 0.7680804 0.739437 0.8447843 0.4327697 0.821644 0.3385937 0.8216441 0.3392375 0.8592988 0.8281325 0.5282319 0.7904778 0.5278971 0.7904778 0.4060786 0.4781458 0.6034801 0.3913502 0.6034801 0.3937699 0.6411349 0.3913502 0.6034801 0.2709484 0.6034801 0.2667959 0.6411349 0.9349885 0.8875703 0.8963768 0.8672814 0.8963768 0.7793815 0.8281325 0.6077425 0.7904778 0.6032922 0.7904778 0.5278971 0.3385937 0.8216441 0.2403263 0.8216441 0.2356059 0.8592988 0.2139016 0.3753747 0.2515564 0.3791626 0.2515564 0.4876232 0.8725507 0.3849399 0.865558 0.3580177 0.7691525 0.3581748 0.8725507 0.3849399 0.9438931 0.3304244 0.91684 0.3188312 0.2139016 0.4897559 0.1887149 0.4794601 0.1887149 0.3956072 0.8470374 0.1257663 0.7262147 0.1705365 0.7476625 0.1891519 0.6909443 0.2941644 0.7188546 0.2901281 0.7476625 0.1891519 0.6909443 0.2941644 0.7581804 0.3851262 0.7691525 0.3581748 0.9438931 0.1887512 0.91684 0.198949 0.91684 0.3188312 0.7188546 0.2901281 0.7691525 0.3581748 0.865558 0.3580177 0.865558 0.3580177 0.91684 0.3188312 0.91684 0.198949 0.91684 0.198949 0.8458349 0.1527746 0.7476625 0.1891519 0.7476625 0.1891519 0.7188546 0.2901281 0.865558 0.3580177 0.8963768 0.8672814 0.852113 0.9011051 0.8963768 0.7793815 0.852113 0.9011051 0.781153 0.9012207 0.739437 0.8447843 0.8963768 0.7793815 0.852113 0.9011051 0.8362835 0.7403031 0.739437 0.8447843 0.7613201 0.7680804 0.852113 0.9011051 0.8673388 0.939264 0.7588884 0.9394407 0.781153 0.9012207 0.7588884 0.9394407 0.6951326 0.8531872 0.739437 0.8447843 0.7285773 0.7359584 0.8431461 0.6935055 0.8362835 0.7403031 0.8673388 0.939264 0.852113 0.9011051 0.8963768 0.8672814 0.9349885 0.7532302 0.8963768 0.7793815 0.8362835 0.7403031 0.6951326 0.8531872 0.7285773 0.7359584 0.7613201 0.7680804</float_array>
          <technique_common>
            <accessor source="#Bread-mesh-map-0-array" count="156" stride="2">
              <param name="S" type="float"/>
              <param name="T" type="float"/>
            </accessor>
          </technique_common>
        </source>
        <vertices id="Bread-mesh-vertices">
          <input semantic="POSITION" source="#Bread-mesh-positions"/>
        </vertices>
        <triangles material="Breads-material" count="52">
          <input semantic="VERTEX" source="#Bread-mesh-vertices" offset="0"/>
          <input semantic="NORMAL" source="#Bread-mesh-normals" offset="1"/>
          <input semantic="TEXCOORD" source="#Bread-mesh-map-0" offset="2" set="0"/>
          <p>5 0 0 8 1 1 18 2 2 12 3 3 6 4 4 20 5 5 3 6 6 16 7 7 14 8 8 4 9 9 18 2 10 16 7 11 2 10 12 24 11 13 6 4 14 10 12 15 2 10 16 12 3 17 0 13 18 10 12 19 8 1 20 20 5 21 3 6 22 14 8 23 10 12 24 7 14 25 8 1 26 10 12 27 11 15 28 9 16 29 14 8 30 19 17 31 20 5 32 14 8 33 15 18 34 13 19 35 18 2 36 15 18 37 16 7 38 18 2 39 7 14 40 17 20 41 20 5 42 11 15 43 12 3 44 9 16 45 19 17 46 15 18 47 25 21 48 26 22 49 21 23 50 1 24 51 22 25 52 21 23 53 0 13 54 27 26 55 22 25 56 4 9 57 26 22 58 25 21 59 1 24 60 23 27 61 2 10 62 6 4 63 26 22 64 3 6 65 5 0 66 25 21 67 27 26 68 5 0 69 0 13 70 8 1 71 12 3 72 2 10 73 6 4 74 3 6 75 4 9 76 16 7 77 4 9 78 5 0 79 18 2 80 2 10 81 23 27 82 24 11 83 10 12 84 1 24 85 2 10 86 0 13 87 1 24 88 10 12 89 20 5 90 6 4 91 3 6 92 10 12 93 9 16 94 7 14 95 10 12 96 12 3 97 11 15 98 14 8 99 13 19 100 19 17 101 14 8 102 16 7 103 15 18 104 18 2 105 17 20 106 15 18 107 18 2 108 8 1 109 7 14 110 20 5 111 19 17 112 11 15 113 17 20 114 7 14 115 9 16 116 9 16 117 11 15 118 19 17 119 19 17 120 13 19 121 15 18 122 15 18 123 17 20 124 9 16 125 23 27 126 21 23 127 24 11 128 21 23 129 22 25 130 27 26 131 24 11 132 21 23 133 26 22 134 27 26 135 25 21 136 21 23 137 1 24 138 0 13 139 22 25 140 0 13 141 5 0 142 27 26 143 4 9 144 3 6 145 26 22 146 1 24 147 21 23 148 23 27 149 6 4 150 24 11 151 26 22 152 5 0 153 4 9 154 25 21 155</p>
        </triangles>
      </mesh>
    </geometry>
  </library_geometries>
  <library_visual_scenes>
    <visual_scene id="Scene" name="Scene">
      <node id="Bread" name="Bread" type="NODE">
        <matrix sid="transform">-0.3600262 1.17311e-7 0 0 -1.17311e-7 -0.3600262 0 0 0 0 0.3600262 0 0 0 0 1</matrix>
        <instance_geometry url="#Bread-mesh" name="Bread">
          <bind_material>
            <technique_common>
              <instance_material symbol="Breads-material" target="#Breads-material">
                <bind_vertex_input semantic="UVMap" input_semantic="TEXCOORD" input_set="0"/>
              </instance_material>
            </technique_common>
          </bind_material>
        </instance_geometry>
      </node>
    </visual_scene>
  </library_visual_scenes>
  <scene>
    <instance_visual_scene url="#Scene"/>
  </scene>
</COLLADA>