<?xml version="1.0" encoding="utf-8"?>
<COLLADA xmlns="http://www.collada.org/2005/11/COLLADASchema" version="1.4.1" xmlns:xsi="http://www.w3.org/2001/XMLSchema-instance">
  <asset>
    <contributor>
      <author>Blender User</author>
      <authoring_tool>Blender 4.0.1 commit date:2023-11-16, commit time:16:40, hash:d0dd92834a08</authoring_tool>
    </contributor>
    <created>2023-11-28T13:22:03</created>
    <modified>2023-11-28T13:22:03</modified>
    <unit name="meter" meter="1"/>
    <up_axis>Z_UP</up_axis>
  </asset>
  <library_effects>
    <effect id="Metal_03-effect">
      <profile_COMMON>
        <newparam sid="Metal_03_png-surface">
          <surface type="2D">
            <init_from>Metal_03_png</init_from>
          </surface>
        </newparam>
        <newparam sid="Metal_03_png-sampler">
          <sampler2D>
            <source>Metal_03_png-surface</source>
          </sampler2D>
        </newparam>
        <technique sid="common">
          <lambert>
            <emission>
              <color sid="emission">0 0 0 1</color>
            </emission>
            <diffuse>
              <texture texture="Metal_03_png-sampler" texcoord="UVMap"/>
            </diffuse>
            <index_of_refraction>
              <float sid="ior">1.45</float>
            </index_of_refraction>
          </lambert>
        </technique>
      </profile_COMMON>
    </effect>
    <effect id="Metal_04-effect">
      <profile_COMMON>
        <newparam sid="Metal_04_png-surface">
          <surface type="2D">
            <init_from>Metal_04_png</init_from>
          </surface>
        </newparam>
        <newparam sid="Metal_04_png-sampler">
          <sampler2D>
            <source>Metal_04_png-surface</source>
          </sampler2D>
        </newparam>
        <technique sid="common">
          <lambert>
            <emission>
              <color sid="emission">0 0 0 1</color>
            </emission>
            <diffuse>
              <texture texture="Metal_04_png-sampler" texcoord="UVMap"/>
            </diffuse>
            <index_of_refraction>
              <float sid="ior">1.45</float>
            </index_of_refraction>
          </lambert>
        </technique>
      </profile_COMMON>
    </effect>
  </library_effects>
  <library_images>
    <image id="Metal_03_png" name="Metal_03_png">
      <init_from>Metal_03.png</init_from>
    </image>
    <image id="Metal_04_png" name="Metal_04_png">
      <init_from>Metal_04.png</init_from>
    </image>
  </library_images>
  <library_materials>
    <material id="Metal_03-material" name="Metal_03">
      <instance_effect url="#Metal_03-effect"/>
    </material>
    <material id="Metal_04-material" name="Metal_04">
      <instance_effect url="#Metal_04-effect"/>
    </material>
  </library_materials>
  <library_geometries>
    <geometry id="Table_M_02-mesh" name="Table_M_02">
      <mesh>
        <source id="Table_M_02-mesh-positions">
          <float_array id="Table_M_02-mesh-positions-array" count="408">-0.4364655 -0.794988 -0.02820664 -0.4364655 -0.794988 0.02820664 -0.4364655 0.794988 -0.02820664 -0.4364655 0.794988 0.02820664 0.4364655 -0.794988 -0.02820664 0.4364655 -0.794988 0.02820664 0.4364655 0.794988 -0.02820664 0.4364655 0.794988 0.02820664 -0.3865134 0.7097899 -0.9616287 -0.3865134 0.7097899 -0.02157068 -0.3865134 0.7601518 -0.9616287 -0.3865134 0.7601518 -0.02157068 -0.3361514 0.7097899 -0.9616287 -0.3361514 0.7097899 -0.02157068 -0.3361514 0.7601518 -0.9616287 -0.3361514 0.7601518 -0.02157068 0.3361513 0.7097899 -0.9616287 0.3361513 0.7097899 -0.02157068 0.3361513 0.7601518 -0.9616287 0.3361513 0.7601518 -0.02157068 0.3865132 0.7097899 -0.9616287 0.3865132 0.7097899 -0.02157068 0.3865132 0.7601518 -0.9616287 0.3865132 0.7601518 -0.02157068 0.3361513 -0.7601512 -0.9616287 0.3361513 -0.7601512 -0.02157068 0.3361513 -0.7097891 -0.9616287 0.3361513 -0.7097891 -0.02157068 0.3865132 -0.7601512 -0.9616287 0.3865132 -0.7601512 -0.02157068 0.3865132 -0.7097891 -0.9616287 0.3865132 -0.7097891 -0.02157068 -0.386513 -0.7601512 -0.9616287 -0.386513 -0.7601512 -0.02157068 -0.386513 -0.7097891 -0.9616287 -0.386513 -0.7097891 -0.02157068 -0.336151 -0.7601512 -0.9616287 -0.336151 -0.7601512 -0.02157068 -0.336151 -0.7097891 -0.9616287 -0.336151 -0.7097891 -0.02157068 -0.3697868 -0.7374678 -0.8139922 -0.3697868 -0.7374678 -0.7643458 -0.3697868 0.7374678 -0.8139922 -0.3697868 0.7374678 -0.7643458 0.3697868 -0.7374678 -0.8139922 0.3697868 -0.7374678 -0.7643458 0.3697868 0.7374678 -0.8139922 0.3697868 0.7374678 -0.7643458 -0.4149001 0.7170834 0.005243957 -0.4132609 0.7187226 0.8427643 -0.4149001 0.7528583 0.005243957 -0.4132609 0.7512191 0.8427643 -0.3791252 0.7170834 0.005243957 -0.3807644 0.7187226 0.8427643 -0.3791252 0.7528583 0.005243957 -0.3807644 0.7512191 0.8427643 -0.06459289 0.7170834 0.005243957 -0.06295371 0.7187226 0.8427643 -0.06459289 0.7528583 0.005243957 -0.06295371 0.7512191 0.8427643 -0.02881795 0.7170834 0.005243957 -0.03045713 0.7187226 0.8427643 -0.02881795 0.7528583 0.005243957 -0.03045713 0.7512191 0.8427643 -0.06459289 -0.7528576 0.005243957 -0.06295371 -0.7512184 0.8427643 -0.06459289 -0.7170826 0.005243957 -0.06295371 -0.7187218 0.8427643 -0.02881795 -0.7528576 0.005243957 -0.03045713 -0.7512184 0.8427643 -0.02881795 -0.7170826 0.005243957 -0.03045713 -0.7187218 0.8427643 -0.4148998 -0.7528576 0.005243957 -0.4132606 -0.7512184 0.8427643 -0.4148998 -0.7170826 0.005243957 -0.4132606 -0.7187218 0.8427643 -0.3791248 -0.7528576 0.005243957 -0.380764 -0.7512184 0.8427643 -0.3791248 -0.7170826 0.005243957 -0.380764 -0.7187218 0.8427643 -0.4132609 0.7187226 0.874296 -0.4132609 0.7512191 0.874296 -0.3807644 0.7512191 0.874296 -0.3807644 0.7187226 0.874296 -0.06295371 0.7187226 0.874296 -0.06295371 0.7512191 0.874296 -0.03045713 0.7512191 0.874296 -0.03045713 0.7187226 0.874296 -0.06295371 -0.7512184 0.874296 -0.06295371 -0.7187218 0.874296 -0.03045713 -0.7187218 0.874296 -0.03045713 -0.7512184 0.874296 -0.4132606 -0.7512184 0.874296 -0.4132606 -0.7187218 0.874296 -0.380764 -0.7187218 0.874296 -0.380764 -0.7512184 0.874296 -0.05097514 -0.7201169 0.8626456 -0.05097514 0.7254136 0.8626456 -0.3927428 -0.7201169 0.8626456 -0.3927428 0.7254136 0.8626456 -0.4132609 0.7187226 0.4144203 -0.3807644 0.7187226 0.4144203 -0.3807644 0.7512191 0.4144203 -0.06295371 0.7187226 0.4144203 -0.06295371 0.7512191 0.4144203 -0.03045713 0.7187226 0.4144203 -0.06295371 -0.7512184 0.4144203 -0.06295371 -0.7187218 0.4144203 -0.03045713 -0.7187218 0.4144203 -0.4132606 -0.7187218 0.4144203 -0.380764 -0.7512184 0.4144203 -0.380764 -0.7187218 0.4144203 -0.4132609 0.7187226 0.445952 -0.3807644 0.7512191 0.445952 -0.3807644 0.7187226 0.445952 -0.06295371 0.7187226 0.445952 -0.06295371 0.7512191 0.445952 -0.03045713 0.7187226 0.445952 -0.06295371 -0.7512184 0.445952 -0.06295371 -0.7187218 0.445952 -0.03045713 -0.7187218 0.445952 -0.4132606 -0.7187218 0.445952 -0.380764 -0.7187218 0.445952 -0.380764 -0.7512184 0.445952 -0.05097514 -0.7201169 0.4343017 -0.05097514 0.7254136 0.4343017 -0.3927428 -0.7201169 0.4343017 -0.3927428 0.7254136 0.4343017 -0.05097514 -0.7201169 0.8626456 -0.05097514 0.7254136 0.8626456 -0.3927428 -0.7201169 0.8626456 -0.3927428 0.7254136 0.8626456 -0.05097514 -0.7201169 0.4343017 -0.05097514 0.7254136 0.4343017 -0.3927428 -0.7201169 0.4343017 -0.3927428 0.7254136 0.4343017</float_array>
          <technique_common>
            <accessor source="#Table_M_02-mesh-positions-array" count="136" stride="3">
              <param name="X" type="float"/>
              <param name="Y" type="float"/>
              <param name="Z" type="float"/>
            </accessor>
          </technique_common>
        </source>
        <source id="Table_M_02-mesh-normals">
          <float_array id="Table_M_02-mesh-normals-array" count="96">-1 0 0 0 1 0 1 0 0 0 -1 0 0 0 -1 0 0 1 -0.9999982 0 0.001957178 0 0.9999982 0.001957118 0.9999982 0 0.001957178 0 -0.9999982 0.001957237 0 0.9999981 0.001957118 0 -0.9999981 0.001957237 -0.9999982 0 0.001957178 0.9999982 0 0.001957178 0 -0.9999981 0.001957356 0 -0.9999982 0.001957356 -1 -2.46572e-7 0 1 2.87667e-7 0 -1 -2.46571e-7 0 1 2.87666e-7 0 -0.9999982 0 0.001957178 0 0.9999981 0.001957297 0.9999982 0 0.001957178 0 -0.9999981 0.001957118 0 0.9999981 0.001957297 0 -0.9999982 0.001957118 -0.9999981 0 0.001957178 0.9999981 0 0.001957178 0 -0.9999982 0.001957118 0 -0.9999981 0.001957118 1 2.46572e-7 0 1 2.46571e-7 0</float_array>
          <technique_common>
            <accessor source="#Table_M_02-mesh-normals-array" count="32" stride="3">
              <param name="X" type="float"/>
              <param name="Y" type="float"/>
              <param name="Z" type="float"/>
            </accessor>
          </technique_common>
        </source>
        <source id="Table_M_02-mesh-map-0">
          <float_array id="Table_M_02-mesh-map-0-array" count="1152">-0.168804 0.5139687 0.8393561 0.4860314 -0.168804 0.4860314 0.05852526 0.5139687 0.6120269 0.4860314 0.05852526 0.4860314 0.8393561 0.5139687 -0.168804 0.4860314 0.8393561 0.4860314 0.6120269 0.5139687 0.05852526 0.4860314 0.6120269 0.4860314 0.6120269 0.8936976 0.05852526 0.1063024 0.05852526 0.8936976 0.05852526 0.8936976 0.6120269 0.1063024 0.6120269 0.8936976 0.7853342 0.7327699 0.8172674 0.26723 0.7853342 0.26723 0.09019851 0.7327699 0.1221317 0.26723 0.09019851 0.26723 0.8172674 0.7327699 0.7853342 0.26723 0.8172674 0.26723 0.1221317 0.7327699 0.09019851 0.26723 0.1221317 0.26723 0.1221317 0.8764457 0.09019851 0.8515052 0.09019851 0.8764457 0.7853342 0.7327699 0.8172674 0.26723 0.7853342 0.26723 0.5484205 0.7327699 0.5803536 0.26723 0.5484205 0.26723 0.8172674 0.7327699 0.7853342 0.26723 0.8172674 0.26723 0.5803536 0.7327699 0.5484205 0.26723 0.5803536 0.26723 0.5803536 0.8764457 0.5484205 0.8515052 0.5484205 0.8764457 -0.1467152 0.7327699 -0.1147819 0.26723 -0.1467152 0.26723 0.5484205 0.7327699 0.5803536 0.26723 0.5484205 0.26723 -0.1147819 0.7327699 -0.1467152 0.26723 -0.1147819 0.26723 0.5803536 0.7327699 0.5484205 0.26723 0.5803536 0.26723 0.5803536 0.1484948 0.5484205 0.1235542 0.5484205 0.1484948 -0.1467152 0.7327699 -0.1147819 0.26723 -0.1467152 0.26723 0.09019875 0.7327699 0.1221319 0.26723 0.09019875 0.26723 -0.1147819 0.7327699 -0.1467152 0.26723 -0.1147819 0.26723 0.1221319 0.7327699 0.09019875 0.26723 0.1221319 0.26723 0.1221319 0.1484948 0.09019875 0.1235542 0.09019875 0.1484948 -0.2987966 0.5166692 0.9693487 0.4833308 -0.2987966 0.4833308 0.0173344 0.5166692 0.6532177 0.4833308 0.0173344 0.4833308 0.9693487 0.5166692 -0.2987966 0.4833308 0.9693487 0.4833308 0.6532177 0.5166692 0.0173344 0.4833308 0.6532177 0.4833308 0.6532177 0.9952246 0.0173344 0.004775345 0.0173344 0.9952246 0.0173344 0.9952246 0.6532177 0.004775345 0.6532177 0.9952246 0.7909982 0.6856029 0.8126427 0.2708419 0.7899588 0.2708419 0.0958625 0.6856028 0.1175071 0.270842 0.09482312 0.270842 0.8116034 0.6856029 0.7899588 0.2708419 0.8126428 0.2708419 0.1164677 0.6856028 0.09482312 0.270842 0.1175071 0.270842 0.7909974 0.6852357 0.8126426 0.2704749 0.7899587 0.270475 0.3179839 0.6856033 0.3396276 0.2708423 0.316944 0.2708423 0.8116034 0.6859698 0.7899598 0.271209 0.8126418 0.2712089 0.3385884 0.6856023 0.3169445 0.270842 0.3396291 0.2708426 -0.1410521 0.6852357 -0.1194066 0.270475 -0.1420905 0.270475 0.3179839 0.6856033 0.3396276 0.2708423 0.316944 0.2708423 -0.120446 0.6859697 -0.1420896 0.271209 -0.1194075 0.271209 0.3385896 0.6856037 0.3169445 0.2708423 0.3396281 0.2708423 -0.1410512 0.6856028 -0.1194066 0.270842 -0.1420906 0.270842 0.09586274 0.6856029 0.1175073 0.270842 0.09482336 0.270842 -0.120446 0.6856028 -0.1420905 0.270842 -0.1194066 0.270842 0.116468 0.6856029 0.09482336 0.270842 0.1175073 0.270842 0.5854088 0.8153506 0.4145912 0.8017089 0.5854088 0.8017089 0.3385896 0.6856037 0.3179841 0.7012184 0.3179841 0.6856032 0.8116033 0.68597 0.7909982 0.7015851 0.7909983 0.6859697 0.0958625 0.6856028 0.1164677 0.701218 0.1164677 0.6856028 0.1164677 0.6787636 0.0958625 0.6787636 0.0958625 0.6787636 0.3385883 0.6787631 0.3179838 0.6787642 0.3179836 0.6787636 0.3385895 0.6787645 0.3179838 0.6787642 0.3179841 0.6787641 0.116468 0.6787637 0.09586274 0.6787637 0.09586274 0.6787637 0.6028751 0.198291 0.5854088 0.8017089 0.5854088 0.198291 0.4145914 0.1846494 0.5854088 0.198291 0.4145914 0.198291 0.5854089 0.5226537 0.4145912 0.5094171 0.5854088 0.5094171 0.1136997 0.5226536 0.8863003 0.5094172 0.1136997 0.5094172 -0.1410512 0.6856027 -0.120446 0.701218 -0.120446 0.6856027 0.7909982 0.6856028 0.8116034 0.701218 0.8116034 0.6856027 0.3179839 0.6856033 0.3385893 0.7012191 0.3385893 0.6856039 -0.120446 0.6859698 -0.1410512 0.7015849 -0.1410512 0.6859697 0.116468 0.6856028 0.09586274 0.701218 0.09586274 0.6856028 0.4145914 0.198291 0.3971249 0.8017089 0.3971251 0.198291 0.4145914 0.5226535 0.5854088 0.5094171 0.4145914 0.5094171 0.1136997 0.5226536 0.8863003 0.5094172 0.1136997 0.5094172 0.1136997 0.5094172 0.8863002 0.5226535 0.1136997 0.5226536 0.5854088 0.198291 0.6028751 0.8017089 0.6028751 0.198291 0.1136997 0.5094172 0.8863002 0.5226535 0.1136997 0.5226536 0.3971251 0.198291 0.4145912 0.8017089 0.4145914 0.198291 0.4145914 0.5094171 0.5854089 0.5226537 0.4145914 0.5226535 0.4145914 0.198291 0.5854088 0.1846494 0.4145914 0.1846494 0.5854088 0.5094171 0.4145912 0.5226537 0.5854089 0.5226536 0.5854088 0.8017089 0.4145912 0.8153506 0.5854088 0.8153506 2.763402 0 -1.466167 0.9999998 -1.466168 0 0.5854088 0.8153506 0.4145912 0.8017089 0.5854088 0.8017089 0.6028751 0.198291 0.5854088 0.8017089 0.5854088 0.198291 0.4145914 0.1846494 0.5854088 0.198291 0.4145914 0.198291 0.5854087 0.3428419 0.4145913 0.3296054 0.5854086 0.3296052 0.1136997 0.3428425 0.8863002 0.3296065 0.1136997 0.3296066 0.4145914 0.198291 0.3971249 0.8017089 0.3971251 0.198291 0.1136997 0.3428425 0.8863002 0.3296065 0.1136997 0.3296066 0.1136998 0.3296068 0.8863005 0.3428425 0.1136999 0.3428428 0.5854088 0.198291 0.6028751 0.8017089 0.6028751 0.198291 0.1136998 0.3296068 0.8863005 0.3428425 0.1136999 0.3428428 0.3971251 0.198291 0.4145912 0.8017089 0.4145914 0.198291 0.4145919 0.3296054 0.5854089 0.3428418 0.4145916 0.3428419 0.4145914 0.198291 0.5854088 0.1846494 0.4145914 0.1846494 0.5854092 0.3296055 0.414591 0.3428419 0.5854088 0.3428421 0.5854088 0.8017089 0.4145912 0.8153506 0.5854088 0.8153506 2.763402 0 -1.466167 0.9999998 -1.466168 0 -1.466167 0.9999998 2.763402 0 -1.466168 0 -1.466167 0.9999998 2.763402 0 -1.466168 0 0.0742067 0.2572208 0.02603173 0.7427793 0.02603173 0.2572208 -0.168804 0.5139687 0.8393561 0.5139687 0.8393561 0.4860314 0.05852526 0.5139687 0.6120269 0.5139687 0.6120269 0.4860314 0.8393561 0.5139687 -0.168804 0.5139687 -0.168804 0.4860314 0.6120269 0.5139687 0.05852526 0.5139687 0.05852526 0.4860314 0.6120269 0.8936976 0.6120269 0.1063024 0.05852526 0.1063024 0.05852526 0.8936976 0.05852526 0.1063024 0.6120269 0.1063024 0.7853342 0.7327699 0.8172674 0.7327699 0.8172674 0.26723 0.09019851 0.7327699 0.1221317 0.7327699 0.1221317 0.26723 0.8172674 0.7327699 0.7853342 0.7327699 0.7853342 0.26723 0.1221317 0.7327699 0.09019851 0.7327699 0.09019851 0.26723 0.1221317 0.8764457 0.1221317 0.8515052 0.09019851 0.8515052 0.7853342 0.7327699 0.8172674 0.7327699 0.8172674 0.26723 0.5484205 0.7327699 0.5803536 0.7327699 0.5803536 0.26723 0.8172674 0.7327699 0.7853342 0.7327699 0.7853342 0.26723 0.5803536 0.7327699 0.5484205 0.7327699 0.5484205 0.26723 0.5803536 0.8764457 0.5803536 0.8515052 0.5484205 0.8515052 -0.1467152 0.7327699 -0.1147819 0.7327699 -0.1147819 0.26723 0.5484205 0.7327699 0.5803536 0.7327699 0.5803536 0.26723 -0.1147819 0.7327699 -0.1467152 0.7327699 -0.1467152 0.26723 0.5803536 0.7327699 0.5484205 0.7327699 0.5484205 0.26723 0.5803536 0.1484948 0.5803536 0.1235542 0.5484205 0.1235542 -0.1467152 0.7327699 -0.1147819 0.7327699 -0.1147819 0.26723 0.09019875 0.7327699 0.1221319 0.7327699 0.1221319 0.26723 -0.1147819 0.7327699 -0.1467152 0.7327699 -0.1467152 0.26723 0.1221319 0.7327699 0.09019875 0.7327699 0.09019875 0.26723 0.1221319 0.1484948 0.1221319 0.1235542 0.09019875 0.1235542 -0.2987966 0.5166692 0.9693487 0.5166692 0.9693487 0.4833308 0.0173344 0.5166692 0.6532177 0.5166692 0.6532177 0.4833308 0.9693487 0.5166692 -0.2987966 0.5166692 -0.2987966 0.4833308 0.6532177 0.5166692 0.0173344 0.5166692 0.0173344 0.4833308 0.6532177 0.9952246 0.6532177 0.004775345 0.0173344 0.004775345 0.0173344 0.9952246 0.0173344 0.004775345 0.6532177 0.004775345 0.7909982 0.6856029 0.8116034 0.6856028 0.8126427 0.2708419 0.0958625 0.6856028 0.1164677 0.6856027 0.1175071 0.270842 0.8116034 0.6856029 0.7909982 0.6856028 0.7899588 0.2708419 0.1164677 0.6856028 0.0958625 0.6856027 0.09482312 0.270842 0.7909974 0.6852357 0.8116044 0.6852359 0.8126426 0.2704749 0.3179839 0.6856033 0.3385892 0.6856039 0.3396276 0.2708423 0.8116034 0.6859698 0.7909983 0.6859697 0.7899598 0.271209 0.3385884 0.6856023 0.3179835 0.6856026 0.3169445 0.270842 -0.1410521 0.6852357 -0.120445 0.6852358 -0.1194066 0.270475 0.3179839 0.6856033 0.3385892 0.6856039 0.3396276 0.2708423 -0.120446 0.6859697 -0.1410511 0.6859697 -0.1420896 0.271209 0.3385896 0.6856037 0.3179841 0.6856032 0.3169445 0.2708423 -0.1410512 0.6856028 -0.120446 0.6856028 -0.1194066 0.270842 0.09586274 0.6856029 0.116468 0.6856028 0.1175073 0.270842 -0.120446 0.6856028 -0.1410512 0.6856028 -0.1420905 0.270842 0.116468 0.6856029 0.09586274 0.6856028 0.09482336 0.270842 0.5854088 0.8153506 0.4145912 0.8153506 0.4145912 0.8017089 0.3385896 0.6856037 0.3385896 0.7012188 0.3179841 0.7012184 0.8116033 0.68597 0.8116033 0.7015853 0.7909982 0.7015851 0.0958625 0.6856028 0.0958625 0.701218 0.1164677 0.701218 0.1164677 0.6787636 0.8116033 0.6787637 0.0958625 0.6787636 0.3385883 0.6787631 0.8116033 0.6791306 0.3179838 0.6787642 0.3385895 0.6787645 -0.1204459 0.6791306 0.3179838 0.6787642 0.116468 0.6787637 -0.120446 0.6787636 0.09586274 0.6787637 0.6028751 0.198291 0.6028751 0.8017089 0.5854088 0.8017089 0.4145914 0.1846494 0.5854088 0.1846494 0.5854088 0.198291 0.5854089 0.5226537 0.4145913 0.5226536 0.4145912 0.5094171 0.1136997 0.5226536 0.8863002 0.5226536 0.8863003 0.5094172 -0.1410512 0.6856027 -0.1410512 0.701218 -0.120446 0.701218 0.7909982 0.6856028 0.7909983 0.701218 0.8116034 0.701218 0.3179839 0.6856033 0.3179839 0.7012185 0.3385893 0.7012191 -0.120446 0.6859698 -0.120446 0.7015852 -0.1410512 0.7015849 0.116468 0.6856028 0.116468 0.7012181 0.09586274 0.701218 0.4145914 0.198291 0.4145912 0.8017089 0.3971249 0.8017089 0.4145914 0.5226535 0.5854088 0.5226535 0.5854088 0.5094171 0.1136997 0.5226536 0.8863002 0.5226536 0.8863003 0.5094172 0.1136997 0.5094172 0.8863003 0.5094171 0.8863002 0.5226535 0.5854088 0.198291 0.5854088 0.8017089 0.6028751 0.8017089 0.1136997 0.5094172 0.8863003 0.5094171 0.8863002 0.5226535 0.3971251 0.198291 0.3971249 0.8017089 0.4145912 0.8017089 0.4145914 0.5094171 0.5854088 0.5094171 0.5854089 0.5226537 0.4145914 0.198291 0.5854088 0.198291 0.5854088 0.1846494 0.5854088 0.5094171 0.4145912 0.5094171 0.4145912 0.5226537 0.5854088 0.8017089 0.4145912 0.8017089 0.4145912 0.8153506 2.763402 0 2.763403 1 -1.466167 0.9999998 0.5854088 0.8153506 0.4145912 0.8153506 0.4145912 0.8017089 0.6028751 0.198291 0.6028751 0.8017089 0.5854088 0.8017089 0.4145914 0.1846494 0.5854088 0.1846494 0.5854088 0.198291 0.5854087 0.3428419 0.4145914 0.342842 0.4145913 0.3296054 0.1136997 0.3428425 0.8863003 0.3428424 0.8863002 0.3296065 0.4145914 0.198291 0.4145912 0.8017089 0.3971249 0.8017089 0.1136997 0.3428425 0.8863003 0.3428424 0.8863002 0.3296065 0.1136998 0.3296068 0.8863002 0.3296065 0.8863005 0.3428425 0.5854088 0.198291 0.5854088 0.8017089 0.6028751 0.8017089 0.1136998 0.3296068 0.8863002 0.3296065 0.8863005 0.3428425 0.3971251 0.198291 0.3971249 0.8017089 0.4145912 0.8017089 0.4145919 0.3296054 0.5854091 0.3296054 0.5854089 0.3428418 0.4145914 0.198291 0.5854088 0.198291 0.5854088 0.1846494 0.5854092 0.3296055 0.4145913 0.3296055 0.414591 0.3428419 0.5854088 0.8017089 0.4145912 0.8017089 0.4145912 0.8153506 2.763402 0 2.763403 1 -1.466167 0.9999998 -1.466167 0.9999998 2.763403 1 2.763402 0 -1.466167 0.9999998 2.763403 1 2.763402 0 0.0742067 0.2572208 0.07420676 0.7427793 0.02603173 0.7427793</float_array>
          <technique_common>
            <accessor source="#Table_M_02-mesh-map-0-array" count="576" stride="2">
              <param name="S" type="float"/>
              <param name="T" type="float"/>
            </accessor>
          </technique_common>
        </source>
        <vertices id="Table_M_02-mesh-vertices">
          <input semantic="POSITION" source="#Table_M_02-mesh-positions"/>
        </vertices>
        <triangles material="Metal_03-material" count="184">
          <input semantic="VERTEX" source="#Table_M_02-mesh-vertices" offset="0"/>
          <input semantic="NORMAL" source="#Table_M_02-mesh-normals" offset="1"/>
          <input semantic="TEXCOORD" source="#Table_M_02-mesh-map-0" offset="2" set="0"/>
          <p>1 0 0 2 0 1 0 0 2 3 1 3 6 1 4 2 1 5 7 2 6 4 2 7 6 2 8 5 3 9 0 3 10 4 3 11 6 4 12 0 4 13 2 4 14 3 5 15 5 5 16 7 5 17 9 0 18 10 0 19 8 0 20 11 1 21 14 1 22 10 1 23 15 2 24 12 2 25 14 2 26 13 3 27 8 3 28 12 3 29 14 4 30 8 4 31 10 4 32 17 0 33 18 0 34 16 0 35 19 1 36 22 1 37 18 1 38 23 2 39 20 2 40 22 2 41 21 3 42 16 3 43 20 3 44 22 4 45 16 4 46 18 4 47 25 0 48 26 0 49 24 0 50 27 1 51 30 1 52 26 1 53 31 2 54 28 2 55 30 2 56 29 3 57 24 3 58 28 3 59 30 4 60 24 4 61 26 4 62 33 0 63 34 0 64 32 0 65 35 1 66 38 1 67 34 1 68 39 2 69 36 2 70 38 2 71 37 3 72 32 3 73 36 3 74 38 4 75 32 4 76 34 4 77 41 0 78 42 0 79 40 0 80 43 1 81 46 1 82 42 1 83 47 2 84 44 2 85 46 2 86 45 3 87 40 3 88 44 3 89 46 4 90 40 4 91 42 4 92 43 5 93 45 5 94 47 5 95 49 6 96 50 6 97 48 6 98 51 7 99 54 7 100 50 7 101 55 8 102 52 8 103 54 8 104 53 9 105 48 9 106 52 9 107 57 6 108 58 6 109 56 6 110 59 10 111 62 10 112 58 10 113 63 8 114 60 8 115 62 8 116 61 11 117 56 11 118 60 11 119 65 12 120 66 12 121 64 12 122 67 10 123 70 10 124 66 10 125 71 13 126 68 13 127 70 13 128 69 14 129 64 14 130 68 14 131 73 12 132 74 12 133 72 12 134 75 7 135 78 7 136 74 7 137 79 13 138 76 13 139 78 13 140 77 15 141 72 15 142 76 15 143 85 5 144 83 5 145 84 5 146 69 3 147 88 3 148 65 3 149 63 2 150 87 2 151 61 2 152 51 1 153 82 1 154 55 1 155 83 5 156 81 5 157 80 5 158 87 5 159 85 5 160 84 5 161 91 5 162 89 5 163 88 5 164 95 5 165 93 5 166 92 5 167 90 5 168 84 5 169 89 5 170 95 5 171 89 5 172 94 5 173 84 3 174 53 3 175 57 3 176 89 0 177 57 0 178 67 0 179 73 0 180 93 0 181 75 0 182 49 0 183 81 0 184 51 0 185 59 1 186 86 1 187 63 1 188 71 2 189 91 2 190 69 2 191 77 3 192 92 3 193 73 3 194 94 5 195 80 5 196 93 5 197 94 1 198 67 1 199 79 1 200 93 16 201 49 16 202 75 16 203 71 2 204 87 2 205 90 2 206 67 4 207 61 4 208 71 4 209 79 17 210 83 17 211 94 17 212 75 4 213 53 4 214 79 4 215 77 3 216 88 3 217 95 3 218 79 4 219 65 4 220 77 4 221 59 1 222 82 1 223 85 1 224 57 4 225 55 4 226 59 4 227 116 5 231 114 5 232 115 5 233 120 5 234 115 5 235 119 5 236 123 5 237 119 5 238 122 5 239 115 3 240 101 3 241 103 3 242 119 0 243 103 0 244 107 0 245 122 5 246 112 5 247 121 5 248 121 18 249 100 18 250 109 18 251 108 2 252 117 2 253 120 2 254 107 4 255 105 4 256 108 4 257 111 19 258 114 19 259 122 19 260 109 4 261 101 4 262 111 4 263 110 3 264 118 3 265 123 3 266 111 4 267 106 4 268 110 4 269 104 1 270 113 1 271 116 1 272 103 4 273 102 4 274 104 4 275 107 1 285 122 1 286 119 1 287 1 0 288 3 0 289 2 0 290 3 1 291 7 1 292 6 1 293 7 2 294 5 2 295 4 2 296 5 3 297 1 3 298 0 3 299 6 4 300 4 4 301 0 4 302 3 5 303 1 5 304 5 5 305 9 0 306 11 0 307 10 0 308 11 1 309 15 1 310 14 1 311 15 2 312 13 2 313 12 2 314 13 3 315 9 3 316 8 3 317 14 4 318 12 4 319 8 4 320 17 0 321 19 0 322 18 0 323 19 1 324 23 1 325 22 1 326 23 2 327 21 2 328 20 2 329 21 3 330 17 3 331 16 3 332 22 4 333 20 4 334 16 4 335 25 0 336 27 0 337 26 0 338 27 1 339 31 1 340 30 1 341 31 2 342 29 2 343 28 2 344 29 3 345 25 3 346 24 3 347 30 4 348 28 4 349 24 4 350 33 0 351 35 0 352 34 0 353 35 1 354 39 1 355 38 1 356 39 2 357 37 2 358 36 2 359 37 3 360 33 3 361 32 3 362 38 4 363 36 4 364 32 4 365 41 0 366 43 0 367 42 0 368 43 1 369 47 1 370 46 1 371 47 2 372 45 2 373 44 2 374 45 3 375 41 3 376 40 3 377 46 4 378 44 4 379 40 4 380 43 5 381 41 5 382 45 5 383 49 20 384 51 20 385 50 20 386 51 21 387 55 21 388 54 21 389 55 22 390 53 22 391 52 22 392 53 23 393 49 23 394 48 23 395 57 20 396 59 20 397 58 20 398 59 24 399 63 24 400 62 24 401 63 22 402 61 22 403 60 22 404 61 25 405 57 25 406 56 25 407 65 26 408 67 26 409 66 26 410 67 24 411 71 24 412 70 24 413 71 27 414 69 27 415 68 27 416 69 28 417 65 28 418 64 28 419 73 26 420 75 26 421 74 26 422 75 21 423 79 21 424 78 21 425 79 27 426 77 27 427 76 27 428 77 29 429 73 29 430 72 29 431 85 5 432 82 5 433 83 5 434 69 3 435 91 3 436 88 3 437 63 2 438 86 2 439 87 2 440 51 1 441 81 1 442 82 1 443 83 5 444 82 5 445 81 5 446 87 5 447 86 5 448 85 5 449 91 5 450 90 5 451 89 5 452 95 5 453 94 5 454 93 5 455 90 5 456 87 5 457 84 5 458 95 5 459 88 5 460 89 5 461 84 3 462 83 3 463 53 3 464 89 0 465 84 0 466 57 0 467 73 0 468 92 0 469 93 0 470 49 0 471 80 0 472 81 0 473 59 1 474 85 1 475 86 1 476 71 2 477 90 2 478 91 2 479 77 3 480 95 3 481 92 3 482 94 5 483 83 5 484 80 5 485 94 1 486 89 1 487 67 1 488 93 16 489 80 16 490 49 16 491 71 2 492 61 2 493 87 2 494 67 4 495 57 4 496 61 4 497 79 30 498 53 30 499 83 30 500 75 4 501 49 4 502 53 4 503 77 3 504 65 3 505 88 3 506 79 4 507 67 4 508 65 4 509 59 1 510 55 1 511 82 1 512 57 4 513 53 4 514 55 4 515 116 5 519 113 5 520 114 5 521 120 5 522 117 5 523 115 5 524 123 5 525 118 5 526 119 5 527 115 3 528 114 3 529 101 3 530 119 0 531 115 0 532 103 0 533 122 5 534 114 5 535 112 5 536 121 18 537 112 18 538 100 18 539 108 2 540 105 2 541 117 2 542 107 4 543 103 4 544 105 4 545 111 31 546 101 31 547 114 31 548 109 4 549 100 4 550 101 4 551 110 3 552 106 3 553 118 3 554 111 4 555 107 4 556 106 4 557 104 1 558 102 1 559 113 1 560 103 4 561 101 4 562 102 4 563 107 1 573 111 1 574 122 1 575</p>
        </triangles>
        <triangles material="Metal_04-material" count="8">
          <input semantic="VERTEX" source="#Table_M_02-mesh-vertices" offset="0"/>
          <input semantic="NORMAL" source="#Table_M_02-mesh-normals" offset="1"/>
          <input semantic="TEXCOORD" source="#Table_M_02-mesh-map-0" offset="2" set="0"/>
          <p>97 5 228 98 5 229 96 5 230 125 5 276 126 5 277 124 5 278 130 4 279 129 4 280 128 4 281 134 4 282 133 4 283 132 4 284 97 5 516 99 5 517 98 5 518 125 5 564 127 5 565 126 5 566 130 4 567 131 4 568 129 4 569 134 4 570 135 4 571 133 4 572</p>
        </triangles>
      </mesh>
    </geometry>
  </library_geometries>
  <library_visual_scenes>
    <visual_scene id="Scene" name="Scene">
      <node id="Table_M_02" name="Table_M_02" type="NODE">
        <matrix sid="transform">1.19249e-8 1 0 0 -1 1.19249e-8 0 0 0 0 1 0 0 0 0 1</matrix>
        <instance_geometry url="#Table_M_02-mesh" name="Table_M_02">
          <bind_material>
            <technique_common>
              <instance_material symbol="Metal_03-material" target="#Metal_03-material">
                <bind_vertex_input semantic="UVMap" input_semantic="TEXCOORD" input_set="0"/>
              </instance_material>
              <instance_material symbol="Metal_04-material" target="#Metal_04-material">
                <bind_vertex_input semantic="UVMap" input_semantic="TEXCOORD" input_set="0"/>
              </instance_material>
            </technique_common>
          </bind_material>
        </instance_geometry>
      </node>
    </visual_scene>
  </library_visual_scenes>
  <scene>
    <instance_visual_scene url="#Scene"/>
  </scene>
</COLLADA>