<?xml version="1.0" encoding="utf-8"?>
<COLLADA xmlns="http://www.collada.org/2005/11/COLLADASchema" version="1.4.1" xmlns:xsi="http://www.w3.org/2001/XMLSchema-instance">
  <asset>
    <contributor>
      <author>Blender User</author>
      <authoring_tool>Blender 4.0.1 commit date:2023-11-16, commit time:16:40, hash:d0dd92834a08</authoring_tool>
    </contributor>
    <created>2023-11-28T13:45:09</created>
    <modified>2023-11-28T13:45:09</modified>
    <unit name="meter" meter="1"/>
    <up_axis>Z_UP</up_axis>
  </asset>
  <library_effects>
    <effect id="Breads-effect">
      <profile_COMMON>
        <newparam sid="Breads-surface">
          <surface type="2D">
            <init_from>Breads</init_from>
          </surface>
        </newparam>
        <newparam sid="Breads-sampler">
          <sampler2D>
            <source>Breads-surface</source>
          </sampler2D>
        </newparam>
        <technique sid="common">
          <lambert>
            <emission>
              <color sid="emission">0 0 0 1</color>
            </emission>
            <diffuse>
              <texture texture="Breads-sampler" texcoord="UVMap"/>
            </diffuse>
            <index_of_refraction>
              <float sid="ior">1.45</float>
            </index_of_refraction>
          </lambert>
        </technique>
      </profile_COMMON>
    </effect>
  </library_effects>
  <library_images>
    <image id="Breads" name="Breads">
      <init_from>Breads.png</init_from>
    </image>
  </library_images>
  <library_materials>
    <material id="Breads-material" name="Breads">
      <instance_effect url="#Breads-effect"/>
    </material>
  </library_materials>
  <library_geometries>
    <geometry id="Bread_03-mesh" name="Bread_03">
      <mesh>
        <source id="Bread_03-mesh-positions">
          <float_array id="Bread_03-mesh-positions-array" count="96">-0.1138657 -0.009714007 -0.03003579 -0.1284291 -0.009714007 0.009107291 0.112378 -0.009714007 -0.03203713 0.1305837 -0.009714007 0.00599873 0.002290666 -0.03179794 -0.07537752 -0.02090311 -0.03179794 -0.06735616 -0.01989775 -0.031798 0.07423675 0.0216059 -0.031798 0.07388472 -0.1238451 0.03481346 -0.02769362 -0.143294 0.006327152 -0.04362356 -0.1350091 0.03481346 0.007769465 -0.1615914 0.0063349 0.01448243 0.1214146 0.03481346 -0.03230935 0.1408663 0.006314396 -0.04659193 0.1356438 0.03481346 0.002824485 0.1637374 0.006322145 0.009867191 -0.03015917 0.006280362 -0.09548091 -0.02946221 0.03481346 -0.07096326 0.005519151 0.03481346 -0.08299571 0.002801716 0.006275713 -0.1068781 0.03025299 0.006296694 0.1052458 0.0267024 0.03481346 0.08070164 -0.02838236 0.03481346 0.08112341 -0.02873319 0.006301462 0.1057484 -0.07420229 -0.04436427 -0.01748728 -0.08374029 -0.04436427 0.005344331 0.08589506 -0.04436427 0.003531157 0.07397156 -0.04436427 -0.0186547 -0.02235573 -0.06125825 0.04005759 0.01996862 -0.06125825 0.04208934 0.005292952 -0.06125825 -0.04218125 -0.01862233 -0.06125825 -0.03895342</float_array>
          <technique_common>
            <accessor source="#Bread_03-mesh-positions-array" count="32" stride="3">
              <param name="X" type="float"/>
              <param name="Y" type="float"/>
              <param name="Z" type="float"/>
            </accessor>
          </technique_common>
        </source>
        <source id="Bread_03-mesh-normals">
          <float_array id="Bread_03-mesh-normals-array" count="96">-0.4751246 0.8605978 0.1833796 -0.1674872 0.896618 -0.4099076 -0.3675124 0.8695297 -0.3299286 0.1609309 0.8764091 0.4538815 -0.1639384 0.8710258 0.4630751 0.04693007 -0.008298814 -0.9988637 0.4042306 -0.8175159 -0.4102017 0.06929117 -0.6853591 -0.7249011 -0.474147 -0.8631191 0.1738106 -0.7522025 -0.1547363 -0.6405062 -0.4190829 -0.8242334 -0.3808003 -0.4897091 -0.860425 0.1409033 0.3494769 0.8651348 -0.3597329 0.03468382 0.8655521 -0.4996165 0.7232021 -0.1631839 -0.6710811 0.4792655 -0.864237 0.1529679 -0.2361636 -0.6864577 0.6877518 0.2115378 -0.9028624 0.3742876 0.2492733 -0.6822957 0.6872667 0.3112072 -0.005515754 0.9503262 0.9576537 -0.1269828 0.2584084 -0.2907712 -0.01369774 0.9566946 0.3855238 -0.8484909 -0.3625391 0.1292814 -0.9035646 -0.4084817 -0.3906442 -0.003008663 -0.9205369 -0.9437336 -0.1399217 0.2996481 0.475875 0.8670396 0.1475989 -0.2335007 -0.9011687 0.3652018 -0.4189513 -0.8447658 -0.3329426 -0.2147377 -0.8991465 -0.381344 -0.3167819 -0.65861 -0.6825556 0.4907495 -0.8636524 0.1151932</float_array>
          <technique_common>
            <accessor source="#Bread_03-mesh-normals-array" count="32" stride="3">
              <param name="X" type="float"/>
              <param name="Y" type="float"/>
              <param name="Z" type="float"/>
            </accessor>
          </technique_common>
        </source>
        <source id="Bread_03-mesh-map-0">
          <float_array id="Bread_03-mesh-map-0-array" count="360">0.2493303 0.9127572 0.1247795 0.9394407 0.2252171 0.9394407 0.1365326 0.7834346 0.1247795 0.9394407 0.1851407 0.80527 0.1048275 0.7636497 0.03863656 0.6536703 0.1179739 0.7361553 0.2669776 0.7145518 0.2587949 0.7669131 0.2383936 0.7431028 0.2383936 0.7431028 0.2261631 0.6998481 0.2669776 0.7145518 0.1365326 0.7834346 0.007690608 0.8446279 0.08916848 0.9359192 0.007718324 0.6549865 0.03795826 0.6128847 0.03863656 0.6536703 0.1977909 0.6135335 0.1497762 0.6257337 0.1611522 0.5971142 0.166189 0.566051 0.03795826 0.6128847 0.01036339 0.5961196 0.5366281 0.1857277 0.5734786 0.1372148 0.5734832 0.1942746 0.1179739 0.7361553 0.07780379 0.6573828 0.1287143 0.7057536 0.6156569 0.144119 0.6524916 0.1755091 0.6524871 0.1436246 0.2182619 0.5893847 0.2669776 0.7145518 0.1977909 0.6135335 0.177251 0.09053367 0.204807 0.1402482 0.2047995 0.08403998 0.3695431 0.06233251 0.3419748 0.01453 0.3695356 0.007717311 0.601064 0.1406495 0.5734832 0.1942746 0.5734786 0.1372148 0.6800928 0.1409959 0.6524916 0.1755091 0.6800928 0.1748349 0.6524916 0.1755091 0.6800928 0.2661352 0.6800928 0.1748349 0.5734832 0.1942746 0.601064 0.2970795 0.5735155 0.3227936 0.6800928 0.02888572 0.6524871 0.1436246 0.6800928 0.1409959 0.5734786 0.1372148 0.601064 0.03526622 0.601064 0.1406495 0.138406 0.7669131 0.2383936 0.7431028 0.2587949 0.7669131 0.07780379 0.6573828 0.1497762 0.6257337 0.1287143 0.7057536 0.1861757 0.6445801 0.2085729 0.7160809 0.1510456 0.7125547 0.1861757 0.6445801 0.1287143 0.7057536 0.1497762 0.6257337 0.1977909 0.6135335 0.2261631 0.6998481 0.1861757 0.6445801 0.1416029 0.7384504 0.2085729 0.7160809 0.2383936 0.7431028 0.1416029 0.7384504 0.1287143 0.7057536 0.1510456 0.7125547 0.03863656 0.6536703 0.07626116 0.6330673 0.07780379 0.6573828 0.1611522 0.5971142 0.07626116 0.6330673 0.03795826 0.6128847 0.2493303 0.9127572 0.1851407 0.80527 0.1247795 0.9394407 0.1365326 0.7834346 0.08916848 0.9359192 0.1247795 0.9394407 0.1048275 0.7636497 0.007718324 0.6549865 0.03863656 0.6536703 0.2669776 0.7145518 0.2983058 0.7231919 0.2587949 0.7669131 0.2383936 0.7431028 0.2085729 0.7160809 0.2261631 0.6998481 0.1365326 0.7834346 0.009341955 0.8079972 0.007690608 0.8446279 0.007718324 0.6549865 0.01036339 0.5961196 0.03795826 0.6128847 0.1977909 0.6135335 0.1861757 0.6445801 0.1497762 0.6257337 0.166189 0.566051 0.1611522 0.5971142 0.03795826 0.6128847 0.5366281 0.1857277 0.5366281 0.1455795 0.5734786 0.1372148 0.1179739 0.7361553 0.03863656 0.6536703 0.07780379 0.6573828 0.6156569 0.144119 0.6156569 0.1665553 0.6524916 0.1755091 0.2182619 0.5893847 0.2983058 0.7231919 0.2669776 0.7145518 0.177251 0.09053367 0.177251 0.1248386 0.204807 0.1402482 0.3695431 0.06233251 0.3419748 0.04851639 0.3419748 0.01453 0.601064 0.1406495 0.601064 0.1939352 0.5734832 0.1942746 0.6800928 0.1409959 0.6524871 0.1436246 0.6524916 0.1755091 0.6524916 0.1755091 0.6525368 0.2849488 0.6800928 0.2661352 0.5734832 0.1942746 0.601064 0.1939352 0.601064 0.2970795 0.6800928 0.02888572 0.6525245 0.01006937 0.6524871 0.1436246 0.5734786 0.1372148 0.5735032 0.008090078 0.601064 0.03526622 0.138406 0.7669131 0.1416029 0.7384504 0.2383936 0.7431028 0.07780379 0.6573828 0.07626116 0.6330673 0.1497762 0.6257337 0.1861757 0.6445801 0.2261631 0.6998481 0.2085729 0.7160809 0.1861757 0.6445801 0.1510456 0.7125547 0.1287143 0.7057536 0.1977909 0.6135335 0.2669776 0.7145518 0.2261631 0.6998481 0.1416029 0.7384504 0.1510456 0.7125547 0.2085729 0.7160809 0.1416029 0.7384504 0.1179739 0.7361553 0.1287143 0.7057536 0.03863656 0.6536703 0.03795826 0.6128847 0.07626116 0.6330673 0.1611522 0.5971142 0.1497762 0.6257337 0.07626116 0.6330673</float_array>
          <technique_common>
            <accessor source="#Bread_03-mesh-map-0-array" count="180" stride="2">
              <param name="S" type="float"/>
              <param name="T" type="float"/>
            </accessor>
          </technique_common>
        </source>
        <vertices id="Bread_03-mesh-vertices">
          <input semantic="POSITION" source="#Bread_03-mesh-positions"/>
        </vertices>
        <triangles material="Breads-material" count="60">
          <input semantic="VERTEX" source="#Bread_03-mesh-vertices" offset="0"/>
          <input semantic="NORMAL" source="#Bread_03-mesh-normals" offset="1"/>
          <input semantic="TEXCOORD" source="#Bread_03-mesh-map-0" offset="2" set="0"/>
          <p>10 0 0 17 1 1 8 2 2 21 3 3 17 1 4 22 4 5 19 5 6 2 6 7 4 7 8 1 8 9 9 9 10 0 10 11 0 10 12 25 11 13 1 8 14 21 3 15 12 12 16 18 13 17 13 14 18 3 15 19 2 6 20 6 16 21 29 17 22 7 18 23 20 19 24 3 15 25 15 20 26 6 16 27 20 19 28 23 21 29 4 7 30 27 22 31 30 23 32 4 7 33 16 24 34 19 5 35 23 21 36 1 8 37 6 16 38 10 0 39 9 9 40 11 25 41 13 14 42 14 26 43 15 20 44 21 3 45 23 21 46 20 19 47 18 13 48 16 24 49 17 1 50 16 24 51 8 2 52 17 1 53 23 21 54 10 0 55 11 25 56 12 12 57 19 5 58 18 13 59 20 19 60 14 26 61 21 3 62 16 24 63 0 10 64 9 9 65 27 22 66 29 17 67 30 23 68 28 27 69 24 28 70 31 29 71 28 27 72 30 23 73 29 17 74 6 16 75 25 11 76 28 27 77 5 30 78 24 28 79 0 10 80 5 30 81 30 23 82 31 29 83 2 6 84 26 31 85 27 22 86 7 18 87 26 31 88 3 15 89 10 0 90 22 4 91 17 1 92 21 3 93 18 13 94 17 1 95 19 5 96 13 14 97 2 6 98 1 8 99 11 25 100 9 9 101 0 10 102 24 28 103 25 11 104 21 3 105 14 26 106 12 12 107 13 14 108 15 20 109 3 15 110 6 16 111 28 27 112 29 17 113 20 19 114 7 18 115 3 15 116 6 16 117 7 18 118 20 19 119 4 7 120 2 6 121 27 22 122 4 7 123 5 30 124 16 24 125 23 21 126 11 25 127 1 8 128 10 0 129 8 2 130 9 9 131 13 14 132 12 12 133 14 26 134 21 3 135 22 4 136 23 21 137 18 13 138 19 5 139 16 24 140 16 24 141 9 9 142 8 2 143 23 21 144 22 4 145 10 0 146 12 12 147 13 14 148 19 5 149 20 19 150 15 20 151 14 26 152 16 24 153 5 30 154 0 10 155 27 22 156 26 31 157 29 17 158 28 27 159 25 11 160 24 28 161 28 27 162 31 29 163 30 23 164 6 16 165 1 8 166 25 11 167 5 30 168 31 29 169 24 28 170 5 30 171 4 7 172 30 23 173 2 6 174 3 15 175 26 31 176 7 18 177 29 17 178 26 31 179</p>
        </triangles>
      </mesh>
    </geometry>
  </library_geometries>
  <library_visual_scenes>
    <visual_scene id="Scene" name="Scene">
      <node id="Bread_03" name="Bread_03" type="NODE">
        <matrix sid="transform">-0.5526602 -7.87153e-15 1.8008e-7 0 -1.8008e-7 2.41575e-8 -0.5526602 0 0 -0.5526602 -2.41575e-8 0 0 0 0 1</matrix>
        <instance_geometry url="#Bread_03-mesh" name="Bread_03">
          <bind_material>
            <technique_common>
              <instance_material symbol="Breads-material" target="#Breads-material">
                <bind_vertex_input semantic="UVMap" input_semantic="TEXCOORD" input_set="0"/>
              </instance_material>
            </technique_common>
          </bind_material>
        </instance_geometry>
      </node>
    </visual_scene>
  </library_visual_scenes>
  <scene>
    <instance_visual_scene url="#Scene"/>
  </scene>
</COLLADA>