<?xml version="1.0" encoding="utf-8"?>
<COLLADA xmlns="http://www.collada.org/2005/11/COLLADASchema" version="1.4.1" xmlns:xsi="http://www.w3.org/2001/XMLSchema-instance">
  <asset>
    <contributor>
      <author>Blender User</author>
      <authoring_tool>Blender 4.0.1 commit date:2023-11-16, commit time:16:40, hash:d0dd92834a08</authoring_tool>
    </contributor>
    <created>2023-11-28T13:40:04</created>
    <modified>2023-11-28T13:40:04</modified>
    <unit name="meter" meter="1"/>
    <up_axis>Z_UP</up_axis>
  </asset>
  <library_effects>
    <effect id="Soda-effect">
      <profile_COMMON>
        <newparam sid="Soda-surface">
          <surface type="2D">
            <init_from>Soda</init_from>
          </surface>
        </newparam>
        <newparam sid="Soda-sampler">
          <sampler2D>
            <source>Soda-surface</source>
          </sampler2D>
        </newparam>
        <technique sid="common">
          <lambert>
            <emission>
              <color sid="emission">0 0 0 1</color>
            </emission>
            <diffuse>
              <texture texture="Soda-sampler" texcoord="UVMap"/>
            </diffuse>
            <index_of_refraction>
              <float sid="ior">1.45</float>
            </index_of_refraction>
          </lambert>
        </technique>
      </profile_COMMON>
    </effect>
  </library_effects>
  <library_images>
    <image id="Soda" name="Soda">
      <init_from>Soda.png</init_from>
    </image>
  </library_images>
  <library_materials>
    <material id="Soda-material" name="Soda">
      <instance_effect url="#Soda-effect"/>
    </material>
  </library_materials>
  <library_geometries>
    <geometry id="Soda-mesh" name="Soda">
      <mesh>
        <source id="Soda-mesh-positions">
          <float_array id="Soda-mesh-positions-array" count="138">0 -1.076927 1.076927 0 -0.810455 -2.078826 -0.8419752 -0.6714529 1.076927 -0.6227861 -0.5105372 -2.078826 -1.049926 0.2396387 1.076927 -0.7766015 0.1633725 -2.078826 -0.467261 0.9702774 1.076927 -0.3456202 0.703806 -2.078826 0.467261 0.9702774 1.076927 0.3456202 0.703806 -2.078826 1.049926 0.2396387 1.076927 0.7766015 0.1633725 -2.078826 0.8419752 -0.6714529 1.076927 0.6227861 -0.5105372 -2.078826 0 -1.026668 1.216354 -0.8006344 -0.641103 1.216354 -0.9983748 0.2252544 1.216354 -0.4443186 0.9200189 1.216354 0.4443186 0.9200189 1.216354 0.9983748 0.2252544 1.216354 0.8006344 -0.641103 1.216354 6.11611e-4 0.06514114 1.047103 0.1139847 0.06518757 2.219496 0.0620737 0.01995545 1.048715 0.175386 0.01971501 2.218477 0.03872042 -0.052414 1.048087 0.1522098 -0.05204725 2.218625 -0.03792071 -0.05299842 1.046161 0.07496035 -0.05332845 2.2211 -0.0619567 0.02031582 1.0456 0.05054539 0.02048438 2.222381 0.2115863 0.0194776 2.277878 0.1733453 0.06527018 2.324096 0.1973637 -0.05169874 2.295126 0.1482738 -0.05373746 2.354187 0.1323836 0.02071285 2.373205 0.3029583 0.01965165 2.317441 0.3130329 0.06519812 2.378026 0.307042 -0.05197089 2.340215 0.3183482 -0.05336838 2.416808 0.321371 0.0205003 2.441112 1.255685 0.02116721 2.230846 1.261412 0.06849807 2.295739 1.257873 -0.05541563 2.255633 1.264951 -0.05541563 2.335845 1.267139 0.02116721 2.360633</float_array>
          <technique_common>
            <accessor source="#Soda-mesh-positions-array" count="46" stride="3">
              <param name="X" type="float"/>
              <param name="Y" type="float"/>
              <param name="Z" type="float"/>
            </accessor>
          </technique_common>
        </source>
        <source id="Soda-mesh-normals">
          <float_array id="Soda-mesh-normals-array" count="138">0 -0.9923499 0.1234576 -0.5914711 -0.4726321 -0.6532847 0 -0.7576362 -0.6526772 -0.7769162 -0.6169664 0.1255148 -0.7371846 0.1673083 -0.6546502 -0.9660871 0.2230792 0.1300449 -0.3279451 0.6800361 -0.6557461 0.428996 0.8933739 0.1335873 -0.428996 0.893374 0.1335872 0.9660871 0.2230792 0.130045 0.3279452 0.6800362 -0.6557461 0.5914713 -0.472632 -0.6532846 0.7769162 -0.6169663 0.1255148 0.7371847 0.1673083 -0.6546501 -0.6416952 0.1427354 0.7535609 -0.5163778 -0.4155524 0.7487791 0.5163778 -0.4155524 0.7487792 0.2847632 0.5876115 0.7573788 -0.2847631 0.5876117 0.7573786 0.641695 0.1427354 0.7535609 -0.05855858 0.9975791 0.03750932 0.9432271 0.3193491 -0.09131836 -0.03907638 0.9992309 0.003281474 0.5191584 -0.8390106 -0.1628986 0.5608043 -0.8261542 -0.05447936 -0.5993576 -0.77754 0.1902682 -0.6118267 -0.7888359 0.05836176 0.8912996 0.3271458 -0.3139441 0.3410738 -0.8544332 -0.3919343 -0.9188137 0.2911237 0.2665115 -0.9507305 0.2964088 0.09084886 -0.6252602 0.2792954 0.7287276 -0.09083944 -0.7749906 0.6254101 -0.10984 0.2898524 0.9507476 -0.06702899 0.9948759 0.07569211 0.6199716 0.3389083 -0.7076556 -0.4254975 -0.7583627 0.4937996 0.5923759 0.8039719 -0.05215609 -0.03220242 0.9970563 0.06958347 0.1657902 0.3291514 -0.9296091 0.07299065 -0.8421503 -0.5342801 0.6594252 0.248394 0.7095484 0.6338065 -0.6504065 0.4186416 0.5509255 -0.6504277 -0.5229005 0.5253054 0.2484471 -0.8138356 0 -0.6652235 0.7466443</float_array>
          <technique_common>
            <accessor source="#Soda-mesh-normals-array" count="46" stride="3">
              <param name="X" type="float"/>
              <param name="Y" type="float"/>
              <param name="Z" type="float"/>
            </accessor>
          </technique_common>
        </source>
        <source id="Soda-mesh-map-0">
          <float_array id="Soda-mesh-map-0-array" count="486">0.1421464 0.5191194 0.04270714 0.01524525 0.1421464 0.01524525 0.2920258 0.5191194 0.425321 0.01524525 0.3177189 0.01524525 0.4374983 0.5191194 0.5116112 0.01524525 0.425321 0.01524525 0.9941009 0.5191194 0.8643094 0.01524525 0.8448873 0.5191194 0.7148459 0.5191194 0.7889587 0.01524525 0.8315058 0.5191194 0.3350031 0.6807324 0.4904927 0.8047312 0.5767828 0.6255478 0.5693734 0.5191194 0.7026686 0.01524525 0.7148459 0.5191194 0.1421464 0.5191194 0.2415856 0.01524525 0.2765833 0.5191194 0.2920258 0.5191194 0.4352015 0.5413815 0.4374983 0.5191194 0.0701518 0.5893781 0.2084817 0.5578052 0.3194137 0.7881578 0.8234812 0.5413815 0.7148459 0.5191194 0.8315058 0.5191194 0.1421464 0.5191194 0.01431035 0.5413815 0.007709562 0.5191194 0.4374983 0.5191194 0.5461335 0.5413815 0.5541582 0.5191194 0.7125492 0.5413815 0.5693734 0.5191194 0.7148459 0.5191194 0.8485504 0.5413815 0.9941009 0.5191194 0.8448873 0.5191194 0.2699824 0.5413815 0.1421464 0.5191194 0.2765833 0.5191194 0.1022443 0.795664 0.09376597 0.6044468 0.08372765 0.6041836 0.2214832 0.5786122 0.2116401 0.7385454 0.2115899 0.5785263 0.08995175 0.6043443 0.09587061 0.795926 0.07743448 0.6040298 0.2214503 0.7385251 0.2116877 0.7490036 0.2116401 0.7385454 0.2115101 0.5782631 0.2215555 0.739059 0.2215325 0.5781864 0.09188306 0.7961353 0.08372765 0.6041836 0.07350879 0.6039381 0.1553694 0.6755109 0.1807919 0.6653836 0.181205 0.6754818 0.1022443 0.795664 0.1052492 0.8207684 0.1119393 0.8127478 0.1122726 0.7954975 0.1119393 0.8127478 0.118185 0.8051992 0.1084874 0.7955217 0.1078445 0.8176623 0.09587061 0.795926 0.211465 0.7388838 0.2215868 0.7596773 0.2215555 0.739059 0.1361155 0.8318594 0.2896473 0.8081164 0.1347537 0.8215559 0.1642526 0.6656118 0.1786879 0.6753658 0.1792463 0.6655747 0.1052492 0.8207684 0.1347537 0.8215559 0.1119393 0.8127478 0.1078445 0.8176623 0.1337752 0.8153803 0.1356218 0.8278898 0.1119393 0.8127478 0.1331083 0.8116608 0.118185 0.8051992 0.2216488 0.7579587 0.2111796 0.7545702 0.2111796 0.7436047 0.1356218 0.8278898 0.2890691 0.8015662 0.2902253 0.8146668 0.1347537 0.8215559 0.2887119 0.7975178 0.1331083 0.8116608 0.181205 0.6754818 0.3101978 0.6651037 0.3104968 0.6755729 0.1792463 0.6655747 0.3089311 0.6755729 0.30923 0.6651037 0.1421464 0.5191194 0.007709562 0.5191194 0.04270714 0.01524525 0.2920258 0.5191194 0.4374983 0.5191194 0.425321 0.01524525 0.4374983 0.5191194 0.5541582 0.5191194 0.5116112 0.01524525 0.9941009 0.5191194 0.9746787 0.01524525 0.8643094 0.01524525 0.7148459 0.5191194 0.7026686 0.01524525 0.7889587 0.01524525 0.4904927 0.5567337 0.3828906 0.5812932 0.3350031 0.6807324 0.3350031 0.6807324 0.3828906 0.7801717 0.4904927 0.8047312 0.4904927 0.8047312 0.5767828 0.7359171 0.5767828 0.6255478 0.5767828 0.6255478 0.4904927 0.5567337 0.3350031 0.6807324 0.5693734 0.5191194 0.5950665 0.01524525 0.7026686 0.01524525 0.1421464 0.5191194 0.1421464 0.01524525 0.2415856 0.01524525 0.2920258 0.5191194 0.2968717 0.5413815 0.4352015 0.5413815 0.2084817 0.5578052 0.3194137 0.6462705 0.3194137 0.7881578 0.3194137 0.7881578 0.2084816 0.8766231 0.0701518 0.5893781 0.2084816 0.8766231 0.07015174 0.8450502 0.0701518 0.5893781 0.07015174 0.8450502 0.008589208 0.7172142 0.0701518 0.5893781 0.8234812 0.5413815 0.7125492 0.5413815 0.7148459 0.5191194 0.1421464 0.5191194 0.1421464 0.5413815 0.01431035 0.5413815 0.4374983 0.5191194 0.4352015 0.5413815 0.5461335 0.5413815 0.7125492 0.5413815 0.5742192 0.5413815 0.5693734 0.5191194 0.8485504 0.5413815 0.9904378 0.5413815 0.9941009 0.5191194 0.2699824 0.5413815 0.1421464 0.5413815 0.1421464 0.5191194 0.1022443 0.795664 0.1122726 0.7954975 0.09376597 0.6044468 0.2214832 0.5786122 0.2214503 0.7385251 0.2116401 0.7385454 0.08995175 0.6043443 0.1084874 0.7955217 0.09587061 0.795926 0.2214503 0.7385251 0.2214179 0.7466456 0.2116877 0.7490036 0.2115101 0.5782631 0.211465 0.7388838 0.2215555 0.739059 0.09188306 0.7961353 0.1022443 0.795664 0.08372765 0.6041836 0.1553694 0.6755109 0.1575418 0.6653331 0.1807919 0.6653836 0.1022443 0.795664 0.09188306 0.7961353 0.1052492 0.8207684 0.1122726 0.7954975 0.1022443 0.795664 0.1119393 0.8127478 0.1084874 0.7955217 0.1158621 0.8080163 0.1078445 0.8176623 0.211465 0.7388838 0.2114089 0.7570775 0.2215868 0.7596773 0.1361155 0.8318594 0.2905825 0.8187151 0.2896473 0.8081164 0.1642526 0.6656118 0.1661969 0.6753421 0.1786879 0.6753658 0.1052492 0.8207684 0.1361155 0.8318594 0.1347537 0.8215559 0.1078445 0.8176623 0.1158621 0.8080163 0.1337752 0.8153803 0.1119393 0.8127478 0.1347537 0.8215559 0.1331083 0.8116608 0.2111796 0.7436047 0.2216488 0.7402161 0.2281193 0.7490873 0.2281193 0.7490873 0.2216488 0.7579587 0.2111796 0.7436047 0.1356218 0.8278898 0.1337752 0.8153803 0.2890691 0.8015662 0.1347537 0.8215559 0.2896473 0.8081164 0.2887119 0.7975178 0.181205 0.6754818 0.1807919 0.6653836 0.3101978 0.6651037 0.1792463 0.6655747 0.1786879 0.6753658 0.3089311 0.6755729</float_array>
          <technique_common>
            <accessor source="#Soda-mesh-map-0-array" count="243" stride="2">
              <param name="S" type="float"/>
              <param name="T" type="float"/>
            </accessor>
          </technique_common>
        </source>
        <vertices id="Soda-mesh-vertices">
          <input semantic="POSITION" source="#Soda-mesh-positions"/>
        </vertices>
        <triangles material="Soda-material" count="81">
          <input semantic="VERTEX" source="#Soda-mesh-vertices" offset="0"/>
          <input semantic="NORMAL" source="#Soda-mesh-normals" offset="1"/>
          <input semantic="TEXCOORD" source="#Soda-mesh-map-0" offset="2" set="0"/>
          <p>0 0 0 3 1 1 1 2 2 2 3 3 5 4 4 3 1 5 4 5 6 7 6 7 5 4 8 8 7 9 7 6 10 6 8 11 10 9 12 9 10 13 8 7 14 5 4 15 9 10 16 13 11 17 12 12 18 11 13 19 10 9 20 0 0 21 13 11 22 12 12 23 2 3 24 16 14 25 4 5 26 16 14 27 15 15 28 20 16 29 18 17 30 10 9 31 8 7 32 0 0 33 15 15 34 2 3 35 4 5 36 17 18 37 6 8 38 19 19 39 12 12 40 10 9 41 17 18 42 8 7 43 6 8 44 20 16 45 0 0 46 12 12 47 22 20 48 23 21 49 21 22 50 23 21 51 26 23 52 25 24 53 25 24 54 28 25 55 27 26 56 24 27 57 33 28 58 26 23 59 27 26 60 30 29 61 29 30 62 30 29 63 21 22 64 29 30 65 35 31 66 39 32 67 40 33 68 22 20 69 35 31 70 32 34 71 24 27 72 32 34 73 31 35 74 26 23 75 34 36 76 28 25 77 28 25 78 35 31 79 30 29 80 40 33 81 42 37 82 37 38 83 33 28 84 36 39 85 38 40 86 35 31 87 37 38 88 32 34 89 34 36 90 38 40 91 39 32 92 32 34 93 36 39 94 31 35 95 45 41 96 44 42 97 43 43 98 39 32 99 43 43 100 44 42 101 37 38 102 41 44 103 36 39 104 40 33 105 44 42 106 45 41 107 38 40 108 41 44 109 43 43 110 0 0 111 2 3 112 3 1 113 2 3 114 4 5 115 5 4 116 4 5 117 6 8 118 7 6 119 8 7 120 9 10 121 7 6 122 10 9 123 11 13 124 9 10 125 1 2 126 3 1 127 5 4 128 5 4 129 7 6 130 9 10 131 9 10 132 11 13 133 13 11 134 13 11 135 1 2 136 5 4 137 12 12 138 13 11 139 11 13 140 0 0 141 1 2 142 13 11 143 2 3 144 15 15 145 16 14 146 15 15 147 14 45 148 20 16 149 20 16 150 19 19 151 16 14 152 19 19 153 18 17 154 16 14 155 18 17 156 17 18 157 16 14 158 18 17 159 19 19 160 10 9 161 0 0 162 14 45 163 15 15 164 4 5 165 16 14 166 17 18 167 19 19 168 20 16 169 12 12 170 17 18 171 18 17 172 8 7 173 20 16 174 14 45 175 0 0 176 22 20 177 24 27 178 23 21 179 23 21 180 24 27 181 26 23 182 25 24 183 26 23 184 28 25 185 24 27 186 31 35 187 33 28 188 27 26 189 28 25 190 30 29 191 30 29 192 22 20 193 21 22 194 35 31 195 34 36 196 39 32 197 22 20 198 30 29 199 35 31 200 24 27 201 22 20 202 32 34 203 26 23 204 33 28 205 34 36 206 28 25 207 34 36 208 35 31 209 40 33 210 45 41 211 42 37 212 33 28 213 31 35 214 36 39 215 35 31 216 40 33 217 37 38 218 34 36 219 33 28 220 38 40 221 32 34 222 37 38 223 36 39 224 43 43 225 41 44 226 42 37 227 42 37 228 45 41 229 43 43 230 39 32 231 38 40 232 43 43 233 37 38 234 42 37 235 41 44 236 40 33 237 39 32 238 44 42 239 38 40 240 36 39 241 41 44 242</p>
        </triangles>
      </mesh>
    </geometry>
  </library_geometries>
  <library_visual_scenes>
    <visual_scene id="Scene" name="Scene">
      <node id="Soda" name="Soda" type="NODE">
        <matrix sid="transform">-0.04184224 0.0521109 0 0 -0.0521109 -0.04184224 0 0 0 0 0.06683053 0 0 0 0 1</matrix>
        <instance_geometry url="#Soda-mesh" name="Soda">
          <bind_material>
            <technique_common>
              <instance_material symbol="Soda-material" target="#Soda-material">
                <bind_vertex_input semantic="UVMap" input_semantic="TEXCOORD" input_set="0"/>
              </instance_material>
            </technique_common>
          </bind_material>
        </instance_geometry>
      </node>
    </visual_scene>
  </library_visual_scenes>
  <scene>
    <instance_visual_scene url="#Scene"/>
  </scene>
</COLLADA>