<?xml version="1.0" encoding="utf-8"?>
<COLLADA xmlns="http://www.collada.org/2005/11/COLLADASchema" version="1.4.1" xmlns:xsi="http://www.w3.org/2001/XMLSchema-instance">
  <asset>
    <contributor>
      <author>Blender User</author>
      <authoring_tool>Blender 4.0.1 commit date:2023-11-16, commit time:16:40, hash:d0dd92834a08</authoring_tool>
    </contributor>
    <created>2023-11-28T13:38:26</created>
    <modified>2023-11-28T13:38:26</modified>
    <unit name="meter" meter="1"/>
    <up_axis>Z_UP</up_axis>
  </asset>
  <library_effects>
    <effect id="Ice_cream_02-effect">
      <profile_COMMON>
        <newparam sid="Ice_cream_01_001-surface">
          <surface type="2D">
            <init_from>Ice_cream_01_001</init_from>
          </surface>
        </newparam>
        <newparam sid="Ice_cream_01_001-sampler">
          <sampler2D>
            <source>Ice_cream_01_001-surface</source>
          </sampler2D>
        </newparam>
        <technique sid="common">
          <lambert>
            <emission>
              <color sid="emission">0 0 0 1</color>
            </emission>
            <diffuse>
              <texture texture="Ice_cream_01_001-sampler" texcoord="UVMap"/>
            </diffuse>
            <index_of_refraction>
              <float sid="ior">1.45</float>
            </index_of_refraction>
          </lambert>
        </technique>
      </profile_COMMON>
    </effect>
  </library_effects>
  <library_images>
    <image id="Ice_cream_01_001" name="Ice_cream_01_001">
      <init_from>Ice_cream_01.001.png</init_from>
    </image>
  </library_images>
  <library_materials>
    <material id="Ice_cream_02-material" name="Ice_cream_02">
      <instance_effect url="#Ice_cream_02-effect"/>
    </material>
  </library_materials>
  <library_geometries>
    <geometry id="Ice_cream_02-mesh" name="Ice_cream_02">
      <mesh>
        <source id="Ice_cream_02-mesh-positions">
          <float_array id="Ice_cream_02-mesh-positions-array" count="132">-1.030939 -0.2853046 1.465105 -0.02916443 0.8514281 1.196282 -0.3841118 -1.096491 1.474752 0.6356703 0.5299839 1.136849 0.6533188 -1.096491 1.490223 0.7998709 -0.1922949 1.122171 -0.07991653 0 -2.601962 0.339791 -0.7715175 1.1633 1.115463 -0.2853046 1.488327 -0.3981198 -0.7715175 1.229265 0.1346035 1.176402 1.482487 -0.8581997 -0.192295 1.270394 0.8846131 0.7262282 1.484884 -0.6939992 0.5299839 1.255715 -0.8000892 0.7262282 1.468548 0.1761454 1.257344 1.78027 -0.8244382 0.7751069 1.740434 -1.071562 -0.3084708 1.730595 -0.3791366 -1.177433 1.758162 0.7314275 -1.177433 1.802377 1.23917 -0.3084709 1.818402 0.9920461 0.7751069 1.808563 -1.0773 -0.2899406 2.101316 -0.4222146 -1.112689 2.064479 -0.8435026 0.7360104 2.088169 0.1031232 1.192601 2.03494 0.628461 -1.112689 2.005399 1.098863 -0.2899406 1.95702 0.8650661 0.7360104 1.970167 -0.6429916 -0.1608512 2.869955 -0.2436693 -0.6616513 2.863474 -0.5004749 0.4636362 2.867642 0.07656216 0.7415593 2.858277 0.3967936 -0.6616513 2.853079 0.7961158 -0.1608512 2.846599 0.6535993 0.4636362 2.848912 0.07673448 0.003403782 3.134747 -0.3541184 -0.9461005 2.564078 -0.9152704 -0.2422626 2.575085 0.9067788 0.6354091 2.539345 1.107052 -0.2422627 2.535416 0.5458998 -0.9461005 2.546423 -0.7149974 0.6354091 2.571157 0.0958907 1.02601 2.55525</float_array>
          <technique_common>
            <accessor source="#Ice_cream_02-mesh-positions-array" count="44" stride="3">
              <param name="X" type="float"/>
              <param name="Y" type="float"/>
              <param name="Z" type="float"/>
            </accessor>
          </technique_common>
        </source>
        <source id="Ice_cream_02-mesh-normals">
          <float_array id="Ice_cream_02-mesh-normals-array" count="132">-0.01655334 5.86e-4 -0.9998629 -0.08251434 0.8395251 -0.5370188 0.6740707 0.5308305 -0.5136612 0.846949 -0.1986938 -0.4931513 0.3301347 -0.7472087 -0.5767932 -0.4430509 -0.717783 -0.5371159 -0.8510354 -0.1527847 -0.50239 -0.7096771 0.5658811 -0.4196867 0.02771395 0.8751509 -0.4830557 -0.7210508 0.4870518 -0.4928147 0.8415282 -0.1481139 -0.5195118 0.4177852 -0.7220558 -0.5514445 0.6975243 0.5206348 -0.4923408 -0.8864312 -0.2037891 -0.4155838 -0.9682508 -0.235465 -0.0839442 -0.7613397 0.6442487 -0.07283908 -0.3837716 -0.7867819 -0.4834187 -0.388351 -0.9201958 -0.04922646 0.4253261 -0.8173078 0.3887231 -0.444572 -0.8683969 0.2196419 0.1028 0.994668 0.00823909 0.8150032 0.5600704 0.1486302 0.9693677 -0.1494835 0.1948872 0.5397989 -0.8379749 0.08009606 -0.8431504 -0.1931155 0.5018007 -0.2484627 -0.5185346 0.8181615 -0.5722892 -0.1247838 0.8105025 0.009642243 0.9642009 0.2649977 0.7073928 0.596028 0.379929 0.8801053 -0.1676962 0.4441764 -0.7802093 0.6027704 0.1671571 -0.9630756 -0.215157 0.1618425 0.4588645 0.3679189 0.8087517 0.003593862 0.5957109 0.803191 0.01405799 0 0.9999012 0.7501825 0.5506662 0.3660507 0.5647751 -0.1220463 0.8161702 0.9140778 -0.1950888 0.3555307 -0.3646194 -0.7764281 0.5140157 0.2543732 -0.5120165 0.820447 -0.6794994 0.5480887 0.4877287 -0.4610309 0.3761498 0.8037177 0.03062927 0.882363 0.4695717 0.417231 -0.7648402 0.4908543</float_array>
          <technique_common>
            <accessor source="#Ice_cream_02-mesh-normals-array" count="44" stride="3">
              <param name="X" type="float"/>
              <param name="Y" type="float"/>
              <param name="Z" type="float"/>
            </accessor>
          </technique_common>
        </source>
        <source id="Ice_cream_02-mesh-map-0">
          <float_array id="Ice_cream_02-mesh-map-0-array" count="504">0.532391 0.8910499 0.4994935 0.277792 0.3924792 0.2917163 0.6337697 0.00545156 0.8684354 0.5690695 0.7548029 0.5960828 0.6337697 0.00545156 0.7548029 0.5960828 0.6658235 0.6260247 0.3172979 0.2075141 0.4353082 0.808561 0.3172979 0.8290642 0.2832649 0.8785535 0.273188 0.2467818 0.1802746 0.2602337 0.4994935 0.277792 0.6222622 0.2287957 0.4711765 0.2326218 0.2832649 0.8785535 0.1802746 0.2602337 0.06668525 0.2874282 0.532391 0.8910499 0.6065079 0.2638677 0.4994935 0.277792 0.09981733 0.6680405 0.0212084 0.7934481 0.1523578 0.7187304 0.5872372 0.5079529 0.6351543 0.6311968 0.6351543 0.4897722 0.09981733 0.548738 0.0212084 0.4464263 0.006170988 0.4743542 0.7548029 0.5960828 0.9132711 0.6155734 0.7551057 0.6571608 0.02835541 0.2605668 0.1827767 0.1835369 0.0112704 0.2193017 0.06668525 0.2874282 0.1882609 0.2262728 0.02835541 0.2605668 0.09981733 0.6680405 0.1523578 0.5510028 0.09981733 0.548738 0.191637 0.7839758 0.1540985 0.9474581 0.1420147 0.7777504 0.4711765 0.2326218 0.6244277 0.1847156 0.4625293 0.1847867 0.7551057 0.6571608 0.9340558 0.6642459 0.7648748 0.7097578 0.2374407 0.9502346 0.191637 0.7839758 0.2374407 0.7824883 0.3160678 0.1968113 0.1827767 0.1835369 0.1882609 0.2262728 0.3500005 0.2371117 0.4625293 0.1847867 0.3305405 0.1855214 0.7551057 0.6571608 0.6282318 0.7425128 0.6282318 0.6903759 0.9478425 0.2750356 0.8271359 0.2324041 0.9306918 0.23241 0.6244277 0.1847156 0.4726696 0.1431712 0.4625293 0.1847867 0.4625293 0.1847867 0.3500026 0.1585896 0.3305405 0.1855214 0.6282318 0.7425128 0.7734 0.7306995 0.6466028 0.7716584 0.1827767 0.1835369 0.005470037 0.1630252 0.0112704 0.2193017 0.9340558 0.6642459 0.7734 0.7306995 0.7648748 0.7097578 0.1827767 0.1835369 0.298316 0.103097 0.1670817 0.125614 0.878956 0.005559861 0.9722483 0.05049502 0.8789165 0.1248704 0.9418486 0.7842824 0.8297021 0.8646804 0.8043332 0.819284 0.06141477 0.7899632 0.01650565 0.9120509 0.01328116 0.8085399 0.004727184 0.08326512 0.1202178 0.008641898 0.02165019 0.03051483 0.4704546 0.0590704 0.3784499 0.01525741 0.339563 0.06691271 0.711598 0.1612592 0.7856471 0.05048435 0.762585 0.1514395 0.6013462 0.05122786 0.4716066 0.009992301 0.4704546 0.0590704 0.762585 0.1514395 0.7856471 0.05048435 0.8789165 0.1248704 0.9722483 0.05049502 0.9952728 0.1514528 0.8789165 0.1248704 0.9306918 0.23241 0.8271359 0.2324041 0.8789165 0.1248704 0.7856471 0.05048435 0.878956 0.005559861 0.8789165 0.1248704 0.8271359 0.2324041 0.762585 0.1514395 0.8789165 0.1248704 0.9952728 0.1514528 0.9306918 0.23241 0.8789165 0.1248704 0.6252463 0.1284166 0.4704546 0.0590704 0.4726696 0.1431712 0.7734 0.7306995 0.6946291 0.8495687 0.6466028 0.7716584 0.3500026 0.1585896 0.4704546 0.0590704 0.339563 0.06691271 0.005470037 0.1630252 0.1432334 0.05241709 0.004727184 0.08326512 0.1420147 0.7777504 0.06643849 0.9354158 0.06141477 0.7899632 0.7734 0.7306995 0.9418486 0.7842824 0.8043332 0.819284 0.1670817 0.125614 0.2547943 0.02991533 0.1432334 0.05241709 0.4994935 0.277792 0.6065079 0.2638677 0.6222622 0.2287957 0.09981733 0.6680405 0.006170988 0.7424244 0.0212084 0.7934481 0.5872372 0.5079529 0.5764793 0.6268594 0.6351543 0.6311968 0.09981733 0.548738 0.1523578 0.5510028 0.0212084 0.4464263 0.7548029 0.5960828 0.8684354 0.5690695 0.9132711 0.6155734 0.02835541 0.2605668 0.1882609 0.2262728 0.1827767 0.1835369 0.06668525 0.2874282 0.1802746 0.2602337 0.1882609 0.2262728 0.09981733 0.6680405 0.1523578 0.7187304 0.1523578 0.5510028 0.191637 0.7839758 0.1871668 0.9636141 0.1540985 0.9474581 0.4711765 0.2326218 0.6222622 0.2287957 0.6244277 0.1847156 0.7551057 0.6571608 0.9132711 0.6155734 0.9340558 0.6642459 0.2374407 0.9502346 0.1871668 0.9636141 0.191637 0.7839758 0.3160678 0.1968113 0.3190929 0.1492545 0.1827767 0.1835369 0.3500005 0.2371117 0.4711765 0.2326218 0.4625293 0.1847867 0.7551057 0.6571608 0.7648748 0.7097578 0.6282318 0.7425128 0.9478425 0.2750356 0.802309 0.2750356 0.8271359 0.2324041 0.6244277 0.1847156 0.6252463 0.1284166 0.4726696 0.1431712 0.4625293 0.1847867 0.4726696 0.1431712 0.3500026 0.1585896 0.6282318 0.7425128 0.7648748 0.7097578 0.7734 0.7306995 0.1827767 0.1835369 0.1670817 0.125614 0.005470037 0.1630252 0.9340558 0.6642459 0.9344952 0.6911233 0.7734 0.7306995 0.1827767 0.1835369 0.3190929 0.1492545 0.298316 0.103097 0.9418486 0.7842824 0.9275285 0.8397002 0.8297021 0.8646804 0.06141477 0.7899632 0.06643849 0.9354158 0.01650565 0.9120509 0.004727184 0.08326512 0.1432334 0.05241709 0.1202178 0.008641898 0.4704546 0.0590704 0.4716066 0.009992301 0.3784499 0.01525741 0.711598 0.1612592 0.7440168 0.01938247 0.7856471 0.05048435 0.6013462 0.05122786 0.5647632 0.004727065 0.4716066 0.009992301 0.6252463 0.1284166 0.6013462 0.05122786 0.4704546 0.0590704 0.7734 0.7306995 0.8043332 0.819284 0.6946291 0.8495687 0.3500026 0.1585896 0.4726696 0.1431712 0.4704546 0.0590704 0.005470037 0.1630252 0.1670817 0.125614 0.1432334 0.05241709 0.1420147 0.7777504 0.1540985 0.9474581 0.06643849 0.9354158 0.7734 0.7306995 0.9344952 0.6911233 0.9418486 0.7842824 0.1670817 0.125614 0.298316 0.103097 0.2547943 0.02991533</float_array>
          <technique_common>
            <accessor source="#Ice_cream_02-mesh-map-0-array" count="252" stride="2">
              <param name="S" type="float"/>
              <param name="T" type="float"/>
            </accessor>
          </technique_common>
        </source>
        <vertices id="Ice_cream_02-mesh-vertices">
          <input semantic="POSITION" source="#Ice_cream_02-mesh-positions"/>
        </vertices>
        <triangles material="Ice_cream_02-material" count="84">
          <input semantic="VERTEX" source="#Ice_cream_02-mesh-vertices" offset="0"/>
          <input semantic="NORMAL" source="#Ice_cream_02-mesh-normals" offset="1"/>
          <input semantic="TEXCOORD" source="#Ice_cream_02-mesh-map-0" offset="2" set="0"/>
          <p>6 0 0 1 1 1 3 2 2 6 0 3 3 2 4 5 3 5 6 0 6 5 3 7 7 4 8 6 0 9 7 4 10 9 5 11 6 0 12 9 5 13 11 6 14 1 1 15 14 7 16 10 8 17 6 0 18 11 6 19 13 9 20 6 0 21 13 9 22 1 1 23 7 4 24 8 10 25 4 11 26 3 2 27 10 8 28 12 12 29 9 5 30 0 13 31 11 6 32 5 3 33 12 12 34 8 10 35 14 7 36 17 14 37 16 15 38 13 9 39 0 13 40 14 7 41 7 4 42 2 16 43 9 5 44 18 17 45 26 18 46 23 19 47 10 8 48 16 15 49 15 20 50 8 10 51 21 21 52 20 22 53 4 11 54 18 17 55 2 16 56 2 16 57 17 14 58 0 13 59 12 12 60 15 20 61 21 21 62 8 10 63 19 23 64 4 11 65 38 24 66 30 25 67 29 26 68 16 15 69 25 27 70 15 20 71 15 20 72 28 28 73 21 21 74 19 23 75 27 29 76 26 18 77 17 14 78 24 30 79 16 15 80 21 21 81 27 29 82 20 22 83 17 14 84 23 19 85 22 31 86 35 32 87 32 33 88 36 34 89 39 35 90 34 36 91 40 37 92 37 38 93 33 39 94 30 25 95 42 40 96 29 26 97 31 41 98 43 42 99 35 32 100 39 35 101 41 43 102 34 36 103 33 39 104 42 40 105 32 33 106 43 42 107 33 39 108 34 36 109 36 34 110 32 33 111 31 41 112 36 34 113 29 26 114 30 25 115 36 34 116 34 36 117 35 32 118 36 34 119 30 25 120 33 39 121 36 34 122 31 41 123 29 26 124 36 34 125 24 30 126 43 42 127 25 27 128 27 29 129 41 43 130 26 18 131 28 28 132 43 42 133 39 35 134 24 30 135 38 24 136 42 40 137 23 19 138 41 43 139 37 38 140 27 29 141 39 35 142 40 37 143 22 31 144 37 38 145 38 24 146 1 1 147 13 9 148 14 7 149 7 4 150 5 3 151 8 10 152 3 2 153 1 1 154 10 8 155 9 5 156 2 16 157 0 13 158 5 3 159 3 2 160 12 12 161 14 7 162 0 13 163 17 14 164 13 9 165 11 6 166 0 13 167 7 4 168 4 11 169 2 16 170 18 17 171 19 23 172 26 18 173 10 8 174 14 7 175 16 15 176 8 10 177 12 12 178 21 21 179 4 11 180 19 23 181 18 17 182 2 16 183 18 17 184 17 14 185 12 12 186 10 8 187 15 20 188 8 10 189 20 22 190 19 23 191 38 24 192 37 38 193 30 25 194 16 15 195 24 30 196 25 27 197 15 20 198 25 27 199 28 28 200 19 23 201 20 22 202 27 29 203 17 14 204 22 31 205 24 30 206 21 21 207 28 28 208 27 29 209 17 14 210 18 17 211 23 19 212 39 35 213 35 32 214 34 36 215 37 38 216 41 43 217 33 39 218 42 40 219 38 24 220 29 26 221 43 42 222 32 33 223 35 32 224 41 43 225 40 37 226 34 36 227 42 40 228 31 41 229 32 33 230 24 30 231 42 40 232 43 42 233 27 29 234 40 37 235 41 43 236 28 28 237 25 27 238 43 42 239 24 30 240 22 31 241 38 24 242 23 19 243 26 18 244 41 43 245 27 29 246 28 28 247 39 35 248 22 31 249 23 19 250 37 38 251</p>
        </triangles>
      </mesh>
    </geometry>
  </library_geometries>
  <library_visual_scenes>
    <visual_scene id="Scene" name="Scene">
      <node id="Ice_cream_02" name="Ice_cream_02" type="NODE">
        <matrix sid="transform">-0.04351143 1.41778e-8 0 0 -1.41778e-8 -0.04351143 0 0 0 0 0.04351143 0 0 0 0 1</matrix>
        <instance_geometry url="#Ice_cream_02-mesh" name="Ice_cream_02">
          <bind_material>
            <technique_common>
              <instance_material symbol="Ice_cream_02-material" target="#Ice_cream_02-material">
                <bind_vertex_input semantic="UVMap" input_semantic="TEXCOORD" input_set="0"/>
              </instance_material>
            </technique_common>
          </bind_material>
        </instance_geometry>
      </node>
    </visual_scene>
  </library_visual_scenes>
  <scene>
    <instance_visual_scene url="#Scene"/>
  </scene>
</COLLADA>