<?xml version="1.0" encoding="utf-8"?>
<COLLADA xmlns="http://www.collada.org/2005/11/COLLADASchema" version="1.4.1" xmlns:xsi="http://www.w3.org/2001/XMLSchema-instance">
  <asset>
    <contributor>
      <author>Blender User</author>
      <authoring_tool>Blender 4.0.1 commit date:2023-11-16, commit time:16:40, hash:d0dd92834a08</authoring_tool>
    </contributor>
    <created>2023-11-28T12:55:09</created>
    <modified>2023-11-28T12:55:09</modified>
    <unit name="meter" meter="1"/>
    <up_axis>Z_UP</up_axis>
  </asset>
  <library_effects>
    <effect id="Store_11-effect">
      <profile_COMMON>
        <newparam sid="Store_11_jpg-surface">
          <surface type="2D">
            <init_from>Store_11_jpg</init_from>
          </surface>
        </newparam>
        <newparam sid="Store_11_jpg-sampler">
          <sampler2D>
            <source>Store_11_jpg-surface</source>
          </sampler2D>
        </newparam>
        <technique sid="common">
          <lambert>
            <emission>
              <color sid="emission">0 0 0 1</color>
            </emission>
            <diffuse>
              <texture texture="Store_11_jpg-sampler" texcoord="UVMap"/>
            </diffuse>
            <index_of_refraction>
              <float sid="ior">1.45</float>
            </index_of_refraction>
          </lambert>
        </technique>
      </profile_COMMON>
    </effect>
    <effect id="BrickSmallBrown_02-effect">
      <profile_COMMON>
        <newparam sid="BrickSmallBrown_02_jpg-surface">
          <surface type="2D">
            <init_from>BrickSmallBrown_02_jpg</init_from>
          </surface>
        </newparam>
        <newparam sid="BrickSmallBrown_02_jpg-sampler">
          <sampler2D>
            <source>BrickSmallBrown_02_jpg-surface</source>
          </sampler2D>
        </newparam>
        <technique sid="common">
          <lambert>
            <emission>
              <color sid="emission">0 0 0 1</color>
            </emission>
            <diffuse>
              <texture texture="BrickSmallBrown_02_jpg-sampler" texcoord="UVMap"/>
            </diffuse>
            <index_of_refraction>
              <float sid="ior">1.45</float>
            </index_of_refraction>
          </lambert>
        </technique>
      </profile_COMMON>
    </effect>
    <effect id="Rooftiles-effect">
      <profile_COMMON>
        <newparam sid="Rooftiles_png-surface">
          <surface type="2D">
            <init_from>Rooftiles_png</init_from>
          </surface>
        </newparam>
        <newparam sid="Rooftiles_png-sampler">
          <sampler2D>
            <source>Rooftiles_png-surface</source>
          </sampler2D>
        </newparam>
        <technique sid="common">
          <lambert>
            <emission>
              <color sid="emission">0 0 0 1</color>
            </emission>
            <diffuse>
              <texture texture="Rooftiles_png-sampler" texcoord="UVMap"/>
            </diffuse>
            <index_of_refraction>
              <float sid="ior">1.45</float>
            </index_of_refraction>
          </lambert>
        </technique>
      </profile_COMMON>
    </effect>
  </library_effects>
  <library_images>
    <image id="BrickSmallBrown_02_jpg" name="BrickSmallBrown_02_jpg">
      <init_from>BrickSmallBrown_02.jpg</init_from>
    </image>
    <image id="Rooftiles_png" name="Rooftiles_png">
      <init_from>Rooftiles.png</init_from>
    </image>
    <image id="Store_11_jpg" name="Store_11_jpg">
      <init_from>Store_11.jpg</init_from>
    </image>
  </library_images>
  <library_materials>
    <material id="Store_11-material" name="Store_11">
      <instance_effect url="#Store_11-effect"/>
    </material>
    <material id="BrickSmallBrown_02-material" name="BrickSmallBrown_02">
      <instance_effect url="#BrickSmallBrown_02-effect"/>
    </material>
    <material id="Rooftiles-material" name="Rooftiles">
      <instance_effect url="#Rooftiles-effect"/>
    </material>
  </library_materials>
  <library_geometries>
    <geometry id="Building_04-mesh" name="Building_04">
      <mesh>
        <source id="Building_04-mesh-positions">
          <float_array id="Building_04-mesh-positions-array" count="204">-2.807086 -1.880879 -1.002718 -2.807086 -1.801706 0.9972819 -2.807086 2.056681 -1.002718 -2.807086 2.056681 0.9972819 2.807086 -1.880879 -1.002718 2.807086 -1.880879 0.9972819 2.807086 2.056681 -1.002718 2.807086 1.977508 0.9972819 -2.807086 -1.880879 0.0465126 -2.807086 2.056681 0.03928273 2.807086 2.056681 0.03928273 2.807086 -1.880879 0.0465126 -2.807086 -1.880879 0.4642453 -2.807086 2.056681 0.4642453 2.807086 2.056681 0.4642453 2.807086 -1.880879 0.4642453 2.807086 -2.152189 0.3559926 2.807086 -2.152189 0.0465126 -2.807086 -2.152189 0.0465126 -2.807086 -2.152189 0.3559926 -3.091775 2.056681 -1.002718 -3.091775 0.05668067 -1.002718 -3.091775 -1.880879 0.4642453 -3.012602 -1.801706 0.9972819 -3.012602 1.977508 0.9972819 -3.091775 2.056681 0.03928273 3.091775 2.056681 0.03928273 3.091775 2.056681 -1.002718 3.091775 -1.880879 -1.002718 3.012602 1.977508 0.9972819 3.012602 -1.801706 0.9972819 3.091775 -1.880879 0.0465126 -3.091775 0.05668067 0.0465126 -3.091775 2.056681 0.4642453 3.091775 2.056681 0.4642453 3.091775 -1.880879 0.4642453 -2.807086 -1.980143 0.4642453 -2.807086 -1.980143 0.9972819 2.807086 -1.980143 0.0465126 2.807086 -1.980143 -1.002718 -2.807086 -1.980143 -1.002718 -2.807086 -1.980143 0.0465126 2.807086 -1.980143 0.4642453 3.091775 -1.980143 0.0465126 3.091775 -1.980143 -1.002718 2.807086 -1.980143 0.9972819 -3.091775 -1.980143 0.4642453 -3.091775 -1.980143 0.9972819 -3.091775 -1.980143 -1.002718 -3.091775 -1.980143 0.0465126 3.091775 -1.980143 0.4642453 3.091775 -1.980143 0.9972819 -2.807086 1.977508 0.9972819 2.807086 2.056681 0.9972819 2.807086 -1.801706 0.9972819 -2.807086 -1.880879 0.9972819 -3.091775 -1.880879 0.9972819 -3.091775 2.056681 0.9972819 3.091775 2.056681 0.9972819 3.091775 -1.880879 0.9972819 -2.807086 -1.801706 0.9226357 -2.807086 1.977508 0.9226357 2.807086 1.977508 0.9226357 2.807086 -1.801706 0.9226357 -3.012602 -1.801706 0.9226357 -3.012602 1.977508 0.9226357 3.012602 1.977508 0.9226357 3.012602 -1.801706 0.9226357</float_array>
          <technique_common>
            <accessor source="#Building_04-mesh-positions-array" count="68" stride="3">
              <param name="X" type="float"/>
              <param name="Y" type="float"/>
              <param name="Z" type="float"/>
            </accessor>
          </technique_common>
        </source>
        <source id="Building_04-mesh-normals">
          <float_array id="Building_04-mesh-normals-array" count="60">1 0 0 0 1 0 0 0 -1 0 -1 0 -5.80049e-7 1 0 -1 0 0 0 -0.3705896 0.9287967 -1 -5.25915e-7 0 1 0 0 0 0 1 -5.97618e-7 0 1 -2.8322e-7 0 1 5.80048e-7 1 0 1 -5.25915e-7 0 0 -0.37059 0.9287967 1 0 0 -1 -1.61548e-7 0 2.12688e-7 0 -1 5.97618e-7 0 1 5.80049e-7 1 0</float_array>
          <technique_common>
            <accessor source="#Building_04-mesh-normals-array" count="20" stride="3">
              <param name="X" type="float"/>
              <param name="Y" type="float"/>
              <param name="Z" type="float"/>
            </accessor>
          </technique_common>
        </source>
        <source id="Building_04-mesh-map-0">
          <float_array id="Building_04-mesh-map-0-array" count="792">-1.50109 0.5513329 -1.604593 -0.5426977 -1.50109 -0.5426977 -2.426942 1.542698 3.426942 0.9869017 -2.426942 0.9869017 1.044741 0 0.9945819 -0.04963201 0.9945818 0 0.9945818 1 0.005418121 0.7334817 0.9945818 0.7334817 0.9945817 1.96878 0.005418121 0 0.005418121 1.96878 -0.56181 0.5141178 -0.6395487 0.4858821 -0.6395487 0.5141178 0.9945819 0.5246153 0.005418121 0 0.9945818 0 -2.426942 -0.5426977 -2.723787 0.5437942 -2.426942 0.5437942 -2.426942 0.5437942 3.426942 -0.5426977 -2.426942 -0.5426977 1.214764 0.5141178 -0.2147637 0.4858821 -0.2147637 0.5141178 0.1179566 0.5246153 0.07015436 0.6793553 0.07015436 0.5246154 -1.50109 0.9869017 -1.604593 0.5513329 -1.50109 0.5513329 -2.426942 0.9869017 3.426942 0.5437942 -2.426942 0.5437942 -1.50109 -0.5426977 -1.604593 0.5513329 -1.50109 0.5513329 0.9945818 0.6793553 0.005418121 0.5246154 0.9945818 0.5246154 0.003143548 0.7287293 0.9968563 0.6786406 0.9968563 0.7287293 0.1179566 0.5246154 0.07015436 0.6793553 0.1179566 0.7334817 0.9911981 0.7302525 0.008801877 0.689036 0.008801877 0.7302525 -1.50109 1.542698 2.604593 0.9869017 -1.50109 0.9869017 2.604593 1.542698 -1.50109 0.9869017 2.604593 0.9869017 2.604593 0.5437942 -1.50109 -0.5426977 2.604593 -0.5426977 0.5191976 -0.5426977 2.604593 0.5437942 2.604593 -0.5426977 2.604593 0.9869017 -1.50109 0.5513329 2.604593 0.5437942 0.5191976 0.5513329 2.604593 0.9869017 2.604593 0.5437942 -2.426942 0.5437942 -2.723787 0.9869017 -2.426942 0.9869017 3.426942 0.5437942 3.723787 -0.5426977 3.426942 -0.5426977 -2.426942 0.9869017 -2.723787 1.542698 -2.426942 1.542698 3.426942 0.9869017 3.723787 0.5437942 3.426942 0.5437942 0.9945819 1.96878 1.044741 0 0.9945818 0 3.426942 1.542698 3.723787 0.9869017 3.426942 0.9869017 0.005418121 1.96878 -0.04474127 0.96878 -0.04474127 1.96878 -1.50109 1.542698 -1.604593 0.9869017 -1.50109 0.9869017 1.56181 0.5141178 1.639548 0.4858821 1.639548 0.5141178 -1.50109 1.542698 -1.604593 0.9869017 -1.50109 0.9869017 -2.426942 0.9869017 -2.723787 0.5513329 -2.426942 0.5513329 -2.426942 0.5513329 -2.723787 -0.5426977 -2.426942 -0.5426977 3.426942 -0.5426977 3.723787 0.5513329 3.426942 0.5513329 -2.426942 1.542698 -2.723787 0.9869017 -2.426942 0.9869017 3.426942 0.5513329 3.723787 0.9869017 3.426942 0.9869017 3.426942 0.9869017 3.723787 1.542698 3.426942 1.542698 -2.723787 -1.501091 -2.426942 -1.604594 -2.426942 -1.501091 -1.50109 0.9869017 -1.604593 0.5513329 -1.50109 0.5513329 -1.50109 0.9869017 -1.604593 0.5513329 -1.604593 0.9869017 -1.50109 0.5513329 -1.604593 -0.5426977 -1.50109 -0.5426977 0.5191976 -0.5426977 -1.604593 0.5513329 0.5191976 0.5513329 -1.50109 0.9869017 -1.604593 1.542698 -1.50109 1.542698 -1.50109 0.5513329 -1.604593 0.9869017 -1.50109 0.9869017 3.426942 -1.501091 3.723787 -1.604594 3.723787 -1.501091 0.005418121 0 -0.04474127 -0.04963201 -0.04474121 0.96878 -1.50109 0.9869017 -1.604593 1.542698 -1.50109 1.542698 3.426942 2.52204 -2.426942 2.604594 -2.426942 2.52204 -2.426942 -1.418537 3.426942 -1.501091 3.426942 -1.418537 -2.641233 -1.418537 -2.426942 -1.501091 -2.426942 -1.418537 2.236462 0.6766265 -1.401265 0.6030238 -1.32662 0.6766265 2.236461 0.5974472 -1.401267 0.6710501 2.311107 0.6710506 -2.641233 2.52204 -2.426942 2.604594 -2.723787 2.604594 3.641233 2.52204 3.426942 2.604594 3.426942 2.52204 3.641233 -1.418537 3.426942 -1.501091 3.723787 -1.501091 -1.909545 2.173751 2.909545 -1.070248 2.909545 2.173751 -1.909545 2.173751 -2.085956 -1.070248 -1.909545 -1.070248 2.909545 -1.070248 3.085956 2.173751 2.909545 2.173751 -0.56181 0.5141178 1.56181 0.4858821 1.56181 0.5141178 1.639548 0.5141178 1.56181 0.4858821 1.56181 0.5141178 -0.6395487 0.5141178 -0.56181 0.4858821 -0.56181 0.5141178 -0.2147637 0.5141178 1.214764 0.4858821 1.214764 0.5141178 1.56181 0.5141178 -0.56181 0.4858821 -0.56181 0.5141178 -1.50109 0.5513329 -1.604593 0.5513329 -1.604593 -0.5426977 -2.426942 1.542698 3.426942 1.542698 3.426942 0.9869017 1.044741 0 1.044741 -0.04963201 0.9945819 -0.04963201 0.9945818 1 0.005418121 1 0.005418121 0.7334817 0.9945817 1.96878 0.9945818 0 0.005418121 0 -0.56181 0.5141178 -0.56181 0.4858821 -0.6395487 0.4858821 0.9945819 0.5246153 0.005418121 0.5246152 0.005418121 0 -2.426942 -0.5426977 -2.723787 -0.5426977 -2.723787 0.5437942 -2.426942 0.5437942 3.426942 0.5437942 3.426942 -0.5426977 1.214764 0.5141178 1.214764 0.4858821 -0.2147637 0.4858821 0.1179566 0.5246153 0.1179566 0.7334817 0.07015436 0.6793553 -1.50109 0.9869017 -1.604593 0.9869017 -1.604593 0.5513329 -2.426942 0.9869017 3.426942 0.9869017 3.426942 0.5437942 -1.50109 -0.5426977 -1.604593 -0.5426977 -1.604593 0.5513329 0.9945818 0.6793553 0.005418121 0.6793553 0.005418121 0.5246154 0.003143548 0.7287293 0.003143548 0.6786406 0.9968563 0.6786406 0.1179566 0.5246154 0.0701543 0.5246154 0.07015436 0.6793553 0.9911981 0.7302525 0.9911981 0.689036 0.008801877 0.689036 -1.50109 1.542698 2.604593 1.542698 2.604593 0.9869017 2.604593 1.542698 -1.50109 1.542698 -1.50109 0.9869017 2.604593 0.5437942 -1.50109 0.5513329 -1.50109 -0.5426977 0.5191976 -0.5426977 0.5191976 0.5513329 2.604593 0.5437942 2.604593 0.9869017 -1.50109 0.9869017 -1.50109 0.5513329 0.5191976 0.5513329 -1.50109 0.9869017 2.604593 0.9869017 -2.426942 0.5437942 -2.723787 0.5437942 -2.723787 0.9869017 3.426942 0.5437942 3.723787 0.5437942 3.723787 -0.5426977 -2.426942 0.9869017 -2.723787 0.9869017 -2.723787 1.542698 3.426942 0.9869017 3.723787 0.9869017 3.723787 0.5437942 0.9945819 1.96878 1.044741 1.96878 1.044741 0 3.426942 1.542698 3.723787 1.542698 3.723787 0.9869017 0.005418121 1.96878 0.005418121 0 -0.04474127 0.96878 -1.50109 1.542698 -1.604593 1.542698 -1.604593 0.9869017 1.56181 0.5141178 1.56181 0.4858821 1.639548 0.4858821 -1.50109 1.542698 -1.604593 1.542698 -1.604593 0.9869017 -2.426942 0.9869017 -2.723787 0.9869017 -2.723787 0.5513329 -2.426942 0.5513329 -2.723787 0.5513329 -2.723787 -0.5426977 3.426942 -0.5426977 3.723787 -0.5426977 3.723787 0.5513329 -2.426942 1.542698 -2.723787 1.542698 -2.723787 0.9869017 3.426942 0.5513329 3.723787 0.5513329 3.723787 0.9869017 3.426942 0.9869017 3.723787 0.9869017 3.723787 1.542698 -2.723787 -1.501091 -2.723787 -1.604594 -2.426942 -1.604594 -1.50109 0.9869017 -1.604593 0.9869017 -1.604593 0.5513329 -1.50109 0.9869017 0.5191976 0.5513329 -1.604593 0.5513329 -1.50109 0.5513329 -1.604593 0.5513329 -1.604593 -0.5426977 0.5191976 -0.5426977 -1.604593 -0.5426977 -1.604593 0.5513329 -1.50109 0.9869017 -1.604593 0.9869017 -1.604593 1.542698 -1.50109 0.5513329 -1.604593 0.5513329 -1.604593 0.9869017 3.426942 -1.501091 3.426942 -1.604594 3.723787 -1.604594 0.005418121 0 0.005418121 -0.04963201 -0.04474127 -0.04963201 -1.50109 0.9869017 -1.604593 0.9869017 -1.604593 1.542698 3.426942 2.52204 3.426942 2.604594 -2.426942 2.604594 -2.426942 -1.418537 -2.426942 -1.501091 3.426942 -1.501091 -2.641233 -1.418537 -2.723787 -1.501091 -2.426942 -1.501091 2.236462 0.6766265 2.311108 0.6030238 -1.401265 0.6030238 2.236461 0.5974472 -1.326621 0.5974472 -1.401267 0.6710501 -2.641233 2.52204 -2.426942 2.52204 -2.426942 2.604594 3.641233 2.52204 3.723787 2.604594 3.426942 2.604594 3.641233 -1.418537 3.426942 -1.418537 3.426942 -1.501091 -1.909545 2.173751 -1.909545 -1.070248 2.909545 -1.070248 -1.909545 2.173751 -2.085956 2.173751 -2.085956 -1.070248 2.909545 -1.070248 3.085956 -1.070248 3.085956 2.173751 -0.56181 0.5141178 -0.56181 0.4858821 1.56181 0.4858821 1.639548 0.5141178 1.639548 0.4858821 1.56181 0.4858821 -0.6395487 0.5141178 -0.6395487 0.4858821 -0.56181 0.4858821 -0.2147637 0.5141178 -0.2147637 0.4858821 1.214764 0.4858821 1.56181 0.5141178 1.56181 0.4858821 -0.56181 0.4858821</float_array>
          <technique_common>
            <accessor source="#Building_04-mesh-map-0-array" count="396" stride="2">
              <param name="S" type="float"/>
              <param name="T" type="float"/>
            </accessor>
          </technique_common>
        </source>
        <vertices id="Building_04-mesh-vertices">
          <input semantic="POSITION" source="#Building_04-mesh-positions"/>
        </vertices>
        <triangles material="Store_11-material" count="24">
          <input semantic="VERTEX" source="#Building_04-mesh-vertices" offset="0"/>
          <input semantic="NORMAL" source="#Building_04-mesh-normals" offset="1"/>
          <input semantic="TEXCOORD" source="#Building_04-mesh-map-0" offset="2" set="0"/>
          <p>28 2 6 39 2 7 4 2 8 5 3 9 12 3 10 15 3 11 6 2 12 0 2 13 2 2 14 11 3 18 0 3 19 4 3 20 11 0 30 16 0 31 17 0 32 16 3 42 18 3 43 17 3 44 12 6 45 16 6 46 15 6 47 8 7 48 19 7 49 12 7 50 11 2 51 18 2 52 8 2 53 6 2 84 28 2 85 4 2 86 2 2 90 21 2 91 20 2 92 0 2 144 48 2 145 21 2 146 28 2 204 44 2 205 39 2 206 5 3 207 55 3 208 12 3 209 6 2 210 4 2 211 0 2 212 11 3 216 8 3 217 0 3 218 11 13 228 15 13 229 16 13 230 16 3 240 19 3 241 18 3 242 12 14 243 19 14 244 16 14 245 8 5 246 18 5 247 19 5 248 11 2 249 17 2 250 18 2 251 6 2 282 27 2 283 28 2 284 2 17 288 0 17 289 21 17 290 0 2 342 40 2 343 48 2 344</p>
        </triangles>
        <triangles material="BrickSmallBrown_02-material" count="102">
          <input semantic="VERTEX" source="#Building_04-mesh-vertices" offset="0"/>
          <input semantic="NORMAL" source="#Building_04-mesh-normals" offset="1"/>
          <input semantic="TEXCOORD" source="#Building_04-mesh-map-0" offset="2" set="0"/>
          <p>8 0 0 40 0 1 0 0 2 3 1 3 14 1 4 13 1 5 1 4 15 64 4 16 23 4 17 2 1 21 25 1 22 9 1 23 9 1 24 6 1 25 2 1 26 29 5 27 67 5 28 30 5 29 35 0 33 43 0 34 31 0 35 13 1 36 10 1 37 9 1 38 4 5 39 38 5 40 11 5 41 56 5 54 33 5 55 22 5 56 58 0 57 35 0 58 34 0 59 26 0 60 28 0 61 27 0 62 21 5 63 25 5 64 20 5 65 34 8 66 31 8 67 26 8 68 32 5 69 33 5 70 25 5 71 9 1 72 33 1 73 13 1 74 10 1 75 27 1 76 6 1 77 13 1 78 57 1 79 3 1 80 14 1 81 26 1 82 10 1 83 53 1 87 34 1 88 14 1 89 59 0 93 50 0 94 35 0 95 7 3 96 66 3 97 29 3 98 55 0 99 36 0 100 12 0 101 36 3 102 49 3 103 41 3 104 41 3 105 48 3 106 40 3 107 39 3 108 43 3 109 38 3 110 37 3 111 46 3 112 36 3 113 38 3 114 50 3 115 42 3 116 42 3 117 51 3 118 45 3 119 56 9 120 37 9 121 55 9 122 12 0 123 41 0 124 8 0 125 22 5 126 49 5 127 46 5 128 31 0 129 44 0 130 28 0 131 21 5 132 49 5 133 32 5 134 22 5 135 47 5 136 56 5 137 11 5 138 42 5 139 15 5 140 5 9 141 51 9 142 59 9 143 15 5 147 45 5 148 5 5 149 7 9 150 3 9 151 52 9 152 1 9 153 5 9 154 54 9 155 23 9 156 55 9 157 1 9 158 24 10 159 56 10 160 23 10 161 29 9 162 59 9 163 58 9 164 24 9 165 3 9 166 57 9 167 29 9 168 53 9 169 7 9 170 30 9 171 5 9 172 59 9 173 52 3 183 62 3 184 7 3 185 30 12 186 63 12 187 54 12 188 24 3 189 61 3 190 52 3 191 23 0 192 65 0 193 24 0 194 54 1 195 60 1 196 1 1 197 8 0 198 41 0 199 40 0 200 3 1 201 53 1 202 14 1 203 1 4 213 60 4 214 64 4 215 2 1 219 20 1 220 25 1 221 9 1 222 10 1 223 6 1 224 29 5 225 66 5 226 67 5 227 35 0 231 50 0 232 43 0 233 13 1 234 14 1 235 10 1 236 4 5 237 39 5 238 38 5 239 56 5 252 57 5 253 33 5 254 58 0 255 59 0 256 35 0 257 26 15 258 31 15 259 28 15 260 21 16 261 32 16 262 25 16 263 34 0 264 35 0 265 31 0 266 32 5 267 22 5 268 33 5 269 9 1 270 25 1 271 33 1 272 10 1 273 26 1 274 27 1 275 13 1 276 33 1 277 57 1 278 14 1 279 34 1 280 26 1 281 53 1 285 58 1 286 34 1 287 59 0 291 51 0 292 50 0 293 7 3 294 62 3 295 66 3 296 55 0 297 37 0 298 36 0 299 36 3 300 46 3 301 49 3 302 41 3 303 49 3 304 48 3 305 39 3 306 44 3 307 43 3 308 37 3 309 47 3 310 46 3 311 38 3 312 43 3 313 50 3 314 42 3 315 50 3 316 51 3 317 56 9 318 47 9 319 37 9 320 12 0 321 36 0 322 41 0 323 22 5 324 32 5 325 49 5 326 31 0 327 43 0 328 44 0 329 21 5 330 48 5 331 49 5 332 22 5 333 46 5 334 47 5 335 11 5 336 38 5 337 42 5 338 5 9 339 45 9 340 51 9 341 15 5 345 42 5 346 45 5 347 7 9 348 53 9 349 3 9 350 1 9 351 55 9 352 5 9 353 23 9 354 56 9 355 55 9 356 24 9 357 57 9 358 56 9 359 29 18 360 30 18 361 59 18 362 24 9 363 52 9 364 3 9 365 29 9 366 58 9 367 53 9 368 30 9 369 54 9 370 5 9 371 52 3 381 61 3 382 62 3 383 30 19 384 67 19 385 63 19 386 24 3 387 65 3 388 61 3 389 23 0 390 64 0 391 65 0 392 54 1 393 63 1 394 60 1 395</p>
        </triangles>
        <triangles material="Rooftiles-material" count="6">
          <input semantic="VERTEX" source="#Building_04-mesh-vertices" offset="0"/>
          <input semantic="NORMAL" source="#Building_04-mesh-normals" offset="1"/>
          <input semantic="TEXCOORD" source="#Building_04-mesh-map-0" offset="2" set="0"/>
          <p>61 9 174 63 9 175 62 9 176 61 11 177 64 11 178 60 11 179 63 9 180 66 9 181 62 9 182 61 9 372 60 9 373 63 9 374 61 9 375 65 9 376 64 9 377 63 9 378 67 9 379 66 9 380</p>
        </triangles>
      </mesh>
    </geometry>
  </library_geometries>
  <library_visual_scenes>
    <visual_scene id="Scene" name="Scene">
      <node id="Building_04" name="Building_04" type="NODE">
        <matrix sid="transform">2.648453 0 0 0 0 2.648453 0 0 0 0 2.648453 2.54387 0 0 0 1</matrix>
        <instance_geometry url="#Building_04-mesh" name="Building_04">
          <bind_material>
            <technique_common>
              <instance_material symbol="Store_11-material" target="#Store_11-material">
                <bind_vertex_input semantic="UVMap" input_semantic="TEXCOORD" input_set="0"/>
              </instance_material>
              <instance_material symbol="BrickSmallBrown_02-material" target="#BrickSmallBrown_02-material">
                <bind_vertex_input semantic="UVMap" input_semantic="TEXCOORD" input_set="0"/>
              </instance_material>
              <instance_material symbol="Rooftiles-material" target="#Rooftiles-material">
                <bind_vertex_input semantic="UVMap" input_semantic="TEXCOORD" input_set="0"/>
              </instance_material>
            </technique_common>
          </bind_material>
        </instance_geometry>
      </node>
    </visual_scene>
  </library_visual_scenes>
  <scene>
    <instance_visual_scene url="#Scene"/>
  </scene>
</COLLADA>