<?xml version="1.0" encoding="utf-8"?>
<COLLADA xmlns="http://www.collada.org/2005/11/COLLADASchema" version="1.4.1" xmlns:xsi="http://www.w3.org/2001/XMLSchema-instance">
  <asset>
    <contributor>
      <author>Blender User</author>
      <authoring_tool>Blender 4.0.1 commit date:2023-11-16, commit time:16:40, hash:d0dd92834a08</authoring_tool>
    </contributor>
    <created>2023-11-28T13:34:04</created>
    <modified>2023-11-28T13:34:04</modified>
    <unit name="meter" meter="1"/>
    <up_axis>Z_UP</up_axis>
  </asset>
  <library_effects>
    <effect id="Hamburger_04-effect">
      <profile_COMMON>
        <newparam sid="Hamburger_04-surface">
          <surface type="2D">
            <init_from>Hamburger_04</init_from>
          </surface>
        </newparam>
        <newparam sid="Hamburger_04-sampler">
          <sampler2D>
            <source>Hamburger_04-surface</source>
          </sampler2D>
        </newparam>
        <technique sid="common">
          <lambert>
            <emission>
              <color sid="emission">0 0 0 1</color>
            </emission>
            <diffuse>
              <texture texture="Hamburger_04-sampler" texcoord="UVMap"/>
            </diffuse>
            <index_of_refraction>
              <float sid="ior">1.45</float>
            </index_of_refraction>
          </lambert>
        </technique>
      </profile_COMMON>
    </effect>
  </library_effects>
  <library_images>
    <image id="Hamburger_04" name="Hamburger_04">
      <init_from>Hamburger_04.png</init_from>
    </image>
  </library_images>
  <library_materials>
    <material id="Hamburger_04-material" name="Hamburger_04">
      <instance_effect url="#Hamburger_04-effect"/>
    </material>
  </library_materials>
  <library_geometries>
    <geometry id="Hamburger_04-mesh" name="Hamburger_04">
      <mesh>
        <source id="Hamburger_04-mesh-positions">
          <float_array id="Hamburger_04-mesh-positions-array" count="147">0.1694689 5.113925 -4.706366 0.1694688 6.205208 -3.746093 4.167696 3.188481 -4.706366 5.020895 3.868884 -3.746093 5.155177 -1.137955 -4.706366 6.219099 -1.380789 -3.746093 2.388318 -4.607488 -4.706366 2.861808 -5.5907 -3.746093 -2.04938 -4.607488 -4.706366 -2.52287 -5.5907 -3.746093 -4.816239 -1.137955 -4.706366 -5.880162 -1.380789 -3.746093 -3.828758 3.188481 -4.706366 -4.681957 3.868884 -3.746093 0.04807686 6.280397 2.045348 1.19209e-7 2.122868 4.62163 0.01408183 5.129569 3.567827 1.659725 1.323586 4.62163 4.958211 3.91571 2.045893 4.024518 3.198218 3.567991 2.069643 -0.4723828 4.62163 6.170894 -1.397496 2.046029 5.015007 -1.14143 3.568032 0.9210779 -1.912638 4.62163 2.773013 -5.6584 2.045649 2.239711 -4.62157 3.567918 -0.921078 -1.912638 4.62163 -2.6769 -5.658484 2.045052 -2.211559 -4.621594 3.567738 -2.069643 -0.4723829 4.62163 -6.074945 -1.397543 2.044686 -4.986905 -1.141444 3.567628 -1.659725 1.323586 4.62163 -4.862189 3.915816 2.044816 -3.996393 3.19825 3.567667 0.1087725 6.150731 0.6070554 4.917569 3.834891 0.6073235 -4.700088 3.834943 0.6067929 6.105233 -1.368655 0.6073907 2.777462 -5.541595 0.6072037 -2.559937 -5.541637 0.6069092 -5.887789 -1.368678 0.6067292 5.089096 3.947464 -1.570446 6.31163 -1.408832 -1.570412 2.886161 -5.704259 -1.570506 -2.6079 -5.70428 -1.570656 -6.03341 -1.408844 -1.570747 0.1391356 6.331262 -1.570582 -4.810856 3.94749 -1.570715</float_array>
          <technique_common>
            <accessor source="#Hamburger_04-mesh-positions-array" count="49" stride="3">
              <param name="X" type="float"/>
              <param name="Y" type="float"/>
              <param name="Z" type="float"/>
            </accessor>
          </technique_common>
        </source>
        <source id="Hamburger_04-mesh-normals">
          <float_array id="Hamburger_04-mesh-normals-array" count="147">0.783223 0.6214591 0.0187177 0.9365724 -0.2149028 0.2768552 0.9748371 -0.221608 0.02413803 0.4146789 -0.8711799 0.2628439 -0.4304906 -0.902455 -0.01590538 0.4371013 -0.8993685 0.008894205 -0.4249222 -0.8726683 0.2406057 -0.9742345 -0.2233172 -0.03156948 -0.7623222 0.6042733 0.231773 -0.7799498 0.6253035 -0.02596235 -0.00476396 0.9677968 0.251688 0.004049181 0.9999858 -0.003454029 0.09208476 -0.1921232 0.977041 0.2071957 -0.04739201 0.977151 -4.35975e-4 0.2134556 0.9769527 0.7188631 0.5714145 -0.3958804 0 0.4344444 -0.9006987 0.00233829 0.9161437 -0.4008433 0.8959062 -0.2039527 -0.3946588 0.3396626 0.2708718 -0.9006986 0.1884985 -0.3914211 -0.9006987 0.4235522 -0.09667289 -0.9006986 -0.3950722 -0.8252383 -0.4036087 0.399917 -0.8255872 -0.3980859 -0.8903809 -0.2037589 -0.4070681 -0.1884985 -0.3914211 -0.9006986 -0.7136408 0.5709791 -0.4058322 -0.4235523 -0.09667295 -0.9006985 -0.3396625 0.2708719 -0.9006985 0.49333 0.3959251 0.774512 0.7504667 0.602413 0.2718424 -0.003176212 0.6378093 0.7701879 0.1661458 0.132847 0.9771117 0.6152763 -0.1411492 0.7755721 0.2729073 -0.5732545 0.7725937 -0.2805929 -0.5760226 0.7677666 -0.09314346 -0.1925104 0.9768644 -0.949726 -0.2157321 0.226893 -0.628358 -0.1426851 0.7647269 -0.209009 -0.04760676 0.9767543 -0.5040105 0.3993766 0.7658144 -0.1676234 0.1333295 0.9767936 -3.45797e-5 0.9999258 0.01218235 0.7816014 0.6233603 0.02282953 0.43377 -0.9008421 0.01809144 0.9746083 -0.2224652 0.02545857 -0.7818312 0.6234885 0.00153315 -0.9749271 -0.2225222 -0.001097261 -0.4338884 -0.9009448 0.006272792</float_array>
          <technique_common>
            <accessor source="#Hamburger_04-mesh-normals-array" count="49" stride="3">
              <param name="X" type="float"/>
              <param name="Y" type="float"/>
              <param name="Z" type="float"/>
            </accessor>
          </technique_common>
        </source>
        <source id="Hamburger_04-mesh-map-0">
          <float_array id="Hamburger_04-mesh-map-0-array" count="564">0.6185017 0.8240244 0.8231244 0.767761 0.8219966 0.8240217 0.9563235 0.5624108 0.7477681 0.506146 0.9564975 0.5061576 0.3820661 0.6301859 0.2143048 0.6864343 0.3774966 0.6864272 0.2143048 0.6864343 0.007644295 0.6301952 0.01080697 0.6864318 0.489191 0.2065551 0.6748773 0.2628127 0.6772509 0.2065654 0.8231244 0.767761 0.9851875 0.824029 0.8219966 0.8240217 0.5681236 0.4531408 0.6244476 0.4980578 0.5681234 0.6150157 0.4683404 0.2434011 0.3503654 0.3997596 0.3769739 0.4331257 0.3769739 0.05367648 0.4256637 0.2434011 0.4683404 0.2434011 0.3769739 0.05367648 0.1811716 0.04842513 0.3503654 0.08704257 0.007038295 0.1381118 0.1811716 0.04842513 0.1716751 0.006818413 0.007038295 0.3486903 0.04548871 0.1566286 0.007038295 0.1381118 0.1716752 0.4799838 0.04548871 0.3301735 0.007038295 0.3486903 0.1716752 0.4799838 0.3503654 0.3997596 0.1811716 0.438377 0.4256637 0.2434011 0.1811716 0.04842513 0.04548871 0.3301735 0.6748773 0.2628127 0.8303838 0.3223586 0.8668978 0.262834 0.5948248 0.7295281 0.6244475 0.5700989 0.7309219 0.6209934 0.615341 0.7677662 0.8131104 0.70824 0.8231244 0.767761 0.7309219 0.6209934 0.6244476 0.4980578 0.7309219 0.4469186 0.9897554 0.7677758 0.8131104 0.70824 0.9492081 0.7082445 0.5948252 0.338384 0.6244476 0.4980578 0.5681236 0.4531408 0.743194 0.5623874 0.9354677 0.6219421 0.761392 0.6219351 0.4251137 0.3771182 0.5681236 0.4531408 0.4978887 0.4691714 0.2154336 0.6302002 0.3415165 0.5706382 0.2054184 0.5706426 0.349584 0.5339554 0.4978887 0.4691714 0.4666312 0.5340781 0.2154336 0.6302002 0.03570616 0.5706411 0.007644295 0.6301952 0.349584 0.5339554 0.4978885 0.598985 0.425113 0.6907932 0.4828517 0.2627919 0.6735479 0.3223522 0.6748773 0.2628127 0.425113 0.6907932 0.5681234 0.6150157 0.5948248 0.7295281 0.6772509 0.2065654 0.8668978 0.262834 0.8653084 0.2065759 0.6784384 0.1214047 0.8653084 0.2065759 0.8720162 0.12141 0.8219966 0.8240217 0.9915489 0.9091926 0.8235678 0.909189 0.4848592 0.1213994 0.6772509 0.2065654 0.6784384 0.1214047 0.2158756 0.7715888 0.01080697 0.6864318 0.006405651 0.7715875 0.3774966 0.6864272 0.2158756 0.7715888 0.3838571 0.7715852 0.9564975 0.5061576 0.7458924 0.4209882 0.9607484 0.4209939 0.6140993 0.9091903 0.8219966 0.8240217 0.8235678 0.909189 0.6171723 0.9942733 0.8235678 0.909189 0.8224711 0.9942733 0.9607484 0.4209939 0.7492176 0.3359134 0.959796 0.3359134 0.3838571 0.7715852 0.2147784 0.85666 0.3794153 0.85666 0.2147784 0.85666 0.006405651 0.7715875 0.009479701 0.85666 0.4899001 0.03632694 0.6784384 0.1214047 0.6796246 0.03632694 0.8235678 0.909189 0.9871079 0.9942732 0.8224711 0.9942733 0.6796246 0.03632694 0.8720162 0.12141 0.8693491 0.03632694 0.6185017 0.8240244 0.615341 0.7677662 0.8231244 0.767761 0.9563235 0.5624108 0.743194 0.5623874 0.7477681 0.506146 0.3820661 0.6301859 0.2154336 0.6302002 0.2143048 0.6864343 0.2143048 0.6864343 0.2154336 0.6302002 0.007644295 0.6301952 0.489191 0.2065551 0.4828517 0.2627919 0.6748773 0.2628127 0.8231244 0.767761 0.9897554 0.7677758 0.9851875 0.824029 0.6244476 0.4980578 0.6244475 0.5700989 0.5681234 0.6150157 0.5681234 0.6150157 0.4978885 0.598985 0.4666312 0.5340781 0.4666312 0.5340781 0.4978887 0.4691714 0.5681234 0.6150157 0.4978887 0.4691714 0.5681236 0.4531408 0.5681234 0.6150157 0.4683404 0.2434011 0.4256637 0.2434011 0.3503654 0.3997596 0.3769739 0.05367648 0.3503654 0.08704257 0.4256637 0.2434011 0.3769739 0.05367648 0.1716751 0.006818413 0.1811716 0.04842513 0.007038295 0.1381118 0.04548871 0.1566286 0.1811716 0.04842513 0.007038295 0.3486903 0.04548871 0.3301735 0.04548871 0.1566286 0.1716752 0.4799838 0.1811716 0.438377 0.04548871 0.3301735 0.1716752 0.4799838 0.3769739 0.4331257 0.3503654 0.3997596 0.1811716 0.438377 0.3503654 0.3997596 0.04548871 0.3301735 0.3503654 0.3997596 0.4256637 0.2434011 0.04548871 0.3301735 0.4256637 0.2434011 0.3503654 0.08704257 0.1811716 0.04842513 0.1811716 0.04842513 0.04548871 0.1566286 0.04548871 0.3301735 0.6748773 0.2628127 0.6735479 0.3223522 0.8303838 0.3223586 0.5948248 0.7295281 0.5681234 0.6150157 0.6244475 0.5700989 0.615341 0.7677662 0.6434 0.7082417 0.8131104 0.70824 0.7309219 0.6209934 0.6244475 0.5700989 0.6244476 0.4980578 0.9897554 0.7677758 0.8231244 0.767761 0.8131104 0.70824 0.5948252 0.338384 0.7309219 0.4469186 0.6244476 0.4980578 0.743194 0.5623874 0.9563235 0.5624108 0.9354677 0.6219421 0.4251137 0.3771182 0.5948252 0.338384 0.5681236 0.4531408 0.2154336 0.6302002 0.3820661 0.6301859 0.3415165 0.5706382 0.349584 0.5339554 0.4251137 0.3771182 0.4978887 0.4691714 0.2154336 0.6302002 0.2054184 0.5706426 0.03570616 0.5706411 0.349584 0.5339554 0.4666312 0.5340781 0.4978885 0.598985 0.4828517 0.2627919 0.5167104 0.322346 0.6735479 0.3223522 0.425113 0.6907932 0.4978885 0.598985 0.5681234 0.6150157 0.6772509 0.2065654 0.6748773 0.2628127 0.8668978 0.262834 0.6784384 0.1214047 0.6772509 0.2065654 0.8653084 0.2065759 0.8219966 0.8240217 0.9851875 0.824029 0.9915489 0.9091926 0.4848592 0.1213994 0.489191 0.2065551 0.6772509 0.2065654 0.2158756 0.7715888 0.2143048 0.6864343 0.01080697 0.6864318 0.3774966 0.6864272 0.2143048 0.6864343 0.2158756 0.7715888 0.9564975 0.5061576 0.7477681 0.506146 0.7458924 0.4209882 0.6140993 0.9091903 0.6185017 0.8240244 0.8219966 0.8240217 0.6171723 0.9942733 0.6140993 0.9091903 0.8235678 0.909189 0.9607484 0.4209939 0.7458924 0.4209882 0.7492176 0.3359134 0.3838571 0.7715852 0.2158756 0.7715888 0.2147784 0.85666 0.2147784 0.85666 0.2158756 0.7715888 0.006405651 0.7715875 0.4899001 0.03632694 0.4848592 0.1213994 0.6784384 0.1214047 0.8235678 0.909189 0.9915489 0.9091926 0.9871079 0.9942732 0.6796246 0.03632694 0.6784384 0.1214047 0.8720162 0.12141</float_array>
          <technique_common>
            <accessor source="#Hamburger_04-mesh-map-0-array" count="282" stride="2">
              <param name="S" type="float"/>
              <param name="T" type="float"/>
            </accessor>
          </technique_common>
        </source>
        <vertices id="Hamburger_04-mesh-vertices">
          <input semantic="POSITION" source="#Hamburger_04-mesh-positions"/>
        </vertices>
        <triangles material="Hamburger_04-material" count="94">
          <input semantic="VERTEX" source="#Hamburger_04-mesh-vertices" offset="0"/>
          <input semantic="NORMAL" source="#Hamburger_04-mesh-normals" offset="1"/>
          <input semantic="TEXCOORD" source="#Hamburger_04-mesh-map-0" offset="2" set="0"/>
          <p>36 0 0 21 1 1 38 2 2 24 3 3 40 4 4 39 5 5 27 6 6 41 7 7 40 4 8 41 7 9 33 8 10 37 9 11 37 9 12 14 10 13 35 11 14 21 1 15 39 5 16 38 2 17 23 12 18 20 13 19 15 14 20 3 15 21 0 16 22 1 17 23 5 18 24 2 19 25 3 15 26 5 18 27 6 20 28 4 21 29 9 22 30 6 20 31 7 23 32 11 24 33 8 25 34 9 22 35 13 26 36 10 27 37 11 24 38 13 26 39 0 16 40 12 28 41 2 19 42 6 20 43 10 27 44 14 10 45 19 29 46 18 30 47 16 31 48 17 32 49 19 29 50 18 30 51 22 33 52 21 1 53 19 29 54 20 13 55 22 33 56 24 3 57 22 33 58 25 34 59 25 34 60 20 13 61 23 12 62 27 6 63 25 34 64 28 35 65 28 35 66 23 12 67 26 36 68 30 37 69 28 35 70 31 38 71 31 38 72 26 36 73 29 39 74 30 37 75 34 40 76 33 8 77 31 38 78 32 41 79 34 40 80 33 8 81 16 31 82 14 10 83 34 40 84 15 14 85 16 31 86 35 11 87 18 30 88 36 0 89 47 42 90 36 0 91 42 43 92 38 2 93 44 44 94 43 45 95 48 46 96 35 11 97 47 42 98 46 47 99 37 9 100 48 46 101 40 4 102 46 47 103 45 48 104 39 5 105 45 48 106 44 44 107 42 43 108 38 2 109 43 45 110 3 15 111 43 45 112 5 18 113 44 44 114 9 22 115 7 23 116 45 48 117 11 24 118 9 22 119 11 24 120 48 46 121 13 26 122 13 26 123 47 42 124 1 17 125 43 45 126 7 23 127 5 18 128 1 17 129 42 43 130 3 15 131 36 0 132 18 30 133 21 1 134 24 3 135 27 6 136 40 4 137 27 6 138 30 37 139 41 7 140 41 7 141 30 37 142 33 8 143 37 9 144 33 8 145 14 10 146 21 1 147 24 3 148 39 5 149 20 13 150 17 32 151 15 14 152 15 14 153 32 41 154 29 39 155 29 39 156 26 36 157 15 14 158 26 36 159 23 12 160 15 14 161 3 15 162 2 19 163 0 16 164 5 18 165 4 21 166 2 19 167 5 18 168 7 23 169 6 20 170 9 22 171 8 25 172 6 20 173 11 24 174 10 27 175 8 25 176 13 26 177 12 28 178 10 27 179 13 26 180 1 17 181 0 16 182 12 28 183 0 16 184 10 27 185 0 16 186 2 19 187 10 27 188 2 19 189 4 21 190 6 20 191 6 20 192 8 25 193 10 27 194 14 10 195 16 31 196 19 29 197 16 31 198 15 14 199 17 32 200 18 30 201 19 29 202 22 33 203 19 29 204 17 32 205 20 13 206 24 3 207 21 1 208 22 33 209 25 34 210 22 33 211 20 13 212 27 6 213 24 3 214 25 34 215 28 35 216 25 34 217 23 12 218 30 37 219 27 6 220 28 35 221 31 38 222 28 35 223 26 36 224 30 37 225 31 38 226 34 40 227 31 38 228 29 39 229 32 41 230 33 8 231 34 40 232 16 31 233 34 40 234 32 41 235 15 14 236 35 11 237 14 10 238 18 30 239 47 42 240 35 11 241 36 0 242 38 2 243 39 5 244 44 44 245 48 46 246 37 9 247 35 11 248 46 47 249 41 7 250 37 9 251 40 4 252 41 7 253 46 47 254 39 5 255 40 4 256 45 48 257 42 43 258 36 0 259 38 2 260 3 15 261 42 43 262 43 45 263 44 44 264 45 48 265 9 22 266 45 48 267 46 47 268 11 24 269 11 24 270 46 47 271 48 46 272 13 26 273 48 46 274 47 42 275 43 45 276 44 44 277 7 23 278 1 17 279 47 42 280 42 43 281</p>
        </triangles>
      </mesh>
    </geometry>
  </library_geometries>
  <library_visual_scenes>
    <visual_scene id="Scene" name="Scene">
      <node id="Hamburger_04" name="Hamburger_04" type="NODE">
        <matrix sid="transform">-0.01544951 5.03409e-9 0 0 -5.03409e-9 -0.01544951 0 0 0 0 0.01544951 0 0 0 0 1</matrix>
        <instance_geometry url="#Hamburger_04-mesh" name="Hamburger_04">
          <bind_material>
            <technique_common>
              <instance_material symbol="Hamburger_04-material" target="#Hamburger_04-material">
                <bind_vertex_input semantic="UVMap" input_semantic="TEXCOORD" input_set="0"/>
              </instance_material>
            </technique_common>
          </bind_material>
        </instance_geometry>
      </node>
    </visual_scene>
  </library_visual_scenes>
  <scene>
    <instance_visual_scene url="#Scene"/>
  </scene>
</COLLADA>