<?xml version="1.0" encoding="utf-8"?>
<COLLADA xmlns="http://www.collada.org/2005/11/COLLADASchema" version="1.4.1" xmlns:xsi="http://www.w3.org/2001/XMLSchema-instance">
  <asset>
    <contributor>
      <author>Blender User</author>
      <authoring_tool>Blender 4.0.1 commit date:2023-11-16, commit time:16:40, hash:d0dd92834a08</authoring_tool>
    </contributor>
    <created>2023-11-28T13:25:33</created>
    <modified>2023-11-28T13:25:33</modified>
    <unit name="meter" meter="1"/>
    <up_axis>Z_UP</up_axis>
  </asset>
  <library_effects>
    <effect id="semi-automatic_machine-effect">
      <profile_COMMON>
        <newparam sid="semi-automatic_machine-surface">
          <surface type="2D">
            <init_from>semi-automatic_machine</init_from>
          </surface>
        </newparam>
        <newparam sid="semi-automatic_machine-sampler">
          <sampler2D>
            <source>semi-automatic_machine-surface</source>
          </sampler2D>
        </newparam>
        <technique sid="common">
          <lambert>
            <emission>
              <color sid="emission">0 0 0 1</color>
            </emission>
            <diffuse>
              <texture texture="semi-automatic_machine-sampler" texcoord="UVMap"/>
            </diffuse>
            <index_of_refraction>
              <float sid="ior">1.45</float>
            </index_of_refraction>
          </lambert>
        </technique>
      </profile_COMMON>
    </effect>
  </library_effects>
  <library_images>
    <image id="semi-automatic_machine" name="semi-automatic_machine">
      <init_from>semi-automatic_machine.png</init_from>
    </image>
  </library_images>
  <library_materials>
    <material id="semi-automatic_machine-material" name="semi-automatic_machine">
      <instance_effect url="#semi-automatic_machine-effect"/>
    </material>
  </library_materials>
  <library_geometries>
    <geometry id="semi-automatic_machine-mesh" name="semi-automatic_machine">
      <mesh>
        <source id="semi-automatic_machine-mesh-positions">
          <float_array id="semi-automatic_machine-mesh-positions-array" count="942">-0.01348114 -0.8676107 -0.4484521 -0.01532721 -0.9078043 -0.2835171 -0.01447421 0.8623489 -0.4484521 -0.01632028 0.9025425 -0.2835171 0.4358366 -0.8589298 -0.2835171 0.4348435 0.853668 -0.2835171 -0.4496359 0.8156507 -0.4484521 -0.4486428 -0.8209124 -0.4484521 -0.4707686 -0.8589298 -0.2835171 -0.4717617 0.853668 -0.2835171 -0.01632028 -0.9027891 0.153222 -0.01632028 0.9025425 0.153222 -0.4717617 -0.8539145 0.1420053 -0.4717617 0.853668 0.1420053 -0.01632028 -0.9027891 0.5095181 -0.01632028 0.9025425 0.5095181 0.3439998 -0.8262661 -0.4484521 0.4358366 -0.8589298 -0.3744726 0.4348435 0.853668 -0.3744726 0.3430067 0.8210043 -0.4484521 0.3615797 -0.8587858 0.153222 0.4034143 -0.8539145 0.1950565 0.4034143 0.853668 0.1950565 0.3615797 0.8585393 0.153222 0.4034143 -0.8539145 0.3145015 0.2083976 -0.8766226 0.5095181 0.2083976 0.876376 0.5095181 0.4034143 0.853668 0.3145015 -0.3655256 -0.865315 0.5095181 -0.4717617 -0.8539145 0.403282 -0.4717617 0.853668 0.403282 -0.3655256 0.8650684 0.5095181 -0.244041 0.8781053 0.1476137 -0.244041 -0.8783518 0.1476137 -0.2266206 -0.8905704 -0.06795167 -0.2266206 0.8903239 -0.06795167 -0.01447421 0.7835204 -0.4484521 -0.01348114 -0.788786 -0.4484521 -0.01532721 -0.8253061 -0.2835171 -0.01632028 0.8200405 -0.2835171 0.4348435 0.7756328 -0.2835171 0.4358366 -0.7808986 -0.2835171 -0.4496359 0.7410901 -0.4484521 -0.4486428 -0.7463557 -0.4484521 -0.4717617 -0.7758831 -0.2835171 -0.4717617 0.7756329 -0.2835171 -0.01632028 -0.8202909 0.153222 -0.01632028 0.8200405 0.153222 -0.4717617 -0.7758831 0.1420053 -0.4717617 0.7756329 0.1420053 -0.01632028 -0.8202909 0.5095181 -0.01632028 0.8200405 0.5095181 0.3439998 -0.7512202 -0.4484521 0.3430067 0.7459545 -0.4484521 0.4348435 0.7756328 -0.3744726 0.4358366 -0.7808986 -0.3744726 0.3615797 -0.7803093 0.153222 0.3615797 0.780059 0.153222 0.4034143 0.7756328 0.1950565 0.4034143 -0.7758833 0.1950565 0.4034143 -0.7758831 0.3145015 0.4034143 0.7756329 0.3145015 0.2083976 0.7962654 0.5095181 0.2083976 -0.7965159 0.5095181 -0.3655256 -0.7862417 0.5095181 -0.3655256 0.7859914 0.5095181 -0.4717617 0.7756328 0.403282 -0.4717617 -0.7758833 0.403282 0.1833686 -0.1882104 0.04164308 0.1833686 -0.1882104 0.1733527 0.3006004 -0.2558941 0.04164308 0.3006004 -0.2558941 0.1733527 0.3006004 -0.3912616 0.04164308 0.3006004 -0.3912616 0.1733527 0.1833686 -0.4589453 0.04164308 0.1833686 -0.4589453 0.1733527 0.06613701 -0.3912616 0.04164308 0.06613701 -0.3912616 0.1733527 0.06613701 -0.2558941 0.04164308 0.06613701 -0.2558941 0.1733527 0.1833686 -0.230264 0.04164308 0.2641806 -0.2769208 0.04164308 0.2641806 -0.3702343 0.04164308 0.1833686 -0.416891 0.04164308 0.1025568 -0.3702343 0.04164308 0.1025568 -0.2769208 0.04164308 0.1833686 -0.230264 0.001391172 0.2641806 -0.2769208 0.001391172 0.2641806 -0.3702343 0.001391172 0.1833686 -0.416891 0.001391172 0.1025568 -0.3702343 0.001391172 0.1025568 -0.2769208 0.001391172 0.1833686 -0.3235775 -0.03367918 0.1833686 -0.303073 -0.09676653 0.1833686 -0.303073 -0.01562857 0.2028719 -0.3172429 -0.09676653 0.2028719 -0.3172429 -0.01562857 0.1954224 -0.3401705 -0.09676653 0.1954224 -0.3401705 -0.01562857 0.171315 -0.3401705 -0.09676653 0.171315 -0.3401705 -0.01562857 0.1638653 -0.3172429 -0.09676653 0.1638653 -0.3172429 -0.01562857 0.2148474 -0.3642895 -0.09963619 0.1994883 -0.3838762 -0.07762861 0.231553 -0.3642895 -0.08797729 0.2161939 -0.3838762 -0.0659697 0.208165 -0.3235799 -0.09006118 0.180377 -0.3235799 -0.0502448 0.2248706 -0.3235799 -0.07840228 0.1970826 -0.3235799 -0.03858596 0.2228457 -0.3912729 -0.1110967 0.2395513 -0.3912729 -0.09943777 0.2148474 -0.2828704 -0.09963619 0.1994883 -0.2632837 -0.07762861 0.231553 -0.2828704 -0.08797729 0.2161939 -0.2632837 -0.0659697 0.2228457 -0.255887 -0.1110967 0.2395513 -0.255887 -0.09943777 0.256254 -0.3028993 0.02180433 0.2976154 -0.3028993 0.02180433 0.256254 -0.3171892 0.002135813 0.2976154 -0.3171892 0.002135872 0.256254 -0.340311 0.009648561 0.2976154 -0.340311 0.009648561 0.256254 -0.340311 0.03396016 0.2976154 -0.340311 0.03396016 0.256254 -0.3171892 0.04147285 0.2976154 -0.3171892 0.04147285 0.321794 -0.3155218 -0.005291819 0.321794 -0.2958353 0.02180439 0.321794 -0.3473754 0.00505799 0.321794 -0.3473754 0.03855085 0.321794 -0.3155218 0.04890072 0.5151074 -0.3145786 -0.009492754 0.5151074 -0.2918398 0.02180445 0.5151074 -0.3513707 0.002461671 0.5151074 -0.3513707 0.04114717 0.5151074 -0.3145786 0.05310165 0.1833686 0.1882104 0.04164308 0.1833686 0.1882104 0.1733527 0.3006004 0.2558942 0.04164308 0.3006004 0.2558942 0.1733527 0.3006004 0.3912617 0.04164308 0.3006004 0.3912617 0.1733527 0.1833686 0.4589454 0.04164308 0.1833686 0.4589454 0.1733527 0.06613701 0.3912617 0.04164308 0.06613701 0.3912617 0.1733527 0.06613701 0.2558942 0.04164308 0.06613701 0.2558942 0.1733527 0.1833686 0.230264 0.04164308 0.2641806 0.2769209 0.04164308 0.2641806 0.3702344 0.04164308 0.1833686 0.4168912 0.04164308 0.1025568 0.3702344 0.04164308 0.1025568 0.2769209 0.04164308 0.1833686 0.230264 0.001391172 0.2641806 0.2769209 0.001391172 0.2641806 0.3702344 0.001391172 0.1833686 0.4168912 0.001391172 0.1025568 0.3702344 0.001391172 0.1025568 0.2769209 0.001391172 0.1833686 0.3235776 -0.03367918 0.1833686 0.303073 -0.09676653 0.1833686 0.303073 -0.01562857 0.2028719 0.317243 -0.09676653 0.2028719 0.317243 -0.01562857 0.1954224 0.3401705 -0.09676653 0.1954224 0.3401705 -0.01562857 0.171315 0.3401705 -0.09676653 0.171315 0.3401705 -0.01562857 0.1638653 0.317243 -0.09676653 0.1638653 0.317243 -0.01562857 0.2148474 0.3642895 -0.09963619 0.1994883 0.3838762 -0.07762861 0.231553 0.3642895 -0.08797729 0.2161939 0.3838762 -0.0659697 0.208165 0.32358 -0.09006118 0.180377 0.32358 -0.0502448 0.2248706 0.32358 -0.07840228 0.1970826 0.32358 -0.03858596 0.2228457 0.3912729 -0.1110967 0.2395513 0.3912729 -0.09943777 0.2148474 0.2828705 -0.09963619 0.1994883 0.2632838 -0.07762861 0.231553 0.2828705 -0.08797729 0.2161939 0.2632838 -0.0659697 0.2228457 0.2558871 -0.1110967 0.2395513 0.2558871 -0.09943777 0.256254 0.3028993 0.02180433 0.2976154 0.3028993 0.02180433 0.256254 0.3171893 0.002135813 0.2976154 0.3171893 0.002135872 0.256254 0.3403111 0.009648561 0.2976154 0.3403111 0.009648561 0.256254 0.3403111 0.03396016 0.2976154 0.3403111 0.03396016 0.256254 0.3171893 0.04147285 0.2976154 0.3171893 0.04147285 0.321794 0.3155219 -0.005291819 0.321794 0.2958353 0.02180439 0.321794 0.3473755 0.00505799 0.321794 0.3473755 0.03855085 0.321794 0.3155219 0.04890072 0.5151074 0.3145787 -0.009492754 0.5151074 0.2918399 0.02180445 0.5151074 0.3513708 0.002461671 0.5151074 0.3513708 0.04114717 0.5151074 0.3145787 0.05310165 0.2040777 -0.7089116 0.02598774 0.204016 -0.708944 0.1831468 0.1836426 -0.7034561 0.02613568 0.183648 -0.7034415 0.1831468 0.2095383 -0.6885826 0.0258305 0.2095185 -0.6885759 0.1831468 0.1892034 -0.6830384 0.02604538 0.1891505 -0.6830734 0.1831468 0.1971525 -0.6988472 -0.01243573 0.2127295 -0.7059462 7.30008e-5 0.1994389 -0.6795144 -0.003981828 0.2148262 -0.6867984 0.008376598 0.2298328 -0.6876605 -0.0291444 0.2334591 -0.6988588 -0.01153391 0.2240532 -0.6711114 -0.01724791 0.2275784 -0.682424 2.02291e-4 0.2940514 -0.6656666 -0.0291441 0.2976738 -0.6769273 -0.01169776 0.2882484 -0.6491904 -0.01739865 0.2919182 -0.66038 1.71848e-4 0.3112953 -0.6597381 -0.03509223 0.3267939 -0.6669939 -0.02286392 0.3134751 -0.6405686 -0.02689623 0.3291088 -0.647647 -0.01442962 0.3213665 -0.6563181 -0.05797564 0.3417046 -0.6618715 -0.05825221 0.3268231 -0.6359987 -0.05818146 0.3472785 -0.6414434 -0.05835622 0.3212531 -0.6564103 -0.2019855 0.3418512 -0.661975 -0.2019855 0.3268178 -0.6358123 -0.2019855 0.3474159 -0.641377 -0.2019855 0.2040777 0.7089117 0.02598774 0.204016 0.7089441 0.1831468 0.1836427 0.7034563 0.02613568 0.183648 0.7034416 0.1831468 0.2095384 0.6885827 0.0258305 0.2095186 0.688576 0.1831468 0.1892035 0.6830386 0.02604538 0.1891506 0.6830735 0.1831468 0.1971526 0.6988474 -0.01243573 0.2127295 0.7059462 7.30008e-5 0.1994389 0.6795144 -0.003981828 0.2148262 0.6867985 0.008376598 0.2298329 0.6876607 -0.0291444 0.2334591 0.6988589 -0.01153391 0.2240533 0.6711115 -0.01724791 0.2275785 0.6824241 2.02291e-4 0.2940514 0.6656667 -0.02914404 0.2976739 0.6769273 -0.01169776 0.2882484 0.6491906 -0.01739865 0.2919182 0.6603801 1.71848e-4 0.3112954 0.6597382 -0.03509223 0.3267939 0.666994 -0.02286392 0.3134751 0.6405687 -0.02689623 0.3291088 0.6476472 -0.01442962 0.3213666 0.6563183 -0.05797564 0.3417047 0.6618717 -0.05825221 0.3268232 0.6359989 -0.05818146 0.3472786 0.6414435 -0.05835622 0.3212532 0.6564106 -0.2019855 0.3418513 0.661975 -0.2019855 0.3268179 0.6358124 -0.2019855 0.3474159 0.641377 -0.2019855 0.290308 -0.634837 -0.5013115 0.290308 -0.634837 -0.4299432 0.3597171 -0.6852657 -0.5013115 0.3597171 -0.6852657 -0.4299432 0.3332052 -0.766861 -0.5013115 0.3332052 -0.766861 -0.4299432 0.2474108 -0.766861 -0.5013115 0.2474108 -0.766861 -0.4299432 0.2208989 -0.6852657 -0.5013115 0.2208989 -0.6852657 -0.4299432 -0.290308 -0.6348369 -0.5013115 -0.290308 -0.6348369 -0.4299432 -0.3597171 -0.6852656 -0.5013115 -0.3597171 -0.6852656 -0.4299432 -0.3332052 -0.7668609 -0.5013115 -0.3332052 -0.7668609 -0.4299432 -0.2474108 -0.7668609 -0.5013115 -0.2474108 -0.7668609 -0.4299432 -0.2208988 -0.6852656 -0.5013115 -0.2208988 -0.6852656 -0.4299432 0.290308 0.634837 -0.5013115 0.290308 0.634837 -0.4299432 0.3597171 0.6852657 -0.5013115 0.3597171 0.6852657 -0.4299432 0.3332052 0.766861 -0.5013115 0.3332052 0.766861 -0.4299432 0.2474108 0.766861 -0.5013115 0.2474108 0.766861 -0.4299432 0.2208989 0.6852657 -0.5013115 0.2208989 0.6852657 -0.4299432 -0.2903079 0.634837 -0.5013115 -0.2903079 0.634837 -0.4299432 -0.359717 0.6852657 -0.5013115 -0.359717 0.6852657 -0.4299432 -0.3332051 0.7668609 -0.5013115 -0.3332051 0.7668609 -0.4299432 -0.2474107 0.7668609 -0.5013115 -0.2474107 0.7668609 -0.4299432 -0.2208988 0.6852657 -0.5013115 -0.2208988 0.6852657 -0.4299432</float_array>
          <technique_common>
            <accessor source="#semi-automatic_machine-mesh-positions-array" count="314" stride="3">
              <param name="X" type="float"/>
              <param name="Y" type="float"/>
              <param name="Z" type="float"/>
            </accessor>
          </technique_common>
        </source>
        <source id="semi-automatic_machine-mesh-normals">
          <float_array id="semi-automatic_machine-mesh-normals-array" count="1488">-0.1047823 -0.9944313 0.01128309 -0.107249 -0.9939475 0.02379709 -0.1156892 -0.9931845 0.01416844 -0.02862501 -0.9864289 -0.161675 0.03620797 -0.9770015 -0.2101359 -0.04087018 -0.9842211 -0.1721587 -0.04087042 0.9842212 -0.1721583 -0.3351065 0.9421803 0 0.03620785 0.9770016 -0.2101354 1 3.19021e-4 0 0.9205399 0 -0.3906487 0.902059 2.70344e-4 -0.4316126 0 0 1 0 0 1 0 0 1 -0.997778 0 -0.06662684 -0.9911218 0 -0.1329576 -0.9910938 -2.30114e-5 -0.1331655 0 0 -1 2.16613e-7 0 -1 0 0 -1 -0.02666848 0.9855598 -0.1672147 -0.1036707 0.9660643 -0.2365842 -0.1175315 0.9850195 -0.1261868 -0.1036707 -0.9660644 -0.236584 0.004835546 -0.9715682 -0.2367108 -0.1066999 0.9942913 -1.23763e-7 0.004508078 0.9999899 0 -0.107249 0.9939473 0.02379709 1 0 0 1 4.99926e-5 1.87765e-4 -0.1038943 0.9945884 -2.45735e-5 -0.02504038 0.9996547 0.007980585 -0.9975823 -0.005254089 -0.06929701 -0.9999998 -7.32428e-4 -1.34313e-4 -1 0 0 -0.1066999 -0.9942913 -2.47526e-7 -0.1067 -0.9942913 0 0.1156601 -0.9932889 0 0.1156603 -0.9932889 0 0.1156603 -0.9932888 3.33099e-7 -0.9238796 0 0.3826836 0.1156603 0.9932888 1.66549e-7 0.1156606 0.9932889 0 0.1156603 0.9932889 0 0 0 1 0.3586933 0 0.9334555 0.3826836 0 0.9238796 0.3471812 0 -0.9377981 0.9020088 2.73837e-4 -0.4317178 0.3325092 1.27568e-4 -0.9431 0.3471813 0 -0.9377982 0 0 -1 0.3826834 0 -0.9238796 0.9197889 0 -0.3924135 0.9238795 0 -0.3826835 0 0 -1 0.3586931 0 -0.9334556 0.9197891 0 0.3924134 0.3826835 0 0.9238796 0.9238796 0 0.3826833 -0.3826836 0 0.9238796 -0.9201045 0 0.3916732 -0.9238796 0 0.3826835 0 0 1 -0.3605523 0 0.9327391 -0.02699017 -0.9995875 0.009815752 -0.1183602 0.9929096 0.01103031 -0.3605519 0 0.9327392 0 0 1 -0.3826833 0 0.9238796 -0.9201045 0 0.3916733 0.9238795 0 -0.3826836 0.9197889 0 0.3924137 0.9197889 0 -0.3924138 0.9238796 0 0.3826836 0 0 -1 0.3586927 0 -0.9334557 0 0 -1 0.3826833 0 -0.9238796 0 0 -1 0 0 -1 0.3326876 1.23012e-4 -0.9430371 0.3586927 0 0.9334558 0 0 1 -0.9981074 0 -0.06149601 0.9999974 2.99576e-4 0.00227034 0.9999974 0 0.002273797 0.9999975 0 0.002273797 0.9999978 2.53996e-4 0.002082526 0 0 -1 0 0 -1 -0.9904342 -0.00322479 -0.1379483 -0.9903096 -3.67469e-4 -0.138877 0 0 1 0 0 1 0 0 1 0.9205397 0 -0.3906493 1 3.18995e-4 0 0 1 0 0.8660254 0.5000001 0 0.8660254 -0.5000001 0 0 -1 0 -0.8660254 -0.5000001 0 -0.8660254 -0.5000001 0 -0.8660254 0.5000001 0 -0.8660254 0.5000001 0 2.09331e-7 1.32875e-7 -1 0 2.65749e-7 -1 0 2.65749e-7 -1 0 1 0 -0.7513039 0.4337657 -0.4973832 -0.8660255 0.5000001 0 -2.06868e-7 -1.32876e-7 -1 -2.43778e-7 1.32874e-7 -1 -2.45842e-7 -1.32877e-7 -1 2.06868e-7 -1.32876e-7 -1 2.43778e-7 1.32874e-7 -1 0 -2.65753e-7 -1 0 -2.65752e-7 -1 -2.09331e-7 1.32875e-7 -1 2.45842e-7 -1.32877e-7 -1 -0.7513039 -0.4337655 -0.4973831 0 0 -1 -0.8660254 -0.5 0 0 -0.867531 -0.4973831 0 -1 0 0.7513039 0.4337657 -0.4973831 0.7513039 -0.4337655 -0.4973831 0 0.8675311 -0.4973831 0 1 0 0.9510567 0.3090167 0 0 1 0 0.9510564 0.3090175 0 0.587785 -0.8090173 0 0.5877856 -0.8090168 0 -0.5877852 -0.8090171 0 -0.5877853 -0.8090171 0 -0.9510566 0.3090171 0 -0.9510565 0.3090173 0 -2.80829e-7 0 -1 0.8200389 0 0.5723078 0.8200391 0 0.5723075 0.8200391 0 0.5723075 0.5723078 0 -0.820039 0.5317778 0.3696248 -0.7619646 0.5723076 0 -0.8200391 -0.5723076 0 0.820039 -0.3335346 -0.8126236 0.4779095 -0.5723075 0 0.8200391 -0.8200391 -3.96458e-7 -0.5723077 -0.8200389 0 -0.5723078 -0.8200391 -5.94406e-7 -0.5723077 0.8200397 9.3329e-7 0.5723068 -0.8200393 -1.39993e-6 -0.5723073 0.5317779 0.3696248 -0.7619646 0.5081906 0.4599069 -0.7281675 -0.1020591 -0.9839708 0.1462371 -0.102059 -0.9839709 0.1462371 0.8200388 0 0.572308 0.8200389 0 0.5723078 0.5317778 -0.3696249 -0.7619646 -0.3335345 0.8126239 0.4779092 -0.8200389 3.96457e-7 -0.5723079 -0.8200389 5.94406e-7 -0.5723078 0.8200388 0 0.572308 0.8200387 -9.33289e-7 0.572308 -0.8200389 1.39993e-6 -0.572308 0.5081906 -0.4599069 -0.7281675 0.5317779 -0.3696249 -0.7619644 -0.1020591 0.9839708 0.1462371 -0.3335347 0.8126239 0.4779091 0 1 0 -0.1603468 0.3111242 -0.9367447 0 0.3090175 -0.9510564 0 -0.8090168 -0.5877856 -0.177857 -0.7937574 -0.5816495 0 -0.809017 0.5877853 -0.1449643 0.989437 2.59443e-7 -0.1545269 0.3018065 -0.9407626 -0.1778585 -0.7937576 0.5816487 0 0.3090172 0.9510565 -0.1497058 0.9887307 -3.46283e-7 -0.1545289 0.3018065 0.9407623 -0.02066344 0.9997866 -1.41796e-7 -0.1694002 -0.7986026 -0.577527 -0.1694014 -0.7986022 0.5775273 -0.1603493 0.3111247 0.9367441 1 4.36221e-7 0 1 -4.36221e-7 0 1 8.72441e-7 0 -0.02460777 -0.8090502 -0.5872244 -0.02460789 -0.8090502 0.5872243 -0.02217143 0.3082107 -0.9510598 -0.02217161 0.3082109 0.9510598 0.8660255 -0.4999999 0 0 -1 0 0.8660254 0.5000002 0 0.8660255 -0.5 0 0 1 0 0.8660253 0.5000001 0 -0.8660253 0.5000001 0 0 1 0 -0.8660254 -0.5 0 -0.8660254 0.5000002 0 0 -2.65749e-7 -1 1.79042e-7 -1.32875e-7 -1 0 -2.65749e-7 -1 -0.751304 -0.4337654 -0.4973832 0 -1 0 -0.8660255 -0.4999999 0 -2.54095e-7 1.32875e-7 -1 -2.78033e-7 -1.32874e-7 -1 -2.33499e-7 -1.32875e-7 -1 2.25657e-7 -1.32874e-7 -1 2.4311e-7 1.32875e-7 -1 0 2.65753e-7 -1 -2.81073e-7 1.32877e-7 -1 2.66954e-7 1.32877e-7 -1 -0.751304 0.4337653 -0.4973832 0 -2.05661e-7 -1 0 0.8675311 -0.4973832 -0.8660255 0.5 0 0 1 0 0.751304 -0.4337654 -0.4973831 0.8660255 0.4999999 0 0.7513039 0.4337654 -0.4973832 0 -0.8675311 -0.497383 0.9510568 -0.3090164 0 0 -1 0 0 -1 0 0.5877851 0.8090172 0 0.9510564 -0.3090173 0 -0.5877854 0.809017 0 0.5877858 0.8090167 0 -0.9510566 -0.3090167 0 -0.5877853 0.809017 0 -0.9510565 -0.3090169 0 0.820039 0 0.5723078 0.8200389 0 0.5723078 0.8200391 0 0.5723077 0.5317782 -0.3696246 -0.7619644 0.5723077 1.40631e-7 -0.8200391 0.5723075 1.7764e-7 -0.8200392 -0.3335348 0.8126235 0.4779096 -0.572308 -5.96422e-7 0.8200388 -0.572308 -6.23532e-7 0.8200389 -0.820039 0 -0.5723077 -0.8200392 3.96457e-7 -0.5723075 -0.8200391 5.94405e-7 -0.5723075 0.8200389 0 0.5723079 0.820039 -9.33289e-7 0.5723077 -0.8200396 1.39993e-6 -0.5723069 0.5081907 -0.4599065 -0.7281678 0.5317779 -0.3696244 -0.7619646 -0.1020596 0.9839707 0.1462379 -0.3335347 0.8126236 0.4779094 0.820039 0 0.5723077 0.820039 0 0.5723077 0.5317783 0.3696247 -0.7619643 -0.3335347 -0.8126236 0.4779098 -0.3335347 -0.8126234 0.4779099 -0.8200391 -3.96457e-7 -0.5723076 -0.8200391 -5.94405e-7 -0.5723075 0.820039 9.33289e-7 0.5723077 -0.8200392 -1.39993e-6 -0.5723075 0.5317781 0.3696247 -0.7619643 0.5081907 0.4599065 -0.7281678 -0.1020596 -0.9839707 0.1462379 -0.1020596 -0.9839707 0.1462382 0 -1 4.22129e-7 -0.1603473 -0.311123 -0.9367451 -0.1497069 -0.9887305 -6.36714e-7 0 0.809017 -0.5877853 0 -0.3090171 -0.9510565 0 0.8090172 0.587785 -0.1778565 0.7937578 -0.5816491 -0.1449652 -0.9894368 1.97671e-7 0 -0.3090164 0.9510567 -0.1778579 0.7937581 0.5816482 -0.1603498 -0.3111237 0.9367444 -0.02066355 -0.9997866 -3.07224e-7 -0.154529 -0.3018059 0.9407625 -0.1693999 0.7986025 -0.5775272 -0.154527 -0.3018059 -0.9407628 1 0 0 1 4.3622e-7 0 1 -4.3622e-7 0 -0.169401 0.7986021 0.5775274 -0.02460801 0.8090499 -0.5872246 -0.02217173 -0.3082125 0.9510592 -0.02217161 -0.3082123 -0.9510592 -0.2605609 -0.9654575 6.41952e-5 -0.2596688 -0.9615793 -0.08909201 -0.2572049 -0.9605673 -0.1056226 -0.9565643 0.2576822 -0.1363263 -0.9653465 0.2609718 -1.48899e-5 -0.9536288 0.2590444 -0.1532586 0.2675223 0.9597079 0.08598095 0.2609951 0.9653402 2.76508e-4 0.2627797 0.9601162 0.095519 0.9654231 -0.2606878 3.0868e-4 0.9594239 -0.2511566 0.1281648 0.9569105 -0.255976 0.1371085 0.8009507 -0.316029 0.508531 -0.1243044 -0.9180464 -0.3764825 0.1261456 -0.8288356 -0.5450862 -0.1321724 -0.9249931 -0.3562558 -0.7721663 0.3310084 -0.5423952 -0.7617025 0.3285498 -0.5584483 0.1546694 0.9267829 0.3422732 0.1422426 0.9144922 0.378776 0.3529428 -0.4571576 0.8163568 0.3092495 -0.4789112 0.8215892 0.3999791 -0.4468898 0.8001914 0.7780693 -0.3093566 0.5467236 -0.3747014 0.4561903 -0.8071489 -0.342663 0.4661011 -0.8156789 -0.1115078 0.830718 0.5454114 -0.1530449 0.8151969 0.5585977 -0.1819286 0.810318 0.557034 0.08266258 0.908866 0.408815 -0.1656174 0.8157929 0.5541234 -0.3003129 0.4772089 -0.8258836 -0.3109393 0.4766544 -0.8222637 0.1595339 -0.8174196 -0.5535109 0.1839609 -0.8057631 -0.5629427 0.09318703 0.9101674 0.4036231 0.2539595 0.9581075 0.1324184 -0.08311498 -0.9035223 -0.4204039 -0.1004412 -0.904881 -0.4136448 0.7134629 -0.3518102 0.6059706 0.7204811 -0.3461977 0.6008778 -0.7006654 0.3519922 -0.6206203 0.952624 -0.2589865 0.1594798 0.9653308 -0.2610284 8.36937e-4 0.9653921 -0.2608019 8.02303e-4 -0.2602567 -0.955821 -0.1366479 -0.2631239 -0.9588862 -0.1063162 0.9476664 -0.2593973 0.1861222 -0.7146561 0.3394972 -0.6115623 -0.9473492 0.2556412 -0.1928139 5.1144e-7 0 -1 5.11439e-7 0 -1 -0.9533045 0.2544323 -0.1627109 -0.9654275 0.2606714 3.93922e-4 0.2568295 0.9607704 0.104685 0.2604725 0.9654811 7.4748e-4 -0.2610461 -0.9653263 4.65564e-4 -0.2608054 -0.9653913 4.28798e-4 -0.259664 0.9615807 -0.08909201 -0.2605581 0.9654582 6.54092e-5 -0.2572002 0.9605687 -0.105621 -0.9565644 -0.2576818 -0.136326 -0.9653459 -0.2609739 -1.51278e-5 -0.9653914 -0.2608056 8.29363e-6 0.2675178 -0.959709 0.08598214 0.2609922 -0.9653409 2.7548e-4 0.2608024 -0.9653922 3.01772e-4 0.9594234 0.2511583 0.1281654 0.9654232 0.2606874 3.08636e-4 0.9569098 0.2559783 0.1371091 0.8009505 0.316029 0.5085312 0.1261478 0.8288389 -0.5450808 -0.1243 0.9180481 -0.37648 -0.1321679 0.9249953 -0.356252 -0.7721653 -0.3310062 -0.5423982 -0.9536288 -0.2590447 -0.1532586 0.1546674 -0.9267819 0.3422766 0.2627744 -0.9601174 0.09552049 0.3092494 0.478912 0.8215889 0.3529434 0.4571584 0.816356 0.3999795 0.4468906 0.8001908 0.7780695 0.3093565 0.5467234 -0.7617024 -0.3285472 -0.5584499 -0.3747003 -0.4561886 -0.8071503 0.1422412 -0.9144914 0.3787782 -0.1115075 -0.8307175 0.5454124 0.08266025 -0.9088667 0.4088139 -0.1819286 -0.8103196 0.5570317 -0.1656172 -0.8157954 0.5541199 -0.3426628 -0.4660999 -0.8156795 -0.3003125 -0.4772098 -0.8258833 -0.1530446 -0.8151972 0.5585972 0.1839614 0.8057638 -0.5629414 0.1595358 0.8174221 -0.5535066 0.2539567 -0.9581081 0.1324198 0.09318482 -0.9101674 0.4036237 -0.0831145 0.9035222 -0.4204041 0.1743711 0.8104248 -0.559291 0.7134627 0.3518094 0.6059713 0.3258088 0.4736216 0.818249 -0.7006659 -0.3519935 -0.620619 -0.3109389 -0.476655 -0.8222634 0.9526243 0.2589855 0.1594786 0.9653308 0.2610282 8.36746e-4 0.9476668 0.2593963 0.1861217 -0.1004404 0.9048817 -0.4136435 -0.2602565 0.9558212 -0.1366469 0.7204813 0.3461974 0.6008778 -0.9473494 -0.2556403 -0.1928136 -0.7146561 -0.3394982 -0.6115617 -2.5572e-7 0 -1 -2.55721e-7 0 -1 -0.9654279 -0.26067 3.94011e-4 -0.9533048 -0.2544308 -0.1627112 0.2604686 -0.9654821 7.47643e-4 0.2568268 -0.960771 0.1046867 -0.2631234 0.9588865 -0.1063147 -0.2610373 0.9653287 4.6507e-4 0 1 0 0.9510567 0.3090166 0 0 1 0 0.9510566 0.3090167 0 0.5877853 -0.809017 0 0.5877854 -0.809017 0 -0.5877852 -0.8090172 0 -0.5877853 -0.809017 0 -0.9510567 0.3090167 0 -0.9510566 0.309017 0 -0.9510567 0.3090165 0 -1.52436e-7 1 0 -2.81419e-7 1 0 -0.9510567 0.3090165 0 0.9510567 0.3090167 0 0.5877848 -0.8090173 0 0.9510568 0.3090164 0 0.9510567 -0.3090165 0 0 -1 0 0 -1 0 0.587785 0.8090172 0 0.9510566 -0.3090168 0 -0.5877852 0.8090171 0 0.5877854 0.809017 0 -0.9510566 -0.3090171 0 -0.5877853 0.809017 0 -0.9510565 -0.3090173 0 4.38518e-7 0 -1 2.19259e-7 0 -1 0 -1 0 -0.9510568 -0.3090165 0 0 -1 0 -0.9510567 -0.3090166 0 -0.5877849 0.8090173 0 -0.587785 0.8090173 0 0.5877851 0.8090173 0 0.5877851 0.8090171 0 0.9510566 -0.3090169 0 0.9510566 -0.309017 0 4.38519e-7 0 -1 2.19259e-7 0 -1 -0.114944 -0.9863867 -0.1175974 -0.3351058 -0.9421805 0 0.004835605 0.9715682 -0.2367106 0 0 1 -0.1067 0.9942913 0 -0.9978653 -0.0119329 -0.06420731 0.004508018 -0.9999899 -1.51188e-7 0.1156606 -0.9932889 0 0.1156601 0.9932889 0 0 0 1 -8.42487e-7 0 -1 -2.80829e-7 0 -1 -0.3335347 -0.8126236 0.4779095 -0.820039 0 -0.5723078 0.5081905 0.4599072 -0.7281675 0.5081905 -0.4599072 -0.7281675 -0.102059 0.9839709 0.1462371 1 2.61732e-6 0 1 -1.30866e-6 0 0 2.65753e-7 -1 -0.820039 0 -0.5723077 0.50819 -0.4599067 -0.7281682 -0.1020596 0.9839707 0.1462382 0.50819 0.4599067 -0.7281682 1 -1.30866e-6 0 1 1.30866e-6 0 -0.02460813 0.80905 0.5872245 -0.2608054 -0.9653914 9.80565e-5 -0.9653921 0.2608032 8.5748e-6 0.260805 0.9653915 3.02896e-4 0.9653912 -0.2608058 3.25026e-4 0.3258092 -0.473621 0.8182491 0.174372 -0.8104243 -0.5592914 1.02288e-6 0 -1 -0.9653914 0.2608053 3.73497e-4 0.2608057 0.9653911 6.96543e-4 -0.2608028 0.9653922 9.9524e-5 0.9653915 0.2608051 3.24973e-4 0.9653921 0.2608019 8.02151e-4 -5.11442e-7 0 -1 -0.9653917 -0.2608039 3.73635e-4 0.2608017 -0.9653922 6.96708e-4 -0.2607957 0.9653939 4.28193e-4 4.38518e-7 0 -1 4.38519e-7 0 -1</float_array>
          <technique_common>
            <accessor source="#semi-automatic_machine-mesh-normals-array" count="496" stride="3">
              <param name="X" type="float"/>
              <param name="Y" type="float"/>
              <param name="Z" type="float"/>
            </accessor>
          </technique_common>
        </source>
        <source id="semi-automatic_machine-mesh-map-0">
          <float_array id="semi-automatic_machine-mesh-map-0-array" count="3192">0.07415115 0.6298702 0.06928652 0.6900661 0.005696237 0.6885001 0.1328768 0.5696743 0.2332177 0.5236166 0.2588629 0.5696743 0.5236372 0.5696743 0.5236372 0.5442752 0.497992 0.5236166 0.94143 0.4617791 0.9160311 0.4835691 0.9160311 0.4617791 0.2612009 0.02988272 0.387187 0.02049344 0.387187 0.04228341 0.7043514 0.5237129 0.6582938 0.5125381 0.6582938 0.5333588 0.7801891 0.02876377 0.6586715 0.01979255 0.6586715 0.04061228 0.3976511 0.5696743 0.2766491 0.5236166 0.2704706 0.5696743 0.1328768 0.5696743 0.01187479 0.5236166 0.1333923 0.5236166 0.3001366 0.7911268 0.3976511 0.7911268 0.3340609 0.6900661 0.3977222 0.006845295 0.5196802 0.02988374 0.3977222 0.02988374 0.3389254 0.6298702 0.3976511 0.6916322 0.3976511 0.5696743 0.7043514 0.9569689 0.8231772 0.9787588 0.8231772 0.9569689 0.03536236 0.7911268 0.005696237 0.7614607 0.06928652 0.6900661 0.1956286 0.7911268 0.2384042 0.6916322 0.2500864 0.7366691 0.8231772 0.9787588 0.8961379 0.9569689 0.8231772 0.9569689 0.5148607 0.7366691 0.5148607 0.7033144 0.5031785 0.6916322 0.1328315 0.02970874 0.1955832 0.0139783 0.1955832 0.0363478 0.8800145 0.4768921 0.9056597 0.4642223 0.8800145 0.4559347 0.7801891 0.02876377 0.8800145 0.01829755 0.7801891 0.006752192 0.6359012 0.4767754 0.6475833 0.4973305 0.6475833 0.4755394 0.5303738 0.4879401 0.6359012 0.4986907 0.6359012 0.4767754 0.9402898 0.5078371 0.9947476 0.5238667 0.9402898 0.5296282 0.9069352 0.5078371 0.9402898 0.5296282 0.9069352 0.5296282 0.03531694 0.478258 0.005650877 0.4971565 0.005650877 0.4753654 0.1328315 0.4877661 0.03531694 0.5003401 0.03531694 0.478258 0.07415115 0.6298702 0.1328768 0.6916322 0.06928652 0.6900661 0.3389254 0.6298702 0.2704706 0.5696743 0.2704706 0.6885001 0.1328315 0.02970874 0.03531694 0.01713591 0.1328315 0.006671369 0.1333628 0.4827369 0.03798961 0.04403728 0.1333628 0.03473788 0.03531694 0.03921687 0.005650877 0.02031946 0.03531694 0.01713591 0.03531694 0.03921687 0.005650877 0.4753654 0.005650877 0.04210942 0.9069352 0.9628842 0.9402898 0.9846742 0.9069352 0.9846742 0.9073014 0.5343851 0.9399236 0.9581273 0.9073014 0.9581273 0.250041 0.02031946 0.1955832 0.0363478 0.1955832 0.0139783 0.2479986 0.04686629 0.1947367 0.4762436 0.1947367 0.04123121 0.5303738 0.02988272 0.6359012 0.01913315 0.5303738 0.006845355 0.5321758 0.4829109 0.6353859 0.04583144 0.5321758 0.03491187 0.6359012 0.04104745 0.6475833 0.02049344 0.6359012 0.01913315 0.6353859 0.04583144 0.6468116 0.4707825 0.6468116 0.04704022 0.8800145 0.4768921 0.7801891 0.4664249 0.7801891 0.4884375 0.8800145 0.4559347 0.7801891 0.02876377 0.7801891 0.4664249 0.8800145 0.01829755 0.9056597 0.03096628 0.9056597 0.009176313 0.8802961 0.04382872 0.9053781 0.4594654 0.9053781 0.03572314 0.1328315 0.4877661 0.1955832 0.5034976 0.1328315 0.5108045 0.1333628 0.03473788 0.1947367 0.4762436 0.1333628 0.4827369 0.8231772 0.5237129 0.8961378 0.5019218 0.8231772 0.5019218 0.8231772 0.9569689 0.8961378 0.5237129 0.8231772 0.5237129 0.7043514 0.5237129 0.8231772 0.5019218 0.7043514 0.5019218 0.7043514 0.9569689 0.8231772 0.5237129 0.7043514 0.5237129 0.3977222 0.4879411 0.5196802 0.5109785 0.3977222 0.5109785 0.3977222 0.02988374 0.5196802 0.4879411 0.3977222 0.4879411 0.7801891 0.4664249 0.6586715 0.4753971 0.7801891 0.4884375 0.7801891 0.4664249 0.6586715 0.04061228 0.6586715 0.4545763 0.6582938 0.9681426 0.7043514 0.9569689 0.6582938 0.9473229 0.7043514 0.9569689 0.6582938 0.5333588 0.6582938 0.9473229 0.387187 0.4973305 0.2612009 0.4879401 0.387187 0.4755394 0.387187 0.4755394 0.2612009 0.02988272 0.387187 0.04228341 0.94143 0.006732046 0.9160311 0.02852314 0.916031 0.006732046 0.9411512 0.03328001 0.91631 0.4570223 0.91631 0.03328001 0.4445419 0.9774948 0.5071057 0.9072045 0.4445419 0.9072045 0.4806631 0.9774948 0.4084207 0.9072045 0.4806631 0.9072045 0.5071057 0.9774948 0.4445419 0.9072045 0.5071057 0.9072045 0.4445419 0.9774948 0.3819782 0.9072045 0.4445419 0.9072045 0.4084207 0.9774948 0.4806631 0.9072045 0.4084207 0.9072045 0.3819782 0.9774948 0.4445419 0.9072045 0.3819782 0.9072045 0.3819782 0.8654717 0.4445419 0.8517939 0.4445419 0.8293505 0.4445419 0.9072045 0.4014145 0.8857231 0.4014145 0.9072045 0.5071057 0.9377141 0.4876693 0.8766935 0.4876693 0.9264927 0.3819782 0.9377141 0.4014145 0.8766935 0.3819782 0.8654717 0.4445419 0.9738353 0.4876693 0.9264927 0.4445419 0.9513922 0.5071057 0.8654717 0.4445419 0.8517939 0.4876693 0.8766935 0.4445419 0.9738353 0.4014145 0.9264927 0.3819782 0.9377141 0.4014145 0.8766935 0.4014145 0.9264927 0.4445419 0.9015931 0.4014145 0.9072045 0.4445419 0.8857231 0.4445419 0.9072045 0.4196425 0.9072045 0.4694417 0.8857231 0.4694417 0.9072045 0.4694417 0.9072045 0.4196425 0.8857231 0.4196425 0.9072045 0.4445419 0.9072045 0.4876693 0.8857231 0.4876693 0.9072045 0.4876693 0.9072045 0.4445419 0.8857231 0.4445419 0.9072045 0.4876693 0.8766935 0.4445419 0.8517939 0.4445419 0.9015931 0.4445419 0.9513922 0.4876693 0.9264927 0.4445419 0.9015931 0.4014145 0.9264927 0.4445419 0.9513922 0.4445419 0.9015931 0.4445419 0.8517939 0.4014145 0.8766935 0.4445419 0.9015931 0.4876693 0.9264927 0.4876693 0.8766935 0.4445419 0.9015931 0.4445419 0.87664 0.4549504 0.8333386 0.4445419 0.8333386 0.4479227 0.87664 0.4356868 0.8333386 0.4479227 0.8333386 0.4509747 0.87664 0.4381092 0.8333386 0.4509747 0.8333386 0.4356868 0.87664 0.4479227 0.8333386 0.4356868 0.8333386 0.4341335 0.87664 0.4445419 0.8333386 0.4341335 0.8333386 0.4549504 0.9049737 0.4509747 0.8927378 0.4381092 0.8927378 0.4445408 0.8431392 0.4123622 0.8497742 0.4228151 0.8380293 0.4666905 0.9015918 0.4613414 0.8798661 0.4577751 0.9015918 0.4429454 0.9015918 0.4620599 0.8694131 0.4518607 0.9015918 0.4123622 0.8435521 0.4445408 0.8369171 0.4228151 0.8318071 0.4228151 0.8380293 0.4123622 0.8497742 0.4084147 0.831913 0.4123622 0.8435521 0.4228151 0.8318071 0.4084147 0.825691 0.4702568 0.8798661 0.4656099 0.8654658 0.4613414 0.8798661 0.4620599 0.8497742 0.4656099 0.825691 0.4745253 0.831913 0.4445408 0.8431392 0.4767194 0.8497742 0.4445408 0.8643882 0.4613414 0.9233175 0.4666905 0.9015918 0.4577751 0.9015918 0.4620599 0.9337704 0.4429454 0.9015918 0.4518607 0.9015918 0.4445408 0.8369171 0.4767194 0.8435521 0.4662665 0.8318071 0.4662665 0.8380293 0.4806669 0.831913 0.4767194 0.8497742 0.4767194 0.8435521 0.4806669 0.825691 0.4662665 0.8318071 0.4656099 0.9377179 0.4702568 0.9233175 0.4613414 0.9233175 0.4620599 0.8497742 0.4656099 0.825691 0.4531446 0.8435521 0.3145378 0.8748199 0.3511946 0.8573886 0.3145378 0.8573886 0.3511946 0.8709062 0.3145378 0.8913981 0.3145378 0.8709062 0.3511946 0.8640468 0.3145378 0.8855931 0.3145378 0.8640468 0.6705566 0.3563536 0.6919851 0.373785 0.6919851 0.3497707 0.3511946 0.8913981 0.3145378 0.8709062 0.3145378 0.8913981 0.3145378 0.8922513 0.3511946 0.8748199 0.3145378 0.8748199 0.6919851 0.3977993 0.8633105 0.373785 0.6919851 0.373785 0.6705566 0.3845582 0.6919851 0.3589434 0.6919851 0.3886267 0.6705566 0.3903631 0.6919851 0.3683935 0.6705566 0.3698713 0.6705566 0.3903631 0.6919851 0.3683935 0.6919851 0.396624 0.6705566 0.3912163 0.6919851 0.373785 0.6705566 0.373785 0.7749851 0.373785 0.7222253 0.3909277 0.7222253 0.3566424 0.6919851 0.3886267 0.8633105 0.3566424 0.8633105 0.3909277 0.6919851 0.3497707 0.8633105 0.373785 0.8633105 0.3460476 0.6919851 0.396624 0.8633105 0.3675576 0.6919851 0.3683935 0.6919851 0.396624 0.8633105 0.3675576 0.8633105 0.4001649 0.5071057 0.9072045 0.4445419 0.9774948 0.4445419 0.9072045 0.4084207 0.9072045 0.4806631 0.9774948 0.4806631 0.9072045 0.4445419 0.9072045 0.5071057 0.9774948 0.5071057 0.9072045 0.3819782 0.9072045 0.4445419 0.9774948 0.4445419 0.9072045 0.4806631 0.9072045 0.4084207 0.9774948 0.4084207 0.9072045 0.4445419 0.9072045 0.3819782 0.9774948 0.3819782 0.9072045 0.4445419 0.8517939 0.3819782 0.8654717 0.4445419 0.8293505 0.4014145 0.8857231 0.4445419 0.9072045 0.4014145 0.9072045 0.5071057 0.9377141 0.4876693 0.8766935 0.5071057 0.8654717 0.4014145 0.8766935 0.3819782 0.9377141 0.3819782 0.8654717 0.4445419 0.9738353 0.4876693 0.9264927 0.5071057 0.9377141 0.5071057 0.8654717 0.4445419 0.8517939 0.4445419 0.8293505 0.4014145 0.9264927 0.4445419 0.9738353 0.3819782 0.9377141 0.4014145 0.8766935 0.4445419 0.9015931 0.4014145 0.9264927 0.4445419 0.8857231 0.4014145 0.9072045 0.4445419 0.9072045 0.4694417 0.8857231 0.4196425 0.9072045 0.4694417 0.9072045 0.4196425 0.8857231 0.4694417 0.9072045 0.4196425 0.9072045 0.4876693 0.8857231 0.4445419 0.9072045 0.4876693 0.9072045 0.4445419 0.8857231 0.4876693 0.9072045 0.4445419 0.9072045 0.4876693 0.8766935 0.4445419 0.9015931 0.4445419 0.8517939 0.4445419 0.9513922 0.4445419 0.9015931 0.4876693 0.9264927 0.4014145 0.9264927 0.4445419 0.9015931 0.4445419 0.9513922 0.4445419 0.8517939 0.4445419 0.9015931 0.4014145 0.8766935 0.4876693 0.9264927 0.4445419 0.9015931 0.4876693 0.8766935 0.4549504 0.8333386 0.4445419 0.87664 0.4445419 0.8333386 0.4356868 0.8333386 0.4479227 0.87664 0.4479227 0.8333386 0.4381092 0.8333386 0.4509747 0.87664 0.4509747 0.8333386 0.4479227 0.8333386 0.4356868 0.87664 0.4356868 0.8333386 0.4445419 0.8333386 0.4341335 0.87664 0.4341335 0.8333386 0.4341335 0.9049737 0.4509747 0.8927378 0.4549504 0.9049737 0.4445408 0.8431392 0.4123622 0.8497742 0.4445408 0.8643882 0.4613414 0.8798661 0.4666905 0.9015918 0.4577751 0.9015918 0.4620599 0.8694131 0.4429454 0.9015918 0.4518607 0.9015918 0.4445408 0.8369171 0.4123622 0.8435521 0.4228151 0.8318071 0.4228151 0.8380293 0.4084147 0.831913 0.4123622 0.8497742 0.4123622 0.8435521 0.4084147 0.825691 0.4228151 0.8318071 0.4656099 0.8654658 0.4702568 0.8798661 0.4613414 0.8798661 0.4620599 0.8497742 0.4656099 0.825691 0.4531446 0.8435521 0.4445408 0.8431392 0.4767194 0.8497742 0.4662665 0.8380293 0.4666905 0.9015918 0.4613414 0.9233175 0.4577751 0.9015918 0.4518607 0.9015918 0.4531446 0.9337704 0.4620599 0.9337704 0.4767194 0.8435521 0.4445408 0.8369171 0.4662665 0.8318071 0.4662665 0.8380293 0.4767194 0.8497742 0.4806669 0.831913 0.4767194 0.8435521 0.4662665 0.8318071 0.4806669 0.825691 0.4702568 0.9233175 0.4656099 0.9377179 0.4613414 0.9233175 0.4620599 0.8497742 0.4656099 0.825691 0.4745253 0.831913 0.3145378 0.8748199 0.3511946 0.8573886 0.3511946 0.8748199 0.3145378 0.8913981 0.3511946 0.8709062 0.3145378 0.8709062 0.3145378 0.8855931 0.3511946 0.8640468 0.3145378 0.8640468 0.6705566 0.3563536 0.6919851 0.373785 0.6705566 0.373785 0.3145378 0.8709062 0.3511946 0.8913981 0.3145378 0.8913981 0.3145378 0.8922513 0.3511946 0.8748199 0.3511946 0.8922513 0.8633105 0.373785 0.6919851 0.3977993 0.6919851 0.373785 0.6705566 0.3845582 0.6919851 0.3589434 0.6705566 0.3630118 0.6919851 0.3683935 0.6705566 0.3903631 0.6705566 0.3698713 0.6705566 0.3903631 0.6919851 0.3683935 0.6705566 0.3698713 0.6919851 0.373785 0.6705566 0.3912163 0.6705566 0.373785 0.7222253 0.3566424 0.7548326 0.4015224 0.7749851 0.373785 0.6919851 0.3886267 0.8633105 0.3566424 0.6919851 0.3589434 0.6919851 0.3497707 0.8633105 0.373785 0.6919851 0.373785 0.8633105 0.3675576 0.6919851 0.396624 0.6919851 0.3683935 0.6919851 0.396624 0.8633105 0.3675576 0.6919851 0.3683935 0.5519431 0.8688341 0.4487797 0.8549708 0.4486825 0.8688676 0.4487797 0.9353135 0.5519431 0.9214409 0.4487204 0.9214096 0.4487204 0.8549992 0.5519431 0.8688341 0.4485792 0.8688478 0.5519431 0.9214409 0.4486825 0.9352723 0.4485792 0.9214417 0.4486825 0.9352723 0.4371113 0.9194039 0.4485792 0.9214417 0.4234366 0.8627504 0.4240291 0.8857818 0.4316554 0.8738474 0.4487797 0.9353135 0.4289911 0.9174203 0.4234366 0.9300751 0.4487797 0.8549708 0.4316554 0.8738474 0.4486825 0.8688676 0.4487204 0.8549992 0.4371113 0.8718962 0.4289911 0.8608878 0.4412296 0.9238609 0.4107424 0.889436 0.447776 0.9144439 0.453164 0.9319087 0.447776 0.9144439 0.4551152 0.9194039 0.464261 0.9300751 0.4519506 0.9078724 0.4454487 0.9173792 0.4289911 0.8608878 0.4317404 0.8792354 0.4202747 0.8750607 0.7510823 0.3961105 0.7332974 0.4063892 0.7395377 0.3918653 0.4454487 0.9173792 0.4149877 0.8829673 0.4084835 0.8924239 0.4202747 0.8750607 0.4317203 0.916269 0.4201757 0.9120237 0.4124583 0.8815627 0.4239215 0.9227553 0.4240291 0.8857818 0.7414885 0.4175187 0.7127416 0.4140729 0.7332974 0.4063892 0.7432835 0.4025969 0.7279122 0.4082915 0.7359468 0.4193657 0.7301045 0.3692776 0.7068492 0.3674966 0.7086962 0.354828 0.7343497 0.3628089 0.7179234 0.36555 0.7278454 0.3722655 0.3932648 0.8679379 0.2988939 0.8818913 0.2988939 0.8678722 0.7359468 0.4193657 0.7128768 0.4140937 0.7126951 0.4279459 0.7414885 0.354828 0.7126951 0.3616923 0.7126268 0.3477795 0.7332974 0.3530172 0.7128768 0.3616549 0.7279122 0.36555 0.3928154 0.8818913 0.3787963 0.8678722 0.3787963 0.8818913 0.3933796 0.8679895 0.2988939 0.8818913 0.3935148 0.8818134 0.3932648 0.9481393 0.2988939 0.9341961 0.3933796 0.9342313 0.3933331 0.9481043 0.2988939 0.934196 0.2988939 0.9482151 0.4487797 0.8549708 0.5519431 0.8688341 0.4486825 0.8688676 0.4487797 0.9353135 0.5519431 0.9214409 0.5519431 0.9353033 0.4487204 0.8549992 0.5519431 0.8688341 0.5519431 0.8549717 0.4486825 0.9352723 0.5519431 0.9214409 0.4485792 0.9214417 0.4371113 0.9194039 0.4486825 0.9352723 0.4485792 0.9214417 0.4240291 0.8857818 0.4234366 0.8627504 0.4316554 0.8738474 0.4487797 0.9353135 0.4289911 0.9174203 0.4487204 0.9214096 0.4316554 0.8738474 0.4487797 0.8549708 0.4486825 0.8688676 0.4487204 0.8549992 0.4371113 0.8718962 0.4485792 0.8688478 0.4107424 0.889436 0.4412296 0.9238609 0.447776 0.9144439 0.447776 0.9144439 0.453164 0.9319087 0.4551152 0.9194039 0.464261 0.9300751 0.4519506 0.9078724 0.4661237 0.9174203 0.4289911 0.8608878 0.4317404 0.8792354 0.4371113 0.8718962 0.7332974 0.4063892 0.7510823 0.3961105 0.7395377 0.3918653 0.4454487 0.9173792 0.4149877 0.8829673 0.4519506 0.9078724 0.4202747 0.8750607 0.4317203 0.916269 0.4317404 0.8792354 0.4239215 0.9227553 0.4124583 0.8815627 0.4240291 0.8857818 0.7127416 0.4140729 0.7414885 0.4175187 0.7332974 0.4063892 0.7432835 0.4025969 0.7279122 0.4082915 0.7318205 0.3983695 0.7301045 0.3692776 0.7068492 0.3674966 0.723618 0.3787873 0.7179234 0.36555 0.7343497 0.3628089 0.7278454 0.3722655 0.3932648 0.8679379 0.2988939 0.8818913 0.3933331 0.8818507 0.7359468 0.4193657 0.7128768 0.4140937 0.7279122 0.4082915 0.7414885 0.354828 0.7126951 0.3616923 0.7359468 0.3674966 0.7128768 0.3616549 0.7332974 0.3530172 0.7279122 0.36555 0.3787963 0.8818913 0.3928154 0.8678722 0.3928154 0.8818913 0.2988939 0.8818913 0.3933796 0.8679895 0.3935148 0.8818134 0.2988939 0.9341961 0.3932648 0.9481393 0.3933796 0.9342313 0.3933331 0.9481043 0.2988939 0.934196 0.3935148 0.9342522 0.775378 0.4079923 0.8121566 0.3701755 0.775378 0.3701755 0.7836353 0.4079923 0.7403994 0.3701755 0.7836353 0.3701755 0.7981084 0.4079923 0.7526476 0.3701755 0.7981084 0.3701755 0.7403994 0.4079923 0.7836353 0.3701755 0.7403994 0.3701755 0.7385994 0.4079923 0.775378 0.3701755 0.7385994 0.3701755 0.7981084 0.3541053 0.7526476 0.3541053 0.7385994 0.3973412 0.8121566 0.3701755 0.775378 0.4079923 0.775378 0.3701755 0.7403994 0.3701755 0.7836353 0.4079923 0.7836353 0.3701755 0.7526476 0.3701755 0.7981084 0.4079923 0.7981084 0.3701755 0.7836353 0.3701755 0.7403994 0.4079923 0.7403994 0.3701755 0.775378 0.3701755 0.7385994 0.4079923 0.7385994 0.3701755 0.7526476 0.3541053 0.7981084 0.3541053 0.8121566 0.3973412 0.8121566 0.3701755 0.775378 0.4079923 0.775378 0.3701755 0.7403994 0.3701755 0.7836353 0.4079923 0.7836353 0.3701755 0.7526476 0.3701755 0.7981084 0.4079923 0.7981084 0.3701755 0.7836353 0.3701755 0.7403994 0.4079923 0.7403994 0.3701755 0.775378 0.3701755 0.7385994 0.4079923 0.7385994 0.3701755 0.7385994 0.3973412 0.7526476 0.3541053 0.7981084 0.3541053 0.775378 0.4079923 0.8121566 0.3701755 0.775378 0.3701755 0.7836353 0.4079923 0.7403994 0.3701755 0.7836353 0.3701755 0.7981084 0.4079923 0.7526476 0.3701755 0.7981084 0.3701755 0.7403994 0.4079923 0.7836353 0.3701755 0.7403994 0.3701755 0.7385994 0.4079923 0.775378 0.3701755 0.7385994 0.3701755 0.8121566 0.3973412 0.7981084 0.3541053 0.7526476 0.3541053 0.005696237 0.6885001 0.005696237 0.5696743 0.07415115 0.6298702 0.005696237 0.5696743 0.1328768 0.5696743 0.07415115 0.6298702 0.1333923 0.5236166 0.2332177 0.5236166 0.1328768 0.5696743 0.2332177 0.5236166 0.2588629 0.5442752 0.2588629 0.5696743 0.497992 0.5236166 0.3981667 0.5236166 0.3976511 0.5696743 0.3976511 0.5696743 0.5236372 0.5696743 0.497992 0.5236166 0.94143 0.4617791 0.94143 0.4835691 0.9160311 0.4835691 0.2612009 0.02988272 0.2612009 0.006845355 0.387187 0.02049344 0.7043514 0.5237129 0.7043514 0.5019218 0.6582938 0.5125381 0.7801891 0.02876377 0.7801891 0.006752192 0.6586715 0.01979255 0.3976511 0.5696743 0.3981667 0.5236166 0.2766491 0.5236166 0.1328768 0.5696743 0.005696237 0.5696743 0.01187479 0.5236166 0.3976511 0.7911268 0.3976511 0.6916322 0.3340609 0.6900661 0.3340609 0.6900661 0.2704706 0.6885001 0.2704706 0.7614607 0.2704706 0.7614607 0.3001366 0.7911268 0.3340609 0.6900661 0.3977222 0.006845295 0.5196802 0.006845295 0.5196802 0.02988374 0.3389254 0.6298702 0.3340609 0.6900661 0.3976511 0.6916322 0.7043514 0.9569689 0.7043514 0.9787588 0.8231772 0.9787588 0.005696237 0.7614607 0.005696237 0.6885001 0.06928652 0.6900661 0.06928652 0.6900661 0.1328768 0.6916322 0.1328768 0.7911268 0.1328768 0.7911268 0.03536236 0.7911268 0.06928652 0.6900661 0.1956286 0.7911268 0.1328768 0.7911268 0.1328768 0.6916322 0.1328768 0.6916322 0.2384042 0.6916322 0.1956286 0.7911268 0.2384042 0.6916322 0.2500864 0.7033144 0.2500864 0.7366691 0.8231772 0.9787588 0.8961379 0.9787588 0.8961379 0.9569689 0.5031785 0.6916322 0.3976511 0.6916322 0.4604029 0.7911268 0.3976511 0.6916322 0.3976511 0.7911268 0.4604029 0.7911268 0.4604029 0.7911268 0.5148607 0.7366691 0.5031785 0.6916322 0.1328315 0.02970874 0.1328315 0.006671369 0.1955832 0.0139783 0.8800145 0.4768921 0.9056597 0.4860134 0.9056597 0.4642223 0.7801891 0.02876377 0.8800145 0.03925389 0.8800145 0.01829755 0.6359012 0.4767754 0.6359012 0.4986907 0.6475833 0.4973305 0.5303738 0.4879401 0.5303738 0.5109785 0.6359012 0.4986907 0.9402898 0.5078371 0.9947476 0.501496 0.9947476 0.5238667 0.9069352 0.5078371 0.9402898 0.5078371 0.9402898 0.5296282 0.03531694 0.478258 0.03531694 0.5003401 0.005650877 0.4971565 0.1328315 0.4877661 0.1328315 0.5108045 0.03531694 0.5003401 0.07415115 0.6298702 0.1328768 0.5696743 0.1328768 0.6916322 0.2704706 0.6885001 0.3340609 0.6900661 0.3389254 0.6298702 0.3389254 0.6298702 0.3976511 0.5696743 0.2704706 0.5696743 0.1328315 0.02970874 0.03531694 0.03921687 0.03531694 0.01713591 0.1333628 0.4827369 0.03798961 0.4734376 0.03798961 0.04403728 0.03531694 0.03921687 0.005650877 0.04210942 0.005650877 0.02031946 0.03531694 0.03921687 0.03531694 0.478258 0.005650877 0.4753654 0.9069352 0.9628842 0.9402898 0.9628842 0.9402898 0.9846742 0.9073014 0.5343851 0.9399236 0.534385 0.9399236 0.9581273 0.250041 0.02031946 0.250041 0.04210948 0.1955832 0.0363478 0.2479986 0.04686629 0.2479986 0.4706086 0.1947367 0.4762436 0.5303738 0.02988272 0.6359012 0.04104745 0.6359012 0.01913315 0.5321758 0.4829109 0.6353859 0.4719914 0.6353859 0.04583144 0.6359012 0.04104745 0.6475833 0.04228341 0.6475833 0.02049344 0.6353859 0.04583144 0.6353859 0.4719914 0.6468116 0.4707825 0.8800145 0.4768921 0.8800145 0.4559347 0.7801891 0.4664249 0.8800145 0.4559347 0.8800145 0.03925389 0.7801891 0.02876377 0.8800145 0.01829755 0.8800145 0.03925389 0.9056597 0.03096628 0.8802961 0.04382872 0.8802961 0.4513598 0.9053781 0.4594654 0.1328315 0.4877661 0.1955832 0.481127 0.1955832 0.5034976 0.1333628 0.03473788 0.1947367 0.04123121 0.1947367 0.4762436 0.8231772 0.5237129 0.8961378 0.5237129 0.8961378 0.5019218 0.8231772 0.9569689 0.8961379 0.9569689 0.8961378 0.5237129 0.7043514 0.5237129 0.8231772 0.5237129 0.8231772 0.5019218 0.7043514 0.9569689 0.8231772 0.9569689 0.8231772 0.5237129 0.3977222 0.4879411 0.5196802 0.4879411 0.5196802 0.5109785 0.3977222 0.02988374 0.5196802 0.02988374 0.5196802 0.4879411 0.7801891 0.4664249 0.6586715 0.4545763 0.6586715 0.4753971 0.7801891 0.4664249 0.7801891 0.02876377 0.6586715 0.04061228 0.6582938 0.9681426 0.7043514 0.9787588 0.7043514 0.9569689 0.7043514 0.9569689 0.7043514 0.5237129 0.6582938 0.5333588 0.387187 0.4973305 0.2612009 0.5109785 0.2612009 0.4879401 0.387187 0.4755394 0.2612009 0.4879401 0.2612009 0.02988272 0.94143 0.006732046 0.94143 0.02852314 0.9160311 0.02852314 0.9411512 0.03328001 0.9411512 0.4570223 0.91631 0.4570223 0.4445419 0.9774948 0.5071057 0.9774948 0.5071057 0.9072045 0.4806631 0.9774948 0.4084207 0.9774948 0.4084207 0.9072045 0.5071057 0.9774948 0.4445419 0.9774948 0.4445419 0.9072045 0.4445419 0.9774948 0.3819782 0.9774948 0.3819782 0.9072045 0.4084207 0.9774948 0.4806631 0.9774948 0.4806631 0.9072045 0.3819782 0.9774948 0.4445419 0.9774948 0.4445419 0.9072045 0.3819782 0.8654717 0.4014145 0.8766935 0.4445419 0.8517939 0.4445419 0.9072045 0.4445419 0.8857231 0.4014145 0.8857231 0.5071057 0.9377141 0.5071057 0.8654717 0.4876693 0.8766935 0.3819782 0.9377141 0.4014145 0.9264927 0.4014145 0.8766935 0.4445419 0.9738353 0.5071057 0.9377141 0.4876693 0.9264927 0.5071057 0.8654717 0.4445419 0.8293505 0.4445419 0.8517939 0.4445419 0.9738353 0.4445419 0.9513922 0.4014145 0.9264927 0.4014145 0.9072045 0.4014145 0.8857231 0.4445419 0.8857231 0.4196425 0.9072045 0.4196425 0.8857231 0.4694417 0.8857231 0.4694417 0.9072045 0.4694417 0.8857231 0.4196425 0.8857231 0.4445419 0.9072045 0.4445419 0.8857231 0.4876693 0.8857231 0.4876693 0.9072045 0.4876693 0.8857231 0.4445419 0.8857231 0.4445419 0.87664 0.4549504 0.87664 0.4549504 0.8333386 0.4479227 0.87664 0.4356868 0.87664 0.4356868 0.8333386 0.4509747 0.87664 0.4381092 0.87664 0.4381092 0.8333386 0.4356868 0.87664 0.4479227 0.87664 0.4479227 0.8333386 0.4341335 0.87664 0.4445419 0.87664 0.4445419 0.8333386 0.4341335 0.9049737 0.4445419 0.9125359 0.4381092 0.8927378 0.4445419 0.9125359 0.4549504 0.9049737 0.4381092 0.8927378 0.4445408 0.8431392 0.4445408 0.8643882 0.4123622 0.8497742 0.4666905 0.9015918 0.4702568 0.8798661 0.4613414 0.8798661 0.4429454 0.9015918 0.4531446 0.8694131 0.4620599 0.8694131 0.4123622 0.8435521 0.4445408 0.8581662 0.4445408 0.8369171 0.4702568 0.8798661 0.4745253 0.8654658 0.4656099 0.8654658 0.4620599 0.8497742 0.4531446 0.8435521 0.4656099 0.825691 0.4445408 0.8431392 0.4662665 0.8380293 0.4767194 0.8497742 0.4613414 0.9233175 0.4702568 0.9233175 0.4666905 0.9015918 0.4620599 0.9337704 0.4531446 0.9337704 0.4429454 0.9015918 0.4445408 0.8369171 0.4445408 0.8581662 0.4767194 0.8435521 0.4656099 0.9377179 0.4745253 0.9377179 0.4702568 0.9233175 0.4620599 0.8497742 0.4745253 0.831913 0.4656099 0.825691 0.3145378 0.8748199 0.3511946 0.8748199 0.3511946 0.8573886 0.3511946 0.8709062 0.3511946 0.8913981 0.3145378 0.8913981 0.3511946 0.8640468 0.3511946 0.8855931 0.3145378 0.8855931 0.6705566 0.3563536 0.6705566 0.373785 0.6919851 0.373785 0.3511946 0.8913981 0.3511946 0.8709062 0.3145378 0.8709062 0.3145378 0.8922513 0.3511946 0.8922513 0.3511946 0.8748199 0.6919851 0.3977993 0.8633105 0.4015224 0.8633105 0.373785 0.6705566 0.3845582 0.6705566 0.3630118 0.6919851 0.3589434 0.6705566 0.3903631 0.6919851 0.396624 0.6919851 0.3683935 0.6705566 0.3903631 0.6705566 0.3698713 0.6919851 0.3683935 0.6705566 0.3912163 0.6919851 0.3977993 0.6919851 0.373785 0.7222253 0.3566424 0.7548326 0.3460476 0.7749851 0.373785 0.7749851 0.373785 0.7548326 0.4015224 0.7222253 0.3909277 0.6919851 0.3886267 0.6919851 0.3589434 0.8633105 0.3566424 0.6919851 0.3497707 0.6919851 0.373785 0.8633105 0.373785 0.6919851 0.396624 0.8633105 0.4001649 0.8633105 0.3675576 0.6919851 0.396624 0.6919851 0.3683935 0.8633105 0.3675576 0.5071057 0.9072045 0.5071057 0.9774948 0.4445419 0.9774948 0.4084207 0.9072045 0.4084207 0.9774948 0.4806631 0.9774948 0.4445419 0.9072045 0.4445419 0.9774948 0.5071057 0.9774948 0.3819782 0.9072045 0.3819782 0.9774948 0.4445419 0.9774948 0.4806631 0.9072045 0.4806631 0.9774948 0.4084207 0.9774948 0.4445419 0.9072045 0.4445419 0.9774948 0.3819782 0.9774948 0.4445419 0.8517939 0.4014145 0.8766935 0.3819782 0.8654717 0.4014145 0.8857231 0.4445419 0.8857231 0.4445419 0.9072045 0.5071057 0.9377141 0.4876693 0.9264927 0.4876693 0.8766935 0.4014145 0.8766935 0.4014145 0.9264927 0.3819782 0.9377141 0.4445419 0.9738353 0.4445419 0.9513922 0.4876693 0.9264927 0.5071057 0.8654717 0.4876693 0.8766935 0.4445419 0.8517939 0.4014145 0.9264927 0.4445419 0.9513922 0.4445419 0.9738353 0.4445419 0.8857231 0.4014145 0.8857231 0.4014145 0.9072045 0.4694417 0.8857231 0.4196425 0.8857231 0.4196425 0.9072045 0.4196425 0.8857231 0.4694417 0.8857231 0.4694417 0.9072045 0.4876693 0.8857231 0.4445419 0.8857231 0.4445419 0.9072045 0.4445419 0.8857231 0.4876693 0.8857231 0.4876693 0.9072045 0.4549504 0.8333386 0.4549504 0.87664 0.4445419 0.87664 0.4356868 0.8333386 0.4356868 0.87664 0.4479227 0.87664 0.4381092 0.8333386 0.4381092 0.87664 0.4509747 0.87664 0.4479227 0.8333386 0.4479227 0.87664 0.4356868 0.87664 0.4445419 0.8333386 0.4445419 0.87664 0.4341335 0.87664 0.4549504 0.9049737 0.4445419 0.9125359 0.4341335 0.9049737 0.4341335 0.9049737 0.4381092 0.8927378 0.4509747 0.8927378 0.4445408 0.8431392 0.4228151 0.8380293 0.4123622 0.8497742 0.4613414 0.8798661 0.4702568 0.8798661 0.4666905 0.9015918 0.4620599 0.8694131 0.4531446 0.8694131 0.4429454 0.9015918 0.4445408 0.8369171 0.4445408 0.8581662 0.4123622 0.8435521 0.4656099 0.8654658 0.4745253 0.8654658 0.4702568 0.8798661 0.4620599 0.8497742 0.4745253 0.831913 0.4656099 0.825691 0.4445408 0.8431392 0.4445408 0.8643882 0.4767194 0.8497742 0.4666905 0.9015918 0.4702568 0.9233175 0.4613414 0.9233175 0.4518607 0.9015918 0.4429454 0.9015918 0.4531446 0.9337704 0.4767194 0.8435521 0.4445408 0.8581662 0.4445408 0.8369171 0.4702568 0.9233175 0.4745253 0.9377179 0.4656099 0.9377179 0.4620599 0.8497742 0.4531446 0.8435521 0.4656099 0.825691 0.3145378 0.8748199 0.3145378 0.8573886 0.3511946 0.8573886 0.3145378 0.8913981 0.3511946 0.8913981 0.3511946 0.8709062 0.3145378 0.8855931 0.3511946 0.8855931 0.3511946 0.8640468 0.6705566 0.3563536 0.6919851 0.3497707 0.6919851 0.373785 0.3145378 0.8709062 0.3511946 0.8709062 0.3511946 0.8913981 0.3145378 0.8922513 0.3145378 0.8748199 0.3511946 0.8748199 0.8633105 0.373785 0.8633105 0.4015224 0.6919851 0.3977993 0.6705566 0.3845582 0.6919851 0.3886267 0.6919851 0.3589434 0.6919851 0.3683935 0.6919851 0.396624 0.6705566 0.3903631 0.6705566 0.3903631 0.6919851 0.396624 0.6919851 0.3683935 0.6919851 0.373785 0.6919851 0.3977993 0.6705566 0.3912163 0.7749851 0.373785 0.7548326 0.3460476 0.7222253 0.3566424 0.7222253 0.3566424 0.7222253 0.3909277 0.7548326 0.4015224 0.6919851 0.3886267 0.8633105 0.3909277 0.8633105 0.3566424 0.6919851 0.3497707 0.8633105 0.3460476 0.8633105 0.373785 0.8633105 0.3675576 0.8633105 0.4001649 0.6919851 0.396624 0.6919851 0.396624 0.8633105 0.4001649 0.8633105 0.3675576 0.5519431 0.8688341 0.5519431 0.8549717 0.4487797 0.8549708 0.4487797 0.9353135 0.5519431 0.9353033 0.5519431 0.9214409 0.4487204 0.8549992 0.5519431 0.8549717 0.5519431 0.8688341 0.5519431 0.9214409 0.5519431 0.9353033 0.4486825 0.9352723 0.4486825 0.9352723 0.4316554 0.9319087 0.4371113 0.9194039 0.4234366 0.8627504 0.4124583 0.8815627 0.4240291 0.8857818 0.4487797 0.9353135 0.4487204 0.9214096 0.4289911 0.9174203 0.4487797 0.8549708 0.4234366 0.8627504 0.4316554 0.8738474 0.4487204 0.8549992 0.4485792 0.8688478 0.4371113 0.8718962 0.4412296 0.9238609 0.4042561 0.8989458 0.4107424 0.889436 0.453164 0.9319087 0.4412296 0.9238609 0.447776 0.9144439 0.464261 0.9300751 0.4661237 0.9174203 0.4519506 0.9078724 0.4289911 0.8608878 0.4371113 0.8718962 0.4317404 0.8792354 0.7510823 0.3961105 0.7414885 0.4175187 0.7332974 0.4063892 0.4454487 0.9173792 0.4519506 0.9078724 0.4149877 0.8829673 0.4202747 0.8750607 0.4317404 0.8792354 0.4317203 0.916269 0.4124583 0.8815627 0.4124584 0.9185279 0.4239215 0.9227553 0.7414885 0.4175187 0.7126268 0.4279809 0.7127416 0.4140729 0.7432835 0.4025969 0.7318205 0.3983695 0.7279122 0.4082915 0.7301045 0.3692776 0.723618 0.3787873 0.7068492 0.3674966 0.7343497 0.3628089 0.7198257 0.3530172 0.7179234 0.36555 0.3932648 0.8679379 0.3933331 0.8818507 0.2988939 0.8818913 0.7359468 0.4193657 0.7279122 0.4082915 0.7128768 0.4140937 0.7414885 0.354828 0.7359468 0.3674966 0.7126951 0.3616923 0.7332974 0.3530172 0.7127416 0.3478311 0.7128768 0.3616549 0.3928154 0.8818913 0.3928154 0.8678722 0.3787963 0.8678722 0.3933796 0.8679895 0.2988939 0.8678722 0.2988939 0.8818913 0.3932648 0.9481393 0.2988939 0.9482151 0.2988939 0.9341961 0.3933331 0.9481043 0.3935148 0.9342522 0.2988939 0.934196 0.4487797 0.8549708 0.5519431 0.8549717 0.5519431 0.8688341 0.4487797 0.9353135 0.4487204 0.9214096 0.5519431 0.9214409 0.4487204 0.8549992 0.4485792 0.8688478 0.5519431 0.8688341 0.4486825 0.9352723 0.5519431 0.9353033 0.5519431 0.9214409 0.4371113 0.9194039 0.4316554 0.9319087 0.4486825 0.9352723 0.4240291 0.8857818 0.4124583 0.8815627 0.4234366 0.8627504 0.4487797 0.9353135 0.4234366 0.9300751 0.4289911 0.9174203 0.4316554 0.8738474 0.4234366 0.8627504 0.4487797 0.8549708 0.4487204 0.8549992 0.4289911 0.8608878 0.4371113 0.8718962 0.4107424 0.889436 0.4042561 0.8989458 0.4412296 0.9238609 0.447776 0.9144439 0.4412296 0.9238609 0.453164 0.9319087 0.464261 0.9300751 0.4454487 0.9173792 0.4519506 0.9078724 0.4289911 0.8608878 0.4202747 0.8750607 0.4317404 0.8792354 0.7332974 0.4063892 0.7414885 0.4175187 0.7510823 0.3961105 0.4454487 0.9173792 0.4084835 0.8924239 0.4149877 0.8829673 0.4202747 0.8750607 0.4201757 0.9120237 0.4317203 0.916269 0.4239215 0.9227553 0.4124584 0.9185279 0.4124583 0.8815627 0.7127416 0.4140729 0.7126268 0.4279809 0.7414885 0.4175187 0.7432835 0.4025969 0.7359468 0.4193657 0.7279122 0.4082915 0.7301045 0.3692776 0.7086962 0.354828 0.7068492 0.3674966 0.7179234 0.36555 0.7198257 0.3530172 0.7343497 0.3628089 0.3932648 0.8679379 0.2988939 0.8678722 0.2988939 0.8818913 0.7359468 0.4193657 0.7126951 0.4279459 0.7128768 0.4140937 0.7414885 0.354828 0.7126268 0.3477795 0.7126951 0.3616923 0.7128768 0.3616549 0.7127416 0.3478311 0.7332974 0.3530172 0.3787963 0.8818913 0.3787963 0.8678722 0.3928154 0.8678722 0.2988939 0.8818913 0.2988939 0.8678722 0.3933796 0.8679895 0.2988939 0.9341961 0.2988939 0.9482151 0.3932648 0.9481393 0.3933331 0.9481043 0.2988939 0.9482151 0.2988939 0.934196 0.775378 0.4079923 0.8121566 0.4079923 0.8121566 0.3701755 0.7836353 0.4079923 0.7403994 0.4079923 0.7403994 0.3701755 0.7981084 0.4079923 0.7526476 0.4079923 0.7526476 0.3701755 0.7403994 0.4079923 0.7836353 0.4079923 0.7836353 0.3701755 0.7385994 0.4079923 0.775378 0.4079923 0.775378 0.3701755 0.7385994 0.3973412 0.775378 0.4240624 0.8121566 0.3973412 0.8121566 0.3973412 0.7981084 0.3541053 0.7385994 0.3973412 0.8121566 0.3701755 0.8121566 0.4079923 0.775378 0.4079923 0.7403994 0.3701755 0.7403994 0.4079923 0.7836353 0.4079923 0.7526476 0.3701755 0.7526476 0.4079923 0.7981084 0.4079923 0.7836353 0.3701755 0.7836353 0.4079923 0.7403994 0.4079923 0.775378 0.3701755 0.775378 0.4079923 0.7385994 0.4079923 0.8121566 0.3973412 0.775378 0.4240624 0.7385994 0.3973412 0.7385994 0.3973412 0.7526476 0.3541053 0.8121566 0.3973412 0.8121566 0.3701755 0.8121566 0.4079923 0.775378 0.4079923 0.7403994 0.3701755 0.7403994 0.4079923 0.7836353 0.4079923 0.7526476 0.3701755 0.7526476 0.4079923 0.7981084 0.4079923 0.7836353 0.3701755 0.7836353 0.4079923 0.7403994 0.4079923 0.775378 0.3701755 0.775378 0.4079923 0.7385994 0.4079923 0.8121566 0.3973412 0.775378 0.4240624 0.7981084 0.3541053 0.775378 0.4240624 0.7385994 0.3973412 0.7981084 0.3541053 0.775378 0.4079923 0.8121566 0.4079923 0.8121566 0.3701755 0.7836353 0.4079923 0.7403994 0.4079923 0.7403994 0.3701755 0.7981084 0.4079923 0.7526476 0.4079923 0.7526476 0.3701755 0.7403994 0.4079923 0.7836353 0.4079923 0.7836353 0.3701755 0.7385994 0.4079923 0.775378 0.4079923 0.775378 0.3701755 0.7385994 0.3973412 0.775378 0.4240624 0.7526476 0.3541053 0.775378 0.4240624 0.8121566 0.3973412 0.7526476 0.3541053</float_array>
          <technique_common>
            <accessor source="#semi-automatic_machine-mesh-map-0-array" count="1596" stride="2">
              <param name="S" type="float"/>
              <param name="T" type="float"/>
            </accessor>
          </technique_common>
        </source>
        <vertices id="semi-automatic_machine-mesh-vertices">
          <input semantic="POSITION" source="#semi-automatic_machine-mesh-positions"/>
        </vertices>
        <triangles material="semi-automatic_machine-material" count="532">
          <input semantic="VERTEX" source="#semi-automatic_machine-mesh-vertices" offset="0"/>
          <input semantic="NORMAL" source="#semi-automatic_machine-mesh-normals" offset="1"/>
          <input semantic="TEXCOORD" source="#semi-automatic_machine-mesh-map-0" offset="2" set="0"/>
          <p>34 0 0 33 1 1 12 2 2 1 3 3 16 4 4 4 5 5 5 6 6 18 7 7 19 8 8 41 9 9 17 10 10 55 11 11 38 12 12 4 13 13 41 14 14 45 15 15 6 16 16 42 17 17 37 18 18 7 19 19 43 20 20 3 21 21 6 22 22 9 23 23 1 3 24 7 24 25 0 25 26 31 26 27 15 27 28 32 28 29 3 29 30 47 29 31 39 30 32 35 31 33 11 32 34 3 21 35 44 33 36 12 34 37 48 35 38 28 36 39 29 37 40 33 1 41 25 38 42 20 39 43 24 40 44 12 34 45 67 41 46 48 35 47 27 42 48 22 43 49 23 44 50 50 45 51 25 46 52 63 47 53 19 48 54 54 49 55 53 50 56 37 18 57 16 51 58 0 52 59 57 53 60 22 54 61 58 55 62 47 56 63 23 57 64 57 53 65 27 58 66 62 59 67 61 60 68 22 54 69 61 60 70 58 55 71 65 61 72 30 62 73 66 63 74 51 64 75 31 65 76 65 61 77 34 0 78 10 66 79 33 1 80 35 31 81 9 23 82 13 67 83 50 45 84 28 68 85 14 69 86 51 64 87 64 70 88 50 45 89 64 70 90 29 71 91 28 68 92 64 70 93 66 63 94 67 41 95 59 72 96 24 73 97 21 74 98 58 55 99 60 75 100 59 72 101 24 73 102 63 47 103 25 46 104 60 75 105 62 59 106 63 47 107 46 76 108 20 77 109 10 78 110 47 56 111 56 79 112 46 76 113 56 79 114 21 74 115 20 77 116 56 79 117 58 55 118 59 72 119 19 48 120 36 80 121 2 81 122 53 50 123 37 18 124 36 80 125 16 51 126 55 11 127 17 10 128 52 82 129 54 49 130 55 11 131 51 64 132 26 83 133 15 84 134 50 45 135 62 59 136 51 64 137 49 35 138 30 62 139 13 35 140 48 35 141 66 63 142 49 35 143 45 15 144 13 35 145 9 85 146 44 33 147 49 35 148 45 15 149 38 86 150 10 87 151 1 88 152 39 30 153 46 89 154 38 86 155 36 80 156 6 90 157 2 81 158 36 80 159 43 20 160 42 91 161 7 92 162 44 33 163 43 93 164 44 33 165 42 17 166 43 93 167 5 94 168 39 95 169 40 96 170 40 96 171 38 12 172 41 14 173 5 29 174 54 49 175 18 97 176 40 98 177 55 11 178 54 49 179 69 99 180 70 100 181 68 99 182 71 100 183 72 101 184 70 100 185 73 101 186 74 102 187 72 101 188 75 102 189 76 103 190 74 102 191 77 104 192 78 105 193 76 103 194 79 106 195 68 99 196 78 105 197 76 107 198 83 108 199 74 109 200 80 110 201 91 111 202 85 112 203 70 113 204 82 114 205 81 115 206 78 116 207 84 117 208 76 107 209 68 118 210 81 115 211 80 119 212 72 120 213 83 108 214 82 114 215 68 118 216 85 121 217 78 116 218 90 122 219 91 111 220 92 123 221 84 124 222 89 125 223 83 126 224 82 101 225 87 127 226 81 100 227 85 112 228 90 122 229 84 124 230 83 126 231 88 128 232 82 101 233 81 100 234 86 129 235 80 110 236 88 128 237 89 125 238 92 123 239 86 129 240 87 127 241 92 123 242 91 111 243 86 129 244 92 123 245 89 125 246 90 122 247 92 123 248 87 127 249 88 128 250 92 123 251 94 130 252 95 131 253 93 132 254 96 133 255 97 134 256 95 131 257 98 135 258 99 136 259 97 134 260 100 137 261 101 138 262 99 136 263 102 139 264 93 132 265 101 138 266 95 91 267 97 91 268 99 140 269 109 141 270 106 142 271 105 143 272 109 144 273 103 145 274 107 146 275 108 147 276 106 148 277 110 149 278 104 150 279 107 151 280 103 152 281 105 143 282 106 142 283 112 153 284 104 150 285 103 152 286 111 154 287 105 155 288 111 156 289 103 145 290 106 148 291 111 157 292 112 158 293 109 141 294 116 159 295 110 160 296 113 161 297 109 144 298 107 146 299 116 162 300 108 147 301 110 149 302 107 151 303 114 163 304 113 164 305 115 165 306 118 166 307 116 159 308 114 163 309 117 167 310 113 164 311 117 168 312 115 169 313 113 161 314 116 162 315 117 170 316 114 171 317 119 172 318 122 173 319 121 174 320 122 173 321 123 175 322 121 174 323 124 176 324 125 177 325 123 175 326 122 173 327 130 178 328 129 179 329 126 180 330 127 181 331 125 177 332 127 181 333 120 182 334 119 172 335 133 183 336 135 184 337 130 178 338 126 180 339 131 185 340 132 186 341 126 180 342 133 183 343 128 187 344 124 176 345 129 179 346 131 185 347 128 187 348 130 178 349 120 182 350 135 188 351 137 189 352 136 190 353 132 186 354 136 191 355 137 192 356 129 179 357 135 184 358 134 193 359 132 186 360 138 194 361 133 183 362 131 185 363 134 193 364 136 191 365 141 195 366 140 196 367 139 196 368 143 197 369 142 198 370 141 195 371 145 199 372 144 200 373 143 197 374 147 201 375 146 202 376 145 199 377 149 203 378 148 204 379 147 201 380 139 196 381 150 124 382 149 203 383 154 205 384 147 206 385 145 207 386 162 208 387 151 209 388 156 210 389 141 211 390 153 212 391 143 213 392 155 214 393 149 215 394 147 206 395 139 216 396 152 217 397 141 211 398 143 213 399 154 205 400 145 207 401 156 218 402 139 216 403 149 215 404 161 219 405 163 220 406 162 208 407 160 221 408 155 222 409 154 223 410 158 224 411 153 225 412 152 198 413 161 219 414 156 210 415 155 222 416 159 226 417 154 223 418 153 225 419 157 227 420 152 198 421 151 209 422 159 226 423 163 220 424 160 221 425 157 227 426 163 220 427 158 224 428 162 208 429 163 220 430 157 227 431 160 221 432 163 220 433 161 219 434 158 224 435 163 220 436 159 226 437 166 228 438 165 229 439 164 230 440 168 231 441 167 232 442 166 228 443 170 233 444 169 234 445 168 231 446 172 235 447 171 236 448 170 233 449 164 230 450 173 237 451 172 235 452 172 91 453 168 91 454 166 91 455 180 238 456 177 239 457 181 240 458 174 241 459 180 242 460 178 243 461 177 244 462 179 245 463 181 246 464 178 247 465 175 248 466 174 249 467 176 250 468 183 251 469 177 239 470 175 248 471 182 252 472 174 249 473 182 253 474 176 254 475 174 241 476 177 244 477 182 255 478 175 256 479 180 238 480 187 257 481 186 258 482 180 242 483 184 259 484 178 243 485 181 246 486 185 260 487 187 261 488 185 262 489 178 247 490 184 263 491 186 258 492 187 257 493 189 264 494 185 262 495 184 263 496 188 265 497 186 266 498 188 267 499 184 259 500 187 261 501 188 268 502 189 269 503 190 270 504 193 271 505 191 272 506 194 273 507 193 271 508 192 274 509 196 275 510 195 276 511 194 273 512 193 271 513 201 277 514 191 272 515 198 278 516 197 279 517 196 275 518 198 278 519 191 272 520 199 280 521 206 281 522 204 282 523 201 277 524 197 279 525 202 283 526 195 276 527 204 282 528 197 279 529 199 280 530 195 276 531 200 284 532 193 271 533 201 277 534 199 280 535 191 272 536 207 285 537 209 286 538 206 287 539 203 288 540 207 289 541 202 283 542 200 284 543 206 281 544 201 277 545 209 290 546 203 288 547 204 282 548 202 283 549 205 291 550 200 284 551 211 292 552 212 293 553 210 294 554 212 295 555 217 296 556 216 297 557 216 298 558 215 299 559 214 300 560 215 301 561 210 302 562 214 303 563 210 302 564 221 304 565 214 303 566 218 305 567 223 306 568 219 307 569 212 295 570 220 308 571 218 309 572 212 293 573 219 307 574 210 294 575 216 298 576 221 310 577 220 311 578 223 312 579 229 313 580 225 314 581 219 315 582 225 314 583 221 304 584 218 309 585 224 316 586 222 317 587 220 311 588 225 318 589 224 319 590 229 320 591 232 321 592 228 322 593 222 317 594 228 323 595 226 324 596 224 319 597 229 320 598 228 322 599 222 325 600 227 326 601 223 306 602 233 327 603 236 328 604 232 321 605 227 326 606 230 329 607 231 330 608 229 313 609 231 331 610 233 332 611 228 323 612 230 333 613 226 324 614 237 334 615 239 335 616 241 336 617 231 330 618 234 337 619 235 338 620 233 332 621 235 339 622 237 334 623 232 340 624 234 341 625 230 333 626 238 342 627 241 343 628 239 91 629 236 344 630 238 345 631 234 341 632 237 346 633 240 347 634 236 328 635 235 338 636 238 348 637 239 349 638 244 350 639 243 351 640 242 352 641 244 353 642 249 354 643 245 355 644 248 356 645 247 357 646 249 358 647 242 359 648 247 360 649 246 361 650 253 362 651 242 359 652 246 361 653 255 363 654 250 364 655 251 365 656 244 353 657 252 366 658 248 367 659 251 365 660 244 350 661 242 352 662 248 356 663 253 368 664 246 369 665 261 370 666 255 371 667 257 372 668 257 372 669 251 373 670 253 362 671 250 374 672 256 375 673 252 366 674 252 376 675 257 377 676 253 368 677 264 378 678 261 379 679 260 380 680 254 381 681 260 382 682 256 375 683 256 383 684 261 379 685 257 377 686 259 384 687 254 385 688 255 363 689 268 386 690 265 387 691 264 378 692 259 384 693 262 388 694 258 389 695 261 370 696 263 390 697 259 391 698 262 392 699 260 382 700 258 393 701 269 394 702 271 395 703 267 396 704 263 397 705 266 398 706 262 388 707 265 399 708 267 396 709 263 390 710 266 400 711 264 401 712 262 392 713 271 402 714 272 403 715 270 91 716 270 404 717 268 405 718 266 400 719 272 406 720 269 407 721 268 386 722 267 408 723 270 409 724 266 398 725 275 410 726 276 411 727 274 412 728 277 413 729 278 414 730 276 411 731 279 415 732 280 416 733 278 414 734 281 417 735 282 418 736 280 416 737 283 419 738 274 412 739 282 418 740 278 91 741 280 91 742 282 91 743 286 420 744 285 421 745 284 422 746 288 136 747 287 423 748 286 420 749 290 134 750 289 136 751 288 136 752 292 424 753 291 425 754 290 134 755 284 422 756 293 426 757 292 424 758 290 91 759 288 91 760 286 91 761 296 427 762 295 428 763 294 429 764 298 430 765 297 431 766 296 427 767 300 432 768 299 433 769 298 430 770 302 434 771 301 435 772 300 432 773 294 429 774 303 436 775 302 434 776 302 437 777 300 91 778 298 438 779 305 439 780 306 440 781 304 441 782 307 442 783 308 443 784 306 440 785 309 444 786 310 445 787 308 443 788 311 446 789 312 447 790 310 445 791 313 448 792 304 441 793 312 447 794 306 449 795 308 91 796 310 450 797 12 2 798 8 451 799 34 0 800 8 451 801 1 3 802 34 0 803 0 25 804 16 4 805 1 3 806 16 4 807 17 452 808 4 5 809 19 8 810 2 453 811 3 21 812 3 21 813 5 6 814 19 8 815 41 9 816 4 29 817 17 10 818 38 12 819 1 454 820 4 13 821 45 15 822 9 85 823 6 16 824 37 18 825 0 52 826 7 19 827 3 21 828 2 453 829 6 22 830 1 3 831 8 451 832 7 24 833 15 27 834 11 32 835 32 28 836 32 28 837 13 67 838 30 455 839 30 455 840 31 26 841 32 28 842 3 29 843 11 29 844 47 29 845 35 31 846 32 28 847 11 32 848 44 33 849 8 456 850 12 34 851 29 37 852 12 2 853 33 1 854 33 1 855 10 66 856 14 457 857 14 457 858 28 36 859 33 1 860 25 38 861 14 457 862 10 66 863 10 66 864 20 39 865 25 38 866 20 39 867 21 458 868 24 40 869 12 34 870 29 71 871 67 41 872 23 44 873 11 32 874 26 459 875 11 32 876 15 27 877 26 459 878 26 459 879 27 42 880 23 44 881 50 45 882 14 69 883 25 46 884 19 48 885 18 97 886 54 49 887 37 18 888 52 82 889 16 51 890 57 53 891 23 57 892 22 54 893 47 56 894 11 91 895 23 57 896 27 58 897 26 83 898 62 59 899 22 54 900 27 58 901 61 60 902 65 61 903 31 65 904 30 62 905 51 64 906 15 84 907 31 65 908 34 0 909 1 3 910 10 66 911 13 67 912 32 28 913 35 31 914 35 31 915 3 21 916 9 23 917 50 45 918 64 70 919 28 68 920 51 64 921 65 61 922 64 70 923 64 70 924 67 41 925 29 71 926 64 70 927 65 61 928 66 63 929 59 72 930 60 75 931 24 73 932 58 55 933 61 60 934 60 75 935 24 73 936 60 75 937 63 47 938 60 75 939 61 60 940 62 59 941 46 76 942 56 79 943 20 77 944 47 56 945 57 53 946 56 79 947 56 79 948 59 72 949 21 74 950 56 79 951 57 53 952 58 55 953 19 48 954 53 50 955 36 80 956 53 50 957 52 82 958 37 18 959 16 51 960 52 82 961 55 11 962 52 82 963 53 50 964 54 49 965 51 64 966 62 59 967 26 83 968 50 45 969 63 47 970 62 59 971 49 35 972 66 63 973 30 62 974 48 35 975 67 41 976 66 63 977 45 15 978 49 35 979 13 35 980 44 33 981 48 35 982 49 35 983 38 86 984 46 89 985 10 87 986 39 30 987 47 29 988 46 89 989 36 80 990 42 91 991 6 90 992 36 80 993 37 18 994 43 20 995 7 92 996 8 456 997 44 33 998 44 33 999 45 15 1000 42 17 1001 5 94 1002 3 460 1003 39 95 1004 40 96 1005 39 95 1006 38 12 1007 5 29 1008 40 98 1009 54 49 1010 40 98 1011 41 9 1012 55 11 1013 69 99 1014 71 100 1015 70 100 1016 71 100 1017 73 101 1018 72 101 1019 73 101 1020 75 102 1021 74 102 1022 75 102 1023 77 104 1024 76 103 1025 77 104 1026 79 106 1027 78 105 1028 79 106 1029 69 99 1030 68 99 1031 76 107 1032 84 117 1033 83 108 1034 80 110 1035 86 129 1036 91 111 1037 70 113 1038 72 120 1039 82 114 1040 78 116 1041 85 121 1042 84 117 1043 68 118 1044 70 113 1045 81 115 1046 72 120 1047 74 109 1048 83 108 1049 68 118 1050 80 119 1051 85 121 1052 84 124 1053 90 122 1054 89 125 1055 82 101 1056 88 128 1057 87 127 1058 85 112 1059 91 111 1060 90 122 1061 83 126 1062 89 125 1063 88 128 1064 81 100 1065 87 127 1066 86 129 1067 94 130 1068 96 133 1069 95 131 1070 96 133 1071 98 135 1072 97 134 1073 98 135 1074 100 137 1075 99 136 1076 100 137 1077 102 139 1078 101 138 1079 102 139 1080 94 130 1081 93 132 1082 101 461 1083 93 462 1084 99 140 1085 93 462 1086 95 91 1087 99 140 1088 109 141 1089 110 160 1090 106 142 1091 109 144 1092 105 155 1093 103 145 1094 108 147 1095 104 463 1096 106 148 1097 104 150 1098 108 464 1099 107 151 1100 105 155 1101 112 465 1102 111 156 1103 106 148 1104 104 463 1105 111 157 1106 109 141 1107 115 165 1108 116 159 1109 113 161 1110 115 169 1111 109 144 1112 116 162 1113 114 171 1114 108 147 1115 107 151 1116 108 464 1117 114 163 1118 117 168 1119 118 466 1120 115 169 1121 116 162 1122 118 467 1123 117 170 1124 119 172 1125 120 182 1126 122 173 1127 122 173 1128 124 176 1129 123 175 1130 124 176 1131 126 180 1132 125 177 1133 122 173 1134 120 182 1135 130 178 1136 126 180 1137 128 187 1138 127 181 1139 127 181 1140 128 187 1141 120 182 1142 133 183 1143 138 194 1144 135 184 1145 126 180 1146 124 176 1147 131 185 1148 126 180 1149 132 186 1150 133 183 1151 124 176 1152 122 173 1153 129 179 1154 128 187 1155 133 183 1156 130 178 1157 136 190 1158 134 468 1159 135 188 1160 135 188 1161 138 469 1162 137 189 1163 132 186 1164 131 185 1165 136 191 1166 129 179 1167 130 178 1168 135 184 1169 132 186 1170 137 192 1171 138 194 1172 131 185 1173 129 179 1174 134 193 1175 141 195 1176 142 198 1177 140 196 1178 143 197 1179 144 200 1180 142 198 1181 145 199 1182 146 202 1183 144 200 1184 147 201 1185 148 204 1186 146 202 1187 149 203 1188 150 124 1189 148 204 1190 139 196 1191 140 196 1192 150 124 1193 154 205 1194 155 214 1195 147 206 1196 162 208 1197 157 227 1198 151 209 1199 141 211 1200 152 217 1201 153 212 1202 155 214 1203 156 218 1204 149 215 1205 139 216 1206 151 470 1207 152 217 1208 143 213 1209 153 212 1210 154 205 1211 156 218 1212 151 470 1213 139 216 1214 160 221 1215 161 219 1216 155 222 1217 158 224 1218 159 226 1219 153 225 1220 161 219 1221 162 208 1222 156 210 1223 159 226 1224 160 221 1225 154 223 1226 157 227 1227 158 224 1228 152 198 1229 166 228 1230 167 232 1231 165 229 1232 168 231 1233 169 234 1234 167 232 1235 170 233 1236 171 236 1237 169 234 1238 172 235 1239 173 237 1240 171 236 1241 164 230 1242 165 229 1243 173 237 1244 166 91 1245 164 91 1246 172 91 1247 172 91 1248 170 91 1249 168 91 1250 180 238 1251 176 250 1252 177 239 1253 174 241 1254 176 254 1255 180 242 1256 177 244 1257 175 256 1258 179 245 1259 178 247 1260 179 471 1261 175 248 1262 182 253 1263 183 472 1264 176 254 1265 177 244 1266 183 473 1267 182 255 1268 180 238 1269 181 240 1270 187 257 1271 180 242 1272 186 266 1273 184 259 1274 181 246 1275 179 245 1276 185 260 1277 185 262 1278 179 471 1279 178 247 1280 186 266 1281 189 474 1282 188 267 1283 187 261 1284 185 260 1285 188 268 1286 190 270 1287 192 274 1288 193 271 1289 194 273 1290 195 276 1291 193 271 1292 196 275 1293 197 279 1294 195 276 1295 193 271 1296 200 284 1297 201 277 1298 198 278 1299 199 280 1300 197 279 1301 198 278 1302 190 270 1303 191 272 1304 206 281 1305 209 290 1306 204 282 1307 197 279 1308 203 288 1309 202 283 1310 204 282 1311 203 288 1312 197 279 1313 195 276 1314 202 283 1315 200 284 1316 201 277 1317 204 282 1318 199 280 1319 206 287 1320 205 475 1321 207 285 1322 207 285 1323 208 476 1324 209 286 1325 203 288 1326 208 477 1327 207 289 1328 200 284 1329 205 291 1330 206 281 1331 209 290 1332 208 477 1333 203 288 1334 202 283 1335 207 289 1336 205 291 1337 211 292 1338 213 478 1339 212 293 1340 212 295 1341 213 479 1342 217 296 1343 216 298 1344 217 480 1345 215 299 1346 215 301 1347 211 481 1348 210 302 1349 210 302 1350 219 315 1351 221 304 1352 218 305 1353 222 325 1354 223 306 1355 212 295 1356 216 297 1357 220 308 1358 212 293 1359 218 305 1360 219 307 1361 216 298 1362 214 300 1363 221 310 1364 223 312 1365 227 482 1366 229 313 1367 219 315 1368 223 312 1369 225 314 1370 218 309 1371 220 308 1372 224 316 1373 220 311 1374 221 310 1375 225 318 1376 229 320 1377 233 327 1378 232 321 1379 222 317 1380 224 316 1381 228 323 1382 224 319 1383 225 318 1384 229 320 1385 222 325 1386 226 483 1387 227 326 1388 233 327 1389 237 346 1390 236 328 1391 227 326 1392 226 483 1393 230 329 1394 229 313 1395 227 482 1396 231 331 1397 228 323 1398 232 340 1399 230 333 1400 237 334 1401 235 339 1402 239 335 1403 231 330 1404 230 329 1405 234 337 1406 233 332 1407 231 331 1408 235 339 1409 232 340 1410 236 344 1411 234 341 1412 238 342 1413 240 484 1414 241 343 1415 236 344 1416 240 485 1417 238 345 1418 237 346 1419 241 486 1420 240 347 1421 235 338 1422 234 337 1423 238 348 1424 244 350 1425 245 487 1426 243 351 1427 244 353 1428 248 367 1429 249 354 1430 248 356 1431 246 369 1432 247 357 1433 242 359 1434 243 488 1435 247 360 1436 253 362 1437 251 373 1438 242 359 1439 255 363 1440 254 385 1441 250 364 1442 244 353 1443 250 374 1444 252 366 1445 251 365 1446 250 364 1447 244 350 1448 248 356 1449 252 376 1450 253 368 1451 261 370 1452 259 391 1453 255 371 1454 257 372 1455 255 371 1456 251 373 1457 250 374 1458 254 381 1459 256 375 1460 252 376 1461 256 383 1462 257 377 1463 264 378 1464 265 387 1465 261 379 1466 254 381 1467 258 393 1468 260 382 1469 256 383 1470 260 380 1471 261 379 1472 259 384 1473 258 389 1474 254 385 1475 268 386 1476 269 407 1477 265 387 1478 259 384 1479 263 397 1480 262 388 1481 261 370 1482 265 399 1483 263 390 1484 262 392 1485 264 401 1486 260 382 1487 269 394 1488 273 489 1489 271 395 1490 263 397 1491 267 408 1492 266 398 1493 265 399 1494 269 394 1495 267 396 1496 266 400 1497 268 405 1498 264 401 1499 271 402 1500 273 490 1501 272 403 1502 270 404 1503 272 491 1504 268 405 1505 272 406 1506 273 492 1507 269 407 1508 267 408 1509 271 493 1510 270 409 1511 275 410 1512 277 413 1513 276 411 1514 277 413 1515 279 415 1516 278 414 1517 279 415 1518 281 417 1519 280 416 1520 281 417 1521 283 419 1522 282 418 1523 283 419 1524 275 410 1525 274 412 1526 282 91 1527 274 91 1528 276 91 1529 276 91 1530 278 91 1531 282 91 1532 286 420 1533 287 423 1534 285 421 1535 288 136 1536 289 136 1537 287 423 1538 290 134 1539 291 425 1540 289 136 1541 292 424 1542 293 426 1543 291 425 1544 284 422 1545 285 421 1546 293 426 1547 286 91 1548 284 91 1549 292 91 1550 292 91 1551 290 91 1552 286 91 1553 296 427 1554 297 431 1555 295 428 1556 298 430 1557 299 433 1558 297 431 1559 300 432 1560 301 435 1561 299 433 1562 302 434 1563 303 436 1564 301 435 1565 294 429 1566 295 428 1567 303 436 1568 296 91 1569 294 494 1570 298 438 1571 294 494 1572 302 437 1573 298 438 1574 305 439 1575 307 442 1576 306 440 1577 307 442 1578 309 444 1579 308 443 1580 309 444 1581 311 446 1582 310 445 1583 311 446 1584 313 448 1585 312 447 1586 313 448 1587 305 439 1588 304 441 1589 312 91 1590 304 495 1591 310 450 1592 304 495 1593 306 449 1594 310 450 1595</p>
        </triangles>
      </mesh>
    </geometry>
  </library_geometries>
  <library_visual_scenes>
    <visual_scene id="Scene" name="Scene">
      <node id="semi-automatic_machine" name="semi-automatic_machine" type="NODE">
        <matrix sid="transform">7.1038e-9 0.5957127 0 0 -0.5957127 7.1038e-9 0 0 0 0 0.5957127 0 0 0 0 1</matrix>
        <instance_geometry url="#semi-automatic_machine-mesh" name="semi-automatic_machine">
          <bind_material>
            <technique_common>
              <instance_material symbol="semi-automatic_machine-material" target="#semi-automatic_machine-material">
                <bind_vertex_input semantic="UVMap" input_semantic="TEXCOORD" input_set="0"/>
              </instance_material>
            </technique_common>
          </bind_material>
        </instance_geometry>
      </node>
    </visual_scene>
  </library_visual_scenes>
  <scene>
    <instance_visual_scene url="#Scene"/>
  </scene>
</COLLADA>