<?xml version="1.0" encoding="utf-8"?>
<COLLADA xmlns="http://www.collada.org/2005/11/COLLADASchema" version="1.4.1" xmlns:xsi="http://www.w3.org/2001/XMLSchema-instance">
  <asset>
    <contributor>
      <author>Blender User</author>
      <authoring_tool>Blender 4.0.1 commit date:2023-11-16, commit time:16:40, hash:d0dd92834a08</authoring_tool>
    </contributor>
    <created>2023-11-28T13:53:15</created>
    <modified>2023-11-28T13:53:15</modified>
    <unit name="meter" meter="1"/>
    <up_axis>Z_UP</up_axis>
  </asset>
  <library_effects>
    <effect id="Glass-effect">
      <profile_COMMON>
        <technique sid="common">
          <lambert>
            <emission>
              <color sid="emission">0 0 0 1</color>
            </emission>
            <diffuse>
              <color sid="diffuse">0.8 0.8 0.8 1</color>
            </diffuse>
            <index_of_refraction>
              <float sid="ior">1.45</float>
            </index_of_refraction>
          </lambert>
        </technique>
      </profile_COMMON>
    </effect>
  </library_effects>
  <library_images/>
  <library_materials>
    <material id="Glass-material" name="Glass">
      <instance_effect url="#Glass-effect"/>
    </material>
  </library_materials>
  <library_geometries>
    <geometry id="Support_B_Top-mesh" name="Support_B_Top">
      <mesh>
        <source id="Support_B_Top-mesh-positions">
          <float_array id="Support_B_Top-mesh-positions-array" count="174">0 0.9471997 -0.3145301 0 1.000011 -0.3120099 0.6697713 0.6697713 -0.3145301 0.7071143 0.7071142 -0.3120099 0.9471997 0 -0.3145301 1.000011 0 -0.3120099 0.6697713 -0.6697713 -0.3145301 0.7071143 -0.7071142 -0.3120099 0 -0.9471997 -0.3145301 0 -1.000011 -0.3120099 -0.6697712 -0.6697713 -0.3145301 -0.7071142 -0.7071142 -0.3120099 -0.9471996 0 -0.3145301 -1.00001 0 -0.3120099 -0.6697712 0.6697713 -0.3145301 -0.7071142 0.7071142 -0.3120099 0.590599 0.5905989 0.2100977 0.6253342 0.6253342 0.2387447 0 0.835233 0.2100977 0 0.884356 0.2387447 0.835233 0 0.2100977 0.884356 0 0.2387447 0.590599 -0.590599 0.2100977 0.6253342 -0.6253342 0.2387447 0 -0.835233 0.2100977 0 -0.884356 0.2387447 -0.5905989 -0.5905989 0.2100977 -0.6253342 -0.6253342 0.2387447 -0.835233 0 0.2100977 -0.884356 0 0.2387447 -0.6253342 0.6253342 0.2387447 -0.5905989 0.5905989 0.2100977 0.3632264 0.3632267 0.4295889 0.3785623 0.3785627 0.4769637 -3.87004e-7 0.5136802 0.4295889 -3.66988e-7 0.5353686 0.4769637 0.5136798 0 0.4295889 0.5353682 0 0.4769637 0.3632264 -0.3632267 0.4295889 0.3785623 -0.3785627 0.4769637 -3.66988e-7 -0.5353686 0.4769637 -3.88401e-7 -0.5136802 0.4295889 -0.363227 -0.3632267 0.4295889 -0.3785631 -0.3785627 0.4769637 -0.5136805 0 0.4295889 -0.5353689 0 0.4769637 -0.363227 0.3632267 0.4295889 -0.3785631 0.3785627 0.4769637 -2.92708e-7 1.21775e-7 0.5550876 3.68947e-4 5.84884e-4 0.5046465 -0.06594097 -0.06594049 0.5215539 -0.06594097 -0.06594049 0.6534349 -0.06594097 0.06594049 0.5215539 -0.06594097 0.06594049 0.6534349 0.06594002 -0.06594049 0.5215539 0.06594002 -0.06594049 0.6534349 0.06594002 0.06594049 0.5215539 0.06594002 0.06594049 0.6534349</float_array>
          <technique_common>
            <accessor source="#Support_B_Top-mesh-positions-array" count="58" stride="3">
              <param name="X" type="float"/>
              <param name="Y" type="float"/>
              <param name="Z" type="float"/>
            </accessor>
          </technique_common>
        </source>
        <source id="Support_B_Top-mesh-normals">
          <float_array id="Support_B_Top-mesh-normals-array" count="174">0 -0.4881437 -0.8727633 0.5973417 0.5973415 -0.5351319 -0.3451697 -0.3451699 -0.8727632 -0.488144 0 -0.8727632 0.8447688 0 -0.5351316 0.5973416 -0.5973415 -0.5351319 -0.3451697 0.3451699 -0.8727632 0 0.4881438 -0.8727633 0 -0.8447687 -0.5351316 -0.5973414 -0.5973415 -0.5351322 0.3451701 0.3451701 -0.872763 -0.8447687 0 -0.5351318 0.4881439 0 -0.8727632 -0.5973414 0.5973414 -0.5351325 0.3451701 -0.3451701 -0.872763 0 0.8447687 -0.5351316 -0.2899477 0.2899475 0.9120641 -0.8558005 0 0.517306 -0.410048 0 0.912064 0.2900133 -0.289994 -0.9120284 0.8549245 0 -0.5187525 0.6045229 -0.6045229 -0.5187526 0.8558002 0 0.5173064 0.6051422 0.6051421 0.5173065 -0.6045228 -0.6045228 -0.5187527 -0.8549244 0 -0.5187528 -0.6051423 0.6051424 0.5173062 0 -0.8558003 0.5173063 -0.6051423 -0.6051423 0.5173061 0 0.8549243 -0.5187526 0.6045229 0.604523 -0.5187526 0.6051422 -0.6051422 0.5173064 -0.6045228 0.6045228 -0.5187528 0 0.8558003 0.5173063 0 -0.8549244 -0.5187526 0 0 1 -1.2631e-7 -0.4100477 0.9120641 0.2899473 -0.2899474 0.9120643 -1.14213e-4 -1.80872e-4 -1 -0.2899729 0.2899922 -0.9120419 7.48258e-6 0.4100555 -0.9120607 -0.2899477 -0.2899475 0.9120641 0.289945 0.2899491 -0.9120644 0.4100475 0 0.9120643 -0.4101478 1.17767e-5 -0.9120192 0.2899473 0.2899474 0.9120643 0 0.4100477 0.9120641 -0.2900415 -0.2900372 -0.9120057 7.51008e-6 -0.4101691 -0.9120096 0.4100766 1.17669e-5 -0.9120512 -0.5773503 -0.5773503 0.5773503 -0.7071068 0.7071068 0 -0.7071068 -0.7071068 0 -0.5773503 0.5773503 0.5773503 0.7071068 0.7071068 0 0.5773503 0.5773503 0.5773503 0.7071068 -0.7071068 0 0.5773503 -0.5773503 0.5773503</float_array>
          <technique_common>
            <accessor source="#Support_B_Top-mesh-normals-array" count="58" stride="3">
              <param name="X" type="float"/>
              <param name="Y" type="float"/>
              <param name="Z" type="float"/>
            </accessor>
          </technique_common>
        </source>
        <source id="Support_B_Top-mesh-map-0">
          <float_array id="Support_B_Top-mesh-map-0-array" count="636">0.5 0.9735948 0.8535534 0.8535534 0.8348821 0.8348821 0.9735948 0.5 0.8535534 0.8535534 1 0.5 0.9735948 0.5 0.8535534 0.1464466 0.8348821 0.1651179 0.5 0.02640521 0.8535534 0.1464466 0.5 0 0.5 0.02640521 0.1464466 0.1464466 0.1651179 0.1651179 0.1651179 0.1651179 0 0.5 0.02640521 0.5 0.02640521 0.5 0.1464466 0.8535534 0.1651179 0.8348821 0.5 0.9735948 0.1464466 0.8535534 0.5 1 0.3107205 0.6892793 0.05782663 0.5 0.2323183 0.5 0.3183884 0.6816114 0.08238786 0.5 0.2047036 0.7952963 0.5 0.5346459 0.8535534 0.2592714 0.8126638 0.5346459 0.7952963 0.5203225 0.5 0.2580113 0.5 0.5203225 0.8535534 0.2592714 0.5 0.5346459 0.8126638 0.5346459 0.5 0.5203225 0.8348821 0.2580113 0.7952963 0.5203225 0.1464466 0.2592714 0.5 0.5346459 0.1873362 0.5346459 0.5 0.5203225 0.1651179 0.2580113 0.2047036 0.5203225 0.1464466 0.2592714 0.5 0.5346459 0.1873362 0.5346459 0.5 0.5203225 0.1651179 0.2580113 0.2047036 0.5203225 0.8126637 0.5346459 0.5 0.2592714 0.5 0.5346459 0.7952963 0.5203225 0.5 0.2580113 0.8348821 0.2580113 0.5 0.5346459 0.1464466 0.2592714 0.1873362 0.5346459 0.5 0.5203225 0.1651179 0.2580113 0.5 0.2580113 0.5 0.2592714 0.1873362 0.5346459 0.5 0.5346459 0.2047036 0.5203225 0.5 0.2580113 0.5 0.5203225 0.5 0.2592714 0.8126637 0.5346459 0.5 0.5346459 0.7952963 0.5203225 0.5 0.2580113 0.5 0.5203225 0.4999998 0.5000001 0.4999998 0.2323185 0.6892791 0.3107206 0.5001844 0.5002924 0.6816112 0.3183886 0.4999998 0.2431626 0.1873362 0.1873362 0.4999998 0.2323185 0.3107205 0.3107206 0.4999998 0.2431626 0.2047036 0.2047036 0.3183884 0.3183886 0.8126637 0.1873362 0.7676813 0.5 0.6892791 0.3107206 0.7568371 0.5 0.7952963 0.2047036 0.6816112 0.3183886 0.6892791 0.6892793 0.5 0.9421734 0.4999998 0.7676815 0.6816112 0.6816114 0.5 0.9176121 0.7952963 0.7952963 0.4999998 0.7676815 0.1873362 0.8126638 0.3107205 0.6892793 0.4999998 0.7568374 0.2047036 0.7952963 0.5 0.9176121 0.05782663 0.5 0.3107205 0.3107206 0.2323183 0.5 0.3183884 0.3183886 0.08238786 0.5 0.2431624 0.5 0.5 0.05782663 0.6892791 0.3107206 0.4999998 0.2323185 0.6816112 0.3183886 0.5 0.08238792 0.4999998 0.2431626 0.7676813 0.5 0.8126637 0.8126638 0.6892791 0.6892793 0.7568371 0.5 0.7952963 0.7952963 0.9176121 0.5 0.4999998 0.5000001 0.7676813 0.5 0.6892791 0.6892793 0.5001844 0.5002924 0.6816112 0.6816114 0.7568371 0.5 0.4999998 0.5000001 0.3107205 0.6892793 0.2323183 0.5 0.5001844 0.5002924 0.2431624 0.5 0.3183884 0.6816114 0.4999998 0.5000001 0.3107205 0.3107206 0.4999998 0.2323185 0.5001844 0.5002924 0.4999998 0.2431626 0.3183884 0.3183886 0.4999998 0.5000001 0.6892791 0.3107206 0.7676813 0.5 0.5001844 0.5002924 0.7568371 0.5 0.6816112 0.3183886 0.4999998 0.5000001 0.6892791 0.6892793 0.4999998 0.7676815 0.5001844 0.5002924 0.4999998 0.7568374 0.6816112 0.6816114 0.4999998 0.5000001 0.4999998 0.7676815 0.3107205 0.6892793 0.5001844 0.5002924 0.3183884 0.6816114 0.4999998 0.7568374 0.4999998 0.5000001 0.2323183 0.5 0.3107205 0.3107206 0.5001844 0.5002924 0.3183884 0.3183886 0.2431624 0.5 0.4670301 0.7419887 0.5329699 0.6760489 0.4670301 0.6760489 0.4670298 0.7419887 0.5329697 0.6760489 0.4670298 0.6760489 0.5329699 0.7419887 0.4670301 0.6760489 0.5329699 0.6760489 0.5329697 0.7419887 0.4670298 0.6760489 0.5329697 0.6760489 0.4670298 0.5329699 0.5329697 0.4670301 0.5329697 0.5329699 0.5 0.9735948 0.5 1 0.8535534 0.8535534 0.9735948 0.5 0.8348821 0.8348821 0.8535534 0.8535534 0.9735948 0.5 1 0.5 0.8535534 0.1464466 0.5 0.02640521 0.8348821 0.1651179 0.8535534 0.1464466 0.5 0.02640521 0.5 0 0.1464466 0.1464466 0.1651179 0.1651179 0.1464466 0.1464466 0 0.5 0.02640521 0.5 0 0.5 0.1464466 0.8535534 0.5 0.9735948 0.1651179 0.8348821 0.1464466 0.8535534 0.3107205 0.6892793 0.1873362 0.8126638 0.05782663 0.5 0.3183884 0.6816114 0.2431624 0.5 0.08238786 0.5 0.5 0.5346459 0.5 0.2592714 0.8535534 0.2592714 0.7952963 0.5203225 0.8348821 0.2580113 0.5 0.2580113 0.8535534 0.2592714 0.5 0.2592714 0.5 0.5346459 0.5 0.5203225 0.5 0.2580113 0.8348821 0.2580113 0.1464466 0.2592714 0.5 0.2592714 0.5 0.5346459 0.5 0.5203225 0.5 0.2580113 0.1651179 0.2580113 0.1464466 0.2592714 0.5 0.2592714 0.5 0.5346459 0.5 0.5203225 0.5 0.2580113 0.1651179 0.2580113 0.8126637 0.5346459 0.8535534 0.2592714 0.5 0.2592714 0.7952963 0.5203225 0.5 0.5203225 0.5 0.2580113 0.5 0.5346459 0.5 0.2592714 0.1464466 0.2592714 0.5 0.5203225 0.2047036 0.5203225 0.1651179 0.2580113 0.5 0.2592714 0.1464466 0.2592714 0.1873362 0.5346459 0.2047036 0.5203225 0.1651179 0.2580113 0.5 0.2580113 0.5 0.2592714 0.8535534 0.2592714 0.8126637 0.5346459 0.7952963 0.5203225 0.8348821 0.2580113 0.5 0.2580113 0.1873362 0.1873362 0.5 0.05782663 0.4999998 0.2323185 0.4999998 0.2431626 0.5 0.08238792 0.2047036 0.2047036 0.8126637 0.1873362 0.9421733 0.5 0.7676813 0.5 0.7568371 0.5 0.9176121 0.5 0.7952963 0.2047036 0.6892791 0.6892793 0.8126637 0.8126638 0.5 0.9421734 0.6816112 0.6816114 0.4999998 0.7568374 0.5 0.9176121 0.4999998 0.7676815 0.5 0.9421734 0.1873362 0.8126638 0.4999998 0.7568374 0.3183884 0.6816114 0.2047036 0.7952963 0.05782663 0.5 0.1873362 0.1873362 0.3107205 0.3107206 0.3183884 0.3183886 0.2047036 0.2047036 0.08238786 0.5 0.5 0.05782663 0.8126637 0.1873362 0.6892791 0.3107206 0.6816112 0.3183886 0.7952963 0.2047036 0.5 0.08238792 0.7676813 0.5 0.9421733 0.5 0.8126637 0.8126638 0.7568371 0.5 0.6816112 0.6816114 0.7952963 0.7952963 0.4670301 0.7419887 0.5329699 0.7419887 0.5329699 0.6760489 0.4670298 0.7419887 0.5329697 0.7419887 0.5329697 0.6760489 0.5329699 0.7419887 0.4670301 0.7419887 0.4670301 0.6760489 0.5329697 0.7419887 0.4670298 0.7419887 0.4670298 0.6760489 0.4670298 0.5329699 0.4670298 0.4670301 0.5329697 0.4670301</float_array>
          <technique_common>
            <accessor source="#Support_B_Top-mesh-map-0-array" count="318" stride="2">
              <param name="S" type="float"/>
              <param name="T" type="float"/>
            </accessor>
          </technique_common>
        </source>
        <vertices id="Support_B_Top-mesh-vertices">
          <input semantic="POSITION" source="#Support_B_Top-mesh-positions"/>
        </vertices>
        <triangles material="Glass-material" count="106">
          <input semantic="VERTEX" source="#Support_B_Top-mesh-vertices" offset="0"/>
          <input semantic="NORMAL" source="#Support_B_Top-mesh-normals" offset="1"/>
          <input semantic="TEXCOORD" source="#Support_B_Top-mesh-map-0" offset="2" set="0"/>
          <p>0 0 0 3 1 1 2 2 2 4 3 3 3 1 4 5 4 5 4 3 6 7 5 7 6 6 8 8 7 9 7 5 10 9 8 11 8 7 12 11 9 13 10 10 14 10 10 15 13 11 16 12 12 17 12 12 18 15 13 19 14 14 20 0 0 21 15 13 22 1 15 23 47 16 24 29 17 25 45 18 26 46 19 27 28 20 28 31 21 29 21 22 30 3 1 31 17 23 32 16 24 33 4 3 34 20 25 35 15 13 36 29 17 37 30 26 38 28 20 39 14 14 40 31 21 41 11 9 42 25 27 43 27 28 44 24 29 45 10 10 46 26 30 47 7 5 48 21 22 49 23 31 50 20 25 51 6 6 52 22 32 53 17 23 54 1 15 55 19 33 56 16 24 57 0 0 58 2 2 59 19 33 60 15 13 61 30 26 62 18 34 63 14 14 64 0 0 65 13 11 66 27 28 67 29 17 68 26 30 69 12 12 70 28 20 71 9 8 72 23 31 73 25 27 74 22 32 75 8 7 76 24 29 77 48 35 78 40 36 79 39 37 80 49 38 81 38 39 82 41 40 83 27 28 84 40 36 85 43 41 86 41 40 87 26 30 88 42 42 89 23 31 90 37 43 91 39 37 92 36 44 93 22 32 94 38 39 95 33 45 96 19 33 97 35 46 98 32 47 99 18 34 100 16 24 101 35 46 102 30 26 103 47 16 104 34 48 105 31 21 106 18 34 107 29 17 108 43 41 109 45 18 110 42 42 111 28 20 112 44 49 113 25 27 114 39 37 115 40 36 116 38 39 117 24 29 118 41 40 119 37 43 120 17 23 121 33 45 122 36 44 123 16 24 124 20 25 125 48 35 126 37 43 127 33 45 128 49 38 129 32 47 130 36 44 131 48 35 132 47 16 133 45 18 134 49 38 135 44 49 136 46 19 137 48 35 138 43 41 139 40 36 140 49 38 141 41 40 142 42 42 143 48 35 144 39 37 145 37 43 146 49 38 147 36 44 148 38 39 149 48 35 150 33 45 151 35 46 152 49 38 153 34 48 154 32 47 155 48 35 156 35 46 157 47 16 158 49 38 159 46 19 160 34 48 161 48 35 162 45 18 163 43 41 164 49 38 165 42 42 166 44 49 167 51 50 168 52 51 169 50 52 170 53 53 171 56 54 172 52 51 173 57 55 174 54 56 175 56 54 176 55 57 177 50 52 178 54 56 179 53 53 180 55 57 181 57 55 182 0 0 183 1 15 184 3 1 185 4 3 186 2 2 187 3 1 188 4 3 189 5 4 190 7 5 191 8 7 192 6 6 193 7 5 194 8 7 195 9 8 196 11 9 197 10 10 198 11 9 199 13 11 200 12 12 201 13 11 202 15 13 203 0 0 204 14 14 205 15 13 206 47 16 207 30 26 208 29 17 209 46 19 210 44 49 211 28 20 212 21 22 213 5 4 214 3 1 215 16 24 216 2 2 217 4 3 218 15 13 219 13 11 220 29 17 221 28 20 222 12 12 223 14 14 224 11 9 225 9 8 226 25 27 227 24 29 228 8 7 229 10 10 230 7 5 231 5 4 232 21 22 233 20 25 234 4 3 235 6 6 236 17 23 237 3 1 238 1 15 239 16 24 240 18 34 241 0 0 242 19 33 243 1 15 244 15 13 245 18 34 246 31 21 247 14 14 248 13 11 249 11 9 250 27 28 251 26 30 252 10 10 253 12 12 254 9 8 255 7 5 256 23 31 257 22 32 258 6 6 259 8 7 260 27 28 261 25 27 262 40 36 263 41 40 264 24 29 265 26 30 266 23 31 267 21 22 268 37 43 269 36 44 270 20 25 271 22 32 272 33 45 273 17 23 274 19 33 275 32 47 276 34 48 277 18 34 278 35 46 279 19 33 280 30 26 281 34 48 282 46 19 283 31 21 284 29 17 285 27 28 286 43 41 287 42 42 288 26 30 289 28 20 290 25 27 291 23 31 292 39 37 293 38 39 294 22 32 295 24 29 296 37 43 297 21 22 298 17 23 299 36 44 300 32 47 301 16 24 302 51 50 303 53 53 304 52 51 305 53 53 306 57 55 307 56 54 308 57 55 309 55 57 310 54 56 311 55 57 312 51 50 313 50 52 314 53 53 315 51 50 316 55 57 317</p>
        </triangles>
      </mesh>
    </geometry>
    <geometry id="Support_B-mesh" name="Support_B">
      <mesh>
        <source id="Support_B-mesh-positions">
          <float_array id="Support_B-mesh-positions-array" count="168">0 1 0.4483488 0 1 0.5334413 0.7071068 0.7071068 0.4483488 0.7071068 0.7071068 0.5334413 1 0 0.4483488 1 0 0.5334413 0.7071068 -0.7071068 0.4483488 0.7071068 -0.7071068 0.5334413 0 -1 0.4483488 0 -1 0.5334413 -0.7071068 -0.7071068 0.4483488 -0.7071068 -0.7071068 0.5334413 -1 0 0.4483488 -1 0 0.5334413 -0.7071068 0.7071068 0.4483488 -0.7071068 0.7071068 0.5334413 0 0.5861651 0.4483485 0.4144824 0.4144808 0.4483485 0.5861666 -1.57865e-6 0.4483485 0.4144824 -0.414484 0.4483485 0 -0.5861682 0.4483485 -0.4144824 -0.414484 0.4483485 -0.5861666 -1.57865e-6 0.4483485 -0.4144824 0.4144808 0.4483485 0 0.2985572 0.2987633 0.2111133 0.2111112 0.2987633 0.2985594 -2.15273e-6 0.2987633 0.2111133 -0.2111155 0.2987633 0 -0.2985615 0.2987633 -0.2111133 -0.2111155 0.2987633 -0.2985594 -2.15273e-6 0.2987633 -0.2111133 0.2111112 0.2987633 0 0.1387294 0.127462 0.09809863 0.09809559 0.127462 0.1387324 -3.04242e-6 0.127462 0.09809863 -0.09810167 0.127462 0 -0.1387355 0.127462 -0.09809863 -0.09810167 0.127462 -0.1387324 -3.04242e-6 0.127462 -0.09809863 0.09809559 0.127462 0 0.1387294 -0.2484085 0.09809863 0.09809559 -0.2484085 0.1387324 -3.04242e-6 -0.2484085 0.09809863 -0.09810167 -0.2484085 0 -0.1387355 -0.2484085 -0.09809863 -0.09810167 -0.2484085 -0.1387324 -3.04242e-6 -0.2484085 -0.09809863 0.09809559 -0.2484085 0 0.6011404 -0.3650571 0.4250712 0.4250701 -0.3650571 0.6011415 -1.23385e-6 -0.3650571 0.4250712 -0.4250726 -0.3650571 0 -0.6011428 -0.3650571 -0.4250713 -0.4250726 -0.3650571 -0.6011416 -1.23385e-6 -0.3650571 -0.4250713 0.4250701 -0.3650571</float_array>
          <technique_common>
            <accessor source="#Support_B-mesh-positions-array" count="56" stride="3">
              <param name="X" type="float"/>
              <param name="Y" type="float"/>
              <param name="Z" type="float"/>
            </accessor>
          </technique_common>
        </source>
        <source id="Support_B-mesh-normals">
          <float_array id="Support_B-mesh-normals-array" count="222">0 1 0 0.707107 0.7071067 0 3.90183e-7 1 0 0.7071067 0.7071069 0 1 0 0 1 3.28575e-7 0 0.7071067 -0.7071068 0 0.707107 -0.7071066 0 -3.90183e-7 -1 0 0 -1 0 -0.707107 -0.7071067 0 -0.7071067 -0.7071069 0 -1 0 0 0 0 1 -1 -3.28575e-7 0 -0.7071067 0.7071068 0 -0.707107 0.7071066 0 0 -7.20155e-7 -1 0.1273654 -0.1273653 -0.9836443 4.89257e-7 -5.09226e-7 -1 0.1801215 0 -0.9836444 0.4080502 0.4080502 -0.8166947 0.1273649 0.127365 -0.9836444 -5.1127e-7 0 -1 -0.1273649 0.127365 -0.9836444 -0.1801215 0 -0.9836444 5.1127e-7 0 -1 4.69271e-7 5.09224e-7 -1 -0.1273654 -0.1273653 -0.9836443 0 -0.1801218 -0.9836443 -4.69271e-7 5.09224e-7 -1 0 0.1801213 -0.9836444 0 7.2015e-7 -1 -4.89257e-7 -5.09226e-7 -1 -0.4080502 0.4080502 -0.8166947 0 0.9159902 -0.4012008 -0.6477034 0.6477028 -0.4012002 -0.5770712 0 -0.8166939 -0.4080516 -0.4080516 -0.8166932 0 -0.5770726 -0.8166929 0.5770712 0 -0.816694 0 0.5770697 -0.8166949 0.4080516 -0.4080516 -0.8166933 -0.6477035 -0.6477039 -0.4011982 0 -1 0 0 -0.9159916 -0.4011977 -0.915991 -5.53903e-7 -0.4011992 0.6477034 -0.6477039 -0.4011981 0.6477034 0.6477028 -0.4012003 0.915991 -5.38933e-7 -0.4011992 -0.172958 0.1729576 0.9696242 -0.2446 1.94978e-7 0.9696242 -0.2446001 -3.70416e-7 0.9696241 1 0 0 0.7071069 0.7071067 0 0 1 0 -0.7071069 0.7071067 0 -0.7071069 -0.7071067 0 0.7071069 -0.7071067 0 -1 0 0 0 0 -1 -0.1729587 -0.1729589 0.969624 0 -0.2446009 0.9696239 0 -0.2446009 0.9696239 0.2446002 -3.68497e-7 0.9696241 0.1729589 -0.1729587 0.9696239 0.2446001 2.20137e-7 0.9696241 0 0.2445991 0.9696244 0.1729578 0.172958 0.9696242 0 0.2445991 0.9696244 -0.1729578 0.172958 0.9696242 -0.1729589 -0.1729587 0.9696239 0.1729587 -0.172959 0.969624 0.1729581 0.1729577 0.9696243</float_array>
          <technique_common>
            <accessor source="#Support_B-mesh-normals-array" count="74" stride="3">
              <param name="X" type="float"/>
              <param name="Y" type="float"/>
              <param name="Z" type="float"/>
            </accessor>
          </technique_common>
        </source>
        <source id="Support_B-mesh-map-0">
          <float_array id="Support_B-mesh-map-0-array" count="648">0.5 0.7725076 0.8535496 0.7299618 0.5 0.7299618 0.8535496 0.7725076 0.5 0.7299618 0.8535496 0.7299618 0.5 0.7725076 0.1464504 0.7299618 0.5 0.7299618 0.8535496 0.7725076 0.5 0.7299618 0.8535496 0.7299618 0.5 0.7725076 0.1464504 0.7299618 0.5 0.7299618 0.1464504 0.7725076 0.5 0.7299618 0.1464504 0.7299618 5.30481e-6 0.5 0.5 5.30481e-6 0.9999947 0.5 0.5 0.7725076 0.8535496 0.7299618 0.5 0.7299618 0.1464504 0.7725076 0.5 0.7299618 0.1464504 0.7299618 0.5 5.30481e-6 0.707239 0.2927602 0.8535496 0.1464504 0.7930802 0.4999992 0.6055555 0.6055545 0.707239 0.7072382 5.30481e-6 0.5 0.292761 0.7072382 0.2069197 0.4999992 0.9999947 0.5 0.707239 0.7072382 0.8535496 0.8535496 0.5 5.30481e-6 0.292761 0.2927602 0.5 0.206919 0.1464504 0.8535496 0.5 0.7930794 0.292761 0.7072382 0.8535496 0.8535496 0.5 0.7930794 0.5 0.9999947 0.8535496 0.1464504 0.7930802 0.4999992 0.9999947 0.5 0.1464504 0.1464504 0.2069197 0.4999992 0.292761 0.2927602 0.3944444 0.6551699 0.5 0.5695201 0.4509512 0.5695201 0.2069197 0.4999992 0.3944444 0.6055545 0.3507219 0.4999989 0.5 0.206919 0.3944444 0.3944433 0.5 0.3507208 0.707239 0.2927602 0.6492781 0.4999989 0.7930802 0.4999992 0.707239 0.7072382 0.5 0.649277 0.5 0.7930794 0.292761 0.7072382 0.5 0.649277 0.3944444 0.6055545 0.292761 0.2927602 0.3507219 0.4999989 0.3944444 0.3944433 0.5 0.206919 0.6055555 0.3944433 0.707239 0.2927602 0.4509512 0.5695201 0.5 0.2858161 0.5 0.5695201 0.3944433 0.6551699 0.4999985 0.5695201 0.4509497 0.5695201 0.5 0.6551699 0.5490488 0.5695201 0.6055555 0.6551699 0.4999989 0.6551699 0.5490473 0.5695201 0.6055545 0.6551699 0.4999989 0.6551699 0.5490473 0.5695201 0.4999985 0.5695201 0.5 0.6551699 0.4509512 0.5695201 0.5 0.5695201 0.3944433 0.6551699 0.4999985 0.5695201 0.4999989 0.6551699 0.6055555 0.6551699 0.5 0.5695201 0.5 0.6551699 0.4509512 0.5490473 0.2268394 0.4999996 0.4306345 0.4999985 0.4509497 0.5695201 0.4999985 0.2858161 0.4999985 0.5695201 0.5 0.5695201 0.5490488 0.2858161 0.5 0.2858161 0.4509512 0.5695201 0.5 0.2858161 0.4509512 0.2858161 0.4999985 0.5695201 0.4509497 0.2858161 0.4509497 0.5695201 0.5 0.5695201 0.5490488 0.2858161 0.5490488 0.5695201 0.5490473 0.5695201 0.4999985 0.2858161 0.5490473 0.2858161 0.4999985 0.5695201 0.5490473 0.2858161 0.4999985 0.2858161 0.6931536 0.306846 0.3068463 0.306846 0.3068463 0.6931533 0.4509512 0.4509497 0.5 0.226839 0.5 0.430633 0.5693655 0.4999985 0.6931536 0.306846 0.7731605 0.4999996 0.5 0.569364 0.6931536 0.6931533 0.5 0.7731602 0.5 0.569364 0.3068463 0.6931533 0.4509512 0.5490473 0.4306345 0.4999985 0.3068463 0.306846 0.4509512 0.4509497 0.5490488 0.4509497 0.5 0.226839 0.6931536 0.306846 0.5490488 0.5490473 0.7731605 0.4999996 0.6931536 0.6931533 0.5 0.7725076 0.8535496 0.7725076 0.8535496 0.7299618 0.8535496 0.7725076 0.5 0.7725076 0.5 0.7299618 0.5 0.7725076 0.1464504 0.7725076 0.1464504 0.7299618 0.8535496 0.7725076 0.5 0.7725076 0.5 0.7299618 0.5 0.7725076 0.1464504 0.7725076 0.1464504 0.7299618 0.1464504 0.7725076 0.5 0.7725076 0.5 0.7299618 0.9999947 0.5 0.8535496 0.8535496 0.5 0.9999947 0.5 0.9999947 0.1464504 0.8535496 5.30481e-6 0.5 5.30481e-6 0.5 0.1464504 0.1464504 0.5 5.30481e-6 0.5 5.30481e-6 0.8535496 0.1464504 0.9999947 0.5 0.9999947 0.5 0.5 0.9999947 5.30481e-6 0.5 0.5 0.7725076 0.8535496 0.7725076 0.8535496 0.7299618 0.1464504 0.7725076 0.5 0.7725076 0.5 0.7299618 0.5 5.30481e-6 0.5 0.206919 0.707239 0.2927602 0.7930802 0.4999992 0.6492781 0.4999989 0.6055555 0.6055545 5.30481e-6 0.5 0.1464504 0.8535496 0.292761 0.7072382 0.9999947 0.5 0.7930802 0.4999992 0.707239 0.7072382 0.5 5.30481e-6 0.1464504 0.1464504 0.292761 0.2927602 0.1464504 0.8535496 0.5 0.9999947 0.5 0.7930794 0.8535496 0.8535496 0.707239 0.7072382 0.5 0.7930794 0.8535496 0.1464504 0.707239 0.2927602 0.7930802 0.4999992 0.1464504 0.1464504 5.30481e-6 0.5 0.2069197 0.4999992 0.3944444 0.6551699 0.5 0.6551699 0.5 0.5695201 0.2069197 0.4999992 0.292761 0.7072382 0.3944444 0.6055545 0.5 0.206919 0.292761 0.2927602 0.3944444 0.3944433 0.707239 0.2927602 0.6055555 0.3944433 0.6492781 0.4999989 0.707239 0.7072382 0.6055555 0.6055545 0.5 0.649277 0.292761 0.7072382 0.5 0.7930794 0.5 0.649277 0.292761 0.2927602 0.2069197 0.4999992 0.3507219 0.4999989 0.5 0.206919 0.5 0.3507208 0.6055555 0.3944433 0.4509512 0.5695201 0.4509512 0.2858161 0.5 0.2858161 0.3944433 0.6551699 0.4999989 0.6551699 0.4999985 0.5695201 0.5 0.6551699 0.5 0.5695201 0.5490488 0.5695201 0.4999989 0.6551699 0.4999985 0.5695201 0.5490473 0.5695201 0.4999989 0.6551699 0.6055545 0.6551699 0.5490473 0.5695201 0.5 0.6551699 0.3944444 0.6551699 0.4509512 0.5695201 0.3944433 0.6551699 0.4509497 0.5695201 0.4999985 0.5695201 0.6055555 0.6551699 0.5490488 0.5695201 0.5 0.5695201 0.4509512 0.5490473 0.3068463 0.6931533 0.2268394 0.4999996 0.4509497 0.5695201 0.4509497 0.2858161 0.4999985 0.2858161 0.5 0.5695201 0.5490488 0.5695201 0.5490488 0.2858161 0.4509512 0.5695201 0.5 0.5695201 0.5 0.2858161 0.4999985 0.5695201 0.4999985 0.2858161 0.4509497 0.2858161 0.5 0.5695201 0.5 0.2858161 0.5490488 0.2858161 0.5490473 0.5695201 0.4999985 0.5695201 0.4999985 0.2858161 0.4999985 0.5695201 0.5490473 0.5695201 0.5490473 0.2858161 0.3068463 0.6931533 0.5 0.7731602 0.6931536 0.6931533 0.6931536 0.6931533 0.7731605 0.4999996 0.6931536 0.306846 0.6931536 0.306846 0.5 0.226839 0.3068463 0.306846 0.3068463 0.306846 0.2268394 0.4999996 0.3068463 0.6931533 0.3068463 0.6931533 0.6931536 0.6931533 0.6931536 0.306846 0.4509512 0.4509497 0.3068463 0.306846 0.5 0.226839 0.5693655 0.4999985 0.5490488 0.4509497 0.6931536 0.306846 0.5 0.569364 0.5490488 0.5490473 0.6931536 0.6931533 0.5 0.569364 0.5 0.7731602 0.3068463 0.6931533 0.4306345 0.4999985 0.2268394 0.4999996 0.3068463 0.306846 0.5490488 0.4509497 0.5 0.430633 0.5 0.226839 0.5490488 0.5490473 0.5693655 0.4999985 0.7731605 0.4999996</float_array>
          <technique_common>
            <accessor source="#Support_B-mesh-map-0-array" count="324" stride="2">
              <param name="S" type="float"/>
              <param name="T" type="float"/>
            </accessor>
          </technique_common>
        </source>
        <vertices id="Support_B-mesh-vertices">
          <input semantic="POSITION" source="#Support_B-mesh-positions"/>
        </vertices>
        <triangles material="Glass-material" count="108">
          <input semantic="VERTEX" source="#Support_B-mesh-vertices" offset="0"/>
          <input semantic="NORMAL" source="#Support_B-mesh-normals" offset="1"/>
          <input semantic="TEXCOORD" source="#Support_B-mesh-map-0" offset="2" set="0"/>
          <p>1 0 0 2 1 1 0 2 2 3 3 3 4 4 4 2 1 5 5 5 6 6 6 7 4 4 8 7 7 9 8 8 10 6 6 11 9 9 12 10 10 13 8 8 14 11 11 15 12 12 16 10 10 17 13 13 18 9 13 19 5 13 20 13 14 21 14 15 22 12 12 23 15 16 24 0 2 25 14 15 26 8 17 27 19 18 28 6 19 29 18 20 30 25 21 31 17 22 32 12 23 33 23 24 34 22 25 35 4 26 36 17 22 37 2 27 38 8 17 39 21 28 40 20 29 41 14 30 42 16 31 43 23 24 44 2 27 45 16 31 46 0 32 47 6 19 48 18 20 49 4 26 50 10 33 51 22 25 52 21 28 53 31 34 54 32 35 55 39 36 56 22 25 57 31 34 58 30 37 59 20 29 60 29 38 61 28 39 62 19 18 63 26 40 64 18 20 65 17 22 66 24 41 67 16 31 68 23 24 69 24 41 70 31 34 71 21 28 72 30 37 73 29 38 74 20 29 75 27 42 76 19 18 77 37 43 78 44 44 79 36 45 80 29 38 81 38 46 82 37 43 83 28 39 84 35 47 85 27 42 86 26 40 87 33 48 88 25 21 89 30 37 90 39 36 91 38 46 92 28 39 93 37 43 94 36 45 95 27 42 96 34 49 97 26 40 98 25 21 99 32 35 100 24 41 101 47 50 102 54 51 103 46 52 104 35 47 105 42 53 106 34 49 107 32 35 108 41 54 109 40 55 110 39 36 111 40 55 112 47 56 113 38 46 114 45 57 115 37 43 116 36 45 117 43 58 118 35 47 119 33 48 120 42 53 121 41 54 122 38 46 123 47 56 124 46 59 125 51 60 126 53 60 127 55 60 128 45 61 129 52 62 130 44 63 131 42 64 132 51 65 133 50 66 134 40 67 135 49 68 136 48 69 137 40 67 138 55 70 139 47 50 140 46 52 141 53 71 142 45 61 143 43 72 144 52 62 145 51 65 146 41 73 147 50 66 148 49 68 149 1 0 150 3 3 151 2 1 152 3 3 153 5 5 154 4 4 155 5 5 156 7 7 157 6 6 158 7 7 159 9 9 160 8 8 161 9 9 162 11 11 163 10 10 164 11 11 165 13 14 166 12 12 167 5 13 168 3 13 169 1 13 170 1 13 171 15 13 172 13 13 173 13 13 174 11 13 175 9 13 176 9 13 177 7 13 178 5 13 179 5 13 180 1 13 181 13 13 182 13 14 183 15 16 184 14 15 185 15 16 186 1 0 187 0 2 188 8 17 189 20 29 190 19 18 191 18 20 192 26 40 193 25 21 194 12 23 195 14 30 196 23 24 197 4 26 198 18 20 199 17 22 200 8 17 201 10 33 202 21 28 203 14 30 204 0 32 205 16 31 206 2 27 207 17 22 208 16 31 209 6 19 210 19 18 211 18 20 212 10 33 213 12 23 214 22 25 215 31 34 216 24 41 217 32 35 218 22 25 219 23 24 220 31 34 221 20 29 222 21 28 223 29 38 224 19 18 225 27 42 226 26 40 227 17 22 228 25 21 229 24 41 230 23 24 231 16 31 232 24 41 233 21 28 234 22 25 235 30 37 236 20 29 237 28 39 238 27 42 239 37 43 240 45 57 241 44 44 242 29 38 243 30 37 244 38 46 245 28 39 246 36 45 247 35 47 248 26 40 249 34 49 250 33 48 251 30 37 252 31 34 253 39 36 254 28 39 255 29 38 256 37 43 257 27 42 258 35 47 259 34 49 260 25 21 261 33 48 262 32 35 263 47 50 264 55 70 265 54 51 266 35 47 267 43 58 268 42 53 269 32 35 270 33 48 271 41 54 272 39 36 273 32 35 274 40 55 275 38 46 276 46 59 277 45 57 278 36 45 279 44 44 280 43 58 281 33 48 282 34 49 283 42 53 284 38 46 285 39 36 286 47 56 287 55 60 288 48 60 289 49 60 290 49 60 291 50 60 292 51 60 293 51 60 294 52 60 295 53 60 296 53 60 297 54 60 298 55 60 299 55 60 300 49 60 301 51 60 302 45 61 303 53 71 304 52 62 305 42 64 306 43 72 307 51 65 308 40 67 309 41 73 310 49 68 311 40 67 312 48 69 313 55 70 314 46 52 315 54 51 316 53 71 317 43 72 318 44 63 319 52 62 320 41 73 321 42 64 322 50 66 323</p>
        </triangles>
      </mesh>
    </geometry>
  </library_geometries>
  <library_visual_scenes>
    <visual_scene id="Scene" name="Scene">
      <node id="Support_B" name="Support_B" type="NODE">
        <matrix sid="transform">-0.2800153 9.12406e-8 0 0 -9.12406e-8 -0.2800153 0 0 0 0 0.2800153 0 0 0 0 1</matrix>
        <instance_geometry url="#Support_B-mesh" name="Support_B">
          <bind_material>
            <technique_common>
              <instance_material symbol="Glass-material" target="#Glass-material">
                <bind_vertex_input semantic="UVMap" input_semantic="TEXCOORD" input_set="0"/>
              </instance_material>
            </technique_common>
          </bind_material>
        </instance_geometry>
        <node id="Support_B_Top" name="Support_B_Top" type="NODE">
          <matrix sid="transform">0.9447684 0 0 8.87799e-12 0 0.9447684 0 2.72463e-5 0 0 0.9447684 0.8042167 0 0 0 1</matrix>
          <instance_geometry url="#Support_B_Top-mesh" name="Support_B_Top">
            <bind_material>
              <technique_common>
                <instance_material symbol="Glass-material" target="#Glass-material">
                  <bind_vertex_input semantic="UVMap" input_semantic="TEXCOORD" input_set="0"/>
                </instance_material>
              </technique_common>
            </bind_material>
          </instance_geometry>
        </node>
      </node>
    </visual_scene>
  </library_visual_scenes>
  <scene>
    <instance_visual_scene url="#Scene"/>
  </scene>
</COLLADA>