<?xml version="1.0" encoding="utf-8"?>
<COLLADA xmlns="http://www.collada.org/2005/11/COLLADASchema" version="1.4.1" xmlns:xsi="http://www.w3.org/2001/XMLSchema-instance">
  <asset>
    <contributor>
      <author>Blender User</author>
      <authoring_tool>Blender 4.0.1 commit date:2023-11-16, commit time:16:40, hash:d0dd92834a08</authoring_tool>
    </contributor>
    <created>2023-11-28T12:55:39</created>
    <modified>2023-11-28T12:55:39</modified>
    <unit name="meter" meter="1"/>
    <up_axis>Z_UP</up_axis>
  </asset>
  <library_effects>
    <effect id="Store_09-effect">
      <profile_COMMON>
        <newparam sid="Store_09_jpg-surface">
          <surface type="2D">
            <init_from>Store_09_jpg</init_from>
          </surface>
        </newparam>
        <newparam sid="Store_09_jpg-sampler">
          <sampler2D>
            <source>Store_09_jpg-surface</source>
          </sampler2D>
        </newparam>
        <technique sid="common">
          <lambert>
            <emission>
              <color sid="emission">0 0 0 1</color>
            </emission>
            <diffuse>
              <texture texture="Store_09_jpg-sampler" texcoord="UVMap"/>
            </diffuse>
            <index_of_refraction>
              <float sid="ior">1.45</float>
            </index_of_refraction>
          </lambert>
        </technique>
      </profile_COMMON>
    </effect>
    <effect id="BrickSmallBrown_01-effect">
      <profile_COMMON>
        <newparam sid="BrickSmallBrown_01_jpg-surface">
          <surface type="2D">
            <init_from>BrickSmallBrown_01_jpg</init_from>
          </surface>
        </newparam>
        <newparam sid="BrickSmallBrown_01_jpg-sampler">
          <sampler2D>
            <source>BrickSmallBrown_01_jpg-surface</source>
          </sampler2D>
        </newparam>
        <technique sid="common">
          <lambert>
            <emission>
              <color sid="emission">0 0 0 1</color>
            </emission>
            <diffuse>
              <texture texture="BrickSmallBrown_01_jpg-sampler" texcoord="UVMap"/>
            </diffuse>
            <index_of_refraction>
              <float sid="ior">1.45</float>
            </index_of_refraction>
          </lambert>
        </technique>
      </profile_COMMON>
    </effect>
    <effect id="HighRiseResidential-effect">
      <profile_COMMON>
        <newparam sid="HighRiseResidential_jpg-surface">
          <surface type="2D">
            <init_from>HighRiseResidential_jpg</init_from>
          </surface>
        </newparam>
        <newparam sid="HighRiseResidential_jpg-sampler">
          <sampler2D>
            <source>HighRiseResidential_jpg-surface</source>
          </sampler2D>
        </newparam>
        <technique sid="common">
          <lambert>
            <emission>
              <color sid="emission">0 0 0 1</color>
            </emission>
            <diffuse>
              <texture texture="HighRiseResidential_jpg-sampler" texcoord="UVMap"/>
            </diffuse>
            <index_of_refraction>
              <float sid="ior">1.45</float>
            </index_of_refraction>
          </lambert>
        </technique>
      </profile_COMMON>
    </effect>
    <effect id="Rooftiles-effect">
      <profile_COMMON>
        <newparam sid="Rooftiles_png-surface">
          <surface type="2D">
            <init_from>Rooftiles_png</init_from>
          </surface>
        </newparam>
        <newparam sid="Rooftiles_png-sampler">
          <sampler2D>
            <source>Rooftiles_png-surface</source>
          </sampler2D>
        </newparam>
        <technique sid="common">
          <lambert>
            <emission>
              <color sid="emission">0 0 0 1</color>
            </emission>
            <diffuse>
              <texture texture="Rooftiles_png-sampler" texcoord="UVMap"/>
            </diffuse>
            <index_of_refraction>
              <float sid="ior">1.45</float>
            </index_of_refraction>
          </lambert>
        </technique>
      </profile_COMMON>
    </effect>
  </library_effects>
  <library_images>
    <image id="BrickSmallBrown_01_jpg" name="BrickSmallBrown_01_jpg">
      <init_from>BrickSmallBrown_01.jpg</init_from>
    </image>
    <image id="HighRiseResidential_jpg" name="HighRiseResidential_jpg">
      <init_from>HighRiseResidential.jpg</init_from>
    </image>
    <image id="Rooftiles_png" name="Rooftiles_png">
      <init_from>Rooftiles.png</init_from>
    </image>
    <image id="Store_09_jpg" name="Store_09_jpg">
      <init_from>Store_09.jpg</init_from>
    </image>
  </library_images>
  <library_materials>
    <material id="Store_09-material" name="Store_09">
      <instance_effect url="#Store_09-effect"/>
    </material>
    <material id="BrickSmallBrown_01-material" name="BrickSmallBrown_01">
      <instance_effect url="#BrickSmallBrown_01-effect"/>
    </material>
    <material id="HighRiseResidential-material" name="HighRiseResidential">
      <instance_effect url="#HighRiseResidential-effect"/>
    </material>
    <material id="Rooftiles-material" name="Rooftiles">
      <instance_effect url="#Rooftiles-effect"/>
    </material>
  </library_materials>
  <library_geometries>
    <geometry id="Building_05-mesh" name="Building_05">
      <mesh>
        <source id="Building_05-mesh-positions">
          <float_array id="Building_05-mesh-positions-array" count="366">-4.080737 -3.984108 -4.271527 -4.080737 -3.984108 -0.8910543 -4.080737 3.984107 -4.271527 -4.080737 3.984107 -0.8910543 3.847492 -3.984108 -4.271527 3.847492 -3.984108 -0.8928492 3.847492 3.984107 -4.271527 3.847492 3.984107 -0.8928492 -4.080737 -3.984108 -1.550988 -4.080737 3.984107 -1.550988 3.847492 3.984107 -1.575313 3.847492 -3.984108 -1.575313 3.988763 3.984107 -0.8928492 3.988763 -3.984108 -0.8928492 3.988763 3.984107 -1.575313 3.988763 -3.984108 -1.575313 -4.080737 -4.628829 -1.550988 -4.080737 -4.628829 -0.8928492 -4.080737 4.628828 -1.550988 -4.080737 4.628828 -4.271527 3.847492 4.628828 -4.271527 -4.080737 4.628828 -0.8928492 3.847492 4.628828 -0.8928492 3.847492 4.628828 -1.575313 3.847492 -4.628829 -1.575313 3.847492 -4.628829 -4.271527 -4.080737 -4.628829 -4.271527 3.847492 -4.628829 -0.8928492 3.140821 3.984107 -4.271527 -3.374058 3.984107 -4.271527 -3.374058 -3.984108 -4.271527 3.140821 -3.984108 -4.271527 3.140821 4.628828 -4.271527 -3.374058 4.628828 -4.271527 -3.374058 4.628828 -0.8928492 3.140821 4.628828 -0.8928492 -3.374058 -4.628829 -4.271527 3.140821 -4.628829 -4.271527 3.140821 -4.628829 -0.8928492 -3.374058 -4.628829 -0.8928492 3.140821 -4.628829 -1.567204 -3.374058 -4.628829 -1.559096 -3.374058 4.628828 -1.559096 3.140821 4.628828 -1.567204 4.05954 3.984107 -1.575313 4.05954 3.984107 -4.271527 4.05954 -3.984108 -1.575313 4.05954 -3.984108 -4.271527 4.05954 3.984107 -0.8928492 4.05954 -3.984108 -0.8928492 4.05954 4.628828 -1.575313 4.05954 4.628828 -4.271527 4.05954 -4.628829 -1.575313 4.05954 -4.628829 -4.271527 4.05954 4.628828 -0.8928492 4.05954 -4.628829 -0.8928492 -4.080737 -3.984108 -0.6703092 -4.080737 3.984107 -0.6703092 -4.080737 -4.628829 -0.6703092 3.140821 4.628828 -0.6703092 3.847492 4.628828 -0.6703092 -3.374058 -4.628829 -0.6703092 3.847492 -4.628829 -0.6703092 -4.080737 4.628828 -0.6703092 -3.374058 4.628828 -0.6703092 3.140821 -4.628829 -0.6703092 4.05954 -3.984108 -0.6703092 4.05954 -4.628829 -0.6703092 4.05954 3.984107 -0.6703092 4.05954 4.628828 -0.6703092 4.05954 3.984107 4.110998 4.05954 -3.984108 4.110998 -4.080737 -3.984108 4.110998 -4.080737 3.984107 4.110998 -4.080737 -4.628829 4.110998 3.140821 4.628828 4.110998 3.847492 4.628828 4.110998 -3.374058 -4.628829 4.110998 3.847492 -4.628829 4.110998 -4.080737 4.628828 4.110998 -3.374058 4.628828 4.110998 3.140821 -4.628829 4.110998 4.05954 -4.628829 4.110998 4.05954 4.628828 4.110998 4.05954 3.984107 4.309241 4.05954 -3.984108 4.309241 -4.080737 -3.984108 4.309241 -4.080737 3.984107 4.309241 -4.080737 -4.628829 4.309241 3.140821 4.628828 4.309241 3.847492 4.628828 4.309241 -3.374058 -4.628829 4.309241 3.847492 -4.628829 4.309241 -4.080737 4.628828 4.309241 -3.374058 4.628828 4.309241 3.140821 -4.628829 4.309241 4.05954 -4.628829 4.309241 4.05954 4.628828 4.309241 3.95307 3.984107 -0.6703092 3.95307 -3.984108 -0.6703092 3.95307 3.984107 4.110998 3.95307 -3.984108 4.110998 3.95307 3.984107 4.309241 3.95307 -3.984108 4.309241 3.140821 -4.477905 4.110998 3.140821 -4.477905 -0.6703091 -3.374058 4.477904 4.110998 -3.374058 4.477904 -0.6703091 3.140821 4.477904 -0.6703091 -3.374058 -4.477905 -0.6703091 -3.374058 -4.477905 4.110998 3.140821 4.477904 4.110998 -3.374058 4.477904 4.309241 3.140821 4.477904 4.309241 -3.374058 -4.477905 4.309241 3.140821 -4.477905 4.309241 -3.983818 -3.984108 -0.6703092 -3.983818 3.984107 -0.6703092 -3.983818 3.984107 4.110998 -3.983818 -3.984108 4.110998 -3.983818 -3.984108 4.309241 -3.983818 3.984107 4.309241</float_array>
          <technique_common>
            <accessor source="#Building_05-mesh-positions-array" count="122" stride="3">
              <param name="X" type="float"/>
              <param name="Y" type="float"/>
              <param name="Z" type="float"/>
            </accessor>
          </technique_common>
        </source>
        <source id="Building_05-mesh-normals">
          <float_array id="Building_05-mesh-normals-array" count="66">-1 0 0 0 -1 0 0 0 -1 1 0 0 -1 9.30287e-7 0 0 1 0 0 0 1 -1 1.03772e-6 0 0 -7.89865e-7 1 0 7.89865e-7 1 1 -1.11478e-6 0 -1 -9.30287e-7 0 -1 -3.98432e-6 0 -1 5.28635e-6 0 -1 3.98433e-6 0 -1 -5.28635e-6 0 -1.01124e-6 0 1 1.1788e-6 0 1 -7.21056e-7 0 1 -5.05618e-7 0 1 1.0813e-6 0 1 1.0813e-6 0 1</float_array>
          <technique_common>
            <accessor source="#Building_05-mesh-normals-array" count="22" stride="3">
              <param name="X" type="float"/>
              <param name="Y" type="float"/>
              <param name="Z" type="float"/>
            </accessor>
          </technique_common>
        </source>
        <source id="Building_05-mesh-map-0">
          <float_array id="Building_05-mesh-map-0-array" count="1404">-0.7712625 0.1704478 1.771262 -0.04012608 -0.7712625 -0.04012608 -0.7712625 -0.9082047 -0.9769819 -0.04012608 -0.7712625 -0.04012608 -0.5732238 0.1698751 -0.7987137 -0.04012608 -0.5732238 -0.04271322 1.771262 0.1704478 1.976982 0.2408839 1.976982 0.1698751 0.8240599 1.408916 0.7359941 -0.9494659 0.7359942 1.408916 0.8240599 1.599737 0.8504855 1.408917 0.8240599 1.408916 0.9962354 0.7980087 0.003232002 0 0.9962354 0 -0.7712625 -0.04012608 -0.9769819 0.1698751 -0.7712625 0.1704478 -0.7712625 -0.04012608 1.771262 -0.9082047 -0.7712625 -0.9082047 0.9962354 1 0.003232002 0.7980086 0.9962353 0.7980086 0.9996944 0.8503581 3.05728e-4 0.808277 3.05728e-4 0.8503581 1.505565 -0.04530048 1.731053 0.1698751 1.731053 -0.04788756 -0.5732238 -0.04271322 -0.7987137 -0.9082047 -0.5732238 -0.9082047 1.505565 -0.9082047 1.731053 -0.04788756 1.731053 -0.9082047 1.505565 0.1698751 -0.5732238 0.2408839 -0.5732238 0.1698751 0.8240598 -0.9494659 0.8504853 -1.140286 0.8240597 -1.140286 1.771262 -0.04012608 1.976982 0.1698751 1.976982 -0.04012608 1.771262 -0.04012608 1.976982 -0.9082047 1.771262 -0.9082047 0.8240598 -0.9494659 0.7359941 -1.140286 0.7359941 -0.9494659 1.731053 -0.9082047 1.798713 -0.04788756 1.731053 -0.04788756 -0.1639597 1.408916 -0.0758931 1.599736 -0.07589304 1.408917 1.731053 0.1698751 1.505565 0.2408839 1.505565 0.1698751 1.976982 0.1698751 1.771262 0.2408839 1.771262 0.1698751 -0.5732238 0.1698751 -0.7987137 0.2408839 -0.7987137 0.1698751 0.7359942 1.408916 0.8240599 1.599737 0.8240599 1.408916 -0.07589334 1.408916 0.7359942 1.599737 0.7359942 1.408917 -0.07589322 -0.9494665 -0.1639599 -1.140287 -0.1639598 -0.9494668 0.7359942 -0.9494658 -0.07589346 -1.140286 -0.07589334 -0.9494659 -0.7987137 -0.9082047 -0.5732238 -0.04271322 -0.5732238 -0.9082047 -0.5732238 -0.9082047 1.505565 -0.04530048 1.505565 -0.9082047 1.731053 -0.04788756 1.505565 -0.9082047 1.731053 -0.9082047 1.505565 -0.04530048 -0.5732238 -0.9082047 1.505565 -0.9082047 -0.7987137 -0.04012608 -0.5732238 0.1698751 -0.5732238 -0.04271322 -0.5732238 -0.04271322 1.505565 0.1698751 1.505565 -0.04530048 1.731053 0.1698751 1.798713 0.2408839 1.798713 0.1698751 1.771262 0.1698751 -0.7712625 0.2408839 -0.7712625 0.1698751 -0.07589304 1.408917 -0.1639599 -0.9494658 -0.1639598 1.408917 0.7359942 1.408916 -0.07589346 -0.9494659 -0.07589346 1.408916 -0.7712625 0.1698751 -0.9769819 0.2408839 -0.9769819 0.1698751 -0.5732238 0.1698751 1.505565 0.2408839 1.505565 0.1698751 1.731053 0.1698751 1.505565 -0.04530048 1.731053 -0.04788756 1.505565 0.1698751 -0.5732238 -0.04271322 1.505565 -0.04530048 -0.7712625 0.1698751 -0.9769819 -0.04788756 -0.7712625 -0.04788756 -0.7712625 -0.04788756 -0.9769819 -0.9082047 -0.7712625 -0.9082047 1.771262 -0.9082047 1.976982 -0.04788756 1.771262 -0.04788756 1.771262 -0.04788756 1.976982 0.1698751 1.771262 0.1698751 1.731053 -0.04788756 1.798713 0.1698751 1.731053 0.1698751 1.731053 0.1698751 1.798713 -0.04788756 1.731053 -0.04788756 -0.7987137 0.1698751 -0.5732238 0.2408839 -0.5732238 0.1698751 1.731053 0.1698751 1.798713 -0.04788756 1.731053 -0.04788756 1.731053 -0.04788756 1.798713 -0.9082047 1.731053 -0.9082047 1.731053 -0.04788756 1.798713 0.1698751 1.731053 0.1698751 1.731053 -0.04788756 1.798713 -0.9082047 1.731053 -0.9082047 1.731053 -0.9082047 1.798713 -0.04788756 1.731053 -0.04788756 1.730137 -0.2524961 1.697958 1.19258 1.730137 1.19258 -0.7712625 0.2408839 -0.9769819 1.766519 -0.9769819 0.2408839 1.771262 0.2408839 1.976982 1.766519 1.976982 0.2408839 1.731053 0.2408839 1.505565 1.766519 1.505565 0.2408839 -0.7301367 1.252496 -0.7008442 1.19258 -0.7301367 1.19258 -0.7987137 0.2408839 -0.5732238 1.766519 -0.5732238 0.2408839 -0.5732238 0.2408839 -0.7987137 1.766519 -0.7987137 0.2408839 1.798713 0.2408839 1.731053 1.766519 1.731053 0.2408839 1.505565 0.2408839 1.731053 1.766519 1.731053 0.2408839 1.731053 0.2408839 1.798713 1.766519 1.798713 0.2408839 1.798713 0.1698751 1.731053 0.2408839 1.731053 0.1698751 -0.7712625 0.1704478 -0.9769819 0.2408839 -0.7712625 0.2408839 1.505565 0.1698751 1.731053 0.2408839 1.731053 0.1698751 -0.9769819 0.2408839 -0.7712625 1.766519 -0.7712625 0.2408839 -0.7712625 0.1704478 1.771262 0.2408839 1.771262 0.1704478 1.731053 -0.7712625 1.798713 1.771262 1.798713 -0.7712625 -0.7301367 -0.2524961 -0.7008442 1.19258 -0.7301367 1.19258 -0.7987137 1.766519 -0.5732238 1.829776 -0.5732238 1.766519 1.730137 1.704135 1.697958 -0.7041351 1.730137 -0.7041351 -0.5732238 1.766519 -0.7987137 1.829776 -0.7987137 1.766519 1.798713 1.766519 1.731053 1.829776 1.731053 1.766519 1.505565 1.766519 1.731053 1.829776 1.731053 1.766519 1.731053 1.766519 1.798713 1.829776 1.798713 1.766519 -0.9769819 1.766519 -0.7712625 1.829776 -0.7712625 1.766519 1.976982 1.766519 1.771262 1.829776 1.771262 1.766519 1.898992 1.252496 1.853377 1.19258 1.898992 1.19258 -0.7712625 1.766519 -0.976982 1.829776 -0.9769819 1.766519 1.771262 1.766519 1.976982 1.829776 1.976982 1.766519 1.898992 1.19258 1.853377 1.252496 1.898992 1.252496 1.976982 0.2408839 1.771262 1.766519 1.771262 0.2408839 -0.8989917 1.19258 -0.8533776 1.252496 -0.8989917 1.252496 1.731053 1.766519 1.505565 1.829776 1.505565 1.766519 1.270177 0.06413155 -0.270177 0.9884177 -0.2701769 0.06413155 1.771262 1.766519 -0.7712625 1.829776 -0.7712625 1.766519 1.730137 1.252496 1.697958 1.19258 1.730137 1.19258 1.730137 1.19258 1.697958 1.252496 1.730137 1.252496 1.730137 1.19258 1.697958 -0.2524961 1.730137 -0.2524961 -0.5463936 -0.2679544 1.546394 1.267954 1.546394 -0.2679544 1.505565 1.766519 -0.5732238 1.829776 -0.5732238 1.766519 1.546394 -0.2679544 -0.5463936 1.267954 -0.5463936 -0.2679544 -0.5732238 1.766519 1.505565 1.829776 1.505565 1.766519 -0.8989917 1.19258 -0.8533776 -0.2524961 -0.8989917 -0.2524961 -0.8989917 1.252496 -0.8533776 1.19258 -0.8989917 1.19258 1.452468 -0.8989919 -0.5165536 -0.8533775 -0.5165536 -0.8989919 1.898992 -0.2524961 1.853377 1.19258 1.898992 1.19258 -0.8989917 -0.2524961 -0.8533776 1.19258 -0.8989917 1.19258 1.452468 1.898992 -0.5165536 1.853378 1.452468 1.853378 1.898992 1.19258 1.853377 -0.2524961 1.898992 -0.2524961 -0.2701769 0.06413155 1.270177 0.9884177 1.270177 0.06413155 -0.7712625 1.766519 1.771262 1.829776 1.771262 1.766519 -0.7301367 -0.7041351 -0.7008442 1.704135 -0.7301367 1.704135 -0.7301367 1.19258 -0.7008442 1.252496 -0.7301367 1.252496 -0.7301367 1.19258 -0.7008442 -0.2524961 -0.7301367 -0.2524961 -0.348922 1.51535 -0.5326623 1.366553 -0.5326623 -1.034528 -0.7712625 0.1704478 1.771262 0.1704478 1.771262 -0.04012608 -0.7712625 -0.9082047 -0.9769819 -0.9082047 -0.9769819 -0.04012608 -0.5732238 0.1698751 -0.7987137 0.1698751 -0.7987137 -0.04012608 1.771262 0.1704478 1.771262 0.2408839 1.976982 0.2408839 0.8240599 1.408916 0.8240598 -0.9494659 0.7359941 -0.9494659 0.8240599 1.599737 0.8504855 1.599737 0.8504855 1.408917 0.9962354 0.7980087 0.003232002 0.7980086 0.003232002 0 -0.7712625 -0.04012608 -0.9769819 -0.04012608 -0.9769819 0.1698751 -0.7712625 -0.04012608 1.771262 -0.04012608 1.771262 -0.9082047 0.9962354 1 0.003232002 0.9999998 0.003232002 0.7980086 0.9996944 0.8503581 0.9996944 0.8082768 3.05728e-4 0.808277 1.505565 -0.04530048 1.505565 0.1698751 1.731053 0.1698751 -0.5732238 -0.04271322 -0.7987137 -0.04012608 -0.7987137 -0.9082047 1.505565 -0.9082047 1.505565 -0.04530048 1.731053 -0.04788756 1.505565 0.1698751 1.505565 0.2408839 -0.5732238 0.2408839 0.8240598 -0.9494659 0.8504854 -0.949466 0.8504853 -1.140286 1.771262 -0.04012608 1.771262 0.1704478 1.976982 0.1698751 1.771262 -0.04012608 1.976982 -0.04012608 1.976982 -0.9082047 0.8240598 -0.9494659 0.8240597 -1.140286 0.7359941 -1.140286 1.731053 -0.9082047 1.798713 -0.9082047 1.798713 -0.04788756 -0.1639597 1.408916 -0.1639598 1.599736 -0.0758931 1.599736 1.731053 0.1698751 1.731053 0.2408839 1.505565 0.2408839 1.976982 0.1698751 1.976982 0.2408839 1.771262 0.2408839 -0.5732238 0.1698751 -0.5732238 0.2408839 -0.7987137 0.2408839 0.7359942 1.408916 0.7359942 1.599737 0.8240599 1.599737 -0.07589334 1.408916 -0.07589334 1.599737 0.7359942 1.599737 -0.07589322 -0.9494665 -0.07589328 -1.140287 -0.1639599 -1.140287 0.7359942 -0.9494658 0.7359941 -1.140286 -0.07589346 -1.140286 -0.7987137 -0.9082047 -0.7987137 -0.04012608 -0.5732238 -0.04271322 -0.5732238 -0.9082047 -0.5732238 -0.04271322 1.505565 -0.04530048 1.731053 -0.04788756 1.505565 -0.04530048 1.505565 -0.9082047 1.505565 -0.04530048 -0.5732238 -0.04271322 -0.5732238 -0.9082047 -0.7987137 -0.04012608 -0.7987137 0.1698751 -0.5732238 0.1698751 -0.5732238 -0.04271322 -0.5732238 0.1698751 1.505565 0.1698751 1.731053 0.1698751 1.731053 0.2408839 1.798713 0.2408839 1.771262 0.1698751 1.771262 0.2408839 -0.7712625 0.2408839 -0.07589304 1.408917 -0.07589316 -0.949466 -0.1639599 -0.9494658 0.7359942 1.408916 0.7359941 -0.9494659 -0.07589346 -0.9494659 -0.7712625 0.1698751 -0.7712625 0.2408839 -0.9769819 0.2408839 -0.5732238 0.1698751 -0.5732238 0.2408839 1.505565 0.2408839 1.731053 0.1698751 1.505565 0.1698751 1.505565 -0.04530048 1.505565 0.1698751 -0.5732238 0.1698751 -0.5732238 -0.04271322 -0.7712625 0.1698751 -0.9769819 0.1698751 -0.9769819 -0.04788756 -0.7712625 -0.04788756 -0.9769819 -0.04788756 -0.9769819 -0.9082047 1.771262 -0.9082047 1.976982 -0.9082047 1.976982 -0.04788756 1.771262 -0.04788756 1.976982 -0.04788756 1.976982 0.1698751 1.731053 -0.04788756 1.798713 -0.04788756 1.798713 0.1698751 1.731053 0.1698751 1.798713 0.1698751 1.798713 -0.04788756 -0.7987137 0.1698751 -0.7987137 0.2408839 -0.5732238 0.2408839 1.731053 0.1698751 1.798713 0.1698751 1.798713 -0.04788756 1.731053 -0.04788756 1.798713 -0.04788756 1.798713 -0.9082047 1.731053 -0.04788756 1.798713 -0.04788756 1.798713 0.1698751 1.731053 -0.04788756 1.798713 -0.04788756 1.798713 -0.9082047 1.731053 -0.9082047 1.798713 -0.9082047 1.798713 -0.04788756 1.730137 -0.2524961 1.697958 -0.2524961 1.697958 1.19258 -0.7712625 0.2408839 -0.7712625 1.766519 -0.9769819 1.766519 1.771262 0.2408839 1.771262 1.766519 1.976982 1.766519 1.731053 0.2408839 1.731053 1.766519 1.505565 1.766519 -0.7301367 1.252496 -0.7008442 1.252496 -0.7008442 1.19258 -0.7987137 0.2408839 -0.7987137 1.766519 -0.5732238 1.766519 -0.5732238 0.2408839 -0.5732238 1.766519 -0.7987137 1.766519 1.798713 0.2408839 1.798713 1.766519 1.731053 1.766519 1.505565 0.2408839 1.505565 1.766519 1.731053 1.766519 1.731053 0.2408839 1.731053 1.766519 1.798713 1.766519 1.798713 0.1698751 1.798713 0.2408839 1.731053 0.2408839 -0.7712625 0.1704478 -0.9769819 0.1698751 -0.9769819 0.2408839 1.505565 0.1698751 1.505565 0.2408839 1.731053 0.2408839 -0.9769819 0.2408839 -0.9769819 1.766519 -0.7712625 1.766519 -0.7712625 0.1704478 -0.7712625 0.2408839 1.771262 0.2408839 1.731053 -0.7712625 1.731053 1.771262 1.798713 1.771262 -0.7301367 -0.2524961 -0.7008442 -0.2524961 -0.7008442 1.19258 -0.7987137 1.766519 -0.7987137 1.829775 -0.5732238 1.829776 1.730137 1.704135 1.697958 1.704135 1.697958 -0.7041351 -0.5732238 1.766519 -0.5732238 1.829775 -0.7987137 1.829776 1.798713 1.766519 1.798713 1.829775 1.731053 1.829776 1.505565 1.766519 1.505565 1.829775 1.731053 1.829776 1.731053 1.766519 1.731053 1.829775 1.798713 1.829776 -0.9769819 1.766519 -0.9769819 1.829775 -0.7712625 1.829776 1.976982 1.766519 1.976982 1.829775 1.771262 1.829776 1.898992 1.252496 1.853377 1.252496 1.853377 1.19258 -0.7712625 1.766519 -0.7712625 1.829775 -0.976982 1.829776 1.771262 1.766519 1.771262 1.829775 1.976982 1.829776 1.898992 1.19258 1.853377 1.19258 1.853377 1.252496 1.976982 0.2408839 1.976982 1.766519 1.771262 1.766519 -0.8989917 1.19258 -0.8533776 1.19258 -0.8533776 1.252496 1.731053 1.766519 1.731053 1.829775 1.505565 1.829776 1.270177 0.06413155 1.270177 0.9884175 -0.270177 0.9884177 1.771262 1.766519 1.771262 1.829775 -0.7712625 1.829776 1.730137 1.252496 1.697958 1.252496 1.697958 1.19258 1.730137 1.19258 1.697958 1.19258 1.697958 1.252496 1.730137 1.19258 1.697958 1.19258 1.697958 -0.2524961 -0.5463936 -0.2679544 -0.5463936 1.267954 1.546394 1.267954 1.505565 1.766519 1.505565 1.829775 -0.5732238 1.829776 1.546394 -0.2679544 1.546394 1.267954 -0.5463936 1.267954 -0.5732238 1.766519 -0.5732238 1.829775 1.505565 1.829776 -0.8989917 1.19258 -0.8533776 1.19258 -0.8533776 -0.2524961 -0.8989917 1.252496 -0.8533776 1.252496 -0.8533776 1.19258 1.452468 -0.8989919 1.452468 -0.8533775 -0.5165536 -0.8533775 1.898992 -0.2524961 1.853377 -0.2524961 1.853377 1.19258 -0.8989917 -0.2524961 -0.8533776 -0.2524961 -0.8533776 1.19258 1.452468 1.898992 -0.5165536 1.898992 -0.5165536 1.853378 1.898992 1.19258 1.853377 1.19258 1.853377 -0.2524961 -0.2701769 0.06413155 -0.270177 0.9884175 1.270177 0.9884177 -0.7712625 1.766519 -0.7712625 1.829775 1.771262 1.829776 -0.7301367 -0.7041351 -0.7008442 -0.7041351 -0.7008442 1.704135 -0.7301367 1.19258 -0.7008442 1.19258 -0.7008442 1.252496 -0.7301367 1.19258 -0.7008442 1.19258 -0.7008442 -0.2524961 1.614221 -1.183325 1.614221 -1.228803 1.827164 -1.228803 1.827164 -1.228803 1.891061 -1.228803 1.858978 -1.034528 1.891061 -1.228803 1.891061 -1.034528 1.858978 -1.034528 1.614221 -1.183325 1.827164 -1.228803 1.858978 -1.034528 1.858978 1.366553 1.891061 1.366553 1.891061 1.560828 1.614221 -1.183325 1.858978 -1.034528 1.858978 1.366553 -0.5618673 -1.228803 -0.348922 -1.228803 -0.348922 -1.183325 -0.348922 -1.183325 1.614221 -1.183325 1.614221 1.51535 1.614221 -1.183325 1.858978 1.366553 1.614221 1.51535 1.858978 1.366553 1.891061 1.560828 1.827164 1.560828 1.827164 1.560828 1.614221 1.560828 1.614221 1.51535 -0.348922 1.51535 -0.348922 1.560828 -0.5618673 1.560828 1.858978 1.366553 1.827164 1.560828 1.614221 1.51535 -0.348922 1.51535 -0.5618673 1.560828 -0.5326623 1.366553 -0.5618673 1.560828 -0.5618673 1.366553 -0.5326623 1.366553 1.614221 1.51535 -0.348922 1.51535 -0.348922 -1.183325 -0.348922 -1.183325 -0.348922 1.51535 -0.5326623 -1.034528 -0.5618673 -1.228803 -0.348922 -1.183325 -0.5326623 -1.034528 -0.5326623 -1.034528 -0.5618673 -1.034528 -0.5618673 -1.228803</float_array>
          <technique_common>
            <accessor source="#Building_05-mesh-map-0-array" count="702" stride="2">
              <param name="S" type="float"/>
              <param name="T" type="float"/>
            </accessor>
          </technique_common>
        </source>
        <vertices id="Building_05-mesh-vertices">
          <input semantic="POSITION" source="#Building_05-mesh-positions"/>
        </vertices>
        <triangles material="Store_09-material" count="28">
          <input semantic="VERTEX" source="#Building_05-mesh-vertices" offset="0"/>
          <input semantic="NORMAL" source="#Building_05-mesh-normals" offset="1"/>
          <input semantic="TEXCOORD" source="#Building_05-mesh-map-0" offset="2" set="0"/>
          <p>6 2 12 31 2 13 28 2 14 20 2 15 45 2 16 6 2 17 10 3 18 4 3 19 6 3 20 12 3 27 15 3 28 14 3 29 10 2 30 15 2 31 11 2 32 4 2 45 53 2 46 25 2 47 4 2 54 37 2 55 31 2 56 2 2 60 33 2 61 29 2 62 28 2 72 20 2 73 6 2 74 29 2 75 32 2 76 28 2 77 30 2 78 26 2 79 0 2 80 31 2 81 36 2 82 30 2 83 29 2 108 0 2 109 2 2 110 28 2 111 30 2 112 29 2 113 6 2 336 4 2 337 31 2 338 20 2 339 51 2 340 45 2 341 10 3 342 11 3 343 4 3 344 12 3 351 13 3 352 15 3 353 10 2 354 14 2 355 15 2 356 4 2 369 47 2 370 53 2 371 4 2 378 25 2 379 37 2 380 2 2 384 19 2 385 33 2 386 28 2 396 32 2 397 20 2 398 29 2 399 33 2 400 32 2 401 30 2 402 36 2 403 26 2 404 31 2 405 37 2 406 36 2 407 29 2 432 30 2 433 0 2 434 28 2 435 31 2 436 30 2 437</p>
        </triangles>
        <triangles material="BrickSmallBrown_01-material" count="182">
          <input semantic="VERTEX" source="#Building_05-mesh-vertices" offset="0"/>
          <input semantic="NORMAL" source="#Building_05-mesh-normals" offset="1"/>
          <input semantic="TEXCOORD" source="#Building_05-mesh-map-0" offset="2" set="0"/>
          <p>1 0 0 9 0 1 8 0 2 0 0 3 16 0 4 8 0 5 39 1 6 16 1 7 41 1 8 3 0 9 63 0 10 21 0 11 8 4 21 17 4 22 1 4 23 8 0 24 2 0 25 0 0 26 43 5 33 22 5 34 23 5 35 41 1 36 26 1 37 36 1 38 32 5 39 23 5 40 20 5 41 38 1 42 61 1 43 39 1 44 9 0 48 21 0 49 18 0 50 9 0 51 19 0 52 2 0 53 6 1 57 44 1 58 10 1 59 27 1 63 65 1 64 38 1 65 54 3 66 68 3 67 48 3 68 39 1 69 58 1 70 17 1 71 19 5 84 42 5 85 33 5 86 33 5 87 43 5 88 32 5 89 24 1 90 37 1 91 25 1 92 40 1 93 36 1 94 37 1 95 18 5 96 34 5 97 42 5 98 42 5 99 35 5 100 43 5 101 22 5 102 69 5 103 54 5 104 48 3 105 66 3 106 49 3 107 49 3 114 67 3 115 55 3 116 34 5 117 59 5 118 35 5 119 27 1 120 40 1 121 24 1 122 38 1 123 41 1 124 40 1 125 49 3 126 52 3 127 46 3 128 46 3 129 53 3 130 47 3 131 45 3 132 50 3 133 44 3 134 44 3 135 54 3 136 48 3 137 10 1 138 48 1 139 7 1 140 22 5 141 50 5 142 23 5 143 21 5 144 64 5 145 34 5 146 5 5 147 46 5 148 11 5 149 23 5 150 51 5 151 20 5 152 24 1 153 55 1 154 27 1 155 11 5 156 47 5 157 4 5 158 25 1 159 52 1 160 24 1 161 66 5 162 101 5 163 71 5 164 66 3 165 82 3 166 67 3 167 57 0 168 79 0 169 63 0 170 62 1 171 81 1 172 65 1 173 86 5 174 119 5 175 72 5 176 63 5 177 80 5 178 64 5 179 61 1 180 74 1 181 58 1 182 67 1 183 78 1 184 62 1 185 59 5 186 76 5 187 60 5 188 60 5 189 83 5 190 69 5 191 55 1 192 62 1 193 27 1 194 1 0 195 58 0 196 56 0 197 35 5 198 60 5 199 22 5 200 58 0 201 72 0 202 56 0 203 1 0 204 57 0 205 3 0 206 5 2 207 48 2 208 49 2 209 57 1 210 118 1 211 73 1 212 79 5 213 94 5 214 80 5 215 68 6 216 99 6 217 66 6 218 77 1 219 88 1 220 74 1 221 82 1 222 92 1 223 78 1 224 75 5 225 90 5 226 76 5 227 76 5 228 97 5 229 83 5 230 74 0 231 86 0 232 72 0 233 83 3 234 84 3 235 70 3 236 94 3 237 106 3 238 80 3 239 71 3 240 96 3 241 82 3 242 73 0 243 93 0 244 79 0 245 75 0 246 113 0 247 89 0 248 69 3 249 70 3 250 68 3 251 77 3 252 114 3 253 91 3 254 78 1 255 95 1 256 81 1 257 100 3 261 103 3 262 101 3 263 84 1 264 100 1 265 70 1 266 71 5 267 103 5 268 85 5 269 70 1 270 98 1 271 68 1 272 107 5 273 111 5 274 108 5 275 104 1 276 114 1 277 110 1 278 105 1 279 110 1 280 109 1 281 106 5 282 113 5 283 111 5 284 81 7 285 105 7 286 65 7 287 95 0 288 104 0 289 81 0 290 65 8 291 109 8 292 61 8 293 59 0 294 111 0 295 75 0 296 61 3 297 110 3 298 77 3 299 59 9 300 107 9 301 108 9 302 80 10 303 107 10 304 64 10 305 119 0 309 121 0 310 118 0 311 56 6 312 117 6 313 57 6 314 73 1 315 121 1 316 87 1 317 72 5 318 116 5 319 56 5 320 1 0 324 3 0 325 9 0 326 0 0 327 26 0 328 16 0 329 39 1 330 17 1 331 16 1 332 3 0 333 57 0 334 63 0 335 8 0 345 16 0 346 17 0 347 8 0 348 9 0 349 2 0 350 43 5 357 35 5 358 22 5 359 41 1 360 16 1 361 26 1 362 32 5 363 43 5 364 23 5 365 38 1 366 65 1 367 61 1 368 9 11 372 3 11 373 21 11 374 9 0 375 18 0 376 19 0 377 6 1 381 45 1 382 44 1 383 27 1 387 62 1 388 65 1 389 54 3 390 69 3 391 68 3 392 39 1 393 61 1 394 58 1 395 19 5 408 18 5 409 42 5 410 33 5 411 42 5 412 43 5 413 24 1 414 40 1 415 37 1 416 40 1 417 41 1 418 36 1 419 18 5 420 21 5 421 34 5 422 42 5 423 34 5 424 35 5 425 22 5 426 60 5 427 69 5 428 48 3 429 68 3 430 66 3 431 49 3 438 66 3 439 67 3 440 34 5 441 64 5 442 59 5 443 27 1 444 38 1 445 40 1 446 38 1 447 39 1 448 41 1 449 49 3 450 55 3 451 52 3 452 46 3 453 52 3 454 53 3 455 45 3 456 51 3 457 50 3 458 44 3 459 50 3 460 54 3 461 10 1 462 44 1 463 48 1 464 22 5 465 54 5 466 50 5 467 21 5 468 63 5 469 64 5 470 5 5 471 49 5 472 46 5 473 23 5 474 50 5 475 51 5 476 24 1 477 52 1 478 55 1 479 11 5 480 46 5 481 47 5 482 25 1 483 53 1 484 52 1 485 66 5 486 99 5 487 101 5 488 66 3 489 71 3 490 82 3 491 57 0 492 73 0 493 79 0 494 62 1 495 78 1 496 81 1 497 86 5 498 120 5 499 119 5 500 63 5 501 79 5 502 80 5 503 61 1 504 77 1 505 74 1 506 67 1 507 82 1 508 78 1 509 59 5 510 75 5 511 76 5 512 60 5 513 76 5 514 83 5 515 55 1 516 67 1 517 62 1 518 1 0 519 17 0 520 58 0 521 35 5 522 59 5 523 60 5 524 58 0 525 74 0 526 72 0 527 1 0 528 56 0 529 57 0 530 5 2 531 7 2 532 48 2 533 57 1 534 117 1 535 118 1 536 79 5 537 93 5 538 94 5 539 68 6 540 98 6 541 99 6 542 77 1 543 91 1 544 88 1 545 82 1 546 96 1 547 92 1 548 75 5 549 89 5 550 90 5 551 76 5 552 90 5 553 97 5 554 74 0 555 88 0 556 86 0 557 83 3 558 97 3 559 84 3 560 94 3 561 112 3 562 106 3 563 71 3 564 85 3 565 96 3 566 73 0 567 87 0 568 93 0 569 75 12 570 111 12 571 113 12 572 69 3 573 83 3 574 70 3 575 77 3 576 110 3 577 114 3 578 78 1 579 92 1 580 95 1 581 100 3 585 102 3 586 103 3 587 84 1 588 102 1 589 100 1 590 71 5 591 101 5 592 103 5 593 70 1 594 100 1 595 98 1 596 107 5 597 106 5 598 111 5 599 104 1 600 115 1 601 114 1 602 105 1 603 104 1 604 110 1 605 106 5 606 112 5 607 113 5 608 81 13 609 104 13 610 105 13 611 95 14 612 115 14 613 104 14 614 65 8 615 105 8 616 109 8 617 59 15 618 108 15 619 111 15 620 61 3 621 109 3 622 110 3 623 59 9 624 64 9 625 107 9 626 80 3 627 106 3 628 107 3 629 119 0 633 120 0 634 121 0 635 56 6 636 116 6 637 117 6 638 73 1 639 118 1 640 121 1 641 72 5 642 119 5 643 116 5 644</p>
        </triangles>
        <triangles material="HighRiseResidential-material" count="4">
          <input semantic="VERTEX" source="#Building_05-mesh-vertices" offset="0"/>
          <input semantic="NORMAL" source="#Building_05-mesh-normals" offset="1"/>
          <input semantic="TEXCOORD" source="#Building_05-mesh-map-0" offset="2" set="0"/>
          <p>98 3 258 101 3 259 99 3 260 116 0 306 118 0 307 117 0 308 98 3 582 100 3 583 101 3 584 116 0 630 119 0 631 118 0 632</p>
        </triangles>
        <triangles material="Rooftiles-material" count="20">
          <input semantic="VERTEX" source="#Building_05-mesh-vertices" offset="0"/>
          <input semantic="NORMAL" source="#Building_05-mesh-normals" offset="1"/>
          <input semantic="TEXCOORD" source="#Building_05-mesh-map-0" offset="2" set="0"/>
          <p>112 6 321 121 6 322 120 6 323 115 6 645 95 6 646 92 6 647 92 6 648 96 6 649 103 6 650 96 6 651 85 6 652 103 6 653 115 16 654 92 16 655 103 16 656 102 6 657 84 6 658 97 6 659 115 17 660 103 17 661 102 17 662 88 6 663 91 6 664 114 6 665 114 6 666 115 6 667 113 6 668 115 18 669 102 18 670 113 18 671 102 6 672 97 6 673 90 6 674 90 6 675 89 6 676 113 6 677 112 6 678 94 6 679 93 6 680 102 19 681 90 19 682 113 19 683 112 20 684 93 20 685 121 20 686 93 6 687 87 6 688 121 6 689 113 6 690 112 6 691 114 6 692 114 6 693 112 6 694 120 6 695 88 21 696 114 21 697 120 21 698 120 6 699 86 6 700 88 6 701</p>
        </triangles>
      </mesh>
    </geometry>
  </library_geometries>
  <library_visual_scenes>
    <visual_scene id="Scene" name="Scene">
      <node id="Building_05" name="Building_05" type="NODE">
        <matrix sid="transform">-4.37114e-8 1 0 0 -1 -4.37114e-8 0 0 0 0 1 4.16393 0 0 0 1</matrix>
        <instance_geometry url="#Building_05-mesh" name="Building_05">
          <bind_material>
            <technique_common>
              <instance_material symbol="Store_09-material" target="#Store_09-material">
                <bind_vertex_input semantic="UVMap" input_semantic="TEXCOORD" input_set="0"/>
              </instance_material>
              <instance_material symbol="BrickSmallBrown_01-material" target="#BrickSmallBrown_01-material">
                <bind_vertex_input semantic="UVMap" input_semantic="TEXCOORD" input_set="0"/>
              </instance_material>
              <instance_material symbol="HighRiseResidential-material" target="#HighRiseResidential-material">
                <bind_vertex_input semantic="UVMap" input_semantic="TEXCOORD" input_set="0"/>
              </instance_material>
              <instance_material symbol="Rooftiles-material" target="#Rooftiles-material">
                <bind_vertex_input semantic="UVMap" input_semantic="TEXCOORD" input_set="0"/>
              </instance_material>
            </technique_common>
          </bind_material>
        </instance_geometry>
      </node>
    </visual_scene>
  </library_visual_scenes>
  <scene>
    <instance_visual_scene url="#Scene"/>
  </scene>
</COLLADA>