<?xml version="1.0" encoding="utf-8"?>
<COLLADA xmlns="http://www.collada.org/2005/11/COLLADASchema" version="1.4.1" xmlns:xsi="http://www.w3.org/2001/XMLSchema-instance">
  <asset>
    <contributor>
      <author>Blender User</author>
      <authoring_tool>Blender 4.0.1 commit date:2023-11-16, commit time:16:40, hash:d0dd92834a08</authoring_tool>
    </contributor>
    <created>2023-11-28T13:56:10</created>
    <modified>2023-11-28T13:56:10</modified>
    <unit name="meter" meter="1"/>
    <up_axis>Z_UP</up_axis>
  </asset>
  <library_effects>
    <effect id="Cup_Plate-effect">
      <profile_COMMON>
        <newparam sid="Cup_Plate-surface">
          <surface type="2D">
            <init_from>Cup_Plate</init_from>
          </surface>
        </newparam>
        <newparam sid="Cup_Plate-sampler">
          <sampler2D>
            <source>Cup_Plate-surface</source>
          </sampler2D>
        </newparam>
        <technique sid="common">
          <lambert>
            <emission>
              <color sid="emission">0 0 0 1</color>
            </emission>
            <diffuse>
              <texture texture="Cup_Plate-sampler" texcoord="UVMap"/>
            </diffuse>
            <index_of_refraction>
              <float sid="ior">1.45</float>
            </index_of_refraction>
          </lambert>
        </technique>
      </profile_COMMON>
    </effect>
  </library_effects>
  <library_images>
    <image id="Cup_Plate" name="Cup_Plate">
      <init_from>Cup_Plate.png</init_from>
    </image>
  </library_images>
  <library_materials>
    <material id="Cup_Plate-material" name="Cup_Plate">
      <instance_effect url="#Cup_Plate-effect"/>
    </material>
  </library_materials>
  <library_geometries>
    <geometry id="Cup_01-mesh" name="Cup_01">
      <mesh>
        <source id="Cup_01-mesh-positions">
          <float_array id="Cup_01-mesh-positions-array" count="84">0 0.06180012 -0.06180012 4.14553e-7 0.08762305 0.2315297 0.04831731 0.03853178 -0.06180012 0.06955862 0.0541256 0.2315297 0.06025069 -0.0137518 -0.06180012 0.08673804 -0.02114248 0.2315297 0.02681404 -0.05567997 -0.06180012 0.03860229 -0.08150285 0.2315297 -0.02681404 -0.05567997 -0.06180012 -0.03860145 -0.08150285 0.2315297 -0.06025069 -0.0137518 -0.06180012 -0.08673721 -0.02114248 0.2315297 -0.04831731 0.03853178 -0.06180012 -0.06955778 0.0541256 0.2315297 0 0.05423516 -0.05526018 4.11102e-7 0.07766157 0.2324067 0.04241186 0.03381246 -0.05525386 0.06176567 0.04792308 0.2324238 0.05289059 -0.0120818 -0.05523961 0.07703387 -0.01891547 0.2324621 0.0235399 -0.04889106 -0.05522823 0.03428834 -0.07253277 0.2324928 -0.0235399 -0.04889106 -0.05522823 -0.03428751 -0.07253277 0.2324928 -0.05289059 -0.0120818 -0.05523961 -0.07703304 -0.01891547 0.2324621 -0.04241186 0.03381246 -0.05525386 -0.06176483 0.04792308 0.2324237</float_array>
          <technique_common>
            <accessor source="#Cup_01-mesh-positions-array" count="28" stride="3">
              <param name="X" type="float"/>
              <param name="Y" type="float"/>
              <param name="Z" type="float"/>
            </accessor>
          </technique_common>
        </source>
        <source id="Cup_01-mesh-normals">
          <float_array id="Cup_01-mesh-normals-array" count="84">6.73604e-7 0.8284604 0.5600476 0.5905421 0.4719316 -0.6546301 -2.96446e-7 0.7564969 -0.6539973 0.6487608 0.5165617 0.5588145 0.7360076 -0.1669996 -0.6560518 0.8101077 -0.1857608 0.5560742 0.3274143 -0.6788945 -0.6571925 -0.3608652 -0.7502955 0.553925 -0.3274151 -0.6788947 -0.657192 -0.8101068 -0.1857603 0.5560757 -0.7360085 -0.1669997 -0.6560508 -0.648761 0.5165604 0.5588153 -0.590543 0.4719318 -0.6546293 -0.5921586 -0.4731458 0.6522893 4.12538e-7 -0.4935201 0.8697345 2.65427e-7 -0.7584789 0.6516977 -0.7380457 0.1675372 0.6536207 -0.3850783 -0.3060111 0.8706733 -0.3283306 0.6808657 0.6546915 -0.4756628 0.1095046 0.872785 0.210187 0.4371486 0.8744841 -0.2101873 0.4371474 0.8744848 0.3283312 0.6808659 0.6546909 0.4756641 0.1095057 0.8727843 0.7380465 0.1675372 0.6536198 0.3850777 -0.3060135 0.8706727 0.5921591 -0.4731463 0.6522885 0.3608657 -0.750296 0.5539241</float_array>
          <technique_common>
            <accessor source="#Cup_01-mesh-normals-array" count="28" stride="3">
              <param name="X" type="float"/>
              <param name="Y" type="float"/>
              <param name="Z" type="float"/>
            </accessor>
          </technique_common>
        </source>
        <source id="Cup_01-mesh-map-0">
          <float_array id="Cup_01-mesh-map-0-array" count="312">0.6092323 0.3850219 0.6718323 0.004979729 0.6092318 0.004979729 0.8850345 0.3850219 0.7970916 0.004979729 0.864831 0.004979729 0.7875161 0.3850219 0.7427689 0.004979729 0.7970916 0.004979729 0.4610962 0.5191118 0.376343 0.899154 0.3916149 0.5191118 0.7427689 0.3949815 0.7875161 0.7750237 0.7970916 0.3949815 0.7970916 0.3949815 0.8850345 0.7750237 0.864831 0.3949815 0.5466312 0.004979729 0.6092323 0.3850219 0.6092318 0.004979729 0.5191117 0.8630448 0.6169979 0.9411064 0.6713206 0.8283041 0.6718323 0.004979729 0.6092323 0.3850219 0.6092318 0.004979729 0.7970916 0.004979729 0.8850345 0.3850219 0.864831 0.004979729 0.7427689 0.004979729 0.7875161 0.3850219 0.7970916 0.004979729 0.4610962 0.5191118 0.376343 0.899154 0.4763692 0.899154 0.7427689 0.3949815 0.7875161 0.7750237 0.7093124 0.7750237 0.7970916 0.3949815 0.8850345 0.7750237 0.7875161 0.7750237 0.5466312 0.004979729 0.6092323 0.3850219 0.5191118 0.3850219 0.6713206 0.8977856 0.6169979 0.9411064 0.5191117 0.8630448 0.6092323 0.3850219 0.6993529 0.3850219 0.6993529 0.3850219 0.8850345 0.3850219 0.7875161 0.3850219 0.7875161 0.3850219 0.7875161 0.3850219 0.7093124 0.3850219 0.7093124 0.3850219 0.376343 0.899154 0.4763692 0.899154 0.376343 0.899154 0.7875161 0.7750237 0.7093124 0.7750237 0.7875161 0.7750237 0.8850345 0.7750237 0.7875161 0.7750237 0.8850345 0.7750237 0.6092323 0.3850219 0.5191118 0.3850219 0.6092323 0.3850219 0.6092323 0.3850219 0.6993529 0.3850219 0.6718323 0.004979729 0.8850345 0.3850219 0.7875161 0.3850219 0.7970916 0.004979729 0.7875161 0.3850219 0.7093124 0.3850219 0.7427689 0.004979729 0.4610962 0.5191118 0.4763692 0.899154 0.376343 0.899154 0.7427689 0.3949815 0.7093124 0.7750237 0.7875161 0.7750237 0.7970916 0.3949815 0.7875161 0.7750237 0.8850345 0.7750237 0.5466312 0.004979729 0.5191118 0.3850219 0.6092323 0.3850219 0.5191117 0.8630448 0.5492585 0.9256454 0.6169979 0.9411064 0.6169979 0.9411064 0.6713206 0.8977856 0.6713206 0.8283041 0.6713206 0.8283041 0.6169979 0.7849832 0.5492585 0.8004443 0.5492585 0.8004443 0.5191117 0.8630448 0.6713206 0.8283041 0.6718323 0.004979729 0.6993529 0.3850219 0.6092323 0.3850219 0.7970916 0.004979729 0.7875161 0.3850219 0.8850345 0.3850219 0.7427689 0.004979729 0.7093124 0.3850219 0.7875161 0.3850219 0.4610962 0.5191118 0.3916149 0.5191118 0.376343 0.899154 0.7427689 0.3949815 0.7970916 0.3949815 0.7875161 0.7750237 0.7970916 0.3949815 0.864831 0.3949815 0.8850345 0.7750237 0.5466312 0.004979729 0.6092318 0.004979729 0.6092323 0.3850219 0.6169979 0.9411064 0.5492585 0.9256454 0.5191117 0.8630448 0.5191117 0.8630448 0.5492585 0.8004443 0.6713206 0.8977856 0.5492585 0.8004443 0.6169979 0.7849832 0.6713206 0.8977856 0.6169979 0.7849832 0.6713206 0.8283041 0.6713206 0.8977856 0.6092323 0.3850219 0.6092323 0.3850219 0.6993529 0.3850219 0.8850345 0.3850219 0.8850345 0.3850219 0.7875161 0.3850219 0.7875161 0.3850219 0.7875161 0.3850219 0.7093124 0.3850219 0.376343 0.899154 0.4763692 0.899154 0.4763692 0.899154 0.7875161 0.7750237 0.7093124 0.7750237 0.7093124 0.7750237 0.8850345 0.7750237 0.7875161 0.7750237 0.7875161 0.7750237 0.6092323 0.3850219 0.5191118 0.3850219 0.5191118 0.3850219</float_array>
          <technique_common>
            <accessor source="#Cup_01-mesh-map-0-array" count="156" stride="2">
              <param name="S" type="float"/>
              <param name="T" type="float"/>
            </accessor>
          </technique_common>
        </source>
        <vertices id="Cup_01-mesh-vertices">
          <input semantic="POSITION" source="#Cup_01-mesh-positions"/>
        </vertices>
        <triangles material="Cup_Plate-material" count="52">
          <input semantic="VERTEX" source="#Cup_01-mesh-vertices" offset="0"/>
          <input semantic="NORMAL" source="#Cup_01-mesh-normals" offset="1"/>
          <input semantic="TEXCOORD" source="#Cup_01-mesh-map-0" offset="2" set="0"/>
          <p>1 0 0 2 1 1 0 2 2 3 3 3 4 4 4 2 1 5 5 5 6 6 6 7 4 4 8 6 6 9 9 7 10 8 8 11 8 8 12 11 9 13 10 10 14 10 10 15 13 11 16 12 12 17 12 12 18 1 0 19 0 2 20 12 12 21 2 1 22 6 6 23 16 13 24 15 14 25 14 15 26 18 16 27 17 17 28 16 13 29 20 18 30 19 19 31 18 16 32 20 18 33 23 20 34 21 21 35 22 22 36 25 23 37 23 20 38 24 24 39 27 25 40 25 23 41 26 26 42 15 14 43 27 25 44 18 16 45 16 13 46 26 26 47 1 0 48 17 17 49 3 3 50 3 3 51 19 19 52 5 5 53 5 5 54 21 21 55 7 27 56 9 7 57 21 21 58 23 20 59 11 9 60 23 20 61 25 23 62 13 11 63 25 23 64 27 25 65 1 0 66 27 25 67 15 14 68 1 0 69 3 3 70 2 1 71 3 3 72 5 5 73 4 4 74 5 5 75 7 27 76 6 6 77 6 6 78 7 27 79 9 7 80 8 8 81 9 7 82 11 9 83 10 10 84 11 9 85 13 11 86 12 12 87 13 11 88 1 0 89 12 12 90 0 2 91 2 1 92 2 1 93 4 4 94 6 6 95 6 6 96 8 8 97 10 10 98 10 10 99 12 12 100 6 6 101 16 13 102 17 17 103 15 14 104 18 16 105 19 19 106 17 17 107 20 18 108 21 21 109 19 19 110 20 18 111 22 22 112 23 20 113 22 22 114 24 24 115 25 23 116 24 24 117 26 26 118 27 25 119 26 26 120 14 15 121 15 14 122 16 13 123 14 15 124 26 26 125 26 26 126 24 24 127 18 16 128 24 24 129 22 22 130 18 16 131 22 22 132 20 18 133 18 16 134 1 0 135 15 14 136 17 17 137 3 3 138 17 17 139 19 19 140 5 5 141 19 19 142 21 21 143 9 7 144 7 27 145 21 21 146 11 9 147 9 7 148 23 20 149 13 11 150 11 9 151 25 23 152 1 0 153 13 11 154 27 25 155</p>
        </triangles>
      </mesh>
    </geometry>
  </library_geometries>
  <library_visual_scenes>
    <visual_scene id="Scene" name="Scene">
      <node id="Cup_01" name="Cup_01" type="NODE">
        <matrix sid="transform">-0.8844143 2.88179e-7 0 0 -2.88179e-7 -0.8844143 0 0 0 0 0.8844143 0 0 0 0 1</matrix>
        <instance_geometry url="#Cup_01-mesh" name="Cup_01">
          <bind_material>
            <technique_common>
              <instance_material symbol="Cup_Plate-material" target="#Cup_Plate-material">
                <bind_vertex_input semantic="UVMap" input_semantic="TEXCOORD" input_set="0"/>
              </instance_material>
            </technique_common>
          </bind_material>
        </instance_geometry>
      </node>
    </visual_scene>
  </library_visual_scenes>
  <scene>
    <instance_visual_scene url="#Scene"/>
  </scene>
</COLLADA>