<?xml version="1.0" encoding="utf-8"?>
<COLLADA xmlns="http://www.collada.org/2005/11/COLLADASchema" version="1.4.1" xmlns:xsi="http://www.w3.org/2001/XMLSchema-instance">
  <asset>
    <contributor>
      <author>Blender User</author>
      <authoring_tool>Blender 4.0.1 commit date:2023-11-16, commit time:16:40, hash:d0dd92834a08</authoring_tool>
    </contributor>
    <created>2023-11-28T13:44:47</created>
    <modified>2023-11-28T13:44:47</modified>
    <unit name="meter" meter="1"/>
    <up_axis>Z_UP</up_axis>
  </asset>
  <library_effects>
    <effect id="Breads-effect">
      <profile_COMMON>
        <newparam sid="Breads-surface">
          <surface type="2D">
            <init_from>Breads</init_from>
          </surface>
        </newparam>
        <newparam sid="Breads-sampler">
          <sampler2D>
            <source>Breads-surface</source>
          </sampler2D>
        </newparam>
        <technique sid="common">
          <lambert>
            <emission>
              <color sid="emission">0 0 0 1</color>
            </emission>
            <diffuse>
              <texture texture="Breads-sampler" texcoord="UVMap"/>
            </diffuse>
            <index_of_refraction>
              <float sid="ior">1.45</float>
            </index_of_refraction>
          </lambert>
        </technique>
      </profile_COMMON>
    </effect>
  </library_effects>
  <library_images>
    <image id="Breads" name="Breads">
      <init_from>Breads.png</init_from>
    </image>
  </library_images>
  <library_materials>
    <material id="Breads-material" name="Breads">
      <instance_effect url="#Breads-effect"/>
    </material>
  </library_materials>
  <library_geometries>
    <geometry id="Bread_02-mesh" name="Bread_02">
      <mesh>
        <source id="Bread_02-mesh-positions">
          <float_array id="Bread_02-mesh-positions-array" count="111">-0.05944591 -0.02130633 -0.1379891 -0.09191083 -0.02130633 0.1202296 -0.05944591 0.02130633 -0.1379891 -0.09191089 0.02130633 0.1202296 0.03635239 -0.02130633 -0.1244026 0.073812 -0.02130633 0.1101845 0.03635239 0.02130633 -0.1244025 0.073812 0.02130633 0.1101845 -0.137702 0.02130633 -0.1235363 -0.137702 -0.02130633 -0.1235364 -0.1888967 -0.02130633 0.03198039 -0.1888967 0.02130633 0.03198033 -0.0756784 -0.02130633 -0.008879721 -0.0756784 0.02130633 -0.008879721 0.09753638 0.02130633 -0.004748046 0.09753638 -0.02130633 -0.004748046 -0.1945157 -0.02130633 -0.05640226 -0.1945157 0.02130633 -0.05640226 0.1987106 0.02130633 -0.008896887 0.1088076 0.02130633 -0.1332733 0.1088076 -0.02130633 -0.1332733 0.164997 0.02130633 0.07062119 0.164997 -0.02130633 0.07062119 0.1987106 -0.02130633 -0.008896887 0.1762349 0.02130633 -0.08761191 0.1762349 -0.02130633 -0.08761185 -0.06768584 0 -0.1579732 -0.1040755 0 0.148176 0.03969371 0 -0.1418648 0.08168184 0 0.1362664 -0.1554024 0 -0.1408377 -0.2127861 0 0.04354596 -0.2190843 0 -0.06124228 0.1209082 0 -0.1523822 0.1838904 0 0.08935934 0.2216796 0 -0.004918932 0.1964868 0 -0.09824502</float_array>
          <technique_common>
            <accessor source="#Bread_02-mesh-positions-array" count="37" stride="3">
              <param name="X" type="float"/>
              <param name="Y" type="float"/>
              <param name="Z" type="float"/>
            </accessor>
          </technique_common>
        </source>
        <source id="Bread_02-mesh-normals">
          <float_array id="Bread_02-mesh-normals-array" count="111">0 -1 0 -0.3611125 -0.9164483 0.1723962 -0.3916684 -0.9099851 -0.1360992 0 1 0 0.0812878 0.9337788 0.3484961 0 1 0 0 -1 0 0.2889806 -0.9171927 0.2743133 0.0812878 -0.9337788 0.348496 -9.88924e-4 5.03521e-7 -0.9999995 0.005780577 -0.9013953 -0.4329587 -0.04318398 4.12946e-7 -0.9990671 0.2396278 -1.31474e-7 0.9708649 -0.1202583 -0.9291391 0.3496261 -0.9580807 0 -0.2864987 -0.3611124 0.9164484 0.1723961 -0.3916685 0.9099851 -0.1360992 -0.1202584 0.9291391 0.3496263 -0.9028227 2.12069e-7 0.4300131 -0.352931 0 0.9356494 -0.1935096 -0.9058842 -0.3767331 -0.5384095 0 -0.8426834 -0.1935096 0.9058843 -0.3767331 0.07478249 0.888629 -0.4524888 0.2766828 1.67465e-7 -0.9609614 0.007306933 -0.9177953 -0.396987 0.007306873 0.9177954 -0.3969866 0.005780637 0.9013955 -0.4329582 0.9968651 -1.78747e-7 0.07912045 0.4258542 -0.9045709 0.01999688 0.8278275 -2.36258e-7 -0.5609828 0.3466238 -0.9014838 -0.259189 0.7221848 0 0.6917002 0.4258543 0.9045708 0.01999688 0.346624 0.9014837 -0.2591891 0.2889807 0.9171928 0.2743134 0.0747826 -0.8886288 -0.4524891</float_array>
          <technique_common>
            <accessor source="#Bread_02-mesh-normals-array" count="37" stride="3">
              <param name="X" type="float"/>
              <param name="Y" type="float"/>
              <param name="Z" type="float"/>
            </accessor>
          </technique_common>
        </source>
        <source id="Bread_02-mesh-map-0">
          <float_array id="Bread_02-mesh-map-0-array" count="420">0.623587 0.6359321 0.6564707 0.7476267 0.5708025 0.747923 0.623587 0.6359321 0.747231 0.4984946 0.6376293 0.4689161 0.6376293 0.4689162 0.7143208 0.4081506 0.747231 0.4984946 0.747231 0.4984946 0.623587 0.6359321 0.6376293 0.4689162 0.3566857 0.7808082 0.4525874 0.8014187 0.4605582 0.7808082 0.7728723 0.4924092 0.7473126 0.6590991 0.747231 0.4984946 0.5647032 0.7713655 0.6564707 0.7476267 0.5708025 0.747923 0.7473126 0.6590991 0.666252 0.7713655 0.7735916 0.6724672 0.4605582 0.7808082 0.5282877 0.8014187 0.5454099 0.7808082 0.623587 0.6359321 0.6564707 0.7476267 0.7473126 0.6590991 0.623587 0.6359321 0.5092753 0.6891676 0.5708025 0.747923 0.4915419 0.705255 0.5708025 0.747923 0.5092753 0.6891676 0.3566857 0.7808082 0.2898291 0.7601977 0.2781237 0.7808082 0.5185404 0.5210509 0.623587 0.6359321 0.4998615 0.612765 0.623587 0.6359321 0.5185405 0.5210509 0.4998615 0.612765 0.6446691 0.3490338 0.7143208 0.4081506 0.639495 0.3709818 0.5530917 0.3679437 0.639495 0.3709818 0.5621836 0.388116 0.7728723 0.4924092 0.7143208 0.4081506 0.7335109 0.3909946 0.6376293 0.4689161 0.639495 0.3709818 0.5621836 0.388116 0.6376293 0.4689161 0.7143208 0.4081506 0.639495 0.3709818 0.6376293 0.4689162 0.5141798 0.4505735 0.5621836 0.388116 0.6376293 0.4689162 0.5621836 0.388116 0.639495 0.3709818 0.6376293 0.4689161 0.5141799 0.4505735 0.5185405 0.5210509 0.4964306 0.4377802 0.5621836 0.388116 0.5141798 0.4505735 0.623587 0.6359321 0.5092753 0.6891676 0.4998615 0.612765 0.5621836 0.388116 0.4964306 0.4377802 0.5141799 0.4505735 0.7728723 0.4924092 0.7143208 0.4081506 0.747231 0.4984946 0.639495 0.3709818 0.5530917 0.3679437 0.5621836 0.388116 0.7143208 0.4081506 0.6446691 0.3490338 0.639495 0.3709818 0.3566857 0.7808082 0.2898291 0.8014187 0.3599179 0.8014187 0.5708025 0.747923 0.4915419 0.705255 0.5092753 0.6891676 0.4605582 0.7808082 0.5282876 0.7601977 0.4525874 0.7601977 0.7473126 0.6590991 0.666252 0.7713655 0.6564707 0.7476267 0.6564707 0.7476267 0.5647032 0.7713655 0.5708025 0.747923 0.7473126 0.6590991 0.7728723 0.4924092 0.747231 0.4984946 0.4525874 0.7601977 0.3566857 0.7808082 0.4605582 0.7808082 0.623587 0.6359321 0.7473126 0.6590991 0.6564707 0.7476267 0.623587 0.6359321 0.7473126 0.6590991 0.747231 0.4984946 0.6376293 0.4689162 0.639495 0.3709818 0.7143208 0.4081506 0.747231 0.4984946 0.7473126 0.6590991 0.623587 0.6359321 0.3566857 0.7808082 0.3599179 0.8014187 0.4525874 0.8014187 0.7728723 0.4924092 0.7735916 0.6724672 0.7473126 0.6590991 0.5647032 0.7713655 0.666252 0.7713655 0.6564707 0.7476267 0.7473126 0.6590991 0.6564707 0.7476267 0.666252 0.7713655 0.4605582 0.7808082 0.4525874 0.8014187 0.5282877 0.8014187 0.623587 0.6359321 0.5708025 0.747923 0.6564707 0.7476267 0.623587 0.6359321 0.4998615 0.612765 0.5092753 0.6891676 0.4915419 0.705255 0.5647032 0.7713655 0.5708025 0.747923 0.3566857 0.7808082 0.3599179 0.7601977 0.2898291 0.7601977 0.5185404 0.5210509 0.6376293 0.4689162 0.623587 0.6359321 0.623587 0.6359321 0.6376293 0.4689161 0.5185405 0.5210509 0.6446691 0.3490338 0.7335109 0.3909946 0.7143208 0.4081506 0.5530917 0.3679437 0.6446691 0.3490338 0.639495 0.3709818 0.7728723 0.4924092 0.747231 0.4984946 0.7143208 0.4081506 0.6376293 0.4689161 0.747231 0.4984946 0.7143208 0.4081506 0.6376293 0.4689162 0.5185404 0.5210509 0.5141798 0.4505735 0.6376293 0.4689161 0.5621836 0.388116 0.5141799 0.4505735 0.4964306 0.4377802 0.5530917 0.3679437 0.5621836 0.388116 0.623587 0.6359321 0.5708025 0.747923 0.5092753 0.6891676 0.5621836 0.388116 0.5530917 0.3679437 0.4964306 0.4377802 0.7728723 0.4924092 0.7335109 0.3909946 0.7143208 0.4081506 0.639495 0.3709818 0.6446691 0.3490338 0.5530917 0.3679437 0.7143208 0.4081506 0.7335109 0.3909946 0.6446691 0.3490338 0.3566857 0.7808082 0.2781237 0.7808082 0.2898291 0.8014187 0.5708025 0.747923 0.5647032 0.7713655 0.4915419 0.705255 0.4605582 0.7808082 0.5454099 0.7808082 0.5282876 0.7601977 0.7473126 0.6590991 0.7735916 0.6724672 0.666252 0.7713655 0.6564707 0.7476267 0.666252 0.7713655 0.5647032 0.7713655 0.7473126 0.6590991 0.7735916 0.6724672 0.7728723 0.4924092 0.4525874 0.7601977 0.3599179 0.7601977 0.3566857 0.7808082</float_array>
          <technique_common>
            <accessor source="#Bread_02-mesh-map-0-array" count="210" stride="2">
              <param name="S" type="float"/>
              <param name="T" type="float"/>
            </accessor>
          </technique_common>
        </source>
        <vertices id="Bread_02-mesh-vertices">
          <input semantic="POSITION" source="#Bread_02-mesh-positions"/>
        </vertices>
        <triangles material="Breads-material" count="70">
          <input semantic="VERTEX" source="#Bread_02-mesh-vertices" offset="0"/>
          <input semantic="NORMAL" source="#Bread_02-mesh-normals" offset="1"/>
          <input semantic="TEXCOORD" source="#Bread_02-mesh-map-0" offset="2" set="0"/>
          <p>12 0 0 10 1 1 16 2 2 13 3 3 7 4 4 14 5 5 15 6 6 22 7 7 5 8 8 5 8 9 12 0 10 15 6 11 28 9 12 0 10 13 26 11 14 29 12 15 1 13 16 5 8 17 32 14 18 11 15 19 17 16 20 3 17 21 31 18 22 27 19 23 26 11 24 9 20 25 30 21 26 13 3 27 11 15 28 3 17 29 13 3 30 8 22 31 17 16 32 30 21 33 17 16 34 8 22 35 28 9 36 19 23 37 33 24 38 4 25 39 12 0 40 0 10 41 13 3 42 6 26 43 2 27 44 35 28 45 22 7 46 23 29 47 36 30 48 23 29 49 25 31 50 29 12 51 22 7 52 34 32 53 14 5 54 18 33 55 24 34 56 14 5 57 21 35 58 18 33 59 15 6 60 20 36 61 25 31 62 15 6 63 25 31 64 23 29 65 14 5 66 19 23 67 6 26 68 33 24 69 25 31 70 20 36 71 12 0 72 9 20 73 0 10 74 24 34 75 33 24 76 19 23 77 29 12 78 21 35 79 7 4 80 18 33 81 36 30 82 24 34 83 21 35 84 35 28 85 18 33 86 28 9 87 20 36 88 4 25 89 16 2 90 30 21 91 9 20 92 26 11 93 8 22 94 2 27 95 1 13 96 31 18 97 10 1 98 10 1 99 32 14 100 16 2 101 3 17 102 29 12 103 7 4 104 2 27 105 28 9 106 26 11 107 12 0 108 1 13 109 10 1 110 13 3 111 3 17 112 7 4 113 15 6 114 23 29 115 22 7 116 5 8 117 1 13 118 12 0 119 28 9 120 4 25 121 0 10 122 29 12 123 27 19 124 1 13 125 32 14 126 31 18 127 11 15 128 3 17 129 11 15 130 31 18 131 26 11 132 0 10 133 9 20 134 13 3 135 17 16 136 11 15 137 13 3 138 2 27 139 8 22 140 30 21 141 32 14 142 17 16 143 28 9 144 6 26 145 19 23 146 4 25 147 15 6 148 12 0 149 13 3 150 14 5 151 6 26 152 35 28 153 34 32 154 22 7 155 36 30 156 35 28 157 23 29 158 29 12 159 5 8 160 22 7 161 14 5 162 7 4 163 21 35 164 15 6 165 4 25 166 20 36 167 14 5 168 24 34 169 19 23 170 33 24 171 36 30 172 25 31 173 12 0 174 16 2 175 9 20 176 24 34 177 36 30 178 33 24 179 29 12 180 34 32 181 21 35 182 18 33 183 35 28 184 36 30 185 21 35 186 34 32 187 35 28 188 28 9 189 33 24 190 20 36 191 16 2 192 32 14 193 30 21 194 26 11 195 30 21 196 8 22 197 1 13 198 27 19 199 31 18 200 10 1 201 31 18 202 32 14 203 3 17 204 27 19 205 29 12 206 2 27 207 6 26 208 28 9 209</p>
        </triangles>
      </mesh>
    </geometry>
  </library_geometries>
  <library_visual_scenes>
    <visual_scene id="Scene" name="Scene">
      <node id="Bread_02" name="Bread_02" type="NODE">
        <matrix sid="transform">-0.3600262 -5.12785e-15 1.17311e-7 0 -1.17311e-7 1.57372e-8 -0.3600262 0 0 -0.3600262 -1.57372e-8 0 0 0 0 1</matrix>
        <instance_geometry url="#Bread_02-mesh" name="Bread_02">
          <bind_material>
            <technique_common>
              <instance_material symbol="Breads-material" target="#Breads-material">
                <bind_vertex_input semantic="UVMap" input_semantic="TEXCOORD" input_set="0"/>
              </instance_material>
            </technique_common>
          </bind_material>
        </instance_geometry>
      </node>
    </visual_scene>
  </library_visual_scenes>
  <scene>
    <instance_visual_scene url="#Scene"/>
  </scene>
</COLLADA>