<?xml version="1.0" encoding="utf-8"?>
<COLLADA xmlns="http://www.collada.org/2005/11/COLLADASchema" version="1.4.1" xmlns:xsi="http://www.w3.org/2001/XMLSchema-instance">
  <asset>
    <contributor>
      <author>Blender User</author>
      <authoring_tool>Blender 4.0.1 commit date:2023-11-16, commit time:16:40, hash:d0dd92834a08</authoring_tool>
    </contributor>
    <created>2023-11-28T13:23:33</created>
    <modified>2023-11-28T13:23:33</modified>
    <unit name="meter" meter="1"/>
    <up_axis>Z_UP</up_axis>
  </asset>
  <library_effects>
    <effect id="Fryer_basket-effect">
      <profile_COMMON>
        <newparam sid="Fryer_basket_png-surface">
          <surface type="2D">
            <init_from>Fryer_basket_png</init_from>
          </surface>
        </newparam>
        <newparam sid="Fryer_basket_png-sampler">
          <sampler2D>
            <source>Fryer_basket_png-surface</source>
          </sampler2D>
        </newparam>
        <technique sid="common">
          <lambert>
            <emission>
              <color sid="emission">0 0 0 1</color>
            </emission>
            <diffuse>
              <texture texture="Fryer_basket_png-sampler" texcoord="UVMap"/>
            </diffuse>
            <index_of_refraction>
              <float sid="ior">1.45</float>
            </index_of_refraction>
          </lambert>
        </technique>
      </profile_COMMON>
    </effect>
    <effect id="Fryer-effect">
      <profile_COMMON>
        <newparam sid="Fryer-surface">
          <surface type="2D">
            <init_from>Fryer</init_from>
          </surface>
        </newparam>
        <newparam sid="Fryer-sampler">
          <sampler2D>
            <source>Fryer-surface</source>
          </sampler2D>
        </newparam>
        <technique sid="common">
          <lambert>
            <emission>
              <color sid="emission">0 0 0 1</color>
            </emission>
            <diffuse>
              <texture texture="Fryer-sampler" texcoord="UVMap"/>
            </diffuse>
            <index_of_refraction>
              <float sid="ior">1.45</float>
            </index_of_refraction>
          </lambert>
        </technique>
      </profile_COMMON>
    </effect>
  </library_effects>
  <library_images>
    <image id="Fryer" name="Fryer">
      <init_from>Fryer.png</init_from>
    </image>
    <image id="Fryer_basket_png" name="Fryer_basket_png">
      <init_from>Fryer_basket.png</init_from>
    </image>
  </library_images>
  <library_materials>
    <material id="Fryer_basket-material" name="Fryer_basket">
      <instance_effect url="#Fryer_basket-effect"/>
    </material>
    <material id="Fryer-material" name="Fryer">
      <instance_effect url="#Fryer-effect"/>
    </material>
  </library_materials>
  <library_geometries>
    <geometry id="Fryer_basket_01-mesh" name="Fryer_basket_01">
      <mesh>
        <source id="Fryer_basket_01-mesh-positions">
          <float_array id="Fryer_basket_01-mesh-positions-array" count="288">-0.1700305 -0.06815826 -0.09130913 -0.1707113 -0.08938407 -0.07094728 -0.1911026 -0.06898736 -0.0709415 -0.1969789 -0.07616913 0.101823 -0.1765878 -0.09656608 0.101823 -0.1700305 0.06815826 -0.09130913 -0.1911026 0.06898736 -0.0709415 -0.1707113 0.08938413 -0.07094728 -0.1765878 0.09656608 0.101823 -0.1969789 0.07616913 0.101823 0.1700304 -0.06815826 -0.09130913 0.1911026 -0.06898736 -0.0709415 0.1707112 -0.08938413 -0.07094728 0.1765878 -0.09656608 0.101823 0.1969789 -0.07616913 0.101823 0.1700304 0.06815826 -0.09130913 0.1707112 0.08938407 -0.07094728 0.1911026 0.06898736 -0.0709415 0.1969789 0.07616913 0.101823 0.1765878 0.09656608 0.101823 0 0.06815826 -0.09130913 0 0.08938407 -0.07094728 0 -0.06815826 -0.09130913 0 -0.08938407 -0.07094728 0 -0.09656608 0.101823 0 0.09656608 0.101823 -0.2028144 -0.08112937 0.1068493 -0.1818191 -0.1028547 0.1068493 -0.1818191 0.1028547 0.1068493 -0.2028144 0.08112937 0.1068493 0.181819 -0.1028547 0.1068493 0.2028143 -0.08112937 0.1068493 0.2028143 0.08112937 0.1068493 0.181819 0.1028547 0.1068493 0 -0.1028547 0.1068493 0 0.1028547 0.1068493 -0.1945965 -0.07784211 0.1136147 -0.174452 -0.09868711 0.1136147 -0.174452 0.09868711 0.1136147 -0.1945965 0.07784211 0.1136147 0.174452 -0.09868711 0.1136147 0.1945965 -0.07784211 0.1136147 0.1945965 0.07784211 0.1136147 0.174452 0.09868711 0.1136147 0 -0.09868711 0.1136147 0 0.09868711 0.1136147 -0.1985101 -0.05745112 0.1072059 -0.21702 -0.05745112 0.1814683 -0.1948546 -0.06378269 0.1126655 -0.2144395 -0.06378269 0.1840574 -0.2021657 -0.06378269 0.1072059 -0.2196007 -0.06378269 0.1788792 -0.2334134 -0.06378275 0.1865468 -0.2293881 -0.05745112 0.1834194 -0.2274951 -0.06378275 0.1802921 -0.2538834 -0.06378269 0.0685355 -0.249858 -0.05745112 0.06540822 -0.2479651 -0.06378269 0.06228089 -0.1985102 0.05745112 0.1072059 -0.2170201 0.05745112 0.1814683 -0.1948546 0.06378275 0.1126655 -0.2144395 0.06378275 0.1840574 -0.2021657 0.06378275 0.1072059 -0.2196007 0.06378275 0.1788792 -0.2334134 0.06378275 0.1865468 -0.2293881 0.05745112 0.1834195 -0.2274952 0.06378275 0.1802921 -0.2538834 0.06378275 0.0685355 -0.249858 0.05745112 0.06540822 -0.2479651 0.06378275 0.06228089 -0.1700305 -0.06815826 -0.09130913 -0.1707113 -0.08938407 -0.07094728 -0.1911026 -0.06898736 -0.0709415 -0.1969789 -0.07616913 0.101823 -0.1765878 -0.09656608 0.101823 -0.1700305 0.06815826 -0.09130913 -0.1911026 0.06898736 -0.0709415 -0.1707113 0.08938413 -0.07094728 -0.1765878 0.09656608 0.101823 -0.1969789 0.07616913 0.101823 0.1700304 -0.06815826 -0.09130913 0.1911026 -0.06898736 -0.0709415 0.1707112 -0.08938413 -0.07094728 0.1765878 -0.09656608 0.101823 0.1969789 -0.07616913 0.101823 0.1700304 0.06815826 -0.09130913 0.1707112 0.08938407 -0.07094728 0.1911026 0.06898736 -0.0709415 0.1969789 0.07616913 0.101823 0.1765878 0.09656608 0.101823 0 0.06815826 -0.09130913 0 0.08938407 -0.07094728 0 -0.06815826 -0.09130913 0 -0.08938407 -0.07094728 0 -0.09656608 0.101823 0 0.09656608 0.101823</float_array>
          <technique_common>
            <accessor source="#Fryer_basket_01-mesh-positions-array" count="96" stride="3">
              <param name="X" type="float"/>
              <param name="Y" type="float"/>
              <param name="Z" type="float"/>
            </accessor>
          </technique_common>
        </source>
        <source id="Fryer_basket_01-mesh-normals">
          <float_array id="Fryer_basket_01-mesh-normals-array" count="534">0 -0.9991372 -0.04153364 -0.3364014 -0.8635292 -0.3757014 0 -0.9115089 -0.4112806 0.9205286 0.3877854 -0.04743039 0.8651025 -0.3357176 -0.3726812 0.8651027 0.3357177 -0.3726811 -0.9205285 -0.3877857 -0.04743039 -0.8651025 0.3357175 -0.3726813 -0.8651025 -0.3357176 -0.3726813 0 0.9991372 -0.04153364 0.3364013 0.8635292 -0.3757013 0 0.9115089 -0.4112806 -0.332185 -0.3305659 -0.8833908 -0.3321851 0.3305659 -0.8833908 -0.3364015 0.8635292 -0.3757013 0.3321851 -0.330566 -0.8833908 0.3364014 -0.8635293 -0.3757013 0.3321852 0.330566 -0.8833908 -0.9205285 0.3877856 -0.04743039 -0.3856602 0.9212075 -0.05141174 0 0.3730671 -0.9278045 0.3856605 0.9212073 -0.0514118 0.9205286 -0.3877853 -0.04743033 0.3856604 -0.9212073 -0.05141174 0 -0.3730671 -0.9278045 0.1696146 0.5277686 -0.8322807 0.5060335 0.2380636 -0.8290091 0.5540107 0.1733475 -0.8142622 -0.1696141 -0.5277675 -0.8322816 0 -0.6243496 -0.781145 -0.2320927 -0.4821457 -0.8447891 0.1696146 -0.5277686 -0.8322807 0 -0.6243497 -0.7811451 0.5060336 -0.2380637 -0.8290088 0.2320928 -0.4821475 -0.844788 -0.1696141 0.5277675 -0.8322815 -0.5060341 0.2380641 -0.8290085 -0.2320927 0.4821457 -0.8447891 0.5540111 -0.1733474 -0.8142619 0 0.6243496 -0.781145 0.2320928 0.4821475 -0.844788 0 0.6243497 -0.7811451 -0.506034 -0.238064 -0.8290085 -0.5540117 -0.1733478 -0.8142614 -0.554012 0.1733478 -0.8142613 0 0.8514209 0.5244833 0.17978 0.738017 0.6503923 0.3283534 0.6016321 0.7281641 0.5631482 0.2272937 0.7944821 0.5628083 -0.2281377 0.7944809 0.5631473 -0.2272936 0.7944827 0.3283534 -0.6016321 0.7281641 0.1797801 -0.738017 0.6503923 -0.3283532 -0.6016301 0.7281659 -0.5628069 -0.2281367 0.7944822 -0.563146 -0.2272921 0.7944841 -0.1797789 0.7380169 0.6503927 0 0.8514208 0.5244832 -0.5628061 0.2281367 0.794483 -0.5631452 0.227292 0.7944847 -0.3283531 0.60163 0.7281659 0 -0.8514209 0.5244833 0 -0.8514208 0.5244832 -0.1797789 -0.7380169 0.6503927 0.5628092 0.2281377 0.7944803 0.3368691 0.9354242 0.1072422 0 0.9842051 0.1770324 0.4412937 0.8942304 0.07491207 -0.336869 0.935424 0.1072444 0 0.9842051 0.1770323 -0.8977648 0.425154 -0.1151636 -0.4412922 0.8942309 0.07491517 -0.8977648 -0.4251539 -0.1151636 -0.9316189 0.335106 -0.1406778 -0.4412922 -0.8942309 0.07491517 -0.9316189 -0.335106 -0.1406778 -0.336869 -0.935424 0.1072444 0 -0.9842051 0.1770324 0.3368691 -0.9354242 0.1072422 0 -0.9842051 0.1770323 0.8977638 -0.4251544 -0.115169 0.4412937 -0.8942304 0.07491207 0.8977639 0.4251544 -0.115169 0.9316181 -0.3351057 -0.1406837 0.9316181 0.3351058 -0.1406838 0.8574391 0.4582735 0.2340591 0.7743114 0.6023263 0.1940229 0.76927 0.6094745 0.191741 0 -1 0 4.05876e-7 -1 -1.10938e-6 0 -1 0 -0.1514027 0.4169604 -0.8962261 -0.1478672 0.4116749 -0.8992549 -0.1425675 0.4037342 -0.9036999 -0.8686988 0.4456412 -0.2162551 -0.8489544 0.4863007 -0.206853 -0.8474261 0.4892591 -0.206142 0.9213449 0.3543772 -0.1598141 0.9213432 0.3543815 -0.1598139 0.9213449 0.354377 -0.1598141 2.9956e-7 -1 -3.721e-7 2.45898e-7 -1 0 0.1341024 0.4076179 0.903252 0.1247888 0.3866873 0.913729 0.1204835 0.3769895 0.9183479 -0.7209933 0.1214148 -0.6822221 0 -1 2.66408e-7 0 -1 2.81723e-7 -0.8030761 0.5793655 0.1392997 -0.8030763 0.5793653 0.1392995 -0.8030761 0.5793655 0.1392997 0.7743101 -0.6023282 0.1940224 0.857436 -0.4582796 0.2340584 0.7692687 -0.6094762 0.1917404 0 1 0 0 1 0 0 1 -1.32307e-7 -0.1514004 -0.4169606 -0.8962265 -0.1478648 -0.4116746 -0.8992553 -0.1591824 -0.4285619 -0.8893795 -0.8489533 -0.4863028 -0.2068527 -0.8686996 -0.4456397 -0.216255 -0.8474248 -0.4892615 -0.2061417 0.9213449 -0.3543772 -0.159814 0.9213427 -0.3543826 -0.1598139 0.9213427 -0.3543828 -0.1598139 0 1 1.27608e-7 0.1341038 -0.4076178 0.903252 0.1247916 -0.3866871 0.9137288 0.1411714 -0.4234578 0.8948488 -0.7209932 -0.1214126 -0.6822227 0 1 0 0 1 1.62441e-7 -0.8030781 -0.5793628 0.1393 -0.8030778 -0.5793633 0.1392997 -0.8030778 -0.5793633 0.1392997 0.3364014 0.8635292 0.3757014 0 0.9991372 0.04153364 0 0.9115089 0.4112805 -0.8651027 0.3357176 0.3726813 -0.9205287 -0.3877854 0.04743039 -0.8651027 -0.3357177 0.372681 0.8651025 -0.3357174 0.3726813 0.9205285 0.3877857 0.04743039 0.8651026 0.3357176 0.3726813 -0.3364012 -0.8635292 0.3757013 0 -0.9991372 0.04153364 0 -0.9115089 0.4112805 0.3321851 0.3305659 0.8833908 0.332185 -0.3305659 0.8833908 0.3364015 -0.8635292 0.3757014 -0.332185 0.330566 0.8833908 -0.3364014 0.8635292 0.3757013 -0.3321852 -0.3305661 0.8833908 0.3856602 0.9212075 0.0514118 0.9205285 -0.3877856 0.04743039 0.3856602 -0.9212075 0.05141174 0 -0.3730672 0.9278045 -0.9205286 0.3877853 0.04743033 -0.3856604 0.9212073 0.05141174 0 0.3730671 0.9278045 -0.3856602 -0.9212075 -0.0514118 0.8621341 0.4480945 0.2365083 -0.1591845 0.4285609 -0.8893796 -0.8698232 0.4431747 -0.2168039 0.9213432 0.3543816 -0.1598139 1.57315e-7 -1 0 0.141171 0.4234577 0.8948488 -0.8030764 0.5793653 0.1392995 0.8621311 -0.4481008 0.2365077 0 1 0 -0.142565 -0.4037333 -0.9037007 -0.8698241 -0.443173 -0.2168038 0.921345 -0.354377 -0.159814 0.120487 -0.3769891 0.9183475 0 1 0 -0.8030781 -0.5793628 0.1393 -0.3856605 -0.9212073 0.0514118</float_array>
          <technique_common>
            <accessor source="#Fryer_basket_01-mesh-normals-array" count="178" stride="3">
              <param name="X" type="float"/>
              <param name="Y" type="float"/>
              <param name="Z" type="float"/>
            </accessor>
          </technique_common>
        </source>
        <source id="Fryer_basket_01-mesh-map-0">
          <float_array id="Fryer_basket_01-mesh-map-0-array" count="1068">0.9890001 0.5091152 0.5834044 0.9424388 0.5834044 0.5091152 0.9890001 0.3157719 0.5834181 0.6842287 0.5834181 0.3340016 0.9890001 0.7024585 0.5834181 0.3340016 0.5834181 0.6842287 0.9890001 0.5091152 0.5834044 0.07579153 0.5834044 0.5091152 0.6022933 0.9407107 0.5524635 0.9424388 0.6003469 0.994199 0.9223099 0.9407107 0.9242563 0.994199 0.9721397 0.9424389 0.6022933 0.07751959 0.6003469 0.02403122 0.5524635 0.07579153 0.9223099 0.07751959 0.9721397 0.07579153 0.9242563 0.02403122 0.6022933 0.9407107 0.9242563 0.994199 0.9223099 0.9407107 0.5834044 0.7360026 0.9890001 0.7024585 0.5834181 0.6842287 0.5834044 0.2822277 0.9890001 0.3157719 0.9890001 0.2639974 0.9223099 0.9407107 0.9721397 0.5091152 0.9223099 0.5091151 0.9890001 0.3157719 0.5834044 0.2822277 0.9890001 0.2639974 0.9223099 0.07751959 0.6003469 0.02403122 0.6022933 0.07751959 0.5834044 0.7360027 0.9890001 0.7024585 0.9890001 0.754233 0.6022933 0.07751959 0.5524635 0.5091152 0.6022933 0.5091152 0.9223099 0.07751959 0.6022933 0.5091152 0.9223099 0.5091151 0.9223099 0.5091151 0.6022933 0.9407107 0.9223099 0.9407107 0.6022933 0.9407107 0.5524635 0.5091152 0.5524635 0.9424388 0.9223099 0.07751959 0.9721397 0.5091152 0.9721397 0.07579153 0.5834044 0.9424389 0.9890001 0.5091152 0.5834044 0.5091152 0.5834044 0.07579153 0.9890001 0.5091152 0.5834044 0.5091152 0.3889905 0.1785618 0.3602036 0.1296538 0.3509536 0.1405358 0.02883249 0.8371728 0.0171054 0.5078673 0.0171054 0.8469282 0.02883249 0.1785618 0.0171054 0.5078673 0.02883249 0.5078673 0.02883249 0.1785618 0.05761927 0.1296538 0.0171054 0.1688063 0.3889905 0.8371728 0.3602036 0.8860808 0.4007176 0.8469282 0.3509536 0.1405358 0.05761927 0.1296538 0.06686931 0.1405358 0.3889905 0.1785618 0.4007176 0.5078673 0.4007176 0.1688063 0.3889905 0.8371728 0.4007176 0.5078673 0.3889905 0.5078673 0.02883249 0.8371728 0.05761927 0.8860808 0.06686931 0.8751989 0.06686931 0.8751989 0.3602036 0.8860808 0.3509536 0.8751989 0.2072899 0.5078673 0.2199062 0.1825446 0.2072899 0.1688063 0.3602036 0.1296538 0.06374949 0.1449785 0.05761927 0.1296538 0.0171054 0.1688063 0.06374949 0.1449785 0.02487713 0.1825446 0.0171054 0.8469282 0.06374949 0.8707559 0.05761927 0.8860808 0.2072899 0.5078673 0.2199062 0.8331899 0.2199062 0.5078673 0.05761927 0.8860808 0.3540735 0.8707559 0.3602036 0.8860808 0.4007176 0.8469282 0.3540735 0.8707559 0.3929458 0.8331899 0.2072899 0.5078673 0.2199062 0.1825446 0.2199062 0.5078673 0.2072899 0.5078673 0.2199062 0.8331899 0.2072899 0.8469282 0.4007176 0.1688063 0.3540735 0.1449785 0.3602036 0.1296538 0.2199062 0.8331899 0.1979168 0.5078673 0.1979168 0.8371728 0.2199062 0.1825446 0.1979168 0.5078673 0.2199062 0.5078673 0.2199062 0.6530293 0.1979168 0.6879463 0.2199062 0.6919016 0.2199062 0.3627052 0.1979168 0.6499094 0.2199062 0.6530293 0.2199062 0.3627052 0.1979168 0.3277882 0.1979168 0.3658251 0.2199062 0.1825446 0.1979168 0.5078673 0.1979168 0.1785618 0.2199062 0.8331899 0.1979168 0.5078673 0.2199062 0.5078673 0.2199062 0.3627052 0.1979168 0.3277882 0.2199062 0.323833 0.2199062 0.6530293 0.1979168 0.3658251 0.2199062 0.3627052 0.2199062 0.6530293 0.1979168 0.6879463 0.1979168 0.6499094 0.2490213 0.6468647 0.2317397 0.4590727 0.2490213 0.4441708 0.3209378 0.4590727 0.2533952 0.6397979 0.3009827 0.4441708 0.2604388 0.5610892 0.2260274 0.5438076 0.2208609 0.5610892 0.2317397 0.6397979 0.2490213 0.4441708 0.2317397 0.4441708 0.2317397 0.6436545 0.2490213 0.4842116 0.2490213 0.6521902 0.2674824 0.6539314 0.2260274 0.6436545 0.2533952 0.6397979 0.2674824 0.5438076 0.2208609 0.5610892 0.2156944 0.5438076 0.2317397 0.4927474 0.2490213 0.4842116 0.2317397 0.4756759 0.2260274 0.6436545 0.1598232 0.4927474 0.1701563 0.4756759 0.2490213 0.6521902 0.2317397 0.4927474 0.2317397 0.6607259 0.2317397 0.4590727 0.2490213 0.6468647 0.2490213 0.4441708 0.3209378 0.4590727 0.2533952 0.6397979 0.2674824 0.6539314 0.2604388 0.5610892 0.2260274 0.5438076 0.2533952 0.5438076 0.2490213 0.4441708 0.2317397 0.6397979 0.2317397 0.4441708 0.2490213 0.4842116 0.2317397 0.6436545 0.2490213 0.6521902 0.2260274 0.6436545 0.2674824 0.6539314 0.2533952 0.6397979 0.2674824 0.5438076 0.2208609 0.5610892 0.2604388 0.5610892 0.2317397 0.4927474 0.2317397 0.4756759 0.2490213 0.4842116 0.2260274 0.6436545 0.1598232 0.4927474 0.2156944 0.6607259 0.2317397 0.4927474 0.2490213 0.6521902 0.2317397 0.6607259 0.5834044 0.9424388 0.9890001 0.5091152 0.5834044 0.5091152 0.5834181 0.6842287 0.9890001 0.3157719 0.5834181 0.3340016 0.5834181 0.3340016 0.9890001 0.7024585 0.5834181 0.6842287 0.5834044 0.07579153 0.9890001 0.5091152 0.5834044 0.5091152 0.6022933 0.9407107 0.6003469 0.994199 0.5524635 0.9424388 0.9223099 0.9407107 0.9721397 0.9424389 0.9242563 0.994199 0.6022933 0.07751959 0.5524635 0.07579153 0.6003469 0.02403122 0.9223099 0.07751959 0.9242563 0.02403122 0.9721397 0.07579153 0.9242563 0.994199 0.6022933 0.9407107 0.9223099 0.9407107 0.5834044 0.7360026 0.9890001 0.7024585 0.9890001 0.754233 0.9890001 0.3157719 0.5834044 0.2822277 0.9890001 0.2639974 0.9721397 0.5091152 0.9223099 0.9407107 0.9223099 0.5091151 0.9890001 0.3157719 0.5834044 0.2822277 0.5834181 0.3340016 0.6003469 0.02403122 0.9223099 0.07751959 0.6022933 0.07751959 0.9890001 0.7024585 0.5834044 0.7360027 0.9890001 0.754233 0.5524635 0.5091152 0.6022933 0.07751959 0.6022933 0.5091152 0.6022933 0.5091152 0.9223099 0.07751959 0.9223099 0.5091151 0.6022933 0.9407107 0.9223099 0.5091151 0.9223099 0.9407107 0.6022933 0.9407107 0.5524635 0.5091152 0.6022933 0.5091152 0.9223099 0.07751959 0.9721397 0.5091152 0.9223099 0.5091151 0.5834044 0.9424389 0.9890001 0.5091152 0.9890001 0.9573554 0.5834044 0.07579153 0.9890001 0.5091152 0.9890001 0.06087487 0.9890001 0.5091152 0.9890001 0.9573554 0.5834044 0.9424388 0.9890001 0.3157719 0.9890001 0.7024585 0.5834181 0.6842287 0.9890001 0.7024585 0.9890001 0.3157719 0.5834181 0.3340016 0.9890001 0.5091152 0.9890001 0.06087487 0.5834044 0.07579153 0.6022933 0.9407107 0.6003469 0.994199 0.9242563 0.994199 0.5834044 0.7360026 0.9890001 0.754233 0.9890001 0.7024585 0.5834044 0.2822277 0.5834181 0.3340016 0.9890001 0.3157719 0.9223099 0.9407107 0.9721397 0.9424389 0.9721397 0.5091152 0.9890001 0.3157719 0.5834181 0.3340016 0.5834044 0.2822277 0.9223099 0.07751959 0.9242563 0.02403122 0.6003469 0.02403122 0.5834044 0.7360027 0.5834181 0.6842287 0.9890001 0.7024585 0.6022933 0.07751959 0.5524635 0.07579153 0.5524635 0.5091152 0.9223099 0.07751959 0.6022933 0.07751959 0.6022933 0.5091152 0.9223099 0.5091151 0.6022933 0.5091152 0.6022933 0.9407107 0.6022933 0.9407107 0.6022933 0.5091152 0.5524635 0.5091152 0.9223099 0.07751959 0.9223099 0.5091151 0.9721397 0.5091152 0.5834044 0.9424389 0.9890001 0.9573554 0.9890001 0.5091152 0.5834044 0.07579153 0.9890001 0.06087487 0.9890001 0.5091152 0.3889905 0.1785618 0.4007176 0.1688063 0.3602036 0.1296538 0.02883249 0.8371728 0.02883249 0.5078673 0.0171054 0.5078673 0.02883249 0.1785618 0.0171054 0.1688063 0.0171054 0.5078673 0.02883249 0.1785618 0.06686931 0.1405358 0.05761927 0.1296538 0.3889905 0.8371728 0.3509536 0.8751989 0.3602036 0.8860808 0.3509536 0.1405358 0.3602036 0.1296538 0.05761927 0.1296538 0.3889905 0.1785618 0.3889905 0.5078673 0.4007176 0.5078673 0.3889905 0.8371728 0.4007176 0.8469282 0.4007176 0.5078673 0.02883249 0.8371728 0.0171054 0.8469282 0.05761927 0.8860808 0.06686931 0.8751989 0.05761927 0.8860808 0.3602036 0.8860808 0.2072899 0.5078673 0.2199062 0.5078673 0.2199062 0.1825446 0.3602036 0.1296538 0.3540735 0.1449785 0.06374949 0.1449785 0.0171054 0.1688063 0.05761927 0.1296538 0.06374949 0.1449785 0.0171054 0.8469282 0.02487719 0.8331899 0.06374949 0.8707559 0.2072899 0.5078673 0.2072899 0.8469282 0.2199062 0.8331899 0.05761927 0.8860808 0.06374949 0.8707559 0.3540735 0.8707559 0.4007176 0.8469282 0.3602036 0.8860808 0.3540735 0.8707559 0.2072899 0.5078673 0.2072899 0.1688063 0.2199062 0.1825446 0.2072899 0.5078673 0.2199062 0.5078673 0.2199062 0.8331899 0.4007176 0.1688063 0.3929458 0.1825446 0.3540735 0.1449785 0.2199062 0.8331899 0.2199062 0.5078673 0.1979168 0.5078673 0.2199062 0.1825446 0.1979168 0.1785618 0.1979168 0.5078673 0.2199062 0.6530293 0.1979168 0.6499094 0.1979168 0.6879463 0.2199062 0.3627052 0.1979168 0.3658251 0.1979168 0.6499094 0.2199062 0.3627052 0.2199062 0.323833 0.1979168 0.3277882 0.2199062 0.1825446 0.2199062 0.5078673 0.1979168 0.5078673 0.2199062 0.8331899 0.1979168 0.8371728 0.1979168 0.5078673 0.2199062 0.3627052 0.1979168 0.3658251 0.1979168 0.3277882 0.2199062 0.6530293 0.1979168 0.6499094 0.1979168 0.3658251 0.2199062 0.6530293 0.2199062 0.6919016 0.1979168 0.6879463 0.2490213 0.6468647 0.2317397 0.6539314 0.2317397 0.4590727 0.3209378 0.4590727 0.2674824 0.6539314 0.2533952 0.6397979 0.2604388 0.5610892 0.2533952 0.5438076 0.2260274 0.5438076 0.2317397 0.6397979 0.2490213 0.6468647 0.2490213 0.4441708 0.2317397 0.6436545 0.2317397 0.4756759 0.2490213 0.4842116 0.2674824 0.6539314 0.2156944 0.6607259 0.2260274 0.6436545 0.2674824 0.5438076 0.2604388 0.5610892 0.2208609 0.5610892 0.2260274 0.6436545 0.2156944 0.6607259 0.1598232 0.4927474 0.2490213 0.6521902 0.2490213 0.4842116 0.2317397 0.4927474 0.2317397 0.4590727 0.2317397 0.6539314 0.2490213 0.6468647 0.3209378 0.4590727 0.3009827 0.4441708 0.2533952 0.6397979 0.2604388 0.5610892 0.2208609 0.5610892 0.2260274 0.5438076 0.2490213 0.4441708 0.2490213 0.6468647 0.2317397 0.6397979 0.2490213 0.4842116 0.2317397 0.4756759 0.2317397 0.6436545 0.2260274 0.6436545 0.2156944 0.6607259 0.2674824 0.6539314 0.2674824 0.5438076 0.2156944 0.5438076 0.2208609 0.5610892 0.2260274 0.6436545 0.1701563 0.4756759 0.1598232 0.4927474 0.2317397 0.4927474 0.2490213 0.4842116 0.2490213 0.6521902 0.5834044 0.9424388 0.9890001 0.9573554 0.9890001 0.5091152 0.5834181 0.6842287 0.9890001 0.7024585 0.9890001 0.3157719 0.5834181 0.3340016 0.9890001 0.3157719 0.9890001 0.7024585 0.5834044 0.07579153 0.9890001 0.06087487 0.9890001 0.5091152 0.9242563 0.994199 0.6003469 0.994199 0.6022933 0.9407107 0.5834044 0.7360026 0.5834181 0.6842287 0.9890001 0.7024585 0.9890001 0.3157719 0.5834181 0.3340016 0.5834044 0.2822277 0.9721397 0.5091152 0.9721397 0.9424389 0.9223099 0.9407107 0.9890001 0.3157719 0.9890001 0.2639974 0.5834044 0.2822277 0.6003469 0.02403122 0.9242563 0.02403122 0.9223099 0.07751959 0.9890001 0.7024585 0.5834181 0.6842287 0.5834044 0.7360027 0.5524635 0.5091152 0.5524635 0.07579153 0.6022933 0.07751959 0.6022933 0.5091152 0.6022933 0.07751959 0.9223099 0.07751959 0.6022933 0.9407107 0.6022933 0.5091152 0.9223099 0.5091151 0.6022933 0.9407107 0.5524635 0.9424388 0.5524635 0.5091152 0.9223099 0.07751959 0.9721397 0.07579153 0.9721397 0.5091152 0.5834044 0.9424389 0.5834044 0.5091152 0.9890001 0.5091152 0.5834044 0.07579153 0.5834044 0.5091152 0.9890001 0.5091152</float_array>
          <technique_common>
            <accessor source="#Fryer_basket_01-mesh-map-0-array" count="534" stride="2">
              <param name="S" type="float"/>
              <param name="T" type="float"/>
            </accessor>
          </technique_common>
        </source>
        <vertices id="Fryer_basket_01-mesh-vertices">
          <input semantic="POSITION" source="#Fryer_basket_01-mesh-positions"/>
        </vertices>
        <triangles material="Fryer_basket-material" count="178">
          <input semantic="VERTEX" source="#Fryer_basket_01-mesh-vertices" offset="0"/>
          <input semantic="NORMAL" source="#Fryer_basket_01-mesh-normals" offset="1"/>
          <input semantic="TEXCOORD" source="#Fryer_basket_01-mesh-map-0" offset="2" set="0"/>
          <p>24 0 0 1 1 1 23 2 2 18 3 3 11 4 4 17 5 5 3 6 6 6 7 7 2 8 8 25 9 9 16 10 10 21 11 11 0 12 12 1 1 13 2 8 14 5 13 15 6 7 16 7 14 17 10 15 18 11 4 19 12 16 20 15 17 21 16 10 22 17 5 23 0 12 24 6 7 25 5 13 26 1 1 27 3 6 28 2 8 29 7 14 30 9 18 31 8 19 32 5 13 33 21 11 34 20 20 35 18 3 36 16 10 37 19 21 38 15 17 39 11 4 40 10 15 41 12 16 42 14 22 43 13 23 44 10 15 45 23 2 46 22 24 47 15 17 48 22 24 49 20 20 50 20 20 51 0 12 52 5 13 53 0 12 54 23 2 55 1 1 56 15 17 57 21 11 58 16 10 59 7 14 60 25 9 61 21 11 62 12 16 63 24 0 64 23 2 65 19 25 66 32 26 67 18 27 68 4 28 69 34 29 70 27 30 71 13 31 72 34 29 73 24 32 74 13 31 75 31 33 76 30 34 77 8 35 78 29 36 79 28 37 80 18 27 81 31 33 82 14 38 83 19 25 84 35 39 85 33 40 86 8 35 87 35 39 88 25 41 89 4 28 90 26 42 91 3 43 92 3 43 93 29 36 94 9 44 95 35 45 96 43 46 97 33 47 98 32 48 99 41 49 100 31 50 101 30 51 102 41 49 103 40 52 104 27 53 105 36 54 106 26 55 107 35 45 108 38 56 109 45 57 110 26 55 111 39 58 112 29 59 113 28 60 114 39 58 115 38 56 116 34 61 117 40 52 118 44 62 119 34 61 120 37 63 121 27 53 122 33 47 123 42 64 124 32 48 125 37 65 126 24 66 127 4 67 128 40 68 129 24 66 130 44 69 131 41 70 132 13 71 133 40 68 134 42 72 135 14 73 136 41 70 137 42 72 138 19 74 139 18 75 140 43 76 141 25 77 142 19 74 143 38 78 144 25 77 145 45 79 146 39 80 147 8 81 148 38 78 149 36 82 150 9 83 151 39 80 152 36 82 153 4 67 154 3 84 155 47 85 156 48 86 157 46 87 158 48 88 159 51 89 160 50 90 161 47 91 162 54 92 163 53 93 164 51 94 165 46 95 166 50 96 167 54 97 168 56 98 169 53 99 170 49 100 171 54 101 172 51 89 173 49 102 174 53 103 175 52 104 176 55 105 177 56 105 178 57 105 179 54 101 180 55 106 181 57 107 182 53 108 183 55 109 184 52 110 185 60 111 186 59 112 187 58 113 188 60 114 189 63 115 190 61 116 191 59 117 192 66 118 193 63 119 194 58 120 195 63 121 196 62 122 197 68 123 198 66 124 199 65 125 200 66 126 201 61 116 202 63 115 203 61 127 204 65 128 205 59 129 206 67 130 207 69 130 208 68 130 209 66 126 210 67 131 211 64 132 212 67 133 213 65 134 214 64 135 215 71 136 216 94 137 217 93 138 218 81 139 219 88 140 220 87 141 221 76 142 222 73 143 223 72 144 224 86 145 225 95 146 226 91 147 227 70 148 228 72 144 229 71 136 230 75 149 231 77 150 232 76 142 233 80 151 234 82 152 235 81 139 236 85 153 237 87 141 238 86 145 239 76 142 240 70 148 241 75 149 242 71 136 243 73 143 244 74 154 245 79 155 246 77 150 247 78 156 248 91 147 249 75 149 250 90 157 251 88 140 252 86 145 253 87 141 254 81 139 255 85 153 256 80 151 257 84 158 258 82 152 259 83 159 260 93 138 261 80 151 262 92 160 263 92 160 264 85 153 265 90 157 266 70 148 267 90 157 268 75 149 269 70 148 270 93 138 271 92 160 272 85 153 273 91 147 274 90 157 275 77 150 276 95 146 277 78 156 278 82 152 279 94 137 280 83 159 281 24 0 282 4 161 283 1 1 284 18 3 285 14 22 286 11 4 287 3 6 288 9 18 289 6 7 290 25 9 291 19 21 292 16 10 293 0 12 294 2 8 295 6 7 296 1 1 297 4 161 298 3 6 299 7 14 300 6 7 301 9 18 302 5 13 303 7 14 304 21 11 305 18 3 306 17 5 307 16 10 308 15 17 309 17 5 310 11 4 311 12 16 312 11 4 313 14 22 314 10 15 315 12 16 316 23 2 317 15 17 318 10 15 319 22 24 320 20 20 321 22 24 322 0 12 323 0 12 324 22 24 325 23 2 326 15 17 327 20 20 328 21 11 329 7 14 330 8 19 331 25 9 332 12 16 333 13 23 334 24 0 335 19 25 336 33 40 337 32 26 338 4 28 339 24 32 340 34 29 341 13 31 342 30 34 343 34 29 344 13 31 345 14 38 346 31 33 347 8 35 348 9 44 349 29 36 350 18 27 351 32 26 352 31 33 353 19 25 354 25 41 355 35 39 356 8 35 357 28 37 358 35 39 359 4 28 360 27 30 361 26 42 362 3 43 363 26 42 364 29 36 365 35 45 366 45 57 367 43 46 368 32 48 369 42 64 370 41 49 371 30 51 372 31 50 373 41 49 374 27 53 375 37 63 376 36 54 377 35 45 378 28 60 379 38 56 380 26 55 381 36 54 382 39 58 383 28 60 384 29 59 385 39 58 386 34 61 387 30 51 388 40 52 389 34 61 390 44 62 391 37 63 392 33 47 393 43 46 394 42 64 395 37 65 396 44 69 397 24 66 398 40 68 399 13 71 400 24 66 401 41 70 402 14 73 403 13 71 404 42 72 405 18 75 406 14 73 407 42 72 408 43 76 409 19 74 410 43 76 411 45 79 412 25 77 413 38 78 414 8 81 415 25 77 416 39 80 417 9 83 418 8 81 419 36 82 420 3 84 421 9 83 422 36 82 423 37 65 424 4 67 425 47 85 426 49 162 427 48 86 428 48 88 429 49 100 430 51 89 431 47 91 432 51 163 433 54 92 434 51 94 435 47 164 436 46 95 437 54 97 438 57 165 439 56 98 440 49 100 441 52 166 442 54 101 443 49 102 444 47 167 445 53 103 446 54 101 447 52 166 448 55 106 449 53 108 450 56 168 451 55 109 452 60 111 453 61 169 454 59 112 455 60 114 456 62 170 457 63 115 458 59 117 459 65 171 460 66 118 461 58 120 462 59 172 463 63 121 464 68 123 465 69 173 466 66 124 467 66 126 468 64 132 469 61 116 470 61 127 471 64 174 472 65 128 473 66 126 474 69 175 475 67 131 476 67 133 477 68 176 478 65 134 479 71 136 480 74 154 481 94 137 482 81 139 483 84 158 484 88 140 485 76 142 486 79 155 487 73 143 488 86 145 489 89 177 490 95 146 491 76 142 492 72 144 493 70 148 494 71 136 495 72 144 496 73 143 497 79 155 498 76 142 499 77 150 500 91 147 501 77 150 502 75 149 503 88 140 504 89 177 505 86 145 506 81 139 507 87 141 508 85 153 509 84 158 510 81 139 511 82 152 512 93 138 513 82 152 514 80 151 515 92 160 516 80 151 517 85 153 518 70 148 519 92 160 520 90 157 521 70 148 522 71 136 523 93 138 524 85 153 525 86 145 526 91 147 527 77 150 528 91 147 529 95 146 530 82 152 531 93 138 532 94 137 533</p>
        </triangles>
      </mesh>
    </geometry>
    <geometry id="Fryer_basket-mesh" name="Fryer_basket">
      <mesh>
        <source id="Fryer_basket-mesh-positions">
          <float_array id="Fryer_basket-mesh-positions-array" count="288">-0.1700305 -0.06815826 -0.09130913 -0.1707113 -0.08938407 -0.07094728 -0.1911026 -0.06898736 -0.0709415 -0.1969789 -0.07616913 0.101823 -0.1765878 -0.09656608 0.101823 -0.1700305 0.06815826 -0.09130913 -0.1911026 0.06898736 -0.0709415 -0.1707113 0.08938413 -0.07094728 -0.1765878 0.09656608 0.101823 -0.1969789 0.07616913 0.101823 0.1700304 -0.06815826 -0.09130913 0.1911026 -0.06898736 -0.0709415 0.1707112 -0.08938413 -0.07094728 0.1765878 -0.09656608 0.101823 0.1969789 -0.07616913 0.101823 0.1700304 0.06815826 -0.09130913 0.1707112 0.08938407 -0.07094728 0.1911026 0.06898736 -0.0709415 0.1969789 0.07616913 0.101823 0.1765878 0.09656608 0.101823 0 0.06815826 -0.09130913 0 0.08938407 -0.07094728 0 -0.06815826 -0.09130913 0 -0.08938407 -0.07094728 0 -0.09656608 0.101823 0 0.09656608 0.101823 -0.2028144 -0.08112937 0.1068493 -0.1818191 -0.1028547 0.1068493 -0.1818191 0.1028547 0.1068493 -0.2028144 0.08112937 0.1068493 0.181819 -0.1028547 0.1068493 0.2028143 -0.08112937 0.1068493 0.2028143 0.08112937 0.1068493 0.181819 0.1028547 0.1068493 0 -0.1028547 0.1068493 0 0.1028547 0.1068493 -0.1945965 -0.07784211 0.1136147 -0.174452 -0.09868711 0.1136147 -0.174452 0.09868711 0.1136147 -0.1945965 0.07784211 0.1136147 0.174452 -0.09868711 0.1136147 0.1945965 -0.07784211 0.1136147 0.1945965 0.07784211 0.1136147 0.174452 0.09868711 0.1136147 0 -0.09868711 0.1136147 0 0.09868711 0.1136147 -0.1985101 -0.05745112 0.1072059 -0.21702 -0.05745112 0.1814683 -0.1948546 -0.06378269 0.1126655 -0.2144395 -0.06378269 0.1840574 -0.2021657 -0.06378269 0.1072059 -0.2196007 -0.06378269 0.1788792 -0.2334134 -0.06378275 0.1865468 -0.2293881 -0.05745112 0.1834194 -0.2274951 -0.06378275 0.1802921 -0.2538834 -0.06378269 0.0685355 -0.249858 -0.05745112 0.06540822 -0.2479651 -0.06378269 0.06228089 -0.1985102 0.05745112 0.1072059 -0.2170201 0.05745112 0.1814683 -0.1948546 0.06378275 0.1126655 -0.2144395 0.06378275 0.1840574 -0.2021657 0.06378275 0.1072059 -0.2196007 0.06378275 0.1788792 -0.2334134 0.06378275 0.1865468 -0.2293881 0.05745112 0.1834195 -0.2274952 0.06378275 0.1802921 -0.2538834 0.06378275 0.0685355 -0.249858 0.05745112 0.06540822 -0.2479651 0.06378275 0.06228089 -0.1700305 -0.06815826 -0.09130913 -0.1707113 -0.08938407 -0.07094728 -0.1911026 -0.06898736 -0.0709415 -0.1969789 -0.07616913 0.101823 -0.1765878 -0.09656608 0.101823 -0.1700305 0.06815826 -0.09130913 -0.1911026 0.06898736 -0.0709415 -0.1707113 0.08938413 -0.07094728 -0.1765878 0.09656608 0.101823 -0.1969789 0.07616913 0.101823 0.1700304 -0.06815826 -0.09130913 0.1911026 -0.06898736 -0.0709415 0.1707112 -0.08938413 -0.07094728 0.1765878 -0.09656608 0.101823 0.1969789 -0.07616913 0.101823 0.1700304 0.06815826 -0.09130913 0.1707112 0.08938407 -0.07094728 0.1911026 0.06898736 -0.0709415 0.1969789 0.07616913 0.101823 0.1765878 0.09656608 0.101823 0 0.06815826 -0.09130913 0 0.08938407 -0.07094728 0 -0.06815826 -0.09130913 0 -0.08938407 -0.07094728 0 -0.09656608 0.101823 0 0.09656608 0.101823</float_array>
          <technique_common>
            <accessor source="#Fryer_basket-mesh-positions-array" count="96" stride="3">
              <param name="X" type="float"/>
              <param name="Y" type="float"/>
              <param name="Z" type="float"/>
            </accessor>
          </technique_common>
        </source>
        <source id="Fryer_basket-mesh-normals">
          <float_array id="Fryer_basket-mesh-normals-array" count="534">0 -0.9991372 -0.04153364 -0.3364014 -0.8635292 -0.3757014 0 -0.9115089 -0.4112806 0.9205286 0.3877854 -0.04743039 0.8651025 -0.3357176 -0.3726812 0.8651027 0.3357177 -0.3726811 -0.9205285 -0.3877857 -0.04743039 -0.8651025 0.3357175 -0.3726813 -0.8651025 -0.3357176 -0.3726813 0 0.9991372 -0.04153364 0.3364013 0.8635292 -0.3757013 0 0.9115089 -0.4112806 -0.332185 -0.3305659 -0.8833908 -0.3321851 0.3305659 -0.8833908 -0.3364015 0.8635292 -0.3757013 0.3321851 -0.330566 -0.8833908 0.3364014 -0.8635293 -0.3757013 0.3321852 0.330566 -0.8833908 -0.9205285 0.3877856 -0.04743039 -0.3856602 0.9212075 -0.05141174 0 0.3730671 -0.9278045 0.3856605 0.9212073 -0.0514118 0.9205286 -0.3877853 -0.04743033 0.3856604 -0.9212073 -0.05141174 0 -0.3730671 -0.9278045 0.1696146 0.5277686 -0.8322807 0.5060335 0.2380636 -0.8290091 0.5540107 0.1733475 -0.8142622 -0.1696141 -0.5277675 -0.8322816 0 -0.6243496 -0.781145 -0.2320927 -0.4821457 -0.8447891 0.1696146 -0.5277686 -0.8322807 0 -0.6243497 -0.7811451 0.5060336 -0.2380637 -0.8290088 0.2320928 -0.4821475 -0.844788 -0.1696141 0.5277675 -0.8322815 -0.5060341 0.2380641 -0.8290085 -0.2320927 0.4821457 -0.8447891 0.5540111 -0.1733474 -0.8142619 0 0.6243496 -0.781145 0.2320928 0.4821475 -0.844788 0 0.6243497 -0.7811451 -0.506034 -0.238064 -0.8290085 -0.5540117 -0.1733478 -0.8142614 -0.554012 0.1733478 -0.8142613 0 0.8514209 0.5244833 0.17978 0.738017 0.6503923 0.3283534 0.6016321 0.7281641 0.5631482 0.2272937 0.7944821 0.5628083 -0.2281377 0.7944809 0.5631473 -0.2272936 0.7944827 0.3283534 -0.6016321 0.7281641 0.1797801 -0.738017 0.6503923 -0.3283532 -0.6016301 0.7281659 -0.5628069 -0.2281367 0.7944822 -0.563146 -0.2272921 0.7944841 -0.1797789 0.7380169 0.6503927 0 0.8514208 0.5244832 -0.5628061 0.2281367 0.794483 -0.5631452 0.227292 0.7944847 -0.3283531 0.60163 0.7281659 0 -0.8514209 0.5244833 0 -0.8514208 0.5244832 -0.1797789 -0.7380169 0.6503927 0.5628092 0.2281377 0.7944803 0.3368691 0.9354242 0.1072422 0 0.9842051 0.1770324 0.4412937 0.8942304 0.07491207 -0.336869 0.935424 0.1072444 0 0.9842051 0.1770323 -0.8977648 0.425154 -0.1151636 -0.4412922 0.8942309 0.07491517 -0.8977648 -0.4251539 -0.1151636 -0.9316189 0.335106 -0.1406778 -0.4412922 -0.8942309 0.07491517 -0.9316189 -0.335106 -0.1406778 -0.336869 -0.935424 0.1072444 0 -0.9842051 0.1770324 0.3368691 -0.9354242 0.1072422 0 -0.9842051 0.1770323 0.8977638 -0.4251544 -0.115169 0.4412937 -0.8942304 0.07491207 0.8977639 0.4251544 -0.115169 0.9316181 -0.3351057 -0.1406837 0.9316181 0.3351058 -0.1406838 0.8574391 0.4582735 0.2340591 0.7743114 0.6023263 0.1940229 0.76927 0.6094745 0.191741 0 -1 0 4.05876e-7 -1 -1.10938e-6 0 -1 0 -0.1514027 0.4169604 -0.8962261 -0.1478672 0.4116749 -0.8992549 -0.1425675 0.4037342 -0.9036999 -0.8686988 0.4456412 -0.2162551 -0.8489544 0.4863007 -0.206853 -0.8474261 0.4892591 -0.206142 0.9213449 0.3543772 -0.1598141 0.9213432 0.3543815 -0.1598139 0.9213449 0.354377 -0.1598141 2.9956e-7 -1 -3.721e-7 2.45898e-7 -1 0 0.1341024 0.4076179 0.903252 0.1247888 0.3866873 0.913729 0.1204835 0.3769895 0.9183479 -0.7209933 0.1214148 -0.6822221 0 -1 2.66408e-7 0 -1 2.81723e-7 -0.8030761 0.5793655 0.1392997 -0.8030763 0.5793653 0.1392995 -0.8030761 0.5793655 0.1392997 0.7743101 -0.6023282 0.1940224 0.857436 -0.4582796 0.2340584 0.7692687 -0.6094762 0.1917404 0 1 0 0 1 0 0 1 -1.32307e-7 -0.1514004 -0.4169606 -0.8962265 -0.1478648 -0.4116746 -0.8992553 -0.1591824 -0.4285619 -0.8893795 -0.8489533 -0.4863028 -0.2068527 -0.8686996 -0.4456397 -0.216255 -0.8474248 -0.4892615 -0.2061417 0.9213449 -0.3543772 -0.159814 0.9213427 -0.3543826 -0.1598139 0.9213427 -0.3543828 -0.1598139 0 1 1.27608e-7 0.1341038 -0.4076178 0.903252 0.1247916 -0.3866871 0.9137288 0.1411714 -0.4234578 0.8948488 -0.7209932 -0.1214126 -0.6822227 0 1 0 0 1 1.62441e-7 -0.8030781 -0.5793628 0.1393 -0.8030778 -0.5793633 0.1392997 -0.8030778 -0.5793633 0.1392997 0.3364014 0.8635292 0.3757014 0 0.9991372 0.04153364 0 0.9115089 0.4112805 -0.8651027 0.3357176 0.3726813 -0.9205287 -0.3877854 0.04743039 -0.8651027 -0.3357177 0.372681 0.8651025 -0.3357174 0.3726813 0.9205285 0.3877857 0.04743039 0.8651026 0.3357176 0.3726813 -0.3364012 -0.8635292 0.3757013 0 -0.9991372 0.04153364 0 -0.9115089 0.4112805 0.3321851 0.3305659 0.8833908 0.332185 -0.3305659 0.8833908 0.3364015 -0.8635292 0.3757014 -0.332185 0.330566 0.8833908 -0.3364014 0.8635292 0.3757013 -0.3321852 -0.3305661 0.8833908 0.3856602 0.9212075 0.0514118 0.9205285 -0.3877856 0.04743039 0.3856602 -0.9212075 0.05141174 0 -0.3730672 0.9278045 -0.9205286 0.3877853 0.04743033 -0.3856604 0.9212073 0.05141174 0 0.3730671 0.9278045 -0.3856602 -0.9212075 -0.0514118 0.8621341 0.4480945 0.2365083 -0.1591845 0.4285609 -0.8893796 -0.8698232 0.4431747 -0.2168039 0.9213432 0.3543816 -0.1598139 1.57315e-7 -1 0 0.141171 0.4234577 0.8948488 -0.8030764 0.5793653 0.1392995 0.8621311 -0.4481008 0.2365077 0 1 0 -0.142565 -0.4037333 -0.9037007 -0.8698241 -0.443173 -0.2168038 0.921345 -0.354377 -0.159814 0.120487 -0.3769891 0.9183475 0 1 0 -0.8030781 -0.5793628 0.1393 -0.3856605 -0.9212073 0.0514118</float_array>
          <technique_common>
            <accessor source="#Fryer_basket-mesh-normals-array" count="178" stride="3">
              <param name="X" type="float"/>
              <param name="Y" type="float"/>
              <param name="Z" type="float"/>
            </accessor>
          </technique_common>
        </source>
        <source id="Fryer_basket-mesh-map-0">
          <float_array id="Fryer_basket-mesh-map-0-array" count="1068">0.9890001 0.5091152 0.5834044 0.9424388 0.5834044 0.5091152 0.9890001 0.3157719 0.5834181 0.6842287 0.5834181 0.3340016 0.9890001 0.7024585 0.5834181 0.3340016 0.5834181 0.6842287 0.9890001 0.5091152 0.5834044 0.07579153 0.5834044 0.5091152 0.6022933 0.9407107 0.5524635 0.9424388 0.6003469 0.994199 0.9223099 0.9407107 0.9242563 0.994199 0.9721397 0.9424389 0.6022933 0.07751959 0.6003469 0.02403122 0.5524635 0.07579153 0.9223099 0.07751959 0.9721397 0.07579153 0.9242563 0.02403122 0.6022933 0.9407107 0.9242563 0.994199 0.9223099 0.9407107 0.5834044 0.7360026 0.9890001 0.7024585 0.5834181 0.6842287 0.5834044 0.2822277 0.9890001 0.3157719 0.9890001 0.2639974 0.9223099 0.9407107 0.9721397 0.5091152 0.9223099 0.5091151 0.9890001 0.3157719 0.5834044 0.2822277 0.9890001 0.2639974 0.9223099 0.07751959 0.6003469 0.02403122 0.6022933 0.07751959 0.5834044 0.7360027 0.9890001 0.7024585 0.9890001 0.754233 0.6022933 0.07751959 0.5524635 0.5091152 0.6022933 0.5091152 0.9223099 0.07751959 0.6022933 0.5091152 0.9223099 0.5091151 0.9223099 0.5091151 0.6022933 0.9407107 0.9223099 0.9407107 0.6022933 0.9407107 0.5524635 0.5091152 0.5524635 0.9424388 0.9223099 0.07751959 0.9721397 0.5091152 0.9721397 0.07579153 0.5834044 0.9424389 0.9890001 0.5091152 0.5834044 0.5091152 0.5834044 0.07579153 0.9890001 0.5091152 0.5834044 0.5091152 0.3889905 0.1785618 0.3602036 0.1296538 0.3509536 0.1405358 0.02883249 0.8371728 0.0171054 0.5078673 0.0171054 0.8469282 0.02883249 0.1785618 0.0171054 0.5078673 0.02883249 0.5078673 0.02883249 0.1785618 0.05761927 0.1296538 0.0171054 0.1688063 0.3889905 0.8371728 0.3602036 0.8860808 0.4007176 0.8469282 0.3509536 0.1405358 0.05761927 0.1296538 0.06686931 0.1405358 0.3889905 0.1785618 0.4007176 0.5078673 0.4007176 0.1688063 0.3889905 0.8371728 0.4007176 0.5078673 0.3889905 0.5078673 0.02883249 0.8371728 0.05761927 0.8860808 0.06686931 0.8751989 0.06686931 0.8751989 0.3602036 0.8860808 0.3509536 0.8751989 0.2072899 0.5078673 0.2199062 0.1825446 0.2072899 0.1688063 0.3602036 0.1296538 0.06374949 0.1449785 0.05761927 0.1296538 0.0171054 0.1688063 0.06374949 0.1449785 0.02487713 0.1825446 0.0171054 0.8469282 0.06374949 0.8707559 0.05761927 0.8860808 0.2072899 0.5078673 0.2199062 0.8331899 0.2199062 0.5078673 0.05761927 0.8860808 0.3540735 0.8707559 0.3602036 0.8860808 0.4007176 0.8469282 0.3540735 0.8707559 0.3929458 0.8331899 0.2072899 0.5078673 0.2199062 0.1825446 0.2199062 0.5078673 0.2072899 0.5078673 0.2199062 0.8331899 0.2072899 0.8469282 0.4007176 0.1688063 0.3540735 0.1449785 0.3602036 0.1296538 0.2199062 0.8331899 0.1979168 0.5078673 0.1979168 0.8371728 0.2199062 0.1825446 0.1979168 0.5078673 0.2199062 0.5078673 0.2199062 0.6530293 0.1979168 0.6879463 0.2199062 0.6919016 0.2199062 0.3627052 0.1979168 0.6499094 0.2199062 0.6530293 0.2199062 0.3627052 0.1979168 0.3277882 0.1979168 0.3658251 0.2199062 0.1825446 0.1979168 0.5078673 0.1979168 0.1785618 0.2199062 0.8331899 0.1979168 0.5078673 0.2199062 0.5078673 0.2199062 0.3627052 0.1979168 0.3277882 0.2199062 0.323833 0.2199062 0.6530293 0.1979168 0.3658251 0.2199062 0.3627052 0.2199062 0.6530293 0.1979168 0.6879463 0.1979168 0.6499094 0.2490213 0.6468647 0.2317397 0.4590727 0.2490213 0.4441708 0.3209378 0.4590727 0.2533952 0.6397979 0.3009827 0.4441708 0.2604388 0.5610892 0.2260274 0.5438076 0.2208609 0.5610892 0.2317397 0.6397979 0.2490213 0.4441708 0.2317397 0.4441708 0.2317397 0.6436545 0.2490213 0.4842116 0.2490213 0.6521902 0.2674824 0.6539314 0.2260274 0.6436545 0.2533952 0.6397979 0.2674824 0.5438076 0.2208609 0.5610892 0.2156944 0.5438076 0.2317397 0.4927474 0.2490213 0.4842116 0.2317397 0.4756759 0.2260274 0.6436545 0.1598232 0.4927474 0.1701563 0.4756759 0.2490213 0.6521902 0.2317397 0.4927474 0.2317397 0.6607259 0.2317397 0.4590727 0.2490213 0.6468647 0.2490213 0.4441708 0.3209378 0.4590727 0.2533952 0.6397979 0.2674824 0.6539314 0.2604388 0.5610892 0.2260274 0.5438076 0.2533952 0.5438076 0.2490213 0.4441708 0.2317397 0.6397979 0.2317397 0.4441708 0.2490213 0.4842116 0.2317397 0.6436545 0.2490213 0.6521902 0.2260274 0.6436545 0.2674824 0.6539314 0.2533952 0.6397979 0.2674824 0.5438076 0.2208609 0.5610892 0.2604388 0.5610892 0.2317397 0.4927474 0.2317397 0.4756759 0.2490213 0.4842116 0.2260274 0.6436545 0.1598232 0.4927474 0.2156944 0.6607259 0.2317397 0.4927474 0.2490213 0.6521902 0.2317397 0.6607259 0.5834044 0.9424388 0.9890001 0.5091152 0.5834044 0.5091152 0.5834181 0.6842287 0.9890001 0.3157719 0.5834181 0.3340016 0.5834181 0.3340016 0.9890001 0.7024585 0.5834181 0.6842287 0.5834044 0.07579153 0.9890001 0.5091152 0.5834044 0.5091152 0.6022933 0.9407107 0.6003469 0.994199 0.5524635 0.9424388 0.9223099 0.9407107 0.9721397 0.9424389 0.9242563 0.994199 0.6022933 0.07751959 0.5524635 0.07579153 0.6003469 0.02403122 0.9223099 0.07751959 0.9242563 0.02403122 0.9721397 0.07579153 0.9242563 0.994199 0.6022933 0.9407107 0.9223099 0.9407107 0.5834044 0.7360026 0.9890001 0.7024585 0.9890001 0.754233 0.9890001 0.3157719 0.5834044 0.2822277 0.9890001 0.2639974 0.9721397 0.5091152 0.9223099 0.9407107 0.9223099 0.5091151 0.9890001 0.3157719 0.5834044 0.2822277 0.5834181 0.3340016 0.6003469 0.02403122 0.9223099 0.07751959 0.6022933 0.07751959 0.9890001 0.7024585 0.5834044 0.7360027 0.9890001 0.754233 0.5524635 0.5091152 0.6022933 0.07751959 0.6022933 0.5091152 0.6022933 0.5091152 0.9223099 0.07751959 0.9223099 0.5091151 0.6022933 0.9407107 0.9223099 0.5091151 0.9223099 0.9407107 0.6022933 0.9407107 0.5524635 0.5091152 0.6022933 0.5091152 0.9223099 0.07751959 0.9721397 0.5091152 0.9223099 0.5091151 0.5834044 0.9424389 0.9890001 0.5091152 0.9890001 0.9573554 0.5834044 0.07579153 0.9890001 0.5091152 0.9890001 0.06087487 0.9890001 0.5091152 0.9890001 0.9573554 0.5834044 0.9424388 0.9890001 0.3157719 0.9890001 0.7024585 0.5834181 0.6842287 0.9890001 0.7024585 0.9890001 0.3157719 0.5834181 0.3340016 0.9890001 0.5091152 0.9890001 0.06087487 0.5834044 0.07579153 0.6022933 0.9407107 0.6003469 0.994199 0.9242563 0.994199 0.5834044 0.7360026 0.9890001 0.754233 0.9890001 0.7024585 0.5834044 0.2822277 0.5834181 0.3340016 0.9890001 0.3157719 0.9223099 0.9407107 0.9721397 0.9424389 0.9721397 0.5091152 0.9890001 0.3157719 0.5834181 0.3340016 0.5834044 0.2822277 0.9223099 0.07751959 0.9242563 0.02403122 0.6003469 0.02403122 0.5834044 0.7360027 0.5834181 0.6842287 0.9890001 0.7024585 0.6022933 0.07751959 0.5524635 0.07579153 0.5524635 0.5091152 0.9223099 0.07751959 0.6022933 0.07751959 0.6022933 0.5091152 0.9223099 0.5091151 0.6022933 0.5091152 0.6022933 0.9407107 0.6022933 0.9407107 0.6022933 0.5091152 0.5524635 0.5091152 0.9223099 0.07751959 0.9223099 0.5091151 0.9721397 0.5091152 0.5834044 0.9424389 0.9890001 0.9573554 0.9890001 0.5091152 0.5834044 0.07579153 0.9890001 0.06087487 0.9890001 0.5091152 0.3889905 0.1785618 0.4007176 0.1688063 0.3602036 0.1296538 0.02883249 0.8371728 0.02883249 0.5078673 0.0171054 0.5078673 0.02883249 0.1785618 0.0171054 0.1688063 0.0171054 0.5078673 0.02883249 0.1785618 0.06686931 0.1405358 0.05761927 0.1296538 0.3889905 0.8371728 0.3509536 0.8751989 0.3602036 0.8860808 0.3509536 0.1405358 0.3602036 0.1296538 0.05761927 0.1296538 0.3889905 0.1785618 0.3889905 0.5078673 0.4007176 0.5078673 0.3889905 0.8371728 0.4007176 0.8469282 0.4007176 0.5078673 0.02883249 0.8371728 0.0171054 0.8469282 0.05761927 0.8860808 0.06686931 0.8751989 0.05761927 0.8860808 0.3602036 0.8860808 0.2072899 0.5078673 0.2199062 0.5078673 0.2199062 0.1825446 0.3602036 0.1296538 0.3540735 0.1449785 0.06374949 0.1449785 0.0171054 0.1688063 0.05761927 0.1296538 0.06374949 0.1449785 0.0171054 0.8469282 0.02487719 0.8331899 0.06374949 0.8707559 0.2072899 0.5078673 0.2072899 0.8469282 0.2199062 0.8331899 0.05761927 0.8860808 0.06374949 0.8707559 0.3540735 0.8707559 0.4007176 0.8469282 0.3602036 0.8860808 0.3540735 0.8707559 0.2072899 0.5078673 0.2072899 0.1688063 0.2199062 0.1825446 0.2072899 0.5078673 0.2199062 0.5078673 0.2199062 0.8331899 0.4007176 0.1688063 0.3929458 0.1825446 0.3540735 0.1449785 0.2199062 0.8331899 0.2199062 0.5078673 0.1979168 0.5078673 0.2199062 0.1825446 0.1979168 0.1785618 0.1979168 0.5078673 0.2199062 0.6530293 0.1979168 0.6499094 0.1979168 0.6879463 0.2199062 0.3627052 0.1979168 0.3658251 0.1979168 0.6499094 0.2199062 0.3627052 0.2199062 0.323833 0.1979168 0.3277882 0.2199062 0.1825446 0.2199062 0.5078673 0.1979168 0.5078673 0.2199062 0.8331899 0.1979168 0.8371728 0.1979168 0.5078673 0.2199062 0.3627052 0.1979168 0.3658251 0.1979168 0.3277882 0.2199062 0.6530293 0.1979168 0.6499094 0.1979168 0.3658251 0.2199062 0.6530293 0.2199062 0.6919016 0.1979168 0.6879463 0.2490213 0.6468647 0.2317397 0.6539314 0.2317397 0.4590727 0.3209378 0.4590727 0.2674824 0.6539314 0.2533952 0.6397979 0.2604388 0.5610892 0.2533952 0.5438076 0.2260274 0.5438076 0.2317397 0.6397979 0.2490213 0.6468647 0.2490213 0.4441708 0.2317397 0.6436545 0.2317397 0.4756759 0.2490213 0.4842116 0.2674824 0.6539314 0.2156944 0.6607259 0.2260274 0.6436545 0.2674824 0.5438076 0.2604388 0.5610892 0.2208609 0.5610892 0.2260274 0.6436545 0.2156944 0.6607259 0.1598232 0.4927474 0.2490213 0.6521902 0.2490213 0.4842116 0.2317397 0.4927474 0.2317397 0.4590727 0.2317397 0.6539314 0.2490213 0.6468647 0.3209378 0.4590727 0.3009827 0.4441708 0.2533952 0.6397979 0.2604388 0.5610892 0.2208609 0.5610892 0.2260274 0.5438076 0.2490213 0.4441708 0.2490213 0.6468647 0.2317397 0.6397979 0.2490213 0.4842116 0.2317397 0.4756759 0.2317397 0.6436545 0.2260274 0.6436545 0.2156944 0.6607259 0.2674824 0.6539314 0.2674824 0.5438076 0.2156944 0.5438076 0.2208609 0.5610892 0.2260274 0.6436545 0.1701563 0.4756759 0.1598232 0.4927474 0.2317397 0.4927474 0.2490213 0.4842116 0.2490213 0.6521902 0.5834044 0.9424388 0.9890001 0.9573554 0.9890001 0.5091152 0.5834181 0.6842287 0.9890001 0.7024585 0.9890001 0.3157719 0.5834181 0.3340016 0.9890001 0.3157719 0.9890001 0.7024585 0.5834044 0.07579153 0.9890001 0.06087487 0.9890001 0.5091152 0.9242563 0.994199 0.6003469 0.994199 0.6022933 0.9407107 0.5834044 0.7360026 0.5834181 0.6842287 0.9890001 0.7024585 0.9890001 0.3157719 0.5834181 0.3340016 0.5834044 0.2822277 0.9721397 0.5091152 0.9721397 0.9424389 0.9223099 0.9407107 0.9890001 0.3157719 0.9890001 0.2639974 0.5834044 0.2822277 0.6003469 0.02403122 0.9242563 0.02403122 0.9223099 0.07751959 0.9890001 0.7024585 0.5834181 0.6842287 0.5834044 0.7360027 0.5524635 0.5091152 0.5524635 0.07579153 0.6022933 0.07751959 0.6022933 0.5091152 0.6022933 0.07751959 0.9223099 0.07751959 0.6022933 0.9407107 0.6022933 0.5091152 0.9223099 0.5091151 0.6022933 0.9407107 0.5524635 0.9424388 0.5524635 0.5091152 0.9223099 0.07751959 0.9721397 0.07579153 0.9721397 0.5091152 0.5834044 0.9424389 0.5834044 0.5091152 0.9890001 0.5091152 0.5834044 0.07579153 0.5834044 0.5091152 0.9890001 0.5091152</float_array>
          <technique_common>
            <accessor source="#Fryer_basket-mesh-map-0-array" count="534" stride="2">
              <param name="S" type="float"/>
              <param name="T" type="float"/>
            </accessor>
          </technique_common>
        </source>
        <vertices id="Fryer_basket-mesh-vertices">
          <input semantic="POSITION" source="#Fryer_basket-mesh-positions"/>
        </vertices>
        <triangles material="Fryer_basket-material" count="178">
          <input semantic="VERTEX" source="#Fryer_basket-mesh-vertices" offset="0"/>
          <input semantic="NORMAL" source="#Fryer_basket-mesh-normals" offset="1"/>
          <input semantic="TEXCOORD" source="#Fryer_basket-mesh-map-0" offset="2" set="0"/>
          <p>24 0 0 1 1 1 23 2 2 18 3 3 11 4 4 17 5 5 3 6 6 6 7 7 2 8 8 25 9 9 16 10 10 21 11 11 0 12 12 1 1 13 2 8 14 5 13 15 6 7 16 7 14 17 10 15 18 11 4 19 12 16 20 15 17 21 16 10 22 17 5 23 0 12 24 6 7 25 5 13 26 1 1 27 3 6 28 2 8 29 7 14 30 9 18 31 8 19 32 5 13 33 21 11 34 20 20 35 18 3 36 16 10 37 19 21 38 15 17 39 11 4 40 10 15 41 12 16 42 14 22 43 13 23 44 10 15 45 23 2 46 22 24 47 15 17 48 22 24 49 20 20 50 20 20 51 0 12 52 5 13 53 0 12 54 23 2 55 1 1 56 15 17 57 21 11 58 16 10 59 7 14 60 25 9 61 21 11 62 12 16 63 24 0 64 23 2 65 19 25 66 32 26 67 18 27 68 4 28 69 34 29 70 27 30 71 13 31 72 34 29 73 24 32 74 13 31 75 31 33 76 30 34 77 8 35 78 29 36 79 28 37 80 18 27 81 31 33 82 14 38 83 19 25 84 35 39 85 33 40 86 8 35 87 35 39 88 25 41 89 4 28 90 26 42 91 3 43 92 3 43 93 29 36 94 9 44 95 35 45 96 43 46 97 33 47 98 32 48 99 41 49 100 31 50 101 30 51 102 41 49 103 40 52 104 27 53 105 36 54 106 26 55 107 35 45 108 38 56 109 45 57 110 26 55 111 39 58 112 29 59 113 28 60 114 39 58 115 38 56 116 34 61 117 40 52 118 44 62 119 34 61 120 37 63 121 27 53 122 33 47 123 42 64 124 32 48 125 37 65 126 24 66 127 4 67 128 40 68 129 24 66 130 44 69 131 41 70 132 13 71 133 40 68 134 42 72 135 14 73 136 41 70 137 42 72 138 19 74 139 18 75 140 43 76 141 25 77 142 19 74 143 38 78 144 25 77 145 45 79 146 39 80 147 8 81 148 38 78 149 36 82 150 9 83 151 39 80 152 36 82 153 4 67 154 3 84 155 47 85 156 48 86 157 46 87 158 48 88 159 51 89 160 50 90 161 47 91 162 54 92 163 53 93 164 51 94 165 46 95 166 50 96 167 54 97 168 56 98 169 53 99 170 49 100 171 54 101 172 51 89 173 49 102 174 53 103 175 52 104 176 55 105 177 56 105 178 57 105 179 54 101 180 55 106 181 57 107 182 53 108 183 55 109 184 52 110 185 60 111 186 59 112 187 58 113 188 60 114 189 63 115 190 61 116 191 59 117 192 66 118 193 63 119 194 58 120 195 63 121 196 62 122 197 68 123 198 66 124 199 65 125 200 66 126 201 61 116 202 63 115 203 61 127 204 65 128 205 59 129 206 67 130 207 69 130 208 68 130 209 66 126 210 67 131 211 64 132 212 67 133 213 65 134 214 64 135 215 71 136 216 94 137 217 93 138 218 81 139 219 88 140 220 87 141 221 76 142 222 73 143 223 72 144 224 86 145 225 95 146 226 91 147 227 70 148 228 72 144 229 71 136 230 75 149 231 77 150 232 76 142 233 80 151 234 82 152 235 81 139 236 85 153 237 87 141 238 86 145 239 76 142 240 70 148 241 75 149 242 71 136 243 73 143 244 74 154 245 79 155 246 77 150 247 78 156 248 91 147 249 75 149 250 90 157 251 88 140 252 86 145 253 87 141 254 81 139 255 85 153 256 80 151 257 84 158 258 82 152 259 83 159 260 93 138 261 80 151 262 92 160 263 92 160 264 85 153 265 90 157 266 70 148 267 90 157 268 75 149 269 70 148 270 93 138 271 92 160 272 85 153 273 91 147 274 90 157 275 77 150 276 95 146 277 78 156 278 82 152 279 94 137 280 83 159 281 24 0 282 4 161 283 1 1 284 18 3 285 14 22 286 11 4 287 3 6 288 9 18 289 6 7 290 25 9 291 19 21 292 16 10 293 0 12 294 2 8 295 6 7 296 1 1 297 4 161 298 3 6 299 7 14 300 6 7 301 9 18 302 5 13 303 7 14 304 21 11 305 18 3 306 17 5 307 16 10 308 15 17 309 17 5 310 11 4 311 12 16 312 11 4 313 14 22 314 10 15 315 12 16 316 23 2 317 15 17 318 10 15 319 22 24 320 20 20 321 22 24 322 0 12 323 0 12 324 22 24 325 23 2 326 15 17 327 20 20 328 21 11 329 7 14 330 8 19 331 25 9 332 12 16 333 13 23 334 24 0 335 19 25 336 33 40 337 32 26 338 4 28 339 24 32 340 34 29 341 13 31 342 30 34 343 34 29 344 13 31 345 14 38 346 31 33 347 8 35 348 9 44 349 29 36 350 18 27 351 32 26 352 31 33 353 19 25 354 25 41 355 35 39 356 8 35 357 28 37 358 35 39 359 4 28 360 27 30 361 26 42 362 3 43 363 26 42 364 29 36 365 35 45 366 45 57 367 43 46 368 32 48 369 42 64 370 41 49 371 30 51 372 31 50 373 41 49 374 27 53 375 37 63 376 36 54 377 35 45 378 28 60 379 38 56 380 26 55 381 36 54 382 39 58 383 28 60 384 29 59 385 39 58 386 34 61 387 30 51 388 40 52 389 34 61 390 44 62 391 37 63 392 33 47 393 43 46 394 42 64 395 37 65 396 44 69 397 24 66 398 40 68 399 13 71 400 24 66 401 41 70 402 14 73 403 13 71 404 42 72 405 18 75 406 14 73 407 42 72 408 43 76 409 19 74 410 43 76 411 45 79 412 25 77 413 38 78 414 8 81 415 25 77 416 39 80 417 9 83 418 8 81 419 36 82 420 3 84 421 9 83 422 36 82 423 37 65 424 4 67 425 47 85 426 49 162 427 48 86 428 48 88 429 49 100 430 51 89 431 47 91 432 51 163 433 54 92 434 51 94 435 47 164 436 46 95 437 54 97 438 57 165 439 56 98 440 49 100 441 52 166 442 54 101 443 49 102 444 47 167 445 53 103 446 54 101 447 52 166 448 55 106 449 53 108 450 56 168 451 55 109 452 60 111 453 61 169 454 59 112 455 60 114 456 62 170 457 63 115 458 59 117 459 65 171 460 66 118 461 58 120 462 59 172 463 63 121 464 68 123 465 69 173 466 66 124 467 66 126 468 64 132 469 61 116 470 61 127 471 64 174 472 65 128 473 66 126 474 69 175 475 67 131 476 67 133 477 68 176 478 65 134 479 71 136 480 74 154 481 94 137 482 81 139 483 84 158 484 88 140 485 76 142 486 79 155 487 73 143 488 86 145 489 89 177 490 95 146 491 76 142 492 72 144 493 70 148 494 71 136 495 72 144 496 73 143 497 79 155 498 76 142 499 77 150 500 91 147 501 77 150 502 75 149 503 88 140 504 89 177 505 86 145 506 81 139 507 87 141 508 85 153 509 84 158 510 81 139 511 82 152 512 93 138 513 82 152 514 80 151 515 92 160 516 80 151 517 85 153 518 70 148 519 92 160 520 90 157 521 70 148 522 71 136 523 93 138 524 85 153 525 86 145 526 91 147 527 77 150 528 91 147 529 95 146 530 82 152 531 93 138 532 94 137 533</p>
        </triangles>
      </mesh>
    </geometry>
    <geometry id="Fryer-mesh" name="Fryer">
      <mesh>
        <source id="Fryer-mesh-positions">
          <float_array id="Fryer-mesh-positions-array" count="396">-0.3971589 0.2928914 -0.5613151 -0.3680782 0.2638106 0.4065024 0.4655701 0.2638106 0.4065024 -0.3971589 0.2928914 0.3068762 -0.4615061 0.2928914 -0.5613151 -0.4615061 0.2928914 0.3068762 -0.4615061 0.2928914 0.4065024 -0.3971589 0.2928914 0.7039063 -0.4615061 0.2928914 0.7039063 0.4946509 0.2417775 -0.514991 0.4946509 0.2417775 0.1827979 -0.3971589 -0.2928914 0.3068762 -0.3680782 -0.2638106 0.4065024 0.4946509 -0.2417775 0.1827979 0.4946509 -0.2417775 -0.514991 -0.3971589 -0.2928914 -0.5613151 0.4655701 -0.2638106 0.4065024 -0.4615061 -0.2928914 0.3068762 -0.4615061 -0.2928914 0.4065024 -0.4615061 -0.2928914 -0.5613151 -0.4615061 -0.2928914 0.7039063 -0.3971589 -0.2928914 0.7039063 0.4946509 0.2928914 0.3222288 0.4946509 0.2928914 -0.5613151 0.4946509 -0.2928914 0.3222288 0.4946509 -0.2928914 -0.5613151 0.467455 0.2417775 0.1827979 0.467455 0.2417775 -0.514991 0.467455 -0.2417775 0.1827979 0.467455 -0.2417775 -0.514991 0.5471315 0.2928914 0.3222288 0.5471315 -0.2928914 0.3222288 0.5360616 0.2928914 0.4065024 0.5562069 0.2928914 0.3863571 0.5562069 -0.2928914 0.3863571 0.5360616 -0.2928914 0.4065024 0.4946509 0.2928914 0.4065024 -0.3971589 0.2928914 0.4065024 0.4946509 -0.2928914 0.4065024 -0.3971589 -0.2928914 0.4065024 0.4655701 0.2638106 0.09782075 -0.3680782 0.2638106 0.09782075 0.4655701 -0.2638106 0.09782075 -0.3680782 -0.2638106 0.09782075 -0.3333237 -0.222492 0.6121426 -0.3221932 -0.222492 0.623273 -0.3333237 -0.0312435 0.6121426 -0.3221932 -0.0312435 0.623273 -0.3221932 -0.222492 0.6010121 -0.3110628 -0.222492 0.6121426 -0.3221932 -0.0312435 0.6010121 -0.3110628 -0.0312435 0.6121426 -0.3030737 -0.2166108 0.630693 -0.3030737 -0.2166108 0.5889236 -0.3030737 -0.231382 0.630693 -0.3030737 -0.231382 0.5889236 -0.4050592 -0.2166108 0.6463549 -0.4050592 -0.2166108 0.6045855 -0.4050592 -0.231382 0.6463549 -0.4050592 -0.231382 0.6045855 -0.3030737 -0.02235651 0.6306931 -0.3030737 -0.02235651 0.5889238 -0.3030737 -0.03712767 0.6306931 -0.3030737 -0.03712767 0.5889238 -0.4050592 -0.02235651 0.646355 -0.4050592 -0.02235651 0.6045857 -0.4050592 -0.03712767 0.646355 -0.4050592 -0.03712767 0.6045857 -0.3333237 0.222492 0.6121426 -0.3221932 0.222492 0.6232731 -0.3333237 0.03124356 0.6121426 -0.3221932 0.03124356 0.6232731 -0.3221932 0.222492 0.6010121 -0.3110628 0.222492 0.6121426 -0.3221932 0.03124356 0.6010121 -0.3110628 0.03124356 0.6121426 -0.3030737 0.2166108 0.630693 -0.3030737 0.2166108 0.5889236 -0.3030737 0.231382 0.630693 -0.3030737 0.231382 0.5889236 -0.4050592 0.2166108 0.6463549 -0.4050592 0.2166108 0.6045855 -0.4050592 0.231382 0.6463549 -0.4050592 0.231382 0.6045855 -0.3030737 0.02235651 0.6306932 -0.3030737 0.02235651 0.5889238 -0.3030737 0.03712767 0.6306932 -0.3030737 0.03712767 0.5889238 -0.4050592 0.02235651 0.6463551 -0.4050592 0.02235651 0.6045857 -0.4050592 0.03712767 0.6463551 -0.4050592 0.03712767 0.6045857 0.3764868 0.1636967 -0.652706 0.3764867 0.1483482 -0.5549 0.4141454 0.1910573 -0.652706 0.4302836 0.1874338 -0.5549 0.3997611 0.2353276 -0.652706 0.409735 0.2506758 -0.5549 0.3532125 0.2353276 -0.652706 0.3432385 0.2506758 -0.5549 0.3388282 0.1910573 -0.652706 0.3226899 0.1874338 -0.5549 -0.3764868 0.1636967 -0.652706 -0.3764868 0.1483482 -0.5549 -0.4141454 0.1910573 -0.652706 -0.4302836 0.1874338 -0.5549 -0.3997611 0.2353276 -0.652706 -0.409735 0.2506758 -0.5549 -0.3532125 0.2353276 -0.652706 -0.3432385 0.2506758 -0.5549 -0.3388282 0.1910573 -0.652706 -0.3226899 0.1874338 -0.5549 0.3764868 -0.1636967 -0.652706 0.3764867 -0.1483482 -0.5549 0.4141454 -0.1910573 -0.652706 0.4302836 -0.1874338 -0.5549 0.3997611 -0.2353276 -0.652706 0.409735 -0.2506758 -0.5549 0.3532125 -0.2353276 -0.652706 0.3432385 -0.2506758 -0.5549 0.3388282 -0.1910573 -0.652706 0.3226899 -0.1874338 -0.5549 -0.3764868 -0.1636967 -0.652706 -0.3764868 -0.1483482 -0.5549 -0.4141454 -0.1910573 -0.652706 -0.4302836 -0.1874338 -0.5549 -0.3997611 -0.2353276 -0.652706 -0.409735 -0.2506758 -0.5549 -0.3532125 -0.2353276 -0.652706 -0.3432385 -0.2506758 -0.5549 -0.3388282 -0.1910573 -0.652706 -0.3226899 -0.1874338 -0.5549</float_array>
          <technique_common>
            <accessor source="#Fryer-mesh-positions-array" count="132" stride="3">
              <param name="X" type="float"/>
              <param name="Y" type="float"/>
              <param name="Z" type="float"/>
            </accessor>
          </technique_common>
        </source>
        <source id="Fryer-mesh-normals">
          <float_array id="Fryer-mesh-normals-array" count="420">0 1 0 0 1 0 0 -1 0 0 -1 0 1 0 0 0 0 1 -1 0 0 0 -1 -1.38363e-7 0 -1 0 0 0 -1 1 0 0 1 3.56505e-7 0 1 0 0 1 -3.56505e-7 0 1 -3.57945e-7 0 1 3.57945e-7 0 -4.37368e-7 0 1 0.3826833 0 0.9238796 5.3758e-7 0 1 0.9901342 0 -0.1401221 0.9901343 0 -0.1401223 0.9901343 0 -0.1401221 0.3826832 0 0.9238797 0.7071067 0 0.7071069 0 1 1.11638e-6 0 1 2.36374e-7 1.21395e-6 0 1 8.74737e-7 0 1 8.28474e-7 0 1 -1.21395e-6 0 1 -8.28474e-7 0 1 -1.07516e-6 0 1 -0.7071072 0 0.7071064 0.7071046 0 -0.7071089 -0.7071096 0 -0.707104 0.7071071 0 0.7071065 -0.1517911 0 -0.9884127 0.1517887 0 0.988413 -0.1517888 0 -0.988413 0.15179 0 0.9884127 -0.7071087 0 0.7071049 0.7071071 0 -0.7071065 -0.7071037 0 -0.7071099 0.7071096 0 0.707104 -0.1517899 0 -0.9884129 0.1517899 0 0.9884129 -0.1517901 0 -0.9884128 0.1517901 0 0.9884128 0.5831042 -0.8025752 -0.1259465 0.5831043 -0.8025751 -0.1259465 0.583104 -0.8025754 -0.1259464 0.9411498 0.3057973 -0.1439624 0.9411495 0.305798 -0.1439622 0.94115 0.3057964 -0.1439626 0 0.9879103 -0.1550274 0 0.9879102 -0.1550271 0 0.9879102 -0.1550277 -0.9411493 0.3057983 -0.1439633 -0.9411497 0.3057973 -0.1439633 -0.94115 0.3057966 -0.1439633 -0.5831037 -0.8025755 -0.1259469 -0.5831041 -0.8025754 -0.1259471 -0.5831044 -0.802575 -0.1259471 -0.5831043 -0.8025751 -0.1259467 -0.5831042 -0.8025753 -0.1259467 -0.583104 -0.8025754 -0.1259467 -0.9411495 0.3057984 -0.1439625 -0.9411494 0.3057981 -0.1439626 -0.9411495 0.3057979 -0.1439628 0 0.9879103 -0.155027 0 0.9879103 -0.1550273 0 0.9879102 -0.1550276 0.9411495 0.3057978 -0.1439636 0.9411495 0.3057977 -0.1439633 0.9411494 0.3057978 -0.143964 0.583104 -0.8025754 -0.1259468 0.5831039 -0.8025755 -0.1259471 0.5831044 0.8025751 -0.1259466 0.5831042 0.8025752 -0.1259466 0.583104 0.8025754 -0.1259467 0.9411495 -0.3057979 -0.1439622 0.9411498 -0.3057972 -0.1439623 0.94115 -0.3057964 -0.1439625 0 -0.9879103 -0.1550269 0 -0.9879103 -0.155027 0 -0.9879103 -0.1550272 -0.9411493 -0.3057983 -0.1439633 -0.9411496 -0.3057973 -0.1439633 -0.9411491 -0.3057993 -0.1439633 -0.5831037 0.8025755 -0.1259471 -0.583104 0.8025754 -0.1259471 -0.5831032 0.8025758 -0.1259471 -0.5831041 0.8025752 -0.1259468 -0.5831043 0.8025751 -0.1259468 -0.583104 0.8025754 -0.1259468 -0.9411495 -0.3057981 -0.1439626 -0.9411494 -0.3057985 -0.1439625 -0.9411495 -0.3057979 -0.1439628 0 -0.9879103 -0.1550271 0 -0.9879103 -0.1550267 0 -0.9879102 -0.1550274 0.9411495 -0.3057978 -0.1439636 0.9411495 -0.3057976 -0.1439633 0.9411495 -0.3057976 -0.1439629 0.583104 0.8025754 -0.125947 0.5831038 0.8025754 -0.1259472 0.5831038 0.8025754 -0.1259473 0.9901342 0 -0.1401223 -0.7071046 0 0.7071089 0.7071096 0 -0.7071039 -0.7071048 0 -0.7071089 0.7071048 0 0.7071089 0.1517911 0 0.9884127 -0.1517913 0 -0.9884126 -0.7071062 0 0.7071074 0.7071048 0 -0.7071089 -0.7071062 0 -0.7071074 0.7071072 0 0.7071064 -0.1517902 0 -0.9884127 0.1517913 0 0.9884126 0.5831044 -0.8025751 -0.1259466 0.9411494 0.3057987 -0.1439621 0 0.9879103 -0.1550269 -0.9411491 0.3057993 -0.1439633 -0.5831032 -0.8025759 -0.1259469 -0.5831044 -0.8025751 -0.1259468 -0.9411494 0.3057986 -0.1439623 0 0.9879103 -0.1550268 0.9411495 0.3057976 -0.1439629 0.5831038 -0.8025754 -0.1259473 0.5831044 0.8025751 -0.1259466 0.9411495 -0.3057986 -0.1439621 0 -0.9879103 -0.1550267 -0.94115 -0.3057966 -0.1439633 -0.5831044 0.802575 -0.1259471 -0.5831044 0.8025751 -0.1259469 -0.9411494 -0.3057987 -0.1439623 0 -0.9879104 -0.1550265 0.9411494 -0.3057978 -0.143964 0.583104 0.8025754 -0.1259468</float_array>
          <technique_common>
            <accessor source="#Fryer-mesh-normals-array" count="140" stride="3">
              <param name="X" type="float"/>
              <param name="Y" type="float"/>
              <param name="Z" type="float"/>
            </accessor>
          </technique_common>
        </source>
        <source id="Fryer-mesh-map-0">
          <float_array id="Fryer-mesh-map-0-array" count="1152">0.4495453 0.4155295 0.03699153 0.4545147 0.4495453 0.4545147 0.4495453 0.006799519 0.03699153 0.4084274 0.4495453 0.4155295 0.007224321 0.006799519 0.03699153 0.4084274 0.03699153 0.006799519 0.007224321 0.4084274 0.03699153 0.4545147 0.03699153 0.4084274 0.007224321 0.5920946 0.03699153 0.4545147 0.007224321 0.4545147 0.05097955 0.4504045 0.01263892 0.0446729 0.0579642 0.0446729 0.4529505 0.4504045 0.0579642 0.0446729 0.4529504 0.04467284 0.0579642 0.0446729 0.4529504 0.0153979 0.4529504 0.04467284 0.01263892 0.0446729 0.0579642 0.01539796 0.0579642 0.0446729 0.4104243 0.415156 0.4483355 0.2399358 0.4483355 0.415156 0.6599953 0.04135864 0.5224156 0.3123435 0.5224155 0.04135864 0.3272817 0.6781779 0.1035878 0.6953038 0.1035878 0.6781779 0.2301935 0.01359766 0.024769 0.3180582 0.2301935 0.3180582 0.5324724 0.4077242 0.5324724 0.3750717 0.572372 0.3694251 0.3748121 0.5839465 0.1038274 0.5541793 0.3748121 0.5541793 0.7354531 0.4358683 0.522184 0.7605546 0.7354531 0.7605546 0.2301935 0.3529955 0.024769 0.4572902 0.2301935 0.4572902 0.4865329 0.8277416 0.7306121 0.9315983 0.7306121 0.8277416 0.7354531 0.7605546 0.522184 0.7839818 0.7354531 0.7839818 0.2301935 0.3180582 0.024769 0.3529955 0.2301935 0.3529955 0.7341271 0.3510515 0.7577725 0.006822645 0.7577725 0.4155526 0.5104331 0.3510515 0.4867876 0.006822645 0.5104331 0.0282523 0.7341271 0.3510515 0.4867877 0.4155526 0.5104331 0.3510515 0.5104331 0.0282523 0.7577725 0.006822645 0.7341271 0.0282523 0.994067 0.3408618 0.7703731 0.01806271 0.994067 0.01806271 0.1036176 0.4948458 0.4264168 0.5119717 0.4264168 0.4948458 0.6898716 0.04383504 0.6727458 0.267529 0.6898716 0.267529 0.4264168 0.5247221 0.1036176 0.541848 0.1036176 0.5247222 0.07768964 0.7401183 0.05853289 0.4691334 0.07768958 0.4691334 0.4153587 0.358359 0.4424998 0.05541169 0.4153587 0.05541169 0.4478585 0.05020236 0.4146935 0.3531498 0.4146934 0.05020236 0.4367749 0.05541169 0.4471933 0.358359 0.4367749 0.358359 0.4495453 0.4545147 0.468702 0.4545147 0.4780213 0.4451954 0.09114247 0.4825863 0.4902434 0.4691334 0.4767906 0.4825863 0.4767906 0.7266654 0.07768964 0.7401183 0.09114247 0.7266655 0.4767906 0.4825863 0.4902434 0.7401183 0.4767906 0.7266654 0.09114247 0.7266655 0.07768958 0.4691334 0.09114247 0.4825863 0.7482663 0.8134509 0.5041872 0.4278029 0.7482663 0.4278029 0.4739473 0.8569074 0.08829909 0.7530508 0.08829915 0.8569074 0.2512328 0.8711981 0.00715363 0.9750548 0.00715363 0.8711981 0.7625569 0.4305189 0.8664136 0.816167 0.7625569 0.816167 0.6404874 0.6496533 0.7427953 0.6412327 0.6404874 0.6412327 0.7427953 0.6496533 0.6404874 0.6412327 0.7427953 0.6412327 0.7099866 0.6866204 0.701566 0.5843124 0.701566 0.6866204 0.701566 0.6866204 0.7099866 0.5843124 0.7099866 0.6866204 0.7217914 0.5874586 0.7059916 0.5795568 0.7059916 0.5874586 0.7059916 0.6596922 0.6772896 0.6112391 0.6614896 0.627039 0.6772896 0.6112391 0.7059916 0.6596922 0.6614896 0.627039 0.6614896 0.5795568 0.7059916 0.5874586 0.7059916 0.5795568 0.7217914 0.5795568 0.6772896 0.5874586 0.6772896 0.5795568 0.7217914 0.6913745 0.7059914 0.6834728 0.7059914 0.6913745 0.7059914 0.6596922 0.6772896 0.6112391 0.6614896 0.6270391 0.6772896 0.6112391 0.7059914 0.6596922 0.6614896 0.6270391 0.6614896 0.6834728 0.7059914 0.6913745 0.7059914 0.6834728 0.7217914 0.6834728 0.6772896 0.6913745 0.6772896 0.6834728 0.7427953 0.6412327 0.6404874 0.6496533 0.6404874 0.6412327 0.6404874 0.6412327 0.7427953 0.6496533 0.7427953 0.6412327 0.701566 0.5843124 0.7099866 0.6866204 0.701566 0.6866204 0.7099866 0.5843124 0.701566 0.6866204 0.7099866 0.6866204 0.7059916 0.5795568 0.7217914 0.5874586 0.7059916 0.5874586 0.7059916 0.6596922 0.6772896 0.6112391 0.7217914 0.6438923 0.7059916 0.6596922 0.6772896 0.6112391 0.6614896 0.627039 0.7059916 0.5874586 0.6614896 0.5795568 0.7059916 0.5795568 0.6772896 0.5874586 0.7217914 0.5795568 0.6772896 0.5795568 0.7059914 0.6834728 0.7217914 0.6913745 0.7059914 0.6913745 0.7059914 0.6596922 0.6772896 0.6112391 0.7217914 0.6438923 0.7059914 0.6596922 0.6772896 0.6112391 0.6614896 0.6270391 0.7059914 0.6913745 0.6614896 0.6834728 0.7059914 0.6834728 0.6772896 0.6913745 0.7217914 0.6834728 0.6772896 0.6834728 0.7199921 0.4367942 0.6915138 0.5107574 0.6915138 0.4367942 0.6952198 0.4367942 0.6590013 0.5107574 0.6617414 0.4367942 0.6739133 0.4367942 0.7166569 0.5107574 0.7091144 0.4367942 0.6952198 0.4367942 0.6590013 0.5107574 0.7068263 0.5107574 0.6630355 0.4367942 0.6915138 0.5107574 0.6508314 0.5107574 0.6630355 0.46957 0.6739133 0.5030483 0.7091144 0.5030483 0.6913594 0.5107574 0.6628811 0.4367942 0.6913594 0.4367942 0.6590013 0.5107574 0.6952198 0.4367942 0.6617414 0.4367942 0.6662163 0.5107574 0.7089599 0.4367942 0.6737588 0.4367942 0.6952198 0.4367942 0.6590013 0.5107574 0.6617414 0.4367942 0.7198377 0.4367942 0.6913594 0.5107574 0.6913594 0.4367942 0.6628811 0.46957 0.6737588 0.5030483 0.7089599 0.5030483 0.6915138 0.5107574 0.7199921 0.4367942 0.6915138 0.4367942 0.7132513 0.5107574 0.6770329 0.4367942 0.7105112 0.4367942 0.7166569 0.5107574 0.6739133 0.4367942 0.7091144 0.4367942 0.6770329 0.4367942 0.7132513 0.5107574 0.7105112 0.4367942 0.6630355 0.4367942 0.6915138 0.5107574 0.6915138 0.4367942 0.7199921 0.4822299 0.7091144 0.4487516 0.6739133 0.4487516 0.6628811 0.4367942 0.6913594 0.5107574 0.6913594 0.4367942 0.6770329 0.4367942 0.7132513 0.5107574 0.7105112 0.4367942 0.7089599 0.4367942 0.6662163 0.5107574 0.6737588 0.4367942 0.6770329 0.4367942 0.7132513 0.5107574 0.6654263 0.5107574 0.7198377 0.4367942 0.6913594 0.5107574 0.7320419 0.5107574 0.7198377 0.4822299 0.7089599 0.4487516 0.6737588 0.4487516 0.4495453 0.4155295 0.03699153 0.4084274 0.03699153 0.4545147 0.4495453 0.006799519 0.03699153 0.006799519 0.03699153 0.4084274 0.007224321 0.006799519 0.007224321 0.4084274 0.03699153 0.4084274 0.007224321 0.4084274 0.007224321 0.4545147 0.03699153 0.4545147 0.007224321 0.5920946 0.03699153 0.5920946 0.03699153 0.4545147 0.05097955 0.4504045 0.01263892 0.4504045 0.01263892 0.0446729 0.4529505 0.4504045 0.05097955 0.4504045 0.0579642 0.0446729 0.0579642 0.0446729 0.0579642 0.01539796 0.4529504 0.0153979 0.01263892 0.0446729 0.01263892 0.01539796 0.0579642 0.01539796 0.4104243 0.415156 0.4104243 0.2399358 0.4483355 0.2399358 0.6599953 0.04135864 0.6599954 0.3123435 0.5224156 0.3123435 0.3272817 0.6781779 0.3272817 0.6953038 0.1035878 0.6953038 0.2301935 0.01359766 0.024769 0.01359766 0.024769 0.3180582 0.5849061 0.3819592 0.5849061 0.4077242 0.572372 0.3694251 0.5849061 0.4077242 0.5324724 0.4077242 0.572372 0.3694251 0.3748121 0.5839465 0.1038274 0.5839465 0.1038274 0.5541793 0.7354531 0.4358683 0.522184 0.4358684 0.522184 0.7605546 0.2301935 0.3529955 0.024769 0.3529955 0.024769 0.4572902 0.4865329 0.8277416 0.4865329 0.9315983 0.7306121 0.9315983 0.7354531 0.7605546 0.522184 0.7605546 0.522184 0.7839818 0.2301935 0.3180582 0.024769 0.3180582 0.024769 0.3529955 0.7341271 0.3510515 0.7341271 0.0282523 0.7577725 0.006822645 0.5104331 0.3510515 0.4867877 0.4155526 0.4867876 0.006822645 0.7341271 0.3510515 0.7577725 0.4155526 0.4867877 0.4155526 0.5104331 0.0282523 0.4867876 0.006822645 0.7577725 0.006822645 0.994067 0.3408618 0.7703731 0.3408618 0.7703731 0.01806271 0.1036176 0.4948458 0.1036176 0.5119717 0.4264168 0.5119717 0.6898716 0.04383504 0.6727458 0.04383504 0.6727458 0.267529 0.4264168 0.5247221 0.4264168 0.541848 0.1036176 0.541848 0.07768964 0.7401183 0.05853295 0.7401183 0.05853289 0.4691334 0.4153587 0.358359 0.4424998 0.358359 0.4424998 0.05541169 0.4478585 0.05020236 0.4478585 0.3531498 0.4146935 0.3531498 0.4367749 0.05541169 0.4471933 0.05541169 0.4471933 0.358359 0.473823 0.4155295 0.4495453 0.4155295 0.4780213 0.4451954 0.4495453 0.4155295 0.4495453 0.4545147 0.4780213 0.4451954 0.09114247 0.4825863 0.07768958 0.4691334 0.4902434 0.4691334 0.4767906 0.7266654 0.4902434 0.7401183 0.07768964 0.7401183 0.4767906 0.4825863 0.4902434 0.4691334 0.4902434 0.7401183 0.09114247 0.7266655 0.07768964 0.7401183 0.07768958 0.4691334 0.7482663 0.8134509 0.5041872 0.813451 0.5041872 0.4278029 0.4739473 0.8569074 0.4739472 0.7530507 0.08829909 0.7530508 0.2512328 0.8711981 0.2512328 0.9750548 0.00715363 0.9750548 0.7625569 0.4305189 0.8664135 0.4305189 0.8664136 0.816167 0.6404874 0.6496533 0.7427953 0.6496533 0.7427953 0.6412327 0.7427953 0.6496533 0.6404874 0.6496533 0.6404874 0.6412327 0.7099866 0.6866204 0.7099866 0.5843124 0.701566 0.5843124 0.701566 0.6866204 0.701566 0.5843124 0.7099866 0.5843124 0.7217914 0.5874586 0.7217914 0.5795568 0.7059916 0.5795568 0.7059916 0.6596922 0.7217914 0.6438923 0.6772896 0.6112391 0.6772896 0.6112391 0.7217914 0.6438923 0.7059916 0.6596922 0.6614896 0.5795568 0.6614896 0.5874586 0.7059916 0.5874586 0.7217914 0.5795568 0.7217914 0.5874586 0.6772896 0.5874586 0.7217914 0.6913745 0.7217914 0.6834728 0.7059914 0.6834728 0.7059914 0.6596922 0.7217914 0.6438923 0.6772896 0.6112391 0.6772896 0.6112391 0.7217914 0.6438923 0.7059914 0.6596922 0.6614896 0.6834728 0.6614896 0.6913745 0.7059914 0.6913745 0.7217914 0.6834728 0.7217914 0.6913745 0.6772896 0.6913745 0.7427953 0.6412327 0.7427953 0.6496533 0.6404874 0.6496533 0.6404874 0.6412327 0.6404874 0.6496533 0.7427953 0.6496533 0.701566 0.5843124 0.7099866 0.5843124 0.7099866 0.6866204 0.7099866 0.5843124 0.701566 0.5843124 0.701566 0.6866204 0.7059916 0.5795568 0.7217914 0.5795568 0.7217914 0.5874586 0.7059916 0.6596922 0.6614896 0.627039 0.6772896 0.6112391 0.7059916 0.6596922 0.7217914 0.6438923 0.6772896 0.6112391 0.7059916 0.5874586 0.6614896 0.5874586 0.6614896 0.5795568 0.6772896 0.5874586 0.7217914 0.5874586 0.7217914 0.5795568 0.7059914 0.6834728 0.7217914 0.6834728 0.7217914 0.6913745 0.7059914 0.6596922 0.6614896 0.6270391 0.6772896 0.6112391 0.7059914 0.6596922 0.7217914 0.6438923 0.6772896 0.6112391 0.7059914 0.6913745 0.6614896 0.6913745 0.6614896 0.6834728 0.6772896 0.6913745 0.7217914 0.6913745 0.7217914 0.6834728 0.7199921 0.4367942 0.7321962 0.5107574 0.6915138 0.5107574 0.6952198 0.4367942 0.7068263 0.5107574 0.6590013 0.5107574 0.6739133 0.4367942 0.6663706 0.5107574 0.7166569 0.5107574 0.6952198 0.4367942 0.6617414 0.4367942 0.6590013 0.5107574 0.6630355 0.4367942 0.6915138 0.4367942 0.6915138 0.5107574 0.7199921 0.46957 0.6915138 0.4488793 0.7091144 0.5030483 0.6915138 0.4488793 0.6630355 0.46957 0.7091144 0.5030483 0.6913594 0.5107574 0.650677 0.5107574 0.6628811 0.4367942 0.6590013 0.5107574 0.7068263 0.5107574 0.6952198 0.4367942 0.6662163 0.5107574 0.7165026 0.5107574 0.7089599 0.4367942 0.6952198 0.4367942 0.7068263 0.5107574 0.6590013 0.5107574 0.7198377 0.4367942 0.7320419 0.5107574 0.6913594 0.5107574 0.7198377 0.46957 0.6913594 0.4488793 0.7089599 0.5030483 0.6913594 0.4488793 0.6628811 0.46957 0.7089599 0.5030483 0.6915138 0.5107574 0.7321962 0.5107574 0.7199921 0.4367942 0.7132513 0.5107574 0.6654263 0.5107574 0.6770329 0.4367942 0.7166569 0.5107574 0.6663706 0.5107574 0.6739133 0.4367942 0.6770329 0.4367942 0.6654263 0.5107574 0.7132513 0.5107574 0.6630355 0.4367942 0.6508314 0.5107574 0.6915138 0.5107574 0.6630355 0.4822299 0.6915138 0.5029205 0.6739133 0.4487516 0.6915138 0.5029205 0.7199921 0.4822299 0.6739133 0.4487516 0.6628811 0.4367942 0.650677 0.5107574 0.6913594 0.5107574 0.6770329 0.4367942 0.6654263 0.5107574 0.7132513 0.5107574 0.7089599 0.4367942 0.7165026 0.5107574 0.6662163 0.5107574 0.6770329 0.4367942 0.7105112 0.4367942 0.7132513 0.5107574 0.7198377 0.4367942 0.6913594 0.4367942 0.6913594 0.5107574 0.6628811 0.4822299 0.6913594 0.5029205 0.6737588 0.4487516 0.6913594 0.5029205 0.7198377 0.4822299 0.6737588 0.4487516</float_array>
          <technique_common>
            <accessor source="#Fryer-mesh-map-0-array" count="576" stride="2">
              <param name="S" type="float"/>
              <param name="T" type="float"/>
            </accessor>
          </technique_common>
        </source>
        <vertices id="Fryer-mesh-vertices">
          <input semantic="POSITION" source="#Fryer-mesh-positions"/>
        </vertices>
        <triangles material="Fryer-material" count="192">
          <input semantic="VERTEX" source="#Fryer-mesh-vertices" offset="0"/>
          <input semantic="NORMAL" source="#Fryer-mesh-normals" offset="1"/>
          <input semantic="TEXCOORD" source="#Fryer-mesh-map-0" offset="2" set="0"/>
          <p>22 0 0 37 0 1 36 1 2 23 0 3 3 0 4 22 0 5 4 0 6 3 0 7 0 0 8 5 0 9 37 0 10 3 0 11 8 0 12 37 0 13 6 0 14 24 2 15 39 3 16 11 3 17 25 3 18 11 3 19 15 3 20 11 3 21 19 3 22 15 3 23 39 3 24 17 3 25 11 3 26 39 3 27 20 3 28 18 3 29 7 4 30 39 4 31 37 4 32 9 5 33 29 5 34 14 5 35 4 6 36 17 6 37 5 6 38 24 2 39 31 7 40 34 8 41 8 5 42 21 5 43 7 5 44 23 9 45 15 9 46 0 9 47 6 6 48 20 6 49 8 6 50 2 6 51 42 6 52 16 6 53 0 9 54 19 9 55 4 9 56 5 6 57 18 6 58 6 6 59 10 10 60 23 11 61 22 4 62 13 12 63 25 13 64 14 14 65 10 10 66 24 4 67 13 12 68 14 14 69 23 11 70 9 15 71 26 4 72 29 4 73 27 4 74 14 0 75 28 0 76 13 0 77 13 9 78 26 9 79 10 9 80 10 3 81 27 3 82 9 3 83 38 16 84 32 17 85 36 18 86 22 9 87 31 9 88 24 9 89 33 19 90 31 20 91 30 21 92 35 22 93 33 23 94 32 17 95 36 1 96 32 24 97 33 25 98 2 26 99 37 27 100 1 28 101 12 29 102 38 16 103 16 30 104 1 28 105 39 31 106 12 29 107 16 30 108 36 18 109 2 26 110 41 5 111 42 5 112 40 5 113 16 0 114 43 0 115 12 0 116 12 4 117 41 4 118 1 4 119 1 3 120 40 3 121 2 3 122 45 32 123 46 32 124 44 32 125 51 33 126 48 33 127 50 33 128 50 34 129 44 34 130 46 34 131 47 35 132 49 35 133 51 35 134 53 6 135 54 6 136 52 6 137 54 0 138 59 0 139 58 0 140 57 3 141 52 3 142 56 3 143 58 36 144 52 36 145 54 36 146 55 37 147 57 37 148 59 37 149 61 6 150 62 6 151 60 6 152 62 0 153 67 0 154 66 0 155 65 3 156 60 3 157 64 3 158 66 38 159 60 38 160 62 38 161 63 39 162 65 39 163 67 39 164 70 40 165 69 40 166 68 40 167 72 41 168 75 41 169 74 41 170 68 42 171 74 42 172 70 42 173 73 43 174 71 43 175 75 43 176 78 6 177 77 6 178 76 6 179 78 3 180 83 3 181 79 3 182 76 0 183 81 0 184 80 0 185 76 44 186 82 44 187 78 44 188 81 45 189 79 45 190 83 45 191 86 6 192 85 6 193 84 6 194 86 3 195 91 3 196 87 3 197 84 0 198 89 0 199 88 0 200 84 46 201 90 46 202 86 46 203 89 47 204 87 47 205 91 47 206 94 48 207 93 49 208 92 50 209 96 51 210 95 52 211 94 53 212 98 54 213 97 55 214 96 56 215 98 57 216 101 58 217 99 59 218 100 60 219 93 61 220 101 62 221 100 9 222 98 9 223 96 9 224 103 63 225 104 64 226 102 65 227 105 66 228 106 67 229 104 68 230 107 69 231 108 70 232 106 71 233 108 72 234 111 73 235 110 74 236 110 75 237 103 76 238 102 50 239 104 9 240 106 9 241 108 9 242 113 77 243 114 78 244 112 79 245 115 80 246 116 81 247 114 82 248 117 83 249 118 84 250 116 85 251 118 86 252 121 87 253 120 88 254 120 89 255 113 90 256 112 91 257 114 9 258 116 9 259 118 9 260 124 92 261 123 93 262 122 94 263 126 95 264 125 96 265 124 97 266 128 98 267 127 99 268 126 100 269 128 101 270 131 102 271 129 103 272 130 104 273 123 105 274 131 106 275 130 9 276 128 9 277 126 9 278 22 0 279 3 0 280 37 0 281 23 0 282 0 0 283 3 0 284 4 0 285 5 0 286 3 0 287 5 0 288 6 0 289 37 0 290 8 0 291 7 0 292 37 0 293 24 2 294 38 3 295 39 3 296 25 3 297 24 2 298 11 3 299 11 3 300 17 3 301 19 3 302 39 3 303 18 3 304 17 3 305 39 3 306 21 3 307 20 3 308 7 4 309 21 4 310 39 4 311 9 5 312 27 5 313 29 5 314 4 6 315 19 6 316 17 6 317 35 3 318 38 3 319 34 8 320 38 3 321 24 2 322 34 8 323 8 5 324 20 5 325 21 5 326 23 9 327 25 9 328 15 9 329 6 6 330 18 6 331 20 6 332 2 6 333 40 6 334 42 6 335 0 9 336 15 9 337 19 9 338 5 6 339 17 6 340 18 6 341 10 10 342 9 15 343 23 11 344 13 12 345 24 4 346 25 13 347 10 10 348 22 4 349 24 4 350 14 14 351 25 13 352 23 11 353 26 4 354 28 4 355 29 4 356 14 0 357 29 0 358 28 0 359 13 9 360 28 9 361 26 9 362 10 3 363 26 3 364 27 3 365 38 16 366 35 22 367 32 17 368 22 9 369 30 9 370 31 9 371 33 19 372 34 107 373 31 20 374 35 22 375 34 23 376 33 23 377 30 0 378 22 0 379 33 25 380 22 0 381 36 1 382 33 25 383 2 26 384 36 18 385 37 27 386 12 29 387 39 31 388 38 16 389 1 28 390 37 27 391 39 31 392 16 30 393 38 16 394 36 18 395 41 5 396 43 5 397 42 5 398 16 0 399 42 0 400 43 0 401 12 4 402 43 4 403 41 4 404 1 3 405 41 3 406 40 3 407 45 108 408 47 108 409 46 108 410 51 109 411 49 109 412 48 109 413 50 110 414 48 110 415 44 110 416 47 111 417 45 111 418 49 111 419 53 6 420 55 6 421 54 6 422 54 0 423 55 0 424 59 0 425 57 3 426 53 3 427 52 3 428 58 44 429 56 44 430 52 44 431 55 112 432 53 112 433 57 112 434 61 6 435 63 6 436 62 6 437 62 0 438 63 0 439 67 0 440 65 3 441 61 3 442 60 3 443 66 113 444 64 113 445 60 113 446 63 47 447 61 47 448 65 47 449 70 114 450 71 114 451 69 114 452 72 115 453 73 115 454 75 115 455 68 116 456 72 116 457 74 116 458 73 117 459 69 117 460 71 117 461 78 6 462 79 6 463 77 6 464 78 3 465 82 3 466 83 3 467 76 0 468 77 0 469 81 0 470 76 44 471 80 44 472 82 44 473 81 45 474 77 45 475 79 45 476 86 6 477 87 6 478 85 6 479 86 3 480 90 3 481 91 3 482 84 0 483 85 0 484 89 0 485 84 118 486 88 118 487 90 118 488 89 119 489 85 119 490 87 119 491 94 48 492 95 120 493 93 49 494 96 51 495 97 121 496 95 52 497 98 54 498 99 122 499 97 55 500 98 57 501 100 123 502 101 58 503 100 60 504 92 124 505 93 61 506 94 9 507 92 9 508 96 9 509 92 9 510 100 9 511 96 9 512 103 63 513 105 125 514 104 64 515 105 66 516 107 126 517 106 67 518 107 69 519 109 127 520 108 70 521 108 72 522 109 128 523 111 73 524 110 75 525 111 129 526 103 76 527 110 9 528 102 9 529 108 9 530 102 9 531 104 9 532 108 9 533 113 77 534 115 130 535 114 78 536 115 80 537 117 131 538 116 81 539 117 83 540 119 132 541 118 84 542 118 86 543 119 133 544 121 87 545 120 89 546 121 134 547 113 90 548 120 9 549 112 9 550 118 9 551 112 9 552 114 9 553 118 9 554 124 92 555 125 135 556 123 93 557 126 95 558 127 136 559 125 96 560 128 98 561 129 137 562 127 99 563 128 101 564 130 138 565 131 102 566 130 104 567 122 139 568 123 105 569 124 9 570 122 9 571 126 9 572 122 9 573 130 9 574 126 9 575</p>
        </triangles>
      </mesh>
    </geometry>
  </library_geometries>
  <library_visual_scenes>
    <visual_scene id="Scene" name="Scene">
      <node id="Fryer" name="Fryer" type="NODE">
        <matrix sid="transform">1.19249e-8 1 0 0 -1 1.19249e-8 0 0 0 0 1 0 0 0 0 1</matrix>
        <instance_geometry url="#Fryer-mesh" name="Fryer">
          <bind_material>
            <technique_common>
              <instance_material symbol="Fryer-material" target="#Fryer-material">
                <bind_vertex_input semantic="UVMap" input_semantic="TEXCOORD" input_set="0"/>
              </instance_material>
            </technique_common>
          </bind_material>
        </instance_geometry>
        <node id="Fryer_basket" name="Fryer_basket" type="NODE">
          <matrix sid="transform">1 0 0 -0.09005737 0 1 0 0.1289864 0 0 1 0.4459496 0 0 0 1</matrix>
          <instance_geometry url="#Fryer_basket-mesh" name="Fryer_basket">
            <bind_material>
              <technique_common>
                <instance_material symbol="Fryer_basket-material" target="#Fryer_basket-material">
                  <bind_vertex_input semantic="UVMap" input_semantic="TEXCOORD" input_set="0"/>
                </instance_material>
              </technique_common>
            </bind_material>
          </instance_geometry>
        </node>
        <node id="Fryer_basket_01" name="Fryer_basket_01" type="NODE">
          <matrix sid="transform">1 0 0 -0.09005737 0 1 0 -0.1244812 0 0 1 0.4459496 0 0 0 1</matrix>
          <instance_geometry url="#Fryer_basket_01-mesh" name="Fryer_basket_01">
            <bind_material>
              <technique_common>
                <instance_material symbol="Fryer_basket-material" target="#Fryer_basket-material">
                  <bind_vertex_input semantic="UVMap" input_semantic="TEXCOORD" input_set="0"/>
                </instance_material>
              </technique_common>
            </bind_material>
          </instance_geometry>
        </node>
      </node>
    </visual_scene>
  </library_visual_scenes>
  <scene>
    <instance_visual_scene url="#Scene"/>
  </scene>
</COLLADA>