<?xml version="1.0" encoding="utf-8"?>
<COLLADA xmlns="http://www.collada.org/2005/11/COLLADASchema" version="1.4.1" xmlns:xsi="http://www.w3.org/2001/XMLSchema-instance">
  <asset>
    <contributor>
      <author>Blender User</author>
      <authoring_tool>Blender 4.0.1 commit date:2023-11-16, commit time:16:40, hash:d0dd92834a08</authoring_tool>
    </contributor>
    <created>2023-11-28T13:08:28</created>
    <modified>2023-11-28T13:08:28</modified>
    <unit name="meter" meter="1"/>
    <up_axis>Z_UP</up_axis>
  </asset>
  <library_effects>
    <effect id="Door_01-effect">
      <profile_COMMON>
        <newparam sid="Door_01_png-surface">
          <surface type="2D">
            <init_from>Door_01_png</init_from>
          </surface>
        </newparam>
        <newparam sid="Door_01_png-sampler">
          <sampler2D>
            <source>Door_01_png-surface</source>
          </sampler2D>
        </newparam>
        <technique sid="common">
          <lambert>
            <emission>
              <color sid="emission">0 0 0 1</color>
            </emission>
            <diffuse>
              <texture texture="Door_01_png-sampler" texcoord="UVMap"/>
            </diffuse>
            <index_of_refraction>
              <float sid="ior">1.45</float>
            </index_of_refraction>
          </lambert>
        </technique>
      </profile_COMMON>
    </effect>
  </library_effects>
  <library_images>
    <image id="Door_01_png" name="Door_01_png">
      <init_from>Door_01.png</init_from>
    </image>
  </library_images>
  <library_materials>
    <material id="Door_01-material" name="Door_01">
      <instance_effect url="#Door_01-effect"/>
    </material>
  </library_materials>
  <library_geometries>
    <geometry id="Door_01-mesh" name="Door_01">
      <mesh>
        <source id="Door_01-mesh-positions">
          <float_array id="Door_01-mesh-positions-array" count="138">-0.04114633 -1.037261 -1.422634 -0.04114633 -1.19209e-5 -1.422634 -0.04114633 -1.037261 1.030425 -0.04114633 -1.19209e-5 1.030425 0.04022711 -1.037261 -1.422634 0.04022711 -1.19209e-5 -1.422634 0.04022711 -1.037261 1.030425 0.04022711 -1.19209e-5 1.030425 -0.0637812 -0.8959729 -0.3051308 -0.0637812 -0.8959729 -0.1085802 0.06378096 -0.8959729 -0.3051308 0.06378096 -0.8959729 -0.1085802 -0.0637812 -0.9967581 -0.3051308 -0.0637812 -0.9967581 -0.1085802 0.06378096 -0.9967581 -0.3051308 0.06378096 -0.9967581 -0.1085802 -0.059358 -0.9463655 -0.1849297 -0.1174048 -0.9463655 -0.1633385 -0.059358 -0.9664736 -0.1995391 -0.1174048 -0.989176 -0.1944421 -0.059358 -0.958793 -0.2231776 -0.1174048 -0.9728238 -0.2447689 -0.059358 -0.933938 -0.2231776 -0.1174048 -0.9199071 -0.2447689 -0.059358 -0.9262573 -0.1995391 -0.1174048 -0.903555 -0.1944421 -0.1487278 -0.9731404 -0.1980423 -0.1487278 -0.9463655 -0.1785892 -0.1487278 -0.9629133 -0.2295181 -0.1487278 -0.9298177 -0.2295181 -0.1487278 -0.9195906 -0.1980423 0.06067907 -0.9463655 -0.1849297 0.1187259 -0.9463655 -0.1633385 0.06067907 -0.9664736 -0.1995391 0.1187259 -0.989176 -0.1944421 0.06067907 -0.958793 -0.2231776 0.1187259 -0.9728239 -0.2447689 0.06067907 -0.933938 -0.2231776 0.1187259 -0.9199072 -0.2447689 0.06067907 -0.9262573 -0.1995391 0.1187259 -0.903555 -0.1944421 0.1500489 -0.9731404 -0.1980423 0.1500489 -0.9463655 -0.1785892 0.1500489 -0.9629133 -0.2295181 0.1500489 -0.9298177 -0.2295181 0.1500489 -0.9195906 -0.1980423</float_array>
          <technique_common>
            <accessor source="#Door_01-mesh-positions-array" count="46" stride="3">
              <param name="X" type="float"/>
              <param name="Y" type="float"/>
              <param name="Z" type="float"/>
            </accessor>
          </technique_common>
        </source>
        <source id="Door_01-mesh-normals">
          <float_array id="Door_01-mesh-normals-array" count="156">-1 0 0 1 0 0 1 0 0 1 0 0 0 0 -1 0 -1 0 0 0 1 0 1 0 1 0 0 -1 0 0 -0.04260468 4.07978e-7 0.999092 0.2881584 -0.5628515 0.7747018 0.288158 -0.5628498 0.7747033 -0.04441404 -0.9537026 0.2974541 0.325991 -0.8991032 -0.292136 0.3259907 -0.8991033 -0.2921361 -0.04684925 -0.5814285 -0.8122475 0.3486267 0 -0.9372617 0.3486255 0 -0.9372621 -0.7697973 0.6026044 0.2104282 -0.4377564 8.55411e-7 0.8990936 0.325991 0.899103 -0.2921367 -0.04441416 0.9537026 0.2974538 0.3259906 0.8991033 -0.2921361 0.2881591 0.5628528 0.7747008 0.2881591 0.562852 0.7747013 -0.7850651 0.3708403 -0.4961353 -0.7850647 -0.3708409 -0.4961357 -0.7697976 -0.6026043 0.2104274 -0.04684948 0.5814281 -0.8122478 -0.04260462 0 -0.999092 0.2881591 0.5628528 -0.7747007 0.2881591 0.5628521 -0.7747012 -0.0444141 0.9537026 -0.297454 0.3259913 0.8991032 0.2921358 0.325991 0.8991032 0.292136 0.3486264 0 0.9372618 -0.0468496 -0.5814281 0.8122478 0.3486255 0 0.9372621 -0.7697974 -0.6026043 -0.2104284 -0.4377565 -8.16529e-7 -0.8990937 0.325991 -0.8991032 0.2921358 -0.04441404 -0.9537025 -0.2974541 0.325991 -0.8991033 0.2921359 0.2881585 -0.5628516 -0.7747018 0.288158 -0.5628497 -0.7747033 -1 1.49006e-7 0 -0.785065 -0.3708406 0.4961353 -0.7850652 0.3708403 0.4961353 -0.7697976 0.6026043 -0.2104275 -0.04684966 0.5814288 0.8122473 1 0 0</float_array>
          <technique_common>
            <accessor source="#Door_01-mesh-normals-array" count="52" stride="3">
              <param name="X" type="float"/>
              <param name="Y" type="float"/>
              <param name="Z" type="float"/>
            </accessor>
          </technique_common>
        </source>
        <source id="Door_01-mesh-map-0">
          <float_array id="Door_01-mesh-map-0-array" count="420">0.02313369 0.005193114 0.970055 0.994807 0.02313369 0.994807 0.970055 0.005193114 0.02313369 0.994807 0.970055 0.9948071 0.9667649 0.03942978 0.01961231 0.07009905 0.01961237 0.03942984 0.3183894 0.005193114 0.2482882 0.9948069 0.3183894 0.9948069 0.3183894 0.29132 0.2482882 0.7056993 0.3183894 0.7056994 0.3183894 0.9948069 0.2482882 0.005193114 0.3183894 0.005193114 0.8446807 0.5350023 0.9331356 0.4566919 0.8446807 0.4566919 0.8387976 0.5350023 0.930581 0.4566919 0.8387976 0.4566919 0.9331356 0.5350023 0.8446807 0.4566919 0.9331356 0.4566919 0.930581 0.5350023 0.8387976 0.4566919 0.930581 0.4566919 0.9284716 0.521259 0.8366882 0.4704352 0.8366882 0.521259 0.8366882 0.521259 0.9284716 0.4704352 0.9284716 0.521259 0.471625 0.0613324 0.4978592 0.02302229 0.4661758 0.02302229 0.4781848 0.06089919 0.4360433 0.02302229 0.4732893 0.02302229 0.5078647 0.06062388 0.4465944 0.02302229 0.4857572 0.02302229 0.4719507 0.06106895 0.4312949 0.08213937 0.4734827 0.08213937 0.4360433 0.02302229 0.4781848 0.06089919 0.4732893 0.02302229 0.4344925 0.02302229 0.4607266 0.0613324 0.4661758 0.02302229 0.4661758 0.06419438 0.4401023 0.02908676 0.4922493 0.02908676 0.460401 0.06106895 0.5010568 0.08213937 0.5278552 0.06106895 0.5078648 0.06028217 0.4401023 0.08114379 0.4244868 0.06028217 0.4846202 0.06058585 0.4302283 0.081528 0.479823 0.08152806 0.4846203 0.06058585 0.4302283 0.081528 0.4053229 0.06058585 0.4716251 0.06133234 0.4978592 0.02302229 0.4661758 0.02302229 0.4781848 0.06089919 0.4360433 0.02302229 0.4732893 0.02302229 0.4857572 0.02302229 0.4244867 0.06062388 0.4465944 0.02302229 0.4719507 0.06106895 0.4312948 0.08213931 0.4734826 0.08213931 0.4360433 0.02302229 0.4781849 0.06089919 0.4732893 0.02302229 0.4344925 0.02302229 0.4607266 0.0613324 0.4661758 0.02302229 0.4661758 0.06419438 0.4401023 0.02908676 0.4922493 0.02908676 0.460401 0.06106895 0.5010567 0.08213931 0.5278553 0.06106895 0.4244868 0.06028217 0.4922494 0.08114379 0.4401024 0.08114379 0.4846202 0.06058585 0.4302283 0.081528 0.4798231 0.081528 0.4846203 0.06058585 0.4302283 0.081528 0.4053229 0.06058585 0.02313369 0.005193114 0.9700551 0.005193114 0.970055 0.994807 0.970055 0.005193114 0.02313375 0.005193114 0.02313369 0.994807 0.9667649 0.03942978 0.9667652 0.07009905 0.01961231 0.07009905 0.3183894 0.005193114 0.2482882 0.005193114 0.2482882 0.9948069 0.3183894 0.29132 0.2482882 0.29132 0.2482882 0.7056993 0.3183894 0.9948069 0.2482882 0.9948069 0.2482882 0.005193114 0.8446807 0.5350023 0.9331356 0.5350023 0.9331356 0.4566919 0.8387976 0.5350023 0.930581 0.5350023 0.930581 0.4566919 0.9331356 0.5350023 0.8446807 0.5350023 0.8446807 0.4566919 0.930581 0.5350023 0.8387976 0.5350023 0.8387976 0.4566919 0.9284716 0.521259 0.9284716 0.4704352 0.8366882 0.4704352 0.8366882 0.521259 0.8366882 0.4704352 0.9284716 0.4704352 0.471625 0.0613324 0.5390793 0.0613324 0.4978592 0.02302229 0.4781848 0.06089919 0.3988875 0.06089925 0.4360433 0.02302229 0.5078647 0.06062388 0.4244868 0.06062388 0.4465944 0.02302229 0.4719507 0.06106895 0.4044963 0.06106901 0.4312949 0.08213937 0.4360433 0.02302229 0.3988875 0.06089925 0.4781848 0.06089919 0.4344925 0.02302229 0.3932723 0.0613324 0.4607266 0.0613324 0.4922493 0.02908676 0.5083636 0.05078452 0.4661758 0.06419438 0.4661758 0.06419438 0.423988 0.05078452 0.4401023 0.02908676 0.460401 0.06106895 0.4588689 0.08213937 0.5010568 0.08213937 0.5078648 0.06028217 0.4922493 0.08114379 0.4401023 0.08114379 0.4846202 0.06058585 0.4053229 0.06058585 0.4302283 0.081528 0.4846203 0.06058585 0.479823 0.08152806 0.4302283 0.081528 0.4716251 0.06133234 0.5390793 0.0613324 0.4978592 0.02302229 0.4781848 0.06089919 0.3988875 0.06089919 0.4360433 0.02302229 0.4857572 0.02302229 0.5078647 0.06062388 0.4244867 0.06062388 0.4719507 0.06106895 0.4044963 0.06106895 0.4312948 0.08213931 0.4360433 0.02302229 0.3988875 0.06089919 0.4781849 0.06089919 0.4344925 0.02302229 0.3932723 0.0613324 0.4607266 0.0613324 0.4922493 0.02908676 0.5083636 0.05078452 0.4661758 0.06419438 0.4661758 0.06419438 0.423988 0.05078452 0.4401023 0.02908676 0.460401 0.06106895 0.458869 0.08213931 0.5010567 0.08213931 0.4244868 0.06028217 0.5078649 0.06028217 0.4922494 0.08114379 0.4846202 0.06058585 0.4053229 0.06058585 0.4302283 0.081528 0.4846203 0.06058585 0.479823 0.081528 0.4302283 0.081528</float_array>
          <technique_common>
            <accessor source="#Door_01-mesh-map-0-array" count="210" stride="2">
              <param name="S" type="float"/>
              <param name="T" type="float"/>
            </accessor>
          </technique_common>
        </source>
        <vertices id="Door_01-mesh-vertices">
          <input semantic="POSITION" source="#Door_01-mesh-positions"/>
        </vertices>
        <triangles material="Door_01-material" count="70">
          <input semantic="VERTEX" source="#Door_01-mesh-vertices" offset="0"/>
          <input semantic="NORMAL" source="#Door_01-mesh-normals" offset="1"/>
          <input semantic="TEXCOORD" source="#Door_01-mesh-map-0" offset="2" set="0"/>
          <p>1 0 0 2 0 1 3 0 2 4 1 3 7 2 4 6 3 5 1 4 6 4 4 7 0 4 8 0 5 9 6 5 10 2 5 11 2 6 12 7 6 13 3 6 14 3 7 15 5 7 16 1 7 17 9 7 18 10 7 19 8 7 20 11 8 21 14 8 22 10 8 23 15 5 24 12 5 25 14 5 26 13 9 27 8 9 28 12 9 29 14 4 30 8 4 31 10 4 32 11 6 33 13 6 34 15 6 35 17 10 36 18 11 37 16 12 38 19 13 39 20 14 40 18 15 41 21 16 42 22 17 43 20 18 44 17 10 45 30 19 46 27 20 47 22 21 48 25 22 49 24 23 50 24 24 51 17 10 52 16 25 53 27 9 54 29 26 55 28 27 56 17 10 57 26 28 58 19 13 59 21 16 60 29 26 61 23 29 62 25 22 63 29 26 64 30 19 65 19 13 66 28 27 67 21 16 68 32 30 69 33 31 70 31 32 71 34 33 72 35 34 73 33 35 74 35 36 75 38 37 76 37 38 77 32 30 78 45 39 79 42 40 80 37 41 81 40 42 82 39 43 83 39 44 84 32 30 85 31 45 86 42 46 87 44 47 88 43 48 89 32 30 90 41 49 91 34 33 92 38 37 93 43 48 94 44 47 95 40 42 96 44 47 97 45 39 98 34 33 99 43 48 100 36 50 101 1 0 102 0 0 103 2 0 104 4 1 105 5 51 106 7 2 107 1 4 108 5 4 109 4 4 110 0 5 111 4 5 112 6 5 113 2 6 114 6 6 115 7 6 116 3 7 117 7 7 118 5 7 119 9 7 120 11 7 121 10 7 122 11 8 123 15 8 124 14 8 125 15 5 126 13 5 127 12 5 128 13 9 129 9 9 130 8 9 131 14 4 132 12 4 133 8 4 134 11 6 135 9 6 136 13 6 137 17 10 138 19 13 139 18 11 140 19 13 141 21 16 142 20 14 143 21 16 144 23 29 145 22 17 146 17 10 147 25 22 148 30 19 149 22 21 150 23 29 151 25 22 152 24 24 153 25 22 154 17 10 155 28 27 156 26 28 157 27 9 158 27 9 159 30 19 160 29 26 161 17 10 162 27 20 163 26 28 164 21 16 165 28 27 166 29 26 167 25 22 168 23 29 169 29 26 170 19 13 171 26 28 172 28 27 173 32 30 174 34 33 175 33 31 176 34 33 177 36 50 178 35 34 179 35 36 180 36 50 181 38 37 182 32 30 183 40 42 184 45 39 185 37 41 186 38 37 187 40 42 188 39 44 189 40 42 190 32 30 191 43 48 192 41 49 193 42 46 194 42 46 195 45 39 196 44 47 197 32 30 198 42 40 199 41 49 200 38 37 201 36 50 202 43 48 203 40 42 204 38 37 205 44 47 206 34 33 207 41 49 208 43 48 209</p>
        </triangles>
      </mesh>
    </geometry>
  </library_geometries>
  <library_visual_scenes>
    <visual_scene id="Scene" name="Scene">
      <node id="Door_01" name="Door_01" type="NODE">
        <matrix sid="transform">-4.37114e-8 -1 0 0 1 -4.37114e-8 0 0 0 0 1 0 0 0 0 1</matrix>
        <instance_geometry url="#Door_01-mesh" name="Door_01">
          <bind_material>
            <technique_common>
              <instance_material symbol="Door_01-material" target="#Door_01-material">
                <bind_vertex_input semantic="UVMap" input_semantic="TEXCOORD" input_set="0"/>
              </instance_material>
            </technique_common>
          </bind_material>
        </instance_geometry>
      </node>
    </visual_scene>
  </library_visual_scenes>
  <scene>
    <instance_visual_scene url="#Scene"/>
  </scene>
</COLLADA>