<?xml version="1.0" encoding="utf-8"?>
<COLLADA xmlns="http://www.collada.org/2005/11/COLLADASchema" version="1.4.1" xmlns:xsi="http://www.w3.org/2001/XMLSchema-instance">
  <asset>
    <contributor>
      <author>Blender User</author>
      <authoring_tool>Blender 4.0.1 commit date:2023-11-16, commit time:16:40, hash:d0dd92834a08</authoring_tool>
    </contributor>
    <created>2023-11-28T13:23:03</created>
    <modified>2023-11-28T13:23:03</modified>
    <unit name="meter" meter="1"/>
    <up_axis>Z_UP</up_axis>
  </asset>
  <library_effects>
    <effect id="Grill-effect">
      <profile_COMMON>
        <newparam sid="Grill-surface">
          <surface type="2D">
            <init_from>Grill</init_from>
          </surface>
        </newparam>
        <newparam sid="Grill-sampler">
          <sampler2D>
            <source>Grill-surface</source>
          </sampler2D>
        </newparam>
        <technique sid="common">
          <lambert>
            <emission>
              <color sid="emission">0 0 0 1</color>
            </emission>
            <diffuse>
              <texture texture="Grill-sampler" texcoord="UVMap"/>
            </diffuse>
            <index_of_refraction>
              <float sid="ior">1.45</float>
            </index_of_refraction>
          </lambert>
        </technique>
      </profile_COMMON>
    </effect>
  </library_effects>
  <library_images>
    <image id="Grill" name="Grill">
      <init_from>Grill.png</init_from>
    </image>
  </library_images>
  <library_materials>
    <material id="Grill-material" name="Grill">
      <instance_effect url="#Grill-effect"/>
    </material>
  </library_materials>
  <library_geometries>
    <geometry id="Grill-mesh" name="Grill">
      <mesh>
        <source id="Grill-mesh-positions">
          <float_array id="Grill-mesh-positions-array" count="522">0.4146442 0.2079122 0.1484301 0.4275227 0.2079122 0.1484301 0.4146442 0.1839107 0.1068582 0.4275227 0.1839107 0.1068582 0.4146442 0.1359076 0.1068582 0.4275227 0.1359076 0.1068582 0.4146442 0.1119061 0.1484301 0.4275227 0.1119061 0.1484301 0.4146442 0.1359076 0.190002 0.4275227 0.1359076 0.190002 0.4146442 0.1839107 0.190002 0.4275227 0.1839107 0.190002 0.4436219 0.1768915 0.1352134 0.4436219 0.1938738 0.14843 0.4436219 0.1429268 0.1352134 0.4436219 0.1259445 0.14843 0.4436219 0.1429268 0.1616467 0.4436219 0.1768915 0.1616467 0.4660937 0.1768915 0.1352134 0.4660937 0.1938738 0.14843 0.4660937 0.1429268 0.1352134 0.4660937 0.1259445 0.14843 0.4660937 0.1429268 0.1616467 0.4660937 0.1768915 0.1616467 0.4146442 -0.2062504 0.1484301 0.4275227 -0.2062504 0.1484301 0.4146442 -0.1822488 0.1068582 0.4275227 -0.1822488 0.1068582 0.4146442 -0.1342458 0.1068582 0.4275227 -0.1342458 0.1068582 0.4146442 -0.1102443 0.1484301 0.4275227 -0.1102443 0.1484301 0.4146442 -0.1342458 0.190002 0.4275227 -0.1342458 0.190002 0.4146442 -0.1822488 0.190002 0.4275227 -0.1822488 0.190002 0.4436219 -0.1752296 0.1352134 0.4436219 -0.1922119 0.14843 0.4436219 -0.141265 0.1352134 0.4436219 -0.1242827 0.14843 0.4436219 -0.141265 0.1616467 0.4436219 -0.1752296 0.1616467 0.4660937 -0.1752296 0.1352134 0.4660937 -0.1922119 0.14843 0.4660937 -0.141265 0.1352134 0.4660937 -0.1242827 0.14843 0.4660937 -0.141265 0.1616467 0.4660937 -0.1752296 0.1616467 -0.3670615 0.4067949 0.2011414 -0.3670615 0.4067949 0.01997685 -0.3909335 0.4067949 0.2011414 -0.3909335 0.4067949 0.2886961 -0.3909335 0.4067949 0.01997685 0.4166887 0.4067949 0.239674 0.4166887 0.4067949 0.01997685 0.4747836 0.4067949 0.239674 0.4827593 0.4067949 0.2709918 0.465055 0.4067949 0.2886961 0.4166887 0.4067949 0.2886961 -0.3670615 0.4067949 0.2886961 -0.3670615 -0.4051318 0.2011414 -0.3670615 -0.4051318 0.2886961 0.4166887 -0.4051318 0.239674 0.4166887 -0.4051318 0.01997685 -0.3670615 -0.4051318 0.01997685 0.4166887 -0.4051318 0.2886961 -0.3909335 -0.4051318 0.2011414 -0.3909335 -0.4051318 0.2886961 -0.3909335 -0.4051318 0.01997685 0.4747836 -0.4051318 0.239674 0.465055 -0.4051318 0.2886961 0.4827593 -0.4051318 0.2709918 0.4827593 0.3830627 0.2709918 0.4827593 -0.3813996 0.2709918 0.4747836 -0.3813996 0.239674 0.4747836 0.3830627 0.239674 0.4166887 0.3830627 0.239674 0.4166887 -0.3813996 0.239674 0.4166887 -0.3813996 0.01997685 0.4166887 0.3830627 0.01997685 -0.3909335 0.3830627 0.01997685 -0.3909335 -0.3813996 0.01997685 -0.3909335 -0.3813996 0.2011414 -0.3909335 0.3830627 0.2011414 0.465055 -0.3813996 0.2886961 0.465055 0.3830627 0.2886961 -0.3670615 -0.3813996 0.01997685 -0.3670615 0.3830627 0.01997685 -0.3909335 0.3830627 0.2886961 -0.3909335 -0.3813996 0.2886961 0.4166887 0.3879287 0.2886961 0.4166887 -0.3862656 0.2886961 -0.3670615 -0.3862656 0.2886961 -0.3670615 0.3879287 0.2886961 0.3479446 0.4067949 0.01997685 0.3479446 0.4067949 0.2135841 0.3479446 -0.4051318 0.01997685 0.3479446 -0.4051318 0.2135841 0.3479446 0.4067949 0.2886961 0.3479446 -0.4051318 0.2886961 0.3519153 0.3879287 0.2886961 0.3519153 -0.3862656 0.2886961 0.3479446 0.3830627 0.01997685 0.3479446 -0.3813996 0.01997685 0.386201 0.4067949 0.01997685 0.386201 -0.4051318 0.01997685 0.386201 0.3879287 0.2666772 0.386201 -0.3862656 0.2666772 0.386201 0.4067949 0.214109 0.386201 -0.4051318 0.214109 0.386201 0.4067949 0.2886961 0.386201 -0.4051318 0.2886961 0.386201 0.3830627 0.01997685 0.386201 -0.3813996 0.01997685 -0.3909335 0.4067949 0.4336299 -0.3670615 0.4067949 0.4336299 -0.3909335 -0.4051318 0.4336299 -0.3670615 -0.4051318 0.4336299 -0.3909335 -0.3813996 0.4336299 0.2689815 0.4067949 0.4336299 0.2689815 -0.4051318 0.4336299 0.3377256 -0.3862656 0.4336299 0.3377256 -0.4051318 0.4336299 -0.3670615 0.3879287 0.4336299 -0.3909335 0.3830627 0.4336299 0.3377256 0.4067949 0.4336299 0.3377256 0.3879287 0.4336299 -0.3670615 -0.3862656 0.4336299 0.3072379 0.3879287 0.4336299 0.3072379 -0.3862656 0.4336299 0.3072379 0.4067949 0.4336299 0.3072379 -0.4051318 0.4336299 0.2689815 0.3879287 0.4336299 0.2689815 -0.3862656 0.4336299 -0.3681109 -0.3728318 -0.4087653 -0.3681109 0.367713 -0.4087653 0.3468952 0.367713 -0.4087653 0.3468952 -0.3728318 -0.4087653 -0.3681109 -0.3728318 -0.4316647 -0.3681109 0.367713 -0.4316647 0.3468952 0.367713 -0.4316647 0.3468952 -0.3728318 -0.4316647 0.3370428 -0.3837812 -0.631006 0.3370428 -0.3837812 0.02398967 0.3370428 -0.3395215 -0.631006 0.3370428 -0.3395215 0.02398967 0.3813025 -0.3837812 -0.631006 0.3813025 -0.3837812 0.02398967 0.3813025 -0.3395215 -0.631006 0.3813025 -0.3395215 0.02398967 -0.3107889 -0.3837812 -0.631006 -0.3107889 -0.3837812 0.02398967 -0.3107889 -0.3395215 -0.631006 -0.3107889 -0.3395215 0.02398967 -0.3550487 -0.3837812 -0.631006 -0.3550487 -0.3837812 0.02398967 -0.3550487 -0.3395215 -0.631006 -0.3550487 -0.3395215 0.02398967 0.3370428 0.3854442 -0.631006 0.3370428 0.3854442 0.02398967 0.3370428 0.3411844 -0.631006 0.3370428 0.3411844 0.02398967 0.3813025 0.3854442 -0.631006 0.3813025 0.3854442 0.02398967 0.3813025 0.3411844 -0.631006 0.3813025 0.3411844 0.02398967 -0.3107889 0.3854442 -0.631006 -0.3107889 0.3854442 0.02398967 -0.3107889 0.3411844 -0.631006 -0.3107889 0.3411844 0.02398967 -0.3550487 0.3854442 -0.631006 -0.3550487 0.3854442 0.02398967 -0.3550487 0.3411844 -0.631006 -0.3550487 0.3411844 0.02398967</float_array>
          <technique_common>
            <accessor source="#Grill-mesh-positions-array" count="174" stride="3">
              <param name="X" type="float"/>
              <param name="Y" type="float"/>
              <param name="Z" type="float"/>
            </accessor>
          </technique_common>
        </source>
        <source id="Grill-mesh-normals">
          <float_array id="Grill-mesh-normals-array" count="429">0 0.8660269 -0.4999976 0 0.8660257 -0.4999996 0 0.8660272 -0.499997 0 0 -1 0 -0.8660256 -0.4999997 0 -0.8660269 -0.4999976 0 -0.8660272 -0.499997 0 -0.8660257 0.4999996 0.6780815 -0.556481 -0.48014 0.5127906 -0.3543694 -0.7819643 0.2791755 -0.5897566 -0.7577916 0 0 1 0 0.8660257 0.4999996 0.5127906 0.3543693 -0.7819644 0 -0.3246781 -0.9458246 0.6780827 0.5564806 0.4801389 0.512791 0.3543698 0.7819638 0.2791785 0.5897561 0.7577911 0.6780827 -0.5564807 0.4801387 0.512791 -0.3543698 0.781964 0.8704952 -0.2219246 0.4393038 0.8704949 0.2219243 -0.4393042 0.870495 -0.2219244 -0.4393042 0.8704952 0.2219246 0.4393036 0.6780814 0.5564808 -0.4801403 1 7.60741e-7 0 1 2.07468e-6 0 1 7.60742e-7 0 0 0.3246784 0.9458245 0 -0.6141765 -0.7891688 0.2791752 0.5897566 -0.7577918 0 0.3246777 -0.9458248 0 0.6141771 0.7891683 0.2791787 -0.5897566 0.7577905 0 -0.3246781 0.9458247 0 -0.8660255 -0.4999999 0 -0.8660272 -0.4999971 0 -0.8660276 -0.4999964 0 0.8660256 -0.4999998 0 0.8660253 -0.5000004 0.6780815 0.556481 -0.48014 0.5127906 0.3543693 -0.7819643 0.870495 0.2219244 -0.4393042 0 -0.8660259 0.4999991 0 -0.8660258 0.4999995 0 0.3246781 -0.9458246 0.5127905 -0.354369 -0.7819646 0.512791 -0.3543698 0.7819638 0.512791 0.3543699 0.7819638 0.6780827 0.5564808 0.4801386 0.8704951 0.2219246 0.4393038 0.8704949 -0.2219244 -0.4393044 0.6780815 -0.5564809 -0.4801402 1 -7.60741e-7 0 1 1.52148e-6 0 1 -7.60742e-7 0 0 -0.3246778 0.9458248 0 0.6141765 -0.7891688 0.2791755 0.5897566 -0.7577916 0 -0.3246778 -0.9458248 0.2791756 -0.5897567 -0.7577916 0 -0.6141771 0.7891684 0.2791787 -0.5897568 0.7577905 0 0.3246781 0.9458247 0.2791786 0.5897568 0.7577904 0 1 0 0 1 0 0 1 0 0 -1 0 0 -1 0 0 -1 -4.94033e-7 0 -1 -2.70522e-7 0.9690685 0 -0.2467921 0.9690684 0 -0.2467922 0.9690684 0 -0.2467923 1 0 0 -1 0 0 -0.2039316 0 0.9789851 0.3826834 0 0.9238796 0.3826833 0 0.9238797 0 1 0 0 1 3.85672e-7 0.7071068 0 0.7071068 0.7071068 0 0.7071068 0.8781291 0 0.4784238 0.8781294 0 0.4784234 0.8781291 0 0.4784238 0.2815831 0 0.9595369 0.2815824 0 0.9595371 0.3826837 0 0.9238795 0.707106 0 0.7071076 0.3826839 0 0.9238794 -0.2039321 0 0.9789851 0.9690684 0 -0.2467924 0.9690684 0 -0.2467924 0.9690684 0 -0.2467924 0.9690684 0 -0.2467924 0.5403786 0 0.841422 0.5403773 0 0.8414228 0 -1 0 0 -1 0 0 1 -3.51956e-7 0 1 2.64479e-7 0 1 -6.05013e-7 0 1 0 0 1 5.31394e-7 -0.585492 0 0.8106783 3.12215e-7 0 1 -9.43973e-7 0 1 -1.24087e-6 0 1 -2.49226e-6 0 1 0 1 -2.23278e-7 0 1 3.41079e-7 0 -1 1.97247e-7 0 -1 0 0.8781294 0 0.4784232 0.8781291 0 0.4784239 0.8781295 0 0.4784232 0 -1 0 0 -1 0 0 1 0 0 1 0 0 -1 5.94012e-7 0 -1 0 0 -1 2.38244e-7 0 -1 -3.27701e-7 0 0.8660253 -0.5000001 0 -0.8660254 -0.5000002 1 -7.60742e-7 0 1 -2.07468e-6 0 0 0.6141766 -0.7891687 0 -0.6141771 0.7891683 0 -0.8660252 -0.5000007 0 -0.866026 0.499999 1 4.14937e-6 0 1 1.52148e-6 0 0 -0.6141775 -0.7891679 0 0.6141771 0.7891683 0.9690686 0 -0.2467919 0.8781293 0 0.4784234 -0.5854907 0 0.8106792 6.62014e-7 0 1 0.878129 0 0.478424</float_array>
          <technique_common>
            <accessor source="#Grill-mesh-normals-array" count="143" stride="3">
              <param name="X" type="float"/>
              <param name="Y" type="float"/>
              <param name="Z" type="float"/>
            </accessor>
          </technique_common>
        </source>
        <source id="Grill-mesh-map-0">
          <float_array id="Grill-mesh-map-0-array" count="1800">0.1755117 0.8270417 0.1258795 0.8424172 0.1755117 0.8424172 0.204167 0.8270416 0.1468565 0.8424172 0.204167 0.8424172 0.1258795 0.8424172 0.1755117 0.8270417 0.1755117 0.8424172 0.1755117 0.8270417 0.225144 0.8424172 0.1755117 0.8424172 0.06693142 0.8896654 0.05115211 0.85263 0.06693136 0.872905 0.1468565 0.8270417 0.204167 0.8424172 0.1468565 0.8424172 0.225144 0.8270417 0.1755117 0.8424172 0.225144 0.8424172 0.08720642 0.8284712 0.04665637 0.8016425 0.04665637 0.8284712 0.06693142 0.7750446 0.0827105 0.8120799 0.06693136 0.7918049 0.06693142 0.8896654 0.0827105 0.85263 0.1165636 0.8610102 0.01729917 0.8036998 0.05115211 0.85263 0.01729917 0.8610102 0.1165636 0.8610102 0.0827105 0.8120799 0.1165636 0.8036997 0.06693142 0.7750446 0.05115211 0.8120799 0.01729917 0.8036998 0.0827105 0.85263 0.06693136 0.872905 0.05115211 0.85263 0.04665637 0.8284712 0.08720642 0.8016425 0.08720642 0.8284712 0.04665637 0.8284712 0.02638131 0.8016425 0.02638131 0.8284712 0.1074815 0.8284712 0.08720642 0.8016425 0.08720642 0.8284712 0.08720642 0.8284712 0.1074815 0.8016425 0.1074815 0.8284712 0.02638131 0.8284712 0.04665637 0.8016425 0.04665637 0.8284712 0.1258795 0.8424172 0.1755117 0.8270417 0.1755117 0.8424172 0.1468565 0.8424172 0.204167 0.8270416 0.204167 0.8424172 0.1258795 0.8424172 0.1755117 0.8270417 0.1258795 0.8270416 0.225144 0.8424172 0.1755117 0.8270417 0.1755117 0.8424172 0.06693142 0.8896654 0.05115211 0.85263 0.01729917 0.8610102 0.204167 0.8424172 0.1468565 0.8270417 0.1468565 0.8424172 0.1755117 0.8424172 0.225144 0.8270417 0.225144 0.8424172 0.04665637 0.8016425 0.08720642 0.8284712 0.04665637 0.8284712 0.06693142 0.7750446 0.0827105 0.8120799 0.1165636 0.8036997 0.0827105 0.85263 0.06693142 0.8896654 0.1165636 0.8610102 0.05115211 0.85263 0.01729917 0.8036998 0.01729917 0.8610102 0.0827105 0.8120799 0.1165636 0.8610102 0.1165636 0.8036997 0.05115211 0.8120799 0.06693142 0.7750446 0.01729917 0.8036998 0.0827105 0.85263 0.0827105 0.8120799 0.05115211 0.85263 0.08720642 0.8016425 0.04665637 0.8284712 0.08720642 0.8284712 0.02638131 0.8016425 0.04665637 0.8284712 0.02638131 0.8284712 0.08720642 0.8016425 0.1074815 0.8284712 0.08720642 0.8284712 0.1074815 0.8016425 0.08720642 0.8284712 0.1074815 0.8284712 0.04665637 0.8016425 0.02638131 0.8284712 0.04665637 0.8284712 0.1232964 0.0871855 0.169431 0.5263494 0.169431 0.0871855 0.004380941 0.0871855 0.1156541 0.5263494 0.1232964 0.0871855 0.004380941 0.5410119 0.1156541 0.5263494 0.004380941 0.5263494 0.1156541 0.5410119 0.169431 0.5263494 0.1156541 0.5263494 0.169431 0.01525509 0.1393211 0.009279668 0.1393211 0.04496216 0.1283232 0.09592962 0.172986 0.5210834 0.1209247 0.5210834 0.01320135 0.09592968 0.1209247 0.5210834 0.01320135 0.5210834 0.1209247 0.5210834 0.01320135 0.535278 0.01320135 0.5210834 0.172986 0.5210834 0.1209247 0.535278 0.1209247 0.5210834 0.276012 0.0086537 0.2887173 0.005418062 0.2958998 0.01260054 0.9820505 0.4884978 0.9628148 0.5030744 0.9628148 0.4884978 0.9096084 0.4884979 0.7746682 0.5030743 0.7746682 0.4884979 0.2260511 0.1619423 0.1394818 0.1506019 0.1394818 0.1619423 0.2788006 0.04496222 0.2672128 0.01525515 0.2817893 0.01525515 0.9540528 0.01895749 0.9183703 0.004381 0.9183703 0.01895749 0.6938901 0.3715431 0.6815215 0.3619152 0.6815215 0.3715431 0.169431 0.06368803 0.2584508 0.09346204 0.169431 0.04496216 0.2817893 0.01525515 0.2672128 0.004380941 0.2817893 0.004380941 0.3759304 0.3715431 0.3662458 0.3619152 0.3662458 0.3715431 0.1394818 0.1619423 0.09764397 0.1506019 0.09764397 0.1619423 0.6782648 0.7974722 0.688851 0.7161468 0.688851 0.7974722 0.09764397 0.1506019 0.02838754 0.1619423 0.09764397 0.1619423 0.7543185 0.5263494 0.2788006 0.08474665 0.7543184 0.08474659 0.1394819 0.5385797 0.09764403 0.5272395 0.09764403 0.5385797 0.1394819 0.5272395 0.09764397 0.1619423 0.09764403 0.5272395 0.3759304 0.6913058 0.3662458 0.6816779 0.3662458 0.6913058 0.3759304 0.6816779 0.3662458 0.3715431 0.3662458 0.6816779 0.7659062 0.01525503 0.7513296 0.004380881 0.7659062 0.004380881 0.7513296 0.01525503 0.2817893 0.004380941 0.7513296 0.004380881 0.09764397 0.1619423 0.02838766 0.5272395 0.09764403 0.5272395 0.172986 0.5210834 0.2591659 0.535278 0.172986 0.535278 0.6938901 0.6913058 0.6815215 0.6816779 0.6815215 0.6913058 0.6938901 0.6816779 0.6815215 0.3715431 0.6815215 0.6816779 0.9540528 0.5030744 0.9183703 0.488498 0.9183703 0.5030744 0.9540528 0.488498 0.9183703 0.01895749 0.9183703 0.488498 0.7659062 0.01525503 0.7543184 0.0449621 0.7513296 0.01525503 0.7543184 0.0449621 0.2817893 0.01525515 0.7513296 0.01525503 0.2260511 0.5385797 0.1394819 0.5272395 0.1394819 0.5385797 0.2260511 0.5272395 0.1394818 0.1619423 0.1394819 0.5272395 0.9096084 0.004380881 0.7746682 0.01895737 0.7746682 0.004380881 0.9096084 0.01895737 0.7746682 0.4884979 0.7746682 0.01895737 0.9820505 0.004380881 0.9628148 0.01895737 0.9628148 0.004380881 0.9820505 0.01895737 0.9628148 0.4884978 0.9628148 0.01895737 0.6990786 0.9875312 0.2878669 0.5478765 0.2878669 0.9875312 0.6660013 0.6913058 0.3759304 0.6816779 0.3759304 0.6913058 0.7543184 0.08474659 0.2788006 0.06368809 0.7543184 0.06368798 0.169431 0.5410119 0.2584509 0.5263494 0.169431 0.5263494 0.09764403 0.5272395 0.02838766 0.5385797 0.09764403 0.5385797 0.6660013 0.3715431 0.3759304 0.3619152 0.3759304 0.3715431 0.01320135 0.0731818 0.1283232 0.09592962 0.01320135 0.09592968 0.1286353 0.0731818 0.172986 0.09592962 0.1283232 0.09592962 0.004380941 0.06368803 0.1232964 0.0871855 0.1236189 0.06368803 0.1236189 0.06368803 0.169431 0.0871855 0.169431 0.06368803 0.1393211 0.04496216 0.169431 0.06368803 0.169431 0.04496216 0.004380941 0.04496222 0.1236189 0.06368803 0.1393211 0.04496216 0.1438367 0.05505335 0.172986 0.0731818 0.1286353 0.0731818 0.01320135 0.05505335 0.1286353 0.0731818 0.01320135 0.0731818 0.7746682 0.5301589 0.8762986 0.5629164 0.7887338 0.5118362 0.7875714 0.5516037 0.8757514 0.5816343 0.7746682 0.5301589 0.7543184 0.06368798 0.2788006 0.04496222 0.7543184 0.0449621 0.6815215 0.6816779 0.6660013 0.3715431 0.6660013 0.6816779 0.6815215 0.6913058 0.6660013 0.6816779 0.6660013 0.6913058 0.6815215 0.3715431 0.6660013 0.3619152 0.6660013 0.3715431 0.6860285 0.9574079 0.6754423 0.9708029 0.6754423 0.9574079 0.6860285 0.6005105 0.6754423 0.9574079 0.6754423 0.6005105 0.6858925 0.9574079 0.6753063 0.6005105 0.6858925 0.6005105 0.6858925 0.9708029 0.6753063 0.9574079 0.6858925 0.9574079 0.6902555 0.5472913 0.6768605 0.9789779 0.6768604 0.5445609 0.6858925 0.6005105 0.6753063 0.579044 0.6858925 0.579044 0.6860285 0.579044 0.6754423 0.6005105 0.6754423 0.579044 0.6860285 0.579044 0.6754423 0.5619367 0.6860285 0.5619367 0.6858925 0.579044 0.6753063 0.5619367 0.6858925 0.5619367 0.169431 0.5263494 0.2584508 0.1356854 0.169431 0.0871855 0.169431 0.0871855 0.2584508 0.1121879 0.169431 0.06368803 0.172986 0.0731818 0.2591659 0.102006 0.2591659 0.1201344 0.172986 0.5210834 0.2591659 0.1428823 0.2591659 0.5210834 0.172986 0.09592962 0.2591659 0.1201344 0.2591659 0.1428823 0.05513739 0.5415104 0.06672513 0.4524905 0.06672513 0.5415104 0.8850606 0.993018 0.985457 0.6051217 0.9740423 0.995619 0.8218053 0.07258701 0.8910619 0.4425345 0.8218055 0.4425345 0.7746683 0.993018 0.8750648 0.6051217 0.7875714 0.5516037 0.8979637 0.5516036 0.9861437 0.5816343 0.985457 0.6051217 0.8850604 0.5301589 0.9866908 0.5629164 0.9861437 0.5816343 0.7063768 0.9899616 0.2672128 0.5351116 0.7063766 0.5351114 0.2672128 0.5351116 0.7063768 0.9899616 0.7063766 0.5351114 0.7063768 0.9899616 0.2672128 0.9899616 0.2672128 0.9899616 0.7063766 0.5351114 0.7063768 0.9899616 0.7063768 0.9899616 0.2672128 0.9899616 0.2672128 0.5351116 0.2672128 0.5351116 0.2672128 0.5351116 0.7063766 0.5351114 0.7063766 0.5351114 0.7998856 0.5045988 0.8330954 0.01312994 0.7998856 0.01312994 0.7998856 0.5045988 0.8330954 0.01312994 0.7998856 0.01312994 0.8330954 0.5045988 0.7998856 0.01312994 0.8330954 0.01312994 0.8330954 0.5045988 0.7998856 0.01312994 0.8330954 0.01312994 0.8330954 0.2754693 0.7998856 0.2422595 0.7998856 0.2754693 0.8330954 0.01312994 0.7998856 0.5045988 0.7998856 0.01312994 0.8330954 0.01312994 0.7998856 0.5045988 0.7998856 0.01312994 0.7998856 0.01312994 0.8330954 0.5045988 0.8330954 0.01312994 0.7998856 0.01312994 0.8330954 0.5045988 0.8330954 0.01312994 0.7998856 0.2422595 0.8330954 0.2754693 0.7998856 0.2754693 0.8330954 0.01312994 0.7998856 0.5045988 0.7998856 0.01312994 0.8330954 0.01312994 0.7998856 0.5045988 0.7998856 0.01312994 0.7998856 0.01312994 0.8330954 0.5045988 0.8330954 0.01312994 0.7998856 0.01312994 0.8330954 0.5045988 0.8330954 0.01312994 0.7998856 0.2422595 0.8330954 0.2754693 0.7998856 0.2754693 0.7998856 0.5045988 0.8330954 0.01312994 0.7998856 0.01312994 0.7998856 0.5045988 0.8330954 0.01312994 0.7998856 0.01312994 0.8330954 0.5045988 0.7998856 0.01312994 0.8330954 0.01312994 0.8330954 0.5045988 0.7998856 0.01312994 0.8330954 0.01312994 0.8330954 0.2754693 0.7998856 0.2422595 0.7998856 0.2754693 0.1755117 0.8270417 0.1258795 0.8270416 0.1258795 0.8424172 0.204167 0.8270416 0.1468565 0.8270416 0.1468565 0.8424172 0.1258795 0.8424172 0.1258795 0.8270416 0.1755117 0.8270417 0.1755117 0.8270417 0.225144 0.8270417 0.225144 0.8424172 0.06693142 0.8896654 0.01729917 0.8610102 0.05115211 0.85263 0.1468565 0.8270417 0.204167 0.8270417 0.204167 0.8424172 0.225144 0.8270417 0.1755117 0.8270417 0.1755117 0.8424172 0.08720642 0.8284712 0.08720642 0.8016425 0.04665637 0.8016425 0.06693142 0.7750446 0.1165636 0.8036997 0.0827105 0.8120799 0.06693142 0.8896654 0.06693136 0.872905 0.0827105 0.85263 0.01729917 0.8036998 0.05115211 0.8120799 0.05115211 0.85263 0.1165636 0.8610102 0.0827105 0.85263 0.0827105 0.8120799 0.06693142 0.7750446 0.06693136 0.7918049 0.05115211 0.8120799 0.05115211 0.85263 0.05115211 0.8120799 0.0827105 0.8120799 0.05115211 0.8120799 0.06693136 0.7918049 0.0827105 0.8120799 0.0827105 0.8120799 0.0827105 0.85263 0.05115211 0.85263 0.04665637 0.8284712 0.04665637 0.8016425 0.08720642 0.8016425 0.04665637 0.8284712 0.04665637 0.8016425 0.02638131 0.8016425 0.1074815 0.8284712 0.1074815 0.8016425 0.08720642 0.8016425 0.08720642 0.8284712 0.08720642 0.8016425 0.1074815 0.8016425 0.02638131 0.8284712 0.02638131 0.8016425 0.04665637 0.8016425 0.1258795 0.8424172 0.1258795 0.8270416 0.1755117 0.8270417 0.1468565 0.8424172 0.1468565 0.8270416 0.204167 0.8270416 0.1258795 0.8424172 0.1755117 0.8424172 0.1755117 0.8270417 0.225144 0.8424172 0.225144 0.8270417 0.1755117 0.8270417 0.06693142 0.8896654 0.06693136 0.872905 0.05115211 0.85263 0.204167 0.8424172 0.204167 0.8270417 0.1468565 0.8270417 0.1755117 0.8424172 0.1755117 0.8270417 0.225144 0.8270417 0.04665637 0.8016425 0.08720642 0.8016425 0.08720642 0.8284712 0.06693142 0.7750446 0.06693136 0.7918049 0.0827105 0.8120799 0.0827105 0.85263 0.06693136 0.872905 0.06693142 0.8896654 0.05115211 0.85263 0.05115211 0.8120799 0.01729917 0.8036998 0.0827105 0.8120799 0.0827105 0.85263 0.1165636 0.8610102 0.05115211 0.8120799 0.06693136 0.7918049 0.06693142 0.7750446 0.06693136 0.7918049 0.05115211 0.8120799 0.0827105 0.8120799 0.05115211 0.8120799 0.05115211 0.85263 0.0827105 0.8120799 0.05115211 0.85263 0.06693136 0.872905 0.0827105 0.85263 0.08720642 0.8016425 0.04665637 0.8016425 0.04665637 0.8284712 0.02638131 0.8016425 0.04665637 0.8016425 0.04665637 0.8284712 0.08720642 0.8016425 0.1074815 0.8016425 0.1074815 0.8284712 0.1074815 0.8016425 0.08720642 0.8016425 0.08720642 0.8284712 0.04665637 0.8016425 0.02638131 0.8016425 0.02638131 0.8284712 0.1232964 0.0871855 0.1156541 0.5263494 0.169431 0.5263494 0.004380941 0.0871855 0.004380941 0.5263494 0.1156541 0.5263494 0.004380941 0.5410119 0.1156541 0.5410119 0.1156541 0.5263494 0.1156541 0.5410119 0.169431 0.5410119 0.169431 0.5263494 0.1393211 0.04496216 0.169431 0.04496216 0.169431 0.01525509 0.169431 0.01525509 0.1585568 0.004380941 0.1393211 0.009279668 0.1283232 0.09592962 0.172986 0.09592962 0.172986 0.5210834 0.01320135 0.09592968 0.1283232 0.09592962 0.1209247 0.5210834 0.1209247 0.5210834 0.1209247 0.535278 0.01320135 0.535278 0.172986 0.5210834 0.172986 0.535278 0.1209247 0.535278 0.2958998 0.01260054 0.2958998 0.03222227 0.276012 0.03222227 0.276012 0.03222227 0.276012 0.0086537 0.2958998 0.01260054 0.9820505 0.4884978 0.9820505 0.5030744 0.9628148 0.5030744 0.9096084 0.4884979 0.9096084 0.5030743 0.7746682 0.5030743 0.2260511 0.1619423 0.2260511 0.1506019 0.1394818 0.1506019 0.2788006 0.04496222 0.2672128 0.04496222 0.2672128 0.01525515 0.9540528 0.01895749 0.9540528 0.004381 0.9183703 0.004381 0.6938901 0.3715431 0.6938901 0.3619152 0.6815215 0.3619152 0.169431 0.06368803 0.2584508 0.1121879 0.2584508 0.09346204 0.2817893 0.01525515 0.2672128 0.01525515 0.2672128 0.004380941 0.3759304 0.3715431 0.3759304 0.3619152 0.3662458 0.3619152 0.1394818 0.1619423 0.1394818 0.1506019 0.09764397 0.1506019 0.6782648 0.7974722 0.6782648 0.7161468 0.688851 0.7161468 0.09764397 0.1506019 0.02838754 0.1506019 0.02838754 0.1619423 0.7543185 0.5263494 0.2788006 0.5263495 0.2788006 0.08474665 0.1394819 0.5385797 0.1394819 0.5272395 0.09764403 0.5272395 0.1394819 0.5272395 0.1394818 0.1619423 0.09764397 0.1619423 0.3759304 0.6913058 0.3759304 0.6816779 0.3662458 0.6816779 0.3759304 0.6816779 0.3759304 0.3715431 0.3662458 0.3715431 0.7659062 0.01525503 0.7513296 0.01525503 0.7513296 0.004380881 0.7513296 0.01525503 0.2817893 0.01525515 0.2817893 0.004380941 0.09764397 0.1619423 0.02838754 0.1619423 0.02838766 0.5272395 0.172986 0.5210834 0.2591659 0.5210834 0.2591659 0.535278 0.6938901 0.6913058 0.6938901 0.6816779 0.6815215 0.6816779 0.6938901 0.6816779 0.6938901 0.3715431 0.6815215 0.3715431 0.9540528 0.5030744 0.9540528 0.488498 0.9183703 0.488498 0.9540528 0.488498 0.9540528 0.01895749 0.9183703 0.01895749 0.7659062 0.01525503 0.7659062 0.0449621 0.7543184 0.0449621 0.7543184 0.0449621 0.2788006 0.04496222 0.2817893 0.01525515 0.2260511 0.5385797 0.2260511 0.5272395 0.1394819 0.5272395 0.2260511 0.5272395 0.2260511 0.1619423 0.1394818 0.1619423 0.9096084 0.004380881 0.9096084 0.01895737 0.7746682 0.01895737 0.9096084 0.01895737 0.9096084 0.4884979 0.7746682 0.4884979 0.9820505 0.004380881 0.9820505 0.01895737 0.9628148 0.01895737 0.9820505 0.01895737 0.9820505 0.4884978 0.9628148 0.4884978 0.6990786 0.9875312 0.6990786 0.5478765 0.2878669 0.5478765 0.6660013 0.6913058 0.6660013 0.6816779 0.3759304 0.6816779 0.7543184 0.08474659 0.2788006 0.08474665 0.2788006 0.06368809 0.169431 0.5410119 0.2584509 0.5410119 0.2584509 0.5263494 0.09764403 0.5272395 0.02838766 0.5272395 0.02838766 0.5385797 0.6660013 0.3715431 0.6660013 0.3619152 0.3759304 0.3619152 0.01320135 0.0731818 0.1286353 0.0731818 0.1283232 0.09592962 0.1286353 0.0731818 0.172986 0.0731818 0.172986 0.09592962 0.004380941 0.06368803 0.004380941 0.0871855 0.1232964 0.0871855 0.1236189 0.06368803 0.1232964 0.0871855 0.169431 0.0871855 0.1393211 0.04496216 0.1236189 0.06368803 0.169431 0.06368803 0.004380941 0.04496222 0.004380941 0.06368803 0.1236189 0.06368803 0.1438367 0.05505335 0.172986 0.05505335 0.172986 0.0731818 0.01320135 0.05505335 0.1438367 0.05505335 0.1286353 0.0731818 0.7746682 0.5301589 0.8757514 0.5816343 0.8762986 0.5629164 0.7875714 0.5516037 0.8750648 0.6051217 0.8757514 0.5816343 0.7543184 0.06368798 0.2788006 0.06368809 0.2788006 0.04496222 0.6815215 0.6816779 0.6815215 0.3715431 0.6660013 0.3715431 0.6815215 0.6913058 0.6815215 0.6816779 0.6660013 0.6816779 0.6815215 0.3715431 0.6815215 0.3619152 0.6660013 0.3619152 0.6860285 0.9574079 0.688759 0.9708029 0.6754423 0.9708029 0.6860285 0.6005105 0.6860285 0.9574079 0.6754423 0.9574079 0.6858925 0.9574079 0.6753063 0.9574079 0.6753063 0.6005105 0.6858925 0.9708029 0.6725758 0.9708029 0.6753063 0.9574079 0.6902555 0.5472913 0.6902555 0.9762475 0.6768605 0.9789779 0.6858925 0.6005105 0.6753063 0.6005105 0.6753063 0.579044 0.6860285 0.579044 0.6860285 0.6005105 0.6754423 0.6005105 0.6860285 0.579044 0.6754423 0.579044 0.6754423 0.5619367 0.6858925 0.579044 0.6753063 0.579044 0.6753063 0.5619367 0.169431 0.5263494 0.2584509 0.5263494 0.2584508 0.1356854 0.169431 0.0871855 0.2584508 0.1356854 0.2584508 0.1121879 0.172986 0.0731818 0.172986 0.05505335 0.2591659 0.102006 0.172986 0.5210834 0.172986 0.09592962 0.2591659 0.1428823 0.172986 0.09592962 0.172986 0.0731818 0.2591659 0.1201344 0.05513739 0.5415104 0.05513739 0.4524905 0.06672513 0.4524905 0.8850606 0.993018 0.8979637 0.5516036 0.985457 0.6051217 0.8218053 0.07258701 0.8910618 0.07258701 0.8910619 0.4425345 0.7746683 0.993018 0.8636502 0.995619 0.8750648 0.6051217 0.8979637 0.5516036 0.8850604 0.5301589 0.9861437 0.5816343 0.8850604 0.5301589 0.8991261 0.5118362 0.9866908 0.5629164 0.7063768 0.9899616 0.2672128 0.9899616 0.2672128 0.5351116 0.2672128 0.5351116 0.2672128 0.9899616 0.7063768 0.9899616 0.7063768 0.9899616 0.7063768 0.9899616 0.2672128 0.9899616 0.7063766 0.5351114 0.7063766 0.5351114 0.7063768 0.9899616 0.2672128 0.9899616 0.2672128 0.9899616 0.2672128 0.5351116 0.2672128 0.5351116 0.2672128 0.5351116 0.7063766 0.5351114 0.7998856 0.5045988 0.8330954 0.5045988 0.8330954 0.01312994 0.7998856 0.5045988 0.8330954 0.5045988 0.8330954 0.01312994 0.8330954 0.5045988 0.7998856 0.5045988 0.7998856 0.01312994 0.8330954 0.5045988 0.7998856 0.5045988 0.7998856 0.01312994 0.8330954 0.2754693 0.8330954 0.2422595 0.7998856 0.2422595 0.8330954 0.01312994 0.8330954 0.5045988 0.7998856 0.5045988 0.8330954 0.01312994 0.8330954 0.5045988 0.7998856 0.5045988 0.7998856 0.01312994 0.7998856 0.5045988 0.8330954 0.5045988 0.7998856 0.01312994 0.7998856 0.5045988 0.8330954 0.5045988 0.7998856 0.2422595 0.8330954 0.2422595 0.8330954 0.2754693 0.8330954 0.01312994 0.8330954 0.5045988 0.7998856 0.5045988 0.8330954 0.01312994 0.8330954 0.5045988 0.7998856 0.5045988 0.7998856 0.01312994 0.7998856 0.5045988 0.8330954 0.5045988 0.7998856 0.01312994 0.7998856 0.5045988 0.8330954 0.5045988 0.7998856 0.2422595 0.8330954 0.2422595 0.8330954 0.2754693 0.7998856 0.5045988 0.8330954 0.5045988 0.8330954 0.01312994 0.7998856 0.5045988 0.8330954 0.5045988 0.8330954 0.01312994 0.8330954 0.5045988 0.7998856 0.5045988 0.7998856 0.01312994 0.8330954 0.5045988 0.7998856 0.5045988 0.7998856 0.01312994 0.8330954 0.2754693 0.8330954 0.2422595 0.7998856 0.2422595</float_array>
          <technique_common>
            <accessor source="#Grill-mesh-map-0-array" count="900" stride="2">
              <param name="S" type="float"/>
              <param name="T" type="float"/>
            </accessor>
          </technique_common>
        </source>
        <vertices id="Grill-mesh-vertices">
          <input semantic="POSITION" source="#Grill-mesh-positions"/>
        </vertices>
        <triangles material="Grill-material" count="300">
          <input semantic="VERTEX" source="#Grill-mesh-vertices" offset="0"/>
          <input semantic="NORMAL" source="#Grill-mesh-normals" offset="1"/>
          <input semantic="TEXCOORD" source="#Grill-mesh-map-0" offset="2" set="0"/>
          <p>1 0 0 2 1 1 0 2 2 3 3 3 4 3 4 2 3 5 4 4 6 7 5 7 6 6 8 7 7 9 8 7 10 6 7 11 7 8 12 14 9 13 15 10 14 9 11 15 10 11 16 8 11 17 11 12 18 0 12 19 10 12 20 12 13 21 20 14 22 14 9 23 1 15 24 17 16 25 13 17 26 7 18 27 16 19 28 9 20 29 3 21 30 14 9 31 5 22 32 9 20 33 17 16 34 11 23 35 1 24 36 12 13 37 3 21 38 22 25 39 21 26 40 20 27 41 16 19 42 23 28 43 17 16 44 14 9 45 21 29 46 15 10 47 13 30 48 18 31 49 12 13 50 17 16 51 19 32 52 13 17 53 15 33 54 22 34 55 16 19 56 26 35 57 25 36 58 24 37 59 28 3 60 27 3 61 26 3 62 28 38 63 31 0 64 29 39 65 32 12 66 31 12 67 30 12 68 31 40 69 38 41 70 29 42 71 34 11 72 33 11 73 32 11 74 24 43 75 35 44 76 34 7 77 44 45 78 36 46 79 38 41 80 25 18 81 41 47 82 35 20 83 40 48 84 31 49 85 33 50 86 38 41 87 27 51 88 29 42 89 41 47 90 33 50 91 35 20 92 36 46 93 25 52 94 27 51 95 46 53 96 47 54 97 44 55 98 47 56 99 40 48 100 41 47 101 45 57 102 38 41 103 39 58 104 42 59 105 37 60 106 36 46 107 43 61 108 41 47 109 37 62 110 46 63 111 39 64 112 40 48 113 95 65 114 59 66 115 98 67 116 94 65 117 48 65 118 95 65 119 52 65 120 48 65 121 49 65 122 50 65 123 59 66 124 48 65 125 57 65 126 55 65 127 53 65 128 97 68 129 61 69 130 60 68 131 96 68 132 60 68 133 64 68 134 60 68 135 68 68 136 64 68 137 61 69 138 66 68 139 60 68 140 69 70 141 71 68 142 70 71 143 73 72 144 69 73 145 74 74 146 77 75 147 63 75 148 78 75 149 81 76 150 66 76 151 82 76 152 91 77 153 70 78 154 84 79 155 74 3 156 62 3 157 77 3 158 78 3 159 105 3 160 113 3 161 110 80 162 125 81 163 58 65 164 84 79 165 71 82 166 73 83 167 86 3 168 68 3 169 81 3 170 82 76 171 67 76 172 89 76 173 58 84 174 126 85 175 90 86 176 67 76 177 118 76 178 89 76 179 93 11 180 101 87 181 100 88 182 50 76 183 88 76 184 51 76 185 83 76 186 89 76 187 88 76 188 49 3 189 80 3 190 52 3 191 87 3 192 81 3 193 80 3 194 57 89 195 72 83 196 56 90 197 85 91 198 73 83 199 72 83 200 89 76 201 124 76 202 88 76 203 61 69 204 116 68 205 67 68 206 54 3 207 112 3 208 104 3 209 79 3 210 113 3 211 112 3 212 55 3 213 76 3 214 53 3 215 75 3 216 77 3 217 76 3 218 57 89 219 90 92 220 85 91 221 90 92 222 84 79 223 85 91 224 52 76 225 83 76 226 50 76 227 80 76 228 82 76 229 83 76 230 53 75 231 79 75 232 54 75 233 76 75 234 78 75 235 79 75 236 56 93 237 75 94 238 55 95 239 72 96 240 74 74 241 75 94 242 102 3 243 86 3 244 87 3 245 94 3 246 87 3 247 49 3 248 100 88 249 107 97 250 106 98 251 51 65 252 115 65 253 59 66 254 88 76 255 114 76 256 51 76 257 103 3 258 64 3 259 86 3 260 105 68 261 97 68 262 96 68 263 109 68 264 99 99 265 97 68 266 104 65 267 95 65 268 108 65 269 108 65 270 98 67 271 110 80 272 53 65 273 110 80 274 58 65 275 54 65 276 108 65 277 53 65 278 62 100 279 111 68 280 109 68 281 63 68 282 109 68 283 105 68 284 107 101 285 121 102 286 91 103 287 101 104 288 129 105 289 107 101 290 106 106 291 91 77 292 90 92 293 112 3 294 103 3 295 102 3 296 104 3 297 102 3 298 94 3 299 113 3 300 96 3 301 103 3 302 127 107 303 116 11 304 117 11 305 133 11 306 117 11 307 120 11 308 115 11 309 132 11 310 119 11 311 114 108 312 123 109 313 115 11 314 124 110 315 127 107 316 123 109 317 119 11 318 128 11 319 130 11 320 129 11 321 120 11 322 131 11 323 129 11 324 122 11 325 121 11 326 130 11 327 126 11 328 125 11 329 59 66 330 119 111 331 98 67 332 98 67 333 130 112 334 110 80 335 111 68 336 122 68 337 131 113 338 61 69 339 120 114 340 117 68 341 99 99 342 131 113 343 120 114 344 91 115 345 122 116 346 65 117 347 93 118 348 132 119 349 123 68 350 93 75 351 127 75 352 92 75 353 92 120 354 133 121 355 101 104 356 100 122 357 128 123 358 132 119 359 106 124 360 126 125 361 128 123 362 134 11 363 136 11 364 135 11 365 140 3 366 138 3 367 139 3 368 134 68 369 141 68 370 137 68 371 135 76 372 138 76 373 134 76 374 137 75 375 140 75 376 136 75 377 136 65 378 139 65 379 135 65 380 143 76 381 144 76 382 142 76 383 145 65 384 148 65 385 144 65 386 149 75 387 146 75 388 148 75 389 147 68 390 142 68 391 146 68 392 148 3 393 142 3 394 144 3 395 152 75 396 151 75 397 150 75 398 156 65 399 153 65 400 152 65 401 154 76 402 157 76 403 156 76 404 150 68 405 155 68 406 154 68 407 150 3 408 156 3 409 152 3 410 160 76 411 159 76 412 158 76 413 164 68 414 161 68 415 160 68 416 162 75 417 165 75 418 164 75 419 158 65 420 163 65 421 162 65 422 158 3 423 164 3 424 160 3 425 167 75 426 168 75 427 166 75 428 169 68 429 172 68 430 168 68 431 173 76 432 170 76 433 172 76 434 171 65 435 166 65 436 170 65 437 172 3 438 166 3 439 168 3 440 1 0 441 3 126 442 2 1 443 3 3 444 5 3 445 4 3 446 4 4 447 5 127 448 7 5 449 7 7 450 9 7 451 8 7 452 7 8 453 5 22 454 14 9 455 9 11 456 11 11 457 10 11 458 11 12 459 1 12 460 0 12 461 12 13 462 18 31 463 20 14 464 1 15 465 11 23 466 17 16 467 7 18 468 15 33 469 16 19 470 3 21 471 12 13 472 14 9 473 9 20 474 16 19 475 17 16 476 1 24 477 13 30 478 12 13 479 20 27 480 18 128 481 23 53 482 18 128 483 19 129 484 23 53 485 23 53 486 22 25 487 20 27 488 16 19 489 22 34 490 23 28 491 14 9 492 20 14 493 21 29 494 13 30 495 19 130 496 18 31 497 17 16 498 23 28 499 19 32 500 15 33 501 21 131 502 22 34 503 26 35 504 27 132 505 25 36 506 28 3 507 29 3 508 27 3 509 28 38 510 30 2 511 31 0 512 32 12 513 33 12 514 31 12 515 31 40 516 39 58 517 38 41 518 34 11 519 35 11 520 33 11 521 24 43 522 25 133 523 35 44 524 44 45 525 42 59 526 36 46 527 25 18 528 37 62 529 41 47 530 40 48 531 39 64 532 31 49 533 38 41 534 36 46 535 27 51 536 41 47 537 40 48 538 33 50 539 36 46 540 37 60 541 25 52 542 43 134 543 42 135 544 47 54 545 42 135 546 44 55 547 47 54 548 44 55 549 45 129 550 46 53 551 47 56 552 46 63 553 40 48 554 45 57 555 44 45 556 38 41 557 42 59 558 43 136 559 37 60 560 43 61 561 47 56 562 41 47 563 46 63 564 45 137 565 39 64 566 95 65 567 48 65 568 59 66 569 94 65 570 49 65 571 48 65 572 52 65 573 50 65 574 48 65 575 50 65 576 51 65 577 59 66 578 53 65 579 58 65 580 57 65 581 57 65 582 56 65 583 55 65 584 97 68 585 99 99 586 61 69 587 96 68 588 97 68 589 60 68 590 60 68 591 66 68 592 68 68 593 61 69 594 67 68 595 66 68 596 70 71 597 65 68 598 62 100 599 62 100 600 69 70 601 70 71 602 73 72 603 71 138 604 69 73 605 77 75 606 62 75 607 63 75 608 81 76 609 68 76 610 66 76 611 91 77 612 65 11 613 70 78 614 74 3 615 69 3 616 62 3 617 78 3 618 63 3 619 105 3 620 110 80 621 130 112 622 125 81 623 84 79 624 70 78 625 71 82 626 86 3 627 64 3 628 68 3 629 82 76 630 66 76 631 67 76 632 58 84 633 125 139 634 126 85 635 67 76 636 116 76 637 118 76 638 93 11 639 92 11 640 101 87 641 50 76 642 83 76 643 88 76 644 83 76 645 82 76 646 89 76 647 49 3 648 87 3 649 80 3 650 87 3 651 86 3 652 81 3 653 57 89 654 85 91 655 72 83 656 85 91 657 84 79 658 73 83 659 89 76 660 118 76 661 124 76 662 61 69 663 117 68 664 116 68 665 54 3 666 79 3 667 112 3 668 79 3 669 78 3 670 113 3 671 55 3 672 75 3 673 76 3 674 75 3 675 74 3 676 77 3 677 57 89 678 58 11 679 90 92 680 90 92 681 91 77 682 84 79 683 52 76 684 80 76 685 83 76 686 80 76 687 81 76 688 82 76 689 53 75 690 76 75 691 79 75 692 76 75 693 77 75 694 78 75 695 56 93 696 72 96 697 75 94 698 72 96 699 73 72 700 74 74 701 102 3 702 103 3 703 86 3 704 94 3 705 102 3 706 87 3 707 100 88 708 101 87 709 107 97 710 51 65 711 114 65 712 115 65 713 88 76 714 124 76 715 114 76 716 103 3 717 96 3 718 64 3 719 105 68 720 109 68 721 97 68 722 109 68 723 111 68 724 99 99 725 104 65 726 94 65 727 95 65 728 108 65 729 95 65 730 98 67 731 53 65 732 108 65 733 110 80 734 54 65 735 104 65 736 108 65 737 62 100 738 65 68 739 111 68 740 63 68 741 62 100 742 109 68 743 107 101 744 129 105 745 121 102 746 101 104 747 133 121 748 129 105 749 106 106 750 107 140 751 91 77 752 112 3 753 113 3 754 103 3 755 104 3 756 112 3 757 102 3 758 113 3 759 105 3 760 96 3 761 127 107 762 118 141 763 116 11 764 133 11 765 127 107 766 117 11 767 115 11 768 123 109 769 132 11 770 114 108 771 124 110 772 123 109 773 124 110 774 118 141 775 127 107 776 119 11 777 132 11 778 128 11 779 129 11 780 133 11 781 120 11 782 129 11 783 131 11 784 122 11 785 130 11 786 128 11 787 126 11 788 59 66 789 115 65 790 119 111 791 98 67 792 119 111 793 130 112 794 111 68 795 65 68 796 122 68 797 61 69 798 99 99 799 120 114 800 99 99 801 111 68 802 131 113 803 91 115 804 121 142 805 122 116 806 93 118 807 100 122 808 132 119 809 93 75 810 123 75 811 127 75 812 92 120 813 127 65 814 133 121 815 100 122 816 106 124 817 128 123 818 106 124 819 90 68 820 126 125 821 134 11 822 137 11 823 136 11 824 140 3 825 141 3 826 138 3 827 134 68 828 138 68 829 141 68 830 135 76 831 139 76 832 138 76 833 137 75 834 141 75 835 140 75 836 136 65 837 140 65 838 139 65 839 143 76 840 145 76 841 144 76 842 145 65 843 149 65 844 148 65 845 149 75 846 147 75 847 146 75 848 147 68 849 143 68 850 142 68 851 148 3 852 146 3 853 142 3 854 152 75 855 153 75 856 151 75 857 156 65 858 157 65 859 153 65 860 154 76 861 155 76 862 157 76 863 150 68 864 151 68 865 155 68 866 150 3 867 154 3 868 156 3 869 160 76 870 161 76 871 159 76 872 164 68 873 165 68 874 161 68 875 162 75 876 163 75 877 165 75 878 158 65 879 159 65 880 163 65 881 158 3 882 162 3 883 164 3 884 167 75 885 169 75 886 168 75 887 169 68 888 173 68 889 172 68 890 173 76 891 171 76 892 170 76 893 171 65 894 167 65 895 166 65 896 172 3 897 170 3 898 166 3 899</p>
        </triangles>
      </mesh>
    </geometry>
  </library_geometries>
  <library_visual_scenes>
    <visual_scene id="Scene" name="Scene">
      <node id="Grill" name="Grill" type="NODE">
        <matrix sid="transform">1.3569e-8 1.137875 0 0 -1.137875 1.3569e-8 0 0 0 0 1.137875 0 0 0 0 1</matrix>
        <instance_geometry url="#Grill-mesh" name="Grill">
          <bind_material>
            <technique_common>
              <instance_material symbol="Grill-material" target="#Grill-material">
                <bind_vertex_input semantic="UVMap" input_semantic="TEXCOORD" input_set="0"/>
              </instance_material>
            </technique_common>
          </bind_material>
        </instance_geometry>
      </node>
    </visual_scene>
  </library_visual_scenes>
  <scene>
    <instance_visual_scene url="#Scene"/>
  </scene>
</COLLADA>