<?xml version="1.0" encoding="utf-8"?>
<COLLADA xmlns="http://www.collada.org/2005/11/COLLADASchema" version="1.4.1" xmlns:xsi="http://www.w3.org/2001/XMLSchema-instance">
  <asset>
    <contributor>
      <author>Blender User</author>
      <authoring_tool>Blender 4.0.1 commit date:2023-11-16, commit time:16:40, hash:d0dd92834a08</authoring_tool>
    </contributor>
    <created>2023-11-28T13:18:44</created>
    <modified>2023-11-28T13:18:44</modified>
    <unit name="meter" meter="1"/>
    <up_axis>Z_UP</up_axis>
  </asset>
  <library_effects>
    <effect id="Paper_dispenser-effect">
      <profile_COMMON>
        <newparam sid="Paper_dispenser-surface">
          <surface type="2D">
            <init_from>Paper_dispenser</init_from>
          </surface>
        </newparam>
        <newparam sid="Paper_dispenser-sampler">
          <sampler2D>
            <source>Paper_dispenser-surface</source>
          </sampler2D>
        </newparam>
        <technique sid="common">
          <lambert>
            <emission>
              <color sid="emission">0 0 0 1</color>
            </emission>
            <diffuse>
              <texture texture="Paper_dispenser-sampler" texcoord="UVMap"/>
            </diffuse>
            <index_of_refraction>
              <float sid="ior">1.45</float>
            </index_of_refraction>
          </lambert>
        </technique>
      </profile_COMMON>
    </effect>
  </library_effects>
  <library_images>
    <image id="Paper_dispenser" name="Paper_dispenser">
      <init_from>Paper_dispenser.png</init_from>
    </image>
  </library_images>
  <library_materials>
    <material id="Paper_dispenser-material" name="Paper_dispenser">
      <instance_effect url="#Paper_dispenser-effect"/>
    </material>
  </library_materials>
  <library_geometries>
    <geometry id="Paper_dispenser-mesh" name="Paper_dispenser">
      <mesh>
        <source id="Paper_dispenser-mesh-positions">
          <float_array id="Paper_dispenser-mesh-positions-array" count="144">0 -1.303146 -0.4023615 0 -1.303146 0.6159856 0 -1.641041 -0.4023615 0 -1.641041 0.6159856 0 1.261475 -0.4023615 0 1.524629 -0.387278 0 1.261475 0.6159856 0 1.524629 0.387278 1.015708 0.6833937 -0.4023615 1.210401 0.8357408 -0.387278 1.015708 0.6833937 0.6159856 1.210401 0.8357408 0.387278 1.279195 -0.2519673 -0.4023615 1.524629 -0.2797501 -0.387278 1.279195 -0.2519673 0.6159856 1.524629 -0.2797501 0.387278 0.9529027 -1.167716 -0.387278 0.6634393 -1.208856 -0.4023615 0.6634393 -1.208856 0.6159856 0.9529027 -1.167716 0.387278 -0.6634393 -1.208856 -0.4023615 -0.9529027 -1.167716 -0.387278 -0.9529027 -1.167716 0.387278 -0.6634393 -1.208856 0.6159856 -1.279195 -0.2519673 -0.4023615 -1.524629 -0.2797501 -0.387278 -1.279195 -0.2519673 0.6159856 -1.524629 -0.2797501 0.387278 -1.015708 0.6833937 -0.4023615 -1.210401 0.8357408 -0.387278 -1.015708 0.6833937 0.6159856 -1.210401 0.8357408 0.387278 0.6960875 -1.647792 0.387278 0.4303211 -1.645215 0.6159856 0.430321 -1.645215 -0.4023615 0.6960875 -1.647792 -0.387278 -0.6960875 -1.647792 -0.387278 -0.4303211 -1.645215 -0.4023615 -0.430321 -1.645215 0.6159856 -0.6960875 -1.647792 0.387278 -0.4627848 -2.224106 0.4622582 -0.4627847 -1.60436 0.4622582 -0.4627848 -2.224106 -0.3039752 -0.4627847 -1.60436 -0.3039752 -0.4627848 -2.224106 0.4622582 -0.4627847 -1.60436 0.4622582 -0.4627848 -2.224106 -0.3039752 -0.4627847 -1.60436 -0.3039752</float_array>
          <technique_common>
            <accessor source="#Paper_dispenser-mesh-positions-array" count="48" stride="3">
              <param name="X" type="float"/>
              <param name="Y" type="float"/>
              <param name="Z" type="float"/>
            </accessor>
          </technique_common>
        </source>
        <source id="Paper_dispenser-mesh-normals">
          <float_array id="Paper_dispenser-mesh-normals-array" count="171">-0.7320279 0.5728111 0.3688125 0 1 0 -0.787547 0.6162547 0 0.9205165 -0.1360768 0.3662412 0.8619818 -0.5069392 0 0.9889596 -0.148186 0 0.7933728 -0.4726181 0.3836562 0.5005255 -0.8657218 0 0 0 1 -0.174634 -0.6848962 0.7074038 0 0 1 0.174634 -0.6848963 0.7074038 0.323069 -0.184356 0.9282453 -0.8619818 -0.5069392 0 -0.5460492 -0.7834287 0.2967655 -0.7933727 -0.472618 0.3836561 0.732028 0.5728111 0.3688125 0.787547 0.6162547 0 0 -1 0 0 -1 0 0.3445432 0.2696048 0.8992238 -0.3445432 0.2696048 0.8992237 0 0.928167 0.372164 -0.9889596 -0.148186 0 0 0 -1 -0.01956576 -0.01045274 -0.999754 -0.02756363 -0.01559096 -0.9994985 0.01956576 -0.01045274 -0.999754 0 0 -1 -0.9205166 -0.1360768 0.3662412 0.04796177 0.03753006 -0.9981439 0 0.03803807 -0.9992763 0 0.05722379 -0.9983614 0 0.4422366 0.8968985 0.06036549 -0.008624553 -0.9981391 0.02993083 0.02342087 -0.9992776 0.4382021 -0.06998521 0.8961479 0.05694192 -0.03486233 -0.9977687 0.03822535 -0.006330311 -0.9992491 0.05632841 -0.03010368 -0.9979584 0.02756357 -0.01559096 -0.9994985 -0.05694192 -0.03486233 -0.9977687 -0.03822535 -0.006330311 -0.9992491 -0.4382022 -0.06998521 0.8961479 -0.06036549 -0.008624553 -0.9981391 -0.02993083 0.02342087 -0.9992776 -0.04796177 0.03753006 -0.9981439 -0.05632853 -0.03010368 -0.9979584 -0.323069 -0.184356 0.9282453 0.5460493 -0.7834287 0.2967655 -1 0 0 1 -1.25518e-7 0 -0.5005256 -0.8657218 0 0.009698092 -0.999953 0 -0.009698092 -0.999953 0 -1 1.25518e-7 0 1 0 0</float_array>
          <technique_common>
            <accessor source="#Paper_dispenser-mesh-normals-array" count="57" stride="3">
              <param name="X" type="float"/>
              <param name="Y" type="float"/>
              <param name="Z" type="float"/>
            </accessor>
          </technique_common>
        </source>
        <source id="Paper_dispenser-mesh-map-0">
          <float_array id="Paper_dispenser-mesh-map-0-array" count="480">0.6552544 0.9401171 0.5163694 0.7409574 0.5163694 0.9401171 0.1866047 0.7263547 0.04771983 0.8724611 0.04771983 0.7263548 0.1866048 0.8724611 0.04771983 0.9514528 0.04771989 0.872461 0.8643921 0.1163401 0.8329858 0.0315172 0.8931937 0.06878441 0.8643921 0.1163401 0.9541131 0.1048769 0.9497278 0.1861609 0.2820447 0.872461 0.4209296 0.9514528 0.4209296 0.872461 0.1866047 0.5428116 0.04771983 0.7263547 0.04771983 0.5428116 0.9305883 0.5833823 0.9305884 0.6541874 0.7479895 0.6541875 0.8380144 0.4825041 0.5521114 0.3093497 0.8643921 0.1163401 0.6552544 0.7409574 0.5163694 0.5417976 0.5163694 0.7409574 0.4209296 0.872461 0.2820447 0.7263547 0.2820447 0.872461 0.3643919 0.1163401 0.3329857 0.0315172 0.262982 0.07306009 0.3643919 0.1163401 0.454113 0.1048769 0.3931936 0.06878441 0.4209296 0.7263547 0.2820446 0.5428116 0.2820447 0.7263548 0.3524296 0.520541 0.1453112 0.4948549 0.1233572 0.5143231 0.8524298 0.5205409 0.6457882 0.4772865 0.8380144 0.4825041 0.4917368 0.3903303 0.3500153 0.4953436 0.3524296 0.520541 0.9917369 0.3903303 0.8380144 0.4825041 0.9548261 0.3733199 0.4869604 0.2166243 0.4723904 0.3728394 0.4917368 0.3903303 0.9869604 0.2166242 0.9548261 0.3733199 0.9497278 0.1861609 0.4917368 0.1271676 0.467274 0.1871024 0.4869604 0.2166243 0.2187361 0.05417668 0.08704549 0.1394588 0.2552757 0.05728143 0.7187362 0.05417668 0.5947567 0.1552473 0.5625823 0.1304166 0.06258213 0.1304166 0.03517299 0.3046623 0.07781833 0.1505599 0.5625823 0.1304166 0.5521114 0.3093497 0.5117244 0.3141959 0.01172423 0.3141959 0.1304396 0.4858481 0.03676277 0.3179113 0.5117244 0.3141959 0.6457882 0.4772865 0.6233574 0.5143231 0.2540189 0.0579465 0.2958012 0.008500993 0.2187361 0.05417668 0.7629821 0.07306009 0.7958014 0.008500993 0.8329858 0.0315172 0.991737 0.1271675 0.9497278 0.1861609 0.9541131 0.1048769 0.05211126 0.3093497 0.3380142 0.4825041 0.3643919 0.1163401 0.7099959 0.9850071 0.9595773 0.795283 0.9595773 0.985007 0.7099959 0.9850071 0.9595773 0.795283 0.7099959 0.795283 0.6552544 0.9401171 0.6552543 0.7409574 0.5163694 0.7409574 0.1866047 0.7263547 0.1866047 0.872461 0.04771983 0.8724611 0.1866048 0.8724611 0.1866047 0.9514527 0.04771983 0.9514528 0.8643921 0.1163401 0.7629821 0.07306009 0.8329858 0.0315172 0.8643921 0.1163401 0.8931937 0.06878441 0.9541131 0.1048769 0.2820447 0.872461 0.2820447 0.9514527 0.4209296 0.9514528 0.1866047 0.5428116 0.1866047 0.7263548 0.04771983 0.7263547 0.9305884 0.6541874 0.9305884 0.7249925 0.7479895 0.6541875 0.9305884 0.7249925 0.8895791 0.7687218 0.7479894 0.7249925 0.7479895 0.6541875 0.9305884 0.7249925 0.7479894 0.7249925 0.8895791 0.7687218 0.7506941 0.7687218 0.7479894 0.7249925 0.7479895 0.6541875 0.7479895 0.5833823 0.9305883 0.5833823 0.7479895 0.5833823 0.7506941 0.539653 0.889579 0.539653 0.9305883 0.5833823 0.7479895 0.5833823 0.889579 0.539653 0.9548261 0.3733199 0.8380144 0.4825041 0.8643921 0.1163401 0.8380144 0.4825041 0.6457882 0.4772865 0.5521114 0.3093497 0.5521114 0.3093497 0.5947567 0.1552473 0.8643921 0.1163401 0.5947567 0.1552473 0.7629821 0.07306009 0.8643921 0.1163401 0.8643921 0.1163401 0.9497278 0.1861609 0.9548261 0.3733199 0.6552544 0.7409574 0.6552543 0.5417976 0.5163694 0.5417976 0.4209296 0.872461 0.4209296 0.7263548 0.2820447 0.7263547 0.3643919 0.1163401 0.3931936 0.06878441 0.3329857 0.0315172 0.3643919 0.1163401 0.4497277 0.1861609 0.454113 0.1048769 0.4209296 0.7263547 0.4209296 0.5428116 0.2820446 0.5428116 0.3524296 0.520541 0.3375374 0.5000726 0.1453112 0.4948549 0.8524298 0.5205409 0.6233574 0.5143231 0.6457882 0.4772865 0.4917368 0.3903303 0.4668271 0.3861595 0.3500153 0.4953436 0.9917369 0.3903303 0.8524298 0.5205409 0.8380144 0.4825041 0.4869604 0.2166243 0.4672811 0.1856806 0.4723904 0.3728394 0.9869604 0.2166242 0.9917369 0.3903303 0.9548261 0.3733199 0.4917368 0.1271676 0.4716498 0.1058179 0.467274 0.1871024 0.2187361 0.05417668 0.06258213 0.1304166 0.08704549 0.1394588 0.7187362 0.05417668 0.7629821 0.07306009 0.5947567 0.1552473 0.06258213 0.1304166 0.01172423 0.3141959 0.03517299 0.3046623 0.5625823 0.1304166 0.5947567 0.1552473 0.5521114 0.3093497 0.01172423 0.3141959 0.1233572 0.5143231 0.1304396 0.4858481 0.5117244 0.3141959 0.5521114 0.3093497 0.6457882 0.4772865 0.2540189 0.0579465 0.3240274 0.01641172 0.2958012 0.008500993 0.7629821 0.07306009 0.7187362 0.05417668 0.7958014 0.008500993 0.991737 0.1271675 0.9869604 0.2166242 0.9497278 0.1861609 0.05211126 0.3093497 0.1457881 0.4772865 0.3380142 0.4825041 0.3380142 0.4825041 0.4548261 0.37332 0.3643919 0.1163401 0.4548261 0.37332 0.4497277 0.1861609 0.3643919 0.1163401 0.3643919 0.1163401 0.262982 0.07306009 0.0947566 0.1552473 0.05211126 0.3093497 0.3643919 0.1163401 0.0947566 0.1552473 0.7099959 0.9850071 0.7099959 0.795283 0.9595773 0.795283 0.7099959 0.9850071 0.9595773 0.985007 0.9595773 0.795283</float_array>
          <technique_common>
            <accessor source="#Paper_dispenser-mesh-map-0-array" count="240" stride="2">
              <param name="S" type="float"/>
              <param name="T" type="float"/>
            </accessor>
          </technique_common>
        </source>
        <vertices id="Paper_dispenser-mesh-vertices">
          <input semantic="POSITION" source="#Paper_dispenser-mesh-positions"/>
        </vertices>
        <triangles material="Paper_dispenser-material" count="80">
          <input semantic="VERTEX" source="#Paper_dispenser-mesh-vertices" offset="0"/>
          <input semantic="NORMAL" source="#Paper_dispenser-mesh-normals" offset="1"/>
          <input semantic="TEXCOORD" source="#Paper_dispenser-mesh-map-0" offset="2" set="0"/>
          <p>31 0 0 5 1 1 29 2 2 15 3 3 16 4 4 13 5 5 19 6 6 35 7 7 16 4 8 1 8 9 38 9 10 3 10 11 1 8 12 33 11 13 18 12 14 21 13 15 39 14 16 22 15 17 11 16 18 13 5 19 9 17 20 33 11 21 3 18 22 2 19 23 10 20 24 30 21 25 1 8 26 7 22 27 9 17 28 5 1 29 22 15 30 25 23 31 21 13 32 0 24 33 37 25 34 20 26 35 0 24 36 34 27 37 2 28 38 27 29 39 29 2 40 25 23 41 9 30 42 4 31 43 5 32 44 11 16 45 6 33 46 10 20 47 13 34 48 8 35 49 9 30 50 15 3 51 10 20 52 14 36 53 16 37 54 12 38 55 13 34 56 19 6 57 14 36 58 18 12 59 35 39 60 17 40 61 16 37 62 21 41 63 24 42 64 20 26 65 22 15 66 26 43 67 27 29 68 25 44 69 28 45 70 24 42 71 27 29 72 30 21 73 31 0 74 29 46 75 4 31 76 28 45 77 31 0 78 6 33 79 7 22 80 20 26 81 36 47 82 21 41 83 23 48 84 39 14 85 38 9 86 32 49 87 18 12 88 33 11 89 28 45 90 8 35 91 0 24 92 40 50 93 43 50 94 42 50 95 44 51 96 47 51 97 45 51 98 31 0 99 7 22 100 5 1 101 15 3 102 19 6 103 16 4 104 19 6 105 32 49 106 35 7 107 1 8 108 23 48 109 38 9 110 1 8 111 3 10 112 33 11 113 21 13 114 36 52 115 39 14 116 11 16 117 15 3 118 13 5 119 3 18 120 38 9 121 2 19 122 38 9 123 39 14 124 37 53 125 2 19 126 38 9 127 37 53 128 39 14 129 36 52 130 37 53 131 2 19 132 34 54 133 33 11 134 34 54 135 35 7 136 32 49 137 33 11 138 34 54 139 32 49 140 14 36 141 10 20 142 1 8 143 10 20 144 6 33 145 30 21 146 30 21 147 26 43 148 1 8 149 26 43 150 23 48 151 1 8 152 1 8 153 18 12 154 14 36 155 7 22 156 11 16 157 9 17 158 22 15 159 27 29 160 25 23 161 0 24 162 2 28 163 37 25 164 0 24 165 17 40 166 34 27 167 27 29 168 31 0 169 29 2 170 9 30 171 8 35 172 4 31 173 11 16 174 7 22 175 6 33 176 13 34 177 12 38 178 8 35 179 15 3 180 11 16 181 10 20 182 16 37 183 17 40 184 12 38 185 19 6 186 15 3 187 14 36 188 35 39 189 34 27 190 17 40 191 21 41 192 25 44 193 24 42 194 22 15 195 23 48 196 26 43 197 25 44 198 29 46 199 28 45 200 27 29 201 26 43 202 30 21 203 29 46 204 5 32 205 4 31 206 31 0 207 30 21 208 6 33 209 20 26 210 37 25 211 36 47 212 23 48 213 22 15 214 39 14 215 32 49 216 19 6 217 18 12 218 28 45 219 4 31 220 8 35 221 8 35 222 12 38 223 0 24 224 12 38 225 17 40 226 0 24 227 0 24 228 20 26 229 24 42 230 28 45 231 0 24 232 24 42 233 40 55 234 41 55 235 43 55 236 44 56 237 46 56 238 47 56 239</p>
        </triangles>
      </mesh>
    </geometry>
  </library_geometries>
  <library_visual_scenes>
    <visual_scene id="Scene" name="Scene">
      <node id="Paper_dispenser" name="Paper_dispenser" type="NODE">
        <matrix sid="transform">-0.1642411 -2.33928e-15 5.35165e-8 0 -5.35165e-8 7.17921e-9 -0.1642411 0 0 0.1642411 7.17921e-9 0 0 0 0 1</matrix>
        <instance_geometry url="#Paper_dispenser-mesh" name="Paper_dispenser">
          <bind_material>
            <technique_common>
              <instance_material symbol="Paper_dispenser-material" target="#Paper_dispenser-material">
                <bind_vertex_input semantic="UVMap" input_semantic="TEXCOORD" input_set="0"/>
              </instance_material>
            </technique_common>
          </bind_material>
        </instance_geometry>
      </node>
    </visual_scene>
  </library_visual_scenes>
  <scene>
    <instance_visual_scene url="#Scene"/>
  </scene>
</COLLADA>