<?xml version="1.0" encoding="utf-8"?>
<COLLADA xmlns="http://www.collada.org/2005/11/COLLADASchema" version="1.4.1" xmlns:xsi="http://www.w3.org/2001/XMLSchema-instance">
  <asset>
    <contributor>
      <author>Blender User</author>
      <authoring_tool>Blender 4.0.1 commit date:2023-11-16, commit time:16:40, hash:d0dd92834a08</authoring_tool>
    </contributor>
    <created>2023-11-28T13:06:27</created>
    <modified>2023-11-28T13:06:27</modified>
    <unit name="meter" meter="1"/>
    <up_axis>Z_UP</up_axis>
  </asset>
  <library_effects>
    <effect id="Lamppost-effect">
      <profile_COMMON>
        <newparam sid="Lamppost-surface">
          <surface type="2D">
            <init_from>Lamppost</init_from>
          </surface>
        </newparam>
        <newparam sid="Lamppost-sampler">
          <sampler2D>
            <source>Lamppost-surface</source>
          </sampler2D>
        </newparam>
        <technique sid="common">
          <lambert>
            <emission>
              <color sid="emission">0 0 0 1</color>
            </emission>
            <diffuse>
              <texture texture="Lamppost-sampler" texcoord="UVMap"/>
            </diffuse>
            <index_of_refraction>
              <float sid="ior">1.45</float>
            </index_of_refraction>
          </lambert>
        </technique>
      </profile_COMMON>
    </effect>
  </library_effects>
  <library_images>
    <image id="Lamppost" name="Lamppost">
      <init_from>Lamppost.png</init_from>
    </image>
  </library_images>
  <library_materials>
    <material id="Lamppost-material" name="Lamppost">
      <instance_effect url="#Lamppost-effect"/>
    </material>
  </library_materials>
  <library_geometries>
    <geometry id="Lamppost-mesh" name="Lamppost">
      <mesh>
        <source id="Lamppost-mesh-positions">
          <float_array id="Lamppost-mesh-positions-array" count="411">0 0.7888188 -0.5610176 0 0.5487576 39.18773 0.6831371 0.3944094 -0.5610176 0.475238 0.2743788 39.18773 0.6831371 -0.3944094 -0.5610176 0.475238 -0.2743788 39.18773 0 -0.7888188 -0.5610176 0 -0.5487576 39.18773 -0.6831371 -0.3944094 -0.5610176 -0.475238 -0.2743788 39.18773 -0.6831371 0.3944094 -0.5610176 -0.475238 0.2743788 39.18773 0 0.6687882 19.09387 0.5791875 0.3343941 19.09387 0.5791875 -0.3343941 19.09387 0 -0.6687882 19.09387 -0.5791875 -0.3343941 19.09387 -0.5791875 0.3343941 19.09387 0.6311623 0.3644018 9.046933 0.6311623 -0.3644018 9.046933 0 -0.7288035 9.046933 -0.6311623 -0.3644018 9.046933 -0.6311623 0.3644018 9.046933 0 0.7288035 9.046933 0 0.6087729 29.1408 0.5272127 0.3043864 29.1408 0.5272127 -0.3043864 29.1408 0 -0.6087729 29.1408 -0.5272127 -0.3043864 29.1408 -0.5272127 0.3043864 29.1408 0.4860643 -15.39833 38.0007 -0.4859557 -15.39833 38.0007 1.17357 -14.5671 38.0007 -1.173462 -14.5671 38.0007 -1.258012 -13.48301 38.0007 1.258121 -13.48301 38.0007 -0.8920645 -12.42708 38.0007 0.892173 -12.42708 38.0007 -0.808085 -10.85023 38.0007 0.8081932 -10.85023 38.0007 -0.5642296 -10.30114 38.0007 0.5643377 -10.30114 38.0007 0.3204063 -14.71424 39.01412 0.476251 -15.34663 38.57712 -0.3202977 -14.71424 39.01412 -0.4761424 -15.34663 38.57712 0.5469028 -14.4455 39.01412 1.149928 -14.53226 38.57672 -1.149819 -14.53226 38.57672 -0.5467943 -14.4455 39.01412 -1.232725 -13.47004 38.57632 -0.6290108 -13.43764 39.01412 0.6291193 -13.43764 39.01412 1.232833 -13.47004 38.57632 -0.874151 -12.43533 38.27141 -0.2909757 -12.45596 38.7094 0.2910841 -12.45596 38.7094 0.8742595 -12.43533 38.27141 -0.7918469 -10.89017 38.27153 -0.2116454 -10.77539 38.7094 0.2117537 -10.77539 38.7094 0.7919551 -10.89017 38.27153 -0.5528724 -10.3522 38.27183 0.5529805 -10.3522 38.27183 0 -7.078006 38.5911 0 -11.4071 38.5911 0.2604919 -7.078006 38.42451 0.2604919 -11.4071 38.42451 0.1609928 -7.078006 38.15496 0.1609928 -11.4071 38.15496 -0.1609928 -7.078006 38.15496 -0.1609928 -11.4071 38.15496 -0.2604919 -7.078006 38.42451 -0.2604919 -11.4071 38.42451 -8.35869e-6 -4.417617 38.38623 0.2604836 -4.46437 38.22402 0.1609845 -4.540018 37.96157 -0.1610012 -4.540018 37.96157 -0.2605003 -4.46437 38.22402 -1.67174e-5 -1.884722 37.69447 0.2604753 -1.975769 37.54518 0.1609761 -2.123084 37.30363 -0.1610096 -2.123084 37.30363 -0.2605087 -1.975769 37.54518 -2.50761e-5 0.3873882 36.55221 0.2604669 0.2568388 36.4237 0.1609678 0.04560947 36.21576 -0.161018 0.04560947 36.21576 -0.2605171 0.2568388 36.4237 -1.544533 -1.544536 -0.8394698 -1.544533 -1.544536 -0.5082221 -1.544533 1.544529 -0.8394698 -1.544533 1.544529 -0.5082221 1.544533 -1.544536 -0.8394698 1.544533 -1.544536 -0.5082221 1.544533 1.544529 -0.8394698 1.544533 1.544529 -0.5082221 -1.116737 1.314217 -0.5213415 -1.116737 1.314217 -0.2460734 -0.9177237 1.169625 -0.5213415 -0.9177237 1.169625 -0.2460734 -0.9937402 0.9356703 -0.5213415 -0.9937402 0.9356703 -0.2460734 -1.239735 0.9356703 -0.5213415 -1.239735 0.9356703 -0.2460734 -1.315751 1.169625 -0.5213415 -1.315751 1.169625 -0.2460734 1.116726 1.314217 -0.5213415 1.116726 1.314217 -0.2460734 0.9177125 1.169625 -0.5213415 0.9177125 1.169625 -0.2460734 0.9937291 0.9356703 -0.5213415 0.9937291 0.9356703 -0.2460734 1.239723 0.9356703 -0.5213415 1.239723 0.9356703 -0.2460734 1.31574 1.169625 -0.5213415 1.31574 1.169625 -0.2460734 -1.116737 -1.314225 -0.5213415 -1.116737 -1.314225 -0.2460734 -0.9177237 -1.169633 -0.5213415 -0.9177237 -1.169633 -0.2460734 -0.9937402 -0.9356785 -0.5213415 -0.9937402 -0.9356785 -0.2460734 -1.239735 -0.9356785 -0.5213415 -1.239735 -0.9356785 -0.2460734 -1.315751 -1.169633 -0.5213415 -1.315751 -1.169633 -0.2460734 1.116726 -1.314225 -0.5213415 1.116726 -1.314225 -0.2460734 0.9177122 -1.169633 -0.5213415 0.9177122 -1.169633 -0.2460734 0.9937289 -0.9356785 -0.5213415 0.9937289 -0.9356785 -0.2460734 1.239723 -0.9356785 -0.5213415 1.239723 -0.9356785 -0.2460734 1.31574 -1.169633 -0.5213415 1.31574 -1.169633 -0.2460734</float_array>
          <technique_common>
            <accessor source="#Lamppost-mesh-positions-array" count="137" stride="3">
              <param name="X" type="float"/>
              <param name="Y" type="float"/>
              <param name="Z" type="float"/>
            </accessor>
          </technique_common>
        </source>
        <source id="Lamppost-mesh-normals">
          <float_array id="Lamppost-mesh-normals-array" count="432">1.53063e-7 0.9999822 0.005973339 0.86601 0.4999912 0.005973339 0 0.9999822 0.005973339 0.8660102 0.4999909 0.005973339 0.86601 -0.499991 0.005973339 0.86601 -0.499991 0.005973339 0 -0.9999822 0.005973339 -1.53063e-7 -0.9999822 0.005973339 -0.86601 -0.4999912 0.005973339 -3.65686e-6 0 1 0 0 1 -0.8660102 -0.4999909 0.005973339 -0.86601 0.499991 0.005973339 -0.86601 0.499991 0.005973339 -0.86601 0.4999909 0.005973339 0 0.9999814 0.006110072 -0.8660093 0.4999906 0.006110072 -0.86601 -0.4999911 0.005973339 -0.8660092 -0.4999907 0.006110072 0 -0.9999822 0.005973339 0 -0.9999814 0.006110072 0.86601 -0.4999909 0.005973339 0.8660093 -0.4999906 0.006110072 0.86601 0.4999911 0.005973339 0.8660092 0.4999907 0.006110072 0 0.9999822 0.005973339 0.8660086 0.4999901 0.006246268 2.41465e-7 0.9999805 0.006246268 0.8660085 -0.4999905 0.006246268 -2.41465e-7 -0.9999805 0.006246268 -0.8660086 -0.4999901 0.006246268 -0.8660085 0.4999905 0.006246268 0.3729411 -0.8050907 0.461242 0.9223798 -0.3814457 0.0609492 0.8340961 -0.3226333 0.4474278 0.3303058 0.1757692 0.9273636 -0.335276 -0.157842 0.9288035 0.3352786 -0.1578433 0.9288023 6.79681e-7 0 -1 4.54907e-7 0 -1 0 0 -1 -0.3729411 -0.8050903 0.4612424 -0.92238 -0.3814453 0.06094807 -0.4187997 -0.9037855 0.08819633 0.4187996 -0.9037857 0.08819413 6.07728e-7 0 -1 1.41536e-6 0 -1 -0.8609777 0.2382988 0.4493675 -0.990855 0.1276743 0.04365259 -0.8691293 0.1618206 0.4673635 -0.8340963 -0.3226333 0.4474273 0.9908548 0.1276763 0.04365277 -0.5007839 0.7319518 0.4620197 -0.9645681 0.2464505 0.09418368 -0.870122 0.187618 0.4557272 0.2894724 0.2026059 0.9354981 -0.3303043 0.1757693 0.9273641 -0.979201 0.1902165 0.07059085 0.8609775 0.2382997 0.4493674 0.8691296 0.1618212 0.4673624 0.9792009 0.1902179 0.0705899 0.8701217 0.187618 0.4557279 0.2561745 0.3345446 0.9068928 -0.2894732 0.2026057 0.9354979 0.5007837 0.7319537 0.4620168 -0.5186869 0.835983 0.1791547 0.9645678 0.2464509 0.09418535 0.179413 -0.3250391 0.9285261 -0.1794123 -0.3250389 0.9285262 -0.2561745 0.3345453 0.9068925 -2.02688e-7 0 1 0.5384767 0.03267961 0.8420065 6.27039e-7 0.03778821 0.9992858 0.938124 0 -0.3462999 0.5781927 -0.03120791 -0.8153032 0.9380307 -0.01289051 -0.3463124 0.5717078 0 -0.8204574 -0.5781885 -0.03120982 -0.8153061 -0.5717145 0 -0.8204527 -0.9380279 -0.01289355 -0.3463202 -0.5387716 0 0.842452 -0.5384767 0.03267794 0.8420066 0.5893886 -0.1360155 -0.7963172 0.9389834 -0.06052744 -0.3385952 -0.5893888 -0.1360195 -0.7963163 0.593424 -0.285266 -0.7526429 -0.5414599 0.1404317 0.8289151 0.54146 0.1404348 0.8289144 0 0.1741042 0.9847273 -0.9417809 -0.1233468 -0.3127846 -0.9425465 -0.1499481 -0.2985326 -0.5934243 -0.2852699 -0.7526413 0.5505598 0.293554 0.7814794 3.31037e-7 0.3636034 0.931554 -0.9389836 -0.06053346 -0.3385934 0.9417806 -0.1233412 -0.312788 -0.5505596 0.293551 0.7814807 -6.83232e-6 0.7015326 -0.7126374 0 0.701533 -0.712637 6.83232e-6 0.7015326 -0.7126374 0.9425459 -0.1499433 -0.298537 0.9425134 -0.1499953 -0.2986134 -0.5543874 0.3738005 0.7435913 0 -0.448373 -0.8938466 0.5543879 0.3738036 0.7435893 -1.00844e-6 0.4491626 0.8934502 -1 0 0 0 1 0 1 0 0 0 -1 0 0.5877854 0.8090169 0 0.9510568 -0.3090164 0 -0.9510565 -0.3090172 0 -0.5877854 0.8090169 0 -0.587785 0.8090173 0 -0.9510561 -0.3090183 0 0 0 1 0.9510561 -0.3090183 0 0.5877854 0.809017 0 0.5877851 -0.8090171 0 0.9510567 0.3090165 0 -0.9510567 0.3090165 0 -0.5877851 -0.8090171 0 -0.5877847 -0.8090175 0 -0.9510565 0.3090173 0 0.9510565 0.3090173 0 -1.46274e-5 0 1 0.5186853 0.8359853 0.1791487 0.5387716 0 0.8424519 -0.9381295 0 -0.3462846 -0.9425141 -0.15 -0.2986089 -1.99851e-5 0.7015335 -0.7126365 1.99851e-5 0.7015336 -0.7126364 0 -0.4483729 -0.8938466 0.9510565 -0.3090173 0 -0.9510567 -0.3090165 0 -0.587785 0.8090171 0 -0.9510565 -0.3090174 0 1.29459e-7 0 1 0.9510565 -0.3090174 0 -0.9510562 0.3090181 0 1.29459e-7 0 1 0 0 1 0.9510568 0.3090165 0</float_array>
          <technique_common>
            <accessor source="#Lamppost-mesh-normals-array" count="144" stride="3">
              <param name="X" type="float"/>
              <param name="Y" type="float"/>
              <param name="Z" type="float"/>
            </accessor>
          </technique_common>
        </source>
        <source id="Lamppost-mesh-map-0">
          <float_array id="Lamppost-mesh-map-0-array" count="1338">0.0970785 0.9883409 0.147183 0.03351509 0.0970785 0.03351509 0.1231545 0.9883409 0.06815063 0.03351509 0.1260064 0.03351509 0.1422435 0.9883409 0.0970785 0.03351509 0.147183 0.03351509 0.0970785 0.9883409 0.046974 0.03351509 0.0970785 0.03351509 0.05191349 0.1083904 0.0970785 0.08231419 0.1422435 0.1083904 0.07100254 0.9883409 0.1260064 0.03351509 0.06815063 0.03351509 0.05191349 0.9883409 0.0970785 0.03351509 0.046974 0.03351509 0.0420345 0.9886459 0.0970785 0.03382009 0.03709495 0.03382009 0.06529879 0.9886459 0.1317099 0.03382009 0.06244701 0.03382009 0.0970785 0.9886459 0.03709495 0.03382009 0.0970785 0.03382009 0.1521225 0.9886459 0.0970785 0.03382009 0.157062 0.03382009 0.1288582 0.9886459 0.06244701 0.03382009 0.1317099 0.03382009 0.0970785 0.9886459 0.157062 0.03382009 0.0970785 0.03382009 0.0970785 0.9942556 0.1620015 0.03942984 0.0970785 0.03942984 0.1317099 0.9942556 0.05959516 0.03942984 0.1345619 0.03942984 0.157062 0.9942556 0.0970785 0.03942984 0.1620015 0.03942984 0.0970785 0.9942556 0.03215545 0.03942984 0.0970785 0.03942984 0.06244701 0.9942556 0.1345619 0.03942984 0.05959516 0.03942984 0.03709495 0.9942556 0.0970785 0.03942984 0.03215545 0.03942984 0.046974 0.9721223 0.0970785 0.01729655 0.0420345 0.01729655 0.06815063 0.9721223 0.1288582 0.01729655 0.06529879 0.01729655 0.0970785 0.9721223 0.0420345 0.01729655 0.0970785 0.01729655 0.147183 0.9721223 0.0970785 0.01729655 0.1521225 0.01729655 0.1260064 0.9721223 0.06529879 0.01729655 0.1288582 0.01729655 0.0970785 0.9721223 0.1521225 0.01729655 0.0970785 0.01729655 0.7244383 0.5016247 0.788856 0.4249418 0.7244821 0.4215146 0.7603742 0.8906941 0.8595184 0.7750183 0.8595184 0.8826064 0.444094 0.08706378 0.6832914 0.1937066 0.674974 0.08706372 0.6495835 0.7089153 0.7140011 0.6322324 0.7140011 0.7140011 0.4370089 0.6679365 0.5316622 0.6035187 0.5306968 0.6679365 0.444094 0.08706378 0.6073434 0.005295038 0.5117247 0.005295038 0.4717754 0.2975794 0.6832914 0.1937066 0.4357768 0.1937066 0.6837472 0.4225281 0.7140011 0.5255896 0.6496727 0.5243139 0.6496273 0.6288052 0.7140011 0.5255896 0.7140011 0.6322324 0.788856 0.3182989 0.7244821 0.4215146 0.788856 0.4249418 0.6837016 0.217608 0.7140011 0.2665998 0.6837341 0.2705285 0.6638053 0.8574411 0.7603743 0.7669304 0.7603742 0.8906941 0.6837341 0.2705285 0.7140011 0.4217168 0.6837472 0.4225281 0.788856 0.3182989 0.7586022 0.2152375 0.7245275 0.3170232 0.504025 0.5067105 0.6390315 0.4526964 0.4800366 0.4526964 0.788856 0.2144262 0.7585891 0.06323784 0.7586022 0.2152375 0.4717754 0.2975794 0.6390315 0.4526964 0.6472928 0.2975793 0.4984857 0.8496373 0.6638054 0.8001834 0.6638053 0.8574411 0.469745 0.5647014 0.5796461 0.595001 0.5785289 0.5647014 0.7888561 0.05930918 0.7585566 0.01031744 0.7585891 0.06323784 0.9481628 0.7819684 0.8859537 0.8603256 0.8859537 0.7972989 0.8680527 0.715698 0.8859537 0.7972989 0.8595184 0.7750183 0.8859537 0.8603256 0.8680526 0.9419267 0.8595184 0.8826064 0.7635613 0.7075425 0.8595184 0.7750183 0.7603743 0.7669304 0.8595184 0.8826064 0.7635614 0.9500821 0.7603742 0.8906941 0.6617756 0.7428159 0.7603743 0.7669304 0.6638054 0.8001834 0.7603742 0.8906941 0.6617756 0.9148088 0.6638053 0.8574411 0.6638053 0.8574411 0.5097759 0.9067124 0.4984857 0.8496373 0.6638054 0.8001834 0.5097759 0.7509121 0.6617756 0.7428159 0.469745 0.5647014 0.544962 0.5157997 0.5033118 0.5157997 0.4984858 0.8079872 0.4568555 0.7744203 0.5097759 0.7509121 0.4984857 0.8496373 0.5097759 0.9067124 0.4568555 0.8832042 0.8859537 0.7972989 0.8595184 0.8826064 0.8595184 0.7750183 0.3779709 0.9050644 0.3990875 0.5813335 0.3779709 0.5813335 0.3848322 0.9050644 0.3600082 0.5813335 0.3848322 0.5813335 0.3910217 0.9050644 0.3649203 0.5813335 0.3910217 0.5813335 0.3600082 0.9050644 0.3848322 0.5813335 0.3600082 0.5813335 0.3568545 0.9050644 0.3779709 0.5813335 0.3568545 0.5813335 0.3848322 0.5813335 0.3421978 0.3915417 0.3663685 0.3858847 0.3649196 0.3915417 0.3910204 0.2108024 0.391021 0.3915417 0.3779709 0.5813335 0.3568538 0.3858847 0.3568545 0.5813335 0.3779709 0.5813335 0.3990868 0.3858847 0.3779703 0.3823885 0.3649203 0.5813335 0.391021 0.3915417 0.3910217 0.5813335 0.3848322 0.5813335 0.3421978 0.3915417 0.3600082 0.5813335 0.2765295 0.2196932 0.242792 0.0281198 0.2517327 0.2185356 0.3779703 0.3823885 0.3990861 0.1997862 0.3779696 0.1929777 0.3663685 0.3858847 0.2816055 0.2108024 0.3421978 0.3915417 0.3663685 0.3858847 0.2816055 0.2108024 0.3038511 0.1997862 0.3779703 0.3823885 0.3568531 0.1997862 0.3568538 0.3858847 0.3649182 0.7700285 0.377969 0.8010136 0.3910197 0.7700285 0.2765295 0.2196932 0.242792 0.0281198 0.2672002 0.02359604 0.3779696 0.1929777 0.3568525 0.03283095 0.3568531 0.1997862 0.364919 0.2108024 0.3910197 0.04862678 0.3910204 0.2108024 0.3779696 0.1929777 0.3990854 0.03283095 0.377969 0.02306848 0.0569719 0.6910445 0.3772234 0.6427797 0.0569719 0.6427797 0.0569719 0.6910445 0.3772234 0.6427797 0.0569719 0.6427797 0.3772234 0.6910445 0.0569719 0.6427797 0.3772234 0.6427797 0.3772234 0.6910445 0.0569719 0.6427797 0.3772234 0.6427797 0.3772234 0.9630312 0.0569719 0.6427797 0.0569719 0.9630312 0.0569719 0.9630312 0.3772234 0.6427797 0.3772234 0.9630312 0.2999681 0.6498608 0.2694239 0.6978568 0.2999681 0.6978568 0.2900437 0.6498608 0.3259505 0.6978568 0.2900437 0.6978568 0.2810907 0.6498608 0.3188454 0.6978568 0.2810907 0.6978568 0.2999681 0.6336247 0.3188454 0.6917232 0.2810907 0.6917232 0.3259505 0.6498608 0.2900437 0.6978568 0.3259505 0.6978568 0.3305122 0.6498608 0.2999681 0.6978568 0.3305122 0.6978568 0.2694239 0.6978568 0.2999681 0.6498608 0.2999681 0.6978568 0.3259505 0.6978568 0.2900437 0.6498608 0.2900437 0.6978568 0.3188454 0.6978568 0.2810907 0.6498608 0.2810907 0.6978568 0.2810907 0.6917232 0.3305122 0.6558163 0.2999681 0.6336247 0.2900437 0.6978568 0.3259505 0.6498608 0.3259505 0.6978568 0.2999681 0.6978568 0.3305122 0.6498608 0.3305122 0.6978568 0.2694239 0.6978568 0.2999681 0.6498608 0.2999681 0.6978568 0.3259505 0.6978568 0.2900437 0.6498608 0.2900437 0.6978568 0.3188454 0.6978568 0.2810907 0.6498608 0.2810907 0.6978568 0.3188454 0.6917232 0.3305122 0.6558163 0.2999681 0.6336247 0.2900437 0.6978568 0.3259505 0.6498608 0.3259505 0.6978568 0.2999681 0.6978568 0.3305122 0.6498608 0.3305122 0.6978568 0.2999681 0.6498608 0.2694239 0.6978568 0.2999681 0.6978568 0.2900437 0.6498608 0.3259505 0.6978568 0.2900437 0.6978568 0.2810907 0.6498608 0.3188454 0.6978568 0.2810907 0.6978568 0.3305122 0.6558163 0.3188454 0.6917232 0.2810907 0.6917232 0.3259505 0.6498608 0.2900437 0.6978568 0.3259505 0.6978568 0.3305122 0.6498608 0.2999681 0.6978568 0.3305122 0.6978568 0.0970785 0.9883409 0.1422435 0.9883409 0.147183 0.03351509 0.1231545 0.9883409 0.07100254 0.9883409 0.06815063 0.03351509 0.1422435 0.9883409 0.0970785 0.9883409 0.0970785 0.03351509 0.0970785 0.9883409 0.05191349 0.9883409 0.046974 0.03351509 0.1422435 0.1083904 0.1422435 0.1605423 0.05191349 0.1083904 0.1422435 0.1605423 0.0970785 0.1866185 0.05191349 0.1083904 0.0970785 0.1866185 0.05191349 0.1605423 0.05191349 0.1083904 0.07100254 0.9883409 0.1231545 0.9883409 0.1260064 0.03351509 0.05191349 0.9883409 0.0970785 0.9883409 0.0970785 0.03351509 0.0420345 0.9886459 0.0970785 0.9886459 0.0970785 0.03382009 0.06529879 0.9886459 0.1288582 0.9886459 0.1317099 0.03382009 0.0970785 0.9886459 0.0420345 0.9886459 0.03709495 0.03382009 0.1521225 0.9886459 0.0970785 0.9886459 0.0970785 0.03382009 0.1288582 0.9886459 0.06529879 0.9886459 0.06244701 0.03382009 0.0970785 0.9886459 0.1521225 0.9886459 0.157062 0.03382009 0.0970785 0.9942556 0.157062 0.9942556 0.1620015 0.03942984 0.1317099 0.9942556 0.06244701 0.9942556 0.05959516 0.03942984 0.157062 0.9942556 0.0970785 0.9942556 0.0970785 0.03942984 0.0970785 0.9942556 0.03709495 0.9942556 0.03215545 0.03942984 0.06244701 0.9942556 0.1317099 0.9942556 0.1345619 0.03942984 0.03709495 0.9942556 0.0970785 0.9942556 0.0970785 0.03942984 0.046974 0.9721223 0.0970785 0.9721223 0.0970785 0.01729655 0.06815063 0.9721223 0.1260064 0.9721223 0.1288582 0.01729655 0.0970785 0.9721223 0.046974 0.9721223 0.0420345 0.01729655 0.147183 0.9721223 0.0970785 0.9721223 0.0970785 0.01729655 0.1260064 0.9721223 0.06815063 0.9721223 0.06529879 0.01729655 0.0970785 0.9721223 0.147183 0.9721223 0.1521225 0.01729655 0.7244383 0.5016247 0.788856 0.5067105 0.788856 0.4249418 0.7603742 0.8906941 0.7603743 0.7669304 0.8595184 0.7750183 0.444094 0.08706378 0.4357768 0.1937066 0.6832914 0.1937066 0.6495835 0.7089153 0.6496273 0.6288052 0.7140011 0.6322324 0.4370089 0.6679365 0.4360436 0.6035188 0.5316622 0.6035187 0.444094 0.08706378 0.674974 0.08706372 0.6073434 0.005295038 0.4717754 0.2975794 0.6472928 0.2975793 0.6832914 0.1937066 0.6837472 0.4225281 0.7140011 0.4217168 0.7140011 0.5255896 0.6496273 0.6288052 0.6496727 0.5243139 0.7140011 0.5255896 0.788856 0.3182989 0.7245275 0.3170232 0.7244821 0.4215146 0.6837016 0.217608 0.7140011 0.2125857 0.7140011 0.2665998 0.6638053 0.8574411 0.6638054 0.8001834 0.7603743 0.7669304 0.6837341 0.2705285 0.7140011 0.2665998 0.7140011 0.4217168 0.788856 0.3182989 0.788856 0.2144262 0.7586022 0.2152375 0.504025 0.5067105 0.6150433 0.5067105 0.6390315 0.4526964 0.788856 0.2144262 0.7888561 0.05930918 0.7585891 0.06323784 0.4717754 0.2975794 0.4800366 0.4526964 0.6390315 0.4526964 0.4984857 0.8496373 0.4984858 0.8079872 0.6638054 0.8001834 0.469745 0.5647014 0.4686278 0.595001 0.5796461 0.595001 0.7888561 0.05930918 0.7888561 0.005295097 0.7585566 0.01031744 0.9481628 0.7819684 0.9481627 0.8756563 0.8859537 0.8603256 0.8680527 0.715698 0.9481628 0.7819684 0.8859537 0.7972989 0.8859537 0.8603256 0.9481627 0.8756563 0.8680526 0.9419267 0.7635613 0.7075425 0.8680527 0.715698 0.8595184 0.7750183 0.8595184 0.8826064 0.8680526 0.9419267 0.7635614 0.9500821 0.6617756 0.7428159 0.7635613 0.7075425 0.7603743 0.7669304 0.7603742 0.8906941 0.7635614 0.9500821 0.6617756 0.9148088 0.6638053 0.8574411 0.6617756 0.9148088 0.5097759 0.9067124 0.6638054 0.8001834 0.4984858 0.8079872 0.5097759 0.7509121 0.469745 0.5647014 0.5785289 0.5647014 0.544962 0.5157997 0.8859537 0.7972989 0.8859537 0.8603256 0.8595184 0.8826064 0.3779709 0.9050644 0.3990875 0.9050644 0.3990875 0.5813335 0.3848322 0.9050644 0.3600082 0.9050644 0.3600082 0.5813335 0.3910217 0.9050644 0.3649203 0.9050644 0.3649203 0.5813335 0.3600082 0.9050644 0.3848322 0.9050644 0.3848322 0.5813335 0.3568545 0.9050644 0.3779709 0.9050644 0.3779709 0.5813335 0.3848322 0.5813335 0.3600082 0.5813335 0.3421978 0.3915417 0.3649196 0.3915417 0.364919 0.2108024 0.3910204 0.2108024 0.3779709 0.5813335 0.3779703 0.3823885 0.3568538 0.3858847 0.3779709 0.5813335 0.3990875 0.5813335 0.3990868 0.3858847 0.3649203 0.5813335 0.3649196 0.3915417 0.391021 0.3915417 0.3848322 0.5813335 0.3663685 0.3858847 0.3421978 0.3915417 0.2765295 0.2196932 0.2672002 0.02359604 0.242792 0.0281198 0.3779703 0.3823885 0.3990868 0.3858847 0.3990861 0.1997862 0.3663685 0.3858847 0.3038511 0.1997862 0.2816055 0.2108024 0.3663685 0.3858847 0.3421978 0.3915417 0.2816055 0.2108024 0.3779703 0.3823885 0.3779696 0.1929777 0.3568531 0.1997862 0.3568525 0.7891784 0.377969 0.8010136 0.3649182 0.7700285 0.377969 0.8010136 0.3990854 0.7891784 0.3910197 0.7700285 0.2765295 0.2196932 0.2517327 0.2185356 0.242792 0.0281198 0.3779696 0.1929777 0.377969 0.02306848 0.3568525 0.03283095 0.364919 0.2108024 0.3649182 0.04862678 0.3910197 0.04862678 0.3779696 0.1929777 0.3990861 0.1997862 0.3990854 0.03283095 0.0569719 0.6910445 0.3772234 0.6910445 0.3772234 0.6427797 0.0569719 0.6910445 0.3772234 0.6910445 0.3772234 0.6427797 0.3772234 0.6910445 0.0569719 0.6910445 0.0569719 0.6427797 0.3772234 0.6910445 0.0569719 0.6910445 0.0569719 0.6427797 0.3772234 0.9630312 0.3772234 0.6427797 0.0569719 0.6427797 0.0569719 0.9630312 0.0569719 0.6427797 0.3772234 0.6427797 0.2999681 0.6498608 0.2694239 0.6498608 0.2694239 0.6978568 0.2900437 0.6498608 0.3259505 0.6498608 0.3259505 0.6978568 0.2810907 0.6498608 0.3188454 0.6498608 0.3188454 0.6978568 0.2810907 0.6917232 0.2694239 0.6558163 0.2999681 0.6336247 0.2999681 0.6336247 0.3305122 0.6558163 0.3188454 0.6917232 0.3259505 0.6498608 0.2900437 0.6498608 0.2900437 0.6978568 0.3305122 0.6498608 0.2999681 0.6498608 0.2999681 0.6978568 0.2694239 0.6978568 0.2694239 0.6498608 0.2999681 0.6498608 0.3259505 0.6978568 0.3259505 0.6498608 0.2900437 0.6498608 0.3188454 0.6978568 0.3188454 0.6498608 0.2810907 0.6498608 0.2999681 0.6336247 0.2694239 0.6558163 0.2810907 0.6917232 0.2810907 0.6917232 0.3188454 0.6917232 0.3305122 0.6558163 0.2900437 0.6978568 0.2900437 0.6498608 0.3259505 0.6498608 0.2999681 0.6978568 0.2999681 0.6498608 0.3305122 0.6498608 0.2694239 0.6978568 0.2694239 0.6498608 0.2999681 0.6498608 0.3259505 0.6978568 0.3259505 0.6498608 0.2900437 0.6498608 0.3188454 0.6978568 0.3188454 0.6498608 0.2810907 0.6498608 0.2999681 0.6336247 0.2694239 0.6558163 0.2810907 0.6917232 0.2810907 0.6917232 0.3188454 0.6917232 0.2999681 0.6336247 0.2900437 0.6978568 0.2900437 0.6498608 0.3259505 0.6498608 0.2999681 0.6978568 0.2999681 0.6498608 0.3305122 0.6498608 0.2999681 0.6498608 0.2694239 0.6498608 0.2694239 0.6978568 0.2900437 0.6498608 0.3259505 0.6498608 0.3259505 0.6978568 0.2810907 0.6498608 0.3188454 0.6498608 0.3188454 0.6978568 0.2810907 0.6917232 0.2694239 0.6558163 0.2999681 0.6336247 0.2999681 0.6336247 0.3305122 0.6558163 0.2810907 0.6917232 0.3259505 0.6498608 0.2900437 0.6498608 0.2900437 0.6978568 0.3305122 0.6498608 0.2999681 0.6498608 0.2999681 0.6978568</float_array>
          <technique_common>
            <accessor source="#Lamppost-mesh-map-0-array" count="669" stride="2">
              <param name="S" type="float"/>
              <param name="T" type="float"/>
            </accessor>
          </technique_common>
        </source>
        <vertices id="Lamppost-mesh-vertices">
          <input semantic="POSITION" source="#Lamppost-mesh-positions"/>
        </vertices>
        <triangles material="Lamppost-material" count="223">
          <input semantic="VERTEX" source="#Lamppost-mesh-vertices" offset="0"/>
          <input semantic="NORMAL" source="#Lamppost-mesh-normals" offset="1"/>
          <input semantic="TEXCOORD" source="#Lamppost-mesh-map-0" offset="2" set="0"/>
          <p>1 0 0 25 1 1 24 2 2 3 3 3 26 4 4 25 1 5 5 5 6 27 6 7 26 4 8 7 7 9 28 8 10 27 6 11 9 9 12 7 10 13 5 10 14 9 11 15 29 12 16 28 8 17 11 13 18 24 2 19 29 12 20 17 14 21 23 15 22 22 16 23 16 17 24 22 16 25 21 18 26 15 19 27 21 18 28 20 20 29 14 21 30 20 20 31 19 22 32 13 23 33 19 22 34 18 24 35 12 25 36 18 24 37 23 15 38 23 15 39 2 26 40 0 27 41 18 24 42 4 28 43 2 26 44 19 22 45 6 29 46 4 28 47 20 20 48 8 30 49 6 29 50 21 18 51 10 31 52 8 30 53 22 16 54 0 27 55 10 31 56 29 12 57 12 25 58 17 14 59 28 8 60 17 14 61 16 17 62 27 6 63 16 17 64 15 19 65 26 4 66 15 19 67 14 21 68 25 1 69 14 21 70 13 23 71 24 2 72 13 23 73 12 25 74 43 32 75 32 33 76 47 34 77 52 35 78 49 36 79 46 37 80 33 38 81 35 39 82 32 40 83 45 41 84 33 42 85 31 43 86 45 41 87 30 44 88 43 32 89 33 38 90 30 40 91 31 40 92 36 45 93 35 39 94 34 46 95 54 47 96 34 48 97 50 49 98 48 50 99 34 48 100 33 42 101 35 51 102 47 34 103 32 33 104 62 52 105 38 53 106 58 54 107 56 55 108 51 56 109 52 35 110 58 54 111 36 57 112 54 47 113 35 51 114 57 58 115 53 59 116 40 40 117 39 40 118 38 40 119 37 60 120 61 61 121 57 58 122 36 45 123 39 40 124 37 40 125 60 62 126 55 63 127 56 55 128 63 64 129 40 65 130 62 52 131 39 66 132 63 64 133 61 61 134 45 41 135 42 67 136 44 68 137 48 50 138 44 68 139 49 36 140 42 67 141 47 34 142 46 37 143 50 49 144 49 36 145 51 56 146 46 37 147 53 59 148 52 35 149 54 47 150 51 56 151 55 63 152 52 35 153 57 58 154 56 55 155 56 55 156 61 61 157 60 62 158 55 63 159 58 54 160 54 47 161 63 64 162 59 69 163 60 62 164 59 69 165 62 52 166 58 54 167 60 62 168 61 61 169 63 64 170 44 68 171 46 37 172 49 36 173 65 70 174 66 71 175 64 72 176 67 73 177 68 74 178 66 75 179 69 76 180 70 77 181 68 74 182 71 78 183 72 79 184 70 77 185 73 80 186 64 72 187 72 81 188 66 75 189 76 82 190 75 83 191 77 84 192 81 85 193 76 82 194 64 72 195 78 86 196 72 81 197 64 72 198 75 87 199 74 88 200 70 77 201 76 82 202 68 74 203 72 79 204 77 84 205 70 77 206 83 89 207 87 90 208 82 91 209 74 88 210 80 92 211 79 93 212 78 94 213 82 91 214 77 84 215 75 83 216 81 85 217 80 95 218 74 88 219 83 96 220 78 86 221 87 97 222 84 98 223 86 99 224 80 95 225 86 100 226 85 101 227 79 93 228 88 102 229 83 96 230 82 91 231 86 103 232 81 85 233 79 93 234 85 104 235 84 105 236 90 106 237 91 106 238 89 106 239 92 107 240 95 107 241 91 107 242 96 108 243 93 108 244 95 108 245 94 109 246 89 109 247 93 109 248 95 40 249 89 40 250 91 40 251 92 10 252 94 10 253 96 10 254 98 110 255 99 110 256 97 110 257 100 111 258 101 111 259 99 111 260 102 109 261 103 109 262 101 109 263 98 10 264 104 10 265 102 10 266 104 112 267 105 112 268 103 112 269 106 113 270 97 113 271 105 113 272 109 114 273 108 114 274 107 114 275 111 115 276 110 115 277 109 115 278 113 109 279 112 109 280 111 109 281 112 116 282 116 116 283 108 116 284 115 117 285 114 117 286 113 117 287 107 118 288 116 118 289 115 118 290 119 119 291 118 119 292 117 119 293 121 120 294 120 120 295 119 120 296 123 107 297 122 107 298 121 107 299 124 10 300 126 10 301 118 10 302 125 121 303 124 121 304 123 121 305 117 122 306 126 122 307 125 122 308 128 123 309 129 123 310 127 123 311 130 124 312 131 124 313 129 124 314 132 107 315 133 107 316 131 107 317 136 10 318 134 10 319 132 10 320 134 125 321 135 125 322 133 125 323 136 119 324 127 119 325 135 119 326 1 0 327 3 3 328 25 1 329 3 3 330 5 5 331 26 4 332 5 5 333 7 7 334 27 6 335 7 7 336 9 11 337 28 8 338 5 10 339 3 10 340 9 9 341 3 10 342 1 9 343 9 9 344 1 9 345 11 126 346 9 9 347 9 11 348 11 13 349 29 12 350 11 13 351 1 0 352 24 2 353 17 14 354 12 25 355 23 15 356 16 17 357 17 14 358 22 16 359 15 19 360 16 17 361 21 18 362 14 21 363 15 19 364 20 20 365 13 23 366 14 21 367 19 22 368 12 25 369 13 23 370 18 24 371 23 15 372 18 24 373 2 26 374 18 24 375 19 22 376 4 28 377 19 22 378 20 20 379 6 29 380 20 20 381 21 18 382 8 30 383 21 18 384 22 16 385 10 31 386 22 16 387 23 15 388 0 27 389 29 12 390 24 2 391 12 25 392 28 8 393 29 12 394 17 14 395 27 6 396 28 8 397 16 17 398 26 4 399 27 6 400 15 19 401 25 1 402 26 4 403 14 21 404 24 2 405 25 1 406 13 23 407 43 32 408 30 44 409 32 33 410 52 35 411 51 56 412 49 36 413 33 38 414 34 46 415 35 39 416 45 41 417 48 50 418 33 42 419 45 41 420 31 43 421 30 44 422 33 38 423 32 40 424 30 40 425 36 45 426 37 40 427 35 39 428 54 47 429 36 57 430 34 48 431 48 50 432 50 49 433 34 48 434 35 51 435 53 59 436 47 34 437 62 52 438 40 65 439 38 53 440 56 55 441 55 63 442 51 56 443 58 54 444 38 53 445 36 57 446 35 51 447 37 60 448 57 58 449 40 40 450 41 40 451 39 40 452 37 60 453 39 66 454 61 61 455 36 45 456 38 40 457 39 40 458 60 62 459 59 69 460 55 63 461 63 64 462 41 127 463 40 65 464 39 66 465 41 127 466 63 64 467 45 41 468 43 32 469 42 67 470 48 50 471 45 41 472 44 68 473 42 67 474 43 32 475 47 34 476 50 49 477 48 50 478 49 36 479 46 37 480 47 34 481 53 59 482 54 47 483 50 49 484 51 56 485 52 35 486 53 59 487 57 58 488 56 55 489 57 58 490 61 61 491 55 63 492 59 69 493 58 54 494 63 64 495 62 52 496 59 69 497 44 68 498 42 67 499 46 37 500 65 70 501 67 128 502 66 71 503 67 73 504 69 76 505 68 74 506 69 76 507 71 78 508 70 77 509 71 78 510 73 129 511 72 79 512 73 80 513 65 70 514 64 72 515 66 75 516 68 74 517 76 82 518 77 84 519 82 91 520 81 85 521 64 72 522 74 88 523 78 86 524 64 72 525 66 71 526 75 87 527 70 77 528 77 84 529 76 82 530 72 79 531 78 94 532 77 84 533 83 89 534 88 130 535 87 90 536 74 88 537 75 87 538 80 92 539 78 94 540 83 89 541 82 91 542 75 83 543 76 82 544 81 85 545 74 88 546 79 93 547 83 96 548 88 131 549 84 98 550 87 97 551 84 98 552 85 132 553 86 99 554 80 95 555 81 85 556 86 100 557 79 93 558 84 105 559 88 102 560 82 91 561 87 133 562 86 103 563 79 93 564 80 92 565 85 104 566 90 106 567 92 106 568 91 106 569 92 107 570 96 107 571 95 107 572 96 108 573 94 108 574 93 108 575 94 109 576 90 109 577 89 109 578 95 40 579 93 40 580 89 40 581 92 10 582 90 10 583 94 10 584 98 110 585 100 110 586 99 110 587 100 134 588 102 134 589 101 134 590 102 109 591 104 109 592 103 109 593 102 10 594 100 10 595 98 10 596 98 10 597 106 10 598 104 10 599 104 135 600 106 135 601 105 135 602 106 136 603 98 136 604 97 136 605 109 113 606 110 113 607 108 113 608 111 137 609 112 137 610 110 137 611 113 109 612 114 109 613 112 109 614 108 138 615 110 138 616 112 138 617 112 10 618 114 10 619 116 10 620 115 139 621 116 139 622 114 139 623 107 110 624 108 110 625 116 110 626 119 119 627 120 119 628 118 119 629 121 125 630 122 125 631 120 125 632 123 107 633 124 107 634 122 107 635 118 10 636 120 10 637 122 10 638 122 10 639 124 10 640 118 10 641 125 124 642 126 124 643 124 124 644 117 123 645 118 123 646 126 123 647 128 122 648 130 122 649 129 122 650 130 140 651 132 140 652 131 140 653 132 107 654 134 107 655 133 107 656 132 141 657 130 141 658 128 141 659 128 142 660 136 142 661 132 142 662 134 143 663 136 143 664 135 143 665 136 119 666 128 119 667 127 119 668</p>
        </triangles>
      </mesh>
    </geometry>
  </library_geometries>
  <library_visual_scenes>
    <visual_scene id="Scene" name="Scene">
      <node id="Lamppost" name="Lamppost" type="NODE">
        <matrix sid="transform">-0.2067057 -6.73533e-8 0 0 -6.73533e-8 0.2067057 0 0 0 0 0.2348313 0 0 0 0 1</matrix>
        <instance_geometry url="#Lamppost-mesh" name="Lamppost">
          <bind_material>
            <technique_common>
              <instance_material symbol="Lamppost-material" target="#Lamppost-material">
                <bind_vertex_input semantic="UVMap" input_semantic="TEXCOORD" input_set="0"/>
              </instance_material>
            </technique_common>
          </bind_material>
        </instance_geometry>
      </node>
    </visual_scene>
  </library_visual_scenes>
  <scene>
    <instance_visual_scene url="#Scene"/>
  </scene>
</COLLADA>