<?xml version="1.0" encoding="utf-8"?>
<COLLADA xmlns="http://www.collada.org/2005/11/COLLADASchema" version="1.4.1" xmlns:xsi="http://www.w3.org/2001/XMLSchema-instance">
  <asset>
    <contributor>
      <author>Blender User</author>
      <authoring_tool>Blender 4.0.1 commit date:2023-11-16, commit time:16:40, hash:d0dd92834a08</authoring_tool>
    </contributor>
    <created>2023-11-28T14:05:02</created>
    <modified>2023-11-28T14:05:02</modified>
    <unit name="meter" meter="1"/>
    <up_axis>Z_UP</up_axis>
  </asset>
  <library_effects>
    <effect id="Table-effect">
      <profile_COMMON>
        <newparam sid="Table-surface">
          <surface type="2D">
            <init_from>Table</init_from>
          </surface>
        </newparam>
        <newparam sid="Table-sampler">
          <sampler2D>
            <source>Table-surface</source>
          </sampler2D>
        </newparam>
        <technique sid="common">
          <lambert>
            <emission>
              <color sid="emission">0 0 0 1</color>
            </emission>
            <diffuse>
              <texture texture="Table-sampler" texcoord="UVMap"/>
            </diffuse>
            <index_of_refraction>
              <float sid="ior">1.45</float>
            </index_of_refraction>
          </lambert>
        </technique>
      </profile_COMMON>
    </effect>
  </library_effects>
  <library_images>
    <image id="Table" name="Table">
      <init_from>Table.png</init_from>
    </image>
  </library_images>
  <library_materials>
    <material id="Table-material" name="Table">
      <instance_effect url="#Table-effect"/>
    </material>
  </library_materials>
  <library_geometries>
    <geometry id="Table-mesh" name="Table">
      <mesh>
        <source id="Table-mesh-positions">
          <float_array id="Table-mesh-positions-array" count="150">-0.4645434 -0.02538245 -0.02538245 -0.4422387 -0.02538245 -0.006260693 -0.4645434 0.02538245 -0.02538245 -0.4422387 0.02538245 -0.006260693 0.4645434 -0.02538245 -0.02538245 0.4422387 -0.02538245 -0.006260693 0.4645434 0.02538245 -0.02538245 0.4422387 0.02538245 -0.006260693 0 0.02538245 -0.02538245 0 0.02538245 0.03746736 0 -0.02538245 -0.02538245 0 -0.02538245 0.03746736 0.02888661 0.02888661 -0.02633649 0.02888661 0.02888661 0.7838401 0.0363993 -0.01854634 -0.02633649 0.0363993 -0.01854634 0.7838401 -0.006390631 -0.04034894 -0.02633649 -0.006390631 -0.04034894 0.7838401 -0.04034894 -0.006390631 -0.02633649 -0.04034894 -0.006390631 0.7838401 -0.01854634 0.0363993 -0.02633649 -0.01854634 0.0363993 0.7838401 0.02538245 -0.4645433 -0.02538245 0.02538245 -0.4422387 -0.006260693 -0.02538245 -0.4645433 -0.02538245 -0.02538245 -0.4422387 -0.006260693 0.02538245 0.4645433 -0.02538245 0.02538245 0.4422386 -0.006260693 -0.02538245 0.4645433 -0.02538245 -0.02538245 0.4422386 -0.006260693 -0.02538245 0 -0.02538245 -0.02538245 0 0.03746736 0.02538245 0 -0.02538245 0.02538245 0 0.03746736 -0.7171976 0.0108751 0.7767598 -0.7171976 0.09067714 0.7767598 -0.7171976 0.09067714 0.8270104 -0.7171976 0.0108751 0.8270104 -0.09067714 0.7171975 0.7767598 -0.0108751 0.7171975 0.7767598 -0.0108751 0.7171975 0.8270104 -0.09067714 0.7171975 0.8270104 0.09067714 -0.7171975 0.7767598 0.0108751 -0.7171975 0.7767598 0.0108751 -0.7171975 0.8270104 0.09067714 -0.7171975 0.8270104 0.7171976 -0.0108751 0.7767598 0.7171976 -0.09067714 0.7767598 0.7171976 -0.09067714 0.8270104 0.7171976 -0.0108751 0.8270104</float_array>
          <technique_common>
            <accessor source="#Table-mesh-positions-array" count="50" stride="3">
              <param name="X" type="float"/>
              <param name="Y" type="float"/>
              <param name="Z" type="float"/>
            </accessor>
          </technique_common>
        </source>
        <source id="Table-mesh-normals">
          <float_array id="Table-mesh-normals-array" count="273">-0.3927662 0 0.9196383 -0.6508601 0 0.7591977 -0.65086 0 0.7591978 0 1 0 0 1 0 0 1 0 0.3927659 0 0.9196386 0.6508597 0 0.7591982 0.6508595 0 0.7591983 0 -1 0 0 -1 0 0 -1 0 0 0 -1 -0.3927663 0 0.9196383 0 0 1 0 0 1 0.3927661 0 0.9196384 0 -1 0 0 -1 0 0 1 0 0 1 0 -0.3826833 -0.9238796 1.00552e-6 -0.9238794 -0.3826838 0 -0.3826832 -0.9238798 6.45785e-7 0.9238794 -0.3826838 0 0.3826838 -0.9238794 0 0.9238795 -0.3826836 0 0 0 1 0 0 1 -4.58907e-7 0 1 -0.9238794 0.3826838 0 -0.3826838 0.9238794 0 -0.9238795 0.3826836 0 0.3826833 0.9238796 1.00552e-6 0.9238794 0.3826838 0 0.3826832 0.9238798 6.45785e-7 0.9876884 0.1564345 0 0.9876884 0.1564344 0 0.9876884 0.1564344 0 0.4539904 -0.8910067 0 0.4539904 -0.8910067 0 0.4539904 -0.8910066 0 -0.7071067 -0.7071069 0 -0.7071067 -0.7071068 0 -0.8910067 0.4539904 0 -0.8910067 0.4539905 0 -0.8910065 0.4539905 0 0.1564345 0.9876884 0 0.1564345 0.9876884 0 0 0 -1 0 0 -1 0 0 -1 0 -0.392766 0.9196385 0 -0.6508598 0.7591979 0 -0.6508595 0.7591983 -1 0 0 -1 0 0 -1 0 0 0 0.3927655 0.9196388 0 0.6508594 0.7591983 0 0.6508583 0.7591993 1 0 0 1 0 0 1 0 0 0 -0.3927662 0.9196383 0 0 1 0 0 1 0 0.3927662 0.9196383 1 0 0 1 0 0 -1 0 0 -1 0 0 -0.9238795 -0.3826836 0 -0.3826836 0.9238795 3.59732e-7 0.9238795 0.3826836 0 0.3826836 -0.9238795 3.59732e-7 -7.04973e-7 0 -1 -2.06124e-6 0 -1 0 0 -1 -1.49019e-6 0 1 4.58907e-7 0 1 0 0 1 1.49019e-6 0 1 0.9876884 0.1564345 0 -0.8910066 0.4539904 0 0 0 -1 -1 0 0 1 0 0 7.04973e-7 0 -1 0 0 -1 2.06124e-6 0 -1</float_array>
          <technique_common>
            <accessor source="#Table-mesh-normals-array" count="91" stride="3">
              <param name="X" type="float"/>
              <param name="Y" type="float"/>
              <param name="Z" type="float"/>
            </accessor>
          </technique_common>
        </source>
        <source id="Table-mesh-map-0">
          <float_array id="Table-mesh-map-0-array" count="486">0.9271103 0.7870348 0.9660184 0.80413 0.9271103 0.80413 0.8762333 0.4480858 0.8908889 0.1091368 0.8762333 0.09204167 0.9660184 0.1091368 0.9271102 0.09204167 0.9660184 0.09204167 0.8762333 0.4480858 0.890889 0.7870348 0.8762333 0.80413 0.9660184 0.09204167 0.9271103 0.4480858 0.9660184 0.4480858 0.9660184 0.7870348 0.9271103 0.4480858 0.9660184 0.4480858 0.9660184 0.4480858 0.9271102 0.1091368 0.9660184 0.1091368 0.9660184 0.4480858 0.9271103 0.80413 0.9660184 0.80413 0.8908889 0.1091368 0.8762333 0.4480858 0.8762333 0.09204167 0.890889 0.7870348 0.8762333 0.4480858 0.8762333 0.80413 0.5355612 0.9599009 0.02759301 0.9949602 0.5355612 0.9949602 0.5037233 0.9590906 0.04639923 0.9957705 0.5037233 0.9957705 0.004117548 0.04962062 0.05091571 0.002822399 0.8325324 0.0496205 0.0419566 0.9590906 0.4992805 0.9957705 0.0419566 0.9957705 0.6443231 0.9557937 0.04050707 0.9974682 0.6443231 0.9974681 0.9494717 0.8180761 0.9031763 0.02732896 0.9494717 0.02732896 0.9568042 0.8180761 0.9150404 0.02732896 0.9568042 0.02732896 0.9150404 0.8180761 0.8818966 0.02732896 0.9150404 0.02732896 0.9150404 0.8180761 0.9568042 0.02732896 0.9150404 0.02732896 0.9031763 0.8180761 0.9494717 0.02732896 0.9031763 0.02732896 0.9323496 0.420188 0.9156394 0.4529839 0.9416663 0.4790108 0.9271102 0.7870348 0.9660184 0.8041298 0.9271102 0.8041298 0.8762333 0.4480858 0.8908889 0.1091368 0.8762333 0.09204167 0.9660184 0.1091367 0.9271102 0.09204155 0.9660184 0.09204155 0.8762333 0.4480858 0.890889 0.7870348 0.8762333 0.8041299 0.9660184 0.09204155 0.9271102 0.4480858 0.9660184 0.4480857 0.9660184 0.7870348 0.9271102 0.4480858 0.9660184 0.4480857 0.9660184 0.4480857 0.9271102 0.1091367 0.9660184 0.1091367 0.9660184 0.4480857 0.9271102 0.8041298 0.9660184 0.8041298 0.8908889 0.1091368 0.8762333 0.4480858 0.8762333 0.09204167 0.890889 0.7870348 0.8762333 0.4480858 0.8762333 0.8041299 0.01283115 0.9590905 0.0419566 0.9957705 0.01283115 0.9957705 0.528406 0.9957705 0.4992805 0.9590905 0.528406 0.9590905 0.007415771 0.9974682 0.04050701 0.9557937 0.007415771 0.9557937 0.01727378 0.9957705 0.04639923 0.9590905 0.01727378 0.9590905 0.1373475 0.75 0.125 0.7358772 0.1373475 0.5 0.9271103 0.7870348 0.9660184 0.7870348 0.9660184 0.80413 0.8762333 0.4480858 0.924404 0.4480858 0.8908889 0.1091368 0.9660184 0.1091368 0.9271102 0.1091368 0.9271102 0.09204167 0.8762333 0.4480858 0.924404 0.4480858 0.890889 0.7870348 0.9660184 0.09204167 0.9271102 0.09204167 0.9271103 0.4480858 0.9660184 0.7870348 0.9271103 0.7870348 0.9271103 0.4480858 0.9660184 0.4480858 0.9271103 0.4480858 0.9271102 0.1091368 0.9660184 0.4480858 0.9271103 0.4480858 0.9271103 0.80413 0.8908889 0.1091368 0.924404 0.4480858 0.8762333 0.4480858 0.890889 0.7870348 0.924404 0.4480858 0.8762333 0.4480858 0.5355612 0.9599009 0.02759301 0.9599009 0.02759301 0.9949602 0.5037233 0.9590906 0.04639923 0.9590905 0.04639923 0.9957705 0.05091571 0.002822399 0.7857342 0.002822339 0.8325324 0.0496205 0.8325324 0.0496205 0.8325325 0.9035454 0.004117548 0.9035456 0.8325325 0.9035454 0.7857344 0.9503436 0.004117548 0.9035456 0.7857344 0.9503436 0.05091571 0.9503437 0.004117548 0.9035456 0.004117548 0.9035456 0.004117548 0.04962062 0.8325324 0.0496205 0.0419566 0.9590906 0.4992805 0.9590905 0.4992805 0.9957705 0.6443231 0.9557937 0.04050701 0.9557937 0.04050707 0.9974682 0.9494717 0.8180761 0.9031763 0.8180761 0.9031763 0.02732896 0.9568042 0.8180761 0.9150404 0.8180761 0.9150404 0.02732896 0.9150404 0.8180761 0.8818966 0.8180761 0.8818966 0.02732896 0.9150404 0.8180761 0.9568042 0.8180761 0.9568042 0.02732896 0.9031763 0.8180761 0.9494717 0.8180761 0.9494717 0.02732896 0.9744622 0.4623005 0.9687042 0.425946 0.9416663 0.4790108 0.9687042 0.425946 0.9323496 0.420188 0.9416663 0.4790108 0.9271102 0.7870348 0.9660184 0.7870348 0.9660184 0.8041298 0.8762333 0.4480858 0.924404 0.4480858 0.8908889 0.1091368 0.9660184 0.1091367 0.9271102 0.1091367 0.9271102 0.09204155 0.8762333 0.4480858 0.924404 0.4480858 0.890889 0.7870348 0.9660184 0.09204155 0.9271102 0.09204155 0.9271102 0.4480858 0.9660184 0.7870348 0.9271102 0.7870348 0.9271102 0.4480858 0.9660184 0.4480857 0.9271102 0.4480858 0.9271102 0.1091367 0.9660184 0.4480857 0.9271102 0.4480858 0.9271102 0.8041298 0.8908889 0.1091368 0.924404 0.4480858 0.8762333 0.4480858 0.890889 0.7870348 0.924404 0.4480858 0.8762333 0.4480858 0.01283115 0.9590905 0.0419566 0.9590906 0.0419566 0.9957705 0.528406 0.9957705 0.4992805 0.9957705 0.4992805 0.9590905 0.007415771 0.9974682 0.04050707 0.9974682 0.04050701 0.9557937 0.01727378 0.9957705 0.04639923 0.9957705 0.04639923 0.9590905 0.125 0.7358772 0.125 0.5141228 0.1373475 0.5 0.1373475 0.5 0.3626524 0.5 0.3626525 0.75 0.3626524 0.5 0.375 0.5141229 0.3626525 0.75 0.375 0.5141229 0.375 0.7358772 0.3626525 0.75 0.3626525 0.75 0.1373475 0.75 0.1373475 0.5</float_array>
          <technique_common>
            <accessor source="#Table-mesh-map-0-array" count="243" stride="2">
              <param name="S" type="float"/>
              <param name="T" type="float"/>
            </accessor>
          </technique_common>
        </source>
        <vertices id="Table-mesh-vertices">
          <input semantic="POSITION" source="#Table-mesh-positions"/>
        </vertices>
        <triangles material="Table-material" count="81">
          <input semantic="VERTEX" source="#Table-mesh-vertices" offset="0"/>
          <input semantic="NORMAL" source="#Table-mesh-normals" offset="1"/>
          <input semantic="TEXCOORD" source="#Table-mesh-map-0" offset="2" set="0"/>
          <p>1 0 0 2 1 1 0 2 2 8 3 3 7 4 4 6 5 5 7 6 6 4 7 7 6 8 8 10 9 9 1 10 10 0 11 11 6 12 12 10 12 13 8 12 14 3 13 15 11 14 16 9 15 17 9 15 18 5 16 19 7 6 20 8 12 21 0 12 22 2 12 23 5 17 24 10 9 25 4 18 26 3 19 27 8 3 28 2 20 29 44 21 30 34 22 31 43 23 32 48 24 33 42 25 34 47 26 35 44 27 36 45 28 37 49 29 38 36 30 39 38 31 40 35 32 41 40 33 42 46 34 43 39 35 44 13 36 45 14 37 46 12 38 47 15 39 48 16 40 49 14 41 50 17 42 51 18 42 52 16 43 53 19 44 54 20 45 55 18 46 56 21 47 57 12 47 58 20 48 59 14 49 60 16 50 61 18 51 62 23 52 63 24 53 64 22 54 65 30 55 66 29 56 67 28 57 68 29 58 69 26 59 70 28 60 71 32 61 72 23 62 73 22 63 74 28 12 75 32 12 76 30 12 77 25 64 78 33 65 79 31 66 80 31 66 81 27 67 82 29 58 83 30 12 84 22 12 85 24 12 86 27 68 87 32 61 88 26 69 89 25 70 90 30 55 91 24 71 92 37 72 93 35 32 94 34 22 95 39 35 96 41 73 97 40 33 98 47 26 99 49 74 100 48 24 101 43 23 102 45 75 103 44 21 104 34 76 105 35 77 106 39 78 107 1 0 108 3 13 109 2 1 110 8 3 111 9 20 112 7 4 113 7 6 114 5 16 115 4 7 116 10 9 117 11 18 118 1 10 119 6 12 120 4 12 121 10 12 122 3 13 123 1 0 124 11 14 125 9 15 126 11 14 127 5 16 128 8 12 129 10 12 130 0 12 131 5 17 132 11 18 133 10 9 134 3 19 135 9 20 136 8 3 137 44 21 138 37 72 139 34 22 140 48 24 141 45 75 142 42 25 143 45 28 144 48 79 145 49 29 146 49 29 147 40 27 148 37 80 149 40 27 150 41 81 151 37 80 152 41 81 153 36 82 154 37 80 155 37 80 156 44 27 157 49 29 158 36 30 159 41 73 160 38 31 161 40 33 162 49 74 163 46 34 164 13 36 165 15 83 166 14 37 167 15 39 168 17 40 169 16 40 170 17 42 171 19 42 172 18 42 173 19 44 174 21 84 175 20 45 176 21 47 177 13 48 178 12 47 179 20 12 180 12 85 181 18 51 182 12 85 183 14 49 184 18 51 185 23 52 186 25 64 187 24 53 188 30 55 189 31 86 190 29 56 191 29 58 192 27 67 193 26 59 194 32 61 195 33 87 196 23 62 197 28 12 198 26 12 199 32 12 200 25 64 201 23 52 202 33 65 203 31 66 204 33 65 205 27 67 206 30 12 207 32 12 208 22 12 209 27 68 210 33 87 211 32 61 212 25 70 213 31 86 214 30 55 215 37 72 216 36 30 217 35 32 218 39 35 219 38 31 220 41 73 221 47 26 222 46 34 223 49 74 224 43 23 225 42 25 226 45 75 227 35 77 228 38 12 229 39 78 230 39 78 231 46 88 232 43 89 233 46 88 234 47 90 235 43 89 236 47 90 237 42 12 238 43 89 239 43 89 240 34 76 241 39 78 242</p>
        </triangles>
      </mesh>
    </geometry>
  </library_geometries>
  <library_visual_scenes>
    <visual_scene id="Scene" name="Scene">
      <node id="Table" name="Table" type="NODE">
        <matrix sid="transform">-0.7071066 0.7071069 0 0 -0.7071069 -0.7071066 0 0 0 0 1 0 0 0 0 1</matrix>
        <instance_geometry url="#Table-mesh" name="Table">
          <bind_material>
            <technique_common>
              <instance_material symbol="Table-material" target="#Table-material">
                <bind_vertex_input semantic="UVMap" input_semantic="TEXCOORD" input_set="0"/>
              </instance_material>
            </technique_common>
          </bind_material>
        </instance_geometry>
      </node>
    </visual_scene>
  </library_visual_scenes>
  <scene>
    <instance_visual_scene url="#Scene"/>
  </scene>
</COLLADA>