<?xml version="1.0" encoding="utf-8"?>
<COLLADA xmlns="http://www.collada.org/2005/11/COLLADASchema" version="1.4.1" xmlns:xsi="http://www.w3.org/2001/XMLSchema-instance">
  <asset>
    <contributor>
      <author>Blender User</author>
      <authoring_tool>Blender 4.0.1 commit date:2023-11-16, commit time:16:40, hash:d0dd92834a08</authoring_tool>
    </contributor>
    <created>2023-11-28T13:26:37</created>
    <modified>2023-11-28T13:26:37</modified>
    <unit name="meter" meter="1"/>
    <up_axis>Z_UP</up_axis>
  </asset>
  <library_effects>
    <effect id="Icecream_Machine-effect">
      <profile_COMMON>
        <newparam sid="Icecream_Machine-surface">
          <surface type="2D">
            <init_from>Icecream_Machine</init_from>
          </surface>
        </newparam>
        <newparam sid="Icecream_Machine-sampler">
          <sampler2D>
            <source>Icecream_Machine-surface</source>
          </sampler2D>
        </newparam>
        <technique sid="common">
          <lambert>
            <emission>
              <color sid="emission">0 0 0 1</color>
            </emission>
            <diffuse>
              <texture texture="Icecream_Machine-sampler" texcoord="UVMap"/>
            </diffuse>
            <index_of_refraction>
              <float sid="ior">1.45</float>
            </index_of_refraction>
          </lambert>
        </technique>
      </profile_COMMON>
    </effect>
  </library_effects>
  <library_images>
    <image id="Icecream_Machine" name="Icecream_Machine">
      <init_from>Icecream_Machine.png</init_from>
    </image>
  </library_images>
  <library_materials>
    <material id="Icecream_Machine-material" name="Icecream_Machine">
      <instance_effect url="#Icecream_Machine-effect"/>
    </material>
  </library_materials>
  <library_geometries>
    <geometry id="Icecream_Machine-mesh" name="Icecream_Machine">
      <mesh>
        <source id="Icecream_Machine-mesh-positions">
          <float_array id="Icecream_Machine-mesh-positions-array" count="894">-0.4781718 -0.3935705 -0.5751683 -0.4781718 -0.3935705 0.5202684 -0.4781718 0.3928272 -0.5751683 -0.4781718 0.3928272 0.5202684 0.315209 -0.3935705 -0.5751683 0.315209 -0.3935705 0.5202684 0.315209 0.3928272 -0.5751683 0.315209 0.3928272 0.5202684 -0.4781718 -0.3935705 0.3166295 -0.4781718 0.3928272 0.3166295 0.315209 0.3928272 0.3166295 0.315209 -0.3935705 0.3166295 0.4376398 0.3928272 0.5202684 0.4376398 -0.3935705 0.5202684 0.4376398 0.3928272 0.3166295 0.4376398 -0.3935705 0.3166295 -0.4781717 0.3322152 -0.5751681 -0.4781717 -0.3329608 -0.5751681 -0.4781717 -0.3329608 0.5202683 -0.4781717 0.3322152 0.5202683 0.3152089 -0.3329608 -0.5751681 0.3152089 0.3322152 -0.5751681 0.3152089 0.3322152 0.5202683 0.3152089 -0.3329608 0.5202683 0.3152089 0.3322152 0.3166295 0.3152089 -0.3329608 0.3166295 -0.4781717 -0.3329608 0.3166295 -0.4781717 0.3322152 0.3166295 0.4376398 0.3322152 0.5202683 0.4376398 -0.3329608 0.5202683 0.4376398 0.3322152 0.3166295 0.4376398 -0.3329608 0.3166295 -0.4781718 0.3928272 -0.495487 0.315209 0.3928272 -0.495487 0.315209 -0.3935705 -0.495487 -0.4781718 -0.3935705 -0.495487 -0.4781717 -0.3329608 -0.4954869 -0.4781717 0.3322152 -0.4954869 0.3152089 0.3322152 -0.4954869 0.3152089 -0.3329608 -0.4954869 0.5204861 -0.288132 -0.5751681 0.4756573 -0.3329608 -0.5751681 0.4756573 0.3322152 -0.5751681 0.5204861 0.2873862 -0.5751681 0.5204861 0.2873862 -0.4954869 0.4756573 0.3322152 -0.4954869 0.4756573 -0.3329608 -0.4954869 0.5204861 -0.288132 -0.4954869 0.3152089 0.3322152 -0.1727226 0.3152089 -0.3329608 -0.1727226 -0.3083326 -0.3370108 0.5101822 -0.352566 -0.2927774 0.5101822 -0.352566 -0.2927774 0.5448602 -0.3083326 -0.3370108 0.5448602 -0.352566 -0.08352351 0.5101822 -0.3083326 -0.03929013 0.5101822 -0.3083326 -0.03929013 0.5448602 -0.352566 -0.08352351 0.5448602 0.1253159 -0.2927774 0.5101822 0.08108246 -0.3370108 0.5101822 0.08108246 -0.3370108 0.5448602 0.1253159 -0.2927774 0.5448602 0.08108246 -0.03929013 0.5101822 0.1253159 -0.08352351 0.5101822 0.1253159 -0.08352351 0.5448602 0.08108246 -0.03929013 0.5448602 -0.2010911 -0.230045 0.5654441 -0.2209615 -0.2101746 0.5654441 -0.2209615 -0.1161741 0.5654441 -0.2010911 -0.0963037 0.5654441 -0.02615904 -0.0963037 0.5654441 -0.006288647 -0.1161741 0.5654441 -0.006288647 -0.2101746 0.5654441 -0.02615904 -0.230045 0.5654441 -0.04081261 -0.1101022 0.5925058 -0.0358321 -0.1051216 0.5571743 -0.04081261 -0.1354727 0.5925058 -0.0358321 -0.140453 0.5571743 -0.1944832 -0.1101022 0.5925058 -0.1994637 -0.1051216 0.5571743 -0.1944832 -0.1354727 0.5925058 -0.1994637 -0.140453 0.5571743 0.3068001 0.2221329 0.200605 0.3068001 0.27454 0.1444368 0.3068001 0.27454 -0.03097796 0.3068001 0.2221329 -0.08714616 0.3068001 -0.2752835 0.1444368 0.3068001 -0.2228763 0.200605 0.3068001 -0.2228763 -0.08714616 0.3068001 -0.2752835 -0.03097796 0.4689644 0.244937 0.1312949 0.437237 0.27454 0.1444368 0.4689644 0.2098709 0.1688776 0.437237 0.2221329 0.200605 0.4689644 0.2098709 -0.05541872 0.437237 0.2221329 -0.08714616 0.4689644 0.244937 -0.01783603 0.437237 0.27454 -0.03097796 0.4689644 -0.2106144 0.1688776 0.437237 -0.2228763 0.200605 0.4689644 -0.2456805 0.1312949 0.437237 -0.2752835 0.1444368 0.4689644 -0.2456805 -0.01783603 0.437237 -0.2752835 -0.03097796 0.4689644 -0.2106144 -0.05541872 0.437237 -0.2228763 -0.08714616 0.4455429 -0.1677979 0.1236104 0.4455429 -0.1677979 0.1862201 0.4455429 -0.1414018 0.1236104 0.4455429 -0.1414018 0.1862201 0.4977777 -0.1677979 0.1236104 0.5159305 -0.1677979 0.1417633 0.5159305 -0.1677979 0.1680672 0.4977777 -0.1677979 0.1862201 0.5159305 -0.1414018 0.1417633 0.4977777 -0.1414018 0.1236104 0.4977777 -0.1414018 0.1862201 0.5159305 -0.1414018 0.1680672 0.4455429 0.1670538 0.1236104 0.4455429 0.1670538 0.1862201 0.4455429 0.1406577 0.1236104 0.4455429 0.1406577 0.1862201 0.4977777 0.1670538 0.1236104 0.5159305 0.1670538 0.1417633 0.5159305 0.1670538 0.1680672 0.4977777 0.1670538 0.1862201 0.5159305 0.1406577 0.1417633 0.4977777 0.1406577 0.1236104 0.4977777 0.1406577 0.1862201 0.5159305 0.1406577 0.1680672 0.445543 -0.06338685 0.1236104 0.445543 -0.06338685 0.1862201 0.445543 -0.03699076 0.1236104 0.445543 -0.03699076 0.1862201 0.4977777 -0.06338685 0.1236104 0.5159306 -0.06338685 0.1417633 0.5159306 -0.06338685 0.1680672 0.4977777 -0.06338685 0.1862201 0.5159306 -0.03699076 0.1417633 0.4977777 -0.03699076 0.1236104 0.4977777 -0.03699076 0.1862201 0.5159306 -0.03699076 0.1680672 0.445543 0.0626434 0.1236104 0.445543 0.0626434 0.1862201 0.445543 0.03624731 0.1236104 0.445543 0.03624731 0.1862201 0.4977777 0.0626434 0.1236104 0.5159306 0.0626434 0.1417633 0.5159306 0.0626434 0.1680672 0.4977777 0.0626434 0.1862201 0.5159306 0.03624731 0.1417633 0.4977777 0.03624731 0.1236104 0.4977777 0.03624731 0.1862201 0.5159306 0.03624731 0.1680672 0.4358508 -0.2012504 0.1544451 0.4883412 -0.2012504 0.1544451 0.4358508 -0.2193855 0.1294844 0.4883412 -0.2193855 0.1294845 0.4358508 -0.2487285 0.1390186 0.4883412 -0.2487285 0.1390186 0.4358508 -0.2487285 0.1698717 0.4883412 -0.2487285 0.1698717 0.4358508 -0.2193855 0.1794058 0.4883412 -0.2193855 0.1794058 0.4358508 0.2005069 0.1544451 0.4883412 0.2005069 0.1544451 0.4358508 0.2186419 0.1294844 0.4883412 0.2186419 0.1294845 0.4358508 0.247985 0.1390186 0.4883412 0.247985 0.1390186 0.4358508 0.247985 0.1698716 0.4883412 0.247985 0.1698717 0.4358508 0.2186419 0.1794058 0.4883412 0.2186419 0.1794058 0.4358508 -0.2012504 -0.04098623 0.4883412 -0.2012504 -0.04098623 0.4358508 -0.2193854 -0.01602554 0.4883412 -0.2193854 -0.01602554 0.4358508 -0.2487285 -0.02555966 0.4883412 -0.2487285 -0.02555972 0.4358508 -0.2487285 -0.05641275 0.4883412 -0.2487285 -0.05641281 0.4358508 -0.2193854 -0.06594693 0.4883412 -0.2193854 -0.06594693 0.4358508 0.2005069 -0.04098623 0.4883412 0.2005069 -0.04098623 0.4358508 0.2186419 -0.01602554 0.4883412 0.2186419 -0.01602554 0.4358508 0.247985 -0.02555966 0.4883412 0.247985 -0.02555972 0.4358508 0.247985 -0.05641275 0.4883412 0.247985 -0.05641275 0.4358508 0.2186419 -0.06594693 0.4883412 0.2186419 -0.06594693 -0.3083326 0.0380162 0.5101822 -0.352566 0.08224958 0.5101822 -0.352566 0.08224958 0.5448602 -0.3083326 0.0380162 0.5448602 -0.352566 0.2915034 0.5101822 -0.3083326 0.3357368 0.5101822 -0.3083326 0.3357368 0.5448602 -0.352566 0.2915034 0.5448602 0.1253159 0.08224958 0.5101822 0.08108246 0.0380162 0.5101822 0.08108246 0.0380162 0.5448602 0.1253159 0.08224958 0.5448602 0.08108246 0.3357368 0.5101822 0.1253159 0.2915034 0.5101822 0.1253159 0.2915034 0.5448602 0.08108246 0.3357368 0.5448602 -0.2010911 0.1449819 0.5654441 -0.2209615 0.1648523 0.5654441 -0.2209615 0.2588528 0.5654441 -0.2010911 0.2787232 0.5654441 -0.02615904 0.2787232 0.5654441 -0.006288647 0.2588528 0.5654441 -0.006288647 0.1648523 0.5654441 -0.02615904 0.1449819 0.5654441 -0.04081261 0.2649247 0.5925058 -0.0358321 0.2699053 0.5571743 -0.04081261 0.2395542 0.5925058 -0.0358321 0.234574 0.5571743 -0.1944832 0.2649247 0.5925058 -0.1994637 0.2699053 0.5571743 -0.1944832 0.2395542 0.5925058 -0.1994637 0.234574 0.5571743 0.1708996 -0.3259345 -0.6193553 0.1532918 -0.3435423 -0.5688691 0.1708996 -0.2619406 -0.6193553 0.1532918 -0.244333 -0.5688691 0.2348935 -0.3259345 -0.6193553 0.2525013 -0.3435423 -0.5688691 0.2348935 -0.2619406 -0.6193553 0.2525013 -0.244333 -0.5688691 -0.3588969 -0.3259345 -0.6193554 -0.3412892 -0.3435423 -0.5688691 -0.3588969 -0.2619407 -0.6193554 -0.3412892 -0.244333 -0.5688691 -0.4228909 -0.3259345 -0.6193554 -0.4404985 -0.3435423 -0.5688691 -0.4228909 -0.2619407 -0.6193554 -0.4404985 -0.244333 -0.5688691 0.1708996 0.3251911 -0.6193554 0.1532918 0.342799 -0.5688691 0.1708996 0.2611971 -0.6193554 0.1532918 0.2435895 -0.5688691 0.2348935 0.3251911 -0.6193554 0.2525013 0.342799 -0.5688691 0.2348935 0.2611971 -0.6193554 0.2525013 0.2435895 -0.5688691 -0.3588969 0.3251911 -0.6193554 -0.3412892 0.342799 -0.5688692 -0.3588969 0.2611972 -0.6193554 -0.3412892 0.2435895 -0.5688692 -0.4228909 0.3251911 -0.6193554 -0.4404985 0.342799 -0.5688692 -0.4228909 0.2611972 -0.6193554 -0.4404985 0.2435895 -0.5688692 0.3821257 -0.08844012 -0.1087254 0.3821257 -0.08192485 -0.07998651 0.416991 -0.1137712 -0.1087254 0.4231874 -0.1117579 -0.07998651 0.4036737 -0.1547577 -0.1087254 0.4075033 -0.1600286 -0.07998651 0.3605778 -0.1547577 -0.1087254 0.3567483 -0.1600286 -0.07998651 0.3472605 -0.1137712 -0.1087254 0.3410642 -0.1117579 -0.07998651 0.3821257 0.08769696 -0.1087254 0.3821257 0.0811817 -0.07998651 0.416991 0.113028 -0.1087254 0.4231874 0.1110147 -0.07998651 0.4036737 0.1540145 -0.1087254 0.4075033 0.1592855 -0.07998651 0.3605778 0.1540145 -0.1087254 0.3567483 0.1592855 -0.07998651 0.3472605 0.113028 -0.1087254 0.3410642 0.1110147 -0.07998651 0.3821257 0.03615325 -0.1087254 0.3821257 0.04266846 -0.07998651 0.416991 0.01082217 -0.1087254 0.4231874 0.0128355 -0.07998651 0.4036737 -0.03016436 -0.1087254 0.4075033 -0.03543525 -0.07998651 0.3605778 -0.03016436 -0.1087254 0.3567483 -0.03543525 -0.07998651 0.3472605 0.01082217 -0.1087254 0.3410642 0.0128355 -0.07998651 0.4870542 0.1493149 0.1776629 0.4870542 -0.1500584 0.1776629 0.5020819 0.1493149 0.1667446 0.5020819 -0.1500584 0.1667446 0.4963418 0.1493149 0.1490784 0.4963418 -0.1500584 0.1490784 0.4777665 0.1493149 0.1490784 0.4777665 -0.1500584 0.1490784 0.4720265 0.1493149 0.1667446 0.4720265 -0.1500584 0.1667446</float_array>
          <technique_common>
            <accessor source="#Icecream_Machine-mesh-positions-array" count="298" stride="3">
              <param name="X" type="float"/>
              <param name="Y" type="float"/>
              <param name="Z" type="float"/>
            </accessor>
          </technique_common>
        </source>
        <source id="Icecream_Machine-mesh-normals">
          <float_array id="Icecream_Machine-mesh-normals-array" count="1290">-1 -9.84919e-7 0 -1 -8.27785e-7 0 -1 -3.02721e-7 0 0 1 0 0 -1 0 0 1.47513e-6 -1 0 2.95026e-6 -1 0 2.95025e-6 -1 0 4.91709e-7 1 0 9.83419e-7 1 0 4.91709e-7 1 1 5.88153e-7 0 1 1.02099e-6 0 1 9.72343e-7 0 1 0 0 1 9.84964e-7 0 1 6.03654e-7 0 0 4.91709e-7 1 0 0 -1 0 -9.83381e-7 1 0 -4.9169e-7 1 0 -9.83379e-7 1 0 -4.91691e-7 1 1 -1.09584e-6 0 1 -3.5685e-7 0 1 -6.0363e-7 0 -1 -5.53695e-7 0 -1 -1.21892e-6 0 -1 8.48476e-7 0 -1 7.01007e-7 0 -1 1.41852e-6 0 -1 3.02733e-7 0 1 -5.02389e-7 0 1 -8.61089e-7 0 0 -4.9169e-7 1 0 -2.95014e-6 -1 0 -1.47507e-6 -1 0 -2.95014e-6 -1 0 -9.83382e-7 -1 -1 1.07097e-6 0 0.3826837 0.9238795 0 1 -9.46972e-7 0 1 -1.1058e-6 0 1 -1.34208e-6 0 -1 -6.59812e-7 0 -1 7.92957e-7 0 -1 1.61641e-6 0 -1 -1.54268e-6 0 1 1.25109e-6 0 1 1.54274e-6 0 0.3826837 -0.9238795 0 -3.82386e-7 0 -1 2.03214e-7 0 -1 3.82387e-7 0 1 -2.03214e-7 0 1 2.44018e-7 0 1 0.9238798 0.3826832 0 0.3826838 0.9238794 0 0.9238798 0.3826832 0 0.3826836 -0.9238796 0 0.9238797 -0.3826833 0 0.9238795 -0.3826836 0 1 5.33317e-7 0 1 -5.11009e-7 0 1 -1.06845e-6 0 0.3826838 -0.9238794 0 -0.3826832 -0.9238798 0 0.3826836 -0.9238795 0 0.9238801 0.3826825 0 0.9238795 -0.3826835 0 0.9238798 0.3826831 0 0.1411845 0.05411118 0.9885035 0.0798093 -0.02729988 0.9964362 0.1208931 -0.05438393 0.9911747 -0.9238798 -0.3826828 0 -0.9238793 0.3826839 0 -0.9238798 -0.3826832 0 -0.3826842 0.9238792 0 0.3826826 0.9238799 0 -0.3826838 0.9238794 0 -0.3826835 -0.9238796 0 -0.9238796 0.3826836 0 0.3826832 0.9238798 0 0.9238796 -0.3826836 0 0.02392077 -0.0949524 0.9951944 0.02553349 0.1699405 0.9851235 -0.1411846 0.05411118 0.9885035 -0.07980918 -0.02729982 0.9964364 -0.08638882 0.04159414 0.9953929 -0.09722375 0.1710991 0.9804452 0.09722375 0.171099 0.9804452 0.06341344 -0.1269113 0.989885 -0.06341344 -0.1269114 0.989885 -0.02392089 -0.09495234 0.9951944 0.0863887 0.04159414 0.9953929 -0.02553373 0.1699405 0.9851235 -0.1208931 -0.05438399 0.9911747 0.9902103 0 0.1395838 0.9902104 0 0.1395838 0.9902102 0 0.1395838 0 -0.9902108 0.1395803 0 -0.990211 0.1395792 0 -0.9902108 0.1395805 -0.9902103 0 0.1395838 -0.9902104 0 0.1395837 -0.9902102 0 0.1395839 0 0.9902098 0.139588 0 0.9902097 0.1395881 0 0.9902097 0.1395881 0 0 1 0.8962855 0.1810612 -0.4048326 1 0 0 0.8962854 0.1810612 0.4048326 0.3582786 -0.8678688 0.3441514 0 -0.7311625 0.6822034 0 -0.9303662 0.3666316 0.3656717 0.3691272 0.8544175 0.3656716 -0.3691273 0.8544176 0 -0.9303663 -0.3666316 0.3656718 -0.3691272 -0.8544175 0.3582782 -0.8678689 -0.3441514 0.3582786 0.8678689 0.3441514 0 0.9303662 -0.3666316 0 0.9303663 0.3666316 0.3582783 0.867869 -0.3441514 0 0.7311625 -0.6822034 0.8962853 -0.1810613 0.4048328 0.7138947 -0.6538742 0.2506051 0.8962854 -0.1810613 -0.4048327 0.7138941 0.6538748 -0.2506052 0.7138947 0.6538743 0.2506049 0.3656718 0.3691271 -0.8544175 0.3826836 0 0.9238795 0.3826836 0 0.9238795 0.9238798 0 0.3826832 0.9238798 0 -0.3826831 0.9238798 0 -0.3826832 0.3826838 0 -0.9238794 0.3826839 0 -0.9238794 0.3826839 0 0.9238794 0.9238798 0 -0.382683 0.9238796 0 -0.3826832 0.3826839 0 -0.9238794 0.3826841 0 -0.9238793 0.3826829 0 0.9238798 0.3826832 0 0.9238796 0.9238794 0 0.3826838 0.9238795 0 -0.3826838 0.9238795 0 -0.3826836 0.3826831 0 -0.9238798 0.382683 0 -0.9238798 0.382683 0 0.9238798 0.3826828 0 0.9238798 0.9238794 0 -0.3826838 0.9238794 0 0.3826838 0.9238794 0 -0.3826838 0.382683 0 -0.9238798 0 0.8090173 -0.5877848 0 0.8090173 -0.5877849 0 0.8090174 -0.5877848 1.94543e-7 -0.3090168 -0.9510566 3.80528e-7 -0.3090169 -0.9510565 5.75071e-7 -0.3090171 -0.9510565 1 -7.66761e-7 0 1 -1.19062e-6 0 1 -8.47711e-7 0 0 -0.3090169 0.9510567 0 -0.3090165 0.9510567 0 -0.3090161 0.9510568 0 0.8090174 0.5877848 -1.90264e-7 0.8090175 0.5877847 0 0.8090172 0.587785 0 -0.8090172 -0.5877851 0 -0.8090169 -0.5877854 0 -0.8090167 -0.5877857 3.80528e-7 0.309017 -0.9510565 1.94543e-7 0.309017 -0.9510565 5.75071e-7 0.309017 -0.9510566 1 -3.42906e-7 0 1 -1.02872e-6 0 1 -3.42906e-7 0 -7.61057e-7 0.309017 0.9510565 -3.89085e-7 0.3090168 0.9510566 -1.15014e-6 0.3090173 0.9510565 0 -0.8090171 0.5877853 0 -0.8090169 0.5877855 0 -0.8090172 0.587785 0 0.8090171 0.5877853 0 0.8090169 0.5877855 1.21589e-7 -0.309017 0.9510566 2.3783e-7 -0.309017 0.9510565 0 -0.3090169 0.9510565 1 1.69542e-6 0 1 0 0 1 8.47711e-7 0 -1.90264e-7 -0.309017 -0.9510565 0 -0.3090167 -0.9510566 -2.87535e-7 -0.3090174 -0.9510565 0 0.8090169 -0.5877855 0 0.8090171 -0.5877853 0 0.8090167 -0.5877857 0 -0.8090167 0.5877857 1.90264e-7 0.309017 0.9510565 0 0.3090168 0.9510566 0 0.3090166 0.9510567 0 0.3090172 -0.9510565 0 0.3090173 -0.9510565 0 0.3090174 -0.9510564 0 -0.8090169 -0.5877855 0 -0.8090171 -0.5877853 0 -0.8090172 -0.587785 -0.3826826 -0.9238799 0 0.3826834 -0.9238796 0 0.9238798 0.382683 0 0.9238793 -0.3826841 0 0.9238796 0.3826833 0 0.1411846 0.05411112 0.9885035 0.07980918 -0.02729982 0.9964364 0.1208924 -0.05438399 0.9911748 -0.9238796 0.3826833 0 -0.9238796 -0.3826833 0 -0.3826837 0.9238795 0 0.3826832 0.9238796 0 -0.3826836 0.9238795 0 -0.382683 -0.9238798 0 -0.9238796 0.3826833 0 0.3826834 0.9238796 0 0.9238794 -0.3826838 0 0.02392077 -0.09495234 0.9951944 0.02553349 0.1699405 0.9851235 -0.1411847 0.05411112 0.9885035 -0.07981061 -0.02729982 0.9964362 -0.08638745 0.04159414 0.995393 -0.09722411 0.1710989 0.9804451 0.09722405 0.171099 0.9804451 0.06341302 -0.1269113 0.989885 -0.06341296 -0.1269114 0.989885 -0.02392113 -0.09495234 0.9951944 0.0863884 0.04159408 0.995393 -0.02553325 0.1699404 0.9851235 -0.1208925 -0.05438399 0.9911748 0.9902103 0 0.1395838 0.9902102 0 0.1395837 0 -0.990211 0.1395786 0 -0.990211 0.1395785 0 -0.990211 0.1395786 -0.9902103 0 0.1395835 -0.9902104 0 0.1395835 0 0.9902098 0.1395875 0 0.9902096 0.1395885 0 0.9902096 0.1395887 -0.9442216 0 -0.3293107 -0.9442216 0 -0.3293107 -0.9442217 0 -0.3293107 0 0.9442227 -0.3293076 0 0.9442226 -0.3293079 0 0.9442224 -0.3293085 0.944222 0 -0.3293098 0.9442219 0 -0.3293098 0.944222 0 -0.3293096 0 -0.9442213 -0.3293118 0 -0.9442211 -0.3293121 0 -0.9442215 -0.3293112 0.9442219 0 -0.32931 0.9442218 0 -0.3293102 0.944222 0 -0.3293098 0 0.9442225 -0.3293084 0 0.9442226 -0.3293081 0 0.9442223 -0.3293088 -0.9442222 0 -0.329309 -0.9442222 0 -0.3293091 -0.9442222 0 -0.3293094 0 -0.9442217 -0.3293104 0 -0.9442217 -0.3293107 0 -0.9442214 -0.3293112 -0.9442219 0 -0.3293101 -0.9442219 0 -0.3293101 -0.9442218 0 -0.3293102 0 -0.9442228 -0.3293074 0 -0.9442228 -0.3293073 0 -0.9442228 -0.3293076 0.944222 0 -0.3293095 0.9442221 0 -0.3293095 0.9442221 0 -0.3293096 0 0.9442216 -0.3293108 0 0.9442214 -0.3293113 0 0.944221 -0.3293124 0.9442218 0 -0.3293102 0.9442218 0 -0.3293102 0.9442219 0 -0.3293101 0 -0.9442223 -0.3293089 0 -0.9442222 -0.3293091 0 -0.944222 -0.3293096 -0.9442221 0 -0.3293093 -0.9442222 0 -0.3293093 -0.9442222 0 -0.3293094 0 0.9442214 -0.3293117 0 0.9442213 -0.3293116 0 0.9442211 -0.329312 0.5781419 0.7957438 -0.1803989 0.5781417 0.795744 -0.180399 0.5781414 0.7957441 -0.180399 0.9354532 -0.303947 -0.1803985 0.9354532 -0.3039472 -0.1803985 0.9354532 -0.3039468 -0.1803984 0 -0.9835935 -0.1803988 0 -0.9835936 -0.1803988 0 -0.9835936 -0.1803988 -0.9354532 -0.3039472 -0.1803982 -0.9354532 -0.3039469 -0.1803987 -0.9354531 -0.3039467 -0.1803992 -0.5781418 0.7957439 -0.1803989 -0.5781419 0.7957438 -0.1803991 -0.5781421 0.7957437 -0.1803994 0.5781421 -0.7957438 -0.1803991 0.5781419 -0.7957438 -0.1803988 0.5781422 -0.7957435 -0.1803995 0.9354531 0.3039471 -0.1803989 0.9354532 0.303947 -0.1803987 0.9354532 0.3039469 -0.1803982 0 0.9835935 -0.180399 0 0.9835935 -0.1803991 0 0.9835936 -0.1803989 -0.9354531 0.3039472 -0.1803986 -0.9354531 0.303947 -0.1803988 -0.9354531 0.3039473 -0.1803983 -0.5781418 -0.7957438 -0.1803992 -0.5781421 -0.7957438 -0.1803991 -0.5781416 -0.795744 -0.1803993 2.17243e-7 0 -1 0 0 -1 0.5781419 0.7957438 -0.180399 0.5781418 0.7957441 -0.1803988 0.5781414 0.7957442 -0.1803986 0.9354532 -0.3039471 -0.1803987 0.9354531 -0.3039472 -0.1803988 0.9354531 -0.303947 -0.1803984 0 -0.9835935 -0.1803992 0 -0.9835935 -0.1803992 0 -0.9835935 -0.1803993 -0.9354531 -0.3039472 -0.1803986 -0.9354531 -0.3039471 -0.180399 -0.9354531 -0.3039469 -0.1803994 -0.5781418 0.7957438 -0.1803991 -0.5781419 0.7957438 -0.1803991 -0.5781419 0.7957438 -0.1803992 0.5877845 0 0.8090177 0.5877861 0 0.8090164 0.5877861 0 0.8090164 0.9510568 0 -0.3090162 0.9510568 0 -0.3090162 0.9510568 0 -0.3090162 0 0 -1 -0.9510568 1.44002e-7 -0.3090162 -0.9510568 0 -0.3090162 -0.9510568 1.49916e-7 -0.3090162 -0.5877861 0 0.8090164 -0.5877845 0 0.8090177 -0.5877844 0 0.8090177 -1 -2.41452e-6 0 1.2559e-7 9.83419e-7 -1 0 9.83417e-7 1 1 5.02408e-7 0 0 9.83418e-7 1 1 -6.0228e-7 0 0 -9.8338e-7 1 -1 2.62544e-6 0 -3.76769e-7 0 1 0.9902104 0 0.1395838 0 -0.990211 0.1395791 -0.9902104 0 0.1395837 0 0.9902097 0.1395879 1 -7.12368e-7 0 0 -0.7311627 -0.6822032 0.713894 -0.6538749 -0.2506055 0 0.7311625 0.6822034 0.9238796 0 0.3826834 0.9238794 0 0.3826841 0.9238795 0 0.3826836 0 0.8090172 -0.587785 0 -0.3090166 -0.9510567 0 -0.3090173 0.9510565 -2.87535e-7 0.8090177 0.5877844 0 -0.8090174 -0.5877848 0 0.3090169 -0.9510565 0 0.8090167 0.5877857 3.59419e-7 -0.3090171 0.9510565 1 1.69542e-6 0 0 -0.3090164 -0.9510567 2.87536e-7 0.3090172 0.9510565 0 0.3090171 -0.9510565 0 -0.990211 0.1395785 -0.9902104 0 0.1395835 0 0.9902098 0.1395874 -0.9442217 0 -0.3293108 0 0.9442229 -0.3293071 0.944222 0 -0.3293099 0 -0.944221 -0.3293125 0.9442217 0 -0.3293106 -0.9442223 0 -0.3293088 0 -0.9442219 -0.32931 -0.9442219 0 -0.3293101 0 -0.9442229 -0.3293071 0.9442221 0 -0.3293094 0 0.9442219 -0.32931 0.9442217 0 -0.3293103 0 -0.9442225 -0.3293086 -0.9442222 0 -0.3293092 0 0.9442214 -0.3293114 0.5781422 0.7957436 -0.1803988 0.9354531 -0.3039473 -0.1803985 0 -0.9835936 -0.1803989 -0.9354532 -0.3039473 -0.1803977 -0.5781417 0.7957441 -0.1803987 0.5781418 -0.7957441 -0.1803983 0.9354529 0.3039472 -0.1803992 0 0.9835935 -0.1803992 -0.9354531 0.3039469 -0.1803992 -0.5781423 -0.7957435 -0.180399 -5.27259e-7 0 -1 0 0 -1 0.5781422 0.7957435 -0.1803991 0.9354531 -0.3039473 -0.180399 0 -0.9835935 -0.1803992 -0.9354532 -0.3039474 -0.1803982 -0.5781419 0.795744 -0.180399 0.5877844 0 0.8090177 0.9510568 0 -0.3090162 -0.9510568 0 -0.3090162 -0.5877861 0 0.8090165</float_array>
          <technique_common>
            <accessor source="#Icecream_Machine-mesh-normals-array" count="430" stride="3">
              <param name="X" type="float"/>
              <param name="Y" type="float"/>
              <param name="Z" type="float"/>
            </accessor>
          </technique_common>
        </source>
        <source id="Icecream_Machine-mesh-map-0">
          <float_array id="Icecream_Machine-mesh-map-0-array" count="2706">0.3410159 0.513319 0.369187 0.4186722 0.3410159 0.4186722 0.006565392 0.5150082 0.3729909 0.420957 0.006565392 0.420957 0.3729909 0.5150082 0.4295359 0.420957 0.3729909 0.420957 0.3737408 0.5136845 0.006260633 0.4193626 0.3737408 0.4193626 0.06592321 0.4514098 0.04293739 0.1505256 0.04293745 0.4514099 0.4724052 0.4304485 0.4443318 0.06296849 0.4724051 0.06296855 0.3737408 0.4193626 0.006260633 0.04320436 0.3737408 0.04320436 0.5068888 0.6294816 0.4788153 0.856141 0.4788153 0.4799827 0.006565392 0.420957 0.3729909 0.04587829 0.006565392 0.04587829 0.03482204 0.6218912 0.006748676 0.5275692 0.03482198 0.5275692 0.4443318 0.06296849 0.4724051 0.006260693 0.4724051 0.06296855 0.3709944 0.6920472 0.34292 0.6353394 0.34292 0.6920472 0.3737408 0.4193626 0.4304486 0.5136845 0.3737408 0.5136845 0.006748676 0.6920472 0.03482204 0.6353394 0.006748676 0.6353394 0.34292 0.6920472 0.03482204 0.6353394 0.03482204 0.6920472 0.8085775 0.06296849 0.780503 0.006260693 0.8085775 0.006260633 0.4724051 0.06296855 0.780503 0.006260693 0.780503 0.06296849 0.3709943 0.5275692 0.34292 0.6218912 0.34292 0.5275692 0.34292 0.6218912 0.03482198 0.5275692 0.34292 0.5275692 0.3410159 0.04121822 0.369187 0.4186722 0.369187 0.04121822 0.003686547 0.4186722 0.03185659 0.04121822 0.003686547 0.04121822 0.03185659 0.4186722 0.3410159 0.04121822 0.03185659 0.04121822 0.8149866 0.856141 0.5068888 0.6294816 0.8149866 0.6294816 0.8085775 0.06296849 0.7805031 0.4304485 0.780503 0.06296849 0.7805031 0.4304485 0.4724051 0.06296855 0.780503 0.06296849 0.3411733 0.1505256 0.3181867 0.4514098 0.3411733 0.4514099 0.3181867 0.1505256 0.06592321 0.4514098 0.3181867 0.4514098 0.003686547 0.4186722 0.03185659 0.513319 0.03185659 0.4186722 0.03185659 0.513319 0.3410159 0.4186722 0.03185659 0.4186722 0.8482266 0.6702806 0.8208745 0.6152036 0.8208745 0.6702806 0.843061 0.4799827 0.8149866 0.4430758 0.843061 0.4430758 0.03185659 0.04121822 0.3410159 0.004184126 0.03185659 0.004184126 0.003686547 0.04121822 0.03185659 0.004184126 0.003686547 0.004184126 0.3410159 0.004184126 0.369187 0.04121822 0.369187 0.004184126 0.006565392 0.04587829 0.3729909 0.00907731 0.006565392 0.00907731 0.5068887 0.4430758 0.4788153 0.4799827 0.4788153 0.4430758 0.3737408 0.04320436 0.006260633 0.006297409 0.3737408 0.006297409 0.8208745 0.6702806 0.8482266 0.6152036 0.8482266 0.6702806 0.3011856 0.07267564 0.08292424 0.07267564 0.3181867 0.1505256 0.3026671 0.7990649 0.0360971 0.7990649 0.323431 0.7039841 0.8208745 0.5362691 0.8482266 0.5208807 0.8482266 0.5362691 0.8208745 0.7492151 0.8482266 0.7338268 0.8482266 0.7492151 0.8482266 0.5362691 0.8208745 0.7338268 0.8208745 0.5362691 0.8149866 0.6294816 0.5068887 0.4799828 0.8149866 0.4799828 0.843061 0.856141 0.8149866 0.856141 0.8149866 0.6294816 0.4019106 0.07025283 0.3858483 0.2506232 0.3858483 0.07025283 0.335904 0.7069012 0.4328268 0.7229635 0.335904 0.7229635 0.4432548 0.7727282 0.3845922 0.8336851 0.3463321 0.7727282 0.4328268 0.7354391 0.335904 0.7515015 0.4328268 0.7515015 0.4589866 0.6501556 0.4429243 0.4697852 0.4429243 0.6501556 0.4019106 0.2506232 0.3858483 0.2711113 0.3858483 0.2506232 0.4429243 0.6501556 0.4589866 0.6706436 0.4589866 0.6501556 0.4429243 0.4492971 0.4589866 0.4697852 0.4589866 0.4492971 0.3858483 0.07025283 0.4019106 0.04976469 0.4019106 0.07025283 0.3753887 0.8428887 0.3845922 0.8336851 0.4373353 0.8428887 0.4432548 0.9940747 0.3845923 0.9331179 0.4281316 0.9331179 0.463743 0.9735866 0.4373353 0.8428887 0.463743 0.7932163 0.325844 0.7932163 0.3845922 0.8336851 0.3753887 0.8428887 0.325844 0.9735866 0.3753887 0.8428887 0.3753887 0.9239142 0.463743 0.7932163 0.4281316 0.8336851 0.4432548 0.7727282 0.463743 0.9735866 0.4281316 0.9331179 0.4373353 0.9239142 0.325844 0.9735866 0.3845923 0.9331179 0.3463321 0.9940747 0.4257635 0.5422226 0.4117056 0.5258576 0.4280704 0.5258576 0.6256973 0.8683139 0.6991817 0.8846789 0.6233904 0.8846789 0.3972254 0.6801564 0.3831675 0.6637914 0.3854743 0.6801564 0.7301692 0.4589866 0.6566849 0.4426217 0.6589917 0.4589866 0.4163193 0.2853803 0.4280704 0.2142027 0.4280704 0.2853803 0.231645 0.8267366 0.247887 0.8441441 0.231645 0.9306267 0.8575573 0.3469651 0.9179733 0.320949 0.9179733 0.3469651 0.9175467 0.6991817 0.8571307 0.4930612 0.9175467 0.4930612 0.9179733 0.4282142 0.8575573 0.4542303 0.8575573 0.4282142 0.9179733 0.3469651 0.8575573 0.4282142 0.8575573 0.3469651 0.5039243 0.9318156 0.5851734 0.8713996 0.5039243 0.8713996 0.8571307 0.927486 0.9175467 0.7213655 0.8571307 0.7213655 0.5851734 0.9318156 0.6111894 0.8713996 0.5851734 0.8713996 0.03688353 0.9306267 0.006929934 0.9193062 0.0206415 0.913219 0.03688347 0.8267366 0.006929934 0.8380571 0.03120398 0.812041 0.231645 0.9306267 0.2615986 0.9193062 0.2373245 0.9453223 0.231645 0.8267366 0.2615986 0.8380571 0.247887 0.8441441 0.9322423 0.6935022 0.9175467 0.4930612 0.9322423 0.4987407 0.5851734 0.9318156 0.5100114 0.9465112 0.5790863 0.9465112 0.8575573 0.4282142 0.8428617 0.3530522 0.8575573 0.3469651 0.9175467 0.927486 0.9322423 0.727045 0.9175467 0.7213655 0.5039243 0.8713996 0.4779081 0.9318156 0.5039243 0.9318156 0.1826392 0.9215173 0.1217563 0.9215173 0.1217563 0.8485417 0.1217563 0.8983641 0.1826392 0.8675978 0.1826392 0.8983641 0.1215015 0.9003589 0.09073519 0.8697 0.1215015 0.8697 0.2037975 0.9003589 0.2037975 0.8697 0.1826392 0.8485417 0.1215015 0.8485417 0.09073519 0.8697 0.09073519 0.8485417 0.09073519 0.9215173 0.1215015 0.9003589 0.1215015 0.9215173 0.1826392 0.8983641 0.1217563 0.8675978 0.1217563 0.8983641 0.1826392 0.9215173 0.2037975 0.9003589 0.2037975 0.8697 0.1826392 0.8996844 0.1217563 0.8689181 0.1826392 0.8689181 0.1197751 0.8697 0.08900868 0.9003589 0.08900868 0.8697 0.1826392 0.9215173 0.1217563 0.9215173 0.1826392 0.8485417 0.1197751 0.8697 0.08900868 0.8485417 0.1197751 0.8485417 0.08900868 0.9003589 0.1197751 0.9215173 0.08900868 0.9215173 0.1217563 0.8996844 0.1826392 0.8689181 0.1217563 0.8689181 0.1826392 0.9215173 0.1217563 0.9215173 0.1217563 0.8485417 0.1217563 0.8941808 0.1826392 0.8634145 0.1826392 0.8941808 0.120095 0.9003589 0.08932864 0.8697 0.120095 0.8697 0.2037975 0.9003589 0.2037975 0.8697 0.1826392 0.8485417 0.120095 0.8485417 0.08932864 0.8697 0.08932864 0.8485417 0.08932864 0.9215173 0.120095 0.9003589 0.120095 0.9215173 0.1826392 0.8941808 0.1217563 0.8634145 0.1217563 0.8941808 0.1826392 0.9215173 0.2037975 0.9003589 0.2037975 0.8697 0.1826392 0.896463 0.1217563 0.8656966 0.1826392 0.8656966 0.120526 0.8697 0.08975958 0.9003589 0.08975958 0.8697 0.1826392 0.9215173 0.1217563 0.9215173 0.1826392 0.8485417 0.120526 0.8697 0.08975958 0.8485417 0.120526 0.8485417 0.08975958 0.9003589 0.120526 0.9215173 0.08975958 0.9215173 0.1217563 0.896463 0.1826392 0.8656966 0.1217563 0.8656966 0.8882517 0.5199477 0.9124674 0.5708715 0.9124674 0.5199477 0.8936885 0.5708715 0.8652212 0.5199477 0.8936885 0.5199477 0.9032179 0.5708715 0.8732856 0.5199477 0.9032179 0.5199477 0.8665962 0.3000786 0.8394511 0.2165347 0.8937413 0.2165347 0.8652212 0.5708715 0.8936885 0.5199477 0.8652212 0.5199477 0.864036 0.5199477 0.8882517 0.5708715 0.8882517 0.5199477 0.8882517 0.5199477 0.9124674 0.5708715 0.8882517 0.5708715 0.8652212 0.5199477 0.8936885 0.5708715 0.8936885 0.5199477 0.8732856 0.5199477 0.9032179 0.5708715 0.9032179 0.5199477 0.8937413 0.2165347 0.8394511 0.2165347 0.8226745 0.2681677 0.8936885 0.5199477 0.8652212 0.5708715 0.8652212 0.5199477 0.8882517 0.5199477 0.864036 0.5708715 0.864036 0.5199477 0.9124674 0.5199477 0.8882517 0.5708715 0.8882517 0.5199477 0.8652212 0.5199477 0.8936885 0.5708715 0.8936885 0.5199477 0.8732856 0.5199477 0.9032179 0.5708715 0.9032179 0.5199477 0.8937413 0.2165347 0.8394511 0.2165347 0.8226745 0.2681677 0.8936885 0.5199477 0.8652212 0.5708715 0.8652212 0.5199477 0.8882517 0.5199477 0.864036 0.5708715 0.864036 0.5199477 0.8882517 0.5708715 0.9124674 0.5199477 0.8882517 0.5199477 0.8936885 0.5708715 0.8652212 0.5199477 0.8936885 0.5199477 0.9032179 0.5708715 0.8732856 0.5199477 0.9032179 0.5199477 0.8665962 0.3000786 0.8226745 0.2681677 0.8394511 0.2165347 0.8652212 0.5708715 0.8936885 0.5199477 0.8652212 0.5199477 0.864036 0.5708715 0.8882517 0.5199477 0.864036 0.5199477 0.4019106 0.07025283 0.3858483 0.2506232 0.3858483 0.07025283 0.335904 0.7069012 0.4328268 0.7229635 0.335904 0.7229635 0.4432548 0.7727282 0.3845922 0.8336851 0.3463321 0.7727282 0.4328268 0.7354391 0.335904 0.7515015 0.4328268 0.7515015 0.4589866 0.6501556 0.4429243 0.4697852 0.4429243 0.6501556 0.4019106 0.2506232 0.3858483 0.2711113 0.3858483 0.2506232 0.4429243 0.6501556 0.4589866 0.6706436 0.4589866 0.6501556 0.4429243 0.4492971 0.4589866 0.4697852 0.4589866 0.4492971 0.3858483 0.07025283 0.4019106 0.04976469 0.4019106 0.07025283 0.3753887 0.8428887 0.3845922 0.8336851 0.4373353 0.8428887 0.4432548 0.9940747 0.3845923 0.9331179 0.4281316 0.9331179 0.463743 0.9735866 0.4373353 0.8428887 0.463743 0.7932163 0.325844 0.7932163 0.3845922 0.8336851 0.3753887 0.8428887 0.325844 0.9735866 0.3753887 0.8428887 0.3753887 0.9239142 0.463743 0.7932163 0.4281316 0.8336851 0.4432548 0.7727282 0.463743 0.9735866 0.4281316 0.9331179 0.4373353 0.9239142 0.325844 0.9735866 0.3845923 0.9331179 0.3463321 0.9940747 0.4257635 0.5422226 0.4117056 0.5258576 0.4280704 0.5258576 0.6256973 0.8683139 0.6991817 0.8846789 0.6233904 0.8846789 0.3972254 0.6801564 0.3831675 0.6637914 0.3854743 0.6801564 0.7301692 0.4589866 0.6566849 0.4426217 0.6589917 0.4589866 0.4163193 0.2853803 0.4280704 0.2142027 0.4280704 0.2853803 0.9106291 0.5635504 0.8655885 0.5356841 0.8753072 0.5635504 0.9106292 0.5635504 0.8655885 0.5356841 0.8753072 0.5635504 0.8655885 0.5356841 0.9106291 0.5635504 0.8753072 0.5635504 0.8655885 0.5356841 0.9106291 0.5635504 0.8753072 0.5635504 0.8753072 0.5319561 0.9106292 0.5672781 0.9106292 0.5319561 0.9203479 0.5222375 0.8655885 0.5769969 0.8655885 0.5222375 0.9106291 0.5635504 0.8655885 0.5356841 0.9203479 0.5356841 0.9106292 0.5635504 0.8655885 0.5356841 0.9203479 0.5356841 0.9106291 0.5635504 0.8655885 0.5356841 0.8753072 0.5635504 0.9106291 0.5635504 0.8655885 0.5356841 0.8753072 0.5635504 0.9106292 0.5672781 0.8753072 0.5319561 0.9106292 0.5319561 0.8655885 0.5769969 0.9203479 0.5222375 0.8655885 0.5222375 0.9106291 0.5635504 0.8655885 0.5356841 0.9203479 0.5356841 0.9106292 0.5635504 0.8655885 0.5356841 0.9203479 0.5356841 0.9106291 0.5635504 0.8655885 0.5356841 0.8753072 0.5635504 0.9106291 0.5635504 0.8655885 0.5356841 0.8753072 0.5635504 0.9106292 0.5672781 0.8753072 0.5319561 0.9106292 0.5319561 0.8655885 0.5769969 0.9203479 0.5222375 0.8655885 0.5222375 0.9106291 0.5635504 0.8655885 0.5356841 0.8753072 0.5635504 0.9106292 0.5635504 0.8655885 0.5356841 0.8753072 0.5635504 0.8655885 0.5356841 0.9106291 0.5635504 0.8753072 0.5635504 0.8655885 0.5356841 0.9106291 0.5635504 0.8753072 0.5635504 0.8753072 0.5319561 0.9106292 0.5672781 0.9106292 0.5319561 0.9203479 0.5222375 0.8655885 0.5769969 0.8655885 0.5222375 0.9272723 0.07742869 0.9698085 0.1420898 0.9306424 0.1123756 0.9698085 0.1420898 0.898731 0.1298552 0.9306424 0.1123756 0.898731 0.1298552 0.8299496 0.1004141 0.8747882 0.1027271 0.8747882 0.1027271 0.8763443 0.02907085 0.8925115 0.06816405 0.8925115 0.06816405 0.9698085 0.0417003 0.9272723 0.07742869 0.898731 0.1298552 0.8747882 0.1027271 0.8925115 0.06816405 0.8950169 0.1306736 0.971484 0.1466091 0.8831166 0.170564 0.9335286 0.08008599 0.971484 0.1466091 0.9285443 0.1154032 0.9335286 0.08008599 0.8771778 0.0254057 0.9702952 0.04607677 0.8989464 0.0679531 0.830082 0.1039479 0.8771778 0.0254057 0.8750786 0.09830576 0.8831166 0.170564 0.830082 0.1039479 0.8750786 0.09830576 0.8989464 0.0679531 0.9335286 0.08008599 0.9287541 0.07701462 0.9727507 0.1438955 0.93224 0.1131613 0.9727507 0.1438955 0.8992331 0.1312409 0.93224 0.1131613 0.8992331 0.1312409 0.8280905 0.1007891 0.8744683 0.1031815 0.8744683 0.1031815 0.8760779 0.02699673 0.8928 0.06743198 0.8928 0.06743198 0.9727507 0.04005974 0.9287541 0.07701462 0.8992331 0.1312409 0.8744683 0.1031815 0.8928 0.06743198 0.2975618 0.4331742 0.3109773 0.1659189 0.2975618 0.1659189 0.3005738 0.4331742 0.2848029 0.1659189 0.3005738 0.1659189 0.3058531 0.4331742 0.2892706 0.1659189 0.3058531 0.1659189 0.2848029 0.1659189 0.3005738 0.4331742 0.3005738 0.1659189 0.2841463 0.4331742 0.2975618 0.1659189 0.2841463 0.1659189 0.3410159 0.513319 0.369187 0.513319 0.369187 0.4186722 0.006565392 0.5150082 0.3729909 0.5150082 0.3729909 0.420957 0.3729909 0.5150082 0.4295359 0.5150082 0.4295359 0.420957 0.3737408 0.5136845 0.006260633 0.5136845 0.006260633 0.4193626 0.06592321 0.4514098 0.06592321 0.1505256 0.04293739 0.1505256 0.4724052 0.4304485 0.4443318 0.4304486 0.4443318 0.06296849 0.3737408 0.4193626 0.006260633 0.4193626 0.006260633 0.04320436 0.4788153 0.4799827 0.5068887 0.4799828 0.5068888 0.6294816 0.5068888 0.6294816 0.5068887 0.856141 0.4788153 0.856141 0.006565392 0.420957 0.3729909 0.420957 0.3729909 0.04587829 0.03482204 0.6218912 0.006748676 0.6218912 0.006748676 0.5275692 0.4443318 0.06296849 0.4443318 0.006260633 0.4724051 0.006260693 0.3709944 0.6920472 0.3709944 0.6353394 0.34292 0.6353394 0.3737408 0.4193626 0.4304486 0.4193626 0.4304486 0.5136845 0.006748676 0.6920472 0.03482204 0.6920472 0.03482204 0.6353394 0.34292 0.6920472 0.34292 0.6353394 0.03482204 0.6353394 0.8085775 0.06296849 0.780503 0.06296849 0.780503 0.006260693 0.4724051 0.06296855 0.4724051 0.006260693 0.780503 0.006260693 0.3709943 0.5275692 0.3709944 0.6218912 0.34292 0.6218912 0.34292 0.6218912 0.03482204 0.6218912 0.03482198 0.5275692 0.3410159 0.04121822 0.3410159 0.4186722 0.369187 0.4186722 0.003686547 0.4186722 0.03185659 0.4186722 0.03185659 0.04121822 0.03185659 0.4186722 0.3410159 0.4186722 0.3410159 0.04121822 0.8149866 0.856141 0.5068887 0.856141 0.5068888 0.6294816 0.8085775 0.06296849 0.8085775 0.4304486 0.7805031 0.4304485 0.7805031 0.4304485 0.4724052 0.4304485 0.4724051 0.06296855 0.3411733 0.1505256 0.3181867 0.1505256 0.3181867 0.4514098 0.3181867 0.1505256 0.06592321 0.1505256 0.06592321 0.4514098 0.003686547 0.4186722 0.003686547 0.513319 0.03185659 0.513319 0.03185659 0.513319 0.3410159 0.513319 0.3410159 0.4186722 0.8482266 0.6702806 0.8482266 0.6152036 0.8208745 0.6152036 0.843061 0.4799827 0.8149866 0.4799828 0.8149866 0.4430758 0.03185659 0.04121822 0.3410159 0.04121822 0.3410159 0.004184126 0.003686547 0.04121822 0.03185659 0.04121822 0.03185659 0.004184126 0.3410159 0.004184126 0.3410159 0.04121822 0.369187 0.04121822 0.006565392 0.04587829 0.3729909 0.04587829 0.3729909 0.00907731 0.5068887 0.4430758 0.5068887 0.4799828 0.4788153 0.4799827 0.3737408 0.04320436 0.006260633 0.04320436 0.006260633 0.006297409 0.8208745 0.6702806 0.8208745 0.6152036 0.8482266 0.6152036 0.06592321 0.08967667 0.06592321 0.1505256 0.08292424 0.07267564 0.06592321 0.1505256 0.3181867 0.1505256 0.08292424 0.07267564 0.3181867 0.1505256 0.3181867 0.08967667 0.3011856 0.07267564 0.01533311 0.778301 0.01533311 0.7039841 0.0360971 0.7990649 0.01533311 0.7039841 0.323431 0.7039841 0.0360971 0.7990649 0.323431 0.7039841 0.323431 0.7783009 0.3026671 0.7990649 0.8208745 0.5362691 0.8208745 0.5208807 0.8482266 0.5208807 0.8208745 0.7492151 0.8208745 0.7338268 0.8482266 0.7338268 0.8482266 0.5362691 0.8482266 0.7338268 0.8208745 0.7338268 0.8149866 0.6294816 0.5068888 0.6294816 0.5068887 0.4799828 0.8149866 0.4799828 0.843061 0.4799827 0.8149866 0.6294816 0.843061 0.4799827 0.843061 0.856141 0.8149866 0.6294816 0.4019106 0.07025283 0.4019106 0.2506232 0.3858483 0.2506232 0.335904 0.7069012 0.4328268 0.7069011 0.4328268 0.7229635 0.4432548 0.7727282 0.4281316 0.8336851 0.3845922 0.8336851 0.4328268 0.7354391 0.335904 0.7354392 0.335904 0.7515015 0.4589866 0.6501556 0.4589866 0.4697852 0.4429243 0.4697852 0.4019106 0.2506232 0.4019106 0.2711113 0.3858483 0.2711113 0.4429243 0.6501556 0.4429243 0.6706436 0.4589866 0.6706436 0.4429243 0.4492971 0.4429243 0.4697852 0.4589866 0.4697852 0.3858483 0.07025283 0.3858483 0.04976469 0.4019106 0.04976469 0.3845922 0.8336851 0.4281316 0.8336851 0.4373353 0.8428887 0.4373353 0.8428887 0.4373353 0.9239142 0.3753887 0.9239142 0.4373353 0.9239142 0.4281316 0.9331179 0.3753887 0.9239142 0.4281316 0.9331179 0.3845923 0.9331179 0.3753887 0.9239142 0.3753887 0.9239142 0.3753887 0.8428887 0.4373353 0.8428887 0.4432548 0.9940747 0.3463321 0.9940747 0.3845923 0.9331179 0.463743 0.9735866 0.4373353 0.9239142 0.4373353 0.8428887 0.325844 0.7932163 0.3463321 0.7727282 0.3845922 0.8336851 0.325844 0.9735866 0.325844 0.7932163 0.3753887 0.8428887 0.463743 0.7932163 0.4373353 0.8428887 0.4281316 0.8336851 0.463743 0.9735866 0.4432548 0.9940747 0.4281316 0.9331179 0.325844 0.9735866 0.3753887 0.9239142 0.3845923 0.9331179 0.4257635 0.5422226 0.4140123 0.5422226 0.4117056 0.5258576 0.6256973 0.8683139 0.6968749 0.8683139 0.6991817 0.8846789 0.3972254 0.6801564 0.3995324 0.6637914 0.3831675 0.6637914 0.7301692 0.4589866 0.7324762 0.4426217 0.6566849 0.4426217 0.4163193 0.2853803 0.4163193 0.2142027 0.4280704 0.2142027 0.247887 0.8441441 0.247887 0.913219 0.231645 0.9306267 0.231645 0.9306267 0.03688353 0.9306267 0.03688347 0.8267366 0.03688353 0.9306267 0.0206415 0.913219 0.03688347 0.8267366 0.0206415 0.913219 0.0206415 0.8441442 0.03688347 0.8267366 0.03688347 0.8267366 0.231645 0.8267366 0.231645 0.9306267 0.8575573 0.3469651 0.8575573 0.320949 0.9179733 0.320949 0.9175467 0.6991817 0.8571307 0.6991817 0.8571307 0.4930612 0.9179733 0.4282142 0.9179733 0.4542303 0.8575573 0.4542303 0.9179733 0.3469651 0.9179733 0.4282142 0.8575573 0.4282142 0.5039243 0.9318156 0.5851734 0.9318156 0.5851734 0.8713996 0.8571307 0.927486 0.9175467 0.927486 0.9175467 0.7213655 0.5851734 0.9318156 0.6111894 0.9318156 0.6111894 0.8713996 0.03688353 0.9306267 0.03120398 0.9453223 0.006929934 0.9193062 0.03688347 0.8267366 0.0206415 0.8441442 0.006929934 0.8380571 0.231645 0.9306267 0.247887 0.913219 0.2615986 0.9193062 0.231645 0.8267366 0.2373245 0.8120409 0.2615986 0.8380571 0.9322423 0.6935022 0.9175467 0.6991817 0.9175467 0.4930612 0.5851734 0.9318156 0.5039243 0.9318156 0.5100114 0.9465112 0.8575573 0.4282142 0.8428617 0.4221271 0.8428617 0.3530522 0.9175467 0.927486 0.9322423 0.9218065 0.9322423 0.727045 0.5039243 0.8713996 0.4779081 0.8713996 0.4779081 0.9318156 0.1217563 0.8485417 0.1826392 0.8485417 0.1826392 0.9215173 0.1826392 0.8485417 0.2037975 0.8697 0.1826392 0.9215173 0.2037975 0.8697 0.2037975 0.9003589 0.1826392 0.9215173 0.1217563 0.8983641 0.1217563 0.8675978 0.1826392 0.8675978 0.1215015 0.9003589 0.09073519 0.9003589 0.09073519 0.8697 0.1826392 0.8485417 0.1217563 0.8485417 0.1217563 0.9215173 0.1217563 0.9215173 0.1826392 0.9215173 0.1826392 0.8485417 0.1826392 0.9215173 0.2037975 0.9003589 0.1826392 0.8485417 0.1215015 0.8485417 0.1215015 0.8697 0.09073519 0.8697 0.09073519 0.9215173 0.09073519 0.9003589 0.1215015 0.9003589 0.1826392 0.8983641 0.1826392 0.8675978 0.1217563 0.8675978 0.2037975 0.8697 0.1826392 0.8485417 0.1826392 0.9215173 0.1826392 0.8485417 0.1217563 0.8485417 0.1826392 0.9215173 0.1217563 0.8485417 0.1217563 0.9215173 0.1826392 0.9215173 0.1826392 0.8996844 0.1217563 0.8996844 0.1217563 0.8689181 0.1197751 0.8697 0.1197751 0.9003589 0.08900868 0.9003589 0.1217563 0.9215173 0.1217563 0.8485417 0.1826392 0.8485417 0.1826392 0.8485417 0.2037975 0.8697 0.2037975 0.9003589 0.2037975 0.9003589 0.1826392 0.9215173 0.1826392 0.8485417 0.1197751 0.8697 0.08900868 0.8697 0.08900868 0.8485417 0.08900868 0.9003589 0.1197751 0.9003589 0.1197751 0.9215173 0.1217563 0.8996844 0.1826392 0.8996844 0.1826392 0.8689181 0.1217563 0.8485417 0.1826392 0.8485417 0.1826392 0.9215173 0.1826392 0.8485417 0.2037975 0.8697 0.1826392 0.9215173 0.2037975 0.8697 0.2037975 0.9003589 0.1826392 0.9215173 0.1217563 0.8941808 0.1217563 0.8634145 0.1826392 0.8634145 0.120095 0.9003589 0.08932864 0.9003589 0.08932864 0.8697 0.1826392 0.8485417 0.1217563 0.8485417 0.1217563 0.9215173 0.1217563 0.9215173 0.1826392 0.9215173 0.1826392 0.8485417 0.1826392 0.9215173 0.2037975 0.9003589 0.1826392 0.8485417 0.120095 0.8485417 0.120095 0.8697 0.08932864 0.8697 0.08932864 0.9215173 0.08932864 0.9003589 0.120095 0.9003589 0.1826392 0.8941808 0.1826392 0.8634145 0.1217563 0.8634145 0.2037975 0.8697 0.1826392 0.8485417 0.1826392 0.9215173 0.1826392 0.8485417 0.1217563 0.8485417 0.1826392 0.9215173 0.1217563 0.8485417 0.1217563 0.9215173 0.1826392 0.9215173 0.1826392 0.896463 0.1217563 0.896463 0.1217563 0.8656966 0.120526 0.8697 0.120526 0.9003589 0.08975958 0.9003589 0.1217563 0.9215173 0.1217563 0.8485417 0.1826392 0.8485417 0.1826392 0.8485417 0.2037975 0.8697 0.2037975 0.9003589 0.2037975 0.9003589 0.1826392 0.9215173 0.1826392 0.8485417 0.120526 0.8697 0.08975958 0.8697 0.08975958 0.8485417 0.08975958 0.9003589 0.120526 0.9003589 0.120526 0.9215173 0.1217563 0.896463 0.1826392 0.896463 0.1826392 0.8656966 0.8882517 0.5199477 0.8882517 0.5708715 0.9124674 0.5708715 0.8936885 0.5708715 0.8652212 0.5708715 0.8652212 0.5199477 0.9032179 0.5708715 0.8732856 0.5708715 0.8732856 0.5199477 0.8937413 0.2165347 0.9105178 0.2681677 0.8665962 0.3000786 0.8665962 0.3000786 0.8226745 0.2681677 0.8394511 0.2165347 0.8652212 0.5708715 0.8936885 0.5708715 0.8936885 0.5199477 0.864036 0.5199477 0.864036 0.5708715 0.8882517 0.5708715 0.8882517 0.5199477 0.9124674 0.5199477 0.9124674 0.5708715 0.8652212 0.5199477 0.8652212 0.5708715 0.8936885 0.5708715 0.8732856 0.5199477 0.8732856 0.5708715 0.9032179 0.5708715 0.8665962 0.3000786 0.9105178 0.2681677 0.8226745 0.2681677 0.9105178 0.2681677 0.8937413 0.2165347 0.8226745 0.2681677 0.8936885 0.5199477 0.8936885 0.5708715 0.8652212 0.5708715 0.8882517 0.5199477 0.8882517 0.5708715 0.864036 0.5708715 0.9124674 0.5199477 0.9124674 0.5708715 0.8882517 0.5708715 0.8652212 0.5199477 0.8652212 0.5708715 0.8936885 0.5708715 0.8732856 0.5199477 0.8732856 0.5708715 0.9032179 0.5708715 0.8665962 0.3000786 0.9105178 0.2681677 0.8226745 0.2681677 0.9105178 0.2681677 0.8937413 0.2165347 0.8226745 0.2681677 0.8936885 0.5199477 0.8936885 0.5708715 0.8652212 0.5708715 0.8882517 0.5199477 0.8882517 0.5708715 0.864036 0.5708715 0.8882517 0.5708715 0.9124674 0.5708715 0.9124674 0.5199477 0.8936885 0.5708715 0.8652212 0.5708715 0.8652212 0.5199477 0.9032179 0.5708715 0.8732856 0.5708715 0.8732856 0.5199477 0.8937413 0.2165347 0.9105178 0.2681677 0.8394511 0.2165347 0.9105178 0.2681677 0.8665962 0.3000786 0.8394511 0.2165347 0.8652212 0.5708715 0.8936885 0.5708715 0.8936885 0.5199477 0.864036 0.5708715 0.8882517 0.5708715 0.8882517 0.5199477 0.4019106 0.07025283 0.4019106 0.2506232 0.3858483 0.2506232 0.335904 0.7069012 0.4328268 0.7069011 0.4328268 0.7229635 0.4432548 0.7727282 0.4281316 0.8336851 0.3845922 0.8336851 0.4328268 0.7354391 0.335904 0.7354392 0.335904 0.7515015 0.4589866 0.6501556 0.4589866 0.4697852 0.4429243 0.4697852 0.4019106 0.2506232 0.4019106 0.2711113 0.3858483 0.2711113 0.4429243 0.6501556 0.4429243 0.6706436 0.4589866 0.6706436 0.4429243 0.4492971 0.4429243 0.4697852 0.4589866 0.4697852 0.3858483 0.07025283 0.3858483 0.04976469 0.4019106 0.04976469 0.3845922 0.8336851 0.4281316 0.8336851 0.4373353 0.8428887 0.4373353 0.8428887 0.4373353 0.9239142 0.3753887 0.9239142 0.4373353 0.9239142 0.4281316 0.9331179 0.3753887 0.9239142 0.4281316 0.9331179 0.3845923 0.9331179 0.3753887 0.9239142 0.3753887 0.9239142 0.3753887 0.8428887 0.4373353 0.8428887 0.4432548 0.9940747 0.3463321 0.9940747 0.3845923 0.9331179 0.463743 0.9735866 0.4373353 0.9239142 0.4373353 0.8428887 0.325844 0.7932163 0.3463321 0.7727282 0.3845922 0.8336851 0.325844 0.9735866 0.325844 0.7932163 0.3753887 0.8428887 0.463743 0.7932163 0.4373353 0.8428887 0.4281316 0.8336851 0.463743 0.9735866 0.4432548 0.9940747 0.4281316 0.9331179 0.325844 0.9735866 0.3753887 0.9239142 0.3845923 0.9331179 0.4257635 0.5422226 0.4140123 0.5422226 0.4117056 0.5258576 0.6256973 0.8683139 0.6968749 0.8683139 0.6991817 0.8846789 0.3972254 0.6801564 0.3995324 0.6637914 0.3831675 0.6637914 0.7301692 0.4589866 0.7324762 0.4426217 0.6566849 0.4426217 0.4163193 0.2853803 0.4163193 0.2142027 0.4280704 0.2142027 0.9106291 0.5635504 0.9203479 0.5356841 0.8655885 0.5356841 0.9106292 0.5635504 0.9203479 0.5356841 0.8655885 0.5356841 0.8655885 0.5356841 0.9203479 0.5356841 0.9106291 0.5635504 0.8655885 0.5356841 0.9203479 0.5356841 0.9106291 0.5635504 0.8753072 0.5319561 0.8753072 0.5672781 0.9106292 0.5672781 0.9203479 0.5222375 0.9203479 0.5769969 0.8655885 0.5769969 0.9106291 0.5635504 0.8753072 0.5635504 0.8655885 0.5356841 0.9106292 0.5635504 0.8753072 0.5635504 0.8655885 0.5356841 0.9106291 0.5635504 0.9203479 0.5356841 0.8655885 0.5356841 0.9106291 0.5635504 0.9203479 0.5356841 0.8655885 0.5356841 0.9106292 0.5672781 0.8753072 0.5672781 0.8753072 0.5319561 0.8655885 0.5769969 0.9203479 0.5769969 0.9203479 0.5222375 0.9106291 0.5635504 0.8753072 0.5635504 0.8655885 0.5356841 0.9106292 0.5635504 0.8753072 0.5635504 0.8655885 0.5356841 0.9106291 0.5635504 0.9203479 0.5356841 0.8655885 0.5356841 0.9106291 0.5635504 0.9203479 0.5356841 0.8655885 0.5356841 0.9106292 0.5672781 0.8753072 0.5672781 0.8753072 0.5319561 0.8655885 0.5769969 0.9203479 0.5769969 0.9203479 0.5222375 0.9106291 0.5635504 0.9203479 0.5356841 0.8655885 0.5356841 0.9106292 0.5635504 0.9203479 0.5356841 0.8655885 0.5356841 0.8655885 0.5356841 0.9203479 0.5356841 0.9106291 0.5635504 0.8655885 0.5356841 0.9203479 0.5356841 0.9106291 0.5635504 0.8753072 0.5319561 0.8753072 0.5672781 0.9106292 0.5672781 0.9203479 0.5222375 0.9203479 0.5769969 0.8655885 0.5769969 0.9272723 0.07742869 0.9698085 0.0417003 0.9698085 0.1420898 0.9698085 0.1420898 0.8814734 0.1734985 0.898731 0.1298552 0.898731 0.1298552 0.8814734 0.1734985 0.8299496 0.1004141 0.8747882 0.1027271 0.8299496 0.1004141 0.8763443 0.02907085 0.8925115 0.06816405 0.8763443 0.02907085 0.9698085 0.0417003 0.8925115 0.06816405 0.9272723 0.07742869 0.9306424 0.1123756 0.9306424 0.1123756 0.898731 0.1298552 0.8925115 0.06816405 0.8950169 0.1306736 0.9285443 0.1154032 0.971484 0.1466091 0.9335286 0.08008599 0.9702952 0.04607677 0.971484 0.1466091 0.9335286 0.08008599 0.8989464 0.0679531 0.8771778 0.0254057 0.8989464 0.0679531 0.8750786 0.09830576 0.830082 0.1039479 0.8750786 0.09830576 0.8950169 0.1306736 0.8831166 0.170564 0.9285443 0.1154032 0.8950169 0.1306736 0.9335286 0.08008599 0.8950169 0.1306736 0.8750786 0.09830576 0.9335286 0.08008599 0.9287541 0.07701462 0.9727507 0.04005974 0.9727507 0.1438955 0.9727507 0.1438955 0.8813829 0.1763824 0.8992331 0.1312409 0.8992331 0.1312409 0.8813829 0.1763824 0.8280905 0.1007891 0.8744683 0.1031815 0.8280905 0.1007891 0.8760779 0.02699673 0.8928 0.06743198 0.8760779 0.02699673 0.9727507 0.04005974 0.8928 0.06743198 0.9287541 0.07701462 0.93224 0.1131613 0.93224 0.1131613 0.8992331 0.1312409 0.8928 0.06743198 0.2975618 0.4331742 0.3109773 0.4331742 0.3109773 0.1659189 0.3005738 0.4331742 0.2848029 0.4331742 0.2848029 0.1659189 0.3058531 0.4331742 0.2892706 0.4331742 0.2892706 0.1659189 0.2848029 0.1659189 0.2848029 0.4331742 0.3005738 0.4331742 0.2841463 0.4331742 0.2975618 0.4331742 0.2975618 0.1659189</float_array>
          <technique_common>
            <accessor source="#Icecream_Machine-mesh-map-0-array" count="1353" stride="2">
              <param name="S" type="float"/>
              <param name="T" type="float"/>
            </accessor>
          </technique_common>
        </source>
        <vertices id="Icecream_Machine-mesh-vertices">
          <input semantic="POSITION" source="#Icecream_Machine-mesh-positions"/>
        </vertices>
        <triangles material="Icecream_Machine-material" count="451">
          <input semantic="VERTEX" source="#Icecream_Machine-mesh-vertices" offset="0"/>
          <input semantic="NORMAL" source="#Icecream_Machine-mesh-normals" offset="1"/>
          <input semantic="TEXCOORD" source="#Icecream_Machine-mesh-map-0" offset="2" set="0"/>
          <p>19 0 0 9 1 1 27 2 2 3 3 3 10 3 4 9 3 5 7 3 6 14 3 7 10 3 8 5 4 9 8 4 10 11 4 11 17 5 12 4 6 13 0 7 14 18 8 15 5 9 16 23 10 17 11 4 18 35 4 19 34 4 20 49 11 21 11 12 22 34 13 23 9 3 24 33 3 25 32 3 26 29 14 27 15 15 28 31 16 29 5 9 30 29 17 31 23 10 32 10 18 33 30 18 34 24 18 35 11 4 36 13 4 37 5 4 38 11 18 39 31 18 40 15 18 41 24 18 42 31 18 43 25 18 44 7 19 45 28 20 46 12 21 47 23 10 48 28 20 49 22 22 50 14 23 51 28 24 52 30 25 53 28 24 54 31 16 55 30 25 56 37 26 57 9 1 58 32 27 59 8 28 60 36 29 61 35 30 62 26 31 63 37 26 64 36 29 65 24 32 66 49 11 67 48 33 68 7 19 69 19 34 70 22 22 71 19 34 72 23 10 73 22 22 74 6 35 75 16 36 76 2 37 77 21 38 78 17 5 79 16 36 80 8 28 81 18 39 82 26 31 83 18 39 84 27 2 85 26 31 86 38 3 87 42 40 88 21 3 89 33 41 90 21 42 91 6 43 92 36 29 93 16 44 94 17 45 95 35 30 96 17 45 97 0 46 98 16 44 99 32 27 100 2 47 101 32 3 102 6 3 103 2 3 104 20 48 105 34 13 106 4 49 107 34 4 108 0 4 109 4 4 110 20 4 111 46 50 112 39 4 113 43 51 114 40 52 115 21 38 116 47 53 117 44 54 118 39 55 119 43 56 120 45 57 121 44 58 122 41 59 123 47 60 124 46 50 125 44 58 126 40 61 127 43 56 128 48 33 129 39 62 130 38 63 131 10 64 132 24 32 133 48 33 134 60 65 135 50 66 136 59 67 137 64 68 138 58 69 139 63 70 140 64 71 141 72 72 142 61 73 143 52 74 144 54 75 145 51 76 146 56 77 147 62 78 148 55 79 149 53 80 150 51 76 151 50 66 152 55 79 153 57 81 154 56 77 155 63 70 156 65 82 157 64 68 158 59 67 159 61 83 160 60 65 161 73 84 162 72 72 163 70 85 164 57 86 165 67 87 166 68 88 167 56 89 168 70 85 169 65 90 170 60 91 171 72 72 172 73 84 173 53 92 174 73 84 175 66 93 176 65 90 177 71 94 178 64 71 179 56 89 180 68 88 181 69 95 182 53 92 183 67 87 184 52 96 185 74 97 186 77 98 187 75 99 188 76 100 189 81 101 190 77 102 191 78 103 192 81 104 193 80 105 194 74 106 195 79 107 196 78 108 197 74 109 198 80 109 199 76 109 200 94 110 201 96 111 202 92 112 203 101 113 204 87 114 205 86 115 206 93 116 207 87 109 208 99 117 209 89 118 210 105 119 211 103 120 212 86 115 213 103 120 214 101 113 215 91 121 216 84 122 217 83 123 218 85 18 219 105 119 220 88 18 221 97 124 222 85 125 223 84 122 224 98 126 225 101 113 226 100 127 227 104 128 228 103 120 229 105 119 230 92 112 231 91 121 232 93 116 233 94 110 234 97 124 235 96 129 236 92 112 237 99 117 238 98 126 239 97 124 240 90 130 241 96 129 242 103 120 243 100 127 244 101 113 245 95 131 246 104 128 247 105 119 248 83 123 249 93 116 250 91 121 251 113 4 252 107 4 253 106 4 254 109 109 255 113 132 256 116 133 257 117 134 258 111 135 259 114 136 260 117 3 261 114 3 262 115 3 263 115 137 264 111 135 265 110 138 266 113 132 267 117 134 268 116 133 269 115 137 270 106 18 271 108 18 272 125 3 273 124 3 274 123 3 275 125 133 276 121 109 277 128 139 278 123 140 279 129 134 280 126 141 281 128 4 282 121 4 283 127 4 284 123 140 285 127 142 286 122 143 287 129 134 288 125 133 289 128 139 290 118 18 291 127 142 292 120 18 293 137 4 294 131 4 295 130 4 296 133 109 297 137 144 298 140 145 299 141 146 300 135 147 301 138 148 302 141 3 303 138 3 304 139 3 305 139 149 306 135 147 307 134 150 308 137 144 309 141 146 310 140 145 311 139 149 312 130 18 313 132 18 314 149 3 315 148 3 316 147 3 317 149 151 318 145 109 319 152 152 320 147 153 321 153 154 322 150 155 323 152 4 324 145 4 325 151 4 326 147 153 327 151 156 328 146 150 329 153 154 330 149 151 331 152 152 332 142 18 333 151 156 334 144 18 335 154 157 336 157 158 337 156 159 338 157 160 339 158 161 340 156 162 341 159 4 342 160 4 343 158 4 344 155 163 345 161 164 346 159 165 347 161 166 348 162 167 349 160 168 350 162 169 351 155 170 352 154 171 353 164 172 354 167 173 355 165 174 356 168 175 357 167 176 358 166 177 359 170 3 360 169 3 361 168 3 362 169 178 363 171 179 364 173 180 365 172 181 366 171 182 367 170 183 368 164 184 369 173 185 370 172 186 371 176 187 372 175 188 373 174 171 374 178 189 375 177 190 376 176 191 377 180 4 378 179 4 379 178 4 380 179 192 381 181 193 382 183 194 383 182 195 384 181 196 385 180 197 386 174 198 387 183 199 388 182 200 389 185 184 390 186 185 391 184 201 392 187 202 393 188 203 394 186 204 395 189 3 396 190 3 397 188 3 398 185 193 399 193 193 400 191 193 401 191 205 402 192 206 403 190 207 404 193 208 405 184 209 406 192 210 407 204 65 408 194 211 409 203 212 410 208 213 411 202 214 412 207 215 413 208 216 414 216 217 415 205 218 416 196 74 417 198 219 418 195 220 419 200 221 420 206 222 421 199 223 422 197 224 423 195 220 424 194 211 425 199 223 426 201 225 427 200 221 428 207 215 429 209 226 430 208 213 431 203 212 432 205 227 433 204 65 434 217 228 435 216 217 436 214 229 437 201 230 438 211 231 439 212 232 440 200 233 441 214 229 442 209 234 443 204 235 444 216 217 445 217 228 446 197 236 447 217 228 448 210 237 449 209 234 450 215 238 451 208 216 452 200 233 453 212 232 454 213 239 455 197 236 456 211 231 457 196 240 458 218 241 459 221 241 460 219 242 461 220 243 462 225 244 463 221 245 464 222 246 465 225 247 466 224 247 467 218 248 468 223 249 469 222 250 470 218 109 471 224 109 472 220 109 473 226 251 474 229 252 475 228 253 476 228 254 477 233 255 478 232 256 479 233 257 480 230 258 481 232 259 482 231 260 483 226 261 484 230 262 485 232 18 486 226 18 487 228 18 488 229 109 489 231 109 490 233 109 491 234 263 492 237 264 493 235 265 494 236 266 495 241 267 496 237 268 497 238 269 498 241 270 499 240 271 500 234 272 501 239 273 502 238 274 503 234 18 504 240 18 505 236 18 506 239 109 507 237 109 508 241 109 509 242 275 510 245 276 511 243 277 512 244 278 513 249 279 514 245 280 515 246 281 516 249 282 517 248 283 518 242 284 519 247 285 520 246 286 521 242 18 522 248 18 523 244 18 524 247 109 525 245 109 526 249 109 527 250 287 528 253 288 529 252 289 530 252 290 531 257 291 532 256 292 533 257 293 534 254 294 535 256 295 536 255 296 537 250 297 538 254 298 539 256 18 540 250 18 541 252 18 542 253 109 543 255 109 544 257 109 545 258 299 546 261 300 547 260 301 548 261 302 549 262 303 550 260 304 551 262 305 552 265 306 553 264 307 554 264 308 555 267 309 556 266 310 557 266 311 558 259 312 559 258 313 560 262 18 561 264 18 562 266 18 563 268 314 564 271 315 565 269 316 566 272 317 567 271 318 568 270 319 569 272 320 570 275 321 571 273 322 572 274 323 573 277 324 574 275 325 575 276 326 576 269 327 577 277 328 578 276 329 579 274 18 580 272 330 581 278 331 582 281 332 583 280 333 584 281 334 585 282 335 586 280 336 587 282 337 588 285 338 589 284 339 590 284 340 591 287 341 592 286 342 593 286 343 594 279 344 595 278 345 596 282 18 597 284 18 598 286 18 599 289 346 600 290 347 601 288 348 602 291 349 603 292 350 604 290 351 605 293 352 606 294 352 607 292 352 608 294 353 609 297 354 610 296 355 611 297 356 612 288 357 613 296 358 614 19 0 615 3 359 616 9 1 617 3 3 618 7 3 619 10 3 620 7 3 621 12 3 622 14 3 623 5 4 624 1 4 625 8 4 626 17 5 627 20 360 628 4 6 629 18 8 630 1 361 631 5 9 632 11 4 633 8 4 634 35 4 635 34 13 636 39 62 637 49 11 638 49 11 639 25 362 640 11 12 641 9 3 642 10 3 643 33 3 644 29 14 645 13 193 646 15 15 647 5 9 648 13 363 649 29 17 650 10 18 651 14 18 652 30 18 653 11 4 654 15 4 655 13 4 656 11 18 657 25 18 658 31 18 659 24 18 660 30 18 661 31 18 662 7 19 663 22 22 664 28 20 665 23 10 666 29 17 667 28 20 668 14 23 669 12 364 670 28 24 671 28 24 672 29 14 673 31 16 674 37 26 675 27 2 676 9 1 677 8 28 678 26 31 679 36 29 680 26 31 681 27 2 682 37 26 683 24 32 684 25 362 685 49 11 686 7 19 687 3 365 688 19 34 689 19 34 690 18 8 691 23 10 692 6 35 693 21 38 694 16 36 695 21 38 696 20 360 697 17 5 698 8 28 699 1 366 700 18 39 701 18 39 702 19 0 703 27 2 704 38 3 705 45 57 706 42 40 707 33 41 708 38 63 709 21 42 710 36 29 711 37 26 712 16 44 713 35 30 714 36 29 715 17 45 716 16 44 717 37 26 718 32 27 719 32 3 720 33 3 721 6 3 722 20 48 723 39 62 724 34 13 725 34 4 726 35 4 727 0 4 728 20 4 729 41 59 730 46 50 731 41 18 732 20 360 733 40 52 734 20 360 735 21 38 736 40 52 737 21 38 738 42 18 739 43 51 740 45 109 741 38 367 742 44 54 743 38 367 744 39 55 745 44 54 746 39 55 747 46 109 748 47 53 749 43 56 750 42 40 751 45 57 752 41 59 753 40 61 754 47 60 755 44 58 756 47 60 757 40 61 758 48 33 759 49 11 760 39 62 761 38 63 762 33 41 763 48 33 764 33 41 765 10 64 766 48 33 767 60 65 768 53 80 769 50 66 770 64 68 771 61 83 772 58 69 773 64 71 774 71 94 775 72 72 776 52 74 777 57 81 778 54 75 779 56 77 780 65 82 781 62 78 782 53 80 783 52 74 784 51 76 785 55 79 786 54 75 787 57 81 788 63 70 789 62 78 790 65 82 791 59 67 792 58 69 793 61 83 794 72 72 795 71 94 796 70 85 797 70 85 798 69 95 799 66 93 800 69 95 801 68 88 802 66 93 803 68 88 804 67 87 805 66 93 806 66 93 807 73 84 808 70 85 809 57 86 810 52 96 811 67 87 812 56 89 813 69 95 814 70 85 815 60 91 816 61 73 817 72 72 818 53 92 819 60 91 820 73 84 821 65 90 822 70 85 823 71 94 824 56 89 825 57 86 826 68 88 827 53 92 828 66 93 829 67 87 830 74 97 831 76 368 832 77 98 833 76 100 834 80 369 835 81 101 836 78 103 837 79 370 838 81 104 839 74 106 840 75 371 841 79 107 842 74 109 843 78 109 844 80 109 845 96 111 846 90 372 847 92 112 848 92 112 849 98 126 850 104 128 851 98 126 852 100 193 853 104 128 854 100 193 855 102 193 856 104 128 857 104 128 858 94 110 859 92 112 860 101 113 861 99 117 862 87 114 863 93 116 864 82 109 865 87 109 866 89 118 867 88 373 868 105 119 869 86 115 870 89 118 871 103 120 872 91 121 873 97 124 874 84 122 875 85 18 876 95 131 877 105 119 878 97 124 879 95 131 880 85 125 881 98 126 882 99 117 883 101 113 884 104 128 885 102 374 886 103 120 887 92 112 888 90 130 889 91 121 890 94 110 891 95 131 892 97 124 893 92 112 894 93 116 895 99 117 896 97 124 897 91 121 898 90 130 899 103 120 900 102 374 901 100 127 902 95 131 903 94 110 904 104 128 905 83 123 906 82 375 907 93 116 908 106 4 909 110 4 910 113 4 911 110 4 912 111 4 913 113 4 914 111 4 915 112 4 916 113 4 917 109 109 918 107 109 919 113 132 920 117 134 921 112 134 922 111 135 923 115 3 924 108 3 925 109 3 926 109 3 927 116 3 928 115 3 929 116 3 930 117 3 931 115 3 932 115 137 933 114 136 934 111 135 935 113 132 936 112 134 937 117 134 938 115 137 939 110 138 940 106 18 941 123 3 942 122 3 943 125 3 944 122 3 945 118 3 946 125 3 947 118 3 948 119 3 949 125 3 950 125 133 951 119 109 952 121 109 953 123 140 954 124 376 955 129 134 956 121 4 957 120 4 958 127 4 959 127 4 960 126 4 961 129 4 962 129 4 963 128 4 964 127 4 965 123 140 966 126 141 967 127 142 968 129 134 969 124 376 970 125 133 971 118 18 972 122 143 973 127 142 974 130 4 975 134 4 976 137 4 977 134 4 978 135 4 979 137 4 980 135 4 981 136 4 982 137 4 983 133 109 984 131 109 985 137 144 986 141 146 987 136 377 988 135 147 989 139 3 990 132 3 991 133 3 992 133 3 993 140 3 994 139 3 995 140 3 996 141 3 997 139 3 998 139 149 999 138 148 1000 135 147 1001 137 144 1002 136 377 1003 141 146 1004 139 149 1005 134 150 1006 130 18 1007 147 3 1008 146 3 1009 149 3 1010 146 3 1011 142 3 1012 149 3 1013 142 3 1014 143 3 1015 149 3 1016 149 151 1017 143 109 1018 145 109 1019 147 153 1020 148 378 1021 153 154 1022 145 4 1023 144 4 1024 151 4 1025 151 4 1026 150 4 1027 153 4 1028 153 4 1029 152 4 1030 151 4 1031 147 153 1032 150 155 1033 151 156 1034 153 154 1035 148 378 1036 149 151 1037 142 18 1038 146 150 1039 151 156 1040 154 157 1041 155 379 1042 157 158 1043 157 160 1044 159 380 1045 158 161 1046 159 4 1047 161 4 1048 160 4 1049 159 165 1050 157 193 1051 155 163 1052 155 163 1053 163 179 1054 161 164 1055 161 166 1056 163 381 1057 162 167 1058 162 169 1059 163 382 1060 155 170 1061 164 172 1062 166 383 1063 167 173 1064 168 175 1065 169 384 1066 167 176 1067 170 3 1068 171 3 1069 169 3 1070 165 193 1071 167 193 1072 173 180 1073 167 193 1074 169 178 1075 173 180 1076 172 181 1077 173 204 1078 171 182 1079 164 184 1080 165 201 1081 173 185 1082 176 187 1083 177 385 1084 175 188 1085 178 189 1086 179 386 1087 177 190 1088 180 4 1089 181 4 1090 179 4 1091 175 193 1092 177 387 1093 183 194 1094 177 387 1095 179 192 1096 183 194 1097 182 195 1098 183 388 1099 181 196 1100 174 198 1101 175 379 1102 183 199 1103 185 184 1104 187 186 1105 186 185 1106 187 202 1107 189 389 1108 188 203 1109 189 3 1110 191 3 1111 190 3 1112 189 193 1113 187 193 1114 191 193 1115 187 193 1116 185 193 1117 191 193 1118 191 205 1119 193 390 1120 192 206 1121 193 208 1122 185 174 1123 184 209 1124 204 65 1125 197 224 1126 194 211 1127 208 213 1128 205 227 1129 202 214 1130 208 216 1131 215 238 1132 216 217 1133 196 74 1134 201 225 1135 198 219 1136 200 221 1137 209 226 1138 206 222 1139 197 224 1140 196 74 1141 195 220 1142 199 223 1143 198 219 1144 201 225 1145 207 215 1146 206 222 1147 209 226 1148 203 212 1149 202 214 1150 205 227 1151 216 217 1152 215 238 1153 214 229 1154 214 229 1155 213 239 1156 210 237 1157 213 239 1158 212 232 1159 210 237 1160 212 232 1161 211 231 1162 210 237 1163 210 237 1164 217 228 1165 214 229 1166 201 230 1167 196 240 1168 211 231 1169 200 233 1170 213 239 1171 214 229 1172 204 235 1173 205 218 1174 216 217 1175 197 236 1176 204 235 1177 217 228 1178 209 234 1179 214 229 1180 215 238 1181 200 233 1182 201 230 1183 212 232 1184 197 236 1185 210 237 1186 211 231 1187 218 241 1188 220 98 1189 221 241 1190 220 243 1191 224 391 1192 225 244 1193 222 246 1194 223 392 1195 225 247 1196 218 248 1197 219 393 1198 223 249 1199 218 109 1200 222 109 1201 224 109 1202 226 251 1203 227 394 1204 229 252 1205 228 254 1206 229 395 1207 233 255 1208 233 257 1209 231 396 1210 230 258 1211 231 260 1212 227 397 1213 226 261 1214 232 18 1215 230 18 1216 226 18 1217 229 109 1218 227 109 1219 231 109 1220 234 263 1221 236 398 1222 237 264 1223 236 266 1224 240 254 1225 241 267 1226 238 269 1227 239 399 1228 241 270 1229 234 272 1230 235 400 1231 239 273 1232 234 18 1233 238 18 1234 240 18 1235 239 109 1236 235 109 1237 237 109 1238 242 275 1239 244 401 1240 245 276 1241 244 278 1242 248 402 1243 249 279 1244 246 281 1245 247 403 1246 249 282 1247 242 284 1248 243 404 1249 247 285 1250 242 18 1251 246 18 1252 248 18 1253 247 109 1254 243 109 1255 245 109 1256 250 287 1257 251 405 1258 253 288 1259 252 290 1260 253 406 1261 257 291 1262 257 293 1263 255 407 1264 254 294 1265 255 296 1266 251 408 1267 250 297 1268 256 18 1269 254 18 1270 250 18 1271 253 109 1272 251 109 1273 255 109 1274 258 299 1275 259 409 1276 261 300 1277 261 302 1278 263 410 1279 262 303 1280 262 305 1281 263 411 1282 265 306 1283 264 308 1284 265 412 1285 267 309 1286 266 311 1287 267 413 1288 259 312 1289 266 18 1290 258 18 1291 260 18 1292 260 18 1293 262 18 1294 266 18 1295 268 314 1296 270 414 1297 271 315 1298 272 317 1299 273 415 1300 271 318 1301 272 320 1302 274 416 1303 275 321 1304 274 323 1305 276 417 1306 277 324 1307 276 326 1308 268 418 1309 269 327 1310 270 419 1311 268 420 1312 272 330 1313 268 420 1314 276 329 1315 272 330 1316 278 331 1317 279 421 1318 281 332 1319 281 334 1320 283 422 1321 282 335 1322 282 337 1323 283 423 1324 285 338 1325 284 340 1326 285 424 1327 287 341 1328 286 343 1329 287 425 1330 279 344 1331 286 18 1332 278 18 1333 280 18 1334 280 18 1335 282 18 1336 286 18 1337 289 346 1338 291 426 1339 290 347 1340 291 349 1341 293 427 1342 292 350 1343 293 352 1344 295 352 1345 294 352 1346 294 353 1347 295 428 1348 297 354 1349 297 356 1350 289 429 1351 288 357 1352</p>
        </triangles>
      </mesh>
    </geometry>
  </library_geometries>
  <library_visual_scenes>
    <visual_scene id="Scene" name="Scene">
      <node id="Icecream_Machine" name="Icecream_Machine" type="NODE">
        <matrix sid="transform">9.85454e-9 0.8263844 0 0 -0.8263844 9.85454e-9 0 0 0 0 0.8263844 0 0 0 0 1</matrix>
        <instance_geometry url="#Icecream_Machine-mesh" name="Icecream_Machine">
          <bind_material>
            <technique_common>
              <instance_material symbol="Icecream_Machine-material" target="#Icecream_Machine-material">
                <bind_vertex_input semantic="UVMap" input_semantic="TEXCOORD" input_set="0"/>
              </instance_material>
            </technique_common>
          </bind_material>
        </instance_geometry>
      </node>
    </visual_scene>
  </library_visual_scenes>
  <scene>
    <instance_visual_scene url="#Scene"/>
  </scene>
</COLLADA>