<?xml version="1.0" encoding="utf-8"?>
<COLLADA xmlns="http://www.collada.org/2005/11/COLLADASchema" version="1.4.1" xmlns:xsi="http://www.w3.org/2001/XMLSchema-instance">
  <asset>
    <contributor>
      <author>Blender User</author>
      <authoring_tool>Blender 4.0.1 commit date:2023-11-16, commit time:16:40, hash:d0dd92834a08</authoring_tool>
    </contributor>
    <created>2023-11-28T13:16:53</created>
    <modified>2023-11-28T13:16:53</modified>
    <unit name="meter" meter="1"/>
    <up_axis>Z_UP</up_axis>
  </asset>
  <library_effects>
    <effect id="cleaning_canister-effect">
      <profile_COMMON>
        <newparam sid="cleaning_canister-surface">
          <surface type="2D">
            <init_from>cleaning_canister</init_from>
          </surface>
        </newparam>
        <newparam sid="cleaning_canister-sampler">
          <sampler2D>
            <source>cleaning_canister-surface</source>
          </sampler2D>
        </newparam>
        <technique sid="common">
          <lambert>
            <emission>
              <color sid="emission">0 0 0 1</color>
            </emission>
            <diffuse>
              <texture texture="cleaning_canister-sampler" texcoord="UVMap"/>
            </diffuse>
            <index_of_refraction>
              <float sid="ior">1.45</float>
            </index_of_refraction>
          </lambert>
        </technique>
      </profile_COMMON>
    </effect>
  </library_effects>
  <library_images>
    <image id="cleaning_canister" name="cleaning_canister">
      <init_from>cleaning_canister.png</init_from>
    </image>
  </library_images>
  <library_materials>
    <material id="cleaning_canister-material" name="cleaning_canister">
      <instance_effect url="#cleaning_canister-effect"/>
    </material>
  </library_materials>
  <library_geometries>
    <geometry id="cleaning_canister_p-mesh" name="cleaning_canister_p">
      <mesh>
        <source id="cleaning_canister_p-mesh-positions">
          <float_array id="cleaning_canister_p-mesh-positions-array" count="75">-0.01174157 0.8108045 -0.9949517 0 0.8103733 1 0.7721061 0.2540829 -0.9697132 0.7707108 0.2504191 1 0.470233 -0.6618302 -0.9781866 0.4763254 -0.6556057 1 -0.4848971 -0.6505078 -1.015722 -0.4763254 -0.6556057 1 -0.77416 0.2476717 -1.030045 -0.7707108 0.2504191 1 -0.5810526 0.8122211 -2.567515 -0.02321779 0.2571046 -3.134274 -0.2396368 -0.6677964 -2.915902 -0.9064165 -0.6429566 -2.227806 -1.09591 0.2414633 -2.023803 -1.905554 0.811178 -3.246028 -1.936821 0.2546077 -4.035571 -1.926998 -0.6632544 -3.731959 -1.874822 -0.6470691 -2.770043 -1.850148 0.2445589 -2.482651 -21.86439 0.8476869 -3.262168 -21.86439 0.2619476 -4.068369 -21.86439 -0.6857982 -3.760428 -21.86439 -0.6857982 -2.763909 -21.86439 0.2619476 -2.455968</float_array>
          <technique_common>
            <accessor source="#cleaning_canister_p-mesh-positions-array" count="25" stride="3">
              <param name="X" type="float"/>
              <param name="Y" type="float"/>
              <param name="Z" type="float"/>
            </accessor>
          </technique_common>
        </source>
        <source id="cleaning_canister_p-mesh-normals">
          <float_array id="cleaning_canister_p-mesh-normals-array" count="129">0.5791193 0.8152365 -0.00323224 0.9497489 -0.313007 -0.001940131 -0.011756 -0.9999278 -0.002478897 -0.9518623 -0.3065192 0.002032101 -0.5941199 0.8043765 -7.91526e-5 0.8986509 -0.2883309 -0.3305935 -0.01111871 -0.9997864 0.01742577 -0.5892895 0.7862478 0.1858826 0.5710324 0.7946575 -0.2060134 -0.0247181 -0.9996209 0.01213306 -0.9105463 -0.2677468 0.3149874 8.90552e-4 -0.3090168 0.9510563 0.26876 0.8069827 -0.5258774 -0.4710777 -0.2587723 0.8432809 0.4090276 -0.2826252 -0.8676517 -0.3173873 0.7883569 0.5270282 -1 0 0 0.001451492 -0.309017 -0.9510554 0.001492202 0.8030269 0.5959412 0.0011307 -0.9999995 0 0.001960933 0.8172972 -0.5762131 0.5877842 0.8090156 0.001921176 0.9510566 -0.3090171 9.89428e-5 0 -0.9999951 0.003146529 -0.9510514 -0.3090154 0.003262758 -0.5877814 0.8090118 0.003634333 0.8980686 -0.2929564 -0.3280997 -0.01034629 -0.9996069 0.02605909 -0.60978 0.7610071 0.2214425 0.5742322 0.7913315 -0.2098853 -0.01176947 -0.9999285 -0.002136409 -0.9104036 -0.2884705 0.2965641 0.001002371 -0.3068048 0.951772 0.2639987 0.7833846 -0.5626841 -0.4975259 -0.2947794 0.8158268 0.4146928 -0.2998779 -0.8591293 -0.2990658 0.7557096 0.5826343 -1 4.03908e-6 0 -1 -2.49629e-6 0 0.001710712 -0.314029 -0.9494119 0.001004517 0.8090165 0.5877851 0.001942276 -0.9998584 0.0167185 0.001265406 0.8090164 -0.5877848</float_array>
          <technique_common>
            <accessor source="#cleaning_canister_p-mesh-normals-array" count="43" stride="3">
              <param name="X" type="float"/>
              <param name="Y" type="float"/>
              <param name="Z" type="float"/>
            </accessor>
          </technique_common>
        </source>
        <source id="cleaning_canister_p-mesh-map-0">
          <float_array id="cleaning_canister_p-mesh-map-0-array" count="258">0.8189898 0.5351356 0.8093737 0.5313661 0.8092505 0.5351929 0.8093737 0.5338951 0.8189898 0.5383362 0.8093324 0.5383666 0.8093324 0.5328398 0.8189898 0.5374609 0.8091491 0.5375028 0.8091491 0.5383113 0.8189898 0.533913 0.8090792 0.5339264 0.8189898 0.5388981 0.8092505 0.5351929 0.8090792 0.5389149 0.8093737 0.5338951 0.7998725 0.5383957 0.7988064 0.5338804 0.7998725 0.5363054 0.8005846 0.5442884 0.7958886 0.5445431 0.8092505 0.5351929 0.8042277 0.5404857 0.8090792 0.5389149 0.8093737 0.5313661 0.8015733 0.5379722 0.8092505 0.5351929 0.8093324 0.5328398 0.8032318 0.5395606 0.7998725 0.5363054 0.8091491 0.5383113 0.8042277 0.5339567 0.8032318 0.5382744 0.8109489 0.5442884 0.8153867 0.6418768 0.8107599 0.6418768 0.7988064 0.5352489 0.7982608 0.5444384 0.8015733 0.5379722 0.8109689 0.5395606 0.8153018 0.5441679 0.8109489 0.5442884 0.8153631 0.5352489 0.8108698 0.5445431 0.8153508 0.544591 0.8015733 0.5379722 0.8019876 0.5441679 0.8042277 0.5404857 0.7957496 0.5384836 0.8006145 0.5384836 0.8021179 0.5338567 0.8153508 0.544591 0.8107599 0.6418768 0.8153867 0.6418768 0.7982608 0.5444384 0.8021179 0.6418768 0.8019876 0.5441679 0.7958886 0.5445431 0.8006145 0.6418768 0.7957496 0.6418768 0.7944063 0.544591 0.798182 0.6418768 0.7982608 0.5444384 0.8189898 0.5351356 0.8189898 0.5313729 0.8093737 0.5313661 0.8093737 0.5338951 0.8189898 0.533913 0.8189898 0.5383362 0.8093324 0.5328398 0.8189898 0.5328101 0.8189898 0.5374609 0.8091491 0.5383113 0.8189898 0.5383362 0.8189898 0.533913 0.8189898 0.5388981 0.8189898 0.5351356 0.8092505 0.5351929 0.8093737 0.5338951 0.8093324 0.5383666 0.7998725 0.5383957 0.7998725 0.5363054 0.8032318 0.5395606 0.8005846 0.5442884 0.8092505 0.5351929 0.8015733 0.5379722 0.8042277 0.5404857 0.8093737 0.5313661 0.7988064 0.5352489 0.8015733 0.5379722 0.8093324 0.5328398 0.8091491 0.5375028 0.8032318 0.5395606 0.8091491 0.5383113 0.8090792 0.5339264 0.8042277 0.5339567 0.8109489 0.5442884 0.8153018 0.5441679 0.8153867 0.6418768 0.7988064 0.5352489 0.7944063 0.544591 0.7982608 0.5444384 0.8109689 0.5395606 0.8152866 0.5404857 0.8153018 0.5441679 0.8153631 0.5352489 0.8108477 0.5363054 0.8108698 0.5445431 0.8015733 0.5379722 0.7982608 0.5444384 0.8019876 0.5441679 0.8021179 0.5338567 0.798182 0.5309972 0.7942462 0.5338567 0.7942462 0.5338567 0.7957496 0.5384836 0.8021179 0.5338567 0.8153508 0.544591 0.8108698 0.5445431 0.8107599 0.6418768 0.7982608 0.5444384 0.798182 0.6418768 0.8021179 0.6418768 0.7958886 0.5445431 0.8005846 0.5442884 0.8006145 0.6418768 0.7944063 0.544591 0.7942462 0.6418768 0.798182 0.6418768</float_array>
          <technique_common>
            <accessor source="#cleaning_canister_p-mesh-map-0-array" count="129" stride="2">
              <param name="S" type="float"/>
              <param name="T" type="float"/>
            </accessor>
          </technique_common>
        </source>
        <vertices id="cleaning_canister_p-mesh-vertices">
          <input semantic="POSITION" source="#cleaning_canister_p-mesh-positions"/>
        </vertices>
        <triangles material="cleaning_canister-material" count="43">
          <input semantic="VERTEX" source="#cleaning_canister_p-mesh-vertices" offset="0"/>
          <input semantic="NORMAL" source="#cleaning_canister_p-mesh-normals" offset="1"/>
          <input semantic="TEXCOORD" source="#cleaning_canister_p-mesh-map-0" offset="2" set="0"/>
          <p>1 0 0 2 0 1 0 0 2 2 1 3 5 1 4 4 1 5 4 2 6 7 2 7 6 2 8 6 3 9 9 3 10 8 3 11 9 4 12 0 4 13 8 4 14 2 5 15 12 5 16 11 5 17 12 6 18 18 6 19 17 6 20 0 7 21 14 7 22 8 7 23 2 8 24 10 8 25 0 8 26 4 9 27 13 9 28 12 9 29 6 10 30 14 10 31 13 10 32 18 11 33 24 11 34 23 11 35 11 12 36 15 12 37 10 12 38 13 13 39 19 13 40 18 13 41 11 14 42 17 14 43 16 14 44 10 15 45 19 15 46 14 15 47 22 16 48 23 16 49 24 16 50 16 17 51 22 17 52 21 17 53 15 18 54 24 18 55 19 18 56 17 19 57 23 19 58 22 19 59 16 20 60 20 20 61 15 20 62 1 21 63 3 21 64 2 21 65 2 22 66 3 22 67 5 22 68 4 23 69 5 23 70 7 23 71 6 24 72 7 24 73 9 24 74 9 25 75 1 25 76 0 25 77 2 26 78 4 26 79 12 26 80 12 27 81 13 27 82 18 27 83 0 28 84 10 28 85 14 28 86 2 29 87 11 29 88 10 29 89 4 30 90 6 30 91 13 30 92 6 31 93 8 31 94 14 31 95 18 32 96 19 32 97 24 32 98 11 33 99 16 33 100 15 33 101 13 34 102 14 34 103 19 34 104 11 35 105 12 35 106 17 35 107 10 36 108 15 36 109 19 36 110 24 37 111 20 37 112 21 37 113 21 38 114 22 38 115 24 38 116 16 39 117 17 39 118 22 39 119 15 40 120 20 40 121 24 40 122 17 41 123 18 41 124 23 41 125 16 42 126 21 42 127 20 42 128</p>
        </triangles>
      </mesh>
    </geometry>
    <geometry id="cleaning_canister-mesh" name="cleaning_canister">
      <mesh>
        <source id="cleaning_canister-mesh-positions">
          <float_array id="cleaning_canister-mesh-positions-array" count="468">-0.1208639 -0.1494193 0.1381502 -0.09281307 -0.1822311 0.1381502 -0.1085656 0.1788797 0.1381502 -0.1413774 0.1460679 0.1381502 0.09281307 -0.1822311 0.1381502 0.1208639 -0.1494193 0.1381502 0.1413774 0.1460679 0.1381502 0.1085656 0.1788797 0.1381502 -0.064592 -0.1358898 -0.0904088 -0.07978928 -0.1669969 -0.06161236 -0.07777816 -0.1204657 -0.0904088 -0.1078401 -0.1341851 -0.06161254 -0.09419882 0.1067203 -0.0904088 -0.126143 0.1200543 -0.06161451 -0.07916003 0.1217591 -0.0904088 -0.09333121 0.152866 -0.06161516 0.07777816 -0.1204657 -0.0904088 0.1078401 -0.1341851 -0.06161254 0.064592 -0.1358898 -0.0904088 0.07978928 -0.1669969 -0.06161236 0.07916003 0.1217591 -0.0904088 0.09333115 0.152866 -0.06161516 0.09419882 0.1067204 -0.0904088 0.126143 0.1200543 -0.06161451 -0.1116808 -0.1455609 0.1390343 -0.08858507 -0.1732202 0.1391131 -0.1047378 0.1697605 0.1396297 -0.132162 0.142373 0.1393433 0.08858507 -0.1732202 0.1391131 0.1116808 -0.1455609 0.1390343 0.132162 0.142373 0.1393433 0.1047378 0.1697605 0.1396297 -0.06287252 -0.132091 -0.08131963 -0.07604169 -0.1587827 -0.05731314 -0.073973 -0.1189363 -0.08128839 -0.09945368 -0.1307877 -0.05735522 -0.0902791 0.1053094 -0.08131784 -0.1176781 0.1170392 -0.05722665 -0.07761007 0.1179204 -0.08130592 -0.08993542 0.1446295 -0.05707323 0.073973 -0.1189363 -0.08128839 0.09945368 -0.1307877 -0.05735522 0.06287258 -0.132091 -0.08131963 0.07604169 -0.1587827 -0.05731314 0.07761007 0.1179204 -0.08130592 0.08993542 0.1446295 -0.05707323 0.0902791 0.1053094 -0.08131784 0.1176781 0.1170392 -0.05722665 0.1128779 -0.1003489 0.1472585 0.09378552 -0.1004886 -0.07602322 0.09547674 -0.1771586 0.06993132 0.09547674 -0.1939932 -0.07657343 -0.108536 -0.1003478 0.147259 -0.09378552 -0.1004886 -0.07602322 -0.0920943 -0.1771586 0.06993132 -0.0920943 -0.1939932 -0.07657343 0.1060423 -0.2071871 0.2843929 0.1043264 -0.1003632 0.2849088 -0.09827035 -0.2071881 0.2843922 -0.09998631 -0.1003336 0.2849097 0.1132501 -0.06522285 0.1472588 -0.1081635 -0.06522172 0.1472586 0.1046253 -0.07217019 0.2849093 -0.09968763 -0.07217121 0.2849091 -0.0920943 -0.2480569 0.1004971 0.09547674 -0.2480569 0.1004971 -0.1071724 -0.2479487 0.2843592 0.1142857 -0.2479475 0.2843588 0.1147056 -0.194186 0.1470333 0.1142643 -0.2479487 0.144034 -0.1067079 -0.1941849 0.1425577 -0.1071487 -0.2479475 0.1412059 0.1147264 -0.2141353 0.2843593 0.1128988 -0.1003478 0.284909 -0.1067313 -0.2141364 0.2843587 -0.1085587 -0.100349 0.2849095 0.1132711 -0.06522178 0.2849093 -0.1081861 -0.06522285 0.2849091 0.1043263 -0.1000992 0.1566468 -0.09998643 -0.1000696 0.1566476 0.1060422 -0.2069231 0.1561309 -0.09827041 -0.2069241 0.1561303 0.1046252 -0.0719062 0.1566473 -0.09968775 -0.07190722 0.1566471 -0.09149497 0.1006568 -0.1419573 -0.09149497 0.084773 -0.08666366 -0.09149497 0.1195016 -0.1419573 -0.09149497 0.1139079 -0.08666366 -0.07266098 0.1006568 -0.1419573 -0.07266098 0.084773 -0.08666366 -0.07266098 0.1195016 -0.1419573 -0.07266098 0.1139079 -0.08666366 -0.08970665 0.1382835 -0.1352898 -0.07444924 0.1382835 -0.1352898 -0.08970665 0.1169654 -0.1646316 -0.07444924 0.1169654 -0.1646316 -0.08970665 0.08247214 -0.153424 -0.07444924 0.08247214 -0.153424 -0.08970665 0.08247214 -0.1171556 -0.07444924 0.08247214 -0.1171556 -0.08970665 0.1169654 -0.105948 -0.07444924 0.1169654 -0.105948 0.09149497 0.1006568 -0.1419573 0.09149497 0.08477294 -0.08666366 0.09149497 0.1195016 -0.1419573 0.09149497 0.1139078 -0.08666366 0.07266098 0.1006568 -0.1419573 0.07266098 0.08477294 -0.08666366 0.07266098 0.1195016 -0.1419573 0.07266098 0.1139078 -0.08666366 0.08970665 0.1382835 -0.1352898 0.0744493 0.1382835 -0.1352898 0.08970665 0.1169654 -0.1646316 0.0744493 0.1169654 -0.1646316 0.08970665 0.08247214 -0.153424 0.0744493 0.08247214 -0.153424 0.08970665 0.08247214 -0.1171556 0.0744493 0.08247214 -0.1171556 0.08970665 0.1169654 -0.105948 0.0744493 0.1169654 -0.105948 -0.09149497 -0.1674958 -0.1419573 -0.09149497 -0.1516119 -0.07486093 -0.09149497 -0.1863405 -0.1419573 -0.09149497 -0.1807468 -0.07486093 -0.07266098 -0.1674958 -0.1419573 -0.07266098 -0.1516119 -0.07486093 -0.07266098 -0.1863405 -0.1419573 -0.07266098 -0.1807468 -0.07486093 -0.08970665 -0.2051225 -0.1352898 -0.0744493 -0.2051225 -0.1352898 -0.08970665 -0.1838044 -0.1646316 -0.0744493 -0.1838044 -0.1646316 -0.08970665 -0.1493111 -0.153424 -0.0744493 -0.1493111 -0.153424 -0.08970665 -0.1493111 -0.1171556 -0.0744493 -0.1493111 -0.1171556 -0.08970665 -0.1838044 -0.105948 -0.0744493 -0.1838044 -0.105948 0.09149497 -0.1674957 -0.1419573 0.09149497 -0.1516119 -0.07486093 0.09149497 -0.1863405 -0.1419573 0.09149497 -0.1807468 -0.07486093 0.07266098 -0.1674957 -0.1419573 0.07266098 -0.1516119 -0.07486093 0.07266098 -0.1863405 -0.1419573 0.07266098 -0.1807468 -0.07486093 0.08970665 -0.2051224 -0.1352898 0.0744493 -0.2051224 -0.1352898 0.08970665 -0.1838044 -0.1646316 0.07444924 -0.1838044 -0.1646316 0.08970665 -0.149311 -0.153424 0.0744493 -0.149311 -0.153424 0.08970665 -0.149311 -0.1171556 0.0744493 -0.149311 -0.1171556 0.08970665 -0.1838044 -0.105948 0.0744493 -0.1838044 -0.105948</float_array>
          <technique_common>
            <accessor source="#cleaning_canister-mesh-positions-array" count="156" stride="3">
              <param name="X" type="float"/>
              <param name="Y" type="float"/>
              <param name="Z" type="float"/>
            </accessor>
          </technique_common>
        </source>
        <source id="cleaning_canister-mesh-normals">
          <float_array id="cleaning_canister-mesh-normals-array" count="630">-0.9182488 -0.3859676 -0.08859115 -0.8465734 0.3015952 -0.4385818 -0.8382455 -0.3400771 -0.4262536 0.9214438 0.3700133 -0.1184545 0.3395759 0.8236507 -0.4541894 0.3827803 0.9119169 -0.1479424 0.3747568 -0.8214151 -0.429924 0.9182488 -0.3859675 -0.08859115 0.422796 -0.9010955 -0.09628379 -0.3395761 0.8236505 -0.4541894 -0.9214438 0.3700133 -0.1184544 -0.3827803 0.9119169 -0.1479424 -0.3747568 -0.8214151 -0.429924 0.8465733 0.3015952 -0.4385818 0.8382455 -0.3400771 -0.4262537 -0.171947 -0.3798791 -0.9089148 -0.380356 -0.1529561 -0.9121041 -0.3920904 0.1411163 -0.9090387 -0.1549941 0.3838746 -0.9102841 0.3920903 0.1411164 -0.9090387 0.171947 -0.379879 -0.9089149 0.8441433 -0.3024841 0.4426347 0.9203593 0.3816362 0.08539617 0.8380172 0.3360818 0.429856 -0.9212059 -0.3714106 0.1159045 -0.3376165 -0.8229424 0.4569256 -0.8441432 -0.3024842 0.4426349 -0.9203594 0.3816364 0.08539617 -0.378235 0.8178308 0.4336949 -0.4276911 0.8990873 0.09339493 0.9212059 -0.3714107 0.1159045 0.3376166 -0.8229423 0.4569255 0.3812461 -0.9129785 0.1453332 0.3782348 0.8178309 0.4336947 -0.3812463 -0.9129784 0.1453332 0.4276912 0.8990871 0.09339493 0.1704501 0.3714607 0.9126685 0.3754791 0.148137 0.9149158 0.3856977 -0.1388378 0.9121192 0.1515858 -0.3792545 0.9127912 -0.3856976 -0.1388379 0.9121192 -0.1515858 -0.3792545 0.9127913 -0.1704502 0.3714607 0.9126685 -0.8380175 0.3360815 0.4298558 -0.3754796 0.1481372 0.9149155 -0.08344709 -0.03367042 0.9959433 -0.03963315 -0.0868355 0.995434 -0.08234614 -0.03222864 0.9960826 -0.05775988 0.133482 0.9893667 -0.1134179 0.0417034 0.9926719 -0.0599088 0.1353007 0.9889918 0.05775946 0.1334809 0.9893668 0.1134178 0.0417034 0.9926719 0.1115679 0.04230868 0.9928558 0.08344709 -0.03367042 0.9959433 0.03963315 -0.08683532 0.9954341 0.04040741 -0.08739662 0.9953538 -0.1115679 0.04230868 0.9928558 -0.04040735 -0.0873968 0.9953538 0.05990821 0.1352995 0.988992 0.08234614 -0.03222864 0.9960826 0.9859983 -0.07749092 -0.1476571 0.9991537 -0.030501 -0.02759969 0.9983625 -0.01666969 -0.05472332 0 -0.9934629 0.1141566 0 -0.9934629 0.1141566 -0.9890092 -0.08686649 -0.1196458 -0.9981553 -0.05773949 -0.01876479 -0.9998341 -0.01809585 0.002079367 2.76136e-6 0.9999999 -6.27808e-4 2.46971e-6 0.9999999 -6.2807e-4 0 0.9999998 -6.30291e-4 -1.83765e-6 -8.25923e-6 -1 4.35556e-7 7.00013e-6 -1 -2.12058e-6 -1.01584e-5 -1 0 0.005884647 -0.9999828 0 0.005884647 -0.9999828 0 0.005884647 -0.9999828 0.9999963 0.002728998 4.7463e-6 0.9999438 -0.01060479 -2.26969e-5 0.9999963 0.002723276 4.73526e-6 0.9999994 7.89446e-4 7.65564e-4 0.9776806 0.00332278 -0.2100707 0.9899979 -0.01012253 -0.1407189 0.9999942 0.003357529 5.67757e-4 -0.9924921 -0.01986277 -0.1206853 -0.9986762 -0.02883148 -0.04259991 -1.45116e-6 1 2.74554e-6 1.48508e-6 1 -1.99287e-6 5.04751e-6 1 -7.74181e-6 -0.9999438 0.01060479 -1.64422e-4 -0.9999941 -0.003336489 -8.72313e-4 -5.11178e-6 0.999998 0.002058327 -5.11154e-6 0.999998 0.002058267 -5.11208e-6 0.999998 0.002058386 0.9999439 -0.01059895 -1.51905e-4 -1.40437e-6 -1 -2.66001e-6 -5.69122e-6 -0.9999994 0.001166343 -1.4817e-5 -0.9999995 0.001054108 0 -0.395896 -0.9182954 0 -0.395896 -0.9182953 2.89094e-6 -0.002414286 0.9999971 -2.55299e-6 -1.12833e-5 1 -2.08445e-6 -0.002422511 0.9999971 -0.9599961 -0.04458022 -0.2764419 0.9452588 -0.06037825 -0.3206873 -0.9838554 0.01291888 -0.1784989 -0.9999991 -8.062e-4 -0.001059591 -1.74304e-6 -0.00483644 0.9999883 -2.12237e-5 -0.002424597 0.9999971 -2.48809e-5 -0.00242263 0.9999971 2.96038e-6 -0.004834949 0.9999883 -2.00229e-5 -0.002411067 0.9999971 -2.40119e-5 -0.002413034 0.9999971 -1.05295e-6 -4.22002e-6 1 3.08286e-6 4.82139e-6 1 3.1903e-7 4.48936e-6 1 -6.21625e-7 -0.002428412 0.9999971 1.62993e-6 -0.004838168 0.9999884 -2.80486e-6 -0.004829645 0.9999884 3.77096e-6 1.57935e-5 1 3.89641e-6 -0.002406954 0.9999972 0.9998711 0.01605695 3.21774e-5 -0.9999963 -0.002733528 -4.75589e-6 -0.9998711 -0.01605987 -3.21846e-5 -0.9999963 -0.002727448 -4.7427e-6 -0.9999439 0.01059913 2.26873e-5 5.00811e-6 -0.999998 -0.002058088 4.98715e-6 -0.999998 -0.002058148 4.96102e-6 -0.999998 -0.002058148 -1 0 0 0 0.9949219 0.1006502 1 0 0 0 -0.9611296 -0.2760975 0 0 -1 0 0.809017 -0.5877855 0 -0.3090171 -0.9510565 0 -1 0 1 -2.30048e-7 0 0 -0.3090171 0.9510565 0 0.8090171 0.5877852 0 0.9949219 0.1006506 0 0.8090172 -0.5877851 0 -0.3090172 -0.9510565 0 -0.3090172 0.9510565 1 0 0 0 -0.9965429 0.08308023 0 0.9731043 -0.2303649 0 -0.8090172 -0.5877851 0 0.3090172 -0.9510565 0 1 -1.86854e-7 1 0 2.05429e-7 0 0.3090172 0.9510565 0 -0.8090166 0.5877859 -1 0 0 0 -0.9965429 0.08307981 0 0.9731044 -0.2303648 0 -0.8090179 -0.5877841 0 0.3090166 -0.9510567 0 1 0 0 0.3090166 0.9510567 0 -0.8090172 0.5877851 1 -3.72225e-7 0 -0.4227958 -0.9010956 -0.09628373 0.1549939 0.3838745 -0.9102842 0.380356 -0.152956 -0.9121041 0.9998341 0.01809626 -0.002079367 0 -0.9934629 0.1141566 4.97885e-6 0.9999999 -6.25813e-4 7.18485e-7 8.89934e-6 -1 0 0.005884647 -0.9999827 0.9999439 -0.01060545 -2.26977e-5 0.9999151 -0.0130347 -1.52372e-4 -5.01288e-6 1 8.49332e-6 -0.9999439 0.01060467 -1.64285e-4 -5.11124e-6 0.9999979 0.002058148 0.9999439 -0.01059859 -1.51952e-4 0 -0.9999964 0.002687156 -3.34893e-5 -0.9999969 0.002521038 5.24837e-6 -1 7.6721e-6 1.52235e-6 1.49628e-5 1 -0.999915 0.01304411 -1.65226e-4 1.41574e-6 -4.40831e-6 1 -8.28282e-7 -1.79611e-5 1 0.9998711 0.01605713 3.21756e-5 -0.9998711 -0.01606005 -3.21844e-5 -0.9999439 0.01059949 2.26862e-5 5.03425e-6 -0.999998 -0.002058088 0 -0.9611296 -0.2760978 0 0.8090174 -0.5877848 0 -0.3090173 -0.9510565 1 0 0 0 -0.3090173 0.9510565 0 0.809017 0.5877855 0 0.8090174 -0.5877848 0 -0.3090172 -0.9510565 -1 -3.72225e-7 9.97172e-7 -1 0 0 1 3.72226e-7 0 0 0.9731044 -0.2303646 0 -0.8090165 -0.587786 0 0.3090172 -0.9510565 1 7.4445e-7 1.26962e-7 1 -2.30048e-7 1.26962e-7 0 -0.8090167 0.5877859 -1 3.72226e-7 0 0 -0.809017 -0.5877854 -1 3.72226e-7 9.97172e-7 0 0.3090168 0.9510566 0 -0.8090175 0.5877845</float_array>
          <technique_common>
            <accessor source="#cleaning_canister-mesh-normals-array" count="210" stride="3">
              <param name="X" type="float"/>
              <param name="Y" type="float"/>
              <param name="Z" type="float"/>
            </accessor>
          </technique_common>
        </source>
        <source id="cleaning_canister-mesh-map-0">
          <float_array id="cleaning_canister-mesh-map-0-array" count="1584">0.004870533 0.05105251 0.2871119 0.4317835 0.2871092 0.07257652 0.2972806 0.4685373 0.579523 0.4781422 0.2972806 0.5148961 0.5795191 0.02621775 0.2972806 0.05105251 0.2972806 0.004693746 0.2871128 0.4781422 0.004870474 0.4685373 0.004870474 0.5148961 0.9958896 0.9895329 0.7520251 0.7072945 0.9774886 0.7072945 0.3114804 0.6818636 0.02622658 0.9641059 0.2899561 0.9641059 0.5795221 0.4317835 0.2972806 0.05105251 0.5795193 0.07257652 0.287109 0.02621775 0.004870533 0.05105251 0.2871092 0.07257652 0.6755521 0.04971122 0.6144481 0.05211979 0.6569218 0.07150352 0.6337216 0.3924877 0.6349474 0.4576854 0.6549694 0.4137355 0.8999027 0.3924877 0.8986769 0.4576854 0.9450357 0.4113267 0.8580722 0.04971122 0.9191762 0.05211979 0.879544 0.005761027 0.6144481 0.05211979 0.6337216 0.3924877 0.6569218 0.07150352 0.8986769 0.4576854 0.6549694 0.4137355 0.6349474 0.4576854 0.9191762 0.05211979 0.8999027 0.3924877 0.9450357 0.4113267 0.6540804 0.005761027 0.8580722 0.04971122 0.879544 0.005761027 0.8580722 0.04971122 0.6755521 0.04971122 0.6569218 0.07150352 0.9069876 0.3955741 0.646315 0.04393857 0.906985 0.06381773 0.2972806 0.4685373 0.579523 0.4781422 0.5795221 0.4317835 0.2972806 0.05105251 0.5795191 0.02621775 0.2972806 0.004693746 0.004870474 0.4685373 0.2871128 0.4781422 0.004870474 0.5148961 0.7520251 0.7072945 0.9958896 0.9895329 0.9774886 0.7072945 0.2899561 0.9641059 0.00470227 0.6818636 0.3114804 0.6818636 0.9035547 0.3955741 0.6428822 0.04393857 0.6428822 0.4295192 0.287109 0.02621775 0.004870533 0.05105251 0.004870533 0.004693746 0.6144481 0.05211979 0.6755521 0.04971122 0.6569218 0.07150352 0.6349474 0.4576854 0.6337216 0.3924877 0.6549694 0.4137355 0.8999027 0.3924877 0.8986769 0.4576854 0.8786548 0.4137355 0.8580722 0.04971122 0.9191762 0.05211979 0.8767025 0.07150346 0.6144481 0.05211979 0.6337216 0.3924877 0.5885886 0.4113267 0.6549694 0.4137355 0.8986769 0.4576854 0.6349474 0.4576854 0.8999027 0.3924877 0.9191762 0.05211979 0.9450357 0.4113267 0.8580722 0.04971122 0.6540804 0.005761027 0.879544 0.005761027 0.8999027 0.3924877 0.8786548 0.4137355 0.6549694 0.4137355 0.004870533 0.05105251 0.004870533 0.004693746 0.004870533 0.05105251 0.004870474 0.5148961 0.004870474 0.4685373 0.004870474 0.5148961 0.2972806 0.5148961 0.2972806 0.4685373 0.2972806 0.4685373 0.2972806 0.05105251 0.2972806 0.004693746 0.2972806 0.004693746 0.004870533 0.05105251 0.004870474 0.4685373 0.004870474 0.4685373 0.9958896 0.9895329 0.7336242 0.9895329 0.7336242 0.9895329 0.3114804 0.6818636 0.00470227 0.6818636 0.00470227 0.6818636 0.2972806 0.05105251 0.2972806 0.4685373 0.2972806 0.05105251 0.4479673 0.6488458 0.2514346 0.545607 0.552091 0.5454189 0.6748599 0.1924366 0.8812101 0.03126418 0.8812101 0.1924366 0.4368246 0.6488661 0.2306098 0.5405414 0.2298325 0.6726511 0.04257196 0.9449991 0.2458875 0.7206199 0.05739492 0.7206199 0.04294627 0.8505295 0.2650737 0.8152298 0.04257196 0.8152309 0.4769659 0.6490674 0.27181 0.5458663 0.2699434 0.6490674 0.8290532 0.1826279 0.8597313 0.3236688 0.828763 0.3236694 0.7367017 0.6986362 0.5477491 0.744167 0.5517877 0.6717739 0.737442 0.5454175 0.5517877 0.6717739 0.552091 0.5454189 0.4368246 0.6488661 0.5394362 0.672922 0.5460784 0.5403425 0.3363394 0.7755898 0.6900604 0.9954738 0.690027 0.7755901 0.7405599 0.4907156 0.5460784 0.5403425 0.7405604 0.5403441 0.8801233 0.1820597 0.6554538 0.3231005 0.8801234 0.3231012 0.5520914 0.4981205 0.737442 0.5454175 0.552091 0.5454189 0.6582723 0.4283322 0.6582984 0.2708469 0.9018785 0.2739582 0.8812101 0.1908 0.6748599 0.2687965 0.8812101 0.2687965 0.6461499 0.1895788 0.8891881 0.1523989 0.8896728 0.18958 0.4800099 0.7490361 0.5394362 0.672922 0.4368246 0.6488661 0.5517877 0.6717739 0.4479673 0.6488458 0.552091 0.5454189 0.4891251 0.7443128 0.5517877 0.6717739 0.5477491 0.744167 0.5394362 0.672922 0.7405604 0.5403441 0.5460784 0.5403425 0.5375261 0.7488815 0.7397822 0.7011109 0.5394362 0.672922 0.8801234 0.1972206 0.8876631 0.3147049 0.8782366 0.314688 0.6461499 0.1895788 0.8801234 0.1972206 0.6554538 0.1972194 0.6441405 0.3147037 0.6554538 0.1972194 0.6535669 0.3147205 0.8785653 0.34569 0.6445501 0.3533295 0.6538953 0.3456889 0.6538953 0.3456889 0.6441405 0.3147037 0.6535669 0.3147205 0.8876631 0.3147049 0.8785653 0.34569 0.8782366 0.314688 0.8782365 0.3149783 0.6554537 0.1975098 0.8801233 0.1975109 0.8782365 0.3149783 0.6538951 0.3459792 0.6535668 0.3150108 0.7112619 0.3231005 0.8290532 0.1826279 0.828763 0.3236694 0.8290207 0.182627 0.7112631 0.3231012 0.8287304 0.3236684 0.8597324 0.3236691 0.8290207 0.182627 0.8287304 0.3236684 0.3462646 0.9923856 0.6866869 0.778678 0.686687 0.9923858 0.9356462 0.4933605 0.9690666 0.6112539 0.9831745 0.4933605 0.9120293 0.6085292 0.9755097 0.4980065 0.9388332 0.4897314 0.9716038 0.61416 0.9370805 0.4923758 0.9861774 0.4923758 0.9487057 0.6168044 0.9388332 0.4897314 0.9755097 0.4980065 0.9521507 0.601536 0.9262802 0.5453678 0.9154742 0.5932608 0.1236583 0.5613005 0.1667371 0.5307767 0.1236583 0.5307767 0.1333301 0.5613005 0.08268797 0.5307767 0.1333301 0.5307767 0.1502825 0.5613005 0.09703415 0.5307767 0.1502825 0.5307767 0.1270782 0.6650625 0.08299291 0.5293821 0.1711634 0.5293821 0.08268797 0.5613005 0.1333301 0.5307767 0.08268797 0.5307767 0.08057951 0.5613005 0.1236583 0.5307767 0.08057951 0.5307767 0.1933251 0.6118827 0.08439713 0.5327421 0.05868279 0.6118827 0.9356462 0.4933605 0.9690666 0.6112539 0.8955857 0.6112539 0.9755097 0.4980065 0.9120293 0.6085292 0.9388332 0.4897314 0.9370805 0.4923758 0.9716038 0.61416 0.9861774 0.4923758 0.9388332 0.4897314 0.9487057 0.6168044 0.9755097 0.4980065 0.9262802 0.5453678 0.9521507 0.601536 0.9154742 0.5932608 0.1667371 0.5307767 0.1236583 0.5613005 0.1236583 0.5307767 0.1333301 0.5307767 0.08268797 0.5613005 0.1333301 0.5613005 0.09703415 0.5307767 0.1502825 0.5613005 0.1502825 0.5307767 0.08299291 0.5293821 0.05574673 0.6132372 0.1270782 0.6650625 0.1333301 0.5307767 0.08268797 0.5613005 0.08268797 0.5307767 0.1236583 0.5307767 0.08057951 0.5613005 0.08057951 0.5307767 0.05868279 0.6118827 0.1676107 0.5327421 0.1933251 0.6118827 0.9356462 0.4933605 0.9690666 0.6112539 0.8955857 0.6112539 0.9755097 0.4980065 0.9120293 0.6085292 0.9388332 0.4897314 0.9370805 0.4923758 0.9716038 0.61416 0.9861774 0.4923758 0.9388332 0.4897314 0.9487057 0.6168044 0.9755097 0.4980065 0.9262802 0.5453678 0.9521507 0.601536 0.9154742 0.5932608 0.1667371 0.5307767 0.1236583 0.5613005 0.1236583 0.5307767 0.08268797 0.5307767 0.1333301 0.5613005 0.1333301 0.5307767 0.1502825 0.5307767 0.09703415 0.5613005 0.1502825 0.5613005 0.1711634 0.5293821 0.08299291 0.5293821 0.05574673 0.6132372 0.1333301 0.5307767 0.08268797 0.5613005 0.08268797 0.5307767 0.1236583 0.5307767 0.08057951 0.5613005 0.08057951 0.5307767 0.05868279 0.6118827 0.1676107 0.5327421 0.1933251 0.6118827 0.9356462 0.4933605 0.9690666 0.6112539 0.9831745 0.4933605 0.9120293 0.6085292 0.9755097 0.4980065 0.9388332 0.4897314 0.9716038 0.61416 0.9370805 0.4923758 0.9861774 0.4923758 0.9487057 0.6168044 0.9388332 0.4897314 0.9755097 0.4980065 0.9521507 0.601536 0.9262802 0.5453678 0.9154742 0.5932608 0.1236583 0.5613005 0.1667371 0.5307767 0.1236583 0.5307767 0.1333301 0.5307767 0.08268797 0.5613005 0.08268797 0.5307767 0.1502825 0.5613005 0.09703415 0.5307767 0.1502825 0.5307767 0.1270782 0.6650625 0.08299291 0.5293821 0.1711634 0.5293821 0.08268797 0.5613005 0.1333301 0.5307767 0.08268797 0.5307767 0.08057951 0.5613005 0.1236583 0.5307767 0.08057951 0.5307767 0.1933251 0.6118827 0.1676107 0.5327421 0.08439713 0.5327421 0.004870533 0.05105251 0.004870474 0.4685373 0.2871119 0.4317835 0.2972806 0.4685373 0.5795221 0.4317835 0.579523 0.4781422 0.5795191 0.02621775 0.5795193 0.07257652 0.2972806 0.05105251 0.2871128 0.4781422 0.2871119 0.4317835 0.004870474 0.4685373 0.9958896 0.9895329 0.7336242 0.9895329 0.7520251 0.7072945 0.3114804 0.6818636 0.00470227 0.6818636 0.02622658 0.9641059 0.5795221 0.4317835 0.2972806 0.4685373 0.2972806 0.05105251 0.287109 0.02621775 0.004870533 0.004693746 0.004870533 0.05105251 0.6755521 0.04971122 0.6540804 0.005761027 0.6144481 0.05211979 0.6337216 0.3924877 0.5885886 0.4113267 0.6349474 0.4576854 0.8999027 0.3924877 0.8786548 0.4137355 0.8986769 0.4576854 0.8580722 0.04971122 0.8767025 0.07150346 0.9191762 0.05211979 0.6144481 0.05211979 0.5885886 0.4113267 0.6337216 0.3924877 0.8986769 0.4576854 0.8786548 0.4137355 0.6549694 0.4137355 0.9191762 0.05211979 0.8767025 0.07150346 0.8999027 0.3924877 0.6540804 0.005761027 0.6755521 0.04971122 0.8580722 0.04971122 0.6569218 0.07150352 0.6337216 0.3924877 0.8999027 0.3924877 0.6337216 0.3924877 0.6549694 0.4137355 0.8999027 0.3924877 0.6549694 0.4137355 0.8786548 0.4137355 0.8999027 0.3924877 0.8999027 0.3924877 0.8767025 0.07150346 0.6569218 0.07150352 0.8767025 0.07150346 0.8580722 0.04971122 0.6569218 0.07150352 0.9069876 0.3955741 0.646315 0.4295192 0.646315 0.04393857 0.2972806 0.4685373 0.2972806 0.5148961 0.579523 0.4781422 0.2972806 0.05105251 0.5795193 0.07257652 0.5795191 0.02621775 0.004870474 0.4685373 0.2871119 0.4317835 0.2871128 0.4781422 0.7520251 0.7072945 0.7336242 0.9895329 0.9958896 0.9895329 0.2899561 0.9641059 0.02622658 0.9641059 0.00470227 0.6818636 0.9035547 0.3955741 0.9035522 0.06381773 0.6428822 0.04393857 0.287109 0.02621775 0.2871092 0.07257652 0.004870533 0.05105251 0.6144481 0.05211979 0.6540804 0.005761027 0.6755521 0.04971122 0.6349474 0.4576854 0.5885886 0.4113267 0.6337216 0.3924877 0.8999027 0.3924877 0.9450357 0.4113267 0.8986769 0.4576854 0.8580722 0.04971122 0.879544 0.005761027 0.9191762 0.05211979 0.6144481 0.05211979 0.6569218 0.07150352 0.6337216 0.3924877 0.6549694 0.4137355 0.8786548 0.4137355 0.8986769 0.4576854 0.8999027 0.3924877 0.8767025 0.07150346 0.9191762 0.05211979 0.8580722 0.04971122 0.6755521 0.04971122 0.6540804 0.005761027 0.6549694 0.4137355 0.6337216 0.3924877 0.8999027 0.3924877 0.6337216 0.3924877 0.6569218 0.07150352 0.8999027 0.3924877 0.6569218 0.07150352 0.6755521 0.04971122 0.8580722 0.04971122 0.8580722 0.04971122 0.8767025 0.07150346 0.6569218 0.07150352 0.8767025 0.07150346 0.8999027 0.3924877 0.6569218 0.07150352 0.004870533 0.05105251 0.004870533 0.004693746 0.004870533 0.004693746 0.004870474 0.5148961 0.004870474 0.4685373 0.004870474 0.4685373 0.2972806 0.5148961 0.2972806 0.5148961 0.2972806 0.4685373 0.2972806 0.05105251 0.2972806 0.05105251 0.2972806 0.004693746 0.004870533 0.05105251 0.004870533 0.05105251 0.004870474 0.4685373 0.9958896 0.9895329 0.9958896 0.9895329 0.7336242 0.9895329 0.3114804 0.6818636 0.3114804 0.6818636 0.00470227 0.6818636 0.2972806 0.05105251 0.2972806 0.4685373 0.2972806 0.4685373 0.4479673 0.6488458 0.2506936 0.6715141 0.2514346 0.545607 0.6748599 0.1924366 0.6748599 0.03126418 0.8812101 0.03126418 0.4368246 0.6488661 0.5460784 0.5403425 0.2306098 0.5405414 0.04257196 0.9449991 0.2650737 0.9449986 0.2458875 0.7206199 0.04294627 0.8505295 0.2654478 0.8505284 0.2650737 0.8152298 0.4769659 0.6490674 0.4788324 0.5458663 0.27181 0.5458663 0.8290532 0.1826279 0.8600216 0.1826273 0.8597313 0.3236688 0.7367017 0.6986362 0.7367011 0.7441655 0.5477491 0.744167 0.737442 0.5454175 0.7367017 0.6986362 0.5517877 0.6717739 0.3363394 0.7755898 0.3363032 0.9954735 0.6900604 0.9954738 0.7405599 0.4907156 0.5460779 0.490714 0.5460784 0.5403425 0.8801233 0.1820597 0.6554537 0.1820589 0.6554538 0.3231005 0.5520914 0.4981205 0.7374423 0.4981191 0.737442 0.5454175 0.6748599 0.2260625 0.8812101 0.2260625 0.6582984 0.2708469 0.8812101 0.2260625 0.9018785 0.2739582 0.6582984 0.2708469 0.9018785 0.2739582 0.9019021 0.4283319 0.6582723 0.4283322 0.8812101 0.1908 0.6748599 0.1908 0.6748599 0.2687965 0.6461499 0.1895788 0.6456649 0.1523976 0.8891881 0.1523989 0.4800099 0.7490361 0.5375261 0.7488815 0.5394362 0.672922 0.4891251 0.7443128 0.4479673 0.6488458 0.5517877 0.6717739 0.5394362 0.672922 0.7397822 0.7011109 0.7405604 0.5403441 0.5375261 0.7488815 0.7397829 0.7488832 0.7397822 0.7011109 0.8801234 0.1972206 0.8896728 0.18958 0.8876631 0.3147049 0.6461499 0.1895788 0.8896728 0.18958 0.8801234 0.1972206 0.6441405 0.3147037 0.6461499 0.1895788 0.6554538 0.1972194 0.8785653 0.34569 0.8880725 0.3533308 0.6445501 0.3533295 0.6538953 0.3456889 0.6445501 0.3533295 0.6441405 0.3147037 0.8876631 0.3147049 0.8880725 0.3533308 0.8785653 0.34569 0.8782365 0.3149783 0.6535668 0.3150108 0.6554537 0.1975098 0.8782365 0.3149783 0.8785651 0.3459803 0.6538951 0.3459792 0.7112619 0.3231005 0.7115522 0.1820589 0.8290532 0.1826279 0.8290207 0.182627 0.7115533 0.1820597 0.7112631 0.3231012 0.8597324 0.3236691 0.8600227 0.1826275 0.8290207 0.182627 0.3462646 0.9923856 0.3462644 0.7786778 0.6866869 0.778678 0.9356462 0.4933605 0.8955857 0.6112539 0.9690666 0.6112539 0.9120293 0.6085292 0.9487057 0.6168044 0.9755097 0.4980065 0.9716038 0.61416 0.8956978 0.61416 0.9370805 0.4923758 0.9487057 0.6168044 0.9120293 0.6085292 0.9388332 0.4897314 0.9521507 0.601536 0.9629567 0.5536429 0.9262802 0.5453678 0.1236583 0.5613005 0.1667371 0.5613005 0.1667371 0.5307767 0.1333301 0.5613005 0.08268797 0.5613005 0.08268797 0.5307767 0.1502825 0.5613005 0.09703415 0.5613005 0.09703415 0.5307767 0.1711634 0.5293821 0.1984096 0.6132372 0.1270782 0.6650625 0.1270782 0.6650625 0.05574673 0.6132372 0.08299291 0.5293821 0.08268797 0.5613005 0.1333301 0.5613005 0.1333301 0.5307767 0.08057951 0.5613005 0.1236583 0.5613005 0.1236583 0.5307767 0.05868279 0.6118827 0.1260039 0.6607943 0.1933251 0.6118827 0.1933251 0.6118827 0.1676107 0.5327421 0.08439713 0.5327421 0.9356462 0.4933605 0.9831745 0.4933605 0.9690666 0.6112539 0.9755097 0.4980065 0.9487057 0.6168044 0.9120293 0.6085292 0.9370805 0.4923758 0.8956978 0.61416 0.9716038 0.61416 0.9388332 0.4897314 0.9120293 0.6085292 0.9487057 0.6168044 0.9262802 0.5453678 0.9629567 0.5536429 0.9521507 0.601536 0.1667371 0.5307767 0.1667371 0.5613005 0.1236583 0.5613005 0.1333301 0.5307767 0.08268797 0.5307767 0.08268797 0.5613005 0.09703415 0.5307767 0.09703415 0.5613005 0.1502825 0.5613005 0.1270782 0.6650625 0.1984096 0.6132372 0.1711634 0.5293821 0.1711634 0.5293821 0.08299291 0.5293821 0.1270782 0.6650625 0.1333301 0.5307767 0.1333301 0.5613005 0.08268797 0.5613005 0.1236583 0.5307767 0.1236583 0.5613005 0.08057951 0.5613005 0.1933251 0.6118827 0.1260039 0.6607943 0.05868279 0.6118827 0.05868279 0.6118827 0.08439713 0.5327421 0.1676107 0.5327421 0.9356462 0.4933605 0.9831745 0.4933605 0.9690666 0.6112539 0.9755097 0.4980065 0.9487057 0.6168044 0.9120293 0.6085292 0.9370805 0.4923758 0.8956978 0.61416 0.9716038 0.61416 0.9388332 0.4897314 0.9120293 0.6085292 0.9487057 0.6168044 0.9262802 0.5453678 0.9629567 0.5536429 0.9521507 0.601536 0.1667371 0.5307767 0.1667371 0.5613005 0.1236583 0.5613005 0.08268797 0.5307767 0.08268797 0.5613005 0.1333301 0.5613005 0.1502825 0.5307767 0.09703415 0.5307767 0.09703415 0.5613005 0.1270782 0.6650625 0.1984096 0.6132372 0.05574673 0.6132372 0.1984096 0.6132372 0.1711634 0.5293821 0.05574673 0.6132372 0.1333301 0.5307767 0.1333301 0.5613005 0.08268797 0.5613005 0.1236583 0.5307767 0.1236583 0.5613005 0.08057951 0.5613005 0.1933251 0.6118827 0.1260039 0.6607943 0.05868279 0.6118827 0.05868279 0.6118827 0.08439713 0.5327421 0.1676107 0.5327421 0.9356462 0.4933605 0.8955857 0.6112539 0.9690666 0.6112539 0.9120293 0.6085292 0.9487057 0.6168044 0.9755097 0.4980065 0.9716038 0.61416 0.8956978 0.61416 0.9370805 0.4923758 0.9487057 0.6168044 0.9120293 0.6085292 0.9388332 0.4897314 0.9521507 0.601536 0.9629567 0.5536429 0.9262802 0.5453678 0.1236583 0.5613005 0.1667371 0.5613005 0.1667371 0.5307767 0.1333301 0.5307767 0.1333301 0.5613005 0.08268797 0.5613005 0.1502825 0.5613005 0.09703415 0.5613005 0.09703415 0.5307767 0.1711634 0.5293821 0.1984096 0.6132372 0.1270782 0.6650625 0.1270782 0.6650625 0.05574673 0.6132372 0.08299291 0.5293821 0.08268797 0.5613005 0.1333301 0.5613005 0.1333301 0.5307767 0.08057951 0.5613005 0.1236583 0.5613005 0.1236583 0.5307767 0.05868279 0.6118827 0.1260039 0.6607943 0.08439713 0.5327421 0.1260039 0.6607943 0.1933251 0.6118827 0.08439713 0.5327421</float_array>
          <technique_common>
            <accessor source="#cleaning_canister-mesh-map-0-array" count="792" stride="2">
              <param name="S" type="float"/>
              <param name="T" type="float"/>
            </accessor>
          </technique_common>
        </source>
        <vertices id="cleaning_canister-mesh-vertices">
          <input semantic="POSITION" source="#cleaning_canister-mesh-positions"/>
        </vertices>
        <triangles material="cleaning_canister-material" count="264">
          <input semantic="VERTEX" source="#cleaning_canister-mesh-vertices" offset="0"/>
          <input semantic="NORMAL" source="#cleaning_canister-mesh-normals" offset="1"/>
          <input semantic="TEXCOORD" source="#cleaning_canister-mesh-map-0" offset="2" set="0"/>
          <p>0 0 0 13 1 1 11 2 2 6 3 3 21 4 4 7 5 5 19 6 6 5 7 7 4 8 8 15 9 9 3 10 10 2 11 11 4 8 12 9 12 13 19 6 14 2 11 15 21 4 16 15 9 17 23 13 18 5 7 19 17 14 20 9 12 21 0 0 22 11 2 23 8 15 24 11 2 25 10 16 26 12 17 27 15 9 28 14 18 29 22 19 30 21 4 31 23 13 32 18 20 33 17 14 34 19 6 35 11 2 36 12 17 37 10 16 38 21 4 39 14 18 40 15 9 41 17 14 42 22 19 43 23 13 44 9 12 45 18 20 46 19 6 47 18 20 48 8 15 49 10 16 50 37 21 51 24 22 52 35 23 53 30 24 54 45 25 55 47 26 56 29 27 57 43 28 58 28 29 59 27 30 60 39 31 61 26 32 62 33 33 63 28 29 64 43 28 65 39 31 66 31 34 67 26 32 68 47 26 69 29 27 70 30 24 71 33 33 72 24 22 73 25 35 74 35 23 75 32 36 76 34 37 77 39 31 78 36 38 79 38 39 80 46 40 81 45 25 82 44 41 83 42 42 84 41 43 85 40 44 86 35 23 87 36 38 88 37 21 89 38 39 90 45 25 91 39 31 92 46 40 93 41 43 94 47 26 95 42 42 96 33 33 97 43 28 98 46 40 99 44 41 100 38 39 101 0 45 102 25 46 103 24 47 104 2 48 105 27 49 106 26 50 107 7 51 108 30 52 109 6 53 110 5 54 111 28 55 112 4 56 113 0 45 114 27 49 115 3 57 116 4 56 117 25 46 118 1 58 119 2 48 120 31 59 121 7 51 122 5 54 123 30 52 124 29 60 125 50 61 126 49 62 127 48 63 128 54 64 129 51 65 130 50 65 131 54 66 132 53 67 133 55 68 134 52 69 135 49 70 136 53 71 137 61 72 138 48 73 139 52 74 140 55 75 141 49 76 142 51 77 143 79 78 144 63 79 145 59 80 146 72 81 147 69 82 148 68 83 149 73 84 150 68 83 151 48 63 152 54 66 153 70 85 154 52 86 155 61 87 156 76 88 157 60 89 158 77 90 159 52 86 160 75 91 161 80 92 162 58 93 163 56 94 164 60 95 165 73 84 166 48 63 167 66 96 168 71 97 169 69 98 170 65 99 171 54 99 172 50 100 173 74 101 174 67 102 175 72 103 176 64 104 177 70 85 178 54 66 179 68 83 180 50 61 181 48 63 182 65 105 183 68 83 184 69 82 185 70 85 186 75 91 187 52 86 188 71 106 189 74 107 190 70 85 191 56 108 192 73 109 193 57 110 194 74 101 195 56 108 196 58 111 197 75 112 198 58 111 199 59 113 200 62 114 201 77 115 202 63 116 203 63 116 204 75 112 205 59 113 206 73 109 207 62 114 208 57 110 209 78 117 210 81 118 211 80 119 212 78 117 213 83 120 214 79 121 215 58 122 216 79 78 217 59 80 218 78 123 219 56 124 220 57 125 221 62 126 222 78 123 223 57 125 224 63 127 225 82 128 226 62 129 227 84 130 228 87 130 229 86 130 230 87 131 231 90 131 232 86 131 233 91 132 234 88 132 235 90 132 236 89 133 237 84 133 238 88 133 239 90 134 240 84 134 241 86 134 242 93 135 243 94 135 244 92 135 245 95 136 246 96 136 247 94 136 248 97 137 249 98 137 250 96 137 251 93 138 252 99 138 253 97 138 254 99 139 255 100 139 256 98 139 257 101 140 258 92 140 259 100 140 260 94 130 261 98 130 262 100 130 263 102 132 264 105 132 265 103 132 266 108 141 267 105 141 268 104 141 269 106 130 270 109 130 271 108 130 272 102 133 273 107 133 274 106 133 275 102 134 276 108 134 277 104 134 278 112 142 279 111 142 280 110 142 281 112 143 282 115 143 283 113 143 284 116 137 285 115 137 286 114 137 287 117 130 288 119 130 289 111 130 290 118 144 291 117 144 292 116 144 293 110 140 294 119 140 295 118 140 296 118 145 297 114 145 298 112 145 299 120 130 300 123 130 301 121 130 302 126 146 303 123 146 304 122 146 305 124 132 306 127 132 307 126 132 308 120 147 309 125 147 310 124 147 311 120 134 312 126 134 313 122 134 314 130 148 315 129 148 316 128 148 317 132 149 318 131 149 319 130 149 320 132 150 321 135 150 322 133 150 323 133 151 324 135 151 325 137 151 326 136 152 327 135 152 328 134 152 329 128 153 330 137 153 331 136 153 332 136 154 333 132 154 334 130 154 335 138 132 336 141 132 337 140 132 338 141 155 339 144 155 340 140 155 341 145 130 342 142 130 343 144 130 344 143 156 345 138 156 346 142 156 347 144 134 348 138 134 349 140 134 350 147 157 351 148 157 352 146 157 353 148 158 354 151 158 355 150 158 356 151 159 357 152 159 358 150 159 359 147 130 360 153 130 361 151 130 362 153 160 363 154 160 364 152 160 365 155 161 366 146 161 367 154 161 368 148 162 369 150 162 370 152 162 371 0 0 372 3 10 373 13 1 374 6 3 375 23 13 376 21 4 377 19 6 378 17 14 379 5 7 380 15 9 381 13 1 382 3 10 383 4 8 384 1 163 385 9 12 386 2 11 387 7 5 388 21 4 389 23 13 390 6 3 391 5 7 392 9 12 393 1 163 394 0 0 395 8 15 396 9 12 397 11 2 398 12 17 399 13 1 400 15 9 401 22 19 402 20 164 403 21 4 404 18 20 405 16 165 406 17 14 407 11 2 408 13 1 409 12 17 410 21 4 411 20 164 412 14 18 413 17 14 414 16 165 415 22 19 416 9 12 417 8 15 418 18 20 419 10 16 420 12 17 421 22 19 422 12 17 423 14 18 424 22 19 425 14 18 426 20 164 427 22 19 428 22 19 429 16 165 430 10 16 431 16 165 432 18 20 433 10 16 434 37 21 435 27 30 436 24 22 437 30 24 438 31 34 439 45 25 440 29 27 441 41 43 442 43 28 443 27 30 444 37 21 445 39 31 446 33 33 447 25 35 448 28 29 449 39 31 450 45 25 451 31 34 452 47 26 453 41 43 454 29 27 455 33 33 456 35 23 457 24 22 458 35 23 459 33 33 460 32 36 461 39 31 462 37 21 463 36 38 464 46 40 465 47 26 466 45 25 467 42 42 468 43 28 469 41 43 470 35 23 471 34 37 472 36 38 473 38 39 474 44 41 475 45 25 476 46 40 477 40 44 478 41 43 479 42 42 480 32 36 481 33 33 482 38 39 483 36 38 484 46 40 485 36 38 486 34 37 487 46 40 488 34 37 489 32 36 490 42 42 491 42 42 492 40 44 493 34 37 494 40 44 495 46 40 496 34 37 497 0 45 498 1 58 499 25 46 500 2 48 501 3 57 502 27 49 503 7 51 504 31 59 505 30 52 506 5 54 507 29 60 508 28 55 509 0 45 510 24 47 511 27 49 512 4 56 513 28 55 514 25 46 515 2 48 516 26 50 517 31 59 518 5 54 519 6 53 520 30 52 521 50 61 522 51 166 523 49 62 524 54 64 525 55 167 526 51 65 527 54 66 528 52 86 529 53 67 530 52 69 531 48 168 532 49 70 533 61 72 534 60 169 535 48 73 536 55 75 537 53 170 538 49 76 539 79 78 540 83 171 541 63 79 542 72 81 543 67 172 544 69 82 545 73 84 546 72 81 547 68 83 548 61 87 549 77 173 550 76 88 551 77 90 552 61 174 553 52 86 554 80 92 555 81 175 556 58 93 557 60 95 558 76 176 559 73 84 560 64 177 561 65 178 562 71 97 563 65 178 564 69 98 565 71 97 566 69 98 567 67 179 568 66 96 569 65 99 570 64 100 571 54 99 572 74 101 573 66 180 574 67 102 575 64 104 576 71 106 577 70 85 578 65 105 579 50 61 580 68 83 581 70 85 582 74 107 583 75 91 584 71 106 585 66 181 586 74 107 587 56 108 588 72 103 589 73 109 590 74 101 591 72 103 592 56 108 593 75 112 594 74 101 595 58 111 596 62 114 597 76 182 598 77 115 599 63 116 600 77 115 601 75 112 602 73 109 603 76 182 604 62 114 605 78 117 606 79 121 607 81 118 608 78 117 609 82 183 610 83 120 611 58 122 612 81 184 613 79 78 614 78 123 615 80 185 616 56 124 617 62 126 618 82 186 619 78 123 620 63 127 621 83 187 622 82 128 623 84 130 624 85 130 625 87 130 626 87 141 627 91 141 628 90 141 629 91 132 630 89 132 631 88 132 632 89 188 633 85 188 634 84 188 635 90 134 636 88 134 637 84 134 638 93 189 639 95 189 640 94 189 641 95 190 642 97 190 643 96 190 644 97 137 645 99 137 646 98 137 647 97 132 648 95 132 649 93 132 650 93 191 651 101 191 652 99 191 653 99 192 654 101 192 655 100 192 656 101 193 657 93 193 658 92 193 659 100 130 660 92 130 661 94 130 662 94 130 663 96 130 664 98 130 665 102 132 666 104 132 667 105 132 668 108 131 669 109 131 670 105 131 671 106 130 672 107 130 673 109 130 674 102 188 675 103 188 676 107 188 677 102 134 678 106 134 679 108 134 680 112 194 681 113 194 682 111 194 683 112 195 684 114 195 685 115 195 686 116 137 687 117 137 688 115 137 689 111 196 690 113 196 691 115 196 692 115 197 693 117 197 694 111 197 695 118 139 696 119 139 697 117 139 698 110 193 699 111 193 700 119 193 701 112 132 702 110 132 703 118 132 704 118 198 705 116 198 706 114 198 707 120 130 708 122 130 709 123 130 710 126 146 711 127 146 712 123 146 713 124 132 714 125 132 715 127 132 716 120 199 717 121 199 718 125 199 719 120 134 720 124 134 721 126 134 722 130 200 723 131 200 724 129 200 725 132 201 726 133 201 727 131 201 728 132 159 729 134 159 730 135 159 731 129 202 732 131 202 733 137 202 734 131 203 735 133 203 736 137 203 737 136 152 738 137 152 739 135 152 740 128 204 741 129 204 742 137 204 743 130 130 744 128 130 745 136 130 746 136 205 747 134 205 748 132 205 749 138 132 750 139 132 751 141 132 752 141 155 753 145 155 754 144 155 755 145 130 756 143 130 757 142 130 758 143 156 759 139 156 760 138 156 761 144 134 762 142 134 763 138 134 764 147 206 765 149 206 766 148 206 767 148 149 768 149 149 769 151 149 770 151 159 771 153 159 772 152 159 773 151 207 774 149 207 775 147 207 776 147 130 777 155 130 778 153 130 779 153 208 780 155 208 781 154 208 782 155 209 783 147 209 784 146 209 785 154 132 786 146 132 787 152 132 788 146 132 789 148 132 790 152 132 791</p>
        </triangles>
      </mesh>
    </geometry>
  </library_geometries>
  <library_visual_scenes>
    <visual_scene id="Scene" name="Scene">
      <node id="cleaning_canister" name="cleaning_canister" type="NODE">
        <matrix sid="transform">-1.618583 5.27401e-7 0 0 -5.27401e-7 -1.618583 0 0 0 0 1.618583 0 0 0 0 1</matrix>
        <instance_geometry url="#cleaning_canister-mesh" name="cleaning_canister">
          <bind_material>
            <technique_common>
              <instance_material symbol="cleaning_canister-material" target="#cleaning_canister-material">
                <bind_vertex_input semantic="UVMap" input_semantic="TEXCOORD" input_set="0"/>
              </instance_material>
            </technique_common>
          </bind_material>
        </instance_geometry>
        <node id="cleaning_canister_p" name="cleaning_canister_p" type="NODE">
          <matrix sid="transform">2.34113e-9 -1.61551e-9 0.01202383 -0.1131716 0 0.01202383 1.61551e-9 -0.2251882 -0.01202383 -3.14551e-16 2.34113e-9 0.2272579 0 0 0 1</matrix>
          <instance_geometry url="#cleaning_canister_p-mesh" name="cleaning_canister_p">
            <bind_material>
              <technique_common>
                <instance_material symbol="cleaning_canister-material" target="#cleaning_canister-material">
                  <bind_vertex_input semantic="UVMap" input_semantic="TEXCOORD" input_set="0"/>
                </instance_material>
              </technique_common>
            </bind_material>
          </instance_geometry>
        </node>
      </node>
    </visual_scene>
  </library_visual_scenes>
  <scene>
    <instance_visual_scene url="#Scene"/>
  </scene>
</COLLADA>