<?xml version="1.0" encoding="utf-8"?>
<COLLADA xmlns="http://www.collada.org/2005/11/COLLADASchema" version="1.4.1" xmlns:xsi="http://www.w3.org/2001/XMLSchema-instance">
  <asset>
    <contributor>
      <author>Blender User</author>
      <authoring_tool>Blender 4.0.1 commit date:2023-11-16, commit time:16:40, hash:d0dd92834a08</authoring_tool>
    </contributor>
    <created>2023-11-28T14:05:39</created>
    <modified>2023-11-28T14:05:39</modified>
    <unit name="meter" meter="1"/>
    <up_axis>Z_UP</up_axis>
  </asset>
  <library_effects>
    <effect id="Seat_01-effect">
      <profile_COMMON>
        <newparam sid="Seat_01-surface">
          <surface type="2D">
            <init_from>Seat_01</init_from>
          </surface>
        </newparam>
        <newparam sid="Seat_01-sampler">
          <sampler2D>
            <source>Seat_01-surface</source>
          </sampler2D>
        </newparam>
        <technique sid="common">
          <lambert>
            <emission>
              <color sid="emission">0 0 0 1</color>
            </emission>
            <diffuse>
              <texture texture="Seat_01-sampler" texcoord="UVMap"/>
            </diffuse>
            <index_of_refraction>
              <float sid="ior">1.45</float>
            </index_of_refraction>
          </lambert>
        </technique>
      </profile_COMMON>
    </effect>
  </library_effects>
  <library_images>
    <image id="Seat_01" name="Seat_01">
      <init_from>Seat_01.png</init_from>
    </image>
  </library_images>
  <library_materials>
    <material id="Seat_01-material" name="Seat_01">
      <instance_effect url="#Seat_01-effect"/>
    </material>
  </library_materials>
  <library_geometries>
    <geometry id="Seat_01-mesh" name="Seat_01">
      <mesh>
        <source id="Seat_01-mesh-positions">
          <float_array id="Seat_01-mesh-positions-array" count="246">0 0.1869664 0.7152556 0 0.1869664 0.7730099 0.1322051 0.1322052 0.7152556 0.1322051 0.1322052 0.7730099 0.1869664 0 0.7152556 0.1869664 0 0.7730099 0.1322051 -0.1322052 0.7152556 0.1322051 -0.1322052 0.7730099 0 -0.1869664 0.7152556 0 -0.1869664 0.7730099 -0.1322052 -0.1322052 0.7152556 -0.1322052 -0.1322052 0.7730099 -0.1869664 0 0.7152556 -0.1869664 0 0.7730099 -0.1322052 0.1322052 0.7152556 -0.1322052 0.1322052 0.7730099 0.1178227 0.1178227 0.8026614 0 0.1666265 0.8026614 0.1666265 0 0.8026614 0.1178227 -0.1178227 0.8026614 0 -0.1666265 0.8026614 -0.1178227 -0.1178227 0.8026614 -0.1666265 0 0.8026614 -0.1178227 0.1178227 0.8026614 0 0.0228722 4.39368e-4 0 0.0228722 0.7161113 0.02175271 0.007067859 4.39368e-4 0.02175271 0.007067859 0.7161113 0.01344388 -0.01850402 4.39368e-4 0.01344388 -0.01850402 0.7161113 -0.013444 -0.01850402 4.39368e-4 -0.013444 -0.01850402 0.7161113 -0.02175283 0.007067859 4.39368e-4 -0.02175283 0.007067859 0.7161113 0 0.184279 -0.01822972 0.1303049 0.1303049 -0.01822972 0.1842789 0 -0.01822972 0.1303049 -0.1303048 -0.01822972 0 -0.1842788 -0.01822972 -0.1303048 -0.1303048 -0.01822972 0 0 0.04114758 -0.1842789 0 -0.01822972 -0.1303048 0.1303049 -0.01822972 0.1154952 0.1154954 0.3216301 0.1018902 0.1018904 0.3335004 0.1018902 0.1018904 0.3097599 -0.01828789 0.1623082 0.3216301 -0.01613366 0.1431887 0.3335004 -0.01613366 0.1431887 0.3097599 -0.1383 0.08689951 0.3216301 -0.1220087 0.07666301 0.3335004 -0.1220087 0.07666301 0.3097599 -0.1541695 -0.05394613 0.3216301 -0.1360088 -0.04759144 0.3335004 -0.1360088 -0.04759144 0.3097599 -0.05394637 -0.1541693 0.3216301 -0.04759168 -0.1360086 0.3335004 -0.04759168 -0.1360086 0.3097599 0.08689939 -0.1382998 0.3216301 0.07666283 -0.1220085 0.3335004 0.07666283 -0.1220085 0.3097599 0.162308 -0.01828783 0.3216301 0.1431885 -0.01613354 0.3335004 0.1431885 -0.01613354 0.3097599 -0.001574158 0.001573979 0.2548277 -0.09700822 0.0970081 0.3127788 0.003846049 0.006994247 0.2681046 -0.09158796 0.1024283 0.3260558 -0.006994366 -0.003846228 0.2681046 -0.1024285 0.09158784 0.3260558 -0.001238584 -0.00357294 0.2548277 -0.04741668 -0.1367947 0.3127788 -0.008481264 -0.001062452 0.2681046 -0.0546593 -0.1342842 0.3260558 0.006003975 -0.006083369 0.2681046 -0.04017406 -0.1393052 0.3260558 0.003706872 7.46625e-4 0.2548277 0.1344894 0.02708691 0.3127788 0.005220353 -0.006767868 0.2681046 0.1360028 0.01957243 0.3260558 0.002193391 0.008261084 0.2681046 0.1329759 0.03460144 0.3260558</float_array>
          <technique_common>
            <accessor source="#Seat_01-mesh-positions-array" count="82" stride="3">
              <param name="X" type="float"/>
              <param name="Y" type="float"/>
              <param name="Z" type="float"/>
            </accessor>
          </technique_common>
        </source>
        <source id="Seat_01-mesh-normals">
          <float_array id="Seat_01-mesh-normals-array" count="246">-1.59907e-7 0.9607269 0.2774959 0.5489851 0.548985 -0.6302626 -2.39156e-7 0.7763823 -0.6302624 0.6793364 0.6793364 0.2774962 0.7763822 -1.75381e-7 -0.6302624 0.9607267 -1.54196e-7 0.2774962 0.5489851 -0.548985 -0.6302626 0.6793364 -0.6793365 0.2774962 2.551e-7 -0.7763823 -0.6302624 2.17017e-7 -0.9607269 0.2774959 -0.5489851 -0.548985 -0.6302626 -0.6793364 -0.6793365 0.2774962 -0.7763822 2.23212e-7 -0.6302625 0.3868895 0.3868894 0.8370383 0.5471442 0 0.8370383 -0.9607267 1.1993e-7 0.2774962 -0.5489851 0.548985 -0.6302626 -0.6793364 0.6793365 0.2774962 -0.5471442 0 0.8370383 0 -0.5471445 0.8370382 -0.3868895 -0.3868896 0.8370383 0 0.5471445 0.8370382 0.3868896 -0.3868893 0.8370382 -0.3868897 0.3868895 0.8370382 -4.45581e-7 1 0 0.9510567 0.3090167 0 3.65699e-7 1 0 0.9510564 0.3090174 0 0.5877849 -0.8090173 0 0.5877856 -0.8090168 0 -0.5877856 -0.8090168 0 -0.5877849 -0.8090173 0 -0.9510565 0.3090175 0 -0.9510567 0.3090167 0 0 0.9918085 -0.1277338 0 0 1 0.7013145 0.7013145 -0.127734 0.9918085 0 -0.1277338 0.7013146 -0.7013145 -0.127734 0 -0.9918085 -0.1277338 -0.7013146 -0.7013145 -0.1277336 -0.9918085 0 -0.1277341 -0.7013145 0.7013145 -0.1277342 0.7071074 0.7071063 6.13651e-7 0.02848994 -0.2528516 0.9670856 -0.1799235 -0.1799245 0.9670857 -0.179924 -0.1799234 -0.9670858 0.02848964 -0.2528513 -0.9670856 -0.8467247 0.5320314 -1.25185e-6 -0.111964 0.9937124 3.92737e-7 0.21545 -0.1353752 -0.9670858 0.2401735 0.08403968 0.9670854 0.2154474 -0.1353765 0.9670861 0.2401722 0.08403933 -0.9670857 -0.9438834 -0.3302792 1.49117e-6 0.08404004 0.2401723 0.9670855 0.08403879 0.2401721 -0.9670858 -0.3302792 -0.9438834 8.89795e-7 -0.1353759 0.2154501 0.9670856 -0.1353756 0.2154497 -0.9670858 0.5320324 -0.846724 2.94553e-7 -0.252853 0.02849012 0.9670853 -0.2528505 0.02849018 -0.9670858 0.9937122 -0.1119652 1.44822e-6 -0.2789866 0.278988 -0.9188755 0.7592139 0.5804841 0.2943341 -0.2789886 0.2789877 -0.918875 0.7137323 0.3428468 0.610772 -0.580483 -0.7592145 0.294335 -0.1245024 -0.3591842 -0.9249248 -0.8517585 0.4271926 0.303338 -0.124503 -0.3591842 -0.9249247 -0.629184 0.4829922 0.6089713 0.9334223 -0.1915973 0.3033372 0.3905778 0.07866501 -0.9172028 0.06287807 -0.9543823 0.2918919 0.3905789 0.07866454 -0.9172024 -0.1130694 -0.7833427 0.6112197 -0.3114736 0.9043141 0.2918907 -0.3428478 -0.7137313 0.6107726 0.7931303 -0.01001793 0.6089696 -0.4074915 0.6784991 0.6112198</float_array>
          <technique_common>
            <accessor source="#Seat_01-mesh-normals-array" count="82" stride="3">
              <param name="X" type="float"/>
              <param name="Y" type="float"/>
              <param name="Z" type="float"/>
            </accessor>
          </technique_common>
        </source>
        <source id="Seat_01-mesh-map-0">
          <float_array id="Seat_01-mesh-map-0-array" count="768">0.9030532 0.6734051 0.8243061 0.4931452 0.8243061 0.6734051 0.9030532 0.4931452 0.8243061 0.6734051 0.8243061 0.4931452 0.9030532 0.6734051 0.8243061 0.853665 0.8243061 0.6734051 0.9552239 0.006701648 0.8764768 0.1869615 0.8764768 0.006701648 0.9552239 0.1869615 0.8764768 0.3672214 0.8764768 0.1869615 0.9552239 0.3672214 0.8764768 0.1869615 0.8764768 0.3672214 0.9030532 0.6734051 0.9434827 0.5127555 0.9434827 0.6734051 0.9552239 0.1869615 0.8764768 0.006701648 0.8764768 0.1869615 0.9030532 0.853665 0.8243061 0.6734051 0.8243061 0.853665 0.2611685 0.4167881 0.3628413 0.1713281 0.1173813 0.06965535 0.3925779 0.6166371 0.6894196 0.4936811 0.8123756 0.7905228 0.9552239 0.3672214 0.9956533 0.1869615 0.9956533 0.3476111 0.9030532 0.853665 0.9434827 0.6734051 0.9030532 0.6734051 0.9030532 0.4931452 0.9434827 0.6734051 0.9434827 0.5127555 0.9030532 0.6734051 0.9434827 0.8340547 0.9030532 0.853665 0.9552239 0.1869615 0.9956533 0.3476111 0.9956533 0.1869615 0.9552239 0.006701648 0.9956533 0.1869615 0.9552239 0.1869615 0.9552239 0.1869615 0.9956533 0.02631193 0.9552239 0.006701648 0.1975849 0.8849403 0.2241303 0.01159036 0.1975849 0.01159036 0.2054921 0.8849403 0.1742861 0.01159036 0.2054921 0.01159036 0.2139908 0.8849403 0.1811789 0.01159036 0.2139908 0.01159036 0.1742861 0.8849403 0.2054921 0.01159036 0.1742861 0.01159036 0.1710395 0.8849403 0.1975849 0.01159036 0.1710395 0.01159036 0.1867167 0.7638888 0.1867167 0.5864229 0.3122042 0.7119103 0.3122042 0.7119103 0.1867167 0.5864229 0.3641827 0.5864229 0.3641827 0.5864229 0.1867167 0.5864229 0.3122042 0.4609356 0.3122042 0.4609356 0.1867167 0.5864229 0.1867167 0.408957 0.1867167 0.408957 0.1867167 0.5864229 0.06122934 0.4609356 0.06122934 0.4609356 0.1867167 0.5864229 0.00925076 0.5864229 0.00925076 0.5864229 0.1867167 0.5864229 0.06122934 0.7119103 0.06122934 0.7119103 0.1867167 0.5864229 0.1867167 0.7638888 0.3122042 0.4609356 0.06122934 0.4609356 0.06122934 0.7119103 0.3329769 0.5301928 0.1786719 0.562657 0.3170281 0.5142441 0.175725 0.4109766 0.3140813 0.3831463 0.3140813 0.4109766 0.1786719 0.562657 0.3329769 0.5301928 0.3170281 0.5142441 0.03545963 0.4966707 0.1786719 0.562657 0.1761465 0.5850701 0.175725 0.4109766 0.05161058 0.3831463 0.175725 0.3831463 0.1786719 0.562657 0.03545963 0.4966707 0.1761465 0.5850701 0.03545963 0.4966707 0.03814554 0.3390105 0.0545575 0.4846707 0.1333959 0.4109766 0.2790561 0.3831463 0.2790561 0.4109766 0.03814554 0.3390105 0.03545963 0.4966707 0.0545575 0.4846707 0.01685625 0.3315611 0.1417945 0.2353615 0.03814554 0.3390105 0.02974683 0.4109766 0.1333959 0.3831463 0.1333959 0.4109766 0.1417945 0.2353615 0.01685625 0.3315611 0.03814554 0.3390105 0.1343451 0.2140722 0.2874548 0.2517734 0.1417945 0.2353615 0.2907255 0.4109766 0.1450653 0.3831463 0.1450653 0.4109766 0.2874548 0.2517734 0.1343451 0.2140722 0.1417945 0.2353615 0.2994548 0.2326755 0.3654411 0.3758878 0.2874548 0.2517734 0.1760191 0.4109766 0.05190473 0.3831463 0.05190473 0.4109766 0.3654411 0.3758878 0.2994548 0.2326755 0.2874548 0.2517734 0.3329769 0.5301928 0.3654411 0.3758878 0.3878542 0.3733624 0.3143754 0.4109766 0.1760191 0.3831463 0.1760191 0.4109766 0.3654411 0.3758878 0.3329769 0.5301928 0.3878542 0.3733624 0.07338339 0.3796675 0.1916122 0.3272971 0.1852582 0.311733 0.0791276 0.5259659 0.1782943 0.4013831 0.1910024 0.4140911 0.2038515 0.3272971 0.3220803 0.3796675 0.2102055 0.311733 0.02172571 0.3796675 0.180841 0.3272971 0.177898 0.311733 0.1280352 0.2215905 0.1991492 0.3718768 0.1821685 0.3777628 0.174955 0.3272971 0.02172571 0.3796675 0.177898 0.311733 0.3707914 0.3796675 0.2192528 0.3272971 0.2174786 0.311733 0.3725656 0.4208764 0.2157044 0.4076165 0.2192528 0.3899984 0.2157044 0.3272971 0.3707914 0.3796675 0.2174786 0.311733 0.9030532 0.6734051 0.9030532 0.4931452 0.8243061 0.4931452 0.9030532 0.4931452 0.9030532 0.6734051 0.8243061 0.6734051 0.9030532 0.6734051 0.9030532 0.853665 0.8243061 0.853665 0.9552239 0.006701648 0.9552239 0.1869615 0.8764768 0.1869615 0.9552239 0.1869615 0.9552239 0.3672214 0.8764768 0.3672214 0.9552239 0.3672214 0.9552239 0.1869615 0.8764768 0.1869615 0.9030532 0.6734051 0.9030532 0.4931452 0.9434827 0.5127555 0.9552239 0.1869615 0.9552239 0.006701648 0.8764768 0.006701648 0.9030532 0.853665 0.9030532 0.6734051 0.8243061 0.6734051 0.2611685 0.4167881 0.3628413 0.3151153 0.3628413 0.1713281 0.3628413 0.1713281 0.2611684 0.06965535 0.1173813 0.06965535 0.1173813 0.06965535 0.01570856 0.1713282 0.01570856 0.3151153 0.01570856 0.3151153 0.1173815 0.4167881 0.1173813 0.06965535 0.1173815 0.4167881 0.2611685 0.4167881 0.1173813 0.06965535 0.8123756 0.7905228 0.6894196 0.9134788 0.5155338 0.9134788 0.5155338 0.9134788 0.3925779 0.7905229 0.3925779 0.6166371 0.3925779 0.6166371 0.5155337 0.4936811 0.6894196 0.4936811 0.6894196 0.4936811 0.8123756 0.616637 0.8123756 0.7905228 0.8123756 0.7905228 0.5155338 0.9134788 0.3925779 0.6166371 0.9552239 0.3672214 0.9552239 0.1869615 0.9956533 0.1869615 0.9030532 0.853665 0.9434827 0.8340547 0.9434827 0.6734051 0.9030532 0.4931452 0.9030532 0.6734051 0.9434827 0.6734051 0.9030532 0.6734051 0.9434827 0.6734051 0.9434827 0.8340547 0.9552239 0.1869615 0.9552239 0.3672214 0.9956533 0.3476111 0.9552239 0.006701648 0.9956533 0.02631193 0.9956533 0.1869615 0.9552239 0.1869615 0.9956533 0.1869615 0.9956533 0.02631193 0.1975849 0.8849403 0.2241303 0.8849403 0.2241303 0.01159036 0.2054921 0.8849403 0.1742861 0.8849403 0.1742861 0.01159036 0.2139908 0.8849403 0.1811789 0.8849403 0.1811789 0.01159036 0.1742861 0.8849403 0.2054921 0.8849403 0.2054921 0.01159036 0.1710395 0.8849403 0.1975849 0.8849403 0.1975849 0.01159036 0.06122934 0.7119103 0.1867167 0.7638888 0.3122042 0.7119103 0.3122042 0.7119103 0.3641827 0.5864229 0.3122042 0.4609356 0.3122042 0.4609356 0.1867167 0.408957 0.06122934 0.4609356 0.06122934 0.4609356 0.00925076 0.5864229 0.06122934 0.7119103 0.06122934 0.7119103 0.3122042 0.7119103 0.3122042 0.4609356 0.3329769 0.5301928 0.1761465 0.5850701 0.1786719 0.562657 0.175725 0.4109766 0.175725 0.3831463 0.3140813 0.3831463 0.1786719 0.562657 0.1761465 0.5850701 0.3329769 0.5301928 0.03545963 0.4966707 0.0545575 0.4846707 0.1786719 0.562657 0.175725 0.4109766 0.05161058 0.4109766 0.05161058 0.3831463 0.1786719 0.562657 0.0545575 0.4846707 0.03545963 0.4966707 0.03545963 0.4966707 0.01685625 0.3315611 0.03814554 0.3390105 0.1333959 0.4109766 0.1333959 0.3831463 0.2790561 0.3831463 0.03814554 0.3390105 0.01685625 0.3315611 0.03545963 0.4966707 0.01685625 0.3315611 0.1343451 0.2140722 0.1417945 0.2353615 0.02974683 0.4109766 0.02974683 0.3831463 0.1333959 0.3831463 0.1417945 0.2353615 0.1343451 0.2140722 0.01685625 0.3315611 0.1343451 0.2140722 0.2994548 0.2326755 0.2874548 0.2517734 0.2907255 0.4109766 0.2907255 0.3831463 0.1450653 0.3831463 0.2874548 0.2517734 0.2994548 0.2326755 0.1343451 0.2140722 0.2994548 0.2326755 0.3878542 0.3733624 0.3654411 0.3758878 0.1760191 0.4109766 0.1760191 0.3831463 0.05190473 0.3831463 0.3654411 0.3758878 0.3878542 0.3733624 0.2994548 0.2326755 0.3329769 0.5301928 0.3170281 0.5142441 0.3654411 0.3758878 0.3143754 0.4109766 0.3143754 0.3831463 0.1760191 0.3831463 0.3654411 0.3758878 0.3170281 0.5142441 0.3329769 0.5301928 0.07338339 0.3796675 0.07973742 0.3952317 0.1916122 0.3272971 0.0791276 0.5259659 0.06641954 0.5132579 0.1782943 0.4013831 0.2038515 0.3272971 0.3157263 0.3952317 0.3220803 0.3796675 0.02172571 0.3796675 0.02466869 0.3952317 0.180841 0.3272971 0.1280352 0.2215905 0.1450159 0.2157045 0.1991492 0.3718768 0.174955 0.3272971 0.01878273 0.3952317 0.02172571 0.3796675 0.3707914 0.3796675 0.3725656 0.3952317 0.2192528 0.3272971 0.3725656 0.4208764 0.3690172 0.4384946 0.2157044 0.4076165 0.2157044 0.3272971 0.3690173 0.3952317 0.3707914 0.3796675</float_array>
          <technique_common>
            <accessor source="#Seat_01-mesh-map-0-array" count="384" stride="2">
              <param name="S" type="float"/>
              <param name="T" type="float"/>
            </accessor>
          </technique_common>
        </source>
        <vertices id="Seat_01-mesh-vertices">
          <input semantic="POSITION" source="#Seat_01-mesh-positions"/>
        </vertices>
        <triangles material="Seat_01-material" count="128">
          <input semantic="VERTEX" source="#Seat_01-mesh-vertices" offset="0"/>
          <input semantic="NORMAL" source="#Seat_01-mesh-normals" offset="1"/>
          <input semantic="TEXCOORD" source="#Seat_01-mesh-map-0" offset="2" set="0"/>
          <p>1 0 0 2 1 1 0 2 2 3 3 3 4 4 4 2 1 5 5 5 6 6 6 7 4 4 8 7 7 9 8 8 10 6 6 11 9 9 12 10 10 13 8 8 14 11 11 15 12 12 16 10 10 17 5 5 18 16 13 19 18 14 20 13 15 21 14 16 22 12 12 23 15 17 24 0 2 25 14 16 26 14 16 27 2 1 28 6 6 29 22 18 30 20 19 31 18 14 32 11 11 33 20 19 34 21 20 35 15 17 36 17 21 37 1 0 38 3 3 39 17 21 40 16 13 41 5 5 42 19 22 43 7 7 44 13 15 45 21 20 46 22 18 47 7 7 48 20 19 49 9 9 50 13 15 51 23 23 52 15 17 53 25 24 54 26 25 55 24 26 56 27 27 57 28 28 58 26 25 59 29 29 60 30 30 61 28 28 62 31 31 63 32 32 64 30 30 65 33 33 66 24 26 67 32 32 68 34 34 69 40 35 70 35 36 71 35 36 72 40 35 73 36 37 74 36 37 75 40 35 76 37 38 77 37 38 78 40 35 79 38 39 80 38 39 81 40 35 82 39 40 83 39 40 84 40 35 85 41 41 86 41 41 87 40 35 88 42 42 89 42 42 90 40 35 91 34 34 92 37 38 93 39 40 94 42 42 95 43 43 96 47 44 97 44 45 98 47 44 99 45 46 100 44 45 101 48 47 102 43 43 103 45 46 104 49 48 105 47 44 106 46 49 107 47 44 108 51 50 109 48 47 110 48 47 111 49 48 112 46 49 113 49 48 114 53 51 115 50 52 116 53 51 117 51 50 118 50 52 119 54 53 120 49 48 121 51 50 122 52 54 123 56 55 124 53 51 125 56 55 126 54 53 127 53 51 128 57 56 129 52 54 130 54 53 131 55 57 132 59 58 133 56 55 134 59 58 135 57 56 136 56 55 137 60 59 138 55 57 139 57 56 140 58 60 141 62 61 142 59 58 143 62 61 144 60 59 145 59 58 146 63 62 147 58 60 148 60 59 149 43 43 150 62 61 151 61 63 152 44 45 153 63 62 154 62 61 155 63 62 156 43 43 157 61 63 158 65 64 159 66 65 160 64 66 161 67 67 162 68 68 163 66 65 164 68 68 165 65 64 166 64 66 167 71 69 168 72 70 169 70 71 170 73 72 171 74 73 172 72 70 173 74 73 174 71 69 175 70 71 176 77 74 177 78 75 178 76 76 179 79 77 180 80 78 181 78 75 182 80 78 183 77 74 184 76 76 185 1 0 186 3 3 187 2 1 188 3 3 189 5 5 190 4 4 191 5 5 192 7 7 193 6 6 194 7 7 195 9 9 196 8 8 197 9 9 198 11 11 199 10 10 200 11 11 201 13 15 202 12 12 203 5 5 204 3 3 205 16 13 206 13 15 207 15 17 208 14 16 209 15 17 210 1 0 211 0 2 212 14 16 213 0 2 214 2 1 215 2 1 216 4 4 217 6 6 218 6 6 219 8 8 220 10 10 221 10 10 222 12 12 223 6 6 224 12 12 225 14 16 226 6 6 227 18 14 228 16 13 229 17 21 230 17 21 231 23 23 232 22 18 233 22 18 234 21 20 235 20 19 236 20 19 237 19 22 238 18 14 239 18 14 240 17 21 241 22 18 242 11 11 243 9 9 244 20 19 245 15 17 246 23 23 247 17 21 248 3 3 249 1 0 250 17 21 251 5 5 252 18 14 253 19 22 254 13 15 255 11 11 256 21 20 257 7 7 258 19 22 259 20 19 260 13 15 261 22 18 262 23 23 263 25 24 264 27 27 265 26 25 266 27 27 267 29 29 268 28 28 269 29 29 270 31 31 271 30 30 272 31 31 273 33 33 274 32 32 275 33 33 276 25 24 277 24 26 278 42 42 279 34 34 280 35 36 281 35 36 282 36 37 283 37 38 284 37 38 285 38 39 286 39 40 287 39 40 288 41 41 289 42 42 290 42 42 291 35 36 292 37 38 293 43 43 294 46 49 295 47 44 296 47 44 297 48 47 298 45 46 299 48 47 300 46 49 301 43 43 302 49 48 303 50 52 304 47 44 305 47 44 306 50 52 307 51 50 308 48 47 309 51 50 310 49 48 311 49 48 312 52 54 313 53 51 314 53 51 315 54 53 316 51 50 317 54 53 318 52 54 319 49 48 320 52 54 321 55 57 322 56 55 323 56 55 324 57 56 325 54 53 326 57 56 327 55 57 328 52 54 329 55 57 330 58 60 331 59 58 332 59 58 333 60 59 334 57 56 335 60 59 336 58 60 337 55 57 338 58 60 339 61 63 340 62 61 341 62 61 342 63 62 343 60 59 344 63 62 345 61 63 346 58 60 347 43 43 348 44 45 349 62 61 350 44 45 351 45 46 352 63 62 353 63 62 354 45 46 355 43 43 356 65 64 357 67 67 358 66 65 359 67 67 360 69 79 361 68 68 362 68 68 363 69 79 364 65 64 365 71 69 366 73 72 367 72 70 368 73 72 369 75 80 370 74 73 371 74 73 372 75 80 373 71 69 374 77 74 375 79 77 376 78 75 377 79 77 378 81 81 379 80 78 380 80 78 381 81 81 382 77 74 383</p>
        </triangles>
      </mesh>
    </geometry>
  </library_geometries>
  <library_visual_scenes>
    <visual_scene id="Scene" name="Scene">
      <node id="Seat_01" name="Seat_01" type="NODE">
        <matrix sid="transform">-1 3.25841e-7 0 0 -3.25841e-7 -1 0 0 0 0 1 0 0 0 0 1</matrix>
        <instance_geometry url="#Seat_01-mesh" name="Seat_01">
          <bind_material>
            <technique_common>
              <instance_material symbol="Seat_01-material" target="#Seat_01-material">
                <bind_vertex_input semantic="UVMap" input_semantic="TEXCOORD" input_set="0"/>
              </instance_material>
            </technique_common>
          </bind_material>
        </instance_geometry>
      </node>
    </visual_scene>
  </library_visual_scenes>
  <scene>
    <instance_visual_scene url="#Scene"/>
  </scene>
</COLLADA>