<?xml version="1.0" encoding="utf-8"?>
<COLLADA xmlns="http://www.collada.org/2005/11/COLLADASchema" version="1.4.1" xmlns:xsi="http://www.w3.org/2001/XMLSchema-instance">
  <asset>
    <contributor>
      <author>Blender User</author>
      <authoring_tool>Blender 4.0.1 commit date:2023-11-16, commit time:16:40, hash:d0dd92834a08</authoring_tool>
    </contributor>
    <created>2023-11-28T13:17:33</created>
    <modified>2023-11-28T13:17:33</modified>
    <unit name="meter" meter="1"/>
    <up_axis>Z_UP</up_axis>
  </asset>
  <library_effects>
    <effect id="Wet_floor_sign-effect">
      <profile_COMMON>
        <newparam sid="Wet_floor_sign-surface">
          <surface type="2D">
            <init_from>Wet_floor_sign</init_from>
          </surface>
        </newparam>
        <newparam sid="Wet_floor_sign-sampler">
          <sampler2D>
            <source>Wet_floor_sign-surface</source>
          </sampler2D>
        </newparam>
        <technique sid="common">
          <lambert>
            <emission>
              <color sid="emission">0 0 0 1</color>
            </emission>
            <diffuse>
              <texture texture="Wet_floor_sign-sampler" texcoord="UVMap"/>
            </diffuse>
            <index_of_refraction>
              <float sid="ior">1.45</float>
            </index_of_refraction>
          </lambert>
        </technique>
      </profile_COMMON>
    </effect>
  </library_effects>
  <library_images>
    <image id="Wet_floor_sign" name="Wet_floor_sign">
      <init_from>Wet_floor_sign.png</init_from>
    </image>
  </library_images>
  <library_materials>
    <material id="Wet_floor_sign-material" name="Wet_floor_sign">
      <instance_effect url="#Wet_floor_sign-effect"/>
    </material>
  </library_materials>
  <library_geometries>
    <geometry id="Wet_floor_sign-mesh" name="Wet_floor_sign">
      <mesh>
        <source id="Wet_floor_sign-mesh-positions">
          <float_array id="Wet_floor_sign-mesh-positions-array" count="288">-1.194887 -8.383858 -2.26736 -0.9770913 -8.384314 2.136968 -1.194887 -6.436241 -2.26736 -0.9770913 -6.435785 2.136968 1.194772 -8.383858 -2.26736 0.9769766 -8.384314 2.136968 1.194772 -6.436241 -2.26736 0.9769766 -6.435785 2.136968 0.5304192 -6.442764 -2.252719 -0.5305361 -6.442764 -2.252719 -0.54955 -6.440632 2.13022 0.5494329 -6.440632 2.13022 -0.5305359 -8.377335 -2.252719 0.5304193 -8.377335 -2.252719 0.5494329 -8.379467 2.13022 -0.54955 -8.379467 2.13022 -1.232422 -6.43136 -2.965712 -1.232422 -8.38874 -2.965712 -0.6704022 -6.431823 -2.963617 1.232306 -8.38874 -2.965712 1.232306 -6.43136 -2.965712 0.6702855 -8.388277 -2.963617 0.6702854 -6.431823 -2.963617 -0.6704019 -8.388277 -2.963617 -0.8640618 -7.844736 2.591402 -0.8640618 -6.975363 2.591402 0.5399318 -6.987726 2.608979 0.8639473 -6.975363 2.591402 0.8639473 -7.844736 2.591402 -0.5400482 -7.832373 2.608979 -0.5400482 -6.987726 2.608979 0.5399318 -7.832373 2.608979 -0.8698263 -7.84238 2.895813 -0.8698263 -6.977719 2.895813 0.5191679 -6.981621 2.94413 0.8697118 -6.977719 2.895813 0.8697118 -7.84238 2.895813 -0.5192842 -7.838478 2.94413 -0.5192842 -6.981621 2.94413 0.5191679 -7.838478 2.94413 -1.195405 12.09577 -1.774449 -0.9747403 -3.020963 2.260169 -1.19431 10.28203 -1.820439 -0.9719451 -4.832937 2.212221 1.195292 12.09577 -1.774449 0.9746279 -3.020963 2.260169 1.194197 10.28203 -1.820439 0.9718327 -4.832937 2.212221 0.5211287 10.2817 -1.80869 -0.5212434 10.2817 -1.80869 -0.5674176 -4.82979 2.216205 0.5673029 -4.82979 2.216205 -0.5455427 12.09004 -1.771731 0.5454279 12.09004 -1.771731 0.5457665 -3.021406 2.250113 -0.5458812 -3.021406 2.250113 -1.228818 12.74438 -2.476727 -1.234272 14.53772 -2.403641 -0.6738146 12.74397 -2.474179 1.234159 14.53772 -2.403641 1.228705 12.74438 -2.476727 0.6705708 14.53735 -2.403536 0.6736999 12.74397 -2.474179 -0.6706833 14.53735 -2.403536 -0.8688956 -5.074929 2.647489 -0.8658237 -5.890904 2.655851 0.5238279 -5.891603 2.667806 0.8657112 -5.890904 2.655851 0.8687831 -5.074929 2.647489 -0.5465732 -5.080241 2.650531 -0.5239426 -5.891603 2.667806 0.5464584 -5.080241 2.650531 -0.8668563 -6.136341 2.932753 -0.8662903 -6.935832 2.914676 0.5133609 -7.115672 2.961679 0.8661779 -6.935832 2.914676 0.8667439 -6.136341 2.932753 -0.5193009 -6.325009 2.972872 -0.5134755 -7.115672 2.961679 0.5191861 -6.325009 2.972872 -1.004722 -7.117675 -0.7768347 -1.004792 -7.126503 -0.4840843 -1.024271 6.013096 -0.4352385 -0.9984964 4.842329 -0.17372 -0.9743579 -7.117675 -0.7768347 -0.9742882 -7.126503 -0.4840843 -0.9548087 6.013096 -0.4352385 -0.9805835 4.842329 -0.17372 1.004608 -7.117674 -0.7768347 1.004678 -7.126503 -0.4840842 1.024157 6.013095 -0.4352385 0.9983824 4.842329 -0.17372 0.9742439 -7.117674 -0.7768347 0.9741743 -7.126503 -0.4840842 0.9546948 6.013095 -0.4352385 0.9804695 4.842329 -0.17372</float_array>
          <technique_common>
            <accessor source="#Wet_floor_sign-mesh-positions-array" count="96" stride="3">
              <param name="X" type="float"/>
              <param name="Y" type="float"/>
              <param name="Z" type="float"/>
            </accessor>
          </technique_common>
        </source>
        <source id="Wet_floor_sign-mesh-normals">
          <float_array id="Wet_floor_sign-mesh-normals-array" count="507">-0.9987797 0 0.04939007 -0.009830534 0.9999516 -5.89566e-4 0.9987797 0 0.04938983 0.009831309 -0.9999515 -5.89567e-4 -0.98119 -1.26147e-7 -0.1930447 -0.01570814 0.6583094 0.7525836 -0.01936572 0.64643 0.7627276 0 0 1 0.009519517 -0.9998635 0.01351416 0 0 -1 -0.009831249 -0.9999516 -5.89566e-4 0 -1 -4.86466e-4 0.009830594 0.9999516 -5.89893e-4 0 1 -4.86466e-4 -0.003728568 0 -0.9999932 0.003728508 0 -0.9999931 -0.009518802 0.9998635 0.01351517 -7.98756e-4 -0.9999756 0.006948053 7.98762e-4 0.9999756 0.006946861 0.9811899 0 -0.193045 -0.9985587 0 0.05367016 0.9985588 0 0.0536701 0.01375538 0.9997239 -0.019059 0.9998032 0 -0.0198428 0.9704329 0 0.241371 -0.9704329 0 0.2413715 0.01936584 -0.6464298 0.7627276 -0.9998032 0 -0.01984149 0.01570802 -0.6583084 0.7525845 -0.1365448 0 0.9906339 0.1365427 0 0.9906343 0.9998208 0 -0.01893329 -0.9998208 0 -0.01893335 0 0.9998344 -0.01820594 -0.01375532 -0.9997238 -0.01905888 0.03766888 -0.9992546 0.008447706 -0.0376687 0.9992547 0.008447408 0 -0.9998341 -0.01821345 -0.998854 -0.001815736 0.04782694 -0.01151716 -0.2573898 -0.966239 0.9989897 -0.002728164 0.04485964 0.02291882 0.2571244 0.9661065 -0.986217 0.01661664 -0.1646209 0.01208478 -0.3856425 -0.9225692 -0.01208508 -0.3856423 -0.9225693 0 -0.01874732 0.9998242 -0.001844644 0.2498777 0.9682757 0 0.02043372 -0.9997913 0.001766562 0.2578465 0.9661844 0 0.2571925 0.9663602 0.01673716 -0.2575162 -0.9661291 0 -0.257374 -0.9663119 -0.004617214 0.0393517 -0.9992148 0.004617452 0.0393517 -0.9992148 -0.01672488 -0.2599101 -0.965488 0.001844823 0.2498777 0.9682757 0.01672476 -0.2599101 -0.965488 0.986217 0.01661664 -0.164621 -0.9989447 -0.00176686 0.04589569 0.9989447 -0.0017668 0.04589551 0.03343152 -0.2403104 -0.9701203 0 -0.01415538 0.9998999 0.9984714 -0.01087486 -0.05419027 0.9739994 -0.007494211 0.226427 -0.9739994 -0.007494151 0.2264271 0.02322477 0.1864116 0.9821973 -0.9984715 -0.01087492 -0.05419021 -0.02322435 0.1864115 0.9821973 -0.1395709 -0.01504498 0.9900978 0.13957 -0.01504498 0.9900979 0.9999672 -0.003837645 -0.00713092 -0.9999672 -0.003837525 -0.007130742 0 -0.2334454 -0.9723699 0.004834949 0.2595371 0.9657211 -0.004834532 0.2595369 0.9657212 -0.03343152 -0.2403103 -0.9701203 0 0.2506881 0.9680679 0 -0.02128696 -0.9997735 -0.9966233 -0.003617703 0.08202934 0.9966233 -0.003617763 0.08202928 0 0.02600616 -0.9996618 0 -0.02592253 0.999664 0.9999998 5.31723e-4 -2.21772e-4 -0.9966234 -0.003617763 0.08202928 0 0.0260061 -0.9996619 0 -0.02592223 0.999664 -0.9987797 0 0.04939007 -0.01132822 0.9999358 -4.37423e-4 0.9987797 0 0.04938989 0.01132827 -0.9999358 -4.37426e-4 -0.9811899 0 -0.1930451 0.01936578 0.6464295 0.762728 0.01570802 0.6583084 0.7525845 7.98757e-4 -0.9999756 0.006948053 -0.01132822 -0.9999358 -4.37439e-4 0 -0.9999999 -4.86289e-4 0.01132827 0.9999358 -4.37322e-4 0 0.9999999 -4.8648e-4 -0.003728806 0 -0.9999931 0.003728866 0 -0.9999931 -7.98761e-4 0.9999756 0.006946802 -0.009519517 -0.9998635 0.01351416 0.009518861 0.9998634 0.01351547 0.9811901 0 -0.1930446 -0.9985587 0 0.05367028 0.9985588 0 0.05367004 0.03766888 0.9992546 0.008447468 0.9998031 0 -0.0198428 0.9704328 0 0.2413713 -0.9704328 0 0.2413716 -0.01570814 -0.6583094 0.7525836 -0.9998031 0 -0.01984143 -0.01936572 -0.6464294 0.7627281 -0.136544 0 0.9906341 0.1365445 0 0.990634 0.9998208 0 -0.01893329 -0.9998208 0 -0.01893329 0 0.9998341 -0.01821488 -0.0376687 -0.9992547 0.008442819 0.01375538 -0.9997239 -0.019059 -0.01375532 0.9997238 -0.01905888 0 -0.9998342 -0.01821529 -0.9989897 -0.002728104 0.04485988 -0.0167371 -0.2575162 -0.9661291 0.9988541 -0.001815736 0.04782676 -0.001766622 0.2578464 0.9661844 -0.98456 0.005174338 -0.1749708 0.03137987 -0.3901023 -0.9202367 -0.03137987 -0.3901024 -0.9202367 0 -0.01874732 0.9998242 -1.94601e-5 0.2495102 0.9683722 0 0.02043372 -0.9997912 -0.0229187 0.2571244 0.9661066 0 0.2571926 0.9663603 0.01151722 -0.2573898 -0.966239 -2.12129e-4 0.04072111 -0.9991706 2.11806e-4 0.04072111 -0.9991706 -0.004244744 -0.2574806 -0.9662742 1.92311e-5 0.2495101 0.9683722 0.004244923 -0.2574805 -0.9662743 0.9845599 0.005173087 -0.174972 -0.9990592 -0.004795014 0.04310429 0.9990592 -0.004794955 0.04310405 0.01059192 -0.2333466 -0.972336 0 -0.01415538 0.9998999 0.9991095 0.02718001 -0.03227674 0.9732629 -0.00131005 0.2296908 -0.9732627 -0.00131005 0.2296909 -0.006116509 0.1909087 0.9815888 -0.9991094 0.02717995 -0.03227669 0.006115972 0.1909087 0.9815888 -0.1266925 -0.02251219 0.9916866 0.1266917 -0.02251219 0.9916867 0.9999907 -6.11568e-4 -0.004271447 -0.9999907 -6.11502e-4 -0.004271209 0 -0.2334454 -0.9723699 -0.02462017 0.2511176 0.9676434 0.02462035 0.2511176 0.9676435 -0.01059186 -0.2333465 -0.9723359 0 0.250688 0.968068 0 -0.0212869 -0.9997735 -0.9999999 5.31689e-4 -2.21772e-4 0.9999999 5.31757e-4 -2.21975e-4 0 0.02600616 -0.9996618 0 -0.02592235 0.999664 0.9966234 -0.003617763 0.08202928 -0.9999998 5.31706e-4 -2.21975e-4 0 0.02600616 -0.9996619 0 -0.02592235 0.999664</float_array>
          <technique_common>
            <accessor source="#Wet_floor_sign-mesh-normals-array" count="169" stride="3">
              <param name="X" type="float"/>
              <param name="Y" type="float"/>
              <param name="Z" type="float"/>
            </accessor>
          </technique_common>
        </source>
        <source id="Wet_floor_sign-mesh-map-0">
          <float_array id="Wet_floor_sign-mesh-map-0-array" count="1056">0.00562644 0.5853128 0.2312008 0.08717352 0.00562644 0.08717352 0.5632883 0.5884791 0.5090739 0.09033977 0.4841454 0.5884791 0.4697413 0.5853128 0.2441669 0.08717352 0.4697413 0.08717352 0.8490386 0.7577904 0.3508994 0.7035763 0.8490386 0.6786476 0.8348918 0.2312008 0.7536225 0.00562644 0.7536225 0.2312008 0.6832624 0.09033977 0.7225269 0.1519179 0.680647 0.1519179 0.56046 0.09033977 0.5211953 0.1519179 0.5090739 0.09033977 0.6832624 0.09033977 0.56046 0.3159141 0.56046 0.09033977 0.8490386 0.6786476 0.9303079 0.7429234 0.8490386 0.7577904 0.2312008 0.6847173 0.00562644 0.8018631 0.2312008 0.8018631 0.3508994 0.9291506 0.8490386 0.8749362 0.8490386 0.9540791 0.3508994 0.8777645 0.8490386 0.7577904 0.8490386 0.8749362 0.7346482 0.09033977 0.6804342 0.5884791 0.7595769 0.5884791 0.6832624 0.09033977 0.5632883 0.5884791 0.6804342 0.5884791 0.7064469 0.0072034 0.4808726 0.07523196 0.7064469 0.07523196 0.2312008 0.8145714 0.00562644 0.8825999 0.2312008 0.8825999 0.4841454 0.5884791 0.5484213 0.6697484 0.5632883 0.5884791 0.8490386 0.9540791 0.9303079 0.8898033 0.9303079 0.9578319 0.7595769 0.5884791 0.6953012 0.6697483 0.7633297 0.6697483 0.8459014 0.4679064 0.7646321 0.242332 0.8459013 0.242332 0.00562644 0.08717352 0.2312008 0.005904197 0.00562644 0.005904197 0.2441669 0.08717352 0.4697413 0.005904197 0.4697413 0.08717352 0.8991143 0.2607467 0.8641059 0.2188668 0.8578544 0.2607467 0.8480741 0.1654669 0.9504922 0.04789537 0.9504922 0.1654669 0.2441611 0.6221619 0.2954233 0.7861582 0.2441611 0.8477362 0.4697413 0.5853128 0.3057451 0.6365749 0.2441669 0.5853128 0.00562644 0.5853128 0.1696227 0.6365749 0.2312008 0.5853128 0.573251 0.6018946 0.6331075 0.6437367 0.5710704 0.6532341 0.8917745 0.4368343 0.8405123 0.6008305 0.8917745 0.6624086 0.7707075 0.4815047 0.8125499 0.5413612 0.7707075 0.5431384 0.9504922 0.2073467 0.8480741 0.1654669 0.9504922 0.1654669 0.9504922 0.04789537 0.8480741 0.006015241 0.9504922 0.006015241 0.4081631 0.6365749 0.3057451 0.6715833 0.3057451 0.6365749 0.06720453 0.6365749 0.1696227 0.6715833 0.1696227 0.6365749 0.8578544 0.2607467 0.8991143 0.3783182 0.8991143 0.2607467 0.04789525 0.9358127 0.006015121 0.9008044 0.04789525 0.8945528 0.1654668 0.9358127 0.2073467 0.9008044 0.2073467 0.9358127 0.8991143 0.3783182 0.8641059 0.4201983 0.8991143 0.4201983 0.1654668 0.9358127 0.04789525 0.8945528 0.1654668 0.8945528 0.9945304 0.7655024 0.8769589 0.8679205 0.9945304 0.8679205 0.2312008 0.08717352 0.00562644 0.5853128 0.00562644 0.08717352 0.5632883 0.5884791 0.5090739 0.09033977 0.56046 0.09033977 0.4697413 0.08717352 0.2441669 0.5853128 0.4697413 0.5853128 0.8490386 0.8749363 0.3508994 0.9291504 0.3508994 0.8777646 0.8348918 0.2312008 0.7536225 0.00562644 0.8348918 0.00562644 0.6832624 0.09033977 0.7225269 0.1519179 0.7346482 0.09033977 0.5211953 0.1519179 0.56046 0.09033977 0.5090739 0.09033977 0.56046 0.3159141 0.6832624 0.09033977 0.56046 0.09033977 0.9303079 0.7429234 0.8490386 0.6786476 0.8490386 0.7577904 0.00562644 0.8018631 0.2312008 0.6847173 0.2312008 0.8018631 0.8490386 0.7577905 0.3508994 0.7035761 0.8490386 0.6786476 0.8490386 0.8749363 0.3508994 0.7549622 0.8490386 0.7577905 0.6804342 0.5884791 0.7346482 0.09033977 0.7595769 0.5884791 0.5632883 0.5884791 0.6832624 0.09033977 0.6804342 0.5884791 0.4808726 0.07523196 0.7064469 0.0072034 0.7064469 0.07523196 0.2312008 0.8825999 0.00562644 0.8145714 0.2312008 0.8145714 0.5484213 0.6697484 0.4841454 0.5884791 0.5632883 0.5884791 0.8490386 0.9540791 0.9303079 0.8898033 0.8490386 0.8749362 0.7595769 0.5884791 0.6953012 0.6697483 0.6804342 0.5884791 0.7646321 0.242332 0.8459014 0.4679064 0.8459013 0.242332 0.00562644 0.08717352 0.2312008 0.005904197 0.2312008 0.08717352 0.4697413 0.005904197 0.2441669 0.08717352 0.4697413 0.08717352 0.8991143 0.2607467 0.8641059 0.2188668 0.8991143 0.2188668 0.9504922 0.04789537 0.8480741 0.1654669 0.9504922 0.1654669 0.2954233 0.7861582 0.2441611 0.6221619 0.2441611 0.8477362 0.3057451 0.6365749 0.4697413 0.5853128 0.2441669 0.5853128 0.2312008 0.5853128 0.06720453 0.6365749 0.00562644 0.5853128 0.6331075 0.6437367 0.573251 0.6018946 0.5710704 0.6532341 0.8917745 0.6624086 0.8405123 0.4984124 0.8917745 0.4368343 0.7707075 0.4815047 0.8125499 0.5413612 0.8220473 0.4793242 0.8480741 0.1654669 0.9504922 0.2073467 0.9504922 0.1654669 0.9504922 0.006015241 0.8480741 0.04789537 0.9504922 0.04789537 0.3057451 0.6715833 0.4081631 0.6365749 0.3057451 0.6365749 0.1696227 0.6365749 0.06720453 0.6715833 0.06720453 0.6365749 0.8991143 0.3783182 0.8578544 0.2607467 0.8991143 0.2607467 0.04789525 0.9358127 0.006015121 0.9008044 0.006015121 0.9358127 0.2073467 0.9008044 0.1654668 0.9358127 0.2073467 0.9358127 0.8641059 0.4201983 0.8991143 0.3783182 0.8991143 0.4201983 0.04789525 0.8945528 0.1654668 0.9358127 0.1654668 0.8945528 0.8769589 0.8679205 0.9945304 0.7655024 0.9945304 0.8679205 0.3520911 0.6153853 0.4304294 0.3381371 0.3520911 0.3253021 0.4304294 0.3381371 0.3520911 0.6153853 0.3520911 0.3253021 0.3837233 0.3253021 0.3987972 0.6153853 0.3987972 0.3253021 0.3987972 0.3381371 0.3837234 0.6025503 0.3837233 0.3381371 0.3520911 0.6153853 0.4304294 0.3381371 0.4304294 0.6025503 0.3520911 0.6153853 0.4304294 0.3381371 0.3520911 0.3253021 0.3987972 0.6153853 0.3837233 0.3253021 0.3987972 0.3253021 0.3837234 0.6025503 0.3987972 0.3381371 0.3837233 0.3381371 0.00562644 0.5853128 0.2312008 0.5853128 0.2312008 0.08717352 0.5632883 0.5884791 0.56046 0.09033977 0.5090739 0.09033977 0.4697413 0.5853128 0.2441669 0.5853128 0.2441669 0.08717352 0.8490386 0.7577904 0.3508994 0.7549621 0.3508994 0.7035763 0.8348918 0.2312008 0.8348918 0.00562644 0.7536225 0.00562644 0.6832624 0.09033977 0.7346482 0.09033977 0.7225269 0.1519179 0.56046 0.09033977 0.5630754 0.1519179 0.5211953 0.1519179 0.6832624 0.09033977 0.6832625 0.3159141 0.56046 0.3159141 0.8490386 0.6786476 0.9303079 0.6748949 0.9303079 0.7429234 0.2312008 0.6847173 0.00562644 0.6847173 0.00562644 0.8018631 0.3508994 0.9291506 0.3508994 0.8777645 0.8490386 0.8749362 0.3508994 0.8777645 0.3508994 0.7549621 0.8490386 0.7577904 0.7346482 0.09033977 0.6832624 0.09033977 0.6804342 0.5884791 0.6832624 0.09033977 0.56046 0.09033977 0.5632883 0.5884791 0.7064469 0.0072034 0.4808726 0.0072034 0.4808726 0.07523196 0.2312008 0.8145714 0.00562644 0.8145714 0.00562644 0.8825999 0.4841454 0.5884791 0.4803927 0.6697484 0.5484213 0.6697484 0.8490386 0.9540791 0.8490386 0.8749362 0.9303079 0.8898033 0.7595769 0.5884791 0.6804342 0.5884791 0.6953012 0.6697483 0.8459014 0.4679064 0.7646321 0.4679064 0.7646321 0.242332 0.00562644 0.08717352 0.2312008 0.08717352 0.2312008 0.005904197 0.2441669 0.08717352 0.2441669 0.005904197 0.4697413 0.005904197 0.8991143 0.2607467 0.8991143 0.2188668 0.8641059 0.2188668 0.8480741 0.1654669 0.8480741 0.04789537 0.9504922 0.04789537 0.2441611 0.6221619 0.2954232 0.68374 0.2954233 0.7861582 0.4697413 0.5853128 0.4081631 0.6365749 0.3057451 0.6365749 0.00562644 0.5853128 0.06720453 0.6365749 0.1696227 0.6365749 0.573251 0.6018946 0.6348847 0.6018946 0.6331075 0.6437367 0.8917745 0.4368343 0.8405123 0.4984124 0.8405123 0.6008305 0.7707075 0.4815047 0.8220473 0.4793242 0.8125499 0.5413612 0.9504922 0.2073467 0.8480741 0.2073467 0.8480741 0.1654669 0.9504922 0.04789537 0.8480741 0.04789537 0.8480741 0.006015241 0.4081631 0.6365749 0.4081631 0.6715833 0.3057451 0.6715833 0.06720453 0.6365749 0.06720453 0.6715833 0.1696227 0.6715833 0.8578544 0.2607467 0.8578544 0.3783182 0.8991143 0.3783182 0.04789525 0.9358127 0.006015121 0.9358127 0.006015121 0.9008044 0.1654668 0.9358127 0.1654668 0.8945528 0.2073467 0.9008044 0.8991143 0.3783182 0.8578544 0.3783182 0.8641059 0.4201983 0.1654668 0.9358127 0.04789525 0.9358127 0.04789525 0.8945528 0.9945304 0.7655024 0.8769589 0.7655025 0.8769589 0.8679205 0.2312008 0.08717352 0.2312008 0.5853128 0.00562644 0.5853128 0.5632883 0.5884791 0.4841454 0.5884791 0.5090739 0.09033977 0.4697413 0.08717352 0.2441669 0.08717352 0.2441669 0.5853128 0.8490386 0.8749363 0.8490386 0.954079 0.3508994 0.9291504 0.8348918 0.2312008 0.7536225 0.2312008 0.7536225 0.00562644 0.6832624 0.09033977 0.680647 0.1519179 0.7225269 0.1519179 0.5211953 0.1519179 0.5630754 0.1519179 0.56046 0.09033977 0.56046 0.3159141 0.6832625 0.3159141 0.6832624 0.09033977 0.9303079 0.7429234 0.9303079 0.6748949 0.8490386 0.6786476 0.00562644 0.8018631 0.00562644 0.6847173 0.2312008 0.6847173 0.8490386 0.7577905 0.3508994 0.7549622 0.3508994 0.7035761 0.8490386 0.8749363 0.3508994 0.8777646 0.3508994 0.7549622 0.6804342 0.5884791 0.6832624 0.09033977 0.7346482 0.09033977 0.5632883 0.5884791 0.56046 0.09033977 0.6832624 0.09033977 0.4808726 0.07523196 0.4808726 0.0072034 0.7064469 0.0072034 0.2312008 0.8825999 0.00562644 0.8825999 0.00562644 0.8145714 0.5484213 0.6697484 0.4803927 0.6697484 0.4841454 0.5884791 0.8490386 0.9540791 0.9303079 0.9578319 0.9303079 0.8898033 0.7595769 0.5884791 0.7633297 0.6697483 0.6953012 0.6697483 0.7646321 0.242332 0.7646321 0.4679064 0.8459014 0.4679064 0.00562644 0.08717352 0.00562644 0.005904197 0.2312008 0.005904197 0.4697413 0.005904197 0.2441669 0.005904197 0.2441669 0.08717352 0.8991143 0.2607467 0.8578544 0.2607467 0.8641059 0.2188668 0.9504922 0.04789537 0.8480741 0.04789537 0.8480741 0.1654669 0.2954233 0.7861582 0.2954232 0.68374 0.2441611 0.6221619 0.3057451 0.6365749 0.4081631 0.6365749 0.4697413 0.5853128 0.2312008 0.5853128 0.1696227 0.6365749 0.06720453 0.6365749 0.6331075 0.6437367 0.6348847 0.6018946 0.573251 0.6018946 0.8917745 0.6624086 0.8405123 0.6008305 0.8405123 0.4984124 0.7707075 0.4815047 0.7707075 0.5431384 0.8125499 0.5413612 0.8480741 0.1654669 0.8480741 0.2073467 0.9504922 0.2073467 0.9504922 0.006015241 0.8480741 0.006015241 0.8480741 0.04789537 0.3057451 0.6715833 0.4081631 0.6715833 0.4081631 0.6365749 0.1696227 0.6365749 0.1696227 0.6715833 0.06720453 0.6715833 0.8991143 0.3783182 0.8578544 0.3783182 0.8578544 0.2607467 0.04789525 0.9358127 0.04789525 0.8945528 0.006015121 0.9008044 0.2073467 0.9008044 0.1654668 0.8945528 0.1654668 0.9358127 0.8641059 0.4201983 0.8578544 0.3783182 0.8991143 0.3783182 0.04789525 0.8945528 0.04789525 0.9358127 0.1654668 0.9358127 0.8769589 0.8679205 0.8769589 0.7655025 0.9945304 0.7655024 0.3520911 0.6153853 0.4304294 0.6025503 0.4304294 0.3381371 0.4304294 0.3381371 0.4304294 0.6025503 0.3520911 0.6153853 0.3837233 0.3253021 0.3837234 0.6153853 0.3987972 0.6153853 0.3987972 0.3381371 0.3987972 0.6025503 0.3837234 0.6025503 0.3520911 0.6153853 0.3520911 0.3253021 0.4304294 0.3381371 0.3520911 0.6153853 0.4304294 0.6025503 0.4304294 0.3381371 0.3987972 0.6153853 0.3837234 0.6153853 0.3837233 0.3253021 0.3837234 0.6025503 0.3987972 0.6025503 0.3987972 0.3381371</float_array>
          <technique_common>
            <accessor source="#Wet_floor_sign-mesh-map-0-array" count="528" stride="2">
              <param name="S" type="float"/>
              <param name="T" type="float"/>
            </accessor>
          </technique_common>
        </source>
        <vertices id="Wet_floor_sign-mesh-vertices">
          <input semantic="POSITION" source="#Wet_floor_sign-mesh-positions"/>
        </vertices>
        <triangles material="Wet_floor_sign-material" count="176">
          <input semantic="VERTEX" source="#Wet_floor_sign-mesh-vertices" offset="0"/>
          <input semantic="NORMAL" source="#Wet_floor_sign-mesh-normals" offset="1"/>
          <input semantic="TEXCOORD" source="#Wet_floor_sign-mesh-map-0" offset="2" set="0"/>
          <p>1 0 0 2 0 1 0 0 2 8 1 3 7 1 4 6 1 5 7 2 6 4 2 7 6 2 8 12 3 9 1 3 10 0 3 11 13 4 12 22 4 13 21 4 14 10 5 15 25 5 16 30 5 17 11 6 18 27 6 19 7 6 20 10 7 21 14 7 22 11 7 23 0 8 24 23 8 25 12 8 26 8 9 27 12 9 28 9 9 29 5 10 30 13 10 31 4 10 32 14 11 33 12 11 34 13 11 35 3 12 36 9 12 37 2 12 38 10 13 39 8 13 40 9 13 41 20 14 42 21 14 43 22 14 44 18 15 45 17 15 46 16 15 47 6 16 48 22 16 49 8 16 50 4 17 51 21 17 52 19 17 53 2 18 54 18 18 55 16 18 56 12 19 57 18 19 58 9 19 59 0 20 60 16 20 61 17 20 62 4 21 63 20 21 64 6 21 65 30 22 66 33 22 67 38 22 68 37 7 69 34 7 70 38 7 71 10 23 72 29 23 73 15 23 74 7 24 75 28 24 76 5 24 77 1 25 78 25 25 79 3 25 80 15 26 81 24 26 82 1 26 83 14 27 84 26 27 85 11 27 86 14 28 87 28 28 88 31 28 89 33 29 90 37 29 91 38 29 92 34 30 93 36 30 94 35 30 95 27 31 96 36 31 97 28 31 98 24 32 99 33 32 100 25 32 101 38 33 102 26 33 103 30 33 104 31 34 105 36 34 106 39 34 107 29 35 108 32 35 109 24 35 110 26 36 111 35 36 112 27 36 113 29 37 114 39 37 115 37 37 116 30 9 117 31 9 118 29 9 119 42 38 120 41 38 121 40 38 122 48 39 123 47 39 124 51 39 125 46 40 126 45 40 127 47 40 128 52 41 129 41 41 130 55 41 131 53 42 132 62 42 133 48 42 134 50 43 135 65 43 136 43 43 137 67 44 138 51 44 139 47 44 140 54 45 141 50 45 142 51 45 143 63 46 144 40 46 145 52 46 146 52 47 147 48 47 148 49 47 149 53 48 150 45 48 151 44 48 152 52 49 153 54 49 154 53 49 155 49 50 156 43 50 157 42 50 158 48 51 159 50 51 160 49 51 161 61 52 162 60 52 163 62 52 164 56 53 165 63 53 166 58 53 167 62 54 168 46 54 169 48 54 170 44 55 171 61 55 172 53 55 173 42 56 174 58 56 175 49 56 176 58 57 177 52 57 178 49 57 179 40 58 180 56 58 181 42 58 182 60 59 183 44 59 184 46 59 185 70 60 186 73 60 187 65 60 188 74 61 189 77 61 190 78 61 191 69 62 192 50 62 193 55 62 194 68 63 195 47 63 196 45 63 197 43 64 198 64 64 199 41 64 200 64 65 201 55 65 202 41 65 203 51 66 204 71 66 205 54 66 206 54 67 207 68 67 208 45 67 209 77 68 210 73 68 211 78 68 212 75 69 213 79 69 214 74 69 215 76 70 216 67 70 217 68 70 218 65 71 219 72 71 220 64 71 221 66 72 222 78 72 223 70 72 224 71 73 225 76 73 226 68 73 227 72 74 228 69 74 229 64 74 230 75 75 231 66 75 232 67 75 233 79 76 234 69 76 235 77 76 236 71 77 237 70 77 238 69 77 239 80 78 240 83 78 241 82 78 242 87 79 243 84 79 244 86 79 245 86 80 246 80 80 247 82 80 248 83 81 249 85 81 250 87 81 251 88 82 252 91 82 253 89 82 254 92 83 255 95 83 256 94 83 257 88 84 258 94 84 259 90 84 260 93 85 261 91 85 262 95 85 263 1 86 264 3 86 265 2 86 266 8 87 267 11 87 268 7 87 269 7 88 270 5 88 271 4 88 272 12 89 273 15 89 274 1 89 275 13 90 276 8 90 277 22 90 278 10 91 279 3 91 280 25 91 281 11 92 282 26 92 283 27 92 284 10 7 285 15 7 286 14 7 287 0 93 288 17 93 289 23 93 290 8 9 291 13 9 292 12 9 293 5 94 294 14 94 295 13 94 296 14 95 297 15 95 298 12 95 299 3 96 300 10 96 301 9 96 302 10 97 303 11 97 304 8 97 305 20 98 306 19 98 307 21 98 308 18 99 309 23 99 310 17 99 311 6 100 312 20 100 313 22 100 314 4 101 315 13 101 316 21 101 317 2 102 318 9 102 319 18 102 320 12 103 321 23 103 322 18 103 323 0 104 324 2 104 325 16 104 326 4 105 327 19 105 328 20 105 329 30 106 330 25 106 331 33 106 332 37 7 333 39 7 334 34 7 335 10 107 336 30 107 337 29 107 338 7 108 339 27 108 340 28 108 341 1 109 342 24 109 343 25 109 344 15 110 345 29 110 346 24 110 347 14 111 348 31 111 349 26 111 350 14 112 351 5 112 352 28 112 353 33 113 354 32 113 355 37 113 356 34 114 357 39 114 358 36 114 359 27 115 360 35 115 361 36 115 362 24 116 363 32 116 364 33 116 365 38 117 366 34 117 367 26 117 368 31 118 369 28 118 370 36 118 371 29 119 372 37 119 373 32 119 374 26 120 375 34 120 376 35 120 377 29 121 378 31 121 379 39 121 380 30 9 381 26 9 382 31 9 383 42 122 384 43 122 385 41 122 386 48 123 387 46 123 388 47 123 389 46 124 390 44 124 391 45 124 392 52 125 393 40 125 394 41 125 395 53 126 396 61 126 397 62 126 398 50 127 399 70 127 400 65 127 401 67 128 402 66 128 403 51 128 404 54 129 405 55 129 406 50 129 407 63 130 408 57 130 409 40 130 410 52 131 411 53 131 412 48 131 413 53 132 414 54 132 415 45 132 416 52 133 417 55 133 418 54 133 419 49 134 420 50 134 421 43 134 422 48 51 423 51 51 424 50 51 425 61 135 426 59 135 427 60 135 428 56 136 429 57 136 430 63 136 431 62 137 432 60 137 433 46 137 434 44 138 435 59 138 436 61 138 437 42 139 438 56 139 439 58 139 440 58 140 441 63 140 442 52 140 443 40 141 444 57 141 445 56 141 446 60 142 447 59 142 448 44 142 449 70 143 450 78 143 451 73 143 452 74 144 453 79 144 454 77 144 455 69 145 456 70 145 457 50 145 458 68 146 459 67 146 460 47 146 461 43 147 462 65 147 463 64 147 464 64 148 465 69 148 466 55 148 467 51 149 468 66 149 469 71 149 470 54 150 471 71 150 472 68 150 473 77 151 474 72 151 475 73 151 476 75 152 477 76 152 478 79 152 479 76 153 480 75 153 481 67 153 482 65 154 483 73 154 484 72 154 485 66 155 486 74 155 487 78 155 488 71 156 489 79 156 490 76 156 491 72 157 492 77 157 493 69 157 494 75 158 495 74 158 496 66 158 497 79 159 498 71 159 499 69 159 500 71 160 501 66 160 502 70 160 503 80 161 504 81 161 505 83 161 506 87 162 507 85 162 508 84 162 509 86 163 510 84 163 511 80 163 512 83 164 513 81 164 514 85 164 515 88 165 516 90 165 517 91 165 518 92 166 519 93 166 520 95 166 521 88 167 522 92 167 523 94 167 524 93 168 525 89 168 526 91 168 527</p>
        </triangles>
      </mesh>
    </geometry>
  </library_geometries>
  <library_visual_scenes>
    <visual_scene id="Scene" name="Scene">
      <node id="Wet_floor_sign" name="Wet_floor_sign" type="NODE">
        <matrix sid="transform">-0.1619069 6.12904e-9 1.09629e-8 0 -5.2756e-8 -0.01880988 -0.03364498 0 0 -0.003996009 0.1583725 0 0 0 0 1</matrix>
        <instance_geometry url="#Wet_floor_sign-mesh" name="Wet_floor_sign">
          <bind_material>
            <technique_common>
              <instance_material symbol="Wet_floor_sign-material" target="#Wet_floor_sign-material">
                <bind_vertex_input semantic="UVMap" input_semantic="TEXCOORD" input_set="0"/>
              </instance_material>
            </technique_common>
          </bind_material>
        </instance_geometry>
      </node>
    </visual_scene>
  </library_visual_scenes>
  <scene>
    <instance_visual_scene url="#Scene"/>
  </scene>
</COLLADA>