<?xml version="1.0" encoding="utf-8"?>
<COLLADA xmlns="http://www.collada.org/2005/11/COLLADASchema" version="1.4.1" xmlns:xsi="http://www.w3.org/2001/XMLSchema-instance">
  <asset>
    <contributor>
      <author>Blender User</author>
      <authoring_tool>Blender 4.0.1 commit date:2023-11-16, commit time:16:40, hash:d0dd92834a08</authoring_tool>
    </contributor>
    <created>2023-11-28T13:21:34</created>
    <modified>2023-11-28T13:21:34</modified>
    <unit name="meter" meter="1"/>
    <up_axis>Z_UP</up_axis>
  </asset>
  <library_effects>
    <effect id="Metal_03-effect">
      <profile_COMMON>
        <newparam sid="Metal_03_png-surface">
          <surface type="2D">
            <init_from>Metal_03_png</init_from>
          </surface>
        </newparam>
        <newparam sid="Metal_03_png-sampler">
          <sampler2D>
            <source>Metal_03_png-surface</source>
          </sampler2D>
        </newparam>
        <technique sid="common">
          <lambert>
            <emission>
              <color sid="emission">0 0 0 1</color>
            </emission>
            <diffuse>
              <texture texture="Metal_03_png-sampler" texcoord="UVMap"/>
            </diffuse>
            <index_of_refraction>
              <float sid="ior">1.45</float>
            </index_of_refraction>
          </lambert>
        </technique>
      </profile_COMMON>
    </effect>
    <effect id="Metal_04-effect">
      <profile_COMMON>
        <newparam sid="Metal_04_png-surface">
          <surface type="2D">
            <init_from>Metal_04_png</init_from>
          </surface>
        </newparam>
        <newparam sid="Metal_04_png-sampler">
          <sampler2D>
            <source>Metal_04_png-surface</source>
          </sampler2D>
        </newparam>
        <technique sid="common">
          <lambert>
            <emission>
              <color sid="emission">0 0 0 1</color>
            </emission>
            <diffuse>
              <texture texture="Metal_04_png-sampler" texcoord="UVMap"/>
            </diffuse>
            <index_of_refraction>
              <float sid="ior">1.45</float>
            </index_of_refraction>
          </lambert>
        </technique>
      </profile_COMMON>
    </effect>
  </library_effects>
  <library_images>
    <image id="Metal_03_png" name="Metal_03_png">
      <init_from>Metal_03.png</init_from>
    </image>
    <image id="Metal_04_png" name="Metal_04_png">
      <init_from>Metal_04.png</init_from>
    </image>
  </library_images>
  <library_materials>
    <material id="Metal_03-material" name="Metal_03">
      <instance_effect url="#Metal_03-effect"/>
    </material>
    <material id="Metal_04-material" name="Metal_04">
      <instance_effect url="#Metal_04-effect"/>
    </material>
  </library_materials>
  <library_geometries>
    <geometry id="Table_M_01-mesh" name="Table_M_01">
      <mesh>
        <source id="Table_M_01-mesh-positions">
          <float_array id="Table_M_01-mesh-positions-array" count="936">-0.409214 -1.034273 -0.02820664 -0.409214 -1.034273 0.02820664 -0.409214 1.034273 -0.02820664 -0.409214 1.034273 0.02820664 0.4364655 -1.034273 -0.02820664 0.4364655 -1.034273 0.02820664 0.4364655 1.034273 -0.02820664 0.4364655 1.034273 0.02820664 -0.3144062 0.9087114 -0.02820664 0.3456284 0.9087114 -0.02820664 0.3456284 -0.07614487 -0.02820664 0.3456284 0.07614487 -0.02820664 -0.3144062 -0.9087114 -0.02820664 -0.3144062 -0.07614487 -0.02820664 -0.3144062 0.07614487 -0.02820664 0.3456284 -0.9087114 -0.02820664 -0.2926245 -0.1036202 0.02820664 -0.2926245 0.1036202 0.02820664 0.3238467 0.8812361 0.02820664 -0.2926245 0.8812361 0.02820664 -0.2926245 -0.8812361 0.02820664 0.3238467 -0.8812361 0.02820664 0.3238467 -0.1036202 0.02820664 0.3238467 0.1036202 0.02820664 -0.2924626 0.8810318 -0.3343001 0.3236848 0.8810318 -0.3343001 0.3236848 -0.1038245 -0.3343001 0.3236848 0.1038245 -0.3343001 -0.2924626 -0.8810318 -0.3343001 -0.2924626 -0.1038245 -0.3343001 -0.2924626 0.1038245 -0.3343001 0.3236848 -0.8810318 -0.3343001 -0.2721292 -0.1294729 -0.3136968 -0.2721292 0.1294729 -0.3136968 0.3033514 0.8553833 -0.3136968 -0.2721292 0.8553833 -0.3136968 -0.2721292 -0.8553833 -0.3136968 0.3033514 -0.8553833 -0.3136968 0.3033514 -0.1294729 -0.3136968 0.3033514 0.1294729 -0.3136968 -0.4448103 -1.034273 -0.02820664 -0.4448103 -1.034273 0.02820664 -0.4448103 1.034273 -0.02820664 -0.4448103 1.034273 0.02820664 -0.409214 -1.034273 0.1123983 -0.409214 1.034273 0.1123983 -0.4448103 -1.034273 0.1123983 -0.4448103 1.034273 0.1123983 -0.4014242 -0.6242085 0.0199514 -0.3958002 -0.6107589 0.04654008 -0.4014242 -0.370161 0.0199514 -0.3958002 -0.3836106 0.04654008 -0.2951929 -0.6242085 0.0199514 -0.3008169 -0.6107589 0.04654008 -0.2951929 -0.370161 0.0199514 -0.3008169 -0.3836106 0.04654008 -0.3483086 -0.4724898 0.03978294 -0.3483086 -0.4728313 0.08664643 -0.3248223 -0.4895536 0.03978294 -0.325147 -0.4896591 0.08664643 -0.3337932 -0.5171633 0.03978294 -0.333994 -0.5168871 0.08664643 -0.3628239 -0.5171633 0.03978294 -0.3626232 -0.5168871 0.08664643 -0.3717948 -0.4895536 0.03978294 -0.37147 -0.4896591 0.08664643 -0.3482881 -0.4842668 0.08258157 -0.3360211 -0.4931983 0.08257788 -0.3407032 -0.5076266 0.08257949 -0.3558864 -0.5076466 0.08258318 -0.3605918 -0.4931855 0.08258384 -0.3360728 -0.4931749 0.2205886 -0.3483929 -0.4842687 0.2210332 -0.340788 -0.5076737 0.220781 -0.3559368 -0.5075914 0.2212097 -0.3605744 -0.493218 0.2212899 -0.3055455 -0.4931369 0.2943087 -0.3143126 -0.4842715 0.3031476 -0.3089269 -0.5077224 0.2977173 -0.3196076 -0.5075516 0.3084855 -0.3228472 -0.4932385 0.3117514 -0.2319967 -0.493136 0.324308 -0.2318986 -0.4842684 0.3367476 -0.2319589 -0.5077186 0.3291046 -0.2318387 -0.5075566 0.3442688 -0.2318019 -0.4932331 0.3488745 -0.1589041 -0.4931302 0.2932194 -0.150003 -0.4842702 0.3019338 -0.1554693 -0.5077236 0.2965834 -0.1446291 -0.5075441 0.307187 -0.1413422 -0.4932383 0.310399 -0.1290348 -0.4933063 0.2181541 -0.1171218 -0.4845913 0.218199 -0.1245014 -0.5073473 0.2181812 -0.1097385 -0.5073629 0.2181817 -0.1051769 -0.493289 0.2181592 -0.3483086 -0.5903912 0.08057802 -0.3483086 -0.5887015 0.04120701 -0.3725045 -0.5728118 0.08057802 -0.3708975 -0.5722897 0.04120701 -0.3632625 -0.5443678 0.08057802 -0.3622693 -0.5457348 0.04120701 -0.3333547 -0.5443678 0.08057802 -0.3343478 -0.5457348 0.04120701 -0.3241126 -0.5728118 0.08057802 -0.3257196 -0.5722897 0.04120701 -0.3688882 -0.4144619 0.08057802 -0.3675214 -0.4154553 0.04120701 -0.3688935 -0.4443697 0.08057802 -0.3675264 -0.4433768 0.04120701 -0.3404511 -0.4536168 0.08057802 -0.340973 -0.4520097 0.04120701 -0.3228675 -0.4294239 0.08057802 -0.3245571 -0.4294236 0.04120701 -0.3404425 -0.4052249 0.08057802 -0.340965 -0.4068318 0.04120701 -0.4014242 0.3847837 0.0199514 -0.3958002 0.3982332 0.04654008 -0.4014242 0.6388311 0.0199514 -0.3958002 0.6253816 0.04654008 -0.2951929 0.3847837 0.0199514 -0.3008169 0.3982332 0.04654008 -0.2951929 0.6388311 0.0199514 -0.3008169 0.6253816 0.04654008 -0.3483086 0.5365024 0.03978294 -0.3483086 0.5361609 0.08664643 -0.3248223 0.5194386 0.03978294 -0.325147 0.5193331 0.08664643 -0.3337932 0.4918288 0.03978294 -0.333994 0.4921051 0.08664643 -0.3628239 0.4918288 0.03978294 -0.3626232 0.4921051 0.08664643 -0.3717948 0.5194386 0.03978294 -0.37147 0.5193331 0.08664643 -0.3482881 0.5247254 0.08258157 -0.3360211 0.5157939 0.08257788 -0.3407032 0.5013656 0.08257949 -0.3558864 0.5013456 0.08258318 -0.3605918 0.5158067 0.08258384 -0.3360728 0.5158173 0.2205886 -0.3483929 0.5247235 0.2210332 -0.340788 0.5013185 0.220781 -0.3559368 0.5014008 0.2212097 -0.3605744 0.5157742 0.2212899 -0.3055455 0.5158553 0.2943087 -0.3143126 0.5247207 0.3031476 -0.3089269 0.5012698 0.2977173 -0.3196076 0.5014407 0.3084855 -0.3228472 0.5157537 0.3117514 -0.2319967 0.5158562 0.324308 -0.2318986 0.5247238 0.3367476 -0.2319589 0.5012736 0.3291046 -0.2318387 0.5014356 0.3442688 -0.2318019 0.5157591 0.3488745 -0.1589041 0.515862 0.2932194 -0.150003 0.524722 0.3019338 -0.1554693 0.5012686 0.2965834 -0.1446291 0.5014482 0.307187 -0.1413422 0.5157539 0.310399 -0.1290348 0.5156859 0.2181541 -0.1171218 0.5244009 0.218199 -0.1245014 0.5016449 0.2181812 -0.1097385 0.5016293 0.2181817 -0.1051769 0.5157032 0.2181592 -0.3483086 0.418601 0.08057802 -0.3483086 0.4202907 0.04120701 -0.3725045 0.4361804 0.08057802 -0.3708975 0.4367026 0.04120701 -0.3632625 0.4646244 0.08057802 -0.3622693 0.4632574 0.04120701 -0.3333547 0.4646244 0.08057802 -0.3343478 0.4632574 0.04120701 -0.3241126 0.4361804 0.08057802 -0.3257196 0.4367026 0.04120701 -0.3688882 0.5945303 0.08057802 -0.3675214 0.5935369 0.04120701 -0.3688935 0.5646225 0.08057802 -0.3675264 0.5656154 0.04120701 -0.3404511 0.5553754 0.08057802 -0.340973 0.5569825 0.04120701 -0.3228675 0.5795682 0.08057802 -0.3245571 0.5795685 0.04120701 -0.3404425 0.6037673 0.08057802 -0.340965 0.6021604 0.04120701 -0.3865134 0.9490754 -0.9616287 -0.3865134 0.9490754 -0.02157068 -0.3865134 0.9994373 -0.9616287 -0.3865134 0.9994373 -0.02157068 -0.3361514 0.9490754 -0.9616287 -0.3361514 0.9490754 -0.02157068 -0.3361514 0.9994373 -0.9616287 -0.3361514 0.9994373 -0.02157068 0.3361513 0.9490754 -0.9616287 0.3361513 0.9490754 -0.02157068 0.3361513 0.9994373 -0.9616287 0.3361513 0.9994373 -0.02157068 0.3865132 0.9490754 -0.9616287 0.3865132 0.9490754 -0.02157068 0.3865132 0.9994373 -0.9616287 0.3865132 0.9994373 -0.02157068 0.3361513 -0.9994363 -0.9616287 0.3361513 -0.9994363 -0.02157068 0.3361513 -0.9490742 -0.9616287 0.3361513 -0.9490742 -0.02157068 0.3865132 -0.9994363 -0.9616287 0.3865132 -0.9994363 -0.02157068 0.3865132 -0.9490742 -0.9616287 0.3865132 -0.9490742 -0.02157068 -0.386513 -0.9994363 -0.9616287 -0.386513 -0.9994363 -0.02157068 -0.386513 -0.9490742 -0.9616287 -0.386513 -0.9490742 -0.02157068 -0.336151 -0.9994363 -0.9616287 -0.336151 -0.9994363 -0.02157068 -0.336151 -0.9490742 -0.9616287 -0.336151 -0.9490742 -0.02157068 -0.3697868 -0.9767529 -0.8139922 -0.3697868 -0.9767529 -0.7643458 -0.3697868 0.9767532 -0.8139922 -0.3697868 0.9767532 -0.7643458 0.3697868 -0.9767529 -0.8139922 0.3697868 -0.9767529 -0.7643458 0.3697868 0.9767532 -0.8139922 0.3697868 0.9767532 -0.7643458 -0.4149001 0.9563689 0.005243957 -0.4132609 0.9580081 0.8427643 -0.4149001 0.9921438 0.005243957 -0.4132609 0.9905046 0.8427643 -0.3791252 0.9563689 0.005243957 -0.3807644 0.9580081 0.8427643 -0.3791252 0.9921438 0.005243957 -0.3807644 0.9905046 0.8427643 -0.06459289 0.9563689 0.005243957 -0.06295371 0.9580081 0.8427643 -0.06459289 0.9921438 0.005243957 -0.06295371 0.9905046 0.8427643 -0.02881795 0.9563689 0.005243957 -0.03045713 0.9580081 0.8427643 -0.02881795 0.9921438 0.005243957 -0.03045713 0.9905046 0.8427643 -0.06459289 -0.9921427 0.005243957 -0.06295371 -0.9905036 0.8427643 -0.06459289 -0.9563677 0.005243957 -0.06295371 -0.9580069 0.8427643 -0.02881795 -0.9921427 0.005243957 -0.03045713 -0.9905036 0.8427643 -0.02881795 -0.9563677 0.005243957 -0.03045713 -0.9580069 0.8427643 -0.4148998 -0.9921427 0.005243957 -0.4132606 -0.9905036 0.8427643 -0.4148998 -0.9563677 0.005243957 -0.4132606 -0.9580069 0.8427643 -0.3791248 -0.9921427 0.005243957 -0.380764 -0.9905036 0.8427643 -0.3791248 -0.9563677 0.005243957 -0.380764 -0.9580069 0.8427643 -0.4132609 0.9580081 0.874296 -0.4132609 0.9905046 0.874296 -0.3807644 0.9905046 0.874296 -0.3807644 0.9580081 0.874296 -0.06295371 0.9580081 0.874296 -0.06295371 0.9905046 0.874296 -0.03045713 0.9905046 0.874296 -0.03045713 0.9580081 0.874296 -0.06295371 -0.9905036 0.874296 -0.06295371 -0.9580069 0.874296 -0.03045713 -0.9580069 0.874296 -0.03045713 -0.9905036 0.874296 -0.4132606 -0.9905036 0.874296 -0.4132606 -0.9580069 0.874296 -0.380764 -0.9580069 0.874296 -0.380764 -0.9905036 0.874296 -0.05097514 -0.959402 0.8626456 -0.05097514 0.964699 0.8626456 -0.3927428 -0.959402 0.8626456 -0.3927428 0.964699 0.8626456 -0.4132609 0.9580081 0.4144203 -0.3807644 0.9580081 0.4144203 -0.3807644 0.9905046 0.4144203 -0.06295371 0.9580081 0.4144203 -0.06295371 0.9905046 0.4144203 -0.03045713 0.9580081 0.4144203 -0.06295371 -0.9905036 0.4144203 -0.06295371 -0.9580069 0.4144203 -0.03045713 -0.9580069 0.4144203 -0.4132606 -0.9580069 0.4144203 -0.380764 -0.9905036 0.4144203 -0.380764 -0.9580069 0.4144203 -0.4132609 0.9580081 0.445952 -0.3807644 0.9905046 0.445952 -0.3807644 0.9580081 0.445952 -0.06295371 0.9580081 0.445952 -0.06295371 0.9905046 0.445952 -0.03045713 0.9580081 0.445952 -0.06295371 -0.9905036 0.445952 -0.06295371 -0.9580069 0.445952 -0.03045713 -0.9580069 0.445952 -0.4132606 -0.9580069 0.445952 -0.380764 -0.9580069 0.445952 -0.380764 -0.9905036 0.445952 -0.05097514 -0.959402 0.4343017 -0.05097514 0.964699 0.4343017 -0.3927428 -0.959402 0.4343017 -0.3927428 0.964699 0.4343017 -0.05097514 -0.959402 0.8626456 -0.05097514 0.964699 0.8626456 -0.3927428 -0.959402 0.8626456 -0.3927428 0.964699 0.8626456 -0.05097514 -0.959402 0.4343017 -0.05097514 0.964699 0.4343017 -0.3927428 -0.959402 0.4343017 -0.3927428 0.964699 0.4343017</float_array>
          <technique_common>
            <accessor source="#Table_M_01-mesh-positions-array" count="312" stride="3">
              <param name="X" type="float"/>
              <param name="Y" type="float"/>
              <param name="Z" type="float"/>
            </accessor>
          </technique_common>
        </source>
        <source id="Table_M_01-mesh-normals">
          <float_array id="Table_M_01-mesh-normals-array" count="639">0 0 -1 0 1 0 1 0 0 0 -1 0 3.36617e-7 0 -1 -2.58015e-7 0 -1 -1.92724e-7 0 1 1.59616e-7 0 1 0 0.9959363 -0.09006124 0 -0.9959363 -0.09006124 -0.9974402 0 -0.07150578 -0.9974402 0 -0.07150578 0.9974402 0 -0.07150578 0.9974402 0 -0.07150578 0 -0.9959363 -0.09006154 0 0.9959363 -0.09006154 0 0.9971535 0.07539886 0 -0.9971535 0.07539886 0.9982082 0 0.05983728 -0.9982082 0 0.05983728 0 0.9971535 0.07539892 0.9982082 0 0.05983728 0 -0.9971535 0.07539892 -0.9982082 0 0.05983728 0 0 1 -1 0 0 -0.5279443 -0.4167796 0.7399795 -0.5863136 0.666138 0.4609737 -0.5863133 -0.6661378 0.4609743 -0.5279443 0.4167802 0.7399792 0.5863133 0.6661379 0.460974 0.5279444 0.4167799 0.7399793 0.5863137 -0.6661389 0.4609721 0.5279445 -0.4167807 0.7399787 0 0.8011813 0.5984217 0.9510316 0.3090079 0.007286965 7.76012e-7 0.9999735 0.007286906 0.7619684 0.2475792 0.5984218 0.5877697 -0.8089955 0.007285833 0.4709231 -0.6481693 0.5984213 -0.5877701 -0.8089954 0.007285892 -0.7619687 0.2475791 0.5984217 -0.4709231 -0.6481692 0.5984215 -0.9510313 0.3090089 0.007286906 0.5244773 -0.845403 -0.1010814 0.6564304 0.3654593 -0.6599535 0.3289244 -0.884625 -0.3305261 -0.9509657 0.3092966 -3.64291e-4 -0.07589244 0.9967035 0.02868306 0.001306474 0.9999992 -2.00548e-4 -0.5870586 -0.8095445 -3.15935e-4 -0.6236069 -0.7709704 0.1293033 0.9231369 0.3317645 -0.1942952 0.9511963 0.3085864 3.0368e-4 -0.941078 0.2872563 0.1784826 0.588728 -0.8083312 4.55446e-5 -0.4740366 -0.7395262 0.4779022 -0.003542423 -0.8843173 -0.4668729 0.004978597 -0.7397198 0.6728966 -0.1078639 0.9881641 0.1090747 -0.6778261 0.2714313 0.6832839 0.007212579 0.2715581 0.962395 0.483409 -0.7390848 0.4691155 0.6900875 0.2712069 0.670989 -0.006931543 0.3651246 -0.9309329 9.89707e-4 0.988234 0.1529468 0.111657 0.9880164 0.1065667 0.8535724 0.2436175 -0.460505 0.1128249 0.8120352 -0.5725988 -0.666027 0.365778 -0.650088 -0.3324152 -0.8850357 -0.3259022 0.5772195 -0.6469208 -0.4983083 -0.6413013 0.2454466 -0.7269722 -0.3597996 -0.6543608 -0.6650986 -0.7750096 -0.2518157 0.5796113 -1.84591e-7 -0.9990804 -0.04287731 -1.2632e-7 -0.8148931 0.5796114 -0.5872446 0.8082731 -0.04287642 -0.9501819 -0.3087328 -0.04287767 0.4789819 0.6592621 0.5796119 -0.4789819 0.6592621 0.5796118 0.7750097 -0.2518159 0.579611 0.5872451 0.8082729 -0.04287642 0.9501817 -0.3087335 -0.04287701 -0.6591774 0.4790988 0.5796115 -0.8083769 -0.5871018 -0.04287683 -0.659347 -0.4788656 0.5796113 0.3085651 -0.9502364 -0.04287719 0.25168 -0.7750539 0.579611 0.8148933 -1.43549e-4 0.579611 0.9990804 -1.77392e-4 -0.04287672 0.251953 0.7749649 0.5796113 0.3089011 0.9501273 -0.0428763 -0.5279445 -0.4167801 0.7399791 -0.5863135 0.6661372 0.460975 -0.5863134 -0.6661379 0.460974 -0.5279441 0.4167796 0.7399796 0.5863133 0.6661371 0.4609752 0.5279442 0.4167793 0.7399797 0.5863135 -0.6661372 0.4609748 0.5279442 -0.4167798 0.7399795 0 0.9999735 0.007283985 0.7619692 0.2475779 0.5984213 0.9510313 0.3090088 0.007284164 0.4709225 -0.6481696 0.5984215 0.58777 -0.8089953 0.007286727 -0.5877705 -0.808995 0.007286965 -0.7619691 0.2475783 0.5984214 -0.4709225 -0.6481694 0.5984216 -0.9510313 0.3090088 0.007284164 0.5244775 -0.845403 -0.1010809 0.6564306 0.3654595 -0.6599532 0.3289242 -0.8846247 -0.3305268 -0.9509654 0.3092973 -3.63815e-4 -0.07589256 0.9967035 0.02868175 0.001306533 0.9999992 -1.99792e-4 -0.5870586 -0.8095445 -3.15851e-4 -0.6236069 -0.7709704 0.129303 0.9231371 0.3317644 -0.1942941 0.9511961 0.3085871 3.03955e-4 -0.9410781 0.2872565 0.1784816 0.588728 -0.8083312 4.5605e-5 -0.4740368 -0.7395262 0.477902 -0.003542006 -0.8843179 -0.466872 0.004979133 -0.7397196 0.6728968 -0.1078635 0.9881644 0.1090722 -0.6778264 0.2714332 0.6832829 0.007212877 0.2715567 0.9623955 0.4834094 -0.7390848 0.4691153 0.6900866 0.2712072 0.6709897 -0.00693053 0.365127 -0.9309319 9.89712e-4 0.9882335 0.1529504 0.1116561 0.9880163 0.1065688 0.8535721 0.2436174 -0.4605057 0.1128244 0.8120347 -0.5725997 -0.6660279 0.3657776 -0.6500874 -0.3324152 -0.8850355 -0.3259022 0.5772194 -0.6469199 -0.4983096 -0.6413004 0.2454454 -0.7269734 -0.3597992 -0.6543602 -0.6650995 -0.7750096 -0.2518159 0.5796111 -1.84591e-7 -0.9990804 -0.04287832 0 -0.8148931 0.5796115 -0.4789823 0.6592623 0.5796114 -0.9501818 -0.3087329 -0.04287773 0.4789823 0.6592623 0.5796113 -0.5872448 0.808273 -0.04287683 0.7750094 -0.2518159 0.5796113 0.5872452 0.8082727 -0.04287672 0.9501817 -0.3087336 -0.04287713 -0.6591773 0.4790989 0.5796117 -0.8083776 -0.5871007 -0.04287892 -0.6593471 -0.4788655 0.5796113 0.3085644 -0.9502367 -0.04287648 0.251679 -0.7750535 0.5796119 0.9990804 -1.76861e-4 -0.04287743 0.8148933 -1.43889e-4 0.5796111 0.2519534 0.7749646 0.5796115 0.308901 0.9501273 -0.04287844 -0.9999982 0 0.001957178 0 0.9999982 0.001956939 0.9999982 0 0.001957178 0 -0.9999982 0.001957237 0 0.9999981 0.001956939 0 -0.9999981 0.001957237 -0.9999981 0 0.001957178 0 0.9999981 0.001957237 0.9999981 0 0.001957178 0 -0.9999981 0.001956939 0 0.9999982 0.001957237 0 -0.9999982 0.001956939 -1 -1.84983e-7 0 1 2.15815e-7 0 -1 -1.84984e-7 0 1 2.15814e-7 0 0 0 -1 0 0 -1 0 0 -1 0 0 -1 0 0 1 0 0 1 0 0 1 0 0 1 0 0.9959363 -0.0900613 0 -0.9959363 -0.0900613 0 -0.9959363 -0.09006094 0 0.9959363 -0.09006094 0 0.9971535 0.07539892 0 -0.9971535 0.07539892 0.9982082 0 0.05983728 -0.9982082 0 0.05983728 0 0.9971535 0.0753988 0.9982082 0 0.05983728 0 -0.9971535 0.0753988 -0.9982082 0 0.05983728 -0.8081688 0.5873882 -0.04287642 6.55838e-7 0.801181 0.5984221 -0.8081692 0.5873875 -0.04287761 -0.9999982 0 0.001957178 0 0.9999981 0.001957178 0.9999982 0 0.001957178 0 -0.9999981 0.001957118 0 0.9999981 0.001957178 0 -0.9999982 0.001957118 -0.9999981 0 0.001957178 0 0.9999981 0.001957058 0.9999981 0 0.001957178 0 -0.9999982 0.001957297 0 0.9999981 0.001956939 0 -0.9999981 0.001957297 1 1.84983e-7 0 -1 -1.84984e-7 0 1 1.84984e-7 0</float_array>
          <technique_common>
            <accessor source="#Table_M_01-mesh-normals-array" count="213" stride="3">
              <param name="X" type="float"/>
              <param name="Y" type="float"/>
              <param name="Z" type="float"/>
            </accessor>
          </technique_common>
        </source>
        <source id="Table_M_01-mesh-map-0">
          <float_array id="Table_M_01-mesh-map-0-array" count="2844">0.02918779 0.007739722 0.007087171 1.01081 0.02918791 1.01081 0.07580459 0.5139687 0.6120269 0.4860314 0.07580453 0.4860314 0.8393561 0.5139687 -0.4722526 0.4860314 0.8393561 0.4860314 0.6120269 0.5139687 0.07580459 0.4860314 0.6120269 0.4860314 0.5542477 1.01081 0.4978494 0.472351 0.4978494 0.5461987 0.08805155 0.5461987 0.08805155 0.472351 0.02918779 0.007739722 0.02918785 1.01081 0.1015752 0.4590278 0.1015752 0.5595219 0.5854719 0.5595219 0.5854719 0.4590277 0.6553939 0.007739722 0.7472544 0.4842402 0.2907791 0.3132183 0.2750812 0.4842402 0.2750812 0.4842402 0.7315564 0.3132183 0.7472544 0.4842402 0.8060497 0.4599707 0.5870775 0.01026064 0.5870776 0.4445054 0.8060497 0.5450587 0.5870776 0.9947688 0.8060497 1.010234 0.8060497 0.4599707 0.5870776 0.01026064 0.8060497 -0.005204677 0.8060497 0.5450587 0.5870776 0.9947688 0.5870776 0.560524 0.2750812 0.4842402 0.7315564 0.3132183 0.7472544 0.4842402 0.5102831 0.4639266 0.05380785 0.2929046 0.03810995 0.4639266 0.7315564 0.992254 0.2907792 0.5580093 0.2907792 0.992254 0.2907792 0.4419906 0.7315564 0.007745862 0.2907792 0.007745862 0.7316724 0.5157598 0.3053252 0.3247299 0.2906633 0.5157598 0.5247447 0.5609011 0.9510919 0.3698713 0.9657537 0.5609011 0.8464064 0.994883 0.6018168 0.5748544 0.8464064 0.5604099 0.8464064 0.5604099 0.6018168 0.9804385 0.8464064 0.994883 0.4947011 0.4954461 0.06835389 0.3044162 0.05369204 0.4954461 0.8464064 0.4446195 0.6018167 0.02459096 0.8464063 0.01014643 0.5247447 0.5609011 0.9510919 0.3698713 0.9657537 0.5609011 0.8464063 0.01014643 0.6018168 0.430175 0.8464064 0.4446195 0.3053251 0.9779236 0.7170104 0.5723397 0.7170104 0.9779236 0.3053251 0.02207624 0.7170105 0.4276602 0.3053252 0.4276602 -0.4722525 0.5139688 0.8393561 0.4860314 -0.4722525 0.4860314 0.07580453 0.4860314 0.05323398 0.5139687 0.07580459 0.5139687 0.05323398 0.5139687 0.07580465 0.5556625 0.07580459 0.5139687 0.07580453 0.5139687 0.05323398 0.4860314 0.07580459 0.4860314 0.02918785 1.01081 0.007087111 0.007739722 0.02918785 0.007739722 0.3167344 0.05983334 0.3653772 0.993255 0.3167346 0.993255 -0.4722525 0.5139688 0.8393562 0.5556627 0.8393561 0.5139687 0.07580453 0.5139687 0.05323386 0.5556624 0.05323392 0.5139687 0.6501988 0.3746914 0.9319716 0.3503713 0.6344475 0.3503713 0.6172103 0.3746914 0.7350352 0.3503713 0.6106238 0.3503713 0.9162204 0.3746914 0.6344475 0.3503713 0.9319716 0.3503713 0.7284487 0.3746914 0.6106238 0.3503713 0.7350352 0.3503713 0.6172103 0.6038842 0.7284487 0.3961156 0.7284487 0.6038842 0.6720011 0.4114089 0.6993164 0.3685514 0.6718108 0.3685513 0.7924585 0.4114089 0.7603473 0.3685514 0.7926821 0.3685514 0.6895937 0.4114089 0.65583 0.3685513 0.6898289 0.3685513 0.6728295 0.5222756 0.6457042 0.5068836 0.6560652 0.4819786 0.7603474 0.3685513 0.7924587 0.411409 0.7926821 0.3685514 0.6463424 0.3685513 0.6736578 0.4114089 0.6738479 0.3685514 0.7713604 0.5345488 0.7883686 0.6017845 0.7712704 0.6048831 0.6594442 0.4076592 0.6737597 0.5342966 0.6738418 0.4076571 0.6639254 0.4076594 0.6816064 0.5340667 0.6638674 0.5344588 0.6718119 0.4076599 0.6861361 0.5338926 0.6861885 0.4076565 0.7884364 0.4076592 0.7715743 0.5344579 0.7883961 0.5345314 0.771514 0.4076595 0.7884167 0.533894 0.7714353 0.53407 0.706398 0.614373 0.8090395 0.6332461 0.8091875 0.6471032 0.6594153 0.5342242 0.71363 0.6090862 0.6736912 0.5339862 0.6638124 0.534485 0.718857 0.6044686 0.7063613 0.614314 0.6717505 0.5346199 0.7218629 0.601666 0.6860784 0.5342463 0.7883685 0.534039 0.7715713 0.6138058 0.7883182 0.6168079 0.8086632 0.5040029 0.9107299 0.4909283 0.9145994 0.5040007 0.7122526 0.6101542 0.8086134 0.6295903 0.7224774 0.6021516 0.703238 0.5039981 0.8098391 0.4909135 0.8098642 0.5040029 0.7184002 0.4906768 0.8084735 0.5040311 0.8085398 0.4906806 0.7030085 0.6165857 0.809553 0.6393893 0.7130357 0.6086543 0.9040869 0.607954 0.9569138 0.5314402 0.9429388 0.5314809 0.8096616 0.4906805 0.8952412 0.504036 0.8992369 0.4906731 0.8089001 0.650544 0.904663 0.6075446 0.8087553 0.6393939 0.8092771 0.6471027 0.8987232 0.6034988 0.9114115 0.6131849 0.809568 0.6408857 0.8950976 0.6011507 0.8094954 0.6295852 0.9523429 0.4906904 0.9297897 0.5035477 0.9576765 0.5035635 0.8987511 0.6034011 0.9522867 0.5316885 0.9114357 0.6131001 0.8956879 0.6006422 0.9445327 0.5319957 0.930588 0.5319567 0.771576 0.612603 0.7880801 0.5313599 0.7883136 0.6155573 0.7883868 0.600768 0.7717638 0.5321592 0.7712783 0.6038263 0.640652 0.4058254 0.6680477 0.3698133 0.6689888 0.4058254 0.6966593 0.4058254 0.7288648 0.3698133 0.6977654 0.3698133 0.6903426 0.4058254 0.6564795 0.3698133 0.6553164 0.4058254 0.6966593 0.4058254 0.7288649 0.3698133 0.7299711 0.4058254 0.6766703 0.4058254 0.704066 0.3698133 0.7050069 0.4058254 0.7011663 0.4308253 0.6903426 0.4568425 0.6553164 0.4568425 0.8800905 0.4058254 0.8462275 0.3698133 0.8450644 0.4058254 0.6467015 0.4058254 0.6789053 0.3698133 0.6800114 0.4058254 0.8313328 0.3698133 0.858725 0.4058254 0.8303918 0.4058254 0.8673475 0.3698133 0.8947469 0.4058254 0.8664066 0.4058254 0.6789172 0.3698133 0.6467099 0.4058254 0.6800236 0.4058254 0.6487218 0.548309 0.7026244 0.5619796 0.6820417 0.5841141 0.153137 0.2166965 0.4349099 0.1923763 0.1373858 0.1923763 0.1201485 0.2166965 0.2379735 0.1923763 0.1135621 0.1923763 0.4191587 0.2166965 0.1373858 0.1923763 0.4349099 0.1923763 0.231387 0.2166965 0.1135621 0.1923763 0.2379735 0.1923763 0.1201485 0.4458893 0.231387 0.2381207 0.231387 0.4458893 0.1747491 0.2105564 0.2020646 0.253414 0.2022547 0.2105565 0.2956205 0.2105565 0.2635092 0.253414 0.2632856 0.2105565 0.192532 0.253414 0.1587683 0.2105564 0.1927672 0.2105564 0.1486425 0.3488886 0.1590034 0.3239837 0.1925321 0.3239837 0.2635092 0.253414 0.2956205 0.2105565 0.2632857 0.2105564 0.1494708 0.253414 0.1767862 0.2105565 0.1492807 0.2105564 0.2742987 0.3765539 0.2913069 0.4437896 0.2742087 0.4468882 0.1623824 0.2496643 0.176698 0.3763017 0.1767801 0.2496622 0.1668637 0.2496645 0.1845447 0.3760718 0.1668057 0.3764639 0.1747502 0.249665 0.1890743 0.3758977 0.1891268 0.2496616 0.2913748 0.2496643 0.2745127 0.376463 0.2913344 0.3765365 0.2744523 0.2496646 0.291355 0.3758991 0.2743737 0.3760751 0.2093362 0.4563781 0.3119778 0.4752511 0.3121258 0.4891083 0.1623535 0.3762293 0.2165682 0.4510912 0.1766295 0.3759912 0.1667507 0.3764901 0.2217953 0.4464737 0.2092996 0.4563191 0.1746888 0.376625 0.2248012 0.4436711 0.1890166 0.3762513 0.2913069 0.3760441 0.2745096 0.4558109 0.2912565 0.458813 0.3116015 0.346008 0.4136682 0.3329334 0.4175377 0.3460057 0.2151908 0.4521594 0.3115518 0.4715954 0.2254157 0.4441567 0.2061763 0.3460031 0.3127774 0.3329185 0.3128025 0.346008 0.2213385 0.3326818 0.3114119 0.3460362 0.3114781 0.3326857 0.2059468 0.4585908 0.3124914 0.4813944 0.2159739 0.4506593 0.4070252 0.4499591 0.4598522 0.3734453 0.4458771 0.3734859 0.3125999 0.3326856 0.3981795 0.346041 0.4021753 0.3326782 0.3118384 0.4925491 0.4076014 0.4495496 0.3116937 0.481399 0.3122154 0.4891077 0.4016615 0.4455038 0.4143499 0.4551899 0.3125063 0.4828908 0.398036 0.4431558 0.3124337 0.4715903 0.4552813 0.3326954 0.432728 0.3455528 0.4606148 0.3455686 0.4016894 0.4454061 0.4552251 0.3736935 0.414374 0.4551051 0.3986262 0.4426473 0.447471 0.3740008 0.4335263 0.3739618 0.2745143 0.4546081 0.2910184 0.373365 0.291252 0.4575623 0.2913251 0.4427731 0.2747021 0.3741642 0.2742167 0.4458314 0.1435902 0.2478305 0.1709859 0.2118184 0.171927 0.2478305 0.2329093 0.2478305 0.2007037 0.2118184 0.1995976 0.2478305 0.1932808 0.2478305 0.1594178 0.2118184 0.1582546 0.2478305 0.1995975 0.2478305 0.2318031 0.2118184 0.2329093 0.2478305 0.1796085 0.2478305 0.2070043 0.2118184 0.2079452 0.2478305 0.2041046 0.2728304 0.1932808 0.2988476 0.1582547 0.2988476 0.3830288 0.2478305 0.3491658 0.2118184 0.3480027 0.2478305 0.1496398 0.2478305 0.1818435 0.2118184 0.1829497 0.2478305 0.3333302 0.2478305 0.3607224 0.2118185 0.3616634 0.2478305 0.3702859 0.2118184 0.3976852 0.2478305 0.3693449 0.2478305 0.1818555 0.2118184 0.1496481 0.2478305 0.1829619 0.2478305 0.15166 0.3903141 0.1849699 0.381856 0.2055627 0.4039846 0.7853342 0.7327699 0.8172674 0.26723 0.7853342 0.26723 0.09019851 0.7327699 0.1221317 0.26723 0.09019851 0.26723 0.8172674 0.7327699 0.7853342 0.26723 0.8172674 0.26723 0.1221317 0.7327699 0.09019851 0.26723 0.1221317 0.26723 0.1221317 0.8764457 0.09019851 0.8515052 0.09019851 0.8764457 0.7853342 0.7327699 0.8172674 0.26723 0.7853342 0.26723 0.5484205 0.7327699 0.5803536 0.26723 0.5484205 0.26723 0.8172674 0.7327699 0.7853342 0.26723 0.8172674 0.26723 0.5803536 0.7327699 0.5484205 0.26723 0.5803536 0.26723 0.5803536 0.8764457 0.5484205 0.8515052 0.5484205 0.8764457 -0.4501637 0.7327686 -0.4182304 0.2672298 -0.4501635 0.2672295 0.5484205 0.7327699 0.5803536 0.26723 0.5484205 0.26723 -0.4182305 0.7327694 -0.4501636 0.2672296 -0.4182305 0.2672297 0.5803536 0.7327699 0.5484205 0.26723 0.5803536 0.26723 0.5803534 -0.08850526 0.54842 -0.1134458 0.5484202 -0.08850526 -0.4501637 0.7327686 -0.4182304 0.2672298 -0.4501635 0.2672295 0.09019875 0.7327699 0.1221319 0.26723 0.09019875 0.26723 -0.4182305 0.7327694 -0.4501636 0.2672296 -0.4182305 0.2672297 0.1221319 0.7327699 0.09019875 0.26723 0.1221319 0.26723 0.1221319 -0.08850526 0.09019875 -0.1134459 0.09019881 -0.08850532 -0.7102701 0.5166692 0.9693487 0.4833308 -0.7102701 0.4833307 0.0173344 0.5166692 0.6532177 0.4833308 0.0173344 0.4833308 0.9693487 0.5166692 -0.7102701 0.4833307 0.9693487 0.4833308 0.6532177 0.5166692 0.0173344 0.4833308 0.6532177 0.4833308 0.5252511 1.013615 0.01814579 -0.0325371 0.01814579 1.013615 0.03393822 1.013101 0.5383576 -0.02750945 0.5383575 1.013101 0.7909982 0.6856029 0.8126427 0.2708419 0.7899588 0.2708419 0.0958625 0.6856028 0.1175071 0.270842 0.09482312 0.270842 0.8116034 0.6856029 0.7899588 0.2708419 0.8126428 0.2708419 0.1164677 0.6856028 0.09482312 0.270842 0.1175071 0.270842 0.7909974 0.6852357 0.8126426 0.2704749 0.7899587 0.270475 0.3179839 0.6856033 0.3396276 0.2708423 0.316944 0.2708423 0.8116034 0.6859698 0.7899598 0.271209 0.8126418 0.2712089 0.3385884 0.6856023 0.3169445 0.270842 0.3396291 0.2708426 -0.4445181 0.6852364 -0.4228618 0.2704756 -0.4455463 0.2704756 0.3179839 0.6860673 0.3396265 0.2713062 0.3169452 0.2713062 -0.4238856 0.6859685 -0.4455202 0.2712084 -0.4228374 0.2712085 0.3385907 0.6851398 0.3169445 0.2703785 0.3396282 0.2703785 -0.4445004 0.685603 -0.4228556 0.2708424 -0.4455396 0.2708426 0.09586274 0.6860668 0.1175062 0.2713058 0.09482455 0.2713058 -0.423895 0.6856032 -0.4455391 0.2708418 -0.4228551 0.2708418 0.1164691 0.685139 0.09482342 0.2703782 0.1175073 0.2703782 0.5854088 0.8153506 0.4145912 0.8017089 0.5854088 0.8017089 0.3385896 0.6856037 0.3179841 0.7012184 0.3179841 0.6856032 0.8116033 0.68597 0.7909982 0.7015851 0.7909983 0.6859697 0.0958625 0.6856028 0.1164677 0.701218 0.1164677 0.6856028 0.1164677 0.6787636 0.0958625 0.6787636 0.0958625 0.6787636 0.3385883 0.6787631 0.3179838 0.6787642 0.3179836 0.6787636 3.612996 0.6761548 3.574232 0.6761687 3.803689 0.6759865 1.80643 0.6787641 1.776453 0.6787644 1.894878 0.678764 0.6028751 -0.002605795 0.5854088 0.8017089 0.585409 -0.002605736 0.4145897 -0.0162487 0.5854071 -0.002606689 0.4145902 -0.002606809 0.5854089 0.5226537 0.4145912 0.5094171 0.5854088 0.5094171 -0.1435233 0.5226536 0.8863003 0.5094172 -0.1435233 0.5094172 -0.4444999 0.685602 -0.4238946 0.7012175 -0.4238947 0.6856021 0.7909982 0.6856028 0.8116034 0.701218 0.8116034 0.6856027 0.3179839 0.6856033 0.3385893 0.7012191 0.3385893 0.6856039 -0.4238933 0.6859658 -0.4444985 0.7015808 -0.4444983 0.6859654 0.116468 0.6856028 0.09586274 0.701218 0.09586274 0.6856028 0.4145914 -0.002605736 0.3971249 0.8017089 0.3971251 -0.002605795 0.4145914 0.5226535 0.5854088 0.5094171 0.4145914 0.5094171 -0.1435233 0.5226536 0.8863003 0.5094172 -0.1435233 0.5094172 -0.1435233 0.5094172 0.8863002 0.5226535 -0.1435233 0.5226536 0.585409 -0.002605795 0.6028751 0.8017089 0.6028751 -0.002605736 -0.1435233 0.5094172 0.8863002 0.5226535 -0.1435233 0.5226536 0.3971251 -0.002605795 0.4145912 0.8017089 0.4145915 -0.002605795 0.4145914 0.5094171 0.5854089 0.5226537 0.4145914 0.5226535 0.4145913 -0.002606451 0.5854082 -0.01624816 0.4145911 -0.01624822 0.5854088 0.5094171 0.4145912 0.5226537 0.5854089 0.5226536 0.5854088 0.8017089 0.4145912 0.8153506 0.5854088 0.8153506 2.763402 0 -2.866448 0.9999998 -2.866447 0 0.5854088 0.8153506 0.4145912 0.8017089 0.5854088 0.8017089 0.6028751 -0.002605795 0.5854088 0.8017089 0.585409 -0.002605736 0.4145897 -0.0162487 0.5854071 -0.002606689 0.4145902 -0.002606809 0.5854087 0.3428419 0.4145913 0.3296054 0.5854086 0.3296052 -0.1435232 0.3428426 0.8863002 0.3296065 -0.1435233 0.3296067 0.4145914 -0.002605736 0.3971249 0.8017089 0.3971251 -0.002605795 -0.1435232 0.3428425 0.8863002 0.3296065 -0.1435233 0.3296067 -0.1435232 0.329607 0.8863005 0.3428425 -0.1435231 0.3428429 0.585409 -0.002605795 0.6028751 0.8017089 0.6028751 -0.002605736 -0.1435232 0.329607 0.8863005 0.3428425 -0.1435232 0.3428429 0.3971251 -0.002605795 0.4145912 0.8017089 0.4145915 -0.002605795 0.4145919 0.3296054 0.5854089 0.3428418 0.4145916 0.3428419 0.4145913 -0.002606451 0.5854082 -0.01624816 0.4145911 -0.01624822 0.5854092 0.3296055 0.414591 0.3428419 0.5854088 0.3428421 0.5854088 0.8017089 0.4145912 0.8153506 0.5854088 0.8153506 2.763402 0 -2.866448 0.9999998 -2.866447 0 -2.866447 0.9999997 2.763402 0 -2.866447 0 -2.866447 0.9999997 2.763402 0 -2.866447 0 0.02918779 0.007739722 0.007087051 0.007739722 0.007087171 1.01081 0.07580459 0.5139687 0.6120269 0.5139687 0.6120269 0.4860314 0.8393561 0.5139687 -0.4722525 0.5139688 -0.4722526 0.4860314 0.6120269 0.5139687 0.07580453 0.5139687 0.07580459 0.4860314 0.4978494 0.5461987 0.4978494 0.9499231 0.5542477 1.01081 0.5542477 1.01081 0.5542477 0.007739722 0.4978494 0.472351 0.5542477 0.007739722 0.4978493 0.06862658 0.4978494 0.472351 0.4978494 0.472351 0.08805155 0.472351 0.08805155 0.5461987 0.4978494 0.472351 0.08805155 0.5461987 0.4978494 0.5461987 0.08805155 0.06862658 0.4978493 0.06862658 0.5542477 0.007739722 0.02918791 1.01081 0.5542477 1.01081 0.08805155 0.9499231 0.5542477 1.01081 0.4978494 0.9499231 0.08805155 0.9499231 0.08805155 0.06862658 0.5542477 0.007739722 0.02918779 0.007739722 0.08805155 0.472351 0.08805155 0.06862658 0.02918779 0.007739722 0.02918779 0.007739722 0.02918791 1.01081 0.08805155 0.5461987 0.02918791 1.01081 0.08805155 0.9499231 0.08805155 0.5461987 0.1015752 0.9365999 0.4843258 0.9366001 0.5542477 1.01081 0.02918785 0.007739722 0.5542476 0.007739722 0.1015751 0.08194983 0.5542476 0.007739722 0.4843257 0.08194983 0.1015751 0.08194983 0.1015752 0.9365999 0.5542477 1.01081 0.02918785 1.01081 0.4843257 0.4590278 0.4843258 0.559522 0.1015752 0.5595219 0.1015752 0.5595219 0.1015752 0.9365999 0.02918785 1.01081 0.02918785 1.01081 0.02918785 0.007739722 0.1015752 0.4590278 0.02918785 0.007739722 0.1015751 0.08194983 0.1015752 0.4590278 0.1015752 0.4590278 0.4843257 0.4590278 0.1015752 0.5595219 0.5854719 0.4590277 0.5854719 0.08194983 0.6553939 0.007739722 0.6553939 0.007739722 0.655394 1.01081 0.5854719 0.5595219 0.655394 1.01081 0.585472 0.9366 0.5854719 0.5595219 0.7472544 0.4842402 0.7315564 0.3132183 0.2907791 0.3132183 0.2750812 0.4842402 0.2907792 0.3132183 0.7315564 0.3132183 0.8060497 0.4599707 0.8060497 -0.005204677 0.5870775 0.01026064 0.8060497 0.5450587 0.5870776 0.5605241 0.5870776 0.9947688 0.8060497 0.4599707 0.5870776 0.4445054 0.5870776 0.01026064 0.8060497 0.5450587 0.8060497 1.010234 0.5870776 0.9947688 0.2750812 0.4842402 0.2907792 0.3132183 0.7315564 0.3132183 0.5102831 0.4639266 0.4945852 0.2929046 0.05380785 0.2929046 0.7315564 0.992254 0.7315564 0.5580093 0.2907792 0.5580093 0.2907792 0.4419906 0.7315564 0.4419906 0.7315564 0.007745862 0.7316724 0.5157598 0.7170105 0.3247299 0.3053252 0.3247299 0.5247447 0.5609011 0.5394065 0.3698713 0.9510919 0.3698713 0.8464064 0.994883 0.6018168 0.9804384 0.6018168 0.5748544 0.8464064 0.5604099 0.6018168 0.5748544 0.6018168 0.9804385 0.4947011 0.4954461 0.4800392 0.3044162 0.06835389 0.3044162 0.8464064 0.4446195 0.6018168 0.430175 0.6018167 0.02459096 0.5247447 0.5609011 0.5394065 0.3698713 0.9510919 0.3698713 0.8464063 0.01014643 0.6018167 0.02459102 0.6018168 0.430175 0.3053251 0.9779236 0.3053252 0.5723398 0.7170104 0.5723397 0.3053251 0.02207624 0.7170106 0.02207624 0.7170105 0.4276602 -0.4722525 0.5139688 0.8393561 0.5139687 0.8393561 0.4860314 0.07580453 0.4860314 0.05323392 0.4860314 0.05323398 0.5139687 0.05323398 0.5139687 0.05323404 0.5556625 0.07580465 0.5556625 0.07580453 0.5139687 0.05323392 0.5139687 0.05323398 0.4860314 0.02918785 1.01081 0.007087051 1.01081 0.007087111 0.007739722 0.3167344 0.05983334 0.3653772 0.05983334 0.3653772 0.993255 -0.4722525 0.5139688 -0.4722525 0.5556627 0.8393562 0.5556627 0.07580453 0.5139687 0.07580447 0.5556625 0.05323386 0.5556624 0.6501988 0.3746914 0.9162204 0.3746914 0.9319716 0.3503713 0.6172103 0.3746914 0.7284487 0.3746914 0.7350352 0.3503713 0.9162204 0.3746914 0.6501988 0.3746914 0.6344475 0.3503713 0.7284487 0.3746914 0.6172103 0.3746914 0.6106238 0.3503713 0.6172103 0.6038842 0.6172103 0.3961156 0.7284487 0.3961156 0.6720011 0.4114089 0.6991264 0.411409 0.6993164 0.3685514 0.7924585 0.4114089 0.7605709 0.4114089 0.7603473 0.3685514 0.6895937 0.4114089 0.6560651 0.4114089 0.65583 0.3685513 0.6895939 0.4819787 0.6999548 0.5068836 0.6560652 0.4819786 0.6999548 0.5068836 0.6728295 0.5222756 0.6560652 0.4819786 0.7603474 0.3685513 0.7605709 0.411409 0.7924587 0.411409 0.6463424 0.3685513 0.6465325 0.4114089 0.6736578 0.4114089 0.7713604 0.5345488 0.7883639 0.5343986 0.7883686 0.6017845 0.6594442 0.4076592 0.6594399 0.5345314 0.6737597 0.5342966 0.6639254 0.4076594 0.6817068 0.4076561 0.6816064 0.5340667 0.6718119 0.4076599 0.6717333 0.5342992 0.6861361 0.5338926 0.7884364 0.4076592 0.7714982 0.4076588 0.7715743 0.5344579 0.771514 0.4076595 0.7884094 0.4076581 0.7884167 0.533894 0.706398 0.614373 0.7188996 0.6045368 0.8090395 0.6332461 0.6594153 0.5342242 0.7035534 0.6169825 0.71363 0.6090862 0.6638124 0.534485 0.6815472 0.5340951 0.718857 0.6044686 0.6717505 0.5346199 0.7116983 0.6097166 0.7218629 0.601666 0.7883685 0.534039 0.7715352 0.533966 0.7715713 0.6138058 0.8086632 0.5040029 0.8086014 0.4909135 0.9107299 0.4909283 0.7122526 0.6101542 0.8087692 0.6408904 0.8086134 0.6295903 0.703238 0.5039981 0.7070509 0.4909186 0.8098391 0.4909135 0.7184002 0.4906768 0.7223368 0.5040308 0.8084735 0.5040311 0.7030085 0.6165857 0.8096358 0.6505396 0.809553 0.6393893 0.9040869 0.607954 0.9143157 0.6157268 0.9569138 0.5314402 0.8096616 0.4906805 0.8096403 0.504031 0.8952412 0.504036 0.8089001 0.650544 0.9148406 0.615351 0.904663 0.6075446 0.8092771 0.6471027 0.8091437 0.6332456 0.8987232 0.6034988 0.809568 0.6408857 0.9054745 0.6090342 0.8950976 0.6011507 0.9350875 0.4907047 0.9297897 0.5035477 0.9523429 0.4906904 0.9297897 0.5035477 0.9437119 0.5115192 0.9576765 0.5035635 0.8987511 0.6034011 0.934999 0.5316881 0.9522867 0.5316885 0.8956879 0.6006422 0.9060076 0.6085813 0.9445327 0.5319957 0.771576 0.612603 0.771595 0.531383 0.7880801 0.5313599 0.7883868 0.600768 0.7882106 0.5321379 0.7717638 0.5321592 0.640652 0.4058254 0.641593 0.3698133 0.6680477 0.3698133 0.6966593 0.4058254 0.7299711 0.4058254 0.7288648 0.3698133 0.6903426 0.4058254 0.6891794 0.3698133 0.6564795 0.3698133 0.6966593 0.4058254 0.6977655 0.3698133 0.7288649 0.3698133 0.6766703 0.4058254 0.6776112 0.3698133 0.704066 0.3698133 0.6444928 0.4308252 0.6728295 0.4147457 0.6553164 0.4568425 0.6728295 0.4147457 0.7011663 0.4308253 0.6553164 0.4568425 0.8800905 0.4058254 0.8789272 0.3698133 0.8462275 0.3698133 0.6467015 0.4058254 0.6478076 0.3698133 0.6789053 0.3698133 0.8313328 0.3698133 0.8577841 0.3698134 0.858725 0.4058254 0.8673475 0.3698133 0.8938058 0.3698133 0.8947469 0.4058254 0.6789172 0.3698133 0.6478161 0.3698133 0.6467099 0.4058254 0.6820417 0.5841141 0.648728 0.5756652 0.6487218 0.548309 0.6487218 0.548309 0.6820316 0.5398509 0.7026244 0.5619796 0.153137 0.2166965 0.4191587 0.2166965 0.4349099 0.1923763 0.1201485 0.2166965 0.231387 0.2166965 0.2379735 0.1923763 0.4191587 0.2166965 0.153137 0.2166965 0.1373858 0.1923763 0.231387 0.2166965 0.1201485 0.2166965 0.1135621 0.1923763 0.1201485 0.4458893 0.1201485 0.2381207 0.231387 0.2381207 0.1747491 0.2105564 0.1749393 0.253414 0.2020646 0.253414 0.2956205 0.2105565 0.2953969 0.253414 0.2635092 0.253414 0.192532 0.253414 0.1590034 0.253414 0.1587683 0.2105564 0.1925321 0.3239837 0.2028931 0.3488886 0.1757677 0.3642807 0.1757677 0.3642807 0.1486425 0.3488886 0.1925321 0.3239837 0.2635092 0.253414 0.2953971 0.253414 0.2956205 0.2105565 0.1494708 0.253414 0.1765961 0.253414 0.1767862 0.2105565 0.2742987 0.3765539 0.2913022 0.3764037 0.2913069 0.4437896 0.1623824 0.2496643 0.1623782 0.3765365 0.176698 0.3763017 0.1668637 0.2496645 0.1846451 0.2496612 0.1845447 0.3760718 0.1747502 0.249665 0.1746715 0.3763043 0.1890743 0.3758977 0.2913748 0.2496643 0.2744365 0.2496639 0.2745127 0.376463 0.2744523 0.2496646 0.2913478 0.2496632 0.291355 0.3758991 0.2093362 0.4563781 0.2218378 0.4465419 0.3119778 0.4752511 0.1623535 0.3762293 0.2064917 0.4589876 0.2165682 0.4510912 0.1667507 0.3764901 0.1844855 0.3761001 0.2217953 0.4464737 0.1746888 0.376625 0.2146366 0.4517217 0.2248012 0.4436711 0.2913069 0.3760441 0.2744736 0.375971 0.2745096 0.4558109 0.3116015 0.346008 0.3115398 0.3329185 0.4136682 0.3329334 0.2151908 0.4521594 0.3117075 0.4828954 0.3115518 0.4715954 0.2061763 0.3460031 0.2099892 0.3329238 0.3127774 0.3329185 0.2213385 0.3326818 0.225275 0.3460359 0.3114119 0.3460362 0.2059468 0.4585908 0.3125742 0.4925447 0.3124914 0.4813944 0.4070252 0.4499591 0.417254 0.457732 0.4598522 0.3734453 0.3125999 0.3326856 0.3125786 0.3460361 0.3981795 0.346041 0.3118384 0.4925491 0.4177789 0.4573561 0.4076014 0.4495496 0.3122154 0.4891077 0.312082 0.4752507 0.4016615 0.4455038 0.3125063 0.4828908 0.4084128 0.4510393 0.398036 0.4431558 0.4380258 0.3327099 0.432728 0.3455528 0.4552813 0.3326954 0.432728 0.3455528 0.4466502 0.3535243 0.4606148 0.3455686 0.4016894 0.4454061 0.4379373 0.3736932 0.4552251 0.3736935 0.3986262 0.4426473 0.4089459 0.4505864 0.447471 0.3740008 0.2745143 0.4546081 0.2745333 0.3733881 0.2910184 0.373365 0.2913251 0.4427731 0.2911489 0.374143 0.2747021 0.3741642 0.1435902 0.2478305 0.1445313 0.2118184 0.1709859 0.2118184 0.2329093 0.2478305 0.2318031 0.2118184 0.2007037 0.2118184 0.1932808 0.2478305 0.1921177 0.2118184 0.1594178 0.2118184 0.1995975 0.2478305 0.2007037 0.2118184 0.2318031 0.2118184 0.1796085 0.2478305 0.1805495 0.2118184 0.2070043 0.2118184 0.147431 0.2728303 0.1757678 0.2567508 0.1582547 0.2988476 0.1757678 0.2567508 0.2041046 0.2728304 0.1582547 0.2988476 0.3830288 0.2478305 0.3818656 0.2118184 0.3491658 0.2118184 0.1496398 0.2478305 0.1507459 0.2118184 0.1818435 0.2118184 0.3333302 0.2478305 0.3342711 0.2118184 0.3607224 0.2118185 0.3702859 0.2118184 0.3967441 0.2118184 0.3976852 0.2478305 0.1818555 0.2118184 0.1507543 0.2118184 0.1496481 0.2478305 0.18498 0.4261193 0.1516662 0.4176703 0.2055627 0.4039846 0.1516662 0.4176703 0.15166 0.3903141 0.2055627 0.4039846 0.7853342 0.7327699 0.8172674 0.7327699 0.8172674 0.26723 0.09019851 0.7327699 0.1221317 0.7327699 0.1221317 0.26723 0.8172674 0.7327699 0.7853342 0.7327699 0.7853342 0.26723 0.1221317 0.7327699 0.09019851 0.7327699 0.09019851 0.26723 0.1221317 0.8764457 0.1221317 0.8515052 0.09019851 0.8515052 0.7853342 0.7327699 0.8172674 0.7327699 0.8172674 0.26723 0.5484205 0.7327699 0.5803536 0.7327699 0.5803536 0.26723 0.8172674 0.7327699 0.7853342 0.7327699 0.7853342 0.26723 0.5803536 0.7327699 0.5484205 0.7327699 0.5484205 0.26723 0.5803536 0.8764457 0.5803536 0.8515052 0.5484205 0.8515052 -0.4501637 0.7327686 -0.4182305 0.7327692 -0.4182304 0.2672298 0.5484205 0.7327699 0.5803536 0.7327699 0.5803536 0.26723 -0.4182305 0.7327694 -0.4501636 0.732769 -0.4501636 0.2672296 0.5803536 0.7327699 0.5484205 0.7327699 0.5484205 0.26723 0.5803534 -0.08850526 0.5803533 -0.1134458 0.54842 -0.1134458 -0.4501637 0.7327686 -0.4182305 0.7327692 -0.4182304 0.2672298 0.09019875 0.7327699 0.1221319 0.7327699 0.1221319 0.26723 -0.4182305 0.7327694 -0.4501636 0.732769 -0.4501636 0.2672296 0.1221319 0.7327699 0.09019875 0.7327699 0.09019875 0.26723 0.1221319 -0.08850526 0.1221319 -0.1134459 0.09019875 -0.1134459 -0.7102701 0.5166692 0.9693487 0.5166692 0.9693487 0.4833308 0.0173344 0.5166692 0.6532177 0.5166692 0.6532177 0.4833308 0.9693487 0.5166692 -0.7102701 0.5166692 -0.7102701 0.4833307 0.6532177 0.5166692 0.0173344 0.5166692 0.0173344 0.4833308 0.5252511 1.013615 0.5252511 -0.0325371 0.01814579 -0.0325371 0.03393822 1.013101 0.03393822 -0.02750945 0.5383576 -0.02750945 0.7909982 0.6856029 0.8116034 0.6856028 0.8126427 0.2708419 0.0958625 0.6856028 0.1164677 0.6856027 0.1175071 0.270842 0.8116034 0.6856029 0.7909982 0.6856028 0.7899588 0.2708419 0.1164677 0.6856028 0.0958625 0.6856027 0.09482312 0.270842 0.7909974 0.6852357 0.8116044 0.6852359 0.8126426 0.2704749 0.3179839 0.6856033 0.3385892 0.6856039 0.3396276 0.2708423 0.8116034 0.6859698 0.7909983 0.6859697 0.7899598 0.271209 0.3385884 0.6856023 0.3179835 0.6856026 0.3169445 0.270842 -0.4445181 0.6852364 -0.4239117 0.6852362 -0.4228618 0.2704756 0.3179839 0.6860673 0.3385892 0.6860678 0.3396265 0.2713062 -0.4238856 0.6859685 -0.4444901 0.6859682 -0.4455202 0.2712084 0.3385907 0.6851398 0.3179829 0.6851394 0.3169445 0.2703785 -0.4445004 0.685603 -0.423895 0.6856028 -0.4228556 0.2708424 0.09586274 0.6860668 0.116468 0.6860666 0.1175062 0.2713058 -0.423895 0.6856032 -0.4445005 0.6856036 -0.4455391 0.2708418 0.1164691 0.685139 0.09586161 0.685139 0.09482342 0.2703782 0.5854088 0.8153506 0.4145912 0.8153506 0.4145912 0.8017089 0.3385896 0.6856037 0.3385896 0.7012188 0.3179841 0.7012184 0.8116033 0.68597 0.8116033 0.7015853 0.7909982 0.7015851 0.0958625 0.6856028 0.0958625 0.701218 0.1164677 0.701218 0.1164677 0.6787636 0.8116033 0.6787637 0.0958625 0.6787636 0.3385883 0.6787631 0.8116033 0.6791306 0.3179838 0.6787642 3.612996 0.6761548 3.383417 0.6763375 3.574232 0.6761687 1.80643 0.6787641 1.687941 0.6787639 1.776453 0.6787644 0.6028751 -0.002605795 0.6028751 0.8017089 0.5854088 0.8017089 0.4145897 -0.0162487 0.5854063 -0.01624858 0.5854071 -0.002606689 0.5854089 0.5226537 0.4145913 0.5226536 0.4145912 0.5094171 -0.1435233 0.5226536 0.8863002 0.5226536 0.8863003 0.5094172 -0.4444999 0.685602 -0.4444999 0.7012173 -0.4238946 0.7012175 0.7909982 0.6856028 0.7909983 0.701218 0.8116034 0.701218 0.3179839 0.6856033 0.3179839 0.7012185 0.3385893 0.7012191 -0.4238933 0.6859658 -0.4238933 0.7015812 -0.4444985 0.7015808 0.116468 0.6856028 0.116468 0.7012181 0.09586274 0.701218 0.4145914 -0.002605736 0.4145912 0.8017089 0.3971249 0.8017089 0.4145914 0.5226535 0.5854088 0.5226535 0.5854088 0.5094171 -0.1435233 0.5226536 0.8863002 0.5226536 0.8863003 0.5094172 -0.1435233 0.5094172 0.8863003 0.5094171 0.8863002 0.5226535 0.585409 -0.002605795 0.5854088 0.8017089 0.6028751 0.8017089 -0.1435233 0.5094172 0.8863003 0.5094171 0.8863002 0.5226535 0.3971251 -0.002605795 0.3971249 0.8017089 0.4145912 0.8017089 0.4145914 0.5094171 0.5854088 0.5094171 0.5854089 0.5226537 0.4145913 -0.002606451 0.5854084 -0.002606391 0.5854082 -0.01624816 0.5854088 0.5094171 0.4145912 0.5094171 0.4145912 0.5226537 0.5854088 0.8017089 0.4145912 0.8017089 0.4145912 0.8153506 2.763402 0 2.763403 1 -2.866448 0.9999998 0.5854088 0.8153506 0.4145912 0.8153506 0.4145912 0.8017089 0.6028751 -0.002605795 0.6028751 0.8017089 0.5854088 0.8017089 0.4145897 -0.0162487 0.5854063 -0.01624858 0.5854071 -0.002606689 0.5854087 0.3428419 0.4145914 0.342842 0.4145913 0.3296054 -0.1435232 0.3428426 0.8863003 0.3428424 0.8863002 0.3296065 0.4145914 -0.002605736 0.4145912 0.8017089 0.3971249 0.8017089 -0.1435232 0.3428425 0.8863003 0.3428424 0.8863002 0.3296065 -0.1435232 0.329607 0.8863002 0.3296065 0.8863005 0.3428425 0.585409 -0.002605795 0.5854088 0.8017089 0.6028751 0.8017089 -0.1435232 0.329607 0.8863002 0.3296065 0.8863005 0.3428425 0.3971251 -0.002605795 0.3971249 0.8017089 0.4145912 0.8017089 0.4145919 0.3296054 0.5854091 0.3296054 0.5854089 0.3428418 0.4145913 -0.002606451 0.5854084 -0.002606391 0.5854082 -0.01624816 0.5854092 0.3296055 0.4145913 0.3296055 0.414591 0.3428419 0.5854088 0.8017089 0.4145912 0.8017089 0.4145912 0.8153506 2.763402 0 2.763403 1 -2.866448 0.9999998 -2.866447 0.9999997 2.763403 1 2.763402 0 -2.866447 0.9999997 2.763403 1 2.763402 0</float_array>
          <technique_common>
            <accessor source="#Table_M_01-mesh-map-0-array" count="1422" stride="2">
              <param name="S" type="float"/>
              <param name="T" type="float"/>
            </accessor>
          </technique_common>
        </source>
        <vertices id="Table_M_01-mesh-vertices">
          <input semantic="POSITION" source="#Table_M_01-mesh-positions"/>
        </vertices>
        <triangles material="Metal_03-material" count="466">
          <input semantic="VERTEX" source="#Table_M_01-mesh-vertices" offset="0"/>
          <input semantic="NORMAL" source="#Table_M_01-mesh-normals" offset="1"/>
          <input semantic="TEXCOORD" source="#Table_M_01-mesh-map-0" offset="2" set="0"/>
          <p>0 0 0 42 0 1 2 0 2 3 1 3 6 1 4 2 1 5 7 2 6 4 2 7 6 2 8 5 3 9 0 3 10 4 3 11 6 4 12 10 4 13 11 4 14 14 5 15 13 5 16 0 5 17 3 6 18 16 6 19 17 6 20 23 7 21 22 7 22 5 7 23 10 8 24 29 8 25 13 8 26 14 9 27 27 9 28 11 9 29 14 10 30 24 10 31 30 10 32 13 11 33 28 11 34 12 11 35 11 12 36 25 12 37 9 12 38 10 13 39 31 13 40 26 13 41 12 14 42 31 14 43 15 14 44 9 15 45 24 15 46 8 15 47 25 0 48 30 0 49 24 0 50 29 0 51 31 0 52 28 0 53 23 16 54 33 16 55 17 16 56 16 17 57 38 17 58 22 17 59 20 18 60 32 18 61 16 18 62 22 19 63 37 19 64 21 19 65 21 20 66 36 20 67 20 20 68 17 21 69 35 21 70 19 21 71 19 22 72 34 22 73 18 22 74 18 23 75 39 23 76 23 23 77 35 24 78 39 24 79 34 24 80 36 24 81 38 24 82 32 24 83 41 25 84 42 25 85 40 25 86 2 1 87 43 1 88 3 1 89 43 1 90 45 1 91 3 1 92 1 3 93 40 3 94 0 3 95 45 24 96 46 24 97 44 24 98 3 2 99 44 2 100 1 2 101 41 25 102 47 25 103 43 25 104 1 3 105 46 3 106 41 3 107 49 26 108 50 27 109 48 28 110 51 29 111 54 30 112 50 27 113 55 31 114 52 32 115 54 30 116 53 33 117 48 28 118 52 32 119 51 29 120 53 33 121 55 31 122 57 34 123 58 35 124 56 36 125 59 37 126 60 38 127 58 35 128 61 39 129 62 40 130 60 38 131 57 34 132 65 41 133 63 42 134 62 40 135 65 41 136 64 43 137 64 43 138 57 34 139 56 36 140 73 44 141 76 45 142 78 46 143 70 47 144 72 48 145 66 49 146 69 50 147 73 44 148 74 51 149 66 49 150 71 52 151 67 53 152 70 47 153 74 51 154 75 54 155 68 55 156 71 52 157 73 44 158 79 56 159 83 57 160 84 58 161 75 54 162 77 59 163 72 48 164 74 51 165 78 46 166 79 56 167 72 48 168 76 45 169 71 52 170 75 54 171 79 56 172 80 60 173 85 61 174 89 62 175 90 63 176 77 59 177 81 64 178 76 45 179 80 60 180 84 58 181 85 61 182 78 46 183 81 64 184 83 57 185 80 60 186 82 65 187 77 59 188 87 66 189 95 67 190 92 68 191 83 57 192 86 69 193 88 70 194 85 61 195 87 66 196 82 65 197 84 58 198 88 70 199 89 62 200 82 65 201 86 69 202 81 64 203 94 71 204 91 72 205 95 67 206 88 70 207 94 71 208 89 62 209 86 69 210 92 68 211 91 72 212 89 62 213 95 67 214 90 63 215 86 69 216 93 73 217 88 70 218 98 74 219 97 75 220 96 76 221 98 74 222 101 77 223 99 78 224 102 79 225 101 77 226 100 80 227 104 81 228 103 82 229 102 79 230 96 76 231 105 83 232 104 81 233 104 81 234 102 79 235 100 80 236 106 84 237 109 85 238 108 86 239 108 86 240 111 87 241 110 88 242 111 87 243 112 89 244 110 88 245 113 90 246 114 91 247 112 89 248 115 92 249 106 84 250 114 91 251 108 86 252 112 89 253 114 91 254 117 93 255 118 94 256 116 95 257 119 96 258 122 97 259 118 94 260 123 98 261 120 99 262 122 97 263 121 100 264 116 95 265 120 99 266 119 96 267 121 100 268 123 98 269 124 101 270 127 102 271 126 103 272 126 103 273 129 104 274 128 105 275 129 104 276 130 106 277 128 105 278 133 107 279 131 108 280 129 104 281 131 108 282 132 109 283 130 106 284 133 107 285 124 101 286 132 109 287 141 110 288 144 111 289 146 112 290 138 113 291 140 114 292 134 115 293 137 116 294 141 110 295 142 117 296 134 115 297 139 118 298 135 119 299 138 113 300 142 117 301 143 120 302 136 121 303 139 118 304 141 110 305 147 122 306 151 123 307 152 124 308 143 120 309 145 125 310 140 114 311 142 117 312 146 112 313 147 122 314 140 114 315 144 111 316 139 118 317 143 120 318 147 122 319 148 126 320 153 127 321 157 128 322 158 129 323 145 125 324 149 130 325 144 111 326 148 126 327 152 124 328 153 127 329 146 112 330 149 130 331 151 123 332 148 126 333 150 131 334 145 125 335 155 132 336 163 133 337 160 134 338 151 123 339 154 135 340 156 136 341 153 127 342 155 132 343 150 131 344 152 124 345 156 136 346 157 128 347 150 131 348 154 135 349 149 130 350 162 137 351 159 138 352 163 133 353 156 136 354 162 137 355 157 128 356 154 135 357 160 134 358 159 138 359 157 128 360 163 133 361 158 129 362 154 135 363 161 139 364 156 136 365 166 140 366 165 141 367 164 142 368 168 143 369 167 144 370 166 140 371 170 145 372 169 146 373 168 143 374 172 147 375 171 148 376 170 145 377 164 142 378 173 149 379 172 147 380 172 147 381 170 145 382 168 143 383 174 150 384 177 151 385 176 152 386 176 152 387 179 153 388 178 154 389 178 154 390 181 155 391 180 156 392 181 155 393 182 157 394 180 156 395 183 158 396 174 150 397 182 157 398 176 152 399 178 154 400 180 156 401 185 25 402 186 25 403 184 25 404 187 1 405 190 1 406 186 1 407 191 2 408 188 2 409 190 2 410 189 3 411 184 3 412 188 3 413 190 0 414 184 0 415 186 0 416 193 25 417 194 25 418 192 25 419 195 1 420 198 1 421 194 1 422 199 2 423 196 2 424 198 2 425 197 3 426 192 3 427 196 3 428 198 0 429 192 0 430 194 0 431 201 25 432 202 25 433 200 25 434 203 1 435 206 1 436 202 1 437 207 2 438 204 2 439 206 2 440 205 3 441 200 3 442 204 3 443 206 0 444 200 0 445 202 0 446 209 25 447 210 25 448 208 25 449 211 1 450 214 1 451 210 1 452 215 2 453 212 2 454 214 2 455 213 3 456 208 3 457 212 3 458 214 0 459 208 0 460 210 0 461 217 25 462 218 25 463 216 25 464 219 1 465 222 1 466 218 1 467 223 2 468 220 2 469 222 2 470 221 3 471 216 3 472 220 3 473 222 0 474 216 0 475 218 0 476 219 24 477 221 24 478 223 24 479 225 159 480 226 159 481 224 159 482 227 160 483 230 160 484 226 160 485 231 161 486 228 161 487 230 161 488 229 162 489 224 162 490 228 162 491 233 159 492 234 159 493 232 159 494 235 163 495 238 163 496 234 163 497 239 161 498 236 161 499 238 161 500 237 164 501 232 164 502 236 164 503 241 165 504 242 165 505 240 165 506 243 166 507 246 166 508 242 166 509 247 167 510 244 167 511 246 167 512 245 168 513 240 168 514 244 168 515 249 165 516 250 165 517 248 165 518 251 169 519 254 169 520 250 169 521 255 167 522 252 167 523 254 167 524 253 170 525 248 170 526 252 170 527 261 24 528 259 24 529 260 24 530 245 3 531 264 3 532 241 3 533 239 2 534 263 2 535 237 2 536 227 1 537 258 1 538 231 1 539 259 24 540 257 24 541 256 24 542 263 24 543 261 24 544 260 24 545 267 24 546 265 24 547 264 24 548 271 24 549 269 24 550 268 24 551 266 24 552 260 24 553 265 24 554 271 24 555 265 24 556 270 24 557 260 3 558 229 3 559 233 3 560 265 25 561 233 25 562 243 25 563 249 25 564 269 25 565 251 25 566 225 25 567 257 25 568 227 25 569 235 1 570 262 1 571 239 1 572 247 2 573 267 2 574 245 2 575 253 3 576 268 3 577 249 3 578 270 24 579 256 24 580 269 24 581 270 1 582 243 1 583 255 1 584 269 171 585 225 171 586 251 171 587 247 2 588 263 2 589 266 2 590 243 0 591 237 0 592 247 0 593 255 172 594 259 172 595 270 172 596 251 0 597 229 0 598 255 0 599 253 3 600 264 3 601 271 3 602 255 0 603 241 0 604 253 0 605 235 1 606 258 1 607 261 1 608 233 0 609 231 0 610 235 0 611 292 24 615 290 24 616 291 24 617 296 24 618 291 24 619 295 24 620 299 24 621 295 24 622 298 24 623 291 3 624 277 3 625 279 3 626 295 25 627 279 25 628 283 25 629 298 24 630 288 24 631 297 24 632 297 173 633 276 173 634 285 173 635 284 2 636 293 2 637 296 2 638 283 0 639 281 0 640 284 0 641 287 174 642 290 174 643 298 174 644 285 0 645 277 0 646 287 0 647 286 3 648 294 3 649 299 3 650 287 0 651 282 0 652 286 0 653 280 1 654 289 1 655 292 1 656 279 0 657 278 0 658 280 0 659 0 0 669 40 0 670 42 0 671 3 1 672 7 1 673 6 1 674 7 2 675 5 2 676 4 2 677 5 3 678 1 3 679 0 3 680 11 175 681 9 175 682 6 175 683 6 176 684 4 176 685 10 176 686 4 0 687 15 0 688 10 0 689 10 0 690 13 0 691 14 0 692 10 0 693 14 0 694 11 0 695 12 0 696 15 0 697 4 0 698 2 0 699 6 0 700 8 0 701 6 0 702 9 0 703 8 0 704 12 0 705 4 0 706 0 0 707 13 177 708 12 177 709 0 177 710 0 178 711 2 178 712 14 178 713 2 0 714 8 0 715 14 0 716 19 24 717 18 24 718 7 24 719 1 24 720 5 24 721 20 24 722 5 24 723 21 24 724 20 24 725 19 24 726 7 24 727 3 24 728 22 24 729 23 24 730 17 24 731 17 179 732 19 179 733 3 179 734 3 180 735 1 180 736 16 180 737 1 179 738 20 179 739 16 179 740 16 24 741 22 24 742 17 24 743 22 181 744 21 181 745 5 181 746 5 182 747 7 182 748 23 182 749 7 181 750 18 181 751 23 181 752 10 183 753 26 183 754 29 183 755 14 184 756 30 184 757 27 184 758 14 11 759 8 11 760 24 11 761 13 10 762 29 10 763 28 10 764 11 13 765 27 13 766 25 13 767 10 12 768 15 12 769 31 12 770 12 185 771 28 185 772 31 185 773 9 186 774 25 186 775 24 186 776 25 0 777 27 0 778 30 0 779 29 0 780 26 0 781 31 0 782 23 187 783 39 187 784 33 187 785 16 188 786 32 188 787 38 188 788 20 189 789 36 189 790 32 189 791 22 190 792 38 190 793 37 190 794 21 191 795 37 191 796 36 191 797 17 192 798 33 192 799 35 192 800 19 193 801 35 193 802 34 193 803 18 194 804 34 194 805 39 194 806 35 24 807 33 24 808 39 24 809 36 24 810 37 24 811 38 24 812 41 25 813 43 25 814 42 25 815 2 1 816 42 1 817 43 1 818 43 1 819 47 1 820 45 1 821 1 3 822 41 3 823 40 3 824 45 24 825 47 24 826 46 24 827 3 2 828 45 2 829 44 2 830 41 25 831 46 25 832 47 25 833 1 3 834 44 3 835 46 3 836 49 26 837 51 29 838 50 27 839 51 29 840 55 31 841 54 30 842 55 31 843 53 33 844 52 32 845 53 33 846 49 26 847 48 28 848 51 29 849 49 26 850 53 33 851 57 34 852 59 37 853 58 35 854 59 37 855 61 39 856 60 38 857 61 39 858 63 42 859 62 40 860 61 39 861 59 37 862 63 42 863 59 37 864 57 34 865 63 42 866 62 40 867 63 42 868 65 41 869 64 43 870 65 41 871 57 34 872 73 44 873 71 52 874 76 45 875 70 47 876 75 54 877 72 48 878 69 50 879 68 55 880 73 44 881 66 49 882 72 48 883 71 52 884 70 47 885 69 50 886 74 51 887 68 55 888 67 53 889 71 52 890 79 56 891 78 46 892 83 57 893 75 54 894 80 60 895 77 59 896 74 51 897 73 44 898 78 46 899 72 48 900 77 59 901 76 45 902 75 54 903 74 51 904 79 56 905 85 61 906 84 58 907 89 62 908 77 59 909 82 65 910 81 64 911 80 60 912 79 56 913 84 58 914 78 46 915 76 45 916 81 64 917 80 60 918 85 61 919 82 65 920 87 66 921 90 63 922 95 67 923 83 57 924 81 64 925 86 69 926 85 61 927 90 63 928 87 66 929 84 58 930 83 57 931 88 70 932 82 65 933 87 66 934 86 69 935 93 73 936 91 72 937 94 71 938 91 72 939 92 68 940 95 67 941 88 70 942 93 73 943 94 71 944 86 69 945 87 66 946 92 68 947 89 62 948 94 71 949 95 67 950 86 69 951 91 72 952 93 73 953 98 74 954 99 78 955 97 75 956 98 74 957 100 80 958 101 77 959 102 79 960 103 82 961 101 77 962 104 81 963 105 83 964 103 82 965 96 76 966 97 75 967 105 83 968 98 74 969 96 76 970 100 80 971 96 76 972 104 81 973 100 80 974 106 84 975 107 195 976 109 85 977 108 86 978 109 85 979 111 87 980 111 87 981 113 90 982 112 89 983 113 90 984 115 92 985 114 91 986 115 92 987 107 195 988 106 84 989 114 91 990 106 84 991 108 86 992 108 86 993 110 88 994 112 89 995 117 93 996 119 96 997 118 94 998 119 96 999 123 98 1000 122 97 1001 123 98 1002 121 100 1003 120 99 1004 121 100 1005 117 93 1006 116 95 1007 119 96 1008 117 93 1009 121 100 1010 124 101 1011 125 196 1012 127 102 1013 126 103 1014 127 102 1015 129 104 1016 129 104 1017 131 108 1018 130 106 1019 129 104 1020 127 102 1021 125 196 1022 125 196 1023 133 107 1024 129 104 1025 131 108 1026 133 107 1027 132 109 1028 133 107 1029 125 196 1030 124 101 1031 141 110 1032 139 118 1033 144 111 1034 138 113 1035 143 120 1036 140 114 1037 137 116 1038 136 121 1039 141 110 1040 134 115 1041 140 114 1042 139 118 1043 138 113 1044 137 116 1045 142 117 1046 136 121 1047 135 119 1048 139 118 1049 147 122 1050 146 112 1051 151 123 1052 143 120 1053 148 126 1054 145 125 1055 142 117 1056 141 110 1057 146 112 1058 140 114 1059 145 125 1060 144 111 1061 143 120 1062 142 117 1063 147 122 1064 153 127 1065 152 124 1066 157 128 1067 145 125 1068 150 131 1069 149 130 1070 148 126 1071 147 122 1072 152 124 1073 146 112 1074 144 111 1075 149 130 1076 148 126 1077 153 127 1078 150 131 1079 155 132 1080 158 129 1081 163 133 1082 151 123 1083 149 130 1084 154 135 1085 153 127 1086 158 129 1087 155 132 1088 152 124 1089 151 123 1090 156 136 1091 150 131 1092 155 132 1093 154 135 1094 161 139 1095 159 138 1096 162 137 1097 159 138 1098 160 134 1099 163 133 1100 156 136 1101 161 139 1102 162 137 1103 154 135 1104 155 132 1105 160 134 1106 157 128 1107 162 137 1108 163 133 1109 154 135 1110 159 138 1111 161 139 1112 166 140 1113 167 144 1114 165 141 1115 168 143 1116 169 146 1117 167 144 1118 170 145 1119 171 148 1120 169 146 1121 172 147 1122 173 149 1123 171 148 1124 164 142 1125 165 141 1126 173 149 1127 166 140 1128 164 142 1129 168 143 1130 164 142 1131 172 147 1132 168 143 1133 174 150 1134 175 197 1135 177 151 1136 176 152 1137 177 151 1138 179 153 1139 178 154 1140 179 153 1141 181 155 1142 181 155 1143 183 158 1144 182 157 1145 183 158 1146 175 197 1147 174 150 1148 182 157 1149 174 150 1150 180 156 1151 174 150 1152 176 152 1153 180 156 1154 185 25 1155 187 25 1156 186 25 1157 187 1 1158 191 1 1159 190 1 1160 191 2 1161 189 2 1162 188 2 1163 189 3 1164 185 3 1165 184 3 1166 190 0 1167 188 0 1168 184 0 1169 193 25 1170 195 25 1171 194 25 1172 195 1 1173 199 1 1174 198 1 1175 199 2 1176 197 2 1177 196 2 1178 197 3 1179 193 3 1180 192 3 1181 198 0 1182 196 0 1183 192 0 1184 201 25 1185 203 25 1186 202 25 1187 203 1 1188 207 1 1189 206 1 1190 207 2 1191 205 2 1192 204 2 1193 205 3 1194 201 3 1195 200 3 1196 206 0 1197 204 0 1198 200 0 1199 209 25 1200 211 25 1201 210 25 1202 211 1 1203 215 1 1204 214 1 1205 215 2 1206 213 2 1207 212 2 1208 213 3 1209 209 3 1210 208 3 1211 214 0 1212 212 0 1213 208 0 1214 217 25 1215 219 25 1216 218 25 1217 219 1 1218 223 1 1219 222 1 1220 223 2 1221 221 2 1222 220 2 1223 221 3 1224 217 3 1225 216 3 1226 222 0 1227 220 0 1228 216 0 1229 219 24 1230 217 24 1231 221 24 1232 225 198 1233 227 198 1234 226 198 1235 227 199 1236 231 199 1237 230 199 1238 231 200 1239 229 200 1240 228 200 1241 229 201 1242 225 201 1243 224 201 1244 233 198 1245 235 198 1246 234 198 1247 235 202 1248 239 202 1249 238 202 1250 239 200 1251 237 200 1252 236 200 1253 237 203 1254 233 203 1255 232 203 1256 241 204 1257 243 204 1258 242 204 1259 243 205 1260 247 205 1261 246 205 1262 247 206 1263 245 206 1264 244 206 1265 245 207 1266 241 207 1267 240 207 1268 249 204 1269 251 204 1270 250 204 1271 251 208 1272 255 208 1273 254 208 1274 255 206 1275 253 206 1276 252 206 1277 253 209 1278 249 209 1279 248 209 1280 261 24 1281 258 24 1282 259 24 1283 245 3 1284 267 3 1285 264 3 1286 239 2 1287 262 2 1288 263 2 1289 227 1 1290 257 1 1291 258 1 1292 259 24 1293 258 24 1294 257 24 1295 263 24 1296 262 24 1297 261 24 1298 267 24 1299 266 24 1300 265 24 1301 271 24 1302 270 24 1303 269 24 1304 266 24 1305 263 24 1306 260 24 1307 271 24 1308 264 24 1309 265 24 1310 260 3 1311 259 3 1312 229 3 1313 265 25 1314 260 25 1315 233 25 1316 249 25 1317 268 25 1318 269 25 1319 225 25 1320 256 25 1321 257 25 1322 235 1 1323 261 1 1324 262 1 1325 247 2 1326 266 2 1327 267 2 1328 253 3 1329 271 3 1330 268 3 1331 270 24 1332 259 24 1333 256 24 1334 270 1 1335 265 1 1336 243 1 1337 269 173 1338 256 173 1339 225 173 1340 247 2 1341 237 2 1342 263 2 1343 243 0 1344 233 0 1345 237 0 1346 255 210 1347 229 210 1348 259 210 1349 251 0 1350 225 0 1351 229 0 1352 253 3 1353 241 3 1354 264 3 1355 255 0 1356 243 0 1357 241 0 1358 235 1 1359 231 1 1360 258 1 1361 233 0 1362 229 0 1363 231 0 1364 292 24 1368 289 24 1369 290 24 1370 296 24 1371 293 24 1372 291 24 1373 299 24 1374 294 24 1375 295 24 1376 291 3 1377 290 3 1378 277 3 1379 295 25 1380 291 25 1381 279 25 1382 298 24 1383 290 24 1384 288 24 1385 297 211 1386 288 211 1387 276 211 1388 284 2 1389 281 2 1390 293 2 1391 283 0 1392 279 0 1393 281 0 1394 287 212 1395 277 212 1396 290 212 1397 285 0 1398 276 0 1399 277 0 1400 286 3 1401 282 3 1402 294 3 1403 287 0 1404 283 0 1405 282 0 1406 280 1 1407 278 1 1408 289 1 1409 279 0 1410 277 0 1411 278 0 1412</p>
        </triangles>
        <triangles material="Metal_04-material" count="8">
          <input semantic="VERTEX" source="#Table_M_01-mesh-vertices" offset="0"/>
          <input semantic="NORMAL" source="#Table_M_01-mesh-normals" offset="1"/>
          <input semantic="TEXCOORD" source="#Table_M_01-mesh-map-0" offset="2" set="0"/>
          <p>273 24 612 274 24 613 272 24 614 301 24 660 302 24 661 300 24 662 306 0 663 305 0 664 304 0 665 310 0 666 309 0 667 308 0 668 273 24 1365 275 24 1366 274 24 1367 301 24 1413 303 24 1414 302 24 1415 306 0 1416 307 0 1417 305 0 1418 310 0 1419 311 0 1420 309 0 1421</p>
        </triangles>
      </mesh>
    </geometry>
  </library_geometries>
  <library_visual_scenes>
    <visual_scene id="Scene" name="Scene">
      <node id="Table_M_01" name="Table_M_01" type="NODE">
        <matrix sid="transform">1.19249e-8 1 0 0 -1 1.19249e-8 0 0 0 0 1 0 0 0 0 1</matrix>
        <instance_geometry url="#Table_M_01-mesh" name="Table_M_01">
          <bind_material>
            <technique_common>
              <instance_material symbol="Metal_03-material" target="#Metal_03-material">
                <bind_vertex_input semantic="UVMap" input_semantic="TEXCOORD" input_set="0"/>
              </instance_material>
              <instance_material symbol="Metal_04-material" target="#Metal_04-material">
                <bind_vertex_input semantic="UVMap" input_semantic="TEXCOORD" input_set="0"/>
              </instance_material>
            </technique_common>
          </bind_material>
        </instance_geometry>
      </node>
    </visual_scene>
  </library_visual_scenes>
  <scene>
    <instance_visual_scene url="#Scene"/>
  </scene>
</COLLADA>