<?xml version="1.0" encoding="utf-8"?>
<COLLADA xmlns="http://www.collada.org/2005/11/COLLADASchema" version="1.4.1" xmlns:xsi="http://www.w3.org/2001/XMLSchema-instance">
  <asset>
    <contributor>
      <author>Blender User</author>
      <authoring_tool>Blender 4.0.1 commit date:2023-11-16, commit time:16:40, hash:d0dd92834a08</authoring_tool>
    </contributor>
    <created>2023-11-28T13:21:02</created>
    <modified>2023-11-28T13:21:02</modified>
    <unit name="meter" meter="1"/>
    <up_axis>Z_UP</up_axis>
  </asset>
  <library_effects>
    <effect id="Refrijerator_-effect">
      <profile_COMMON>
        <newparam sid="Refrijerator_-surface">
          <surface type="2D">
            <init_from>Refrijerator_</init_from>
          </surface>
        </newparam>
        <newparam sid="Refrijerator_-sampler">
          <sampler2D>
            <source>Refrijerator_-surface</source>
          </sampler2D>
        </newparam>
        <technique sid="common">
          <lambert>
            <emission>
              <color sid="emission">0 0 0 1</color>
            </emission>
            <diffuse>
              <texture texture="Refrijerator_-sampler" texcoord="UVMap"/>
            </diffuse>
            <index_of_refraction>
              <float sid="ior">1.45</float>
            </index_of_refraction>
          </lambert>
        </technique>
      </profile_COMMON>
    </effect>
  </library_effects>
  <library_images>
    <image id="Refrijerator_" name="Refrijerator_">
      <init_from>Refrijerator%20.png</init_from>
    </image>
  </library_images>
  <library_materials>
    <material id="Refrijerator_-material" name="Refrijerator ">
      <instance_effect url="#Refrijerator_-effect"/>
    </material>
  </library_materials>
  <library_geometries>
    <geometry id="Refrijerator_-mesh" name="Refrijerator ">
      <mesh>
        <source id="Refrijerator_-mesh-positions">
          <float_array id="Refrijerator_-mesh-positions-array" count="444">-0.5537745 -1.107245 -1.350088 -0.5537745 -1.107245 1.344306 -0.5537745 1.107208 -1.350088 -0.5537745 1.107208 1.344306 0.4217639 -1.107245 -1.350088 0.4217639 -1.107245 1.344306 0.4217639 1.107208 -1.350088 0.4217639 1.107208 1.344306 -0.5537745 -1.107245 -0.9080029 -0.5537745 1.107208 -0.9080029 0.4217639 1.088803 -0.8755924 0.4217639 -1.087859 -0.8746113 -0.5537745 -1.107245 1.046438 -0.5537745 1.107208 1.046438 0.4217639 1.088803 1.014027 0.4217639 -1.087859 1.013046 -0.5537745 -1.85896e-5 -1.350088 -0.5537745 -1.87088e-5 1.344306 0.4217639 -1.87088e-5 -1.350088 0.4217639 -1.85896e-5 1.344306 0.4217639 0.03239196 -0.8755924 -0.5537745 -1.87088e-5 -0.9080029 0.4217639 0.03239196 1.014027 -0.5537745 -1.87088e-5 1.046438 0.4217639 1.107208 1.046438 0.4217639 1.107208 -0.9080029 0.4217639 -0.03341019 -0.8746113 0.4217639 -0.03341019 1.013046 0.4217639 -1.107245 1.046438 0.4217639 -1.107245 -0.9080029 0.4217639 -1.85896e-5 -0.9080029 0.4217639 -1.85896e-5 1.046438 0.5071867 1.088803 1.014027 0.5071867 1.088803 -0.8755924 0.5071867 0.07038521 -0.8755924 0.5071867 0.07038521 1.014027 0.5071867 -1.087859 1.013046 0.5071867 -1.087859 -0.8746113 0.5071867 -0.07140171 -0.8746113 0.5071867 -0.07140171 1.013046 0.5098761 1.107208 -0.9080029 0.5098761 1.107208 -1.350088 0.5098761 -1.87088e-5 -1.350088 0.5098761 -1.85896e-5 1.344306 0.5098761 -1.107245 1.344306 0.5098761 -1.107245 -0.9080029 0.5098761 -1.107245 -1.350088 0.5098761 -1.85896e-5 -0.9080029 0.5098761 1.107208 1.344306 0.5098761 1.107208 1.046438 0.5098761 -1.107245 1.046438 0.5098761 -1.85896e-5 1.046438 -0.5537745 1.107208 -1.300518 0.4217639 1.107208 -1.300518 0.4217639 -1.107245 -1.300518 -0.5537745 -1.107245 -1.300518 -0.5537745 -1.86029e-5 -1.300518 0.5098761 1.107208 -1.300518 0.5098761 -1.107245 -1.300518 0.5098761 -1.86954e-5 -1.300518 0.4915887 0.1297363 0.200923 0.4915887 0.1297363 0.2322869 0.4915887 0.1611002 0.200923 0.4915887 0.1611002 0.2322869 0.595995 0.1291545 0.1980971 0.5948776 0.1284266 0.2335965 0.595995 0.161682 0.1980971 0.5948776 0.1624098 0.2335965 0.6289684 0.1628923 0.234079 0.6284857 0.1624097 0.1969836 0.6284857 0.1284267 0.1969836 0.6289684 0.1279441 0.234079 0.4915887 0.1297363 -0.2304581 0.4915887 0.1297363 -0.1990942 0.4915887 0.1611002 -0.2304581 0.4915887 0.1611002 -0.1990942 0.5948776 0.1284266 -0.2317677 0.595995 0.1291545 -0.1962683 0.5948776 0.1624098 -0.2317677 0.595995 0.161682 -0.1962683 0.6284857 0.1624097 -0.1951549 0.6289684 0.1628923 -0.2322502 0.6289684 0.1279441 -0.2322502 0.6284857 0.1284267 -0.1951549 0.4915886 -0.1297361 0.200923 0.4915886 -0.1297361 0.2322869 0.4915886 -0.1611 0.200923 0.4915886 -0.1611 0.2322869 0.5959949 -0.1291543 0.1980971 0.5948775 -0.1284265 0.2335965 0.5959949 -0.1616818 0.1980971 0.5948775 -0.1624097 0.2335965 0.6289683 -0.1628922 0.234079 0.6284857 -0.1624096 0.1969836 0.6284857 -0.1284266 0.1969836 0.6289683 -0.127944 0.234079 0.4915886 -0.1297361 -0.2304581 0.4915886 -0.1297361 -0.1990942 0.4915886 -0.1611 -0.2304581 0.4915886 -0.1611 -0.1990942 0.5948775 -0.1284265 -0.2317677 0.5959949 -0.1291543 -0.1962683 0.5948775 -0.1624097 -0.2317677 0.5959949 -0.1616818 -0.1962683 0.6284857 -0.1624096 -0.1951549 0.6289683 -0.1628922 -0.2322502 0.6289683 -0.127944 -0.2322502 0.6284857 -0.1284266 -0.1951549 0.3912582 1.057179 -1.421075 0.3912582 1.072528 -1.323269 0.4289169 1.029819 -1.421075 0.4450551 1.033442 -1.323269 0.4145326 0.9855484 -1.421075 0.4245065 0.9702003 -1.323269 0.3679839 0.9855484 -1.421075 0.3580099 0.9702003 -1.323269 0.3535996 1.029819 -1.421075 0.3374614 1.033442 -1.323269 -0.4310494 1.057179 -1.421075 -0.4310494 1.072528 -1.323269 -0.468708 1.029819 -1.421075 -0.4848462 1.033442 -1.323269 -0.4543237 0.9855484 -1.421075 -0.4642976 0.9702003 -1.323269 -0.4077751 0.9855484 -1.421075 -0.3978011 0.9702003 -1.323269 -0.3933908 1.029819 -1.421075 -0.3772525 1.033442 -1.323269 0.3912582 -1.057179 -1.421075 0.3912582 -1.072528 -1.323269 0.4289169 -1.029819 -1.421075 0.4450551 -1.033442 -1.323269 0.4145326 -0.9855485 -1.421075 0.4245065 -0.9702003 -1.323269 0.3679839 -0.9855485 -1.421075 0.3580099 -0.9702003 -1.323269 0.3535996 -1.029819 -1.421075 0.3374614 -1.033442 -1.323269 -0.4310494 -1.057179 -1.421075 -0.4310494 -1.072528 -1.323269 -0.468708 -1.029819 -1.421075 -0.4848462 -1.033442 -1.323269 -0.4543237 -0.9855485 -1.421075 -0.4642976 -0.9702003 -1.323269 -0.4077751 -0.9855485 -1.421075 -0.3978011 -0.9702003 -1.323269 -0.3933908 -1.029819 -1.421075 -0.3772525 -1.033442 -1.323269</float_array>
          <technique_common>
            <accessor source="#Refrijerator_-mesh-positions-array" count="148" stride="3">
              <param name="X" type="float"/>
              <param name="Y" type="float"/>
              <param name="Z" type="float"/>
            </accessor>
          </technique_common>
        </source>
        <source id="Refrijerator_-mesh-normals">
          <float_array id="Refrijerator_-mesh-normals-array" count="408">-1 0 0 0 1 0 0 -1 0 2.20729e-7 0 -1 -2.20729e-7 0 1 0 0 1 0.4063689 0.9137091 0 0 0 -1 1 2.24952e-6 0 1 0 0 1 1.88192e-6 0 1 2.74868e-6 0 1 -7.97871e-7 0 0.4063853 -0.913702 0 -1.56869e-6 0 -1 1.81976e-6 0 1 -0.006131172 0.9997672 -0.02069085 -0.01415205 0 0.9998999 -0.006131172 -0.9997672 -0.02069085 -0.02705585 0 -0.999634 -0.0126779 0 0.9999197 0.9999155 0 -0.01300907 -0.02282619 0.9996588 -0.012708 -0.01385217 -0.9996849 -0.02093219 -0.01267826 0.9999197 0 -0.0223928 -0.9997493 0 -0.01267826 -0.9999197 0 -0.01267766 0 -0.9999197 -0.02705597 0 0.999634 0.9999154 0 0.01300907 -0.01385217 0.999685 0.02093225 -0.02282619 -0.9996587 0.01270687 -0.01415115 0 -0.9998999 -0.02239274 0.9997493 0 -0.01267814 -0.9999197 0 -0.01415193 0 0.9998999 -0.006130993 0.9997672 -0.02069097 -0.02705621 0 -0.9996339 -0.01267832 0 0.9999197 0.9999154 0 -0.01300907 -0.01385223 -0.9996849 -0.02093225 -0.01385223 0.9996849 -0.02093279 -0.01267814 -0.9999197 0 -0.02239227 0.9997494 0 -0.006130993 0.9997672 0.02069085 -0.01267814 0 -0.9999197 -0.02705585 0 0.999634 0.9999155 0 0.01300907 -0.01385223 -0.9996849 0.02093255 -0.01385217 0.999685 0.02093309 -0.01415193 0 -0.9998999 -0.02239245 -0.9997494 0 -5.95066e-7 0.9879094 -0.155032 0.7149763 0.2373787 -0.6576172 0 0.7568811 -0.6535526 0.9394531 0.2997223 -0.1661155 0.4417874 -0.6030001 -0.66424 0.5751866 -0.7971192 -0.183743 -0.4417865 -0.6030001 -0.6642405 -0.9394531 0.2997221 -0.1661164 -0.7149751 0.2373785 -0.6576185 -0.7149755 0.2373781 -0.6576182 -2.97533e-7 0.9879096 -0.1550317 4.73576e-7 0.7568816 -0.6535521 -0.4417865 -0.6030007 -0.6642401 -0.9394534 0.2997217 -0.1661152 0.4417871 -0.6029999 -0.6642404 -0.5751868 -0.7971189 -0.1837438 0.939453 0.2997221 -0.166117 0.5751865 -0.7971189 -0.1837446 0.7149759 0.2373787 -0.6576176 0.7149775 -0.2373783 -0.6576159 -4.52498e-7 -0.9879096 -0.1550309 1.69103e-7 -0.756883 -0.6535504 0.4417872 0.6029996 -0.6642405 0.9394532 -0.2997221 -0.1661156 -0.4417868 0.6029996 -0.6642408 0.5751863 0.7971192 -0.1837437 -0.939453 -0.2997222 -0.1661164 -0.5751872 0.7971183 -0.1837451 -0.7149775 -0.2373777 -0.6576163 -1.23972e-7 -0.9879097 -0.1550312 -0.7149775 -0.2373772 -0.6576164 8.28603e-7 -0.7568826 -0.6535509 -0.9394534 -0.299722 -0.1661151 -0.4417867 0.603 -0.6642405 -0.5751869 0.7971188 -0.1837437 0.441787 0.6029996 -0.6642407 0.939453 -0.2997222 -0.166117 0.7149769 -0.2373781 -0.6576167 0.4063689 0.9137092 0 -6.60501e-7 0 1 0 0 1 0 0 -1 1 -3.31415e-6 0 1 -1.27738e-6 0 1 -1.82663e-6 0 5.79014e-7 0 -1 0.406385 -0.9137021 0 -0.01267826 0.9999197 0 -0.01415044 0 0.9999 -0.02705639 0 -0.999634 -0.01267826 0 0.9999197 0.9999154 0 -0.01300913 -0.01385217 0.9996849 -0.02093219 -0.02282619 -0.9996587 -0.01270687 -0.006131172 0.9997672 0.02069085 -0.02239274 -0.9997493 0 -0.006131172 -0.9997672 0.02069085 -0.01267802 0 -0.9999197 -0.02705603 0 0.999634 0.9999154 0 0.01300907 -0.02282619 0.9996588 0.012708 -0.01385217 -0.999685 0.02093225 -0.01415354 0 -0.9998999 -0.0223928 0.9997493 0 -0.006131172 -0.9997672 -0.02068978 -0.01415055 0 0.9999 -0.01267814 0.9999197 0 -0.02705615 0 -0.999634 -0.0126782 0 0.9999197 0.9999154 0 -0.01300913 -0.02282577 -0.9996588 -0.01270735 -0.02282583 0.9996588 -0.01270657 -0.006131112 -0.9997672 0.02068984 -0.02239239 0.9997493 0 -0.01267814 0.9999197 0 -0.0126779 0 -0.9999197 -0.02705585 0 0.999634 0.9999154 0 0.01300913 -0.02282583 -0.9996588 0.01270735 -0.02282583 0.9996587 0.01270681 -0.01415276 0 -0.9998999 -0.02239227 -0.9997494 0 -0.5751874 -0.7971182 -0.1837446 0.5751864 0.7971191 -0.1837443</float_array>
          <technique_common>
            <accessor source="#Refrijerator_-mesh-normals-array" count="136" stride="3">
              <param name="X" type="float"/>
              <param name="Y" type="float"/>
              <param name="Z" type="float"/>
            </accessor>
          </technique_common>
        </source>
        <source id="Refrijerator_-mesh-map-0">
          <float_array id="Refrijerator_-mesh-map-0-array" count="1488">0.003634333 0.7138811 0.2955468 0.6353502 0.003634333 0.6353502 0.003262341 0.8807998 0.3207851 0.7838481 0.003262341 0.7838481 0.2591453 0.295054 0.2795898 0.2259402 0.2591453 0.2259402 0.314737 0.8670297 0.00758332 0.7732445 0.3147369 0.7732442 0.9849865 0.01928555 0.6872003 0.35727 0.6872003 0.01928555 0.6441786 0.6600234 0.9467485 0.9266073 0.6441786 0.9266073 0.3147369 0.1578778 0.007583141 0.03429239 0.3147369 0.03429239 0.2982856 0.5288044 0.3157356 0.7480834 0.2982856 0.7480834 0.003262341 0.1477077 0.3207851 0.01995021 0.003262341 0.01995021 0.003634333 0.01659196 0.2955468 0.1200757 0.2955468 0.01659196 0.314737 0.7732441 0.007583141 0.1578781 0.3147369 0.1578779 0.4078413 0.5573388 0.4302271 0.06265997 0.4078413 0.06265997 0.003262341 0.7838481 0.3207851 0.1477077 0.003262341 0.1477077 0.003634333 0.6353502 0.2955468 0.1200757 0.003634333 0.1200757 0.3064444 0.6680143 0.02269703 0.1671524 0.3064445 0.1671524 0.4078413 0.5953359 0.4302271 0.318493 0.4302271 0.5953359 0.3064444 0.06656318 0.02269703 0.1671524 0.02269697 0.06656318 0.2591453 0.2604971 0.2795898 0.003590047 0.2591453 0.003590047 0.3416086 0.6600234 0.6441786 0.9266073 0.3416086 0.9266073 0.9967899 0.3642814 0.6792672 0.003896236 0.6792671 0.3642814 0.9467485 0.9266073 0.6441786 0.9506857 0.6441786 0.9266073 0.3064444 0.7443487 0.02269703 0.6680142 0.3064444 0.6680143 0.4243447 0.06240284 0.4291676 0.5660895 0.4243447 0.557596 0.4220893 0.4410292 0.4135958 0.1593633 0.4220893 0.1641862 0.4172047 0.4021342 0.4256982 0.1204683 0.4256982 0.4106278 0.4275277 0.06240284 0.4190342 0.5660895 0.4190342 0.05390936 0.4209816 0.5573388 0.4159014 0.05390936 0.4209816 0.06265997 0.4238991 0.1847831 0.4151484 0.466192 0.4151484 0.1760326 0.4129438 0.1847831 0.4216945 0.466192 0.4129438 0.4611118 0.4102836 0.06265997 0.4190342 0.5660895 0.4102836 0.5573388 0.9491271 0.628647 0.3394322 0.9692237 0.3394322 0.628647 0.6702671 0.6111296 0.3361406 0.01347249 0.6702671 0.01347249 0.4078413 0.557596 0.4302271 0.06240284 0.4078413 0.06240284 0.4078413 0.02492016 0.4302271 0.3012489 0.4302271 0.02492016 0.4078413 0.06240284 0.4302271 0.557596 0.4078413 0.557596 0.4078413 0.5953359 0.4302271 0.318493 0.4078413 0.318493 0.4382406 0.2051884 0.4631924 0.5131914 0.4382406 0.5131914 0.4078413 0.06265997 0.4302271 0.5573388 0.4078413 0.5573388 0.521672 0.3348941 0.4525582 0.5918012 0.4525582 0.3348941 0.9958301 0.5477444 0.6843936 0.4361222 0.6843936 0.5468762 0.6822796 0.5486125 0.9948458 0.437807 0.9958301 0.5477444 0.521672 0.07798707 0.4525582 0.3348941 0.4525582 0.07798707 0.7501474 0.1862072 0.7628508 0.1636267 0.7628508 0.1862072 0.4882928 0.5 0.3877035 0.5225804 0.3877035 0.5 0.2591453 0.2259402 0.2795898 0.295054 0.2591453 0.295054 0.8007829 0.02532154 0.8233634 0.309069 0.8007829 0.309069 0.2591453 0.5174041 0.2795898 0.2604971 0.2591453 0.2604971 0.2982856 0.3095254 0.3157356 0.5288044 0.2982856 0.5288044 0.8052182 0.02542936 0.8277986 0.3091768 0.8052182 0.3091768 0.6441786 0.9266073 0.3416086 0.9506857 0.3416086 0.9266073 0.7646989 0.2471913 0.7519953 0.2697718 0.7519953 0.2471913 0.3877035 0.75 0.4882926 0.7274196 0.4882926 0.75 0.6768778 0.2596172 0.9894439 0.2736108 0.6768778 0.2736108 0.9904283 0.258749 0.6789918 0.271868 0.9914126 0.271868 0.8179216 0.03732419 0.8052182 0.3210717 0.8052182 0.03732419 0.6788572 0.2110562 0.9707696 0.1979871 0.6788572 0.1979871 0.6784852 0.2144144 0.9960079 0.1982798 0.6784852 0.1982798 0.9899597 0.2287566 0.682806 0.2131489 0.9899597 0.2131489 0.7228486 0.2856644 0.7744999 0.3020035 0.7750587 0.2842514 0.7744999 0.1771498 0.7915476 0.194385 0.7744999 0.1941437 0.7744999 0.3020035 0.7228486 0.2856644 0.7750587 0.2842514 0.7750587 0.1937797 0.7228486 0.1778048 0.7228486 0.1934888 0.7228486 0.1934888 0.7744999 0.1771498 0.7744999 0.1941437 0.7659363 0.3022447 0.7487012 0.2836945 0.765695 0.2836945 0.7750587 0.2842514 0.7915476 0.3022447 0.7913063 0.2836945 0.7750587 0.2842514 0.7915476 0.3022447 0.7744999 0.3020035 0.765695 0.08759903 0.7487012 0.2836945 0.7487012 0.08759903 0.7228486 0.0856291 0.7744999 0.06929016 0.7228486 0.06994503 0.7913063 0.08759903 0.7750587 0.2842514 0.7750587 0.08704221 0.7744999 0.06929016 0.7228486 0.0856291 0.7228486 0.06994503 0.7744999 0.1941437 0.7228486 0.1778048 0.7228486 0.1934888 0.7228486 0.1934888 0.7750587 0.1775138 0.7750587 0.1937797 0.765695 0.08759903 0.7484599 0.06904888 0.7659363 0.06904888 0.7750587 0.08704221 0.7915476 0.06904888 0.7744999 0.06929016 0.7750587 0.08704221 0.7915476 0.06904888 0.7913063 0.08759903 0.7744999 0.1941437 0.7915476 0.1769086 0.7744999 0.1771498 0.7750587 0.08704221 0.7913063 0.2836945 0.7913063 0.08759903 0.7490652 0.08704221 0.765331 0.2842514 0.765331 0.08704221 0.7228486 0.2856644 0.7744999 0.3020035 0.7228486 0.3013486 0.7915476 0.194385 0.7744999 0.1771498 0.7744999 0.1941437 0.7228486 0.2856644 0.7744999 0.3020035 0.7750587 0.2842514 0.7228486 0.1934888 0.7750587 0.1775138 0.7750587 0.1937797 0.7744999 0.1771498 0.7228486 0.1934888 0.7744999 0.1941437 0.7487012 0.2836945 0.7659363 0.3022447 0.765695 0.2836945 0.7750587 0.2842514 0.7915476 0.3022447 0.7744999 0.3020035 0.7915476 0.3022447 0.7750587 0.2842514 0.7744999 0.3020035 0.7487012 0.2836945 0.765695 0.08759903 0.7487012 0.08759903 0.7744999 0.06929016 0.7228486 0.0856291 0.7228486 0.06994503 0.7750587 0.2842514 0.7913063 0.08759903 0.7750587 0.08704221 0.7744999 0.06929016 0.7228486 0.0856291 0.7750587 0.08704221 0.7228486 0.1778048 0.7744999 0.1941437 0.7228486 0.1934888 0.7750587 0.1775138 0.7228486 0.1934888 0.7750587 0.1937797 0.7659363 0.06904888 0.7487012 0.08759903 0.765695 0.08759903 0.7915476 0.06904888 0.7750587 0.08704221 0.7744999 0.06929016 0.7750587 0.08704221 0.7915476 0.06904888 0.7744999 0.06929016 0.7915476 0.1769086 0.7744999 0.1941437 0.7744999 0.1771498 0.7913063 0.2836945 0.7750587 0.08704221 0.7913063 0.08759903 0.765331 0.2842514 0.7490652 0.08704221 0.765331 0.08704221 0.8185252 0.294838 0.8470035 0.2208748 0.8185252 0.2208748 0.8402627 0.294838 0.8040443 0.2208748 0.8375226 0.2208748 0.8436683 0.294838 0.8009247 0.2208748 0.8361258 0.2208748 0.8040443 0.2208748 0.8402627 0.294838 0.8375226 0.2208748 0.7900469 0.2208748 0.8185252 0.294838 0.8185252 0.2208748 0.8470035 0.2663105 0.8361258 0.2328321 0.8009247 0.2328321 0.8470035 0.2208748 0.8185252 0.294838 0.8185252 0.2208748 0.8040443 0.2208748 0.8402627 0.294838 0.8375226 0.2208748 0.8009247 0.2208748 0.8436683 0.294838 0.8361258 0.2208748 0.8040443 0.2208748 0.8402627 0.294838 0.7924377 0.294838 0.7900469 0.2208748 0.8185252 0.294838 0.7778428 0.294838 0.7900469 0.2663105 0.8009247 0.2328321 0.8361258 0.2328321 0.8470035 0.2208748 0.8185252 0.294838 0.8185252 0.2208748 0.8040443 0.2208748 0.8402627 0.294838 0.8375226 0.2208748 0.8009247 0.2208748 0.8436683 0.294838 0.8361258 0.2208748 0.8040443 0.2208748 0.8402627 0.294838 0.7924377 0.294838 0.7900469 0.2208748 0.8185252 0.294838 0.7778428 0.294838 0.7900469 0.2663105 0.8361258 0.2328321 0.8470035 0.2663105 0.8185252 0.294838 0.8470035 0.2208748 0.8185252 0.2208748 0.8402627 0.294838 0.8040443 0.2208748 0.8375226 0.2208748 0.8436683 0.294838 0.8009247 0.2208748 0.8361258 0.2208748 0.8040443 0.2208748 0.8402627 0.294838 0.8375226 0.2208748 0.7900469 0.2208748 0.8185252 0.294838 0.8185252 0.2208748 0.8361258 0.2328321 0.8009247 0.2328321 0.7900469 0.2663105 0.003634333 0.7138811 0.2955468 0.7138811 0.2955468 0.6353502 0.003262341 0.8807998 0.3207851 0.8807998 0.3207851 0.7838481 0.2591453 0.295054 0.2795898 0.295054 0.2795898 0.2259402 0.314737 0.8670297 0.00758332 0.86703 0.00758332 0.7732445 0.9849865 0.01928555 0.9849865 0.35727 0.6872003 0.35727 0.6441786 0.6600234 0.9467485 0.6600235 0.9467485 0.9266073 0.3147369 0.1578778 0.007583141 0.1578779 0.007583141 0.03429239 0.2982856 0.5288044 0.3157356 0.5288044 0.3157356 0.7480834 0.003262341 0.1477077 0.3207851 0.1477077 0.3207851 0.01995021 0.003634333 0.01659196 0.003634333 0.1200757 0.2955468 0.1200757 0.314737 0.7732441 0.00758332 0.7732444 0.007583141 0.1578781 0.4078413 0.5573388 0.4302271 0.5573388 0.4302271 0.06265997 0.003262341 0.7838481 0.3207851 0.7838481 0.3207851 0.1477077 0.003634333 0.6353502 0.2955468 0.6353502 0.2955468 0.1200757 0.3064444 0.6680143 0.02269703 0.6680142 0.02269703 0.1671524 0.4078413 0.5953359 0.4078413 0.318493 0.4302271 0.318493 0.3064444 0.06656318 0.3064445 0.1671524 0.02269703 0.1671524 0.2591453 0.2604971 0.2795898 0.2604971 0.2795898 0.003590047 0.3416086 0.6600234 0.6441786 0.6600234 0.6441786 0.9266073 0.9967899 0.3642814 0.9967899 0.003896176 0.6792672 0.003896236 0.9467485 0.9266073 0.9467485 0.9506857 0.6441786 0.9506857 0.3064444 0.7443487 0.02269703 0.7443485 0.02269703 0.6680142 0.4243447 0.06240284 0.4291676 0.05390936 0.4291676 0.5660895 0.4220893 0.4410292 0.4135958 0.4495227 0.4135958 0.1593633 0.4172047 0.4021342 0.4172047 0.1252913 0.4256982 0.1204683 0.4275277 0.06240284 0.4275277 0.557596 0.4190342 0.5660895 0.4209816 0.5573388 0.4159014 0.5660895 0.4159014 0.05390936 0.4238991 0.1847831 0.4238991 0.4611119 0.4151484 0.466192 0.4129438 0.1847831 0.4216945 0.1760326 0.4216945 0.466192 0.4102836 0.06265997 0.4190342 0.05390936 0.4190342 0.5660895 0.9491271 0.628647 0.9491271 0.9692239 0.3394322 0.9692237 0.6702671 0.6111296 0.3361406 0.6111295 0.3361406 0.01347249 0.4078413 0.557596 0.4302271 0.557596 0.4302271 0.06240284 0.4078413 0.02492016 0.4078413 0.3012489 0.4302271 0.3012489 0.4078413 0.06240284 0.4302271 0.06240284 0.4302271 0.557596 0.4078413 0.5953359 0.4302271 0.5953359 0.4302271 0.318493 0.4382406 0.2051884 0.4631924 0.2051884 0.4631924 0.5131914 0.4078413 0.06265997 0.4302271 0.06265997 0.4302271 0.5573388 0.521672 0.3348941 0.521672 0.5918012 0.4525582 0.5918012 0.9958301 0.5477444 0.9968144 0.4361222 0.6843936 0.4361222 0.6822796 0.5486125 0.6822796 0.4378069 0.9948458 0.437807 0.521672 0.07798707 0.521672 0.3348941 0.4525582 0.3348941 0.7501474 0.1862072 0.7501473 0.1636267 0.7628508 0.1636267 0.4882928 0.5 0.4882927 0.5225804 0.3877035 0.5225804 0.2591453 0.2259402 0.2795898 0.2259402 0.2795898 0.295054 0.8007829 0.02532154 0.8233634 0.02532154 0.8233634 0.309069 0.2591453 0.5174041 0.2795898 0.5174041 0.2795898 0.2604971 0.2982856 0.3095254 0.3157356 0.3095254 0.3157356 0.5288044 0.8052182 0.02542936 0.8277986 0.02542936 0.8277986 0.3091768 0.6441786 0.9266073 0.6441786 0.9506857 0.3416086 0.9506857 0.7646989 0.2471913 0.7646988 0.2697718 0.7519953 0.2697718 0.3877035 0.75 0.3877034 0.7274196 0.4882926 0.7274196 0.6768778 0.2596172 0.9904283 0.258749 0.9894439 0.2736108 0.9904283 0.258749 0.6789918 0.2578808 0.6789918 0.271868 0.8179216 0.03732419 0.8179216 0.3210717 0.8052182 0.3210717 0.6788572 0.2110562 0.9707696 0.2110562 0.9707696 0.1979871 0.6784852 0.2144144 0.9960079 0.2144144 0.9960079 0.1982798 0.9899597 0.2287566 0.682806 0.2287566 0.682806 0.2131489 0.7228486 0.2856644 0.7228486 0.3013486 0.7744999 0.3020035 0.7744999 0.1771498 0.7915476 0.1769086 0.7915476 0.194385 0.7744999 0.3020035 0.7228486 0.3013486 0.7228486 0.2856644 0.7750587 0.1937797 0.7750587 0.1775138 0.7228486 0.1778048 0.7228486 0.1934888 0.7228486 0.1778048 0.7744999 0.1771498 0.7659363 0.3022447 0.7484599 0.3022447 0.7487012 0.2836945 0.7750587 0.2842514 0.7744999 0.3020035 0.7915476 0.3022447 0.7750587 0.2842514 0.7913063 0.2836945 0.7915476 0.3022447 0.765695 0.08759903 0.765695 0.2836945 0.7487012 0.2836945 0.7228486 0.0856291 0.7750587 0.08704221 0.7744999 0.06929016 0.7913063 0.08759903 0.7913063 0.2836945 0.7750587 0.2842514 0.7744999 0.06929016 0.7750587 0.08704221 0.7228486 0.0856291 0.7744999 0.1941437 0.7744999 0.1771498 0.7228486 0.1778048 0.7228486 0.1934888 0.7228486 0.1778048 0.7750587 0.1775138 0.765695 0.08759903 0.7487012 0.08759903 0.7484599 0.06904888 0.7750587 0.08704221 0.7913063 0.08759903 0.7915476 0.06904888 0.7750587 0.08704221 0.7744999 0.06929016 0.7915476 0.06904888 0.7744999 0.1941437 0.7915476 0.194385 0.7915476 0.1769086 0.7750587 0.08704221 0.7750587 0.2842514 0.7913063 0.2836945 0.7490652 0.08704221 0.7490652 0.2842514 0.765331 0.2842514 0.7228486 0.2856644 0.7750587 0.2842514 0.7744999 0.3020035 0.7915476 0.194385 0.7915476 0.1769086 0.7744999 0.1771498 0.7228486 0.2856644 0.7228486 0.3013486 0.7744999 0.3020035 0.7228486 0.1934888 0.7228486 0.1778048 0.7750587 0.1775138 0.7744999 0.1771498 0.7228486 0.1778048 0.7228486 0.1934888 0.7487012 0.2836945 0.7484599 0.3022447 0.7659363 0.3022447 0.7750587 0.2842514 0.7913063 0.2836945 0.7915476 0.3022447 0.7915476 0.3022447 0.7913063 0.2836945 0.7750587 0.2842514 0.7487012 0.2836945 0.765695 0.2836945 0.765695 0.08759903 0.7744999 0.06929016 0.7750587 0.08704221 0.7228486 0.0856291 0.7750587 0.2842514 0.7913063 0.2836945 0.7913063 0.08759903 0.7744999 0.06929016 0.7228486 0.06994503 0.7228486 0.0856291 0.7228486 0.1778048 0.7744999 0.1771498 0.7744999 0.1941437 0.7750587 0.1775138 0.7228486 0.1778048 0.7228486 0.1934888 0.7659363 0.06904888 0.7484599 0.06904888 0.7487012 0.08759903 0.7915476 0.06904888 0.7913063 0.08759903 0.7750587 0.08704221 0.7750587 0.08704221 0.7913063 0.08759903 0.7915476 0.06904888 0.7915476 0.1769086 0.7915476 0.194385 0.7744999 0.1941437 0.7913063 0.2836945 0.7750587 0.2842514 0.7750587 0.08704221 0.765331 0.2842514 0.7490652 0.2842514 0.7490652 0.08704221 0.8185252 0.294838 0.8592076 0.294838 0.8470035 0.2208748 0.8402627 0.294838 0.7924377 0.294838 0.8040443 0.2208748 0.8436683 0.294838 0.7933821 0.294838 0.8009247 0.2208748 0.8040443 0.2208748 0.7924377 0.294838 0.8402627 0.294838 0.7900469 0.2208748 0.7778428 0.294838 0.8185252 0.294838 0.7900469 0.2663105 0.8185252 0.2870011 0.8009247 0.2328321 0.8185252 0.2870011 0.8470035 0.2663105 0.8009247 0.2328321 0.8470035 0.2208748 0.8592076 0.294838 0.8185252 0.294838 0.8040443 0.2208748 0.7924377 0.294838 0.8402627 0.294838 0.8009247 0.2208748 0.7933821 0.294838 0.8436683 0.294838 0.8040443 0.2208748 0.8375226 0.2208748 0.8402627 0.294838 0.7900469 0.2208748 0.8185252 0.2208748 0.8185252 0.294838 0.8470035 0.2663105 0.8185252 0.2870011 0.8361258 0.2328321 0.8185252 0.2870011 0.7900469 0.2663105 0.8361258 0.2328321 0.8470035 0.2208748 0.8592076 0.294838 0.8185252 0.294838 0.8040443 0.2208748 0.7924377 0.294838 0.8402627 0.294838 0.8009247 0.2208748 0.7933821 0.294838 0.8436683 0.294838 0.8040443 0.2208748 0.8375226 0.2208748 0.8402627 0.294838 0.7900469 0.2208748 0.8185252 0.2208748 0.8185252 0.294838 0.8470035 0.2663105 0.8185252 0.2870011 0.7900469 0.2663105 0.7900469 0.2663105 0.8009247 0.2328321 0.8361258 0.2328321 0.8185252 0.294838 0.8592076 0.294838 0.8470035 0.2208748 0.8402627 0.294838 0.7924377 0.294838 0.8040443 0.2208748 0.8436683 0.294838 0.7933821 0.294838 0.8009247 0.2208748 0.8040443 0.2208748 0.7924377 0.294838 0.8402627 0.294838 0.7900469 0.2208748 0.7778428 0.294838 0.8185252 0.294838 0.7900469 0.2663105 0.8185252 0.2870011 0.8470035 0.2663105 0.8470035 0.2663105 0.8361258 0.2328321 0.7900469 0.2663105</float_array>
          <technique_common>
            <accessor source="#Refrijerator_-mesh-map-0-array" count="744" stride="2">
              <param name="S" type="float"/>
              <param name="T" type="float"/>
            </accessor>
          </technique_common>
        </source>
        <vertices id="Refrijerator_-mesh-vertices">
          <input semantic="POSITION" source="#Refrijerator_-mesh-positions"/>
        </vertices>
        <triangles material="Refrijerator_-material" count="248">
          <input semantic="VERTEX" source="#Refrijerator_-mesh-vertices" offset="0"/>
          <input semantic="NORMAL" source="#Refrijerator_-mesh-normals" offset="1"/>
          <input semantic="TEXCOORD" source="#Refrijerator_-mesh-map-0" offset="2" set="0"/>
          <p>17 0 0 13 0 1 23 0 2 3 1 3 24 1 4 13 1 5 7 1 6 49 1 7 24 1 8 5 2 9 12 2 10 28 2 11 18 3 12 0 3 13 16 3 14 17 4 15 5 4 16 19 4 17 29 2 18 55 2 19 54 2 20 30 5 21 40 5 22 25 5 23 9 1 24 53 1 25 52 1 26 56 0 27 9 0 28 52 0 29 28 2 30 8 2 31 29 2 32 27 6 33 38 6 34 26 6 35 13 1 36 25 1 37 9 1 38 23 0 39 9 0 40 21 0 41 12 0 42 21 0 43 8 0 44 14 5 45 35 5 46 32 5 47 55 0 48 21 0 49 56 0 50 31 7 51 50 7 52 28 7 53 3 5 54 19 5 55 7 5 56 6 7 57 16 7 58 2 7 59 5 5 60 43 5 61 19 5 62 1 0 63 23 0 64 12 0 65 10 8 66 24 8 67 14 8 68 20 9 69 25 9 70 10 9 71 22 9 72 24 9 73 31 9 74 20 10 75 31 10 76 30 10 77 15 11 78 29 11 79 11 11 80 26 9 81 29 9 82 30 9 83 27 9 84 28 9 85 15 9 86 26 12 87 31 12 88 27 12 89 39 9 90 37 9 91 38 9 92 32 9 93 34 9 94 33 9 95 14 1 96 33 1 97 10 1 98 11 7 99 38 7 100 37 7 101 20 13 102 35 13 103 22 13 104 10 14 105 34 14 106 20 14 107 15 15 108 39 15 109 27 15 110 11 2 111 36 2 112 15 2 113 43 9 114 50 9 115 51 9 116 59 9 117 45 9 118 58 9 119 57 9 120 47 9 121 59 9 122 48 9 123 51 9 124 49 9 125 4 2 126 58 2 127 54 2 128 25 1 129 57 1 130 53 1 131 28 2 132 44 2 133 5 2 134 18 7 135 46 7 136 4 7 137 24 7 138 51 7 139 31 7 140 29 5 141 47 5 142 30 5 143 6 7 144 42 7 145 18 7 146 19 5 147 48 5 148 7 5 149 53 1 150 41 1 151 6 1 152 54 2 153 45 2 154 29 2 155 57 9 156 42 9 157 41 9 158 59 9 159 46 9 160 42 9 161 55 0 162 16 0 163 0 0 164 56 0 165 2 0 166 16 0 167 52 1 168 6 1 169 2 1 170 54 2 171 0 2 172 4 2 173 62 16 174 67 16 175 66 16 176 65 17 177 68 17 178 67 17 179 65 18 180 60 18 181 64 18 182 66 19 183 60 19 184 62 19 185 63 20 186 65 20 187 67 20 188 68 21 189 70 21 190 69 21 191 66 22 192 68 22 193 69 22 194 64 23 195 71 23 196 65 23 197 80 9 198 70 9 199 83 9 200 75 24 201 78 24 202 74 24 203 83 25 204 64 25 205 77 25 206 76 26 207 73 26 208 72 26 209 78 27 210 72 27 211 74 27 212 75 28 213 77 28 214 79 28 215 80 29 216 82 29 217 81 29 218 79 30 219 81 30 220 78 30 221 77 31 222 82 31 223 83 31 224 78 32 225 82 32 226 76 32 227 79 33 228 69 33 229 80 33 230 77 0 231 66 0 232 79 0 233 86 34 234 91 34 235 87 34 236 92 35 237 89 35 238 91 35 239 84 36 240 89 36 241 88 36 242 86 37 243 88 37 244 90 37 245 89 38 246 87 38 247 91 38 248 94 39 249 92 39 250 93 39 251 90 40 252 92 40 253 91 40 254 95 41 255 88 41 256 89 41 257 94 9 258 104 9 259 107 9 260 102 42 261 99 42 262 98 42 263 88 43 264 107 43 265 101 43 266 100 44 267 97 44 268 101 44 269 96 45 270 102 45 271 98 45 272 101 46 273 99 46 274 103 46 275 105 47 276 107 47 277 104 47 278 105 48 279 103 48 280 102 48 281 101 49 282 106 49 283 100 49 284 106 50 285 102 50 286 100 50 287 93 51 288 103 51 289 104 51 290 90 0 291 101 0 292 103 0 293 109 52 294 110 53 295 108 54 296 111 55 297 112 56 298 110 53 299 113 57 300 114 58 301 112 56 302 114 58 303 117 59 304 116 60 305 116 60 306 109 52 307 108 54 308 110 53 309 112 56 310 114 58 311 120 61 312 119 62 313 118 63 314 122 64 315 121 65 316 120 61 317 124 66 318 123 67 319 122 64 320 124 66 321 127 68 322 125 69 323 126 70 324 119 62 325 127 68 326 126 70 327 124 66 328 122 64 329 130 71 330 129 72 331 128 73 332 132 74 333 131 75 334 130 71 335 134 76 336 133 77 337 132 74 338 134 76 339 137 78 340 135 79 341 136 80 342 129 72 343 137 78 344 136 80 345 132 74 346 130 71 347 139 81 348 140 82 349 138 83 350 141 84 351 142 85 352 140 82 353 143 86 354 144 87 355 142 85 356 144 87 357 147 88 358 146 89 359 146 89 360 139 81 361 138 83 362 142 85 363 144 87 364 146 89 365 17 0 366 3 0 367 13 0 368 3 1 369 7 1 370 24 1 371 7 1 372 48 1 373 49 1 374 5 2 375 1 2 376 12 2 377 18 7 378 4 7 379 0 7 380 17 5 381 1 5 382 5 5 383 29 2 384 8 2 385 55 2 386 30 5 387 47 5 388 40 5 389 9 1 390 25 1 391 53 1 392 56 0 393 21 0 394 9 0 395 28 2 396 12 2 397 8 2 398 27 90 399 39 90 400 38 90 401 13 1 402 24 1 403 25 1 404 23 0 405 13 0 406 9 0 407 12 0 408 23 0 409 21 0 410 14 91 411 22 91 412 35 91 413 55 0 414 8 0 415 21 0 416 31 7 417 51 7 418 50 7 419 3 92 420 17 92 421 19 92 422 6 93 423 18 93 424 16 93 425 5 5 426 44 5 427 43 5 428 1 0 429 17 0 430 23 0 431 10 94 432 25 94 433 24 94 434 20 9 435 30 9 436 25 9 437 22 9 438 14 9 439 24 9 440 20 95 441 22 95 442 31 95 443 15 9 444 28 9 445 29 9 446 26 9 447 11 9 448 29 9 449 27 9 450 31 9 451 28 9 452 26 96 453 30 96 454 31 96 455 39 9 456 36 9 457 37 9 458 32 9 459 35 9 460 34 9 461 14 1 462 32 1 463 33 1 464 11 97 465 26 97 466 38 97 467 20 98 468 34 98 469 35 98 470 10 7 471 33 7 472 34 7 473 15 5 474 36 5 475 39 5 476 11 2 477 37 2 478 36 2 479 43 9 480 44 9 481 50 9 482 59 9 483 47 9 484 45 9 485 57 9 486 40 9 487 47 9 488 48 9 489 43 9 490 51 9 491 4 2 492 46 2 493 58 2 494 25 1 495 40 1 496 57 1 497 28 2 498 50 2 499 44 2 500 18 7 501 42 7 502 46 7 503 24 7 504 49 7 505 51 7 506 29 5 507 45 5 508 47 5 509 6 7 510 41 7 511 42 7 512 19 5 513 43 5 514 48 5 515 53 1 516 57 1 517 41 1 518 54 2 519 58 2 520 45 2 521 57 9 522 59 9 523 42 9 524 59 9 525 58 9 526 46 9 527 55 0 528 56 0 529 16 0 530 56 0 531 52 0 532 2 0 533 52 1 534 53 1 535 6 1 536 54 2 537 55 2 538 0 2 539 62 99 540 63 99 541 67 99 542 65 100 543 71 100 544 68 100 545 65 26 546 61 26 547 60 26 548 66 101 549 64 101 550 60 101 551 63 102 552 61 102 553 65 102 554 68 103 555 71 103 556 70 103 557 66 104 558 67 104 559 68 104 560 64 105 561 70 105 562 71 105 563 80 9 564 69 9 565 70 9 566 75 106 567 79 106 568 78 106 569 83 107 570 70 107 571 64 107 572 76 108 573 77 108 574 73 108 575 78 109 576 76 109 577 72 109 578 75 110 579 73 110 580 77 110 581 80 111 582 83 111 583 82 111 584 79 112 585 80 112 586 81 112 587 77 113 588 76 113 589 82 113 590 78 114 591 81 114 592 82 114 593 79 115 594 66 115 595 69 115 596 77 0 597 64 0 598 66 0 599 86 116 600 90 116 601 91 116 602 92 117 603 95 117 604 89 117 605 84 118 606 85 118 607 89 118 608 86 119 609 84 119 610 88 119 611 89 120 612 85 120 613 87 120 614 94 121 615 95 121 616 92 121 617 90 122 618 93 122 619 92 122 620 95 123 621 94 123 622 88 123 623 94 9 624 93 9 625 104 9 626 102 124 627 103 124 628 99 124 629 88 125 630 94 125 631 107 125 632 100 126 633 96 126 634 97 126 635 96 127 636 100 127 637 102 127 638 101 128 639 97 128 640 99 128 641 105 129 642 106 129 643 107 129 644 105 130 645 104 130 646 103 130 647 101 131 648 107 131 649 106 131 650 106 132 651 105 132 652 102 132 653 93 133 654 90 133 655 103 133 656 90 0 657 88 0 658 101 0 659 109 52 660 111 55 661 110 53 662 111 55 663 113 57 664 112 56 665 113 57 666 115 134 667 114 58 668 114 58 669 115 134 670 117 59 671 116 60 672 117 59 673 109 52 674 116 60 675 108 54 676 114 58 677 108 54 678 110 53 679 114 58 680 120 61 681 121 65 682 119 62 683 122 64 684 123 67 685 121 65 686 124 66 687 125 69 688 123 67 689 124 66 690 126 70 691 127 68 692 126 70 693 118 63 694 119 62 695 120 61 696 118 63 697 122 64 698 118 63 699 126 70 700 122 64 701 130 71 702 131 75 703 129 72 704 132 74 705 133 77 706 131 75 707 134 76 708 135 79 709 133 77 710 134 76 711 136 80 712 137 78 713 136 80 714 128 73 715 129 72 716 130 71 717 128 73 718 136 80 719 136 80 720 134 76 721 132 74 722 139 81 723 141 84 724 140 82 725 141 84 726 143 86 727 142 85 728 143 86 729 145 135 730 144 87 731 144 87 732 145 135 733 147 88 734 146 89 735 147 88 736 139 81 737 146 89 738 138 83 739 140 82 740 140 82 741 142 85 742 146 89 743</p>
        </triangles>
      </mesh>
    </geometry>
  </library_geometries>
  <library_visual_scenes>
    <visual_scene id="Scene" name="Scene">
      <node id="Refrijerator_" name="Refrijerator " type="NODE">
        <matrix sid="transform">1.19249e-8 1 0 0 -1 1.19249e-8 0 0 0 0 1 0 0 0 0 1</matrix>
        <instance_geometry url="#Refrijerator_-mesh" name="Refrijerator ">
          <bind_material>
            <technique_common>
              <instance_material symbol="Refrijerator_-material" target="#Refrijerator_-material">
                <bind_vertex_input semantic="UVMap" input_semantic="TEXCOORD" input_set="0"/>
              </instance_material>
            </technique_common>
          </bind_material>
        </instance_geometry>
      </node>
    </visual_scene>
  </library_visual_scenes>
  <scene>
    <instance_visual_scene url="#Scene"/>
  </scene>
</COLLADA>