<?xml version="1.0" encoding="utf-8"?>
<COLLADA xmlns="http://www.collada.org/2005/11/COLLADASchema" version="1.4.1" xmlns:xsi="http://www.w3.org/2001/XMLSchema-instance">
  <asset>
    <contributor>
      <author>Blender User</author>
      <authoring_tool>Blender 4.0.1 commit date:2023-11-16, commit time:16:40, hash:d0dd92834a08</authoring_tool>
    </contributor>
    <created>2023-11-28T13:54:43</created>
    <modified>2023-11-28T13:54:43</modified>
    <unit name="meter" meter="1"/>
    <up_axis>Z_UP</up_axis>
  </asset>
  <library_effects>
    <effect id="Glass-effect">
      <profile_COMMON>
        <technique sid="common">
          <lambert>
            <emission>
              <color sid="emission">0 0 0 1</color>
            </emission>
            <diffuse>
              <color sid="diffuse">0.8 0.8 0.8 1</color>
            </diffuse>
            <index_of_refraction>
              <float sid="ior">1.45</float>
            </index_of_refraction>
          </lambert>
        </technique>
      </profile_COMMON>
    </effect>
  </library_effects>
  <library_images/>
  <library_materials>
    <material id="Glass-material" name="Glass">
      <instance_effect url="#Glass-effect"/>
    </material>
  </library_materials>
  <library_geometries>
    <geometry id="Cup_Glass-mesh" name="Cup_Glass">
      <mesh>
        <source id="Cup_Glass-mesh-positions">
          <float_array id="Cup_Glass-mesh-positions-array" count="126">0 1.078023 -0.9999998 7.04272e-6 0.4076258 -0.5132012 0.8460095 0.670606 -0.9999998 0.294575 0.2657694 -0.5132012 1.054957 -0.2448511 -0.9999998 0.3673272 -0.05297917 -0.5132012 0.4694999 -0.9789907 -0.9999998 0.1634799 -0.3085957 -0.5132012 -0.4694999 -0.9789907 -0.9999998 -0.1634658 -0.3085957 -0.5132012 -1.054957 -0.2448511 -0.9999998 -0.3673132 -0.05297917 -0.5132012 -0.8460095 0.670606 -0.9999998 -0.2945609 0.2657694 -0.5132012 0.7612098 0.6083543 0.2377564 -5.04319e-6 0.974936 0.2377564 0.9492143 -0.2153474 0.2377564 0.4224374 -0.8759049 0.2377564 -0.4224474 -0.8759049 0.2377564 -0.9492244 -0.2153474 0.2377564 -0.7612199 0.6083543 0.2377564 0.8564541 0.6629521 2.82375 -5.6742e-6 1.075401 2.82375 1.067982 -0.2638131 2.82375 0.4752937 -1.007021 2.82375 -0.475305 -1.007021 2.82375 -1.067993 -0.2638131 2.82375 -0.8564655 0.6629521 2.82375 -1.14874 -0.2784043 1.553404 -0.9212191 0.7184296 1.553404 0.5112286 -1.077803 1.553404 -0.5112408 -1.077803 1.553404 0.9212069 0.7184296 1.553404 1.148728 -0.2784043 1.553404 -6.1032e-6 1.162062 1.553404 0.7010703 0.5488797 0.3574951 -6.02892e-6 0.8865002 0.3574951 0.8742219 -0.2097469 0.3574951 0.389062 -0.8181182 0.3574951 -0.3890741 -0.8181182 0.3574951 -0.8742339 -0.2097469 0.3574951 -0.7010824 0.5488797 0.3574951</float_array>
          <technique_common>
            <accessor source="#Cup_Glass-mesh-positions-array" count="42" stride="3">
              <param name="X" type="float"/>
              <param name="Y" type="float"/>
              <param name="Z" type="float"/>
            </accessor>
          </technique_common>
        </source>
        <source id="Cup_Glass-mesh-normals">
          <float_array id="Cup_Glass-mesh-normals-array" count="126">-1.72039e-6 0.9677848 -0.2517791 0.7611221 0.6207631 0.1880064 0.7614703 0.5988616 -0.2480481 0.9602789 -0.2056106 0.1886496 0.9446141 -0.2237465 -0.2400871 0.4312937 -0.8821872 0.1890276 0.418713 -0.8774278 -0.2340939 -0.4312873 -0.8821909 0.1890252 -0.4187158 -0.8774268 -0.2340928 -0.9446151 -0.223746 -0.2400834 -0.9602796 -0.2056128 0.1886441 -0.7273107 0.5796178 -0.3675085 -0.7611198 0.6207674 0.1880019 -0.7614722 0.5988606 -0.2480447 -0.973664 -0.2234966 -0.0450316 -0.2108322 0.1692645 0.9627561 -0.781876 0.6222445 -0.03849428 0.3992144 -0.8291725 -0.3912813 -0.3992151 -0.8291705 -0.3912848 -9.14354e-7 0.9324071 -0.3614099 3.98968e-6 0.9822334 0.1876638 0.7273121 0.5796203 -0.3675016 0.9013856 -0.2060152 -0.3808697 -0.9013825 -0.2060139 -0.3808779 0.4328469 -0.9000672 -0.05022889 -0.1197199 -0.247501 0.9614627 -0.4328471 -0.900067 -0.05022907 0.9736641 -0.2234966 -0.04503124 0.2108328 0.169265 0.9627559 0.2663068 -0.05966752 0.9620398 1.4067e-7 0.2692408 0.9630729 -1.63338e-7 0.9993674 -0.03556483 -0.2663061 -0.05966806 0.96204 0.1197212 -0.2475013 0.9614624 0.7818759 0.6222447 -0.03849399 0.5934916 -0.4741557 0.6503416 0 -0.7601146 0.649789 0.3290986 0.6825187 0.6525813 0.7397438 0.1679799 0.6515842 -0.3290985 0.6825187 0.6525815 -0.5934914 -0.4741557 0.6503417 -0.7397438 0.1679798 0.6515842</float_array>
          <technique_common>
            <accessor source="#Cup_Glass-mesh-normals-array" count="42" stride="3">
              <param name="X" type="float"/>
              <param name="Y" type="float"/>
              <param name="Z" type="float"/>
            </accessor>
          </technique_common>
        </source>
        <source id="Cup_Glass-mesh-map-0">
          <float_array id="Cup_Glass-mesh-map-0-array" count="480">1.005573 0.487971 0.9038625 0.6673077 0.8509892 0.487971 0.8623539 0.4873349 0.7637549 0.6702287 0.7077701 0.4873349 0.719626 0.4865459 0.6199179 0.6739192 0.5650421 0.4865459 0.5772919 0.4861964 0.4730893 0.6755777 0.4227081 0.4861964 0.3800836 0.6739208 0.2803741 0.4865458 0.4349579 0.4865458 0.2362445 0.6760317 0.1445314 0.822446 0.1824207 0.6760318 0.2362445 0.6702308 0.1376461 0.4873349 0.2922299 0.4873349 0.09613519 0.6673088 -0.005572974 0.4879708 0.1490108 0.4879709 0.9530422 0.4109454 0.86268 0.01504224 0.4968104 0.1912357 0.3010509 0.9933726 0.1392577 1.156719 0.1327257 0.993373 0.4730893 0.6816991 0.5695443 0.8246082 0.4304541 0.8246083 0.09613519 0.6729142 0.001791 0.821313 0.04231137 0.6729141 0.7637549 0.6760293 0.8554691 0.8224442 0.7163788 0.8224439 0.3800836 0.679948 0.2874293 0.8239262 0.3262598 0.6799479 0.9038625 0.6729129 0.9982106 0.8213119 0.8591202 0.8213121 0.619918 0.6799461 0.7125698 0.8239251 0.5734798 0.8239248 0.5841616 0.984164 0.4217523 1.136182 0.4158364 0.9841642 0.6989495 0.9933766 0.8607431 1.156728 0.7042494 1.156728 0.1567501 0.9988324 -0.005384981 1.168742 -0.01157498 0.9988323 0.4433914 0.9869126 0.2814764 1.142349 0.2750665 0.9869127 0.5566074 0.9869156 0.7185227 1.142356 0.5620293 1.142356 0.8432515 0.9988343 1.005387 1.168747 0.8488932 1.168747 0.8591201 0.82169 1.011577 0.998834 0.8432516 0.9988343 0.5734797 0.8243548 0.7249324 0.9869161 0.5566073 0.9869156 0.4265193 0.8243564 0.2750665 0.9869129 0.2874293 0.8243564 0.1408811 0.8216909 -0.01157498 0.9988324 0.001791 0.821691 0.7163788 0.8228451 0.8672751 0.9933769 0.6989495 0.9933765 0.4304542 0.8250514 0.5841615 0.984164 0.4158364 0.9841642 0.2836214 0.8228468 0.1327257 0.993373 0.1445314 0.8228471 -0.005384981 1.168742 0.1362094 1.169652 0.00810796 1.169652 0.2814764 1.142349 0.4225069 1.143187 0.2944056 1.143187 0.7185227 1.142356 0.5774919 1.143194 0.5620293 1.142356 1.005387 1.168747 0.8637921 1.169656 0.8488932 1.168747 0.1392577 1.156719 0.2799755 1.157597 0.151874 1.157597 0.4217523 1.136182 0.5640498 1.137001 0.4359483 1.137001 0.8607431 1.156728 0.720025 1.157606 0.7042494 1.156728 0.6956921 1.156414 0.07388734 1.167328 0.294719 1.144044 1.005573 0.487971 0.9576864 0.6673078 0.9038625 0.6673077 0.8623539 0.4873349 0.8175787 0.6702287 0.7637549 0.6702287 0.719626 0.4865459 0.6737417 0.6739193 0.6199179 0.6739192 0.5772919 0.4861964 0.5269131 0.6755775 0.4730893 0.6755777 0.3800836 0.6739208 0.3262598 0.6739208 0.2803741 0.4865458 0.2362445 0.6760317 0.2836214 0.8224457 0.1445314 0.822446 0.2362445 0.6702308 0.1824207 0.6702308 0.1376461 0.4873349 0.09613519 0.6673088 0.04231142 0.6673088 -0.005572974 0.4879708 0.5469576 0.4109454 0.75 0.5087255 0.9530422 0.4109454 0.9530422 0.4109454 1.00319 0.1912357 0.86268 0.01504224 0.86268 0.01504224 0.63732 0.01504218 0.4968104 0.1912357 0.4968104 0.1912357 0.5469576 0.4109454 0.9530422 0.4109454 0.3010509 0.9933726 0.295751 1.156718 0.1392577 1.156719 0.4730893 0.6816991 0.5269132 0.681699 0.5695443 0.8246082 0.09613519 0.6729142 0.1408811 0.8213129 0.001791 0.821313 0.7637549 0.6760293 0.8175787 0.6760293 0.8554691 0.8224442 0.3800836 0.679948 0.4265192 0.8239262 0.2874293 0.8239262 0.9038625 0.6729129 0.9576864 0.6729128 0.9982106 0.8213119 0.619918 0.6799461 0.6737417 0.6799461 0.7125698 0.8239251 0.5841616 0.984164 0.5782458 1.136182 0.4217523 1.136182 0.6989495 0.9933766 0.8672751 0.9933769 0.8607431 1.156728 0.1567501 0.9988324 0.1511083 1.168742 -0.005384981 1.168742 0.4433914 0.9869126 0.4379696 1.142348 0.2814764 1.142349 0.5566074 0.9869156 0.7249324 0.986916 0.7185227 1.142356 0.8432515 0.9988343 1.011577 0.998834 1.005387 1.168747 0.8591201 0.82169 0.9982106 0.82169 1.011577 0.998834 0.5734797 0.8243548 0.7125697 0.8243553 0.7249324 0.9869161 0.4265193 0.8243564 0.4433915 0.9869126 0.2750665 0.9869129 0.1408811 0.8216909 0.1567501 0.9988322 -0.01157498 0.9988324 0.7163788 0.8228451 0.855469 0.8228452 0.8672751 0.9933769 0.4304542 0.8250514 0.5695443 0.8250511 0.5841615 0.984164 0.2836214 0.8228468 0.3010509 0.9933726 0.1327257 0.993373 -0.005384981 1.168742 0.1511083 1.168742 0.1362094 1.169652 0.2814764 1.142349 0.4379696 1.142348 0.4225069 1.143187 0.7185227 1.142356 0.7055934 1.143194 0.5774919 1.143194 1.005387 1.168747 0.9918938 1.169656 0.8637921 1.169656 0.1392577 1.156719 0.295751 1.156718 0.2799755 1.157597 0.4217523 1.136182 0.5782458 1.136182 0.5640498 1.137001 0.8607431 1.156728 0.8481269 1.157607 0.720025 1.157606 0.6956921 1.156414 0.7790568 1.157745 0.07388734 1.167328 0.07388734 1.167328 0.1616613 1.15704 0.294719 1.144044 0.294719 1.144044 0.4286644 1.138431 0.5626243 1.144019 0.5626243 1.144019 0.6956921 1.156414 0.294719 1.144044</float_array>
          <technique_common>
            <accessor source="#Cup_Glass-mesh-map-0-array" count="240" stride="2">
              <param name="S" type="float"/>
              <param name="T" type="float"/>
            </accessor>
          </technique_common>
        </source>
        <vertices id="Cup_Glass-mesh-vertices">
          <input semantic="POSITION" source="#Cup_Glass-mesh-positions"/>
        </vertices>
        <triangles material="Glass-material" count="80">
          <input semantic="VERTEX" source="#Cup_Glass-mesh-vertices" offset="0"/>
          <input semantic="NORMAL" source="#Cup_Glass-mesh-normals" offset="1"/>
          <input semantic="TEXCOORD" source="#Cup_Glass-mesh-map-0" offset="2" set="0"/>
          <p>0 0 0 3 1 1 2 2 2 2 2 3 5 3 4 4 4 5 4 4 6 7 5 7 6 6 8 6 6 9 9 7 10 8 8 11 9 7 12 10 9 13 8 8 14 11 10 15 20 11 16 13 12 17 11 10 18 12 13 19 10 9 20 13 12 21 0 0 22 12 13 23 2 2 24 6 6 25 10 9 26 28 14 27 27 15 28 29 16 29 9 7 30 17 17 31 18 18 32 13 12 33 15 19 34 1 20 35 5 3 36 14 21 37 16 22 38 9 7 39 19 23 40 11 10 41 3 1 42 15 19 43 14 21 44 7 5 45 16 22 46 17 17 47 30 24 48 25 25 49 31 26 50 33 27 51 21 28 52 23 29 53 29 16 54 22 30 55 34 31 56 31 26 57 26 32 58 28 14 59 30 24 60 23 29 61 24 33 62 32 34 63 22 30 64 21 28 65 14 21 66 34 31 67 32 34 68 17 17 69 33 27 70 30 24 71 18 18 72 28 14 73 19 23 74 20 11 75 34 31 76 15 19 77 16 22 78 32 34 79 33 27 80 18 18 81 30 24 82 31 26 83 19 23 84 29 16 85 20 11 86 22 30 87 41 35 88 36 36 89 26 32 90 39 37 91 40 38 92 23 29 93 38 39 94 24 33 95 22 30 96 35 40 97 21 28 98 27 15 99 40 38 100 41 35 101 25 25 102 38 39 103 39 37 104 21 28 105 37 41 106 23 29 107 37 41 108 36 36 109 40 38 110 0 0 111 1 20 112 3 1 113 2 2 114 3 1 115 5 3 116 4 4 117 5 3 118 7 5 119 6 6 120 7 5 121 9 7 122 9 7 123 11 10 124 10 9 125 11 10 126 19 23 127 20 11 128 11 10 129 13 12 130 12 13 131 13 12 132 1 20 133 0 0 134 12 13 135 0 0 136 2 2 137 2 2 138 4 4 139 6 6 140 6 6 141 8 8 142 10 9 143 10 9 144 12 13 145 2 2 146 28 14 147 26 32 148 27 15 149 9 7 150 7 5 151 17 17 152 13 12 153 20 11 154 15 19 155 5 3 156 3 1 157 14 21 158 9 7 159 18 18 160 19 23 161 3 1 162 1 20 163 15 19 164 7 5 165 5 3 166 16 22 167 30 24 168 24 33 169 25 25 170 33 27 171 32 34 172 21 28 173 29 16 174 27 15 175 22 30 176 31 26 177 25 25 178 26 32 179 30 24 180 33 27 181 23 29 182 32 34 183 34 31 184 22 30 185 14 21 186 15 19 187 34 31 188 17 17 189 16 22 190 33 27 191 18 18 192 31 26 193 28 14 194 20 11 195 29 16 196 34 31 197 16 22 198 14 21 199 32 34 200 18 18 201 17 17 202 30 24 203 19 23 204 28 14 205 29 16 206 22 30 207 27 15 208 41 35 209 26 32 210 25 25 211 39 37 212 23 29 213 37 41 214 38 39 215 22 30 216 36 36 217 35 40 218 27 15 219 26 32 220 40 38 221 25 25 222 24 33 223 38 39 224 21 28 225 35 40 226 37 41 227 37 41 228 35 40 229 36 36 230 36 36 231 41 35 232 40 38 233 40 38 234 39 37 235 38 39 236 38 39 237 37 41 238 40 38 239</p>
        </triangles>
      </mesh>
    </geometry>
  </library_geometries>
  <library_visual_scenes>
    <visual_scene id="Scene" name="Scene">
      <node id="Cup_Glass" name="Cup_Glass" type="NODE">
        <matrix sid="transform">-0.07257812 2.3649e-8 0 0 -2.3649e-8 -0.07257812 0 0 0 0 0.08307212 0 0 0 0 1</matrix>
        <instance_geometry url="#Cup_Glass-mesh" name="Cup_Glass">
          <bind_material>
            <technique_common>
              <instance_material symbol="Glass-material" target="#Glass-material">
                <bind_vertex_input semantic="UVMap" input_semantic="TEXCOORD" input_set="0"/>
              </instance_material>
            </technique_common>
          </bind_material>
        </instance_geometry>
      </node>
    </visual_scene>
  </library_visual_scenes>
  <scene>
    <instance_visual_scene url="#Scene"/>
  </scene>
</COLLADA>