<?xml version="1.0" encoding="utf-8"?>
<COLLADA xmlns="http://www.collada.org/2005/11/COLLADASchema" version="1.4.1" xmlns:xsi="http://www.w3.org/2001/XMLSchema-instance">
  <asset>
    <contributor>
      <author>Blender User</author>
      <authoring_tool>Blender 4.0.1 commit date:2023-11-16, commit time:16:40, hash:d0dd92834a08</authoring_tool>
    </contributor>
    <created>2023-11-28T13:42:44</created>
    <modified>2023-11-28T13:42:44</modified>
    <unit name="meter" meter="1"/>
    <up_axis>Z_UP</up_axis>
  </asset>
  <library_effects>
    <effect id="Cupcakes-effect">
      <profile_COMMON>
        <newparam sid="Cupcakes-surface">
          <surface type="2D">
            <init_from>Cupcakes</init_from>
          </surface>
        </newparam>
        <newparam sid="Cupcakes-sampler">
          <sampler2D>
            <source>Cupcakes-surface</source>
          </sampler2D>
        </newparam>
        <technique sid="common">
          <lambert>
            <emission>
              <color sid="emission">0 0 0 1</color>
            </emission>
            <diffuse>
              <texture texture="Cupcakes-sampler" texcoord="UVMap"/>
            </diffuse>
            <index_of_refraction>
              <float sid="ior">1.45</float>
            </index_of_refraction>
          </lambert>
        </technique>
      </profile_COMMON>
    </effect>
  </library_effects>
  <library_images>
    <image id="Cupcakes" name="Cupcakes">
      <init_from>Cupcakes.png</init_from>
    </image>
  </library_images>
  <library_materials>
    <material id="Cupcakes-material" name="Cupcakes">
      <instance_effect url="#Cupcakes-effect"/>
    </material>
  </library_materials>
  <library_geometries>
    <geometry id="Cupcake_03-mesh" name="Cupcake_03">
      <mesh>
        <source id="Cupcake_03-mesh-positions">
          <float_array id="Cupcake_03-mesh-positions-array" count="105">0 0.1628358 -0.08461976 0 0.1382674 0.09244966 0.1273102 0.1015264 -0.08461976 0.1081019 0.08620834 0.09244966 0.1587532 -0.03623437 -0.08461976 0.1348008 -0.03076738 0.09244966 0.07065182 -0.14671 -0.08461976 0.05999195 -0.1245747 0.09244966 -0.07065182 -0.14671 -0.08461976 -0.05999195 -0.1245747 0.09244966 -0.1587532 -0.03623437 -0.08461976 -0.1348008 -0.03076738 0.09244966 -0.1273102 0.1015264 -0.08461976 -0.1081019 0.08620834 0.09244966 -0.02897393 0.02177685 0.07160264 -0.03565526 0.05413323 0.1340138 -0.05650973 0.001040339 0.2245963 -0.09691709 -0.03647458 0.1378309 -0.06969696 -0.03845363 0.07413995 0.01079106 -0.04241693 0.1563333 0.001900672 -0.04240375 0.08643925 0.04091978 0.09016293 0.07481199 0.03742212 0.1004374 0.1375629 -0.002546012 0.03713583 0.1985092 -0.0385555 0.04233109 0.1132387 -0.00958544 0.05153745 0.0586428 0.05085986 0.003152072 0.1277849 0.04985231 0.02549362 0.06831222 0.0100938 0.01730436 0.06982702 -0.01404839 0.02770787 0.1278305 0.006401896 -0.02855122 0.2035648 0.003068983 -0.06919956 0.1203101 0.02147239 -0.04711365 0.06482803 0.07675462 -0.007709443 0.1433557 0.07045406 -0.006238877 0.08014726</float_array>
          <technique_common>
            <accessor source="#Cupcake_03-mesh-positions-array" count="35" stride="3">
              <param name="X" type="float"/>
              <param name="Y" type="float"/>
              <param name="Z" type="float"/>
            </accessor>
          </technique_common>
        </source>
        <source id="Cupcake_03-mesh-normals">
          <float_array id="Cupcake_03-mesh-normals-array" count="105">0 0.7401649 0.6724254 0.6429792 0.5127588 -0.5689079 0 0.8224014 -0.5689078 0.5786844 0.4614854 0.6724252 0.801782 -0.1830015 -0.5689079 0.3211456 -0.6668656 0.6724253 0.3568266 -0.7409579 -0.568908 -0.3568266 -0.7409579 -0.5689079 -0.3211456 -0.6668657 0.6724253 -0.801782 -0.1830015 -0.5689079 -0.7216075 -0.1647021 0.6724254 -0.642979 0.5127589 -0.568908 -0.1833312 0.1185927 0.9758716 0.06650543 0.9977861 -3.27578e-4 -0.90661 -0.4174004 0.06192898 0.7933157 -0.5037355 0.3419079 0.1034583 0.8875018 -0.44904 0.8075155 -0.5808151 -0.1028237 -0.8154729 -0.4728282 -0.3338229 -0.2444593 -0.1469311 0.9584628 0.3431725 0.8784166 0.3325915 -0.9885325 -0.1239159 -0.08630406 0.5797041 -0.7990828 0.1594045 0.3947769 0.9099591 -0.1269878 0.6184873 -0.7320961 -0.2854975 -0.8754315 -0.07595819 -0.4773363 -0.206027 -0.1506091 0.9668866 -0.6458026 0.7581893 0.08993357 -0.361017 -0.9317497 -0.03885209 0.9232918 0.1510599 0.3531475 -0.5463443 0.7549065 -0.3628006 0.9833462 0.1552992 -0.0944066 -0.2602984 -0.8642957 -0.4303926 0.7216076 -0.1647022 0.6724253 -0.5786845 0.4614854 0.6724252</float_array>
          <technique_common>
            <accessor source="#Cupcake_03-mesh-normals-array" count="35" stride="3">
              <param name="X" type="float"/>
              <param name="Y" type="float"/>
              <param name="Z" type="float"/>
            </accessor>
          </technique_common>
        </source>
        <source id="Cupcake_03-mesh-map-0">
          <float_array id="Cupcake_03-mesh-map-0-array" count="306">0.4342034 0.8367171 0.3639072 0.9344887 0.4342034 0.9344887 0.6040794 0.8398216 0.671688 0.9375932 0.5956212 0.9375932 0.671688 0.9375932 0.7204664 0.8398216 0.7326888 0.9375932 0.9379165 0.5479643 0.8657796 0.4501927 0.9438025 0.4501927 0.9406979 0.4208712 0.8429263 0.3720927 0.8429263 0.4330936 0.9406979 0.3690741 0.8429263 0.296026 0.8429263 0.3720927 0.5044996 0.9344887 0.4342034 0.8367171 0.4342034 0.9344887 0.545175 0.3570305 0.6061758 0.2303611 0.4691083 0.1990763 0.8212062 0.2646731 0.792461 0.204983 0.8857961 0.1305508 0.01094561 0.2003106 0.06053996 0.2324419 0.01094561 0.2491483 0.8925803 0.5834056 0.9453271 0.5693749 0.9275431 0.6271319 0.01094561 0.2491483 0.06037229 0.2714145 0.06053996 0.2324419 0.01094561 0.2003106 0.01094561 0.2491483 0.06053996 0.2324419 0.9453271 0.5693749 0.9661316 0.6271319 0.9275431 0.6271319 0.01094561 0.2491483 0.06037229 0.2714145 0.02740502 0.2825198 0.01094561 0.2003106 0.06053996 0.2324419 0.01094561 0.2491483 0.8925803 0.5834056 0.9453271 0.5693749 0.9275431 0.6271319 0.01094561 0.2491483 0.06037229 0.2714145 0.06053996 0.2324419 0.01094561 0.2003106 0.01094561 0.2491483 0.06053996 0.2324419 0.9453271 0.5693749 0.9661316 0.6271319 0.9275431 0.6271319 0.01094561 0.2491483 0.06037229 0.2714145 0.02740502 0.2825198 0.01094561 0.2003106 0.06053996 0.2324419 0.01094561 0.2491483 0.8925803 0.5834056 0.9453271 0.5693749 0.9275431 0.6271319 0.01094561 0.2491483 0.06037229 0.2714145 0.06053996 0.2324419 0.01094561 0.2003106 0.01094561 0.2491483 0.06053996 0.2324419 0.9453271 0.5693749 0.9661316 0.6271319 0.9275431 0.6271319 0.01094561 0.2491483 0.06037229 0.2714145 0.02740502 0.2825198 0.4342034 0.8367171 0.3745133 0.8367171 0.3639072 0.9344887 0.6040794 0.8398216 0.6686693 0.8398216 0.671688 0.9375932 0.671688 0.9375932 0.6686693 0.8398216 0.7204664 0.8398216 0.9379165 0.5479643 0.8716655 0.5479643 0.8657796 0.4501927 0.9406979 0.4208712 0.9406979 0.3690741 0.8429263 0.3720927 0.9406979 0.3690741 0.9406979 0.3044841 0.8429263 0.296026 0.5044996 0.9344887 0.4938935 0.8367171 0.4342034 0.8367171 0.4352554 0.2693726 0.4691083 0.3396688 0.4691083 0.1990763 0.4691083 0.3396688 0.545175 0.3570305 0.4691083 0.1990763 0.545175 0.3570305 0.6061758 0.308384 0.6061758 0.2303611 0.6061758 0.2303611 0.545175 0.1817145 0.4691083 0.1990763 0.792461 0.204983 0.8212062 0.1452929 0.8857961 0.1305508 0.8857961 0.1305508 0.9375933 0.1718575 0.9375933 0.2381085 0.9375933 0.2381085 0.8857962 0.2794153 0.8857961 0.1305508 0.8857962 0.2794153 0.8212062 0.2646731 0.8857961 0.1305508 0.01094561 0.2491483 0.02740502 0.2825198 0.06037229 0.2714145 0.9453271 0.5693749 0.9779533 0.5887386 0.9661316 0.6271319 0.01094561 0.2491483 0.06053996 0.2324419 0.06037229 0.2714145 0.01094561 0.2491483 0.02740502 0.2825198 0.06037229 0.2714145 0.9453271 0.5693749 0.9779533 0.5887386 0.9661316 0.6271319 0.01094561 0.2491483 0.06053996 0.2324419 0.06037229 0.2714145 0.01094561 0.2491483 0.02740502 0.2825198 0.06037229 0.2714145 0.9453271 0.5693749 0.9779533 0.5887386 0.9661316 0.6271319 0.01094561 0.2491483 0.06053996 0.2324419 0.06037229 0.2714145</float_array>
          <technique_common>
            <accessor source="#Cupcake_03-mesh-map-0-array" count="153" stride="2">
              <param name="S" type="float"/>
              <param name="T" type="float"/>
            </accessor>
          </technique_common>
        </source>
        <vertices id="Cupcake_03-mesh-vertices">
          <input semantic="POSITION" source="#Cupcake_03-mesh-positions"/>
        </vertices>
        <triangles material="Cupcakes-material" count="51">
          <input semantic="VERTEX" source="#Cupcake_03-mesh-vertices" offset="0"/>
          <input semantic="NORMAL" source="#Cupcake_03-mesh-normals" offset="1"/>
          <input semantic="TEXCOORD" source="#Cupcake_03-mesh-map-0" offset="2" set="0"/>
          <p>1 0 0 2 1 1 0 2 2 3 3 3 4 4 4 2 1 5 4 4 6 7 5 7 6 6 8 7 5 9 8 7 10 6 6 11 9 8 12 10 9 13 8 7 14 11 10 15 12 11 16 10 9 17 12 11 18 1 0 19 0 2 20 2 1 21 6 6 22 10 9 23 3 3 24 1 0 25 11 10 26 16 12 27 15 13 28 17 14 29 16 12 30 17 14 31 19 15 32 19 15 33 14 16 34 15 13 35 16 12 36 19 15 37 15 13 38 17 14 39 20 17 40 19 15 41 17 14 42 14 16 43 18 18 44 23 19 45 22 20 46 24 21 47 23 19 48 24 21 49 26 22 50 26 22 51 21 23 52 22 20 53 23 19 54 26 22 55 22 20 56 24 21 57 27 24 58 26 22 59 24 21 60 21 23 61 25 25 62 30 26 63 29 27 64 31 28 65 30 26 66 31 28 67 33 29 68 33 29 69 28 30 70 29 27 71 30 26 72 33 29 73 29 27 74 31 28 75 34 31 76 33 29 77 31 28 78 28 30 79 32 32 80 1 0 81 3 3 82 2 1 83 3 3 84 5 33 85 4 4 86 4 4 87 5 33 88 7 5 89 7 5 90 9 8 91 8 7 92 9 8 93 11 10 94 10 9 95 11 10 96 13 34 97 12 11 98 12 11 99 13 34 100 1 0 101 12 11 102 0 2 103 10 9 104 0 2 105 2 1 106 10 9 107 2 1 108 4 4 109 6 6 110 6 6 111 8 7 112 10 9 113 1 0 114 13 34 115 11 10 116 11 10 117 9 8 118 7 5 119 7 5 120 5 33 121 11 10 122 5 33 123 3 3 124 11 10 125 19 15 126 20 17 127 14 16 128 17 14 129 18 18 130 20 17 131 17 14 132 15 13 133 14 16 134 26 22 135 27 24 136 21 23 137 24 21 138 25 25 139 27 24 140 24 21 141 22 20 142 21 23 143 33 29 144 34 31 145 28 30 146 31 28 147 32 32 148 34 31 149 31 28 150 29 27 151 28 30 152</p>
        </triangles>
      </mesh>
    </geometry>
  </library_geometries>
  <library_visual_scenes>
    <visual_scene id="Scene" name="Scene">
      <node id="Cupcake_03" name="Cupcake_03" type="NODE">
        <matrix sid="transform">-0.3842145 1.25193e-7 0 0 -1.25193e-7 -0.3842145 0 0 0 0 0.3842145 0 0 0 0 1</matrix>
        <instance_geometry url="#Cupcake_03-mesh" name="Cupcake_03">
          <bind_material>
            <technique_common>
              <instance_material symbol="Cupcakes-material" target="#Cupcakes-material">
                <bind_vertex_input semantic="UVMap" input_semantic="TEXCOORD" input_set="0"/>
              </instance_material>
            </technique_common>
          </bind_material>
        </instance_geometry>
      </node>
    </visual_scene>
  </library_visual_scenes>
  <scene>
    <instance_visual_scene url="#Scene"/>
  </scene>
</COLLADA>