<?xml version="1.0" encoding="utf-8"?>
<COLLADA xmlns="http://www.collada.org/2005/11/COLLADASchema" version="1.4.1" xmlns:xsi="http://www.w3.org/2001/XMLSchema-instance">
  <asset>
    <contributor>
      <author>Blender User</author>
      <authoring_tool>Blender 4.0.1 commit date:2023-11-16, commit time:16:40, hash:d0dd92834a08</authoring_tool>
    </contributor>
    <created>2023-11-28T13:15:20</created>
    <modified>2023-11-28T13:15:20</modified>
    <unit name="meter" meter="1"/>
    <up_axis>Z_UP</up_axis>
  </asset>
  <library_effects>
    <effect id="Garbage_bag-effect">
      <profile_COMMON>
        <newparam sid="Garbage_bag-surface">
          <surface type="2D">
            <init_from>Garbage_bag</init_from>
          </surface>
        </newparam>
        <newparam sid="Garbage_bag-sampler">
          <sampler2D>
            <source>Garbage_bag-surface</source>
          </sampler2D>
        </newparam>
        <technique sid="common">
          <lambert>
            <emission>
              <color sid="emission">0 0 0 1</color>
            </emission>
            <diffuse>
              <texture texture="Garbage_bag-sampler" texcoord="UVMap"/>
            </diffuse>
            <index_of_refraction>
              <float sid="ior">1.45</float>
            </index_of_refraction>
          </lambert>
        </technique>
      </profile_COMMON>
    </effect>
  </library_effects>
  <library_images>
    <image id="Garbage_bag" name="Garbage_bag">
      <init_from>Garbage_bag.png</init_from>
    </image>
  </library_images>
  <library_materials>
    <material id="Garbage_bag-material" name="Garbage_bag">
      <instance_effect url="#Garbage_bag-effect"/>
    </material>
  </library_materials>
  <library_geometries>
    <geometry id="Garbage_bag_01-mesh" name="Garbage_bag_01">
      <mesh>
        <source id="Garbage_bag_01-mesh-positions">
          <float_array id="Garbage_bag_01-mesh-positions-array" count="105">0.03232598 0.2056658 -0.2497178 0.08152776 0.3451684 -0.06839776 0.2495251 0.02861756 -0.2497178 0.4061521 0.02538144 -0.06845146 0.1842299 -0.172905 -0.2497178 0.268621 -0.294254 -0.06857258 -0.05643683 -0.2395933 -0.2497178 -0.1335792 -0.3638088 -0.06842821 -0.1949281 -0.08523976 -0.2497178 -0.3342069 -0.08922594 -0.06827855 -0.176196 0.1199774 -0.2497178 -0.2714157 0.2382627 -0.06840848 0.3632715 -0.06516575 0.1355195 0.153318 0.2285843 0.1697124 0.2139372 -0.298305 0.1320936 -0.1105875 -0.2997044 0.1595929 -0.2296861 -0.05887395 0.185424 -0.1391785 0.1929356 0.1918191 0.2365942 -0.09799635 0.2316846 0.1478217 0.04544144 0.2599363 0.1594516 -0.2015403 0.2319074 0.009001314 -0.1941743 0.2546564 -0.03941649 -0.07898908 0.2740048 0.01197075 0.03578978 0.2787396 0.09464311 -0.08707642 0.3036019 0.1680855 -0.02716386 0.3009488 0.0550031 -0.05399084 0.2794449 0.1729551 -0.06818228 0.2791079 0.1639996 -0.06704324 0.3249527 0.2299051 -0.06107753 0.2533256 -0.02903831 -0.01817691 0.3079131 0.07977223 -0.05528175 0.2804685 -0.03877711 -0.05896341 0.287301 -0.02702891 -0.0578522 0.3325115 -0.1199799 -0.04548615 0.2652848</float_array>
          <technique_common>
            <accessor source="#Garbage_bag_01-mesh-positions-array" count="35" stride="3">
              <param name="X" type="float"/>
              <param name="Y" type="float"/>
              <param name="Z" type="float"/>
            </accessor>
          </technique_common>
        </source>
        <source id="Garbage_bag_01-mesh-normals">
          <float_array id="Garbage_bag_01-mesh-normals-array" count="105">0.2081498 0.9678277 -0.1413624 0.5039824 0.1771647 -0.8453488 0.07277846 0.5219168 -0.849886 0.9583007 0.2071834 -0.196812 0.357877 -0.3749728 -0.8551722 0.6082681 -0.7533179 -0.2500443 -0.1368001 -0.5201047 -0.8430759 -0.3923476 -0.9027974 -0.1761262 -0.496088 -0.1709961 -0.8512679 0.8754993 -0.04788464 0.4808411 0.4395629 -0.7889124 0.4294203 -0.9727973 -0.2019129 -0.113563 -0.4325008 0.3002076 -0.8501874 -0.7443785 0.659364 -0.1055461 0.35533 0.3128863 0.8808194 0.5584288 -0.1332074 0.8187875 -0.7385621 -0.08221226 0.6691541 -0.4317666 0.5809837 0.6899533 0.3843163 0.7105555 0.5894167 -0.3955942 -0.7257708 0.562816 -0.1300486 0.2697064 0.9541205 -0.3467431 -0.09221315 0.9334163 0.1311245 -0.1072061 0.9855523 0.3058217 -0.5198506 0.7976393 -0.1296427 -0.4898939 0.8620886 -0.9813175 7.8584e-4 -0.192394 0.190512 0.9741173 0.1216584 -0.1500976 -0.6487965 -0.746012 0.1303409 -0.4251258 0.8957004 0.8021669 -0.07936733 -0.5918016 0.9643428 -0.08945381 -0.2490803 0.03007197 -0.6388659 -0.7687302 -0.03183525 0.9944556 0.1002222 -0.05945056 -0.4045544 0.9125795 -0.9033465 5.00527e-4 -0.4289112</float_array>
          <technique_common>
            <accessor source="#Garbage_bag_01-mesh-normals-array" count="35" stride="3">
              <param name="X" type="float"/>
              <param name="Y" type="float"/>
              <param name="Z" type="float"/>
            </accessor>
          </technique_common>
        </source>
        <source id="Garbage_bag_01-mesh-map-0">
          <float_array id="Garbage_bag_01-mesh-map-0-array" count="348">0.3342236 0.1763002 0.238812 0.0878992 0.238812 0.2021905 0.5995034 0.1732525 0.6872138 0.0623852 0.6947658 0.1681581 0.4497025 0.8100787 0.2873145 0.7006571 0.4135023 0.71135 0.3682736 0.3729835 0.4673599 0.5170987 0.4652978 0.4359033 0.5875887 0.005481243 0.4890521 0.1333708 0.4821135 0.01087492 0.3718631 0.5174257 0.4701015 0.6250502 0.4673599 0.5170987 0.3342179 0.3620209 0.238812 0.2021905 0.238812 0.3119158 0.2201182 0.5570749 0.2044414 0.4266012 0.1016165 0.3900673 0.8822476 0.6613882 0.8107572 0.5558916 0.8913319 0.5931296 0.3763065 0.6896947 0.238812 0.5367813 0.238812 0.6693274 0.5995034 0.1732525 0.4821135 0.2888325 0.4890521 0.1333708 0.238812 0.7922846 0.4121147 0.9128636 0.2407362 0.9128636 0.3342236 0.1763002 0.471151 0.292437 0.4595183 0.1385239 0.3718631 0.5174257 0.2491827 0.4097508 0.238812 0.5367813 0.8071502 0.4843168 0.8638324 0.4501682 0.8765912 0.5196781 0.7154443 0.5704217 0.8071502 0.4843168 0.8107572 0.5558916 0.97459 0.3989417 0.8638324 0.4501682 0.8412126 0.3520634 0.9945187 0.568543 0.8913319 0.5931296 0.9405061 0.5462432 0.8412126 0.3520634 0.8071502 0.4843168 0.7154443 0.4153696 0.9945187 0.568543 0.9270806 0.4681259 0.97459 0.3989417 0.9270806 0.4681259 0.9405061 0.5462432 0.8765912 0.5196781 0.8913319 0.5931296 0.8107572 0.5558916 0.8765912 0.5196781 0.8107572 0.5558916 0.8071502 0.4843168 0.8765912 0.5196781 0.8638324 0.4501682 0.9270806 0.4681259 0.8765912 0.5196781 0.9405061 0.5462432 0.8913319 0.5931296 0.8765912 0.5196781 0.5666072 0.4238857 0.5976148 0.527895 0.5791581 0.5278601 0.5666072 0.4238857 0.5791581 0.5278601 0.5541784 0.5285499 0.535752 0.5285499 0.5541784 0.5285499 0.5517854 0.5702705 0.5666072 0.4238857 0.5541784 0.5285499 0.535752 0.5285499 0.5541784 0.5285499 0.5791581 0.5278601 0.5517854 0.5702705 0.5791581 0.5278601 0.5976148 0.527895 0.5517854 0.5702705 0.4290731 0.4987204 0.4416239 0.6026948 0.4600806 0.6027297 0.4290731 0.4987204 0.4166443 0.6033846 0.4416239 0.6026948 0.3982179 0.6033846 0.4032156 0.6633947 0.4166443 0.6033846 0.4290731 0.4987204 0.3982179 0.6033846 0.4166443 0.6033846 0.4166443 0.6033846 0.4032156 0.6633947 0.4416239 0.6026948 0.4416239 0.6026948 0.4032156 0.6633947 0.4600806 0.6027297 0.3342236 0.1763002 0.3341953 0.005481243 0.238812 0.0878992 0.5995034 0.1732525 0.5875887 0.005481243 0.6872138 0.0623852 0.4497025 0.8100787 0.238812 0.7922846 0.2873145 0.7006571 0.3682736 0.3729835 0.3718631 0.5174257 0.4673599 0.5170987 0.5875887 0.005481243 0.5995034 0.1732525 0.4890521 0.1333708 0.3718631 0.5174257 0.3763065 0.6896947 0.4701015 0.6250502 0.3342179 0.3620209 0.3342236 0.1763002 0.238812 0.2021905 0.005481243 0.4402292 0.005481243 0.5588577 0.1016165 0.3900673 0.005481243 0.5588577 0.135094 0.6291607 0.2201182 0.5570749 0.1016165 0.3900673 0.005481243 0.5588577 0.2201182 0.5570749 0.8822476 0.6613882 0.7154443 0.5704217 0.8107572 0.5558916 0.3763065 0.6896947 0.3718631 0.5174257 0.238812 0.5367813 0.5995034 0.1732525 0.6114591 0.3411008 0.4821135 0.2888325 0.238812 0.7922846 0.4497025 0.8100787 0.4121147 0.9128636 0.3342236 0.1763002 0.3342179 0.3620209 0.471151 0.292437 0.3718631 0.5174257 0.3682736 0.3729835 0.2491827 0.4097508 0.7154443 0.5704217 0.7154443 0.4153696 0.8071502 0.4843168 0.97459 0.3989417 0.9270806 0.4681259 0.8638324 0.4501682 0.9945187 0.568543 0.8822476 0.6613882 0.8913319 0.5931296 0.8412126 0.3520634 0.8638324 0.4501682 0.8071502 0.4843168 0.9945187 0.568543 0.9405061 0.5462432 0.9270806 0.4681259</float_array>
          <technique_common>
            <accessor source="#Garbage_bag_01-mesh-map-0-array" count="174" stride="2">
              <param name="S" type="float"/>
              <param name="T" type="float"/>
            </accessor>
          </technique_common>
        </source>
        <vertices id="Garbage_bag_01-mesh-vertices">
          <input semantic="POSITION" source="#Garbage_bag_01-mesh-positions"/>
        </vertices>
        <triangles material="Garbage_bag-material" count="58">
          <input semantic="VERTEX" source="#Garbage_bag_01-mesh-vertices" offset="0"/>
          <input semantic="NORMAL" source="#Garbage_bag_01-mesh-normals" offset="1"/>
          <input semantic="TEXCOORD" source="#Garbage_bag_01-mesh-map-0" offset="2" set="0"/>
          <p>1 0 0 2 1 1 0 2 2 3 3 3 4 4 4 2 1 5 5 5 6 6 6 7 4 4 8 7 7 9 8 8 10 6 6 11 5 5 12 12 9 13 14 10 14 9 11 15 10 12 16 8 8 17 11 13 18 0 2 19 10 12 20 4 4 21 6 6 22 8 8 23 12 9 24 19 14 25 18 15 26 11 13 27 16 16 28 17 17 29 3 3 30 13 18 31 12 9 32 7 7 33 14 10 34 15 19 35 1 0 36 17 17 37 13 18 38 9 11 39 15 19 40 16 16 41 23 20 42 22 21 43 24 22 44 13 18 45 23 20 46 19 14 47 15 19 48 22 21 49 16 16 50 14 10 51 18 15 52 20 23 53 16 16 54 23 20 55 17 17 56 14 10 57 21 24 58 15 19 59 21 24 60 20 23 61 24 22 62 18 15 63 19 14 64 24 22 65 19 14 66 23 20 67 24 22 68 22 21 69 21 24 70 24 22 71 20 23 72 18 15 73 24 22 74 26 25 75 25 26 76 27 27 77 26 25 78 27 27 79 28 28 80 25 26 81 28 28 82 29 29 83 26 25 84 28 28 85 25 26 86 28 28 87 27 27 88 29 29 89 27 27 90 25 26 91 29 29 92 31 30 93 32 31 94 30 32 95 31 30 96 33 33 97 32 31 98 30 32 99 34 34 100 33 33 101 31 30 102 30 32 103 33 33 104 33 33 105 34 34 106 32 31 107 32 31 108 34 34 109 30 32 110 1 0 111 3 3 112 2 1 113 3 3 114 5 5 115 4 4 116 5 5 117 7 7 118 6 6 119 7 7 120 9 11 121 8 8 122 5 5 123 3 3 124 12 9 125 9 11 126 11 13 127 10 12 128 11 13 129 1 0 130 0 2 131 10 12 132 0 2 133 8 8 134 0 2 135 2 1 136 4 4 137 8 8 138 0 2 139 4 4 140 12 9 141 13 18 142 19 14 143 11 13 144 9 11 145 16 16 146 3 3 147 1 0 148 13 18 149 7 7 150 5 5 151 14 10 152 1 0 153 11 13 154 17 17 155 9 11 156 7 7 157 15 19 158 13 18 159 17 17 160 23 20 161 15 19 162 21 24 163 22 21 164 14 10 165 12 9 166 18 15 167 16 16 168 22 21 169 23 20 170 14 10 171 20 23 172 21 24 173</p>
        </triangles>
      </mesh>
    </geometry>
    <geometry id="Garbage_bag-mesh" name="Garbage_bag">
      <mesh>
        <source id="Garbage_bag-mesh-positions">
          <float_array id="Garbage_bag-mesh-positions-array" count="105">-0.02563101 0.2035821 -0.249718 -0.04911684 0.34681 -0.06841039 0.2290776 0.08641237 -0.249718 0.3665512 0.1555967 -0.06841039 0.2162621 -0.124859 -0.249718 0.3456371 -0.1891845 -0.06841039 0 -0.249718 -0.249718 -0.007288575 -0.3929463 -0.06841039 -0.1726893 -0.1351114 -0.249718 -0.2891064 -0.2059158 -0.06841039 -0.2060097 0.06847065 -0.249718 -0.3434831 0.1263169 -0.06841039 0.2944859 0.1193293 0.1728705 -0.03680527 0.2717281 0.1728705 0.2778171 -0.1554644 0.1728705 -0.003467798 -0.3178644 0.1728705 -0.2280791 -0.1687994 0.1728705 -0.2714179 0.0959931 0.1728705 0.1442449 0.04371953 0.2752237 -0.01113831 0.1151981 0.2752237 0.1364268 -0.08516502 0.2752237 0.004497647 -0.1613343 0.2752237 -0.1008502 -0.09141945 0.2752237 -0.121177 0.03277432 0.2752237 0.00866729 -0.02437108 0.3244559 0.1122774 0.01008135 0.3269379 -8.04942e-4 -0.01674556 0.3054339 0.117147 -0.03093701 0.3050969 0.1081916 -0.02979797 0.3509418 0.1873602 -0.01767861 0.317088 -0.08484625 0.01906836 0.3339022 0.02396428 -0.01803648 0.3064575 -0.09458506 -0.02171814 0.31329 -0.08283686 -0.02060693 0.3585005 -0.1625247 -0.002087235 0.3290472</float_array>
          <technique_common>
            <accessor source="#Garbage_bag-mesh-positions-array" count="35" stride="3">
              <param name="X" type="float"/>
              <param name="Y" type="float"/>
              <param name="Z" type="float"/>
            </accessor>
          </technique_common>
        </source>
        <source id="Garbage_bag-mesh-normals">
          <float_array id="Garbage_bag-mesh-normals-array" count="105">-0.1107582 0.9807334 -0.1609185 0.4510843 0.28632 -0.8453069 -0.04798203 0.5355681 -0.8431279 0.8444516 -0.5105829 -0.1618852 0.4460776 -0.290938 -0.8463863 -0.0330519 -0.9866381 -0.1595398 -0.01369363 -0.5426219 -0.8398655 -0.8304572 -0.5335562 -0.1601833 -0.4440186 -0.2902213 -0.8477141 0.7047502 0.4249097 0.5681365 0.7045555 -0.4374374 0.5587934 -0.494401 0.1963985 -0.8467558 -0.08658301 0.8257676 0.5573251 0.3825207 0.2439461 0.8911612 -0.7658451 0.308008 0.5644575 -0.91457 0.3702659 -0.1626804 0.8512563 0.4987782 -0.1630426 -0.02553683 -0.8327276 0.5530938 -0.701413 -0.4532506 0.5500761 -0.4303109 0.171358 0.886267 -0.4094492 -0.267227 0.8723195 -0.009353756 -0.008780837 0.9999178 -0.04142123 0.4692295 0.8821043 -0.01143169 -0.4768669 0.8789013 0.3949472 -0.2565338 0.8821606 -0.9813175 7.86055e-4 -0.192394 0.06304395 0.9967746 0.04965782 0.09626227 -0.5590188 -0.8235481 -0.01548922 -0.4521775 0.8917936 0.9925498 -0.007922708 -0.1215819 0.9643428 -0.08945363 -0.2490807 -0.1939231 -0.562051 -0.8040477 0.02751088 0.9991323 0.03127223 0.02919971 -0.4367115 0.8991277 -0.9949256 0.07806324 -0.06347674</float_array>
          <technique_common>
            <accessor source="#Garbage_bag-mesh-normals-array" count="35" stride="3">
              <param name="X" type="float"/>
              <param name="Y" type="float"/>
              <param name="Z" type="float"/>
            </accessor>
          </technique_common>
        </source>
        <source id="Garbage_bag-mesh-map-0">
          <float_array id="Garbage_bag-mesh-map-0-array" count="348">0.1008862 0.2242078 0.005481243 0.07782053 0.005481243 0.2118495 0.8604648 0.6723508 0.7154443 0.7677557 0.7492927 0.6723508 0.4821135 0.4201411 0.5775185 0.5377746 0.4821135 0.5339393 0.4821135 0.5339393 0.5775185 0.6860685 0.4821135 0.6248093 0.7154443 0.7677557 0.8777858 0.894719 0.733188 0.894719 0.4821135 0.7924361 0.6264971 0.6970311 0.5193712 0.6970311 0.005481243 0.3067657 0.1008862 0.2242078 0.005481243 0.2118495 0.2201154 0.8071672 0.2044776 0.6766982 0.1017327 0.6401232 0.7057284 0.2250087 0.8588708 0.2293305 0.874423 0.3164579 0.4821135 0.7924361 0.6409795 0.9193993 0.6569361 0.7924361 0.1008862 0.2242078 0.2278494 0.04340237 0.1008862 0.005481243 0.5775185 0.5377746 0.7044817 0.3877505 0.7044817 0.5357641 0.1008862 0.2242078 0.2278495 0.3411838 0.2278495 0.2177295 0.5775185 0.6860685 0.7044817 0.5357641 0.7044818 0.6539557 0.7797491 0.1140933 0.8384667 0.08347529 0.8447777 0.1507508 0.7057284 0.2250087 0.7797491 0.1140933 0.7797491 0.1864387 0.8309195 0.005481243 0.9011455 0.1057876 0.8384667 0.08347529 0.984896 0.22275 0.8588708 0.2293305 0.9106852 0.1853793 0.8309195 0.005481243 0.7797491 0.1140933 0.7057284 0.07076162 0.9645563 0.05305314 0.9106852 0.1853793 0.9011455 0.1057876 0.9011455 0.1057876 0.9106852 0.1853793 0.8447777 0.1507508 0.8588708 0.2293305 0.7797491 0.1864387 0.8447777 0.1507508 0.7797491 0.1864387 0.7797491 0.1140933 0.8447777 0.1507508 0.8384667 0.08347529 0.9011455 0.1057876 0.8447777 0.1507508 0.9106852 0.1853793 0.8588708 0.2293305 0.8447777 0.1507508 0.5666072 0.4238857 0.5976148 0.527895 0.5791581 0.5278601 0.5666072 0.4238857 0.5791581 0.5278601 0.5541784 0.5285499 0.535752 0.5285499 0.5541784 0.5285499 0.5530589 0.5838881 0.5666072 0.4238857 0.5541784 0.5285499 0.535752 0.5285499 0.5541784 0.5285499 0.5791581 0.5278601 0.5530589 0.5838881 0.5791581 0.5278601 0.5976148 0.527895 0.5530589 0.5838881 0.4290731 0.4987204 0.4416239 0.6026948 0.4600806 0.6027297 0.4290731 0.4987204 0.4166443 0.6033846 0.4416239 0.6026948 0.3982179 0.6033846 0.4155247 0.6587229 0.4166443 0.6033846 0.4290731 0.4987204 0.3982179 0.6033846 0.4166443 0.6033846 0.4166443 0.6033846 0.4155247 0.6587229 0.4416239 0.6026948 0.4416239 0.6026948 0.4155247 0.6587229 0.4600806 0.6027297 0.1008862 0.2242078 0.1008862 0.005481243 0.005481243 0.07782053 0.8604648 0.6723508 0.8968699 0.7677557 0.7154443 0.7677557 0.4821135 0.4201411 0.5775185 0.3520633 0.5775185 0.5377746 0.4821135 0.5339393 0.5775185 0.5377746 0.5775185 0.6860685 0.7154443 0.7677557 0.8968699 0.7677557 0.8777858 0.894719 0.4821135 0.7924361 0.6569361 0.7924361 0.6264971 0.6970311 0.005481243 0.3067657 0.1008862 0.3791049 0.1008862 0.2242078 0.005481183 0.6903131 0.005481183 0.8089038 0.1017327 0.6401232 0.005481183 0.8089038 0.1351798 0.8792133 0.2201154 0.8071672 0.1017327 0.6401232 0.005481183 0.8089038 0.2201154 0.8071672 0.7057284 0.2250087 0.7797491 0.1864387 0.8588708 0.2293305 0.4821135 0.7924361 0.5016444 0.9193993 0.6409795 0.9193993 0.1008862 0.2242078 0.2278495 0.2177295 0.2278494 0.04340237 0.5775185 0.5377746 0.5775185 0.3520633 0.7044817 0.3877505 0.1008862 0.2242078 0.1008862 0.3791049 0.2278495 0.3411838 0.5775185 0.6860685 0.5775185 0.5377746 0.7044817 0.5357641 0.7057284 0.2250087 0.7057284 0.07076162 0.7797491 0.1140933 0.8309195 0.005481243 0.9645563 0.05305314 0.9011455 0.1057876 0.984896 0.22275 0.874423 0.3164579 0.8588708 0.2293305 0.8309195 0.005481243 0.8384667 0.08347529 0.7797491 0.1140933 0.9645563 0.05305314 0.984896 0.22275 0.9106852 0.1853793</float_array>
          <technique_common>
            <accessor source="#Garbage_bag-mesh-map-0-array" count="174" stride="2">
              <param name="S" type="float"/>
              <param name="T" type="float"/>
            </accessor>
          </technique_common>
        </source>
        <vertices id="Garbage_bag-mesh-vertices">
          <input semantic="POSITION" source="#Garbage_bag-mesh-positions"/>
        </vertices>
        <triangles material="Garbage_bag-material" count="58">
          <input semantic="VERTEX" source="#Garbage_bag-mesh-vertices" offset="0"/>
          <input semantic="NORMAL" source="#Garbage_bag-mesh-normals" offset="1"/>
          <input semantic="TEXCOORD" source="#Garbage_bag-mesh-map-0" offset="2" set="0"/>
          <p>1 0 0 2 1 1 0 2 2 2 1 3 5 3 4 4 4 5 4 4 6 7 5 7 6 6 8 6 6 9 9 7 10 8 8 11 5 3 12 12 9 13 14 10 14 9 7 15 10 11 16 8 8 17 10 11 18 1 0 19 0 2 20 4 4 21 6 6 22 8 8 23 13 12 24 18 13 25 12 9 26 9 7 27 17 14 28 11 15 29 1 0 30 12 9 31 3 16 32 7 5 33 14 10 34 15 17 35 1 0 36 17 14 37 13 12 38 9 7 39 15 17 40 16 18 41 23 19 42 22 20 43 24 21 44 13 12 45 23 19 46 19 22 47 16 18 48 21 23 49 22 20 50 14 10 51 18 13 52 20 24 53 16 18 54 23 19 55 17 14 56 15 17 57 20 24 58 21 23 59 21 23 60 20 24 61 24 21 62 18 13 63 19 22 64 24 21 65 19 22 66 23 19 67 24 21 68 22 20 69 21 23 70 24 21 71 20 24 72 18 13 73 24 21 74 26 25 75 25 26 76 27 27 77 26 25 78 27 27 79 28 28 80 25 26 81 28 28 82 29 29 83 26 25 84 28 28 85 25 26 86 28 28 87 27 27 88 29 29 89 27 27 90 25 26 91 29 29 92 31 30 93 32 31 94 30 32 95 31 30 96 33 33 97 32 31 98 30 32 99 34 34 100 33 33 101 31 30 102 30 32 103 33 33 104 33 33 105 34 34 106 32 31 107 32 31 108 34 34 109 30 32 110 1 0 111 3 16 112 2 1 113 2 1 114 3 16 115 5 3 116 4 4 117 5 3 118 7 5 119 6 6 120 7 5 121 9 7 122 5 3 123 3 16 124 12 9 125 9 7 126 11 15 127 10 11 128 10 11 129 11 15 130 1 0 131 10 11 132 0 2 133 8 8 134 0 2 135 2 1 136 4 4 137 8 8 138 0 2 139 4 4 140 13 12 141 19 22 142 18 13 143 9 7 144 16 18 145 17 14 146 1 0 147 13 12 148 12 9 149 7 5 150 5 3 151 14 10 152 1 0 153 11 15 154 17 14 155 9 7 156 7 5 157 15 17 158 13 12 159 17 14 160 23 19 161 16 18 162 15 17 163 21 23 164 14 10 165 12 9 166 18 13 167 16 18 168 22 20 169 23 19 170 15 17 171 14 10 172 20 24 173</p>
        </triangles>
      </mesh>
    </geometry>
  </library_geometries>
  <library_visual_scenes>
    <visual_scene id="Scene" name="Scene">
      <node id="Garbage_bag_01" name="Garbage_bag_01" type="NODE">
        <matrix sid="transform">1 -6.51683e-7 0 0 6.51683e-7 1 0 0 0 0 1 0 0 0 0 1</matrix>
        <instance_geometry url="#Garbage_bag_01-mesh" name="Garbage_bag_01">
          <bind_material>
            <technique_common>
              <instance_material symbol="Garbage_bag-material" target="#Garbage_bag-material">
                <bind_vertex_input semantic="UVMap" input_semantic="TEXCOORD" input_set="0"/>
              </instance_material>
            </technique_common>
          </bind_material>
        </instance_geometry>
      </node>
      <node id="Garbage_bag" name="Garbage_bag" type="NODE">
        <matrix sid="transform">1 -6.51683e-7 0 -0.7228511 6.51683e-7 1 0 0.03482446 0 0 1 -0.01931813 0 0 0 1</matrix>
        <instance_geometry url="#Garbage_bag-mesh" name="Garbage_bag">
          <bind_material>
            <technique_common>
              <instance_material symbol="Garbage_bag-material" target="#Garbage_bag-material">
                <bind_vertex_input semantic="UVMap" input_semantic="TEXCOORD" input_set="0"/>
              </instance_material>
            </technique_common>
          </bind_material>
        </instance_geometry>
      </node>
    </visual_scene>
  </library_visual_scenes>
  <scene>
    <instance_visual_scene url="#Scene"/>
  </scene>
</COLLADA>