<?xml version="1.0" encoding="utf-8"?>
<COLLADA xmlns="http://www.collada.org/2005/11/COLLADASchema" version="1.4.1" xmlns:xsi="http://www.w3.org/2001/XMLSchema-instance">
  <asset>
    <contributor>
      <author>Blender User</author>
      <authoring_tool>Blender 4.0.1 commit date:2023-11-16, commit time:16:40, hash:d0dd92834a08</authoring_tool>
    </contributor>
    <created>2023-11-28T13:40:33</created>
    <modified>2023-11-28T13:40:33</modified>
    <unit name="meter" meter="1"/>
    <up_axis>Z_UP</up_axis>
  </asset>
  <library_effects>
    <effect id="Lamp_01-effect">
      <profile_COMMON>
        <newparam sid="Lamp_01-surface">
          <surface type="2D">
            <init_from>Lamp_01</init_from>
          </surface>
        </newparam>
        <newparam sid="Lamp_01-sampler">
          <sampler2D>
            <source>Lamp_01-surface</source>
          </sampler2D>
        </newparam>
        <technique sid="common">
          <lambert>
            <emission>
              <color sid="emission">0 0 0 1</color>
            </emission>
            <diffuse>
              <texture texture="Lamp_01-sampler" texcoord="UVMap"/>
            </diffuse>
            <index_of_refraction>
              <float sid="ior">1.45</float>
            </index_of_refraction>
          </lambert>
        </technique>
      </profile_COMMON>
    </effect>
  </library_effects>
  <library_images>
    <image id="Lamp_01" name="Lamp_01">
      <init_from>Lamp_01.png</init_from>
    </image>
  </library_images>
  <library_materials>
    <material id="Lamp_01-material" name="Lamp_01">
      <instance_effect url="#Lamp_01-effect"/>
    </material>
  </library_materials>
  <library_geometries>
    <geometry id="Lamp_01-mesh" name="Lamp_01">
      <mesh>
        <source id="Lamp_01-mesh-positions">
          <float_array id="Lamp_01-mesh-positions-array" count="120">-0.8263826 -0.1172044 -0.04921543 -0.8688434 -0.07474356 -0.04921543 -0.8506608 -0.0672121 0.002729773 -0.8188511 -0.09902179 0.002729773 -0.8688434 0.07474356 -0.04921543 -0.8263826 0.1172044 -0.04921543 -0.8188511 0.09902179 0.002729773 -0.8506608 0.0672121 0.002729773 0.8688434 -0.07474356 -0.04921543 0.8263826 -0.1172044 -0.04921543 0.8188511 -0.09902179 0.002729773 0.8506608 -0.0672121 0.002729773 0.8263826 0.1172044 -0.04921543 0.8688434 0.07474356 -0.04921543 0.8506608 0.0672121 0.002729773 0.8188511 0.09902179 0.002729773 -0.8263826 -0.1172044 0.002729773 -0.8688434 -0.07474356 0.002729773 -0.8688434 0.07474356 0.002729773 -0.8263826 0.1172044 0.002729773 0.8263826 0.1172044 0.002729773 0.8688434 0.07474356 0.002729773 0.8688434 -0.07474356 0.002729773 0.8263826 -0.1172044 0.002729773 -0.8086043 -0.08807945 0.0599156 -0.840016 -0.05978488 0.0599156 -0.840016 0.05978488 0.0599156 -0.8086043 0.08807945 0.0599156 0.8086044 0.08807945 0.0599156 0.840016 0.05978488 0.0599156 0.840016 -0.05978488 0.0599156 0.8086044 -0.08807945 0.0599156 0 0.1172044 -0.04921543 0 0.1172044 0.002729773 0 0.09902179 0.002729773 0 0.08807945 0.0599156 0 -0.1172044 -0.04921543 0 -0.1172044 0.002729773 0 -0.09902179 0.002729773 0 -0.08807945 0.0599156</float_array>
          <technique_common>
            <accessor source="#Lamp_01-mesh-positions-array" count="40" stride="3">
              <param name="X" type="float"/>
              <param name="Y" type="float"/>
              <param name="Z" type="float"/>
            </accessor>
          </technique_common>
        </source>
        <source id="Lamp_01-mesh-normals">
          <float_array id="Lamp_01-mesh-normals-array" count="147">0 -1 0 -0.3826833 -0.9238796 0 0.9238798 0.3826828 0 0.9238798 -0.3826828 0 0.9238798 0.3826832 0 0.4703126 0.2007643 0.85936 0.6498476 -0.2711695 0.7100459 0.4703127 -0.2007643 0.85936 -0.9238798 -0.3826828 0 -0.9238798 0.3826828 0 -0.9238798 -0.3826832 0 0 1 0 0.3826833 0.9238796 0 -0.3826836 -0.9238796 0 -0.3826836 0.9238796 0 -0.9238798 0.3826832 0 -0.3826833 0.9238796 0 0.3826836 0.9238796 0 0.3826836 -0.9238796 0 0.9238798 -0.3826832 0 0.3826833 -0.9238796 0 0 0 -1 1.69849e-7 0 -1 0 0 -1 -0.1991341 -0.4671081 0.8614847 0 0 1 0 0 1 -0.199134 0.467108 0.8614847 0 0 1 -0.4703126 0.2007643 0.85936 0.1991339 0.4671081 0.8614846 0 0 1 0.1991339 -0.4671081 0.8614846 0 0 1 -0.4703126 -0.2007643 0.85936 0 -0.6372059 0.7706937 0 0.6372059 0.7706937 0.2331455 -0.6529889 0.7205892 0.2331455 0.652989 0.7205891 -0.6498476 0.2711695 0.710046 0.6498475 0.2711696 0.7100461 -0.6498475 -0.2711696 0.710046 -0.2331453 0.6529886 0.7205895 0 0.637206 0.7706936 -0.2331453 -0.6529886 0.7205895 -1.69849e-7 0 -1 0 0 -1 0 0 -1 0 0 -1</float_array>
          <technique_common>
            <accessor source="#Lamp_01-mesh-normals-array" count="49" stride="3">
              <param name="X" type="float"/>
              <param name="Y" type="float"/>
              <param name="Z" type="float"/>
            </accessor>
          </technique_common>
        </source>
        <source id="Lamp_01-mesh-map-0">
          <float_array id="Lamp_01-mesh-map-0-array" count="456">0.9676312 0.007917761 0.9283279 0.6331816 0.9283279 0.007917761 0.6990088 0.697785 0.812115 0.7370882 0.6990089 0.7370882 0.6727207 0.8507362 0.7688101 0.8074678 0.7744297 0.8507362 0.8186092 0.7529854 0.7055031 0.7922887 0.8186092 0.7922887 0.6883819 0.9543047 0.0631181 0.993608 0.6883819 0.993608 0.8507362 0.7529854 0.8186092 0.7922887 0.8507362 0.7922887 0.673376 0.7922887 0.7055031 0.7529854 0.673376 0.7529854 0.6990089 0.7370882 0.6668818 0.697785 0.6990088 0.697785 0.844242 0.7370882 0.812115 0.697785 0.844242 0.697785 0.007723569 0.6319019 0.03985065 0.6640288 0.1850838 0.6319019 0.4078842 0.6262033 0.4262537 0.6640288 0.3941267 0.6319019 0.5577294 0.6262033 0.5393599 0.6640288 0.5336613 0.6502714 0.750931 0.04446345 0.7325614 0.00663793 0.7646884 0.03876501 0.6010857 0.04446345 0.6194552 0.00663793 0.6251538 0.02039539 0.5336613 0.6502714 0.4262537 0.6640288 0.4319522 0.6502714 0.4078842 0.6262033 0.3941267 0.00663793 0.4078841 0.00663793 0.6251538 0.02039539 0.7325614 0.00663793 0.7268629 0.02039533 0.750931 0.04446345 0.7646884 0.6640288 0.750931 0.6640288 0.0457223 0.9400311 0.02195543 0.9186226 0.04572224 0.8067443 0.784745 0.8074677 0.8808345 0.8507361 0.8864541 0.8074677 0.03147512 0.7338412 0.0154612 0.6905727 0.007407009 0.7338412 0.6672758 0.05745178 0.6240075 0.0414378 0.6672758 0.03338366 0.682455 0.03825432 0.7257234 0.6500667 0.7257234 0.03825426 0.6510404 0.7922886 0.03922802 0.7490203 0.6510404 0.7490202 0.03147512 0.7922887 0.0154612 0.7490203 0.03922802 0.7490203 0.682455 0.6578196 0.7257234 0.6738336 0.7257234 0.6500667 0.6510404 0.7338411 0.03922802 0.6905727 0.03147512 0.7338412 0.5577294 0.6262033 0.5714868 0.00663793 0.5714869 0.6319019 0.4740744 0.6331816 0.434771 0.007917761 0.4347711 0.6331816 0.6672759 0.6770171 0.6240075 0.06520473 0.6672758 0.05745178 0.6010857 0.04446345 0.5873283 0.6640288 0.5873282 0.03876501 0.5276511 0.007917702 0.4883479 0.6331815 0.4883479 0.007917702 0.8910223 0.6835113 0.8005526 0.6835113 0.7791441 0.6597444 0.3461583 0.00663793 0.2330521 0.00663793 0.2009251 0.03876501 0.9676312 0.007917761 0.9676312 0.6331816 0.9283279 0.6331816 0.6990088 0.697785 0.812115 0.697785 0.812115 0.7370882 0.6727207 0.8507362 0.6783403 0.8074678 0.7688101 0.8074678 0.8186092 0.7529854 0.7055031 0.7529854 0.7055031 0.7922887 0.6883819 0.9543047 0.0631181 0.9543048 0.0631181 0.993608 0.8507362 0.7529854 0.8186092 0.7529854 0.8186092 0.7922887 0.673376 0.7922887 0.7055031 0.7922887 0.7055031 0.7529854 0.6990089 0.7370882 0.6668818 0.7370882 0.6668818 0.697785 0.844242 0.7370882 0.812115 0.7370882 0.812115 0.697785 0.03985065 0.6640288 0.1529567 0.6640288 0.1850838 0.6319019 0.1850838 0.6319019 0.1850838 0.00663793 0.007723569 0.00663793 0.007723569 0.00663793 0.007723569 0.6319019 0.1850838 0.6319019 0.4078842 0.6262033 0.4319522 0.6502714 0.4262537 0.6640288 0.5577294 0.6262033 0.5714869 0.6319019 0.5393599 0.6640288 0.750931 0.04446345 0.7268629 0.02039533 0.7325614 0.00663793 0.6010857 0.04446345 0.5873282 0.03876501 0.6194552 0.00663793 0.5336613 0.6502714 0.5393599 0.6640288 0.4262537 0.6640288 0.4078842 0.6262033 0.3941267 0.6319019 0.3941267 0.00663793 0.6251538 0.02039539 0.6194552 0.00663793 0.7325614 0.00663793 0.750931 0.04446345 0.7646884 0.03876501 0.7646884 0.6640288 0.02195543 0.9186226 0.02195543 0.8281528 0.04572224 0.8067443 0.04572224 0.8067443 0.6575347 0.8067443 0.6575347 0.940031 0.6575347 0.940031 0.0457223 0.9400311 0.04572224 0.8067443 0.784745 0.8074677 0.7903647 0.8507361 0.8808345 0.8507361 0.03147512 0.7338412 0.03922802 0.6905727 0.0154612 0.6905727 0.6672758 0.05745178 0.6240075 0.06520473 0.6240075 0.0414378 0.682455 0.03825432 0.682455 0.6578196 0.7257234 0.6500667 0.6510404 0.7922886 0.03147512 0.7922887 0.03922802 0.7490203 0.03147512 0.7922887 0.007407009 0.7922887 0.0154612 0.7490203 0.682455 0.6578196 0.682455 0.6818878 0.7257234 0.6738336 0.6510404 0.7338411 0.6510404 0.6905727 0.03922802 0.6905727 0.5577294 0.6262033 0.5577294 0.00663793 0.5714868 0.00663793 0.4740744 0.6331816 0.4740743 0.007917761 0.434771 0.007917761 0.6672759 0.6770171 0.6240075 0.6770172 0.6240075 0.06520473 0.6010857 0.04446345 0.6010857 0.6640288 0.5873283 0.6640288 0.5276511 0.007917702 0.5276512 0.6331815 0.4883479 0.6331815 0.7791441 0.6597444 0.7791441 0.04793196 0.9124308 0.04793196 0.9124308 0.04793196 0.9124308 0.6597444 0.7791441 0.6597444 0.9124308 0.6597444 0.8910223 0.6835113 0.7791441 0.6597444 0.2009251 0.03876501 0.2009251 0.6640288 0.3782854 0.6640288 0.3782854 0.6640288 0.3782854 0.03876501 0.2009251 0.03876501 0.3782854 0.03876501 0.3461583 0.00663793 0.2009251 0.03876501</float_array>
          <technique_common>
            <accessor source="#Lamp_01-mesh-map-0-array" count="228" stride="2">
              <param name="S" type="float"/>
              <param name="T" type="float"/>
            </accessor>
          </technique_common>
        </source>
        <vertices id="Lamp_01-mesh-vertices">
          <input semantic="POSITION" source="#Lamp_01-mesh-positions"/>
        </vertices>
        <triangles material="Lamp_01-material" count="76">
          <input semantic="VERTEX" source="#Lamp_01-mesh-vertices" offset="0"/>
          <input semantic="NORMAL" source="#Lamp_01-mesh-normals" offset="1"/>
          <input semantic="TEXCOORD" source="#Lamp_01-mesh-map-0" offset="2" set="0"/>
          <p>37 0 0 0 1 1 36 0 2 21 2 3 8 3 4 13 4 5 14 5 6 30 6 7 11 7 8 17 8 9 4 9 10 1 10 11 33 11 12 12 12 13 32 11 14 16 13 15 1 10 16 0 1 17 5 14 18 18 15 19 19 16 20 13 4 21 20 17 22 21 2 23 9 18 24 22 19 25 23 20 26 0 21 27 1 22 28 5 23 29 3 24 30 17 25 31 16 26 32 6 27 33 18 28 34 7 29 35 15 30 36 21 31 37 20 26 38 10 32 39 22 33 40 11 7 41 7 29 42 17 25 43 2 34 44 3 24 45 37 26 46 38 35 47 11 7 48 21 31 49 14 5 50 15 30 51 33 26 52 34 36 53 31 37 54 30 6 55 28 38 56 2 34 57 26 39 58 7 29 59 15 30 60 29 40 61 14 5 62 3 24 63 25 41 64 2 34 65 34 36 66 27 42 67 35 43 68 38 35 69 31 37 70 39 35 71 10 32 72 30 6 73 31 37 74 6 27 75 26 39 76 27 42 77 34 36 78 28 38 79 15 30 80 6 27 81 33 26 82 19 26 83 19 16 84 32 11 85 5 14 86 38 35 87 24 44 88 3 24 89 10 32 90 37 26 91 23 26 92 23 20 93 36 0 94 9 18 95 26 39 96 25 41 97 24 44 98 13 45 99 8 46 100 9 47 101 37 0 102 16 13 103 0 1 104 21 2 105 22 19 106 8 3 107 14 5 108 29 40 109 30 6 110 17 8 111 18 15 112 4 9 113 33 11 114 20 17 115 12 12 116 16 13 117 17 8 118 1 10 119 5 14 120 4 9 121 18 15 122 13 4 123 12 12 124 20 17 125 9 18 126 8 3 127 22 19 128 1 22 129 4 46 130 5 23 131 5 23 132 32 46 133 36 46 134 36 46 135 0 21 136 5 23 137 3 24 138 2 34 139 17 25 140 6 27 141 19 26 142 18 28 143 15 30 144 14 5 145 21 31 146 10 32 147 23 26 148 22 33 149 7 29 150 18 28 151 17 25 152 3 24 153 16 26 154 37 26 155 11 7 156 22 33 157 21 31 158 15 30 159 20 26 160 33 26 161 30 6 162 29 40 163 28 38 164 28 38 165 35 43 166 39 35 167 39 35 168 31 37 169 28 38 170 2 34 171 25 41 172 26 39 173 15 30 174 28 38 175 29 40 176 3 24 177 24 44 178 25 41 179 34 36 180 6 27 181 27 42 182 38 35 183 10 32 184 31 37 185 10 32 186 11 7 187 30 6 188 6 27 189 7 29 190 26 39 191 34 36 192 35 43 193 28 38 194 6 27 195 34 36 196 33 26 197 19 16 198 33 11 199 32 11 200 38 35 201 39 35 202 24 44 203 10 32 204 38 35 205 37 26 206 23 20 207 37 0 208 36 0 209 24 44 210 39 35 211 35 43 212 35 43 213 27 42 214 24 44 215 27 42 216 26 39 217 24 44 218 9 47 219 36 46 220 32 46 221 32 46 222 12 48 223 9 47 224 12 48 225 13 45 226 9 47 227</p>
        </triangles>
      </mesh>
    </geometry>
  </library_geometries>
  <library_visual_scenes>
    <visual_scene id="Scene" name="Scene">
      <node id="Lamp_01" name="Lamp_01" type="NODE">
        <matrix sid="transform">-0.6703338 2.18422e-7 0 0 -2.18422e-7 -0.6703338 0 0 0 0 0.6703338 0 0 0 0 1</matrix>
        <instance_geometry url="#Lamp_01-mesh" name="Lamp_01">
          <bind_material>
            <technique_common>
              <instance_material symbol="Lamp_01-material" target="#Lamp_01-material">
                <bind_vertex_input semantic="UVMap" input_semantic="TEXCOORD" input_set="0"/>
              </instance_material>
            </technique_common>
          </bind_material>
        </instance_geometry>
      </node>
    </visual_scene>
  </library_visual_scenes>
  <scene>
    <instance_visual_scene url="#Scene"/>
  </scene>
</COLLADA>