<?xml version="1.0" encoding="utf-8"?>
<COLLADA xmlns="http://www.collada.org/2005/11/COLLADASchema" version="1.4.1" xmlns:xsi="http://www.w3.org/2001/XMLSchema-instance">
  <asset>
    <contributor>
      <author>Blender User</author>
      <authoring_tool>Blender 4.0.1 commit date:2023-11-16, commit time:16:40, hash:d0dd92834a08</authoring_tool>
    </contributor>
    <created>2023-11-28T13:18:07</created>
    <modified>2023-11-28T13:18:07</modified>
    <unit name="meter" meter="1"/>
    <up_axis>Z_UP</up_axis>
  </asset>
  <library_effects>
    <effect id="Trash_Can_01-effect">
      <profile_COMMON>
        <newparam sid="Trash_Can_01-surface">
          <surface type="2D">
            <init_from>Trash_Can_01</init_from>
          </surface>
        </newparam>
        <newparam sid="Trash_Can_01-sampler">
          <sampler2D>
            <source>Trash_Can_01-surface</source>
          </sampler2D>
        </newparam>
        <technique sid="common">
          <lambert>
            <emission>
              <color sid="emission">0 0 0 1</color>
            </emission>
            <diffuse>
              <texture texture="Trash_Can_01-sampler" texcoord="UVMap"/>
            </diffuse>
            <index_of_refraction>
              <float sid="ior">1.45</float>
            </index_of_refraction>
          </lambert>
        </technique>
      </profile_COMMON>
    </effect>
  </library_effects>
  <library_images>
    <image id="Trash_Can_01" name="Trash_Can_01">
      <init_from>Trash_Can_01.png</init_from>
    </image>
  </library_images>
  <library_materials>
    <material id="Trash_Can_01-material" name="Trash_Can_01">
      <instance_effect url="#Trash_Can_01-effect"/>
    </material>
  </library_materials>
  <library_geometries>
    <geometry id="Trash_Can_01-mesh" name="Trash_Can_01">
      <mesh>
        <source id="Trash_Can_01-mesh-positions">
          <float_array id="Trash_Can_01-mesh-positions-array" count="96">0 0.2519491 -0.2519491 0 0.2214183 0.329371 0.1781549 0.1781549 -0.2519491 0.1565663 0.1565663 0.329371 0.2519491 0 -0.2519491 0.2214182 0 0.329371 0.1781549 -0.1781549 -0.2519491 0.1565663 -0.1565663 0.329371 0 -0.2519491 -0.2519491 0 -0.2214183 0.329371 -0.1781549 -0.1781549 -0.2519491 -0.1565664 -0.1565663 0.329371 -0.2519491 0 -0.2519491 -0.2214183 0 0.329371 -0.1781549 0.1781549 -0.2519491 -0.1565664 0.1565663 0.329371 0.1781549 0.1781549 0.329371 0 0.2519491 0.329371 0.2519491 0 0.329371 0.1781549 -0.1781549 0.329371 0 -0.2519491 0.329371 -0.1781549 -0.1781549 0.329371 -0.2519491 0 0.329371 -0.1781549 0.1781549 0.329371 0.1565663 0.1565663 -0.1142874 0 0.2214183 -0.1142874 0.2214182 0 -0.1142874 0.1565663 -0.1565663 -0.1142874 0 -0.2214183 -0.1142874 -0.1565664 -0.1565663 -0.1142874 -0.2214183 0 -0.1142874 -0.1565664 0.1565663 -0.1142874</float_array>
          <technique_common>
            <accessor source="#Trash_Can_01-mesh-positions-array" count="32" stride="3">
              <param name="X" type="float"/>
              <param name="Y" type="float"/>
              <param name="Z" type="float"/>
            </accessor>
          </technique_common>
        </source>
        <source id="Trash_Can_01-mesh-normals">
          <float_array id="Trash_Can_01-mesh-normals-array" count="141">0 1 0 0.7071068 0.7071068 0 0 1 0 0.7071068 0.7071068 0 1 0 0 1 0 0 0.7071068 -0.7071068 0 0.7071068 -0.7071068 0 0 -1 0 0 -1 0 -0.7071068 -0.7071068 0 -0.7071068 -0.7071068 0 -1 0 0 1 0 0 0.7071068 -0.7071067 0 -1 0 0 -0.7071068 0.7071068 0 -0.7071068 0.7071068 0 0 0 -1 4.79684e-7 0 1 0 0 1 0 0 1 0 0 1 5.11734e-7 0 1 5.11734e-7 0 1 0 0 1 0 0 1 0 0 1 0 0 1 0 0 1 1.83446e-7 0 1 0 0 1 0 1 0 0.7071068 0.7071067 0 -1 0 0 -0.7071068 0.7071067 0 0 -1 0 -0.7071068 -0.7071067 0 0 -1 0 1 0 0 0 1 0 -1 0 0 0 0 1 0 0 1 0 0 1 -1.83446e-7 0 1 0 0 1</float_array>
          <technique_common>
            <accessor source="#Trash_Can_01-mesh-normals-array" count="47" stride="3">
              <param name="X" type="float"/>
              <param name="Y" type="float"/>
              <param name="Z" type="float"/>
            </accessor>
          </technique_common>
        </source>
        <source id="Trash_Can_01-mesh-map-0">
          <float_array id="Trash_Can_01-mesh-map-0-array" count="360">0.1236238 0.3926268 0.2424937 0.004753947 0.1236238 0.004753947 0.2424937 0.3926268 0.1236238 0.004753947 0.2424937 0.004753947 0.1236238 0.3926268 0.004753947 0.004753947 0.1236238 0.004753947 0.4897414 0.3926268 0.3708716 0.004753947 0.4897414 0.004753947 0.3708716 0.3926268 0.2520017 0.004753947 0.3708716 0.004753947 0.2520017 0.3926268 0.3708716 0.004753947 0.2520017 0.004753947 0.7119975 0.3007751 0.8164629 0.004753947 0.8164629 0.3007751 0.3708716 0.3926268 0.4897414 0.004753947 0.3708716 0.004753947 0.004753947 0.3926268 0.1236238 0.004753947 0.004753947 0.004753947 0.2243968 0.4021348 0.004753947 0.4931139 0.09573304 0.7127568 0.3532122 0.4099304 0.3720325 0.5307986 0.3532122 0.523003 0.5792038 0.2166013 0.507045 0.315376 0.4992494 0.2965556 0.5792038 0.2166013 0.5980242 0.0957331 0.5980242 0.224397 0.5792038 0.1035287 0.5070452 0.004753947 0.5980242 0.0957331 0.3437042 0.4099304 0.3248839 0.5307986 0.3248839 0.4021347 0.5980241 0.3437043 0.4992493 0.415863 0.5902284 0.3248839 0.5180696 0.5367311 0.4992493 0.415863 0.5180697 0.4236586 0.598024 0.6166855 0.4992493 0.5445268 0.5180696 0.5367311 0.004753947 0.8022192 0.08470833 0.7222648 0.1977809 0.7222648 0.7119975 0.6063042 0.6075321 0.3102831 0.6075321 0.6063042 0.7119975 0.9118333 0.6075321 0.6158121 0.6075321 0.9118333 0.4935587 0.941035 0.5980241 0.6450138 0.5980241 0.941035 0.3890933 0.941035 0.4935587 0.6450138 0.4935587 0.941035 0.6075321 0.3007751 0.7119975 0.004753947 0.7119975 0.3007751 0.8164629 0.6063042 0.7119975 0.3102831 0.7119975 0.6063042 0.8164629 0.9118333 0.7119975 0.6158121 0.7119975 0.9118333 0.1236238 0.3926268 0.2424937 0.3926268 0.2424937 0.004753947 0.2424937 0.3926268 0.1236238 0.3926268 0.1236238 0.004753947 0.1236238 0.3926268 0.004753947 0.3926268 0.004753947 0.004753947 0.4897414 0.3926268 0.3708716 0.3926268 0.3708716 0.004753947 0.3708716 0.3926268 0.2520017 0.3926268 0.2520017 0.004753947 0.2520017 0.3926268 0.3708716 0.3926268 0.3708716 0.004753947 0.7119975 0.3007751 0.7119975 0.004753947 0.8164629 0.004753947 0.3708716 0.3926268 0.4897414 0.3926268 0.4897414 0.004753947 0.004753947 0.3926268 0.1236238 0.3926268 0.1236238 0.004753947 0.09573304 0.7127568 0.2243969 0.7127568 0.3153759 0.6217777 0.3153759 0.6217777 0.3153759 0.4931138 0.2243968 0.4021348 0.2243968 0.4021348 0.09573292 0.4021348 0.004753947 0.4931139 0.004753947 0.4931139 0.004753947 0.6217777 0.09573304 0.7127568 0.09573304 0.7127568 0.3153759 0.6217777 0.2243968 0.4021348 0.3532122 0.4099304 0.3720325 0.4021347 0.3720325 0.5307986 0.5792038 0.2166013 0.5980242 0.224397 0.507045 0.315376 0.5792038 0.2166013 0.5792038 0.1035287 0.5980242 0.0957331 0.5792038 0.1035287 0.4992495 0.02357429 0.5070452 0.004753947 0.3437042 0.4099304 0.3437042 0.5230031 0.3248839 0.5307986 0.5980241 0.3437043 0.5180697 0.4236586 0.4992493 0.415863 0.5180696 0.5367311 0.4992493 0.5445268 0.4992493 0.415863 0.598024 0.6166855 0.5902283 0.6355059 0.4992493 0.5445268 0.1977809 0.7222648 0.2777352 0.8022192 0.08470833 0.9952461 0.2777352 0.8022192 0.2777352 0.9152917 0.08470833 0.9952461 0.2777352 0.9152917 0.1977809 0.9952461 0.08470833 0.9952461 0.08470833 0.9952461 0.004753947 0.9152917 0.1977809 0.7222648 0.004753947 0.9152917 0.004753947 0.8022192 0.1977809 0.7222648 0.7119975 0.6063042 0.7119975 0.3102831 0.6075321 0.3102831 0.7119975 0.9118333 0.7119975 0.6158121 0.6075321 0.6158121 0.4935587 0.941035 0.4935587 0.6450138 0.5980241 0.6450138 0.3890933 0.941035 0.3890933 0.6450138 0.4935587 0.6450138 0.6075321 0.3007751 0.6075321 0.004753947 0.7119975 0.004753947 0.8164629 0.6063042 0.8164629 0.3102831 0.7119975 0.3102831 0.8164629 0.9118333 0.8164629 0.6158121 0.7119975 0.6158121</float_array>
          <technique_common>
            <accessor source="#Trash_Can_01-mesh-map-0-array" count="180" stride="2">
              <param name="S" type="float"/>
              <param name="T" type="float"/>
            </accessor>
          </technique_common>
        </source>
        <vertices id="Trash_Can_01-mesh-vertices">
          <input semantic="POSITION" source="#Trash_Can_01-mesh-positions"/>
        </vertices>
        <triangles material="Trash_Can_01-material" count="60">
          <input semantic="VERTEX" source="#Trash_Can_01-mesh-vertices" offset="0"/>
          <input semantic="NORMAL" source="#Trash_Can_01-mesh-normals" offset="1"/>
          <input semantic="TEXCOORD" source="#Trash_Can_01-mesh-map-0" offset="2" set="0"/>
          <p>17 0 0 2 1 1 0 2 2 16 3 3 4 4 4 2 1 5 18 5 6 6 6 7 4 4 8 19 7 9 8 8 10 6 6 11 20 9 12 10 10 13 8 8 14 21 11 15 12 12 16 10 10 17 13 13 18 31 14 19 15 14 20 22 15 21 14 16 22 12 12 23 23 17 24 0 2 25 14 16 26 6 18 27 10 18 28 14 18 29 3 19 30 17 20 31 1 21 32 5 22 33 16 23 34 3 19 35 5 22 36 19 24 37 18 25 38 7 19 39 20 26 40 19 24 41 9 27 42 21 28 43 20 26 44 11 25 45 22 25 46 21 28 47 15 25 48 22 25 49 13 25 50 1 21 51 23 28 52 15 25 53 28 29 54 27 30 55 26 31 56 9 32 57 29 33 58 11 33 59 5 34 60 27 35 61 7 17 62 1 36 63 24 10 64 3 37 65 15 14 66 25 38 67 1 36 68 11 33 69 30 39 70 13 13 71 7 17 72 28 40 73 9 32 74 3 37 75 26 41 76 5 34 77 17 0 78 16 3 79 2 1 80 16 3 81 18 5 82 4 4 83 18 5 84 19 7 85 6 6 86 19 7 87 20 9 88 8 8 89 20 9 90 21 11 91 10 10 92 21 11 93 22 15 94 12 12 95 13 13 96 30 39 97 31 14 98 22 15 99 23 17 100 14 16 101 23 17 102 17 0 103 0 2 104 14 18 105 0 18 106 2 18 107 2 18 108 4 18 109 6 18 110 6 18 111 8 18 112 10 18 113 10 18 114 12 18 115 14 18 116 14 18 117 2 18 118 6 18 119 3 19 120 16 23 121 17 20 122 5 22 123 18 25 124 16 23 125 5 22 126 7 19 127 19 24 128 7 19 129 9 27 130 20 26 131 9 27 132 11 25 133 21 28 134 11 25 135 13 25 136 22 25 137 15 25 138 23 28 139 22 25 140 1 21 141 17 20 142 23 28 143 26 31 144 24 42 145 30 43 146 24 42 147 25 44 148 30 43 149 25 44 150 31 45 151 30 43 152 30 43 153 29 46 154 26 31 155 29 46 156 28 29 157 26 31 158 9 32 159 28 40 160 29 33 161 5 34 162 26 41 163 27 35 164 1 36 165 25 38 166 24 10 167 15 14 168 31 14 169 25 38 170 11 33 171 29 33 172 30 39 173 7 17 174 27 35 175 28 40 176 3 37 177 24 10 178 26 41 179</p>
        </triangles>
      </mesh>
    </geometry>
  </library_geometries>
  <library_visual_scenes>
    <visual_scene id="Scene" name="Scene">
      <node id="Trash_Can_01" name="Trash_Can_01" type="NODE">
        <matrix sid="transform">-0.9247296 3.01315e-7 0 0 -3.01315e-7 -0.9247296 0 0 0 0 0.9247296 0 0 0 0 1</matrix>
        <instance_geometry url="#Trash_Can_01-mesh" name="Trash_Can_01">
          <bind_material>
            <technique_common>
              <instance_material symbol="Trash_Can_01-material" target="#Trash_Can_01-material">
                <bind_vertex_input semantic="UVMap" input_semantic="TEXCOORD" input_set="0"/>
              </instance_material>
            </technique_common>
          </bind_material>
        </instance_geometry>
      </node>
    </visual_scene>
  </library_visual_scenes>
  <scene>
    <instance_visual_scene url="#Scene"/>
  </scene>
</COLLADA>