<?xml version="1.0" encoding="utf-8"?>
<COLLADA xmlns="http://www.collada.org/2005/11/COLLADASchema" version="1.4.1" xmlns:xsi="http://www.w3.org/2001/XMLSchema-instance">
  <asset>
    <contributor>
      <author>Blender User</author>
      <authoring_tool>Blender 4.0.1 commit date:2023-11-16, commit time:16:40, hash:d0dd92834a08</authoring_tool>
    </contributor>
    <created>2023-11-28T13:33:18</created>
    <modified>2023-11-28T13:33:18</modified>
    <unit name="meter" meter="1"/>
    <up_axis>Z_UP</up_axis>
  </asset>
  <library_effects>
    <effect id="Hamburger_03-effect">
      <profile_COMMON>
        <newparam sid="Hamburger_03-surface">
          <surface type="2D">
            <init_from>Hamburger_03</init_from>
          </surface>
        </newparam>
        <newparam sid="Hamburger_03-sampler">
          <sampler2D>
            <source>Hamburger_03-surface</source>
          </sampler2D>
        </newparam>
        <technique sid="common">
          <lambert>
            <emission>
              <color sid="emission">0 0 0 1</color>
            </emission>
            <diffuse>
              <texture texture="Hamburger_03-sampler" texcoord="UVMap"/>
            </diffuse>
            <index_of_refraction>
              <float sid="ior">1.45</float>
            </index_of_refraction>
          </lambert>
        </technique>
      </profile_COMMON>
    </effect>
  </library_effects>
  <library_images>
    <image id="Hamburger_03" name="Hamburger_03">
      <init_from>Hamburger_03.png</init_from>
    </image>
  </library_images>
  <library_materials>
    <material id="Hamburger_03-material" name="Hamburger_03">
      <instance_effect url="#Hamburger_03-effect"/>
    </material>
  </library_materials>
  <library_geometries>
    <geometry id="Hamburger_03-mesh" name="Hamburger_03">
      <mesh>
        <source id="Hamburger_03-mesh-positions">
          <float_array id="Hamburger_03-mesh-positions-array" count="126">-6.434784 -1.469859 -0.7210636 -2.863749 -5.951336 -0.5790284 2.863749 -5.951336 -0.3512217 6.434784 -1.469859 -0.2091865 -5.160296 4.118453 -0.6703718 5.160296 4.118453 -0.2598783 0 6.605485 -0.465125 0 5.517089 -4.375011 0 6.676122 -2.640513 4.313434 3.439849 -4.375011 5.219602 4.162494 -2.640513 5.378764 -1.227668 -4.375011 6.508738 -1.485577 -2.640513 2.393776 -4.970726 -4.375011 2.896661 -6.014978 -2.640513 -2.393776 -4.970726 -4.375011 -2.896661 -6.014978 -2.640513 -5.378764 -1.227668 -4.375011 -6.508738 -1.485577 -2.640513 -4.313434 3.439849 -4.375011 -5.219602 4.162494 -2.640513 0 6.758955 1.698321 0 3.852881 4.310192 0 5.867949 3.254454 3.012303 2.402232 4.310192 5.284363 4.214139 1.698321 4.587746 3.658606 3.254454 3.756281 -0.8573465 4.310192 6.589493 -1.504009 1.698321 5.720826 -1.305741 3.254454 1.671703 -3.471325 4.310192 2.9326 -6.089607 1.698321 2.546008 -5.286839 3.254454 -1.671702 -3.471325 4.310192 -2.9326 -6.089607 1.698321 -2.546008 -5.286839 3.254454 -3.756281 -0.8573462 4.310192 -6.589493 -1.504009 1.698321 -5.720826 -1.305741 3.254454 -3.012303 2.402232 4.310192 -5.284363 4.214139 1.698321 -4.587746 3.658606 3.254454</float_array>
          <technique_common>
            <accessor source="#Hamburger_03-mesh-positions-array" count="42" stride="3">
              <param name="X" type="float"/>
              <param name="Y" type="float"/>
              <param name="Z" type="float"/>
            </accessor>
          </technique_common>
        </source>
        <source id="Hamburger_03-mesh-normals">
          <float_array id="Hamburger_03-mesh-normals-array" count="126">0.765847 0.610279 0.2025784 0.9745584 -0.222575 -0.02638906 0.7814984 0.6234148 -0.02478349 0.4338794 -0.9006991 -0.0221371 -0.4240477 -0.8814012 0.2081242 -0.4333036 -0.9010968 -0.01650816 -0.9532995 -0.2176643 0.2093855 -0.9747819 -0.2227848 -0.0129376 -0.7813717 0.6239032 -0.01425445 3.86951e-4 0.9998148 -0.01924157 0.7559369 0.6028146 -0.2552919 -2.95479e-4 0.9670737 -0.2544968 -0.7644292 0.6098856 0.2090163 0.4252349 -0.8816565 0.2045905 0.1305604 -0.2711114 0.9536523 0.2933667 -0.06695902 0.9536522 0 0.3009111 0.9536522 0 0.5626128 -0.8267205 0.9426268 -0.2151242 -0.2552965 0.4398682 0.3507832 -0.8267207 0.2441084 -0.5068963 -0.8267208 0.5485067 -0.125193 -0.8267207 -0.4200842 -0.8713755 -0.2534444 0.4194367 -0.8712048 -0.2550983 -0.9436331 -0.2152862 -0.2514128 -0.2441085 -0.5068963 -0.8267208 -0.7567358 0.6030927 -0.2522502 -0.5485066 -0.1251929 -0.8267208 -0.4398683 0.3507832 -0.8267207 5.4816e-4 0.9784225 0.2066138 0.5711084 0.4554438 0.6829394 0.2352619 0.187615 0.9536522 0.7121605 -0.1625459 0.6829394 0.9549993 -0.2178834 0.2012537 0.3169413 -0.6581354 0.6829392 -0.3169413 -0.6581354 0.6829394 -0.1305603 -0.2711114 0.9536523 -0.7121606 -0.162546 0.6829394 -0.2933666 -0.06695902 0.9536523 -0.5711085 0.4554439 0.6829393 -0.2352617 0.187615 0.9536522 0 0.730475 0.6829395</float_array>
          <technique_common>
            <accessor source="#Hamburger_03-mesh-normals-array" count="42" stride="3">
              <param name="X" type="float"/>
              <param name="Y" type="float"/>
              <param name="Z" type="float"/>
            </accessor>
          </technique_common>
        </source>
        <source id="Hamburger_03-mesh-map-0">
          <float_array id="Hamburger_03-mesh-map-0-array" count="480">0.9343706 0.6015471 0.8619932 0.8172177 0.8600698 0.6051777 0.5370023 0.7390914 0.6147692 0.959025 0.5283586 0.9564124 0.4529228 0.1513355 0.6216698 0.237746 0.6229656 0.1459462 0.6216698 0.237746 0.8350055 0.1478697 0.6229656 0.1459462 0.1483739 0.6456866 0.2309157 0.8437364 0.2309157 0.6456866 0.06628531 0.4451796 0.1483739 0.6456866 0.1561617 0.4498871 0.8619932 0.8172177 0.9343707 0.9925068 0.8566039 0.9872604 0.2636879 0.08307862 0.3628712 0.1621747 0.2636879 0.3681312 0.2309157 0.8437364 0.2967286 0.6456866 0.2309157 0.6456866 0.7697403 0.817814 0.7039274 0.6309263 0.7697403 0.6035067 0.7697403 0.817814 0.7039274 0.9500526 0.7039274 0.8080281 0.4501388 0.9576613 0.3843259 0.7569238 0.4501388 0.7378427 0.6223692 0.07311564 0.4901306 0.00730282 0.450508 0.07311564 0.8366765 0.07311564 0.6321551 0.00730282 0.6223692 0.07311564 0.2309157 0.6456866 0.2967286 0.48202 0.2309157 0.4476369 0.6092822 0.7228435 0.6821207 0.4037172 0.3547874 0.4037172 0.06628531 0.6456866 0.007240235 0.8197615 0.06628531 0.8461936 0.4317581 0.3222092 0.2636879 0.3681312 0.3628713 0.2890351 0.9343706 0.6015471 0.9934157 0.8109904 0.9343707 0.8185134 0.4317581 0.3222092 0.3628712 0.1621747 0.4317581 0.1290006 0.9343707 0.8185134 0.9934157 0.962047 0.9343707 0.9925068 0.4317581 0.1290006 0.2636879 0.08307862 0.2807015 0.008536934 0.6147692 0.736479 0.6738142 0.9443563 0.6147692 0.959025 0.2807015 0.008536934 0.1400081 0.1113077 0.09233695 0.05152994 0.4476764 0.237746 0.6291928 0.2967911 0.6216698 0.237746 0.008506894 0.225605 0.1400081 0.1113077 0.08496552 0.225605 0.8386361 0.237746 0.6291928 0.2967911 0.8175573 0.2967911 0.09233701 0.39968 0.08496552 0.225605 0.1400082 0.3399022 0.06628531 0.6456866 0.007240235 0.4716116 0.007240235 0.6456866 0.09233701 0.39968 0.2636879 0.3681312 0.2807015 0.4426729 0.06628531 0.6456866 0.1405861 0.8414861 0.1483739 0.6456866 0.7697403 0.817814 0.8566039 0.9872604 0.7697403 0.9896752 0.1561617 0.4498871 0.2309157 0.6456866 0.2309157 0.4476369 0.6229656 0.1459462 0.8366765 0.07311564 0.6223692 0.07311564 0.450508 0.07311564 0.6229656 0.1459462 0.6223692 0.07311564 0.4501388 0.7378427 0.5283586 0.9564124 0.4501388 0.9576613 0.8600698 0.6051777 0.7697403 0.817814 0.7697403 0.6035067 0.9343706 0.6015471 0.9343707 0.8185134 0.8619932 0.8172177 0.5370023 0.7390914 0.6147692 0.736479 0.6147692 0.959025 0.4529228 0.1513355 0.4476764 0.237746 0.6216698 0.237746 0.6216698 0.237746 0.8386361 0.237746 0.8350055 0.1478697 0.1483739 0.6456866 0.1405861 0.8414861 0.2309157 0.8437364 0.06628531 0.4451796 0.06628531 0.6456866 0.1483739 0.6456866 0.8619932 0.8172177 0.9343707 0.8185134 0.9343707 0.9925068 0.3628712 0.1621747 0.3628713 0.2890351 0.2636879 0.3681312 0.2636879 0.3681312 0.1400082 0.3399022 0.2636879 0.08307862 0.1400082 0.3399022 0.08496552 0.225605 0.2636879 0.08307862 0.08496552 0.225605 0.1400081 0.1113077 0.2636879 0.08307862 0.2309157 0.8437364 0.2967286 0.8093532 0.2967286 0.6456866 0.7697403 0.817814 0.7039274 0.8080281 0.7039274 0.6309263 0.7697403 0.817814 0.7697403 0.9896752 0.7039274 0.9500526 0.4501388 0.9576613 0.3843259 0.9385801 0.3843259 0.7569238 0.6223692 0.07311564 0.6321551 0.00730282 0.4901306 0.00730282 0.8366765 0.07311564 0.8092569 0.00730282 0.6321551 0.00730282 0.2309157 0.6456866 0.2967286 0.6456866 0.2967286 0.48202 0.6092822 0.7228435 0.722543 0.580819 0.6821207 0.4037172 0.6821207 0.4037172 0.518454 0.3248996 0.3547874 0.4037172 0.3547874 0.4037172 0.3143651 0.580819 0.427626 0.7228435 0.427626 0.7228435 0.6092822 0.7228435 0.3547874 0.4037172 0.06628531 0.6456866 0.007240235 0.6456866 0.007240235 0.8197615 0.4317581 0.3222092 0.2807015 0.4426729 0.2636879 0.3681312 0.9343706 0.6015471 0.9934157 0.622626 0.9934157 0.8109904 0.4317581 0.3222092 0.3628713 0.2890351 0.3628712 0.1621747 0.9343707 0.8185134 0.9934157 0.8109904 0.9934157 0.962047 0.4317581 0.1290006 0.3628712 0.1621747 0.2636879 0.08307862 0.6147692 0.736479 0.6738142 0.7511476 0.6738142 0.9443563 0.2807015 0.008536934 0.2636879 0.08307862 0.1400081 0.1113077 0.4476764 0.237746 0.4781361 0.2967911 0.6291928 0.2967911 0.008506894 0.225605 0.09233695 0.05152994 0.1400081 0.1113077 0.8386361 0.237746 0.6216698 0.237746 0.6291928 0.2967911 0.09233701 0.39968 0.008506894 0.225605 0.08496552 0.225605 0.06628531 0.6456866 0.06628531 0.4451796 0.007240235 0.4716116 0.09233701 0.39968 0.1400082 0.3399022 0.2636879 0.3681312 0.06628531 0.6456866 0.06628531 0.8461936 0.1405861 0.8414861 0.7697403 0.817814 0.8619932 0.8172177 0.8566039 0.9872604 0.1561617 0.4498871 0.1483739 0.6456866 0.2309157 0.6456866 0.6229656 0.1459462 0.8350055 0.1478697 0.8366765 0.07311564 0.450508 0.07311564 0.4529228 0.1513355 0.6229656 0.1459462 0.4501388 0.7378427 0.5370023 0.7390914 0.5283586 0.9564124 0.8600698 0.6051777 0.8619932 0.8172177 0.7697403 0.817814</float_array>
          <technique_common>
            <accessor source="#Hamburger_03-mesh-map-0-array" count="240" stride="2">
              <param name="S" type="float"/>
              <param name="T" type="float"/>
            </accessor>
          </technique_common>
        </source>
        <vertices id="Hamburger_03-mesh-vertices">
          <input semantic="POSITION" source="#Hamburger_03-mesh-positions"/>
        </vertices>
        <triangles material="Hamburger_03-material" count="80">
          <input semantic="VERTEX" source="#Hamburger_03-mesh-vertices" offset="0"/>
          <input semantic="NORMAL" source="#Hamburger_03-mesh-normals" offset="1"/>
          <input semantic="TEXCOORD" source="#Hamburger_03-mesh-map-0" offset="2" set="0"/>
          <p>25 0 0 3 1 1 5 2 2 2 3 3 34 4 4 1 5 5 1 5 6 37 6 7 0 7 8 37 6 9 4 8 10 0 7 11 6 9 12 10 10 13 8 11 14 40 12 15 6 9 16 4 8 17 3 1 18 31 13 19 2 3 20 30 14 21 27 15 22 22 16 23 10 10 24 7 17 25 8 11 26 12 18 27 9 19 28 10 10 29 12 18 30 13 20 31 11 21 32 16 22 33 13 20 34 14 23 35 18 24 36 15 25 37 16 22 38 20 26 39 17 27 40 18 24 41 8 11 42 19 28 43 20 26 44 19 28 45 9 19 46 13 20 47 21 29 48 26 30 49 25 0 50 26 30 51 22 16 52 24 31 53 25 0 54 29 32 55 28 33 56 26 30 57 27 15 58 29 32 59 28 33 60 32 34 61 31 13 62 29 32 63 30 14 64 32 34 65 31 13 66 35 35 67 34 4 68 32 34 69 33 36 70 35 35 71 34 4 72 38 37 73 37 6 74 38 37 75 33 36 76 36 38 77 40 12 78 38 37 79 41 39 80 41 39 81 36 38 82 39 40 83 21 29 84 41 39 85 23 41 86 41 39 87 22 16 88 23 41 89 21 29 90 5 2 91 6 9 92 12 18 93 2 3 94 14 23 95 4 8 96 8 11 97 20 26 98 0 7 99 20 26 100 18 24 101 16 22 102 0 7 103 18 24 104 14 23 105 1 5 106 16 22 107 5 2 108 12 18 109 10 10 110 25 0 111 28 33 112 3 1 113 2 3 114 31 13 115 34 4 116 1 5 117 34 4 118 37 6 119 37 6 120 40 12 121 4 8 122 6 9 123 5 2 124 10 10 125 40 12 126 21 29 127 6 9 128 3 1 129 28 33 130 31 13 131 27 15 132 24 31 133 22 16 134 22 16 135 39 40 136 30 14 137 39 40 138 36 38 139 30 14 140 36 38 141 33 36 142 30 14 143 10 10 144 9 19 145 7 17 146 12 18 147 11 21 148 9 19 149 12 18 150 14 23 151 13 20 152 16 22 153 15 25 154 13 20 155 18 24 156 17 27 157 15 25 158 20 26 159 19 28 160 17 27 161 8 11 162 7 17 163 19 28 164 19 28 165 7 17 166 9 19 167 9 19 168 11 21 169 13 20 170 13 20 171 15 25 172 17 27 173 17 27 174 19 28 175 13 20 176 21 29 177 23 41 178 26 30 179 26 30 180 23 41 181 22 16 182 25 0 183 26 30 184 29 32 185 26 30 186 24 31 187 27 15 188 28 33 189 29 32 190 32 34 191 29 32 192 27 15 193 30 14 194 31 13 195 32 34 196 35 35 197 32 34 198 30 14 199 33 36 200 34 4 201 35 35 202 38 37 203 38 37 204 35 35 205 33 36 206 40 12 207 37 6 208 38 37 209 41 39 210 38 37 211 36 38 212 21 29 213 40 12 214 41 39 215 41 39 216 39 40 217 22 16 218 21 29 219 25 0 220 5 2 221 12 18 222 3 1 223 2 3 224 4 8 225 6 9 226 8 11 227 0 7 228 4 8 229 20 26 230 16 22 231 1 5 232 0 7 233 14 23 234 2 3 235 1 5 236 5 2 237 3 1 238 12 18 239</p>
        </triangles>
      </mesh>
    </geometry>
  </library_geometries>
  <library_visual_scenes>
    <visual_scene id="Scene" name="Scene">
      <node id="Hamburger_03" name="Hamburger_03" type="NODE">
        <matrix sid="transform">-0.01499592 4.88629e-9 0 0 -4.88629e-9 -0.01499592 0 0 0 0 0.01499592 0 0 0 0 1</matrix>
        <instance_geometry url="#Hamburger_03-mesh" name="Hamburger_03">
          <bind_material>
            <technique_common>
              <instance_material symbol="Hamburger_03-material" target="#Hamburger_03-material">
                <bind_vertex_input semantic="UVMap" input_semantic="TEXCOORD" input_set="0"/>
              </instance_material>
            </technique_common>
          </bind_material>
        </instance_geometry>
      </node>
    </visual_scene>
  </library_visual_scenes>
  <scene>
    <instance_visual_scene url="#Scene"/>
  </scene>
</COLLADA>