<?xml version="1.0" encoding="utf-8"?>
<COLLADA xmlns="http://www.collada.org/2005/11/COLLADASchema" version="1.4.1" xmlns:xsi="http://www.w3.org/2001/XMLSchema-instance">
  <asset>
    <contributor>
      <author>Blender User</author>
      <authoring_tool>Blender 4.0.1 commit date:2023-11-16, commit time:16:40, hash:d0dd92834a08</authoring_tool>
    </contributor>
    <created>2023-11-28T13:27:31</created>
    <modified>2023-11-28T13:27:31</modified>
    <unit name="meter" meter="1"/>
    <up_axis>Z_UP</up_axis>
  </asset>
  <library_effects>
    <effect id="Waffle_Machine-effect">
      <profile_COMMON>
        <newparam sid="Waffle_Machine-surface">
          <surface type="2D">
            <init_from>Waffle_Machine</init_from>
          </surface>
        </newparam>
        <newparam sid="Waffle_Machine-sampler">
          <sampler2D>
            <source>Waffle_Machine-surface</source>
          </sampler2D>
        </newparam>
        <technique sid="common">
          <lambert>
            <emission>
              <color sid="emission">0 0 0 1</color>
            </emission>
            <diffuse>
              <texture texture="Waffle_Machine-sampler" texcoord="UVMap"/>
            </diffuse>
            <index_of_refraction>
              <float sid="ior">1.45</float>
            </index_of_refraction>
          </lambert>
        </technique>
      </profile_COMMON>
    </effect>
  </library_effects>
  <library_images>
    <image id="Waffle_Machine" name="Waffle_Machine">
      <init_from>Waffle_Machine.png</init_from>
    </image>
  </library_images>
  <library_materials>
    <material id="Waffle_Machine-material" name="Waffle_Machine">
      <instance_effect url="#Waffle_Machine-effect"/>
    </material>
  </library_materials>
  <library_geometries>
    <geometry id="Waffle_Machine_Top-mesh" name="Waffle_Machine_Top">
      <mesh>
        <source id="Waffle_Machine_Top-mesh-positions">
          <float_array id="Waffle_Machine_Top-mesh-positions-array" count="174">-0.0520423 0.3354102 -0.08085811 -0.0520423 0.3354102 0.02931332 -0.0520423 0.5524529 -0.08085811 -0.0520423 0.5524529 0.02931332 -3.0225e-4 0.3354102 -0.08085811 -3.0225e-4 0.3354102 0.02931332 -3.0225e-4 0.5524529 -0.08085811 -3.0225e-4 0.5524529 0.02931332 -0.0520423 -0.3354102 -0.08085811 -0.0520423 -0.3354102 0.02931332 -0.0520423 -0.5524529 -0.08085811 -0.0520423 -0.5524529 0.02931332 -3.0225e-4 -0.3354102 -0.08085811 -3.0225e-4 -0.3354102 0.02931332 -3.0225e-4 -0.5524529 -0.08085811 -3.0225e-4 -0.5524529 0.02931332 -0.06653869 -0.7076728 0.989382 -0.06653869 -0.7076728 0.03952336 -0.06653869 0.7076728 0.989382 -0.06653869 0.7076728 0.03952336 0.007073938 -0.7302824 1.011991 0.007073938 -0.7302824 0.01691383 0.007073938 0.7302824 1.011991 0.007073938 0.7302824 0.01691383 -0.06653869 0.7302824 1.011991 -0.06653869 -0.7302824 1.011991 -0.06653869 -0.7302824 0.01691383 -0.06653869 0.7302824 0.01691383 -0.2205184 0.7076728 0.989382 -0.2205184 -0.7076728 0.989382 -0.2205184 -0.7076728 0.03952336 -0.2205184 0.7076728 0.03952336 -0.1426149 0.7145527 1.293901 -0.1426149 -0.7145527 1.293901 -0.105796 0.7145527 1.267151 -0.105796 -0.7145527 1.267151 -0.1198596 0.7145527 1.223868 -0.1198596 -0.7145527 1.223867 -0.1653702 0.7145527 1.223868 -0.1653702 -0.7145527 1.223867 -0.1794338 0.7145527 1.267151 -0.1794338 -0.7145527 1.267151 -0.1804858 0.7015233 0.594255 -0.1804858 0.7015233 1.301309 -0.1804858 0.7225109 0.594255 -0.1804858 0.7225109 1.301309 -0.1047441 0.7015233 0.594255 -0.1047441 0.7015233 1.301309 -0.1047441 0.7225109 0.594255 -0.1047441 0.7225109 1.301309 -0.1804858 -0.7015234 0.594255 -0.1804858 -0.7015234 1.301309 -0.1804858 -0.7225109 0.594255 -0.1804858 -0.7225109 1.301309 -0.1047441 -0.7015234 0.594255 -0.1047441 -0.7015234 1.301309 -0.1047441 -0.7225109 0.594255 -0.1047441 -0.7225109 1.301309</float_array>
          <technique_common>
            <accessor source="#Waffle_Machine_Top-mesh-positions-array" count="58" stride="3">
              <param name="X" type="float"/>
              <param name="Y" type="float"/>
              <param name="Z" type="float"/>
            </accessor>
          </technique_common>
        </source>
        <source id="Waffle_Machine_Top-mesh-normals">
          <float_array id="Waffle_Machine_Top-mesh-normals-array" count="51">-1 0 0 0 1 0 1 0 0 0 -1 0 0 0 -1 0 0 1 0.587787 0 0.8090158 0.9510561 0 -0.3090182 0 0 -1 -0.9510573 0 -0.3090149 -0.5877847 0 0.8090174 -1 0 0 -1 0 0 0.5877846 0 0.8090175 0.9510572 0 -0.309015 -0.9510563 0 -0.3090181 -0.5877871 0 0.8090157</float_array>
          <technique_common>
            <accessor source="#Waffle_Machine_Top-mesh-normals-array" count="17" stride="3">
              <param name="X" type="float"/>
              <param name="Y" type="float"/>
              <param name="Z" type="float"/>
            </accessor>
          </technique_common>
        </source>
        <source id="Waffle_Machine_Top-mesh-map-0">
          <float_array id="Waffle_Machine_Top-mesh-map-0-array" count="492">0.9298984 0.4430807 0.8675623 0.3202757 0.8675623 0.4430807 0.9298984 0.403029 0.8675623 0.3737539 0.8675623 0.403029 0.9298984 0.3202757 0.8675623 0.4430807 0.8675623 0.3202757 0.9298984 0.3737539 0.8675623 0.403029 0.8675623 0.3737539 0.8692789 0.3244715 0.898554 0.4472765 0.898554 0.3244715 0.8675623 0.3202757 0.9298984 0.4430807 0.8675623 0.4430807 0.8675623 0.3737539 0.9298984 0.403029 0.8675623 0.403029 0.8675623 0.4430807 0.9298984 0.3202757 0.8675623 0.3202757 0.8675623 0.403029 0.9298984 0.3737539 0.8675623 0.3737539 0.898554 0.4472765 0.8692789 0.3244715 0.898554 0.3244715 0.6707628 0.5270492 0.6206183 0.06613355 0.6206184 0.5270492 0.8949173 0.07725119 0.872595 0.3789976 0.872595 0.07725119 0.4845872 0.9940245 0.7821751 0.5572281 0.4845873 0.5572281 0.872595 0.07725119 0.8949173 0.3789976 0.8949173 0.07725119 0.872595 0.006674289 0.8949173 0.4495745 0.872595 0.4495745 0.8949173 0.006674289 0.872595 0.4495745 0.8949173 0.4495745 0.4871101 0.9929301 0.4939237 0.5595889 0.4939237 0.9861165 0.4849696 0.919115 0.4917832 0.6260527 0.4917832 0.9123014 0.4929369 0.5527754 0.4861233 0.9861165 0.4861233 0.5595889 0.4950774 0.6192392 0.4882639 0.9123014 0.4882639 0.6260527 0.4910271 0.04889351 0.8003541 0.5098091 0.4910271 0.5098091 0.6707628 0.06613355 0.6206184 0.5270492 0.6206183 0.06613355 0.8003541 0.3216636 0.4910271 0.2715191 0.8003541 0.2715191 0.4910271 0.3216636 0.8003541 0.2715191 0.4910271 0.2715191 0.2929891 0.5683949 0.3055945 0.07912713 0.2929891 0.07912713 0.2970849 0.5683949 0.2822664 0.07912713 0.2970849 0.07912713 0.3007797 0.5683949 0.2851986 0.07912713 0.3007797 0.07912713 0.2822664 0.5683949 0.2970849 0.07912713 0.2822664 0.07912713 0.2803838 0.5683949 0.2929891 0.07912713 0.2803838 0.07912713 0.8426964 0.9631706 0.8543185 0.5716338 0.8426964 0.5716338 0.8426964 0.9631706 0.8846389 0.5716338 0.8426964 0.5716338 0.8543185 0.9631706 0.8426964 0.5716338 0.8543185 0.5716338 0.8846389 0.9631706 0.8426964 0.5716338 0.8846389 0.5716338 0.8846389 0.5832558 0.8426964 0.5716338 0.8426964 0.5832558 0.8426964 0.5832558 0.8846389 0.5716338 0.8846389 0.5832558 0.8543185 0.5716338 0.8426964 0.9631706 0.8426964 0.5716338 0.8846389 0.5716338 0.8426964 0.9631706 0.8426964 0.5716338 0.8426964 0.5716338 0.8543185 0.9631706 0.8543185 0.5716338 0.8426964 0.5716338 0.8846389 0.9631706 0.8846389 0.5716338 0.8426964 0.5716338 0.8846389 0.5832558 0.8426964 0.5832558 0.8846389 0.5716338 0.8426964 0.5832558 0.8846389 0.5832558 0.9298984 0.4430807 0.9298984 0.3202757 0.8675623 0.3202757 0.9298984 0.403029 0.9298984 0.3737539 0.8675623 0.3737539 0.9298984 0.3202757 0.9298984 0.4430807 0.8675623 0.4430807 0.9298984 0.3737539 0.9298984 0.403029 0.8675623 0.403029 0.8692789 0.3244715 0.869279 0.4472765 0.898554 0.4472765 0.8675623 0.3202757 0.9298984 0.3202757 0.9298984 0.4430807 0.8675623 0.3737539 0.9298984 0.3737539 0.9298984 0.403029 0.8675623 0.4430807 0.9298984 0.4430807 0.9298984 0.3202757 0.8675623 0.403029 0.9298984 0.403029 0.9298984 0.3737539 0.898554 0.4472765 0.869279 0.4472765 0.8692789 0.3244715 0.6707628 0.5270492 0.6707628 0.06613355 0.6206183 0.06613355 0.8949173 0.07725119 0.8949173 0.3789976 0.872595 0.3789976 0.4845872 0.9940245 0.7821751 0.9940245 0.7821751 0.5572281 0.872595 0.07725119 0.872595 0.3789976 0.8949173 0.3789976 0.872595 0.006674289 0.8949173 0.006674289 0.8949173 0.4495745 0.8949173 0.006674289 0.872595 0.006674289 0.872595 0.4495745 0.4871101 0.9929301 0.4871101 0.5527754 0.4939237 0.5595889 0.4849696 0.919115 0.4849696 0.6192392 0.4917832 0.6260527 0.4929369 0.5527754 0.4929369 0.9929301 0.4861233 0.9861165 0.4950774 0.6192392 0.4950774 0.919115 0.4882639 0.9123014 0.4910271 0.04889351 0.8003541 0.04889351 0.8003541 0.5098091 0.6707628 0.06613355 0.6707628 0.5270492 0.6206184 0.5270492 0.8003541 0.3216636 0.4910271 0.3216636 0.4910271 0.2715191 0.4910271 0.3216636 0.8003541 0.3216636 0.8003541 0.2715191 0.2929891 0.5683949 0.3055945 0.5683949 0.3055945 0.07912713 0.2970849 0.5683949 0.2822664 0.5683949 0.2822664 0.07912713 0.3007797 0.5683949 0.2851986 0.5683949 0.2851986 0.07912713 0.2822664 0.5683949 0.2970849 0.5683949 0.2970849 0.07912713 0.2803838 0.5683949 0.2929891 0.5683949 0.2929891 0.07912713 0.8426964 0.9631706 0.8543185 0.9631706 0.8543185 0.5716338 0.8426964 0.9631706 0.8846389 0.9631706 0.8846389 0.5716338 0.8543185 0.9631706 0.8426964 0.9631706 0.8426964 0.5716338 0.8846389 0.9631706 0.8426964 0.9631706 0.8426964 0.5716338 0.8846389 0.5832558 0.8846389 0.5716338 0.8426964 0.5716338 0.8426964 0.5832558 0.8426964 0.5716338 0.8846389 0.5716338 0.8543185 0.5716338 0.8543185 0.9631706 0.8426964 0.9631706 0.8846389 0.5716338 0.8846389 0.9631706 0.8426964 0.9631706 0.8426964 0.5716338 0.8426964 0.9631706 0.8543185 0.9631706 0.8426964 0.5716338 0.8426964 0.9631706 0.8846389 0.9631706 0.8426964 0.5716338 0.8846389 0.5716338 0.8846389 0.5832558 0.8846389 0.5716338 0.8426964 0.5716338 0.8426964 0.5832558</float_array>
          <technique_common>
            <accessor source="#Waffle_Machine_Top-mesh-map-0-array" count="246" stride="2">
              <param name="S" type="float"/>
              <param name="T" type="float"/>
            </accessor>
          </technique_common>
        </source>
        <vertices id="Waffle_Machine_Top-mesh-vertices">
          <input semantic="POSITION" source="#Waffle_Machine_Top-mesh-positions"/>
        </vertices>
        <triangles material="Waffle_Machine-material" count="82">
          <input semantic="VERTEX" source="#Waffle_Machine_Top-mesh-vertices" offset="0"/>
          <input semantic="NORMAL" source="#Waffle_Machine_Top-mesh-normals" offset="1"/>
          <input semantic="TEXCOORD" source="#Waffle_Machine_Top-mesh-map-0" offset="2" set="0"/>
          <p>1 0 0 2 0 1 0 0 2 3 1 3 6 1 4 2 1 5 7 2 6 4 2 7 6 2 8 5 3 9 0 3 10 4 3 11 6 4 12 0 4 13 2 4 14 10 0 15 9 0 16 8 0 17 14 3 18 11 3 19 10 3 20 12 2 21 15 2 22 14 2 23 8 1 24 13 1 25 12 1 26 8 4 27 14 4 28 10 4 29 30 4 30 19 4 31 17 4 32 22 1 33 27 1 34 24 1 35 20 2 36 23 2 37 22 2 38 25 3 39 21 3 40 20 3 41 25 5 42 22 5 43 24 5 44 21 4 45 27 4 46 23 4 47 25 0 48 18 0 49 16 0 50 26 0 51 16 0 52 17 0 53 27 0 54 17 0 55 19 0 56 24 0 57 19 0 58 18 0 59 28 0 60 30 0 61 29 0 62 28 5 63 16 5 64 18 5 65 31 1 66 18 1 67 19 1 68 29 3 69 17 3 70 16 3 71 33 6 72 34 6 73 32 6 74 35 7 75 36 7 76 34 7 77 37 8 78 38 8 79 36 8 80 39 9 81 40 9 82 38 9 83 41 10 84 32 10 85 40 10 86 43 0 87 44 0 88 42 0 89 45 1 90 48 1 91 44 1 92 49 2 93 46 2 94 48 2 95 47 3 96 42 3 97 46 3 98 48 4 99 42 4 100 44 4 101 45 5 102 47 5 103 49 5 104 52 0 105 51 0 106 50 0 107 56 3 108 53 3 109 52 3 110 54 2 111 57 2 112 56 2 113 50 1 114 55 1 115 54 1 116 50 4 117 56 4 118 52 4 119 55 5 120 53 5 121 57 5 122 1 0 123 3 0 124 2 0 125 3 1 126 7 1 127 6 1 128 7 2 129 5 2 130 4 2 131 5 3 132 1 3 133 0 3 134 6 4 135 4 4 136 0 4 137 10 0 138 11 0 139 9 0 140 14 3 141 15 3 142 11 3 143 12 2 144 13 2 145 15 2 146 8 1 147 9 1 148 13 1 149 8 4 150 12 4 151 14 4 152 30 4 153 31 4 154 19 4 155 22 1 156 23 1 157 27 1 158 20 2 159 21 2 160 23 2 161 25 3 162 26 3 163 21 3 164 25 5 165 20 5 166 22 5 167 21 4 168 26 4 169 27 4 170 25 0 171 24 0 172 18 0 173 26 11 174 25 11 175 16 11 176 27 0 177 26 0 178 17 0 179 24 12 180 27 12 181 19 12 182 28 0 183 31 0 184 30 0 185 28 5 186 29 5 187 16 5 188 31 1 189 28 1 190 18 1 191 29 3 192 30 3 193 17 3 194 33 13 195 35 13 196 34 13 197 35 14 198 37 14 199 36 14 200 37 8 201 39 8 202 38 8 203 39 15 204 41 15 205 40 15 206 41 16 207 33 16 208 32 16 209 43 0 210 45 0 211 44 0 212 45 1 213 49 1 214 48 1 215 49 2 216 47 2 217 46 2 218 47 3 219 43 3 220 42 3 221 48 4 222 46 4 223 42 4 224 45 5 225 43 5 226 47 5 227 52 0 228 53 0 229 51 0 230 56 3 231 57 3 232 53 3 233 54 2 234 55 2 235 57 2 236 50 1 237 51 1 238 55 1 239 50 4 240 54 4 241 56 4 242 55 5 243 51 5 244 53 5 245</p>
        </triangles>
      </mesh>
    </geometry>
    <geometry id="Waffle_Machine-mesh" name="Waffle_Machine">
      <mesh>
        <source id="Waffle_Machine-mesh-positions">
          <float_array id="Waffle_Machine-mesh-positions-array" count="240">-0.4201663 -0.7406856 -0.5179116 -0.4201663 -0.7406856 0.4771661 -0.4201663 0.7198792 -0.5179116 -0.4201663 0.7198792 0.4771661 -0.2391461 -0.7406856 -0.5179116 -0.2391461 -0.7406856 0.4771661 -0.2391461 0.7198792 -0.5179116 -0.2391461 0.7198792 0.4771661 -0.1308014 -0.9087936 -0.6630421 -0.1308014 -0.9087936 0.6222968 -0.1308014 0.8879871 -0.6630421 -0.1308014 0.8879871 0.6222968 0.4254578 -0.9475921 -0.7046203 0.4254578 -0.9475921 0.6638749 0.4254578 0.9267857 -0.7046203 0.4254578 0.9267857 0.6638749 -0.1308014 0.9267857 -0.7046203 -0.1308014 -0.9475921 -0.7046203 -0.1308014 -0.9475921 0.6638749 -0.1308014 0.9267857 0.6638749 -0.2658868 0.8595927 -0.64273 -0.2658868 -0.8803991 -0.64273 -0.2658868 -0.8803991 0.6019846 -0.2658868 0.8595927 0.6019846 0.1635681 -0.06838142 0.6591196 0.1635681 -0.06838142 0.6897007 0.2085964 -0.1010964 0.6591196 0.2085964 -0.1010964 0.6897007 0.1913971 -0.1540303 0.6591196 0.1913971 -0.1540303 0.6897007 0.1357392 -0.1540303 0.6591196 0.1357392 -0.1540303 0.6897007 0.1185399 -0.1010964 0.6591196 0.1185399 -0.1010964 0.6897007 0.1635681 -0.2800218 0.6591196 0.1635681 -0.2800218 0.6897007 0.2085964 -0.3127368 0.6591196 0.2085964 -0.3127368 0.6897007 0.1913971 -0.3656707 0.6591196 0.1913971 -0.3656707 0.6897007 0.1357392 -0.3656707 0.6591196 0.1357392 -0.3656707 0.6897007 0.1185399 -0.3127368 0.6591196 0.1185399 -0.3127368 0.6897007 0.1676952 0.3986373 0.6593329 0.1676952 0.3370034 0.7282103 0.3186627 0.3114762 0.6593329 0.2652861 0.2806592 0.7282103 0.3186627 0.137154 0.6593329 0.2652861 0.167971 0.7282103 0.1676952 0.04999291 0.6593329 0.1676952 0.1116268 0.7282103 0.01672774 0.137154 0.6593329 0.0701043 0.167971 0.7282103 0.01672774 0.3114762 0.6593329 0.0701043 0.2806592 0.7282103 0.2652861 0.2806592 0.8134366 0.1676952 0.3370034 0.8134366 0.2652861 0.167971 0.8134366 0.1676952 0.1116268 0.8134366 0.0701043 0.167971 0.8134366 0.0701043 0.2806592 0.8134366 0.1676952 0.8507552 0.6593329 0.1676952 0.7257863 0.7333244 0.3186627 0.7635942 0.6593329 0.2550382 0.7011097 0.7333244 0.3186627 0.5892719 0.6593329 0.2550382 0.6517564 0.7333244 0.1676952 0.5021108 0.6593329 0.1676952 0.6270798 0.7333244 0.01672774 0.5892719 0.6593329 0.08035224 0.6517564 0.7333244 0.01672774 0.7635942 0.6593329 0.08035224 0.7011097 0.7333244 0.2550382 0.7011097 0.8096011 0.1676952 0.7257863 0.8096011 0.2550382 0.6517564 0.8096011 0.1676952 0.6270798 0.8096011 0.08035224 0.6517564 0.8096011 0.08035224 0.7011097 0.8096011</float_array>
          <technique_common>
            <accessor source="#Waffle_Machine-mesh-positions-array" count="80" stride="3">
              <param name="X" type="float"/>
              <param name="Y" type="float"/>
              <param name="Z" type="float"/>
            </accessor>
          </technique_common>
        </source>
        <source id="Waffle_Machine-mesh-normals">
          <float_array id="Waffle_Machine-mesh-normals-array" count="219">-1 0 0 0 1 0 0 -1 0 0 0 -1 0 0 1 -0.2057013 0.9786149 0 1 0 0 -1 2.98804e-7 0 -1 -2.98804e-7 0 -0.2057017 -0.9786148 0 -0.1486942 0 0.9888833 -0.1486935 0 -0.9888834 0.5877847 0.8090175 0 0.951056 -0.3090187 0 -0.951056 -0.3090189 0 -0.5877844 0.8090177 0 0.9510565 -0.3090174 0 -0.9510564 -0.3090176 0 0.3952163 0.684536 0.6125476 0.7904343 0 0.612547 0.3952173 -0.6845361 0.6125468 -0.3952174 -0.6845362 0.6125466 -0.5000004 -0.8660253 0 -0.7904347 0 0.6125465 -0.3952165 0.6845363 0.6125472 0.5000007 0.866025 0 0.5000005 -0.8660252 0 -0.5000004 0.8660252 0 0.2821915 0.488769 0.8255137 0.7582265 0 0.6519914 0.2821915 -0.488769 0.8255137 -0.2821915 -0.4887689 0.8255137 -0.2718829 -0.9623304 0 -0.7582269 0 0.6519908 -0.2821916 0.4887692 0.8255136 -8.64205e-7 0 1 0.271883 0.9623304 0 0.271883 -0.9623304 0 -0.271883 0.9623304 0 -0.2057012 0.9786148 0 -0.2057017 -0.9786148 0 -0.1486925 0 0.9888835 -0.148694 0 -0.9888833 0.5877863 0.8090163 0 0.9510569 -0.3090161 0 1.26444e-6 0 1 -2.52888e-6 0 1 -0.9510568 -0.3090164 0 -0.5877861 0.8090165 0 0.3952176 0.6845363 0.6125465 0.790434 0 0.6125475 0.3952175 -0.6845362 0.6125467 -0.3952175 -0.6845361 0.6125468 -0.4999998 -0.8660255 0 -0.7904341 0 0.6125471 -0.3952175 0.6845363 0.6125466 6.7749e-7 0 1 -1.35498e-6 0 1 0.5 0.8660255 0 0.5000001 -0.8660254 0 -0.4999998 0.8660256 0 0.1878375 0.6648502 0.722974 0.7582261 0 0.6519917 0.1878373 -0.6648506 0.7229737 -0.1878376 -0.6648508 0.7229735 -0.271883 -0.9623304 0 -0.7582261 0 0.6519917 -0.187837 0.6648501 0.7229743 1.72841e-6 0 1 -1.72841e-6 0 1 0.271883 0.9623304 0 0.271883 -0.9623304 0 -0.2718829 0.9623304 0</float_array>
          <technique_common>
            <accessor source="#Waffle_Machine-mesh-normals-array" count="73" stride="3">
              <param name="X" type="float"/>
              <param name="Y" type="float"/>
              <param name="Z" type="float"/>
            </accessor>
          </technique_common>
        </source>
        <source id="Waffle_Machine-mesh-map-0">
          <float_array id="Waffle_Machine-mesh-map-0-array" count="720">0.7805567 0.9937571 0.4774127 0.5488056 0.4774127 0.9937571 0.8719877 0.3794929 0.9268063 0.07815176 0.8719877 0.07815176 0.9268063 0.3794929 0.8719877 0.07815176 0.9268063 0.07815176 0.9268063 0.4499751 0.8719877 0.007669627 0.8719877 0.4499751 0.8690927 0.4511943 0.9242393 0.006242811 0.9242393 0.4511943 0.4112886 0.5661061 0.3701357 0.9514883 0.4112886 0.9576762 0.7930424 0.9657087 0.9625031 0.5488056 0.7930424 0.5488056 0.8382673 0.02251756 0.4700347 0.5268722 0.4700347 0.02251756 0.9672974 0.9679872 0.7995349 0.5552621 0.9672974 0.5552621 0.3576501 0.5772598 0.1881892 0.006242811 0.1881892 0.5772598 0.006242811 0.5772598 0.1757036 0.006242811 0.1757036 0.5772598 0.5359634 0.4577819 0.5283678 0.09843003 0.5359634 0.1060256 0.5359634 0.1060256 0.7783678 0.09843003 0.7707722 0.1060256 0.7707722 0.1060256 0.7783678 0.4653775 0.7707722 0.4577819 0.7707722 0.4577819 0.5283678 0.4653775 0.5359634 0.4577819 0.856607 0.53632 0.4774128 0.006242871 0.4774128 0.53632 0.4649271 0.9576762 0.4237743 0.5722941 0.4649271 0.5661061 0.4112886 0.5536204 0.3701357 0.01489305 0.4112886 0.006242811 0.4649271 0.5536204 0.4237743 0.01489305 0.4237743 0.5449701 0.8911877 0.4870995 0.8906292 0.5065324 0.9000434 0.4934931 0.8890742 0.490027 0.9089968 0.481092 0.8979298 0.4964206 0.8853695 0.4951581 0.9058617 0.4854344 0.8942251 0.5015518 0.884253 0.5054129 0.8842529 0.46368 0.9087828 0.4716503 0.9001411 0.4746984 0.8979298 0.4964206 0.9089968 0.481092 0.9006019 0.4740602 0.9000434 0.4934931 0.9094575 0.4804538 0.07720738 0.8721154 0.05429863 0.887674 0.07720738 0.887674 0.07206404 0.8721154 0.09899491 0.887674 0.07206404 0.887674 0.06304901 0.8721154 0.09136581 0.887674 0.06304901 0.887674 0.09376585 0.8928391 0.06923586 0.9008094 0.05407553 0.879943 0.09899491 0.8721154 0.07206404 0.887674 0.09899491 0.887674 0.1001161 0.8721154 0.07720738 0.887674 0.1001161 0.887674 0.006242811 0.6597049 0.03816115 0.6144806 0.006242811 0.5897455 0.2814977 0.7564307 0.2495794 0.822932 0.2495794 0.7421499 0.1220595 0.6144806 0.09014117 0.6597049 0.09014117 0.5897455 0.1220595 0.6597049 0.09014117 0.7296642 0.09014117 0.6597049 0.1220595 0.6597049 0.1615539 0.7049291 0.1220595 0.7049291 0.1975993 0.8086512 0.165681 0.7421499 0.165681 0.822932 0.03816115 0.7049291 0.006242811 0.6597049 0.006242811 0.7296642 0.006242871 0.8204806 0.05146723 0.7421498 0.09669154 0.8204805 0.2814977 0.7564307 0.3209921 0.8086512 0.2814977 0.8086512 0.1975993 0.8086512 0.2370938 0.7564307 0.1975993 0.7564307 0.03816115 0.6597049 0.07765555 0.6144806 0.03816115 0.6144806 0.1220595 0.6144806 0.1615539 0.6597049 0.1220595 0.6597049 0.03816115 0.7049291 0.07765555 0.6597049 0.03816115 0.6597049 0.2673075 0.6597048 0.2848278 0.5897455 0.3252189 0.6597048 0.2820902 0.8643733 0.247802 0.9161996 0.247802 0.8354176 0.2029954 0.7296642 0.1854749 0.6597048 0.2433864 0.6597048 0.1854749 0.6597048 0.2029954 0.5897454 0.2433864 0.6597048 0.1091771 0.8792302 0.1445243 0.9197054 0.1091771 0.9197054 0.1999692 0.8872439 0.165681 0.8354176 0.165681 0.9161996 0.2848278 0.7296642 0.2673075 0.6597048 0.3252189 0.6597048 0.1091771 0.7779914 0.1311863 0.7421498 0.1531953 0.7904276 0.2820902 0.8643733 0.3174374 0.8872439 0.2820902 0.8872439 0.1999692 0.8872439 0.2353163 0.8643733 0.1999692 0.8643733 0.006242811 0.8995518 0.04158991 0.8590764 0.006242811 0.8590764 0.1091771 0.8387548 0.1445243 0.8792302 0.1091771 0.8792302 0.006242811 0.940027 0.04158991 0.8995518 0.006242811 0.8995518 0.7805567 0.9937571 0.7805567 0.5488056 0.4774127 0.5488056 0.8719877 0.3794929 0.9268063 0.3794929 0.9268063 0.07815176 0.9268063 0.3794929 0.8719877 0.3794929 0.8719877 0.07815176 0.9268063 0.4499751 0.9268063 0.007669627 0.8719877 0.007669627 0.8690927 0.4511943 0.8690927 0.006242811 0.9242393 0.006242811 0.4112886 0.5661061 0.3701357 0.5722941 0.3701357 0.9514883 0.7930424 0.9657087 0.9625031 0.9657087 0.9625031 0.5488056 0.8382673 0.02251756 0.8382673 0.5268722 0.4700347 0.5268722 0.9672974 0.9679872 0.7995349 0.9679872 0.7995349 0.5552621 0.3576501 0.5772598 0.3576501 0.006242811 0.1881892 0.006242811 0.006242811 0.5772598 0.006242811 0.006242811 0.1757036 0.006242811 0.5359634 0.4577819 0.5283678 0.4653775 0.5283678 0.09843003 0.5359634 0.1060256 0.5283678 0.09843003 0.7783678 0.09843003 0.7707722 0.1060256 0.7783678 0.09843003 0.7783678 0.4653775 0.7707722 0.4577819 0.7783678 0.4653775 0.5283678 0.4653775 0.856607 0.53632 0.856607 0.006242811 0.4774128 0.006242871 0.4649271 0.9576762 0.4237743 0.9514883 0.4237743 0.5722941 0.4112886 0.5536204 0.3701357 0.5449701 0.3701357 0.01489305 0.4649271 0.5536204 0.4649271 0.006242811 0.4237743 0.01489305 0.8911877 0.4870995 0.8817736 0.5001387 0.8906292 0.5065324 0.8890742 0.490027 0.9001411 0.4746984 0.9089968 0.481092 0.8853695 0.4951581 0.897006 0.4790408 0.9058617 0.4854344 0.9087828 0.4716503 0.9087828 0.4974426 0.884253 0.5054129 0.884253 0.5054129 0.8690925 0.4845466 0.8842529 0.46368 0.9001411 0.4746984 0.8890742 0.490027 0.8979298 0.4964206 0.9006019 0.4740602 0.8911877 0.4870995 0.9000434 0.4934931 0.07720738 0.8721154 0.05429863 0.8721154 0.05429863 0.887674 0.07206404 0.8721154 0.09899491 0.8721154 0.09899491 0.887674 0.06304901 0.8721154 0.09136581 0.8721154 0.09136581 0.887674 0.06923586 0.8590765 0.09376585 0.8670468 0.05407553 0.879943 0.09376585 0.8670468 0.09376585 0.8928391 0.05407553 0.879943 0.09899491 0.8721154 0.07206404 0.8721154 0.07206404 0.887674 0.1001161 0.8721154 0.07720738 0.8721154 0.07720738 0.887674 0.006242811 0.6597049 0.03816115 0.6597049 0.03816115 0.6144806 0.2814977 0.7564307 0.2814977 0.8086512 0.2495794 0.822932 0.1220595 0.6144806 0.1220595 0.6597049 0.09014117 0.6597049 0.1220595 0.6597049 0.1220595 0.7049291 0.09014117 0.7296642 0.1220595 0.6597049 0.1615539 0.6597049 0.1615539 0.7049291 0.1975993 0.8086512 0.1975993 0.7564307 0.165681 0.7421499 0.03816115 0.7049291 0.03816115 0.6597049 0.006242811 0.6597049 0.09669154 0.8204805 0.05146723 0.8465908 0.006242871 0.8204806 0.006242871 0.8204806 0.00624293 0.7682601 0.05146723 0.7421498 0.05146723 0.7421498 0.09669154 0.76826 0.09669154 0.8204805 0.2814977 0.7564307 0.3209921 0.7564307 0.3209921 0.8086512 0.1975993 0.8086512 0.2370938 0.8086512 0.2370938 0.7564307 0.03816115 0.6597049 0.07765555 0.6597049 0.07765555 0.6144806 0.1220595 0.6144806 0.1615539 0.6144806 0.1615539 0.6597049 0.03816115 0.7049291 0.07765555 0.7049291 0.07765555 0.6597049 0.2673075 0.6597048 0.2558721 0.6192295 0.2848278 0.5897455 0.2820902 0.8643733 0.2820902 0.8872439 0.247802 0.9161996 0.2029954 0.7296642 0.1740396 0.7001801 0.1854749 0.6597048 0.1854749 0.6597048 0.1740396 0.6192294 0.2029954 0.5897454 0.1091771 0.8792302 0.1445243 0.8792302 0.1445243 0.9197054 0.1999692 0.8872439 0.1999692 0.8643733 0.165681 0.8354176 0.2848278 0.7296642 0.2558721 0.7001801 0.2673075 0.6597048 0.1311863 0.7421498 0.1531953 0.7483679 0.1531953 0.7904276 0.1531953 0.7904276 0.1311862 0.8262692 0.1091771 0.8200511 0.1091771 0.8200511 0.1091771 0.7779914 0.1531953 0.7904276 0.2820902 0.8643733 0.3174374 0.8643733 0.3174374 0.8872439 0.1999692 0.8872439 0.2353163 0.8872439 0.2353163 0.8643733 0.006242811 0.8995518 0.04158991 0.8995518 0.04158991 0.8590764 0.1091771 0.8387548 0.1445243 0.8387548 0.1445243 0.8792302 0.006242811 0.940027 0.04158991 0.940027 0.04158991 0.8995518</float_array>
          <technique_common>
            <accessor source="#Waffle_Machine-mesh-map-0-array" count="360" stride="2">
              <param name="S" type="float"/>
              <param name="T" type="float"/>
            </accessor>
          </technique_common>
        </source>
        <vertices id="Waffle_Machine-mesh-vertices">
          <input semantic="POSITION" source="#Waffle_Machine-mesh-positions"/>
        </vertices>
        <triangles material="Waffle_Machine-material" count="120">
          <input semantic="VERTEX" source="#Waffle_Machine-mesh-vertices" offset="0"/>
          <input semantic="NORMAL" source="#Waffle_Machine-mesh-normals" offset="1"/>
          <input semantic="TEXCOORD" source="#Waffle_Machine-mesh-map-0" offset="2" set="0"/>
          <p>1 0 0 2 0 1 0 0 2 3 1 3 6 1 4 2 1 5 5 2 6 0 2 7 4 2 8 6 3 9 0 3 10 2 3 11 3 4 12 5 4 13 7 4 14 10 5 15 23 5 16 11 5 17 19 1 18 14 1 19 16 1 20 15 6 21 12 6 22 14 6 23 13 2 24 17 2 25 12 2 26 14 3 27 17 3 28 16 3 29 19 4 30 13 4 31 15 4 32 10 0 33 17 0 34 8 0 35 8 7 36 18 7 37 9 7 38 9 0 39 19 0 40 11 0 41 11 8 42 16 8 43 10 8 44 22 0 45 20 0 46 21 0 47 9 9 48 21 9 49 8 9 50 11 10 51 22 10 52 9 10 53 10 11 54 21 11 55 20 11 56 25 12 57 26 12 58 24 12 59 27 13 60 28 13 61 26 13 62 29 2 63 30 2 64 28 2 65 25 4 66 31 4 67 29 4 68 31 14 69 32 14 70 30 14 71 33 15 72 24 15 73 32 15 74 35 12 75 36 12 76 34 12 77 37 16 78 38 16 79 36 16 80 39 2 81 40 2 82 38 2 83 35 4 84 43 4 85 41 4 86 41 17 87 42 17 88 40 17 89 43 15 90 34 15 91 42 15 92 44 18 93 47 18 94 46 18 95 47 19 96 48 19 97 46 19 98 49 20 99 50 20 100 48 20 101 51 21 102 52 21 103 50 21 104 51 22 105 60 22 106 53 22 107 53 23 108 54 23 109 52 23 110 55 24 111 44 24 112 54 24 113 57 4 114 60 4 115 58 4 116 47 6 117 58 6 118 49 6 119 53 0 120 61 0 121 55 0 122 45 25 123 56 25 124 47 25 125 49 26 126 59 26 127 51 26 128 55 27 129 57 27 130 45 27 131 63 28 132 64 28 133 62 28 134 65 29 135 66 29 136 64 29 137 66 30 138 69 30 139 68 30 140 69 31 141 70 31 142 68 31 143 69 32 144 78 32 145 71 32 146 71 33 147 72 33 148 70 33 149 72 34 150 63 34 151 62 34 152 77 35 153 76 35 154 75 35 155 65 6 156 76 6 157 67 6 158 71 0 159 79 0 160 73 0 161 63 36 162 74 36 163 65 36 164 67 37 165 77 37 166 69 37 167 73 38 168 75 38 169 63 38 170 1 0 171 3 0 172 2 0 173 3 1 174 7 1 175 6 1 176 5 2 177 1 2 178 0 2 179 6 3 180 4 3 181 0 3 182 3 4 183 1 4 184 5 4 185 10 39 186 20 39 187 23 39 188 19 1 189 15 1 190 14 1 191 15 6 192 13 6 193 12 6 194 13 2 195 18 2 196 17 2 197 14 3 198 12 3 199 17 3 200 19 4 201 18 4 202 13 4 203 10 0 204 16 0 205 17 0 206 8 0 207 17 0 208 18 0 209 9 0 210 18 0 211 19 0 212 11 0 213 19 0 214 16 0 215 22 0 216 23 0 217 20 0 218 9 40 219 22 40 220 21 40 221 11 41 222 23 41 223 22 41 224 10 42 225 8 42 226 21 42 227 25 43 228 27 43 229 26 43 230 27 44 231 29 44 232 28 44 233 29 2 234 31 2 235 30 2 236 29 45 237 27 45 238 25 45 239 25 46 240 33 46 241 31 46 242 31 47 243 33 47 244 32 47 245 33 48 246 25 48 247 24 48 248 35 43 249 37 43 250 36 43 251 37 44 252 39 44 253 38 44 254 39 2 255 41 2 256 40 2 257 39 4 258 37 4 259 41 4 260 37 4 261 35 4 262 41 4 263 41 47 264 43 47 265 42 47 266 43 48 267 35 48 268 34 48 269 44 49 270 45 49 271 47 49 272 47 50 273 49 50 274 48 50 275 49 51 276 51 51 277 50 51 278 51 52 279 53 52 280 52 52 281 51 53 282 59 53 283 60 53 284 53 54 285 55 54 286 54 54 287 55 55 288 45 55 289 44 55 290 58 56 291 56 56 292 57 56 293 57 57 294 61 57 295 60 57 296 60 4 297 59 4 298 58 4 299 47 6 300 56 6 301 58 6 302 53 0 303 60 0 304 61 0 305 45 58 306 57 58 307 56 58 308 49 59 309 58 59 310 59 59 311 55 60 312 61 60 313 57 60 314 63 61 315 65 61 316 64 61 317 65 62 318 67 62 319 66 62 320 66 63 321 67 63 322 69 63 323 69 64 324 71 64 325 70 64 326 69 65 327 77 65 328 78 65 329 71 66 330 73 66 331 72 66 332 72 67 333 73 67 334 63 67 335 76 68 336 74 68 337 75 68 338 75 69 339 79 69 340 78 69 341 78 4 342 77 4 343 75 4 344 65 6 345 74 6 346 76 6 347 71 0 348 78 0 349 79 0 350 63 70 351 75 70 352 74 70 353 67 71 354 76 71 355 77 71 356 73 72 357 79 72 358 75 72 359</p>
        </triangles>
      </mesh>
    </geometry>
  </library_geometries>
  <library_visual_scenes>
    <visual_scene id="Scene" name="Scene">
      <node id="Waffle_Machine" name="Waffle_Machine" type="NODE">
        <matrix sid="transform">2.69401e-8 0.3568321 4.25518e-9 0 0 4.25518e-9 -0.3568321 0 -0.3568321 2.69401e-8 3.21257e-16 0 0 0 0 1</matrix>
        <instance_geometry url="#Waffle_Machine-mesh" name="Waffle_Machine">
          <bind_material>
            <technique_common>
              <instance_material symbol="Waffle_Machine-material" target="#Waffle_Machine-material">
                <bind_vertex_input semantic="UVMap" input_semantic="TEXCOORD" input_set="0"/>
              </instance_material>
            </technique_common>
          </bind_material>
        </instance_geometry>
        <node id="Waffle_Machine_Top" name="Waffle_Machine_Top" type="NODE">
          <matrix sid="transform">9.00303e-16 7.54979e-8 -1 -0.4226311 2.66454e-15 1 7.54979e-8 -0.01042315 1 -2.66454e-15 9.00303e-16 -0.5174607 0 0 0 1</matrix>
          <instance_geometry url="#Waffle_Machine_Top-mesh" name="Waffle_Machine_Top">
            <bind_material>
              <technique_common>
                <instance_material symbol="Waffle_Machine-material" target="#Waffle_Machine-material">
                  <bind_vertex_input semantic="UVMap" input_semantic="TEXCOORD" input_set="0"/>
                </instance_material>
              </technique_common>
            </bind_material>
          </instance_geometry>
        </node>
      </node>
    </visual_scene>
  </library_visual_scenes>
  <scene>
    <instance_visual_scene url="#Scene"/>
  </scene>
</COLLADA>