<?xml version="1.0" encoding="utf-8"?>
<COLLADA xmlns="http://www.collada.org/2005/11/COLLADASchema" version="1.4.1" xmlns:xsi="http://www.w3.org/2001/XMLSchema-instance">
  <asset>
    <contributor>
      <author>Blender User</author>
      <authoring_tool>Blender 4.0.1 commit date:2023-11-16, commit time:16:40, hash:d0dd92834a08</authoring_tool>
    </contributor>
    <created>2023-11-28T13:25:04</created>
    <modified>2023-11-28T13:25:04</modified>
    <unit name="meter" meter="1"/>
    <up_axis>Z_UP</up_axis>
  </asset>
  <library_effects>
    <effect id="Drink_machine-effect">
      <profile_COMMON>
        <newparam sid="Drink_machine-surface">
          <surface type="2D">
            <init_from>Drink_machine</init_from>
          </surface>
        </newparam>
        <newparam sid="Drink_machine-sampler">
          <sampler2D>
            <source>Drink_machine-surface</source>
          </sampler2D>
        </newparam>
        <technique sid="common">
          <lambert>
            <emission>
              <color sid="emission">0 0 0 1</color>
            </emission>
            <diffuse>
              <texture texture="Drink_machine-sampler" texcoord="UVMap"/>
            </diffuse>
            <index_of_refraction>
              <float sid="ior">1.45</float>
            </index_of_refraction>
          </lambert>
        </technique>
      </profile_COMMON>
    </effect>
  </library_effects>
  <library_images>
    <image id="Drink_machine" name="Drink_machine">
      <init_from>Drink_machine.png</init_from>
    </image>
  </library_images>
  <library_materials>
    <material id="Drink_machine-material" name="Drink_machine">
      <instance_effect url="#Drink_machine-effect"/>
    </material>
  </library_materials>
  <library_geometries>
    <geometry id="Drink_machine-mesh" name="Drink_machine">
      <mesh>
        <source id="Drink_machine-mesh-positions">
          <float_array id="Drink_machine-mesh-positions-array" count="672">-0.7904133 -0.6741697 -0.8522044 -0.7904133 -0.6741697 -0.6374872 -0.7904133 0.6739148 -0.8522044 -0.7904133 0.6739148 -0.6374872 0.4435858 -0.6741697 -0.8522044 0.4435858 -0.6741697 -0.6374872 0.4435858 0.6739148 -0.8522044 0.4435858 0.6739148 -0.6374872 0.8817948 0.6739148 -0.6374872 0.8817948 0.6739148 -0.8522044 0.8817948 -0.6741697 -0.8522044 0.8817948 -0.6741697 -0.6374872 -0.7904133 -0.6741697 0.5560378 -0.7904133 0.6739148 0.5560378 0.4435858 0.6739148 0.5560378 0.4435858 -0.6741697 0.5560378 -0.7840287 -0.7264258 0.5560378 -0.8382472 -0.6671947 0.5560378 -0.7999846 -0.6846259 0.5560378 -0.8382471 0.6669399 0.5560378 -0.7840287 0.726171 0.5560378 -0.7999846 0.684371 0.5560378 0.4493102 0.7261709 0.5560378 0.5035288 0.6669399 0.5560378 0.4531571 0.684371 0.5560378 0.5035288 -0.6671947 0.5560378 0.4493102 -0.7264258 0.5560378 0.4531571 -0.6846259 0.5560378 -0.7752183 -0.6268218 0.8496096 -0.8225266 -0.6500208 0.805233 -0.7470724 -0.6575698 0.8496096 -0.7683081 -0.7092519 0.805233 -0.7470724 0.657315 0.8496096 -0.7683081 0.708997 0.805233 -0.7752183 0.626567 0.8496096 -0.8225266 0.6497659 0.805233 0.4404999 0.626567 0.8496096 0.4878082 0.6497659 0.805233 0.412354 0.657315 0.8496096 0.4335897 0.708997 0.805233 0.412354 -0.6575698 0.8496096 0.4335897 -0.7092519 0.805233 0.4404999 -0.6268218 0.8496096 0.4878082 -0.6500208 0.805233 -0.7904133 0.6739148 0.3259713 0.4435858 0.6739148 0.3259713 0.4435858 -0.6741697 0.3259713 -0.7904133 -0.6741697 0.3259713 0.4293045 -0.6001649 0.2891115 0.4293045 -0.3548274 0.2891115 0.4293045 -0.5931782 0.5985941 0.4293045 -0.5722093 0.6205423 0.4293045 -0.3827831 0.6205423 0.4293045 -0.3618143 0.5985941 0.6922862 -0.5796777 0.2891115 0.6702691 -0.6001649 0.2891115 0.6448626 -0.5722093 0.6205423 0.646461 -0.5931782 0.5985941 0.6684738 -0.5726897 0.5986505 0.6702691 -0.3548274 0.2891115 0.6922862 -0.3753145 0.2891115 0.6448626 -0.3827831 0.6205423 0.6684738 -0.3823027 0.5986505 0.646461 -0.3618143 0.5985941 0.6863331 -0.3770616 0.3817864 0.6643171 -0.3565741 0.3817722 0.6643171 -0.5984182 0.3817722 0.6863331 -0.5779307 0.3817864 0.4293045 -0.5984182 0.3817722 0.4293045 -0.3565741 0.3817722 0.566422 -0.5341463 0.2948265 0.566422 -0.5241136 0.2115794 0.5125446 -0.495002 0.2948265 0.5230934 -0.4926336 0.2115794 0.5331239 -0.4316653 0.2948265 0.5396435 -0.4416978 0.2115794 0.5997201 -0.4316653 0.2948265 0.5932005 -0.4416978 0.2115794 0.6202995 -0.495002 0.2948265 0.6097505 -0.4926336 0.2115794 0.4764592 -0.4979081 -0.04005199 0.4764592 -0.4936619 0.2930413 0.4764592 -0.4570847 -0.04005199 0.4764592 -0.4613304 0.2930413 0.495559 -0.4979081 -0.04005199 0.495559 -0.4936619 0.2930413 0.495559 -0.4570847 -0.04005199 0.495559 -0.4613304 0.2930413 0.5317572 -0.4532756 -0.1023004 0.5317572 -0.5017173 -0.1023004 0.5508571 -0.4532756 -0.1023004 0.5508571 -0.5017173 -0.1023004 0.4293045 -0.281226 0.2891115 0.4293045 -0.03588849 0.2891115 0.4293045 -0.2742394 0.5985941 0.4293045 -0.2532705 0.6205423 0.4293045 -0.06384426 0.6205423 0.4293045 -0.0428754 0.5985941 0.6922862 -0.2607389 0.2891115 0.6702691 -0.281226 0.2891115 0.6448626 -0.2532705 0.6205423 0.646461 -0.2742394 0.5985941 0.6684738 -0.2537509 0.5986505 0.6702691 -0.03588849 0.2891115 0.6922862 -0.05637562 0.2891115 0.6448626 -0.06384426 0.6205423 0.6684738 -0.06336385 0.5986505 0.646461 -0.0428754 0.5985941 0.6863331 -0.05812269 0.3817864 0.6643171 -0.0376352 0.3817722 0.6643171 -0.2794794 0.3817722 0.6863331 -0.2589919 0.3817864 0.4293045 -0.2794794 0.3817722 0.4293045 -0.0376352 0.3817722 0.566422 -0.2152074 0.2948265 0.566422 -0.2051748 0.2115794 0.5125446 -0.1760632 0.2948265 0.5230934 -0.1736947 0.2115794 0.5331239 -0.1127264 0.2948265 0.5396435 -0.122759 0.2115794 0.5997201 -0.1127264 0.2948265 0.5932005 -0.122759 0.2115794 0.6202995 -0.1760632 0.2948265 0.6097505 -0.1736947 0.2115794 0.4764592 -0.1789693 -0.04005199 0.4764592 -0.1747231 0.2930413 0.4764592 -0.1381459 -0.04005199 0.4764592 -0.1423916 0.2930413 0.495559 -0.1789693 -0.04005199 0.495559 -0.1747231 0.2930413 0.495559 -0.1381459 -0.04005199 0.495559 -0.1423916 0.2930413 0.5317572 -0.1343368 -0.1023004 0.5317572 -0.1827785 -0.1023004 0.5508571 -0.1343368 -0.1023004 0.5508571 -0.1827785 -0.1023004 0.4293045 0.03771269 0.2891115 0.4293045 0.2830503 0.2891115 0.4293045 0.04469943 0.5985941 0.4293045 0.06566828 0.6205423 0.4293045 0.2550945 0.6205423 0.4293045 0.2760633 0.5985941 0.6922862 0.05819988 0.2891115 0.6702691 0.03771269 0.2891115 0.6448626 0.06566828 0.6205423 0.646461 0.04469943 0.5985941 0.6684738 0.06518787 0.5986505 0.6702691 0.2830503 0.2891115 0.6922862 0.2625631 0.2891115 0.6448626 0.2550945 0.6205423 0.6684738 0.255575 0.5986505 0.646461 0.2760633 0.5985941 0.6863331 0.260816 0.3817864 0.6643171 0.2813035 0.3817722 0.6643171 0.0394594 0.3817722 0.6863331 0.05994683 0.3817864 0.4293045 0.0394594 0.3817722 0.4293045 0.2813035 0.3817722 0.566422 0.1037313 0.2948265 0.566422 0.113764 0.2115794 0.5125446 0.1428756 0.2948265 0.5230934 0.145244 0.2115794 0.5331239 0.2062124 0.2948265 0.5396435 0.1961798 0.2115794 0.5997201 0.2062124 0.2948265 0.5932005 0.1961798 0.2115794 0.6202995 0.1428756 0.2948265 0.6097505 0.145244 0.2115794 0.4764592 0.1399695 -0.04005199 0.4764592 0.1442157 0.2930413 0.4764592 0.1807929 -0.04005199 0.4764592 0.1765472 0.2930413 0.495559 0.1399695 -0.04005199 0.495559 0.1442157 0.2930413 0.495559 0.1807929 -0.04005199 0.495559 0.1765472 0.2930413 0.5317572 0.184602 -0.1023004 0.5317572 0.1361603 -0.1023004 0.5508571 0.184602 -0.1023004 0.5508571 0.1361603 -0.1023004 0.4293045 0.3566515 0.2891115 0.4293045 0.6019892 0.2891115 0.4293045 0.3636382 0.5985941 0.4293045 0.3846071 0.6205423 0.4293045 0.5740334 0.6205423 0.4293045 0.5950022 0.5985941 0.6922862 0.3771387 0.2891115 0.6702691 0.3566515 0.2891115 0.6448626 0.3846071 0.6205423 0.646461 0.3636382 0.5985941 0.6684738 0.3841267 0.5986505 0.6702691 0.6019892 0.2891115 0.6922862 0.581502 0.2891115 0.6448626 0.5740334 0.6205423 0.6684738 0.5745138 0.5986505 0.646461 0.5950022 0.5985941 0.6863331 0.579755 0.3817864 0.6643171 0.6002424 0.3817722 0.6643171 0.3583982 0.3817722 0.6863331 0.3788857 0.3817864 0.4293045 0.3583982 0.3817722 0.4293045 0.6002424 0.3817722 0.566422 0.4226701 0.2948265 0.566422 0.4327028 0.2115794 0.5125446 0.4618144 0.2948265 0.5230934 0.4641828 0.2115794 0.5331239 0.5251513 0.2948265 0.5396435 0.5151186 0.2115794 0.5997201 0.5251513 0.2948265 0.5932005 0.5151186 0.2115794 0.6202995 0.4618144 0.2948265 0.6097505 0.4641828 0.2115794 0.4764592 0.4589083 -0.04005199 0.4764592 0.4631545 0.2930413 0.4764592 0.4997317 -0.04005199 0.4764592 0.495486 0.2930413 0.495559 0.4589083 -0.04005199 0.495559 0.4631545 0.2930413 0.495559 0.4997317 -0.04005199 0.495559 0.495486 0.2930413 0.5317572 0.5035408 -0.1023004 0.5317572 0.4550991 -0.1023004 0.5508571 0.5035408 -0.1023004 0.5508571 0.4550991 -0.1023004</float_array>
          <technique_common>
            <accessor source="#Drink_machine-mesh-positions-array" count="224" stride="3">
              <param name="X" type="float"/>
              <param name="Y" type="float"/>
              <param name="Z" type="float"/>
            </accessor>
          </technique_common>
        </source>
        <source id="Drink_machine-mesh-normals">
          <float_array id="Drink_machine-mesh-normals-array" count="867">-1 0 0 0 1 0 0 0 -1 0 -1 0 1 0 0 0 0 1 -4.59258e-7 0 -1 5.13358e-7 0 -1 2.47308e-7 0 -1 0.3572626 -0.8259929 0.4360039 0.9254443 -0.36949 0.08384609 0.8440477 -0.3259136 0.4258688 0.9254441 0.3694902 0.08384597 0.3572626 0.8259931 0.4360034 0.8440475 0.3259136 0.4258688 0.4081514 -0.9086273 0.08836853 -0.3572628 -0.8259931 0.4360033 -0.4081515 -0.9086273 0.08836841 -0.9254444 0.3694897 0.08384597 -0.3572629 0.8259928 0.4360036 -0.4081518 0.9086272 0.08836859 9.13178e-7 0 -1 0 0 -1 0 0 -1 -1.16212e-6 0 -1 0 0 -1 0 0 -1 5.13357e-7 0 -1 -4.59254e-7 0 -1 -1.06035e-6 0 -1 -1.30672e-6 0 -1 5.80464e-7 0 -1 7.91929e-7 0 -1 0.4081513 0.9086275 0.08836799 -0.9254443 -0.36949 0.08384633 -0.8440477 0.3259132 0.4258685 -0.1646715 -0.3668609 0.9155853 0.1646713 -0.3668609 0.9155853 0.3864675 -0.1411937 0.9114314 -0.1646715 0.3668606 0.9155855 -0.3864675 0.1411929 0.9114316 0.1646713 0.3668611 0.9155853 -0.8440477 -0.3259132 0.4258685 -0.3864676 -0.141193 0.9114315 0.3864673 0.1411936 0.9114315 0 0.3931976 0.9194541 0.3208357 -0.3480893 0.880851 0.3208355 0.3480896 0.8808509 0.8489905 0.3505575 0.3953791 0.9143091 -0.3979387 0.07539135 0.9143086 0.3979396 0.07539159 0 0.9997689 0.02150422 0.3192383 0.8754965 0.3627573 0.3668462 0.9290982 0.04690968 0.3192382 -0.8754963 0.3627578 0.8489907 -0.3505572 0.3953788 0 0.9236214 0.3833062 0.3769328 0.9253035 0.04165583 0.3769333 -0.9253034 0.04165536 0.366847 -0.9290978 0.04690909 0 -0.9236215 0.383306 0 -0.9997689 0.02150398 0 -0.9998224 0.01884722 0 0.9998224 0.01884746 0.9156513 -0.3964699 0.06629186 0.9156511 0.3964701 0.06629168 -0.585011 -0.8051991 -0.09703969 -0.5850109 -0.8051991 -0.09703975 -0.5850107 -0.8051992 -0.09703987 -0.9451761 0.3071059 -0.1110328 -0.945176 0.3071058 -0.1110328 -0.945176 0.3071058 -0.1110329 0 0.9928163 -0.1196497 0 0.9928163 -0.1196496 0 0.9928162 -0.1196494 0.9451761 0.3071054 -0.1110337 0.9451763 0.307105 -0.1110339 0.945176 0.307106 -0.1110334 0.5850105 -0.8051995 -0.09703981 0.5850106 -0.8051993 -0.09703981 0.5850105 -0.8051995 -0.09703981 -0.9322668 0 -0.3617716 -0.9322667 0 -0.361772 0 0.9999188 0.01274514 0 0.9991404 0.04145723 0 0.99956 0.02966439 0.9322666 0 0.361772 0.9322665 0 0.3617723 0 -0.9999188 0.01274663 0 -0.9995599 0.02966552 0 -0.9991403 0.04145801 -0.4037345 0 -0.9148763 -0.4037343 0 -0.9148763 0.7476108 0 0.6641372 0 -0.998133 0.06107878 0 -0.998133 0.06107878 0 0.9981331 0.06107735 0 0.3931971 0.9194543 0.320835 -0.348089 0.8808513 0.3208358 0.3480891 0.8808509 0.8489909 0.350557 0.3953789 0.914309 -0.3979389 0.07539135 0.9143088 0.3979393 0.07539153 0 0.9997689 0.02150428 0.3192383 0.8754962 0.3627582 0.3668465 0.929098 0.04690939 0.3192378 -0.8754964 0.3627579 0.8489903 -0.3505574 0.3953797 0 0.9236211 0.3833068 0.376933 0.9253035 0.0416553 0.3769331 -0.9253034 0.04165452 0.3668469 -0.9290979 0.04690879 0 -0.9236215 0.3833059 0 -0.9997688 0.02150386 0 -0.9998224 0.01884686 0 0.9998224 0.01884722 0.9156511 -0.3964701 0.06629157 0.9156511 0.3964703 0.0662918 -0.5850116 -0.8051988 -0.09703946 -0.5850115 -0.8051988 -0.0970394 -0.5850114 -0.8051988 -0.0970394 -0.945176 0.3071059 -0.111033 -0.9451761 0.3071058 -0.1110328 -0.9451761 0.3071058 -0.1110326 0 0.9928162 -0.11965 0 0.9928162 -0.1196501 0 0.9928161 -0.1196502 0 0 -1 4.21991e-7 0 -1 1.94392e-7 0 -1 0.9451761 0.3071053 -0.1110339 0.9451763 0.307105 -0.1110339 0.9451759 0.307106 -0.1110338 0.5850111 -0.805199 -0.09703969 0.5850112 -0.8051989 -0.09703958 0.5850109 -0.8051991 -0.09703987 -0.9322668 0 -0.3617715 -0.9322667 0 -0.3617719 0 0.9999188 0.01274508 0 0.9991404 0.04145681 0 0.99956 0.02966409 0.9322667 0 0.3617718 0.9322666 0 0.3617721 0 -0.9999188 0.01274663 0 -0.9995599 0.02966535 0 -0.9991403 0.04145795 -0.4037345 0 -0.9148763 0.7476109 0 0.6641371 0 -0.998133 0.06107914 0 -0.998133 0.06107914 0 0.998133 0.06107836 0 0.3931972 0.9194543 0.3208357 -0.3480893 0.8808509 0.3208352 0.3480891 0.8808512 9.47208e-7 0 -1 -3.88435e-7 0 -1 0.8489902 0.3505578 0.3953794 0.9143087 -0.3979395 0.07539141 0.9143088 0.3979391 0.07539159 0 0.9997687 0.02150458 0.319238 0.8754964 0.3627579 0.3668466 0.929098 0.04690963 0.3192382 -0.8754964 0.3627577 0.8489908 -0.3505572 0.3953788 0 0.9236212 0.3833066 0.376933 0.9253034 0.04165565 0.3769331 -0.9253033 0.04165494 0.3668463 -0.9290981 0.04690909 0 -0.9236214 0.3833061 0 -0.9997688 0.02150392 0 -0.9998224 0.01884728 0 0.9998223 0.01884788 0.9156513 -0.3964697 0.06629139 0.9156511 0.3964701 0.06629168 -0.5850116 -0.8051987 -0.09703922 -0.5850114 -0.8051988 -0.0970394 -0.5850111 -0.805199 -0.09703981 -0.945176 0.307106 -0.111033 -0.945176 0.307106 -0.111033 0 0.9928162 -0.1196499 0 0.9928162 -0.1196499 0 0.9928162 -0.1196498 -1.57267e-7 0 -1 1.40664e-7 0 -1 0 0 -1 0.945176 0.3071054 -0.111034 0.9451761 0.307105 -0.111034 0.9451758 0.3071061 -0.1110339 0.5850111 -0.805199 -0.09703975 0.5850111 -0.805199 -0.09703981 0.5850111 -0.805199 -0.09703975 -0.9322669 0 -0.3617714 -0.9322667 0 -0.3617718 0 0.9999188 0.01274514 0 0.9991404 0.0414564 0 0.99956 0.02966392 0.9322667 0 0.3617718 0.9322665 0 0.3617721 0 -0.9999188 0.01274675 0 -0.9995599 0.02966547 0 -0.9991403 0.04145807 -0.4037345 0 -0.9148762 -0.4037343 0 -0.9148763 0.747611 0 0.664137 0 -0.9981329 0.06108021 0 -0.998133 0.06108033 0 0.9981331 0.06107759 0.3208349 -0.3480889 0.8808513 0.3208359 0.3480902 0.8808506 9.47208e-7 0 -1 -3.88435e-7 0 -1 0.8489906 0.3505575 0.3953787 0.914309 -0.3979387 0.07539147 0.9143086 0.3979399 0.07539165 0 0.9997689 0.02150422 0.3192381 0.8754967 0.362757 0.3668459 0.9290983 0.0469098 0.3192381 -0.8754962 0.3627581 0.8489904 -0.3505572 0.3953797 0 0.9236214 0.3833062 0.3769329 0.9253034 0.04165637 0.3769333 -0.9253034 0.04165524 0.366847 -0.9290978 0.04690915 0 -0.9236215 0.3833058 0 -0.9997688 0.0215038 0 0.9998224 0.01884758 0.9156513 -0.39647 0.06629157 0.9156512 0.3964698 0.06629204 -0.5850116 -0.8051987 -0.09703922 -0.5850114 -0.8051988 -0.0970394 -0.945176 0.3071057 -0.1110332 -0.9451761 0.3071057 -0.1110329 -0.9451762 0.3071056 -0.1110323 0 0.992816 -0.1196513 0 0.992816 -0.1196512 0 0.992816 -0.119651 -1.57267e-7 0 -1 1.40664e-7 0 -1 0 0 -1 0.9451762 0.3071051 -0.111034 0.9451763 0.3071047 -0.111034 0.945176 0.3071058 -0.111034 -0.9322667 0 -0.3617718 -0.9322666 0 -0.3617721 0 0.9991404 0.04145562 0 0.99956 0.02966332 0.9322667 0 0.3617718 0 -0.9999188 0.01274693 0 -0.9995599 0.02966535 0 -0.9991403 0.04145801 -0.4037345 0 -0.9148762 0 0.998133 0.06107854 -3.03746e-7 0 -1 0 -0.3931976 0.919454 -0.5850111 -0.805199 -0.09703958 -0.945176 0.307106 -0.1110328 0 0.9928162 -0.1196498 0.9451764 0.3071042 -0.1110341 0.5850107 -0.8051992 -0.09703987 0 0.9999189 0.01274514 0 -0.9999188 0.01274663 0.7476108 0 0.6641371 0 0.9981331 0.06107717 -0.5850116 -0.8051986 -0.09703946 -0.945176 0.307106 -0.1110332 0 0.9928162 -0.1196498 -6.82795e-7 0 -1 0.9451764 0.3071042 -0.1110339 0.5850114 -0.8051988 -0.0970394 0 0.9999189 0.01274508 0 -0.3931973 0.9194542 -1.65587e-6 0 -1 2.57293e-6 0 -1 -0.5850118 -0.8051986 -0.09703892 -0.9451759 0.3071061 -0.1110331 0 0.9928162 -0.11965 0.5850111 -0.805199 -0.09703981 0 -0.9999188 0.01274675 0.747611 0 0.6641369 0 0.9981331 0.06107759 -1.65587e-6 0 -1 2.57293e-6 0 -1 -0.5850118 -0.8051986 -0.09703886 -0.945176 0.3071058 -0.1110336 0 0.992816 -0.1196515 0.9451765 0.307104 -0.111034 0 -0.9999188 0.01274693 0.7476111 0 0.6641369 0 0.998133 0.06107878</float_array>
          <technique_common>
            <accessor source="#Drink_machine-mesh-normals-array" count="289" stride="3">
              <param name="X" type="float"/>
              <param name="Y" type="float"/>
              <param name="Z" type="float"/>
            </accessor>
          </technique_common>
        </source>
        <source id="Drink_machine-mesh-map-0">
          <float_array id="Drink_machine-mesh-map-0-array" count="2256">0.2869281 0.775786 0.2287458 0.4104933 0.2287459 0.775786 0.3783281 0.06567257 0.7182488 0.006525993 0.3783281 0.006525993 0.5169199 0.7734863 0.6366361 0.4051973 0.5169199 0.4051973 0.7155711 0.06548404 0.3784497 0.006824553 0.7155711 0.006824553 0.3344366 0.7766276 0.008452534 0.4205057 0.008452534 0.7766276 0.3783281 0.3310695 0.7182488 0.3944442 0.7182488 0.3310695 0.4453464 0.4110203 0.3830811 0.8019475 0.3830811 0.4110203 0.7292203 0.4173148 0.8489364 0.7856037 0.7292203 0.7856037 0.4453464 0.6700215 0.3830811 0.5429465 0.3830811 0.6700215 0.3830811 0.6700215 0.4453464 0.5429465 0.4453464 0.6700215 0.7155711 0.7569507 0.7155711 0.4200096 0.701295 0.4215735 0.2698478 0.7750084 0.331924 0.4112708 0.2698478 0.4112708 0.7155711 0.3286953 0.3784497 0.3915482 0.3784497 0.3286953 0.797299 0.3989738 0.7292203 0.387484 0.797299 0.3827922 0.7292203 0.02300614 0.797299 0.01151633 0.797299 0.02769798 0.8109482 0.006824612 0.8790269 0.3394709 0.8109482 0.3437657 0.4465284 0.7858568 0.3784497 0.7973465 0.4465284 0.8020384 0.4765536 0.7744373 0.4765536 0.4099594 0.4601776 0.4080539 0.4902028 0.4099594 0.4902028 0.7744373 0.5032708 0.7763428 0.6857403 0.7569506 0.6857403 0.4200096 0.6714642 0.7553868 0.6857403 0.4200096 0.6695587 0.4051974 0.6743208 0.4156505 0.6993895 0.7717629 0.7155711 0.7569507 0.7041516 0.7613098 0.7155711 0.4200096 0.6993895 0.4051974 0.7041516 0.4189587 0.6695587 0.7717629 0.6857403 0.7569506 0.6743208 0.7580016 0.8625856 0.7542558 0.9306643 0.4216095 0.8625856 0.4173148 0.7292203 0.02300614 0.797299 0.3827922 0.7292203 0.387484 0.4465284 0.4213789 0.3784497 0.781165 0.4465284 0.7858568 0.02743816 0.02094376 0.3441868 0.02094376 0.3518761 0.02934396 0.02743816 0.3801627 0.006824553 0.3781003 0.01974886 0.3717625 0.3441868 0.3801627 0.3648005 0.3781003 0.3499882 0.394282 0.3441868 0.02094376 0.3648005 0.02300614 0.3518761 0.02934396 0.02743816 0.02094376 0.006824553 0.02300614 0.02163672 0.006824553 0.01974886 0.3717625 0.006824553 0.02300614 0.01974886 0.02934396 0.02743816 0.02094376 0.3499882 0.006824553 0.3441868 0.02094376 0.3441868 0.3801627 0.02163672 0.394282 0.02743816 0.3801627 0.3518761 0.02934396 0.3648005 0.3781003 0.3518761 0.3717625 0.3784497 0.4098892 0.4465284 0.4213789 0.4465284 0.4051973 0.7155711 0.06548404 0.3784497 0.3286953 0.3784497 0.06548404 0.009889304 0.7750084 0.2698478 0.4112708 0.009889245 0.4112708 0.006824553 0.4079312 0.2700359 0.7762201 0.006824612 0.7762201 0.3783281 0.06567257 0.7182488 0.3310695 0.7182488 0.06567257 0.2700359 0.7762201 0.3328887 0.4079312 0.3328887 0.7762201 0.8556081 0.7992529 0.9503821 0.9071013 0.8556081 0.9071013 0.3784497 0.8267033 0.3784497 0.9472631 0.5011975 0.8267033 0.2713013 0.9345102 0.2739231 0.8260295 0.1555449 0.9345102 0.8279712 0.9439222 0.7300943 0.8354202 0.8305935 0.8354202 0.5169199 0.8232957 0.625568 0.9317765 0.6345019 0.8232957 0.9503821 0.9071013 0.9608733 0.9079011 0.9506224 0.9189144 0.8556081 0.9071013 0.8553677 0.9189144 0.8451169 0.9079011 0.6247684 0.9427577 0.5169199 0.9317765 0.5169199 0.9427577 0.6455171 0.8233028 0.6374798 0.7871354 0.6345019 0.8232957 0.8556081 0.9071013 0.9506224 0.9189144 0.8553677 0.9189144 0.1273844 0.7898692 0.1354216 0.8260366 0.1244065 0.8260295 0.114673 0.9454914 0.006824553 0.9345102 0.1154727 0.9345102 0.1154727 0.9345102 0.006824553 0.8260295 0.1244065 0.8260295 0.1244065 0.8260295 0.006824553 0.7898692 0.1273844 0.7898692 0.1244065 0.8260295 0.1264862 0.9345384 0.1154727 0.9345102 0.6365815 0.9318047 0.6345019 0.8232957 0.625568 0.9317765 0.5169199 0.7871354 0.6345019 0.8232957 0.6374798 0.7871354 0.8305935 0.8354202 0.7292203 0.7992528 0.8314676 0.7992528 0.1520493 0.7898692 0.2739231 0.8260295 0.2747971 0.7898692 0.7155711 0.8184915 0.6644592 0.8450943 0.6644592 0.8184915 0.2884462 0.9725966 0.3211738 0.9214848 0.2899004 0.9214848 0.2884463 0.9078357 0.3253319 0.8567239 0.2924491 0.8567239 0.3390476 0.8329133 0.3390476 0.8000305 0.3077742 0.7898693 0.6644593 0.9163321 0.6971869 0.8652201 0.7033467 0.9163321 0.7155711 0.8184915 0.6644592 0.7918888 0.7155711 0.785412 0.9723973 0.5705785 0.9914066 0.4700272 0.9701905 0.4700272 0.9672613 0.5705785 0.9742121 0.4700272 0.9672613 0.4700272 0.9914066 0.4700272 0.9723973 0.5705785 0.9701905 0.4700272 0.9742121 0.5705785 0.9672613 0.4700272 0.9742121 0.4700272 0.9672613 0.5002993 0.987385 0.523495 0.987385 0.4983196 0.9943357 0.523495 0.987385 0.4983196 0.987385 0.523495 0.9742121 0.5002993 0.9943357 0.523495 0.9742121 0.5215154 0.9742121 0.4700272 0.987385 0.4512362 0.9943357 0.4512362 0.9742121 0.4700272 0.987385 0.4512362 0.9672613 0.4700272 0.8556081 0.7992529 0.9503821 0.9071013 0.8556081 0.9071013 0.3784497 0.8267033 0.3784497 0.9472631 0.5011975 0.8267033 0.2713013 0.9345102 0.2739231 0.8260295 0.1555449 0.9345102 0.992703 0.115174 0.8905296 0.001909255 0.9954405 0.001909255 0.5169199 0.8232957 0.625568 0.9317765 0.6345019 0.8232957 0.9503821 0.9071013 0.9608733 0.9079011 0.9506224 0.9189144 0.8556081 0.9071013 0.8553677 0.9189144 0.8451169 0.9079011 0.6247684 0.9427577 0.5169199 0.9317765 0.5169199 0.9427577 0.6455171 0.8233028 0.6374798 0.7871354 0.6345019 0.8232957 0.9503821 0.9071013 0.8553677 0.9189144 0.8556081 0.9071013 0.1273844 0.7898692 0.1354216 0.8260366 0.1244065 0.8260295 0.114673 0.9454914 0.006824553 0.9345102 0.1154727 0.9345102 0.1154727 0.9345102 0.006824553 0.8260295 0.1244065 0.8260295 0.1244065 0.8260295 0.006824553 0.7898692 0.1273844 0.7898692 0.1244065 0.8260295 0.1264862 0.9345384 0.1154727 0.9345102 0.6365815 0.9318047 0.6345019 0.8232957 0.625568 0.9317765 0.5169199 0.7871354 0.6345019 0.8232957 0.6374798 0.7871354 0.8305935 0.8354202 0.7292203 0.7992528 0.8314676 0.7992528 0.1520493 0.7898692 0.2739231 0.8260295 0.2747971 0.7898692 0.7155711 0.8184915 0.6644592 0.8450943 0.6644592 0.8184915 0.2884462 0.9725966 0.3211738 0.9214848 0.2899004 0.9214848 0.2884463 0.9078357 0.3253319 0.8567239 0.2924491 0.8567239 0.3077743 0.8430747 0.3390476 0.8000305 0.3077742 0.7898693 0.6644593 0.9163321 0.6971869 0.8652201 0.7033467 0.9163321 0.7155711 0.8184915 0.6644592 0.7918888 0.7155711 0.785412 0.9723973 0.5705785 0.9914066 0.4700272 0.9701905 0.4700272 0.9672613 0.5705785 0.9742121 0.4700272 0.9672613 0.4700272 0.9914066 0.4700272 0.9723973 0.5705785 0.9701905 0.4700272 0.9742121 0.5705785 0.9672613 0.4700272 0.9742121 0.4700272 0.9672613 0.5002993 0.987385 0.523495 0.987385 0.4983196 0.9943357 0.523495 0.987385 0.4983196 0.987385 0.523495 0.9742121 0.5002993 0.9943357 0.523495 0.9742121 0.5215154 0.9742121 0.4700272 0.987385 0.4512362 0.9943357 0.4512362 0.9742121 0.4700272 0.987385 0.4512362 0.9672613 0.4700272 0.8556081 0.7992529 0.9503821 0.9071013 0.8556081 0.9071013 0.3784497 0.8267033 0.3784497 0.9472631 0.5011975 0.8267033 0.2713013 0.9345102 0.2739231 0.8260295 0.1555449 0.9345102 0.9944276 0.2376806 0.8928029 0.125024 0.9971504 0.125024 0.5169199 0.8232957 0.625568 0.9317765 0.6345019 0.8232957 0.9503821 0.9071013 0.9608733 0.9079011 0.9506224 0.9189144 0.8556081 0.9071013 0.8553677 0.9189144 0.8451169 0.9079011 0.6247684 0.9427577 0.5169199 0.9317765 0.5169199 0.9427577 0.6455171 0.8233028 0.6374798 0.7871354 0.6345019 0.8232957 0.8556081 0.9071013 0.9506224 0.9189144 0.8553677 0.9189144 0.1273844 0.7898692 0.1354216 0.8260366 0.1244065 0.8260295 0.114673 0.9454914 0.006824553 0.9345102 0.1154727 0.9345102 0.1154727 0.9345102 0.006824553 0.8260295 0.1244065 0.8260295 0.1244065 0.8260295 0.006824553 0.7898692 0.1273844 0.7898692 0.1244065 0.8260295 0.1264862 0.9345384 0.1154727 0.9345102 0.6365815 0.9318047 0.6345019 0.8232957 0.625568 0.9317765 0.5169199 0.7871354 0.6345019 0.8232957 0.6374798 0.7871354 0.8305935 0.8354202 0.7292203 0.7992528 0.8314676 0.7992528 0.1520493 0.7898692 0.2739231 0.8260295 0.2747971 0.7898692 0.7155711 0.8184915 0.6644592 0.8450943 0.6644592 0.8184915 0.2884462 0.9725966 0.3211738 0.9214848 0.2899004 0.9214848 0.2884463 0.9078357 0.3253319 0.8567239 0.2924491 0.8567239 0.3077743 0.8430747 0.3390476 0.8000305 0.3077742 0.7898693 0.6644593 0.9163321 0.6971869 0.8652201 0.7033467 0.9163321 0.7155711 0.8184915 0.6644592 0.7918888 0.7155711 0.785412 0.9723973 0.5705785 0.9914066 0.4700272 0.9701905 0.4700272 0.9672613 0.5705785 0.9742121 0.4700272 0.9672613 0.4700272 0.9914066 0.4700272 0.9723973 0.5705785 0.9701905 0.4700272 0.9742121 0.5705785 0.9672613 0.4700272 0.9742121 0.4700272 0.9672613 0.5002993 0.987385 0.523495 0.987385 0.4983196 0.9943357 0.523495 0.987385 0.4983196 0.987385 0.523495 0.9742121 0.5002993 0.9943357 0.523495 0.9742121 0.5215154 0.9742121 0.4700272 0.987385 0.4512362 0.9943357 0.4512362 0.9742121 0.4700272 0.987385 0.4512362 0.9672613 0.4700272 0.8556081 0.7992529 0.9503821 0.9071013 0.8556081 0.9071013 0.3784497 0.8267033 0.3784497 0.9472631 0.5011975 0.8267033 0.2713013 0.9345102 0.2739231 0.8260295 0.1555449 0.9345102 0.9935769 0.3597409 0.893588 0.2488977 0.9962559 0.2488977 0.5169199 0.8232957 0.625568 0.9317765 0.6345019 0.8232957 0.9503821 0.9071013 0.9608733 0.9079011 0.9506224 0.9189144 0.8556081 0.9071013 0.8553677 0.9189144 0.8451169 0.9079011 0.6247684 0.9427577 0.5169199 0.9317765 0.5169199 0.9427577 0.6455171 0.8233028 0.6374798 0.7871354 0.6345019 0.8232957 0.9503821 0.9071013 0.8553677 0.9189144 0.8556081 0.9071013 0.1273844 0.7898692 0.1354216 0.8260366 0.1244065 0.8260295 0.114673 0.9454914 0.006824553 0.9345102 0.1154727 0.9345102 0.1154727 0.9345102 0.006824553 0.8260295 0.1244065 0.8260295 0.1244065 0.8260295 0.006824553 0.7898692 0.1273844 0.7898692 0.1244065 0.8260295 0.1264862 0.9345384 0.1154727 0.9345102 0.6365815 0.9318047 0.6345019 0.8232957 0.625568 0.9317765 0.5169199 0.7871354 0.6345019 0.8232957 0.6374798 0.7871354 0.8305935 0.8354202 0.7292203 0.7992528 0.8314676 0.7992528 0.1520493 0.7898692 0.2739231 0.8260295 0.2747971 0.7898692 0.7155711 0.8184915 0.6644592 0.8450943 0.6644592 0.8184915 0.2884462 0.9725966 0.3211738 0.9214848 0.2899004 0.9214848 0.2884463 0.9078357 0.3253319 0.8567239 0.2924491 0.8567239 0.3077743 0.8430747 0.3390476 0.8000305 0.3077742 0.7898693 0.6644593 0.9163321 0.6971869 0.8652201 0.7033467 0.9163321 0.7155711 0.8184915 0.6644592 0.7918888 0.7155711 0.785412 0.9723973 0.5705785 0.9914066 0.4700272 0.9701905 0.4700272 0.9672613 0.5705785 0.9742121 0.4700272 0.9672613 0.4700272 0.9914066 0.4700272 0.9723973 0.5705785 0.9701905 0.4700272 0.9742121 0.5705785 0.9672613 0.4700272 0.9742121 0.4700272 0.9672613 0.5002993 0.987385 0.523495 0.987385 0.4983196 0.9943357 0.523495 0.987385 0.4983196 0.987385 0.523495 0.9742121 0.5002993 0.9943357 0.523495 0.9742121 0.5215154 0.9742121 0.4700272 0.987385 0.4512362 0.9943357 0.4512362 0.9742121 0.4700272 0.987385 0.4512362 0.9672613 0.4700272 0.2869281 0.775786 0.2869281 0.4104933 0.2287458 0.4104933 0.3783281 0.06567257 0.7182488 0.06567257 0.7182488 0.006525993 0.5169199 0.7734863 0.6366361 0.7734863 0.6366361 0.4051973 0.7155711 0.06548404 0.3784497 0.06548404 0.3784497 0.006824553 0.3344366 0.7766276 0.3344366 0.4205057 0.008452534 0.4205057 0.3783281 0.3310695 0.3783281 0.3944442 0.7182488 0.3944442 0.4453464 0.4110203 0.4453464 0.8019475 0.3830811 0.8019475 0.7292203 0.4173148 0.8489364 0.4173148 0.8489364 0.7856037 0.4453464 0.6700215 0.4453464 0.5429465 0.3830811 0.5429465 0.3830811 0.6700215 0.3830811 0.5429465 0.4453464 0.5429465 0.7041516 0.4189587 0.701295 0.4215735 0.7155711 0.4200096 0.701295 0.4215735 0.701295 0.7586949 0.7155711 0.7569507 0.701295 0.7586949 0.7041516 0.7613098 0.7155711 0.7569507 0.2698478 0.7750084 0.331924 0.7750084 0.331924 0.4112708 0.7155711 0.3286953 0.7155711 0.3915482 0.3784497 0.3915482 0.797299 0.3989738 0.7292203 0.4036656 0.7292203 0.387484 0.7292203 0.02300614 0.7292203 0.006824553 0.797299 0.01151633 0.8109482 0.006824612 0.8790269 0.0111193 0.8790269 0.3394709 0.4465284 0.7858568 0.3784497 0.781165 0.3784497 0.7973465 0.4627923 0.4051973 0.4601776 0.4080539 0.4765536 0.4099594 0.4601776 0.4080539 0.4601776 0.7763428 0.4765536 0.7744373 0.4601776 0.7763428 0.4627923 0.7791994 0.4765536 0.7744373 0.5006559 0.7791994 0.5032708 0.7763428 0.4902028 0.7744373 0.5032708 0.7763428 0.5032708 0.4080539 0.4902028 0.4099594 0.5032708 0.4080539 0.5006559 0.4051973 0.4902028 0.4099594 0.6743208 0.4156505 0.6714642 0.4182653 0.6857403 0.4200096 0.6714642 0.4182653 0.6714642 0.7553868 0.6857403 0.4200096 0.6714642 0.7553868 0.6743208 0.7580016 0.6857403 0.7569506 0.8625856 0.7542558 0.9306643 0.749961 0.9306643 0.4216095 0.7292203 0.02300614 0.797299 0.02769798 0.797299 0.3827922 0.4465284 0.4213789 0.3784497 0.4260708 0.3784497 0.781165 0.3518761 0.02934396 0.3518761 0.3717625 0.01974886 0.3717625 0.3518761 0.3717625 0.3441868 0.3801627 0.01974886 0.3717625 0.3441868 0.3801627 0.02743816 0.3801627 0.01974886 0.3717625 0.01974886 0.3717625 0.01974886 0.02934396 0.3518761 0.02934396 0.01974886 0.02934396 0.02743816 0.02094376 0.3518761 0.02934396 0.02743816 0.3801627 0.02163672 0.394282 0.006824553 0.3781003 0.3441868 0.3801627 0.3518761 0.3717625 0.3648005 0.3781003 0.3441868 0.02094376 0.3499882 0.006824553 0.3648005 0.02300614 0.02743816 0.02094376 0.01974886 0.02934396 0.006824553 0.02300614 0.01974886 0.3717625 0.006824553 0.3781003 0.006824553 0.02300614 0.02743816 0.02094376 0.02163672 0.006824553 0.3499882 0.006824553 0.3441868 0.3801627 0.3499882 0.394282 0.02163672 0.394282 0.3518761 0.02934396 0.3648005 0.02300614 0.3648005 0.3781003 0.3784497 0.4098892 0.3784497 0.4260708 0.4465284 0.4213789 0.7155711 0.06548404 0.7155711 0.3286953 0.3784497 0.3286953 0.009889304 0.7750084 0.2698478 0.7750084 0.2698478 0.4112708 0.006824553 0.4079312 0.2700359 0.4079312 0.2700359 0.7762201 0.3783281 0.06567257 0.3783281 0.3310695 0.7182488 0.3310695 0.2700359 0.7762201 0.2700359 0.4079312 0.3328887 0.4079312 0.8556081 0.7992529 0.9503822 0.7992529 0.9503821 0.9071013 0.3784497 0.9472631 0.5011975 0.9472631 0.5011975 0.8267033 0.5011975 0.8267033 0.4909472 0.8156876 0.3886998 0.8156876 0.3886998 0.8156876 0.3784497 0.8267033 0.5011975 0.8267033 0.2739231 0.8260295 0.1529231 0.8260295 0.1555449 0.9345102 0.1555449 0.9345102 0.166036 0.9454914 0.2608101 0.9454914 0.2608101 0.9454914 0.2713013 0.9345102 0.1555449 0.9345102 0.8279712 0.9439222 0.7327165 0.9439222 0.7300943 0.8354202 0.5169199 0.8232957 0.5169199 0.9317765 0.625568 0.9317765 0.6247684 0.9427577 0.625568 0.9317765 0.5169199 0.9317765 0.6455171 0.8233028 0.6484955 0.7871354 0.6374798 0.7871354 0.8556081 0.9071013 0.9503821 0.9071013 0.9506224 0.9189144 0.1273844 0.7898692 0.1384001 0.7898692 0.1354216 0.8260366 0.114673 0.9454914 0.006824553 0.9454914 0.006824553 0.9345102 0.1154727 0.9345102 0.006824553 0.9345102 0.006824553 0.8260295 0.1244065 0.8260295 0.006824553 0.8260295 0.006824553 0.7898692 0.1244065 0.8260295 0.1354216 0.8260366 0.1264862 0.9345384 0.6365815 0.9318047 0.6455171 0.8233028 0.6345019 0.8232957 0.5169199 0.7871354 0.5169199 0.8232957 0.6345019 0.8232957 0.8305935 0.8354202 0.7300943 0.8354202 0.7292203 0.7992528 0.1520493 0.7898692 0.1529231 0.8260295 0.2739231 0.8260295 0.7155711 0.8184915 0.7155711 0.851571 0.6644592 0.8450943 0.2884462 0.9725966 0.3273336 0.9725966 0.3211738 0.9214848 0.2884463 0.9078357 0.3293349 0.9078357 0.3253319 0.8567239 0.3077742 0.7898693 0.2884463 0.8164719 0.3077743 0.8430747 0.3077743 0.8430747 0.3390476 0.8329133 0.3077742 0.7898693 0.6644593 0.9163321 0.6659135 0.8652201 0.6971869 0.8652201 0.7155711 0.8184915 0.6644592 0.8184915 0.6644592 0.7918888 0.9723973 0.5705785 0.9892001 0.5705785 0.9914066 0.4700272 0.9672613 0.5705785 0.9742121 0.5705785 0.9742121 0.4700272 0.9914066 0.4700272 0.9892001 0.5705785 0.9723973 0.5705785 0.9742121 0.5705785 0.9672613 0.5705785 0.9672613 0.4700272 0.9672613 0.5002993 0.9672613 0.5215154 0.987385 0.523495 0.9943357 0.523495 0.9943357 0.4983196 0.987385 0.4983196 0.9742121 0.5002993 0.9943357 0.4983196 0.9943357 0.523495 0.9742121 0.4700272 0.9672613 0.4700272 0.987385 0.4512362 0.9742121 0.4700272 0.9943357 0.4512362 0.987385 0.4512362 0.8556081 0.7992529 0.9503822 0.7992529 0.9503821 0.9071013 0.3784497 0.9472631 0.5011975 0.9472631 0.5011975 0.8267033 0.5011975 0.8267033 0.4909472 0.8156876 0.3886998 0.8156876 0.3886998 0.8156876 0.3784497 0.8267033 0.5011975 0.8267033 0.2739231 0.8260295 0.1529231 0.8260295 0.1555449 0.9345102 0.1555449 0.9345102 0.166036 0.9454914 0.2608101 0.9454914 0.2608101 0.9454914 0.2713013 0.9345102 0.1555449 0.9345102 0.992703 0.115174 0.893267 0.115174 0.8905296 0.001909255 0.5169199 0.8232957 0.5169199 0.9317765 0.625568 0.9317765 0.6247684 0.9427577 0.625568 0.9317765 0.5169199 0.9317765 0.6455171 0.8233028 0.6484955 0.7871354 0.6374798 0.7871354 0.9503821 0.9071013 0.9506224 0.9189144 0.8553677 0.9189144 0.1273844 0.7898692 0.1384001 0.7898692 0.1354216 0.8260366 0.114673 0.9454914 0.006824553 0.9454914 0.006824553 0.9345102 0.1154727 0.9345102 0.006824553 0.9345102 0.006824553 0.8260295 0.1244065 0.8260295 0.006824553 0.8260295 0.006824553 0.7898692 0.1244065 0.8260295 0.1354216 0.8260366 0.1264862 0.9345384 0.6365815 0.9318047 0.6455171 0.8233028 0.6345019 0.8232957 0.5169199 0.7871354 0.5169199 0.8232957 0.6345019 0.8232957 0.8305935 0.8354202 0.7300943 0.8354202 0.7292203 0.7992528 0.1520493 0.7898692 0.1529231 0.8260295 0.2739231 0.8260295 0.7155711 0.8184915 0.7155711 0.851571 0.6644592 0.8450943 0.2884462 0.9725966 0.3273336 0.9725966 0.3211738 0.9214848 0.2884463 0.9078357 0.3293349 0.9078357 0.3253319 0.8567239 0.3077742 0.7898693 0.2884463 0.8164719 0.3077743 0.8430747 0.3077743 0.8430747 0.3390476 0.8329133 0.3390476 0.8000305 0.6644593 0.9163321 0.6659135 0.8652201 0.6971869 0.8652201 0.7155711 0.8184915 0.6644592 0.8184915 0.6644592 0.7918888 0.9723973 0.5705785 0.9892001 0.5705785 0.9914066 0.4700272 0.9672613 0.5705785 0.9742121 0.5705785 0.9742121 0.4700272 0.9914066 0.4700272 0.9892001 0.5705785 0.9723973 0.5705785 0.9742121 0.5705785 0.9672613 0.5705785 0.9672613 0.4700272 0.9672613 0.5002993 0.9672613 0.5215154 0.987385 0.523495 0.9943357 0.523495 0.9943357 0.4983196 0.987385 0.4983196 0.9742121 0.5002993 0.9943357 0.4983196 0.9943357 0.523495 0.9742121 0.4700272 0.9672613 0.4700272 0.987385 0.4512362 0.9742121 0.4700272 0.9943357 0.4512362 0.987385 0.4512362 0.8556081 0.7992529 0.9503822 0.7992529 0.9503821 0.9071013 0.3784497 0.9472631 0.5011975 0.9472631 0.5011975 0.8267033 0.5011975 0.8267033 0.4909472 0.8156876 0.3886998 0.8156876 0.3886998 0.8156876 0.3784497 0.8267033 0.5011975 0.8267033 0.2739231 0.8260295 0.1529231 0.8260295 0.1555449 0.9345102 0.1555449 0.9345102 0.166036 0.9454914 0.2608101 0.9454914 0.2608101 0.9454914 0.2713013 0.9345102 0.1555449 0.9345102 0.9944276 0.2376806 0.8955256 0.2376806 0.8928029 0.125024 0.5169199 0.8232957 0.5169199 0.9317765 0.625568 0.9317765 0.6247684 0.9427577 0.625568 0.9317765 0.5169199 0.9317765 0.6455171 0.8233028 0.6484955 0.7871354 0.6374798 0.7871354 0.8556081 0.9071013 0.9503821 0.9071013 0.9506224 0.9189144 0.1273844 0.7898692 0.1384001 0.7898692 0.1354216 0.8260366 0.114673 0.9454914 0.006824553 0.9454914 0.006824553 0.9345102 0.1154727 0.9345102 0.006824553 0.9345102 0.006824553 0.8260295 0.1244065 0.8260295 0.006824553 0.8260295 0.006824553 0.7898692 0.1244065 0.8260295 0.1354216 0.8260366 0.1264862 0.9345384 0.6365815 0.9318047 0.6455171 0.8233028 0.6345019 0.8232957 0.5169199 0.7871354 0.5169199 0.8232957 0.6345019 0.8232957 0.8305935 0.8354202 0.7300943 0.8354202 0.7292203 0.7992528 0.1520493 0.7898692 0.1529231 0.8260295 0.2739231 0.8260295 0.7155711 0.8184915 0.7155711 0.851571 0.6644592 0.8450943 0.2884462 0.9725966 0.3273336 0.9725966 0.3211738 0.9214848 0.2884463 0.9078357 0.3293349 0.9078357 0.3253319 0.8567239 0.3077742 0.7898693 0.2884463 0.8164719 0.3077743 0.8430747 0.3077743 0.8430747 0.3390476 0.8329133 0.3390476 0.8000305 0.6644593 0.9163321 0.6659135 0.8652201 0.6971869 0.8652201 0.7155711 0.8184915 0.6644592 0.8184915 0.6644592 0.7918888 0.9723973 0.5705785 0.9892001 0.5705785 0.9914066 0.4700272 0.9672613 0.5705785 0.9742121 0.5705785 0.9742121 0.4700272 0.9914066 0.4700272 0.9892001 0.5705785 0.9723973 0.5705785 0.9742121 0.5705785 0.9672613 0.5705785 0.9672613 0.4700272 0.9672613 0.5002993 0.9672613 0.5215154 0.987385 0.523495 0.9943357 0.523495 0.9943357 0.4983196 0.987385 0.4983196 0.9742121 0.5002993 0.9943357 0.4983196 0.9943357 0.523495 0.9742121 0.4700272 0.9672613 0.4700272 0.987385 0.4512362 0.9742121 0.4700272 0.9943357 0.4512362 0.987385 0.4512362 0.8556081 0.7992529 0.9503822 0.7992529 0.9503821 0.9071013 0.3784497 0.9472631 0.5011975 0.9472631 0.5011975 0.8267033 0.5011975 0.8267033 0.4909472 0.8156876 0.3886998 0.8156876 0.3886998 0.8156876 0.3784497 0.8267033 0.5011975 0.8267033 0.2739231 0.8260295 0.1529231 0.8260295 0.1555449 0.9345102 0.1555449 0.9345102 0.166036 0.9454914 0.2608101 0.9454914 0.2608101 0.9454914 0.2713013 0.9345102 0.1555449 0.9345102 0.9935769 0.3597409 0.8962668 0.3597409 0.893588 0.2488977 0.5169199 0.8232957 0.5169199 0.9317765 0.625568 0.9317765 0.6247684 0.9427577 0.625568 0.9317765 0.5169199 0.9317765 0.6455171 0.8233028 0.6484955 0.7871354 0.6374798 0.7871354 0.9503821 0.9071013 0.9506224 0.9189144 0.8553677 0.9189144 0.1273844 0.7898692 0.1384001 0.7898692 0.1354216 0.8260366 0.114673 0.9454914 0.006824553 0.9454914 0.006824553 0.9345102 0.1154727 0.9345102 0.006824553 0.9345102 0.006824553 0.8260295 0.1244065 0.8260295 0.006824553 0.8260295 0.006824553 0.7898692 0.1244065 0.8260295 0.1354216 0.8260366 0.1264862 0.9345384 0.6365815 0.9318047 0.6455171 0.8233028 0.6345019 0.8232957 0.5169199 0.7871354 0.5169199 0.8232957 0.6345019 0.8232957 0.8305935 0.8354202 0.7300943 0.8354202 0.7292203 0.7992528 0.1520493 0.7898692 0.1529231 0.8260295 0.2739231 0.8260295 0.7155711 0.8184915 0.7155711 0.851571 0.6644592 0.8450943 0.2884462 0.9725966 0.3273336 0.9725966 0.3211738 0.9214848 0.2884463 0.9078357 0.3293349 0.9078357 0.3253319 0.8567239 0.3077742 0.7898693 0.2884463 0.8164719 0.3077743 0.8430747 0.3077743 0.8430747 0.3390476 0.8329133 0.3390476 0.8000305 0.6644593 0.9163321 0.6659135 0.8652201 0.6971869 0.8652201 0.7155711 0.8184915 0.6644592 0.8184915 0.6644592 0.7918888 0.9723973 0.5705785 0.9892001 0.5705785 0.9914066 0.4700272 0.9672613 0.5705785 0.9742121 0.5705785 0.9742121 0.4700272 0.9914066 0.4700272 0.9892001 0.5705785 0.9723973 0.5705785 0.9742121 0.5705785 0.9672613 0.5705785 0.9672613 0.4700272 0.9672613 0.5002993 0.9672613 0.5215154 0.987385 0.523495 0.9943357 0.523495 0.9943357 0.4983196 0.987385 0.4983196 0.9742121 0.5002993 0.9943357 0.4983196 0.9943357 0.523495 0.9742121 0.4700272 0.9672613 0.4700272 0.987385 0.4512362 0.9742121 0.4700272 0.9943357 0.4512362 0.987385 0.4512362</float_array>
          <technique_common>
            <accessor source="#Drink_machine-mesh-map-0-array" count="1128" stride="2">
              <param name="S" type="float"/>
              <param name="T" type="float"/>
            </accessor>
          </technique_common>
        </source>
        <vertices id="Drink_machine-mesh-vertices">
          <input semantic="POSITION" source="#Drink_machine-mesh-positions"/>
        </vertices>
        <triangles material="Drink_machine-material" count="376">
          <input semantic="VERTEX" source="#Drink_machine-mesh-vertices" offset="0"/>
          <input semantic="NORMAL" source="#Drink_machine-mesh-normals" offset="1"/>
          <input semantic="TEXCOORD" source="#Drink_machine-mesh-map-0" offset="2" set="0"/>
          <p>1 0 0 2 0 1 0 0 2 3 1 3 6 1 4 2 1 5 6 2 6 10 2 7 4 2 8 5 3 9 0 3 10 4 3 11 6 2 12 0 2 13 2 2 14 44 1 15 14 1 16 45 1 17 8 4 18 10 4 19 9 4 20 5 5 21 8 5 22 7 5 23 7 1 24 9 1 25 6 1 26 4 3 27 11 3 28 5 3 29 20 6 30 22 7 31 14 8 32 47 0 33 13 0 34 44 0 35 46 3 36 12 3 37 47 3 38 41 9 39 25 10 40 43 11 41 23 12 42 39 13 43 37 14 44 26 15 45 31 16 46 16 17 47 19 18 48 33 19 49 20 20 50 23 21 51 25 22 52 15 23 53 17 24 54 19 25 55 13 26 56 26 27 57 16 28 58 15 23 59 16 28 60 17 24 61 18 29 62 19 25 63 20 6 64 21 30 65 22 7 66 23 21 67 24 31 68 25 22 69 26 27 70 27 32 71 20 20 72 39 13 73 22 33 74 23 12 75 43 11 76 25 10 77 17 34 78 35 35 79 19 18 80 30 36 81 40 37 82 42 38 83 32 39 84 35 35 85 34 40 86 38 41 87 37 14 88 39 13 89 40 37 90 43 11 91 42 38 92 30 36 93 29 42 94 31 16 95 34 40 96 29 42 97 28 43 98 30 36 99 41 9 100 40 37 101 38 41 102 33 19 103 32 39 104 42 38 105 37 14 106 36 44 107 31 16 108 17 34 109 16 17 110 5 3 111 47 3 112 1 3 113 1 0 114 44 0 115 3 0 116 7 4 117 46 4 118 5 4 119 3 1 120 45 1 121 7 1 122 46 4 123 14 4 124 15 4 125 52 45 126 56 46 127 61 47 128 55 2 129 48 2 130 59 2 131 53 0 132 69 0 133 50 0 134 62 48 135 67 49 136 64 50 137 69 51 138 63 52 139 65 53 140 56 46 141 57 54 142 58 55 143 61 47 144 62 48 145 63 52 146 61 47 147 53 56 148 52 45 149 64 50 150 59 57 151 65 53 152 61 47 153 58 55 154 62 48 155 55 58 156 67 49 157 66 59 158 56 46 159 50 60 160 57 54 161 57 54 162 68 61 163 66 59 164 66 59 165 48 62 166 55 58 167 66 59 168 58 55 169 57 54 170 62 48 171 65 53 172 63 52 173 49 63 174 65 53 175 59 57 176 64 50 177 54 64 178 60 65 179 48 0 180 69 0 181 49 0 182 70 66 183 73 67 184 71 68 185 72 69 186 75 70 187 73 71 188 74 72 189 77 73 190 75 74 191 77 2 192 79 2 193 71 2 194 78 75 195 77 76 196 76 77 197 70 78 198 79 79 199 78 80 200 81 0 201 82 81 202 80 82 203 83 83 204 86 84 205 82 85 206 86 86 207 85 4 208 84 87 209 85 88 210 80 89 211 84 90 212 80 82 213 88 91 214 89 92 215 90 2 216 89 92 217 88 91 218 84 87 219 90 93 220 86 86 221 84 90 222 89 94 223 91 95 224 86 84 225 88 96 226 82 85 227 96 97 228 100 98 229 105 99 230 99 2 231 92 2 232 103 2 233 97 0 234 113 0 235 94 0 236 106 100 237 111 101 238 108 102 239 113 103 240 107 104 241 109 105 242 100 98 243 101 106 244 102 107 245 105 99 246 106 100 247 107 104 248 105 99 249 97 108 250 96 97 251 108 102 252 103 109 253 109 105 254 100 98 255 106 100 256 105 99 257 99 110 258 111 101 259 110 111 260 100 98 261 94 112 262 101 106 263 101 106 264 112 113 265 110 111 266 110 111 267 92 114 268 99 110 269 110 111 270 102 107 271 101 106 272 106 100 273 109 105 274 107 104 275 93 115 276 109 105 277 103 109 278 108 102 279 98 116 280 104 117 281 92 0 282 113 0 283 93 0 284 114 118 285 117 119 286 115 120 287 116 121 288 119 122 289 117 123 290 118 124 291 121 125 292 119 126 293 119 127 294 123 128 295 115 129 296 122 130 297 121 131 298 120 132 299 114 133 300 123 134 301 122 135 302 125 0 303 126 136 304 124 137 305 127 138 306 130 139 307 126 140 308 130 141 309 129 4 310 128 142 311 129 143 312 124 144 313 128 145 314 124 137 315 132 146 316 133 92 317 134 2 318 133 92 319 132 146 320 128 142 321 134 147 322 130 141 323 128 145 324 133 148 325 135 149 326 130 139 327 132 150 328 126 140 329 140 151 330 144 152 331 149 153 332 143 154 333 136 2 334 147 155 335 141 0 336 157 0 337 138 0 338 150 156 339 155 157 340 152 158 341 157 159 342 151 160 343 153 161 344 144 152 345 145 162 346 146 163 347 149 153 348 150 156 349 151 160 350 149 153 351 141 164 352 140 151 353 152 158 354 147 165 355 153 161 356 149 153 357 146 163 358 150 156 359 143 166 360 155 157 361 154 167 362 144 152 363 138 168 364 145 162 365 145 162 366 156 169 367 154 167 368 154 167 369 136 170 370 143 166 371 154 167 372 146 163 373 145 162 374 150 156 375 153 161 376 151 160 377 137 171 378 153 161 379 147 165 380 152 158 381 142 172 382 148 173 383 136 0 384 157 0 385 137 0 386 158 174 387 161 175 388 159 176 389 160 177 390 163 178 391 161 71 392 162 179 393 165 180 394 163 181 395 163 182 396 167 183 397 159 184 398 166 185 399 165 186 400 164 187 401 158 188 402 167 189 403 166 190 404 169 0 405 170 191 406 168 192 407 171 193 408 174 194 409 170 195 410 174 196 411 173 4 412 172 197 413 173 198 414 168 199 415 172 200 416 168 192 417 176 201 418 177 202 419 178 2 420 177 202 421 176 201 422 172 197 423 178 203 424 174 196 425 172 200 426 177 204 427 179 205 428 174 194 429 176 206 430 170 195 431 184 45 432 188 207 433 193 208 434 187 209 435 180 2 436 191 210 437 185 0 438 201 0 439 182 0 440 194 211 441 199 212 442 196 213 443 201 214 444 195 215 445 197 216 446 188 207 447 189 217 448 190 218 449 193 208 450 194 211 451 195 215 452 193 208 453 185 219 454 184 45 455 196 213 456 191 220 457 197 216 458 188 207 459 194 211 460 193 208 461 187 221 462 199 212 463 198 222 464 188 207 465 182 223 466 189 217 467 189 217 468 200 224 469 198 222 470 198 222 471 180 62 472 187 221 473 198 222 474 190 218 475 189 217 476 194 211 477 197 216 478 195 215 479 181 225 480 197 216 481 191 220 482 196 213 483 186 226 484 192 227 485 180 0 486 201 0 487 181 0 488 202 228 489 205 229 490 203 176 491 204 230 492 207 231 493 205 232 494 206 233 495 209 234 496 207 235 497 207 236 498 211 237 499 203 238 500 210 239 501 209 240 502 208 241 503 202 188 504 211 189 505 210 190 506 213 0 507 214 242 508 212 243 509 215 83 510 218 244 511 214 245 512 218 246 513 217 4 514 216 197 515 217 247 516 212 248 517 216 249 518 212 243 519 220 201 520 221 250 521 222 2 522 221 250 523 220 201 524 216 197 525 222 203 526 218 246 527 216 249 528 221 204 529 223 205 530 218 244 531 220 251 532 214 245 533 1 0 534 3 0 535 2 0 536 3 1 537 7 1 538 6 1 539 6 2 540 9 2 541 10 2 542 5 3 543 1 3 544 0 3 545 6 2 546 4 2 547 0 2 548 44 1 549 13 1 550 14 1 551 8 4 552 11 4 553 10 4 554 5 5 555 11 5 556 8 5 557 7 1 558 8 1 559 9 1 560 4 3 561 10 3 562 11 3 563 24 31 564 14 8 565 22 7 566 14 8 567 13 26 568 20 6 569 13 26 570 21 30 571 20 6 572 47 0 573 12 0 574 13 0 575 46 3 576 15 3 577 12 3 578 41 9 579 26 15 580 25 10 581 23 12 582 22 33 583 39 13 584 26 15 585 41 9 586 31 16 587 19 18 588 35 35 589 33 19 590 27 32 591 15 23 592 25 22 593 15 23 594 14 8 595 23 21 596 14 8 597 24 31 598 23 21 599 21 30 600 13 26 601 19 25 602 13 26 603 12 252 604 17 24 605 12 252 606 18 29 607 17 24 608 18 29 609 12 252 610 16 28 611 12 252 612 15 23 613 16 28 614 15 23 615 27 32 616 26 27 617 20 20 618 33 19 619 39 13 620 23 12 621 37 14 622 43 11 623 17 34 624 29 42 625 35 35 626 42 38 627 36 44 628 34 40 629 36 44 630 38 41 631 34 40 632 38 41 633 32 39 634 34 40 635 34 40 636 28 43 637 42 38 638 28 43 639 30 36 640 42 38 641 32 39 642 33 19 643 35 35 644 38 41 645 36 44 646 37 14 647 40 37 648 41 9 649 43 11 650 30 36 651 28 43 652 29 42 653 34 40 654 35 35 655 29 42 656 30 36 657 31 16 658 41 9 659 38 41 660 39 13 661 33 19 662 42 38 663 43 11 664 37 14 665 31 16 666 29 42 667 17 34 668 5 3 669 46 3 670 47 3 671 1 0 672 47 0 673 44 0 674 7 4 675 45 4 676 46 4 677 3 1 678 44 1 679 45 1 680 46 4 681 45 4 682 14 4 683 52 45 684 51 253 685 56 46 686 48 2 687 49 2 688 59 2 689 59 2 690 60 2 691 54 2 692 54 2 693 55 2 694 59 2 695 69 0 696 68 0 697 50 0 698 50 0 699 51 0 700 52 0 701 52 0 702 53 0 703 50 0 704 62 48 705 58 55 706 67 49 707 69 51 708 53 56 709 63 52 710 61 47 711 63 52 712 53 56 713 64 50 714 60 65 715 59 57 716 61 47 717 56 46 718 58 55 719 55 58 720 54 64 721 67 49 722 56 46 723 51 253 724 50 60 725 57 54 726 50 60 727 68 61 728 66 59 729 68 61 730 48 62 731 66 59 732 67 49 733 58 55 734 62 48 735 64 50 736 65 53 737 49 63 738 69 51 739 65 53 740 64 50 741 67 49 742 54 64 743 48 0 744 68 0 745 69 0 746 70 66 747 72 254 748 73 67 749 72 69 750 74 255 751 75 70 752 74 72 753 76 256 754 77 73 755 71 2 756 73 2 757 75 2 758 75 2 759 77 2 760 71 2 761 78 75 762 79 257 763 77 76 764 70 78 765 71 258 766 79 79 767 81 0 768 83 0 769 82 81 770 83 83 771 87 259 772 86 84 773 86 86 774 87 4 775 85 4 776 85 88 777 81 260 778 80 89 779 80 82 780 82 81 781 88 91 782 90 2 783 91 2 784 89 92 785 84 87 786 91 261 787 90 93 788 84 90 789 80 89 790 89 94 791 86 84 792 90 262 793 88 96 794 96 97 795 95 253 796 100 98 797 92 2 798 93 2 799 103 2 800 103 2 801 104 2 802 98 2 803 98 2 804 99 2 805 103 2 806 113 0 807 112 0 808 94 0 809 94 0 810 95 0 811 96 0 812 96 0 813 97 0 814 94 0 815 106 100 816 102 107 817 111 101 818 113 103 819 97 108 820 107 104 821 105 99 822 107 104 823 97 108 824 108 102 825 104 117 826 103 109 827 100 98 828 102 107 829 106 100 830 99 110 831 98 116 832 111 101 833 100 98 834 95 253 835 94 112 836 101 106 837 94 112 838 112 113 839 110 111 840 112 113 841 92 114 842 110 111 843 111 101 844 102 107 845 106 100 846 108 102 847 109 105 848 93 115 849 113 103 850 109 105 851 108 102 852 111 101 853 98 116 854 92 0 855 112 0 856 113 0 857 114 118 858 116 263 859 117 119 860 116 121 861 118 264 862 119 122 863 118 124 864 120 265 865 121 125 866 115 129 867 117 266 868 119 127 869 119 127 870 121 2 871 123 128 872 122 130 873 123 267 874 121 131 875 114 133 876 115 268 877 123 134 878 125 0 879 127 0 880 126 136 881 127 138 882 131 269 883 130 139 884 130 141 885 131 4 886 129 4 887 129 143 888 125 260 889 124 144 890 124 137 891 126 136 892 132 146 893 134 2 894 135 2 895 133 92 896 128 142 897 135 261 898 134 147 899 128 145 900 124 144 901 133 148 902 130 139 903 134 150 904 132 150 905 140 151 906 139 270 907 144 152 908 136 2 909 137 2 910 147 155 911 147 155 912 148 271 913 142 272 914 142 272 915 143 154 916 147 155 917 157 0 918 156 0 919 138 0 920 138 0 921 139 0 922 140 0 923 140 0 924 141 0 925 138 0 926 150 156 927 146 163 928 155 157 929 157 159 930 141 164 931 151 160 932 149 153 933 151 160 934 141 164 935 152 158 936 148 173 937 147 165 938 149 153 939 144 152 940 146 163 941 143 166 942 142 172 943 155 157 944 144 152 945 139 270 946 138 168 947 145 162 948 138 168 949 156 169 950 154 167 951 156 169 952 136 170 953 154 167 954 155 157 955 146 163 956 150 156 957 152 158 958 153 161 959 137 171 960 157 159 961 153 161 962 152 158 963 155 157 964 142 172 965 136 0 966 156 0 967 157 0 968 158 174 969 160 273 970 161 175 971 160 177 972 162 274 973 163 178 974 162 179 975 164 275 976 165 180 977 159 184 978 161 266 979 163 182 980 163 182 981 165 2 982 167 183 983 166 185 984 167 257 985 165 186 986 158 188 987 159 276 988 167 189 989 169 0 990 171 0 991 170 191 992 171 193 993 175 259 994 174 194 995 174 196 996 175 4 997 173 4 998 173 198 999 169 277 1000 168 199 1001 168 192 1002 170 191 1003 176 201 1004 178 2 1005 179 2 1006 177 202 1007 172 197 1008 179 278 1009 178 203 1010 172 200 1011 168 199 1012 177 204 1013 174 194 1014 178 279 1015 176 206 1016 184 45 1017 183 253 1018 188 207 1019 180 2 1020 181 2 1021 191 210 1022 191 210 1023 192 280 1024 186 281 1025 186 281 1026 187 209 1027 191 210 1028 201 0 1029 200 0 1030 182 0 1031 182 0 1032 183 0 1033 184 0 1034 184 0 1035 185 0 1036 182 0 1037 194 211 1038 190 218 1039 199 212 1040 201 214 1041 185 219 1042 195 215 1043 193 208 1044 195 215 1045 185 219 1046 196 213 1047 192 227 1048 191 220 1049 188 207 1050 190 218 1051 194 211 1052 187 221 1053 186 226 1054 199 212 1055 188 207 1056 183 253 1057 182 223 1058 189 217 1059 182 223 1060 200 224 1061 198 222 1062 200 224 1063 180 62 1064 198 222 1065 199 212 1066 190 218 1067 194 211 1068 196 213 1069 197 216 1070 181 225 1071 201 214 1072 197 216 1073 196 213 1074 199 212 1075 186 226 1076 180 0 1077 200 0 1078 201 0 1079 202 228 1080 204 282 1081 205 229 1082 204 230 1083 206 283 1084 207 231 1085 206 233 1086 208 284 1087 209 234 1088 203 238 1089 205 266 1090 207 236 1091 207 236 1092 209 2 1093 211 237 1094 210 239 1095 211 285 1096 209 240 1097 202 188 1098 203 276 1099 211 189 1100 213 0 1101 215 0 1102 214 242 1103 215 83 1104 219 259 1105 218 244 1106 218 246 1107 219 4 1108 217 4 1109 217 247 1110 213 286 1111 212 248 1112 212 243 1113 214 242 1114 220 201 1115 222 2 1116 223 2 1117 221 250 1118 216 197 1119 223 287 1120 222 203 1121 216 249 1122 212 248 1123 221 204 1124 218 244 1125 222 288 1126 220 251 1127</p>
        </triangles>
      </mesh>
    </geometry>
  </library_geometries>
  <library_visual_scenes>
    <visual_scene id="Scene" name="Scene">
      <node id="Drink_machine" name="Drink_machine" type="NODE">
        <matrix sid="transform">5.62119e-9 0.4713832 0 0 -0.4713832 5.62119e-9 0 0 0 0 0.4713832 0 0 0 0 1</matrix>
        <instance_geometry url="#Drink_machine-mesh" name="Drink_machine">
          <bind_material>
            <technique_common>
              <instance_material symbol="Drink_machine-material" target="#Drink_machine-material">
                <bind_vertex_input semantic="UVMap" input_semantic="TEXCOORD" input_set="0"/>
              </instance_material>
            </technique_common>
          </bind_material>
        </instance_geometry>
      </node>
    </visual_scene>
  </library_visual_scenes>
  <scene>
    <instance_visual_scene url="#Scene"/>
  </scene>
</COLLADA>