<?xml version="1.0" encoding="utf-8"?>
<COLLADA xmlns="http://www.collada.org/2005/11/COLLADASchema" version="1.4.1" xmlns:xsi="http://www.w3.org/2001/XMLSchema-instance">
  <asset>
    <contributor>
      <author>Blender User</author>
      <authoring_tool>Blender 4.0.1 commit date:2023-11-16, commit time:16:40, hash:d0dd92834a08</authoring_tool>
    </contributor>
    <created>2023-11-28T13:54:16</created>
    <modified>2023-11-28T13:54:16</modified>
    <unit name="meter" meter="1"/>
    <up_axis>Z_UP</up_axis>
  </asset>
  <library_effects>
    <effect id="Glass-effect">
      <profile_COMMON>
        <technique sid="common">
          <lambert>
            <emission>
              <color sid="emission">0 0 0 1</color>
            </emission>
            <diffuse>
              <color sid="diffuse">0.8 0.8 0.8 1</color>
            </diffuse>
            <index_of_refraction>
              <float sid="ior">1.45</float>
            </index_of_refraction>
          </lambert>
        </technique>
      </profile_COMMON>
    </effect>
  </library_effects>
  <library_images/>
  <library_materials>
    <material id="Glass-material" name="Glass">
      <instance_effect url="#Glass-effect"/>
    </material>
  </library_materials>
  <library_geometries>
    <geometry id="Cup_Glass_01-mesh" name="Cup_Glass_01">
      <mesh>
        <source id="Cup_Glass_01-mesh-positions">
          <float_array id="Cup_Glass_01-mesh-positions-array" count="105">0 1.078023 -0.9999998 7.04272e-6 0.4076258 -0.5132012 0.8460095 0.670606 -0.9999998 0.294575 0.2657694 -0.5132012 1.054957 -0.2448511 -0.9999998 0.3673272 -0.05297917 -0.5132012 0.4694999 -0.9789907 -0.9999998 0.1634799 -0.3085957 -0.5132012 -0.4694999 -0.9789907 -0.9999998 -0.1634658 -0.3085957 -0.5132012 -1.054957 -0.2448511 -0.9999998 -0.3673132 -0.05297917 -0.5132012 -0.8460095 0.670606 -0.9999998 -0.2945609 0.2657694 -0.5132012 0.583751 0.4780735 -0.2684593 -3.86748e-6 0.759195 -0.2684593 0.7279266 -0.1536008 -0.2684593 0.3239557 -0.6601644 -0.2684593 -0.3239634 -0.6601644 -0.2684593 -0.7279343 -0.1536008 -0.2684593 -0.5837587 0.4780735 -0.2684593 1.020885 0.7836706 2.171736 -6.07666e-6 1.275306 2.171736 1.273024 -0.3210235 2.171736 0.5665457 -1.206919 2.171736 -0.5665578 -1.206919 2.171736 -1.273036 -0.3210235 2.171736 -1.020897 0.7836706 2.171736 0.5934987 0.4699069 0.357495 -5.10385e-6 0.7557234 0.357495 0.7400822 -0.1723167 0.357495 0.3293647 -0.68734 0.357495 -0.3293749 -0.68734 0.357495 -0.7400922 -0.1723167 0.357495 -0.593509 0.4699069 0.357495</float_array>
          <technique_common>
            <accessor source="#Cup_Glass_01-mesh-positions-array" count="35" stride="3">
              <param name="X" type="float"/>
              <param name="Y" type="float"/>
              <param name="Z" type="float"/>
            </accessor>
          </technique_common>
        </source>
        <source id="Cup_Glass_01-mesh-normals">
          <float_array id="Cup_Glass_01-mesh-normals-array" count="105">-1.72039e-6 0.9677848 -0.2517791 0.7731847 0.6340422 -0.01326948 0.7614703 0.5988616 -0.2480481 0.9784128 -0.2062425 -0.01313394 0.9446141 -0.2237465 -0.2400871 0.4404027 -0.897706 -0.01302248 0.418713 -0.8774278 -0.2340939 -0.4403917 -0.8977112 -0.01302766 -0.4187158 -0.8774268 -0.2340928 -0.9446151 -0.223746 -0.2400834 -0.9784119 -0.2062458 -0.01314556 -0.6693155 0.5345349 -0.5160322 -0.7731793 0.6340485 -0.01327908 -0.7614722 0.5988606 -0.2480447 0.3658765 -0.7587088 -0.5389764 -0.3658772 -0.7587056 -0.5389803 -1.285e-6 0.8601419 -0.5100548 6.92225e-6 0.9999111 -0.01333141 0.6693185 0.5345392 -0.5160239 0.8275519 -0.1879535 -0.528991 -0.8275463 -0.1879515 -0.5290005 -0.3729937 0.2843828 0.8831773 0.2057316 -0.4408067 0.873707 -0.205734 -0.4408056 0.873707 0.3729886 0.2843819 0.8831798 0.4637786 -0.1192113 0.8778942 -2.74488e-6 0.4645441 0.88555 -0.4637807 -0.1192116 0.877893 0.5369672 -0.431292 0.7250197 0 -0.690634 0.7232045 0.2966341 0.6129179 0.7323523 0.6679131 0.1493859 0.7290925 -0.2966343 0.612918 0.7323521 -0.5369673 -0.4312922 0.7250195 -0.6679134 0.1493858 0.7290922</float_array>
          <technique_common>
            <accessor source="#Cup_Glass_01-mesh-normals-array" count="35" stride="3">
              <param name="X" type="float"/>
              <param name="Y" type="float"/>
              <param name="Z" type="float"/>
            </accessor>
          </technique_common>
        </source>
        <source id="Cup_Glass_01-mesh-map-0">
          <float_array id="Cup_Glass_01-mesh-map-0-array" count="396">1.005573 0.487971 0.9038625 0.6673077 0.8509892 0.487971 0.8623539 0.4873349 0.7637549 0.6702287 0.7077701 0.4873349 0.719626 0.4865459 0.6199179 0.6739192 0.5650421 0.4865459 0.5772919 0.4861964 0.4730893 0.6755777 0.4227081 0.4861964 0.3800836 0.6739208 0.2803741 0.4865458 0.4349579 0.4865458 0.2362445 0.6760317 0.1589404 0.7347405 0.1824207 0.6760318 0.2362445 0.6702308 0.1376461 0.4873349 0.2922299 0.4873349 0.09613519 0.6673088 -0.005572974 0.4879708 0.1490108 0.4879709 0.9530422 0.4109454 0.86268 0.01504224 0.4968104 0.1912357 0.4730893 0.6816991 0.5533317 0.740211 0.4466672 0.740211 0.09613519 0.6729142 0.01720094 0.7317208 0.04231137 0.6729141 0.7637549 0.6760293 0.8410601 0.7347365 0.7343953 0.7347363 0.3800836 0.679948 0.3021957 0.7385236 0.3262598 0.6799479 0.9038625 0.6729129 0.9828002 0.7317188 0.8761355 0.7317189 0.619918 0.6799461 0.6978036 0.7385208 0.5911392 0.7385205 0.2656047 0.754917 0.1259061 1.073436 0.1589403 0.7549174 0.4466672 0.7613436 0.5932683 1.058932 0.4067298 1.058932 0.7343953 0.754913 0.8740947 1.073443 0.687556 1.073442 0.1238653 0.7513198 -0.01966381 1.08197 0.01720094 0.7513198 0.40886 0.7593737 0.2677938 1.063277 0.3021958 0.7593735 0.5911391 0.7593702 0.732205 1.063283 0.5456667 1.063282 -0.01966381 1.168978 0.1258947 1.16966 0.01744902 1.169661 0.267794 1.142565 0.4118022 1.143196 0.3033567 1.143196 0.732205 1.142572 0.5881968 1.143203 0.5456666 1.142571 1.019666 1.168982 0.8741065 1.169665 0.8331272 1.168982 0.1259061 1.156946 0.2690541 1.157606 0.1606083 1.157606 0.5932683 1.136393 0.4457764 1.137011 0.4067298 1.136393 0.8740947 1.156955 0.7309464 1.157615 0.687556 1.156955 0.665742 1.155233 0.1635723 1.164513 0.3053744 1.145501 0.8761356 0.7513178 1.019666 1.081973 0.8331269 1.081973 1.005573 0.487971 0.9576864 0.6673078 0.9038625 0.6673077 0.8623539 0.4873349 0.8175787 0.6702287 0.7637549 0.6702287 0.719626 0.4865459 0.6737417 0.6739193 0.6199179 0.6739192 0.5772919 0.4861964 0.5269131 0.6755775 0.4730893 0.6755777 0.3800836 0.6739208 0.3262598 0.6739208 0.2803741 0.4865458 0.2362445 0.6760317 0.2656047 0.7347402 0.1589404 0.7347405 0.2362445 0.6702308 0.1824207 0.6702308 0.1376461 0.4873349 0.09613519 0.6673088 0.04231142 0.6673088 -0.005572974 0.4879708 0.5469576 0.4109454 0.75 0.5087255 0.9530422 0.4109454 0.9530422 0.4109454 1.00319 0.1912357 0.86268 0.01504224 0.86268 0.01504224 0.63732 0.01504218 0.4968104 0.1912357 0.4968104 0.1912357 0.5469576 0.4109454 0.9530422 0.4109454 0.4730893 0.6816991 0.5269132 0.681699 0.5533317 0.740211 0.09613519 0.6729142 0.1238653 0.7317208 0.01720094 0.7317208 0.7637549 0.6760293 0.8175787 0.6760293 0.8410601 0.7347365 0.3800836 0.679948 0.40886 0.7385237 0.3021957 0.7385236 0.9038625 0.6729129 0.9576864 0.6729128 0.9828002 0.7317188 0.619918 0.6799461 0.6737417 0.6799461 0.6978036 0.7385208 0.2656047 0.754917 0.3124445 1.073436 0.1259061 1.073436 0.4466672 0.7613436 0.5533317 0.7613434 0.5932683 1.058932 0.7343953 0.754913 0.84106 0.7549133 0.8740947 1.073443 0.1238653 0.7513198 0.1668745 1.08197 -0.01966381 1.08197 0.40886 0.7593737 0.4543321 1.063277 0.2677938 1.063277 0.5911391 0.7593702 0.6978034 0.7593707 0.732205 1.063283 -0.01966381 1.168978 0.1668745 1.168978 0.1258947 1.16966 0.267794 1.142565 0.4543319 1.142565 0.4118022 1.143196 0.732205 1.142572 0.6966426 1.143204 0.5881968 1.143203 1.019666 1.168982 0.9825525 1.169665 0.8741065 1.169665 0.1259061 1.156946 0.3124446 1.156946 0.2690541 1.157606 0.5932683 1.136393 0.5542222 1.137011 0.4457764 1.137011 0.8740947 1.156955 0.8393924 1.157616 0.7309464 1.157615 0.665742 1.155233 0.6860029 1.157869 0.1635723 1.164513 0.1635723 1.164513 0.1899548 1.156449 0.3053744 1.145501 0.3053744 1.145501 0.4280329 1.140711 0.5506852 1.145386 0.5506852 1.145386 0.665742 1.155233 0.3053744 1.145501 0.8761356 0.7513178 0.9828003 0.7513177 1.019666 1.081973</float_array>
          <technique_common>
            <accessor source="#Cup_Glass_01-mesh-map-0-array" count="198" stride="2">
              <param name="S" type="float"/>
              <param name="T" type="float"/>
            </accessor>
          </technique_common>
        </source>
        <vertices id="Cup_Glass_01-mesh-vertices">
          <input semantic="POSITION" source="#Cup_Glass_01-mesh-positions"/>
        </vertices>
        <triangles material="Glass-material" count="66">
          <input semantic="VERTEX" source="#Cup_Glass_01-mesh-vertices" offset="0"/>
          <input semantic="NORMAL" source="#Cup_Glass_01-mesh-normals" offset="1"/>
          <input semantic="TEXCOORD" source="#Cup_Glass_01-mesh-map-0" offset="2" set="0"/>
          <p>0 0 0 3 1 1 2 2 2 2 2 3 5 3 4 4 4 5 4 4 6 7 5 7 6 6 8 6 6 9 9 7 10 8 8 11 9 7 12 10 9 13 8 8 14 11 10 15 20 11 16 13 12 17 11 10 18 12 13 19 10 9 20 13 12 21 0 0 22 12 13 23 2 2 24 6 6 25 10 9 26 9 7 27 17 14 28 18 15 29 13 12 30 15 16 31 1 17 32 5 3 33 14 18 34 16 19 35 9 7 36 19 20 37 11 10 38 3 1 39 15 16 40 14 18 41 7 5 42 16 19 43 17 14 44 19 20 45 27 21 46 20 11 47 18 15 48 24 22 49 25 23 50 16 19 51 21 24 52 23 25 53 20 11 54 22 26 55 15 16 56 18 15 57 26 27 58 19 20 59 17 14 60 23 25 61 24 22 62 22 26 63 34 28 64 29 29 65 26 27 66 32 30 67 33 31 68 23 25 69 31 32 70 24 22 71 22 26 72 28 33 73 21 24 74 27 21 75 33 31 76 34 28 77 24 22 78 32 30 79 25 23 80 21 24 81 30 34 82 23 25 83 30 34 84 29 29 85 33 31 86 14 18 87 22 26 88 21 24 89 0 0 90 1 17 91 3 1 92 2 2 93 3 1 94 5 3 95 4 4 96 5 3 97 7 5 98 6 6 99 7 5 100 9 7 101 9 7 102 11 10 103 10 9 104 11 10 105 19 20 106 20 11 107 11 10 108 13 12 109 12 13 110 13 12 111 1 17 112 0 0 113 12 13 114 0 0 115 2 2 116 2 2 117 4 4 118 6 6 119 6 6 120 8 8 121 10 9 122 10 9 123 12 13 124 2 2 125 9 7 126 7 5 127 17 14 128 13 12 129 20 11 130 15 16 131 5 3 132 3 1 133 14 18 134 9 7 135 18 15 136 19 20 137 3 1 138 1 17 139 15 16 140 7 5 141 5 3 142 16 19 143 19 20 144 26 27 145 27 21 146 18 15 147 17 14 148 24 22 149 16 19 150 14 18 151 21 24 152 20 11 153 27 21 154 22 26 155 18 15 156 25 23 157 26 27 158 17 14 159 16 19 160 23 25 161 22 26 162 27 21 163 34 28 164 26 27 165 25 23 166 32 30 167 23 25 168 30 34 169 31 32 170 22 26 171 29 29 172 28 33 173 27 21 174 26 27 175 33 31 176 24 22 177 31 32 178 32 30 179 21 24 180 28 33 181 30 34 182 30 34 183 28 33 184 29 29 185 29 29 186 34 28 187 33 31 188 33 31 189 32 30 190 31 32 191 31 32 192 30 34 193 33 31 194 14 18 195 15 16 196 22 26 197</p>
        </triangles>
      </mesh>
    </geometry>
  </library_geometries>
  <library_visual_scenes>
    <visual_scene id="Scene" name="Scene">
      <node id="Cup_Glass_01" name="Cup_Glass_01" type="NODE">
        <matrix sid="transform">-0.05638206 1.83716e-8 0 0 -1.83716e-8 -0.05638206 0 0 0 0 0.06453428 0 0 0 0 1</matrix>
        <instance_geometry url="#Cup_Glass_01-mesh" name="Cup_Glass_01">
          <bind_material>
            <technique_common>
              <instance_material symbol="Glass-material" target="#Glass-material">
                <bind_vertex_input semantic="UVMap" input_semantic="TEXCOORD" input_set="0"/>
              </instance_material>
            </technique_common>
          </bind_material>
        </instance_geometry>
      </node>
    </visual_scene>
  </library_visual_scenes>
  <scene>
    <instance_visual_scene url="#Scene"/>
  </scene>
</COLLADA>