<?xml version="1.0" encoding="utf-8"?>
<COLLADA xmlns="http://www.collada.org/2005/11/COLLADASchema" version="1.4.1" xmlns:xsi="http://www.w3.org/2001/XMLSchema-instance">
  <asset>
    <contributor>
      <author>Blender User</author>
      <authoring_tool>Blender 4.0.1 commit date:2023-11-16, commit time:16:40, hash:d0dd92834a08</authoring_tool>
    </contributor>
    <created>2023-11-28T13:33:42</created>
    <modified>2023-11-28T13:33:42</modified>
    <unit name="meter" meter="1"/>
    <up_axis>Z_UP</up_axis>
  </asset>
  <library_effects>
    <effect id="Hamburger_02-effect">
      <profile_COMMON>
        <newparam sid="Hamburger_02-surface">
          <surface type="2D">
            <init_from>Hamburger_02</init_from>
          </surface>
        </newparam>
        <newparam sid="Hamburger_02-sampler">
          <sampler2D>
            <source>Hamburger_02-surface</source>
          </sampler2D>
        </newparam>
        <technique sid="common">
          <lambert>
            <emission>
              <color sid="emission">0 0 0 1</color>
            </emission>
            <diffuse>
              <texture texture="Hamburger_02-sampler" texcoord="UVMap"/>
            </diffuse>
            <index_of_refraction>
              <float sid="ior">1.45</float>
            </index_of_refraction>
          </lambert>
        </technique>
      </profile_COMMON>
    </effect>
  </library_effects>
  <library_images>
    <image id="Hamburger_02" name="Hamburger_02">
      <init_from>Hamburger_02.png</init_from>
    </image>
  </library_images>
  <library_materials>
    <material id="Hamburger_02-material" name="Hamburger_02">
      <instance_effect url="#Hamburger_02-effect"/>
    </material>
  </library_materials>
  <library_geometries>
    <geometry id="Hamburger_02-mesh" name="Hamburger_02">
      <mesh>
        <source id="Hamburger_02-mesh-positions">
          <float_array id="Hamburger_02-mesh-positions-array" count="105">0 2.979655 -2.010954 0 4.090312 -1.188305 2.329588 1.857785 -2.010954 3.197934 2.550268 -1.188305 2.904949 -0.6630358 -2.010954 3.987759 -0.91018 -1.188305 1.292824 -2.684576 -2.010954 1.77472 -3.685243 -1.188305 -1.292824 -2.684576 -2.010954 -1.77472 -3.685243 -1.188305 -2.904949 -0.6630357 -2.010954 -3.987759 -0.91018 -1.188305 -2.329588 1.857785 -2.010954 -3.197934 2.550268 -1.188305 0 4.090312 1.126116 0 1.998831 2.591238 0 3.406575 1.874398 1.562749 1.246251 2.591238 3.197934 2.550268 1.126116 2.663368 2.123965 1.874398 1.948716 -0.4447816 2.591238 3.987759 -0.91018 1.126116 3.321165 -0.7580344 1.874398 0.8672601 -1.800884 2.591238 1.77472 -3.685243 1.126116 1.478057 -3.069218 1.874398 -0.8672602 -1.800884 2.591238 -1.77472 -3.685243 1.126116 -1.478057 -3.069218 1.874398 -1.948716 -0.4447817 2.591238 -3.987759 -0.91018 1.126116 -3.321165 -0.7580344 1.874398 -1.562749 1.246251 2.591238 -3.197934 2.550268 1.126116 -2.663368 2.123965 1.874398</float_array>
          <technique_common>
            <accessor source="#Hamburger_02-mesh-positions-array" count="35" stride="3">
              <param name="X" type="float"/>
              <param name="Y" type="float"/>
              <param name="Z" type="float"/>
            </accessor>
          </technique_common>
        </source>
        <source id="Hamburger_02-mesh-normals">
          <float_array id="Hamburger_02-mesh-normals-array" count="105">0.7375229 0.588155 0.3318641 0.8908357 -0.2033273 -0.4062879 0.7143947 0.5697109 -0.4062879 0.4092943 -0.8499085 0.3318642 -0.3964592 -0.8232559 -0.406288 0.3964591 -0.8232559 -0.406288 -0.4092943 -0.8499084 0.3318643 -0.8908357 -0.2033273 -0.4062879 -0.9196761 -0.20991 0.3318641 -0.7143948 0.5697107 -0.4062879 -0.7375229 0.588155 0.3318641 0 0.9137452 -0.4062879 0.9196761 -0.2099099 0.3318641 0 0.294084 0.9557797 -0.2867107 -0.06543982 0.9557797 0.1275982 -0.2649605 0.9557797 0 0.3890632 -0.921211 0.3041818 0.242577 -0.9212111 0.1688082 -0.3505338 -0.9212111 0.3793085 -0.08657473 -0.9212111 -0.1688082 -0.3505338 -0.9212111 -0.3793086 -0.08657467 -0.9212111 -0.3041818 0.2425769 -0.9212111 0 0.635784 0.7718672 0.497076 0.3964049 0.771867 0.229924 0.1833583 0.9557797 0.6198437 -0.1414753 0.771867 0.2867107 -0.06543982 0.9557797 0.2758563 -0.5728217 0.7718671 -0.2758563 -0.5728215 0.7718671 -0.1275984 -0.2649606 0.9557796 -0.6198437 -0.1414753 0.7718669 -0.497076 0.3964049 0.771867 -0.2299241 0.1833584 0.9557797 0 0.9433272 0.3318642</float_array>
          <technique_common>
            <accessor source="#Hamburger_02-mesh-normals-array" count="35" stride="3">
              <param name="X" type="float"/>
              <param name="Y" type="float"/>
              <param name="Z" type="float"/>
            </accessor>
          </technique_common>
        </source>
        <source id="Hamburger_02-mesh-map-0">
          <float_array id="Hamburger_02-mesh-map-0-array" count="396">0.8571429 0.807296 0.7142857 0.5603074 0.8571429 0.5603073 0.5714286 0.8072959 0.4285715 0.5603074 0.5714286 0.5603073 0.4285715 0.807296 0.2857143 0.5603074 0.4285715 0.5603073 0.2857143 0.807296 0.1428571 0.5603074 0.2857143 0.5603073 0.1428571 0.807296 0 0.5603074 0.1428571 0.5603073 0.7142857 0.807296 0.5714286 0.5603074 0.7142857 0.5603073 0.25 0.4166292 0.08754855 0.2129215 0.3222977 0.09987229 0.9376395 0.3996376 0.75 0.4458732 0.75 0.49 0.9839827 0.196595 0.9031397 0.3721249 0.9376395 0.3996376 0.9839827 0.196595 0.8349861 0.07352441 0.9409621 0.2064141 0.6458679 0.03376746 0.8349861 0.07352441 0.8541321 0.03376746 0.5160173 0.196595 0.6650139 0.07352441 0.6458679 0.03376746 0.5623605 0.3996376 0.5590378 0.2064141 0.5160173 0.196595 0.75 0.49 0.5968602 0.3721249 0.5623605 0.3996376 0.5590378 0.2064141 0.5968602 0.3721249 0.9031397 0.3721249 0.8571429 0.807296 0.9936042 1 0.8635386 1 0.2584007 0.4859544 0.380276 0.3538916 0.4292389 0.4036831 0.7142857 0.807296 0.8507471 1 0.7206816 1 0.4397143 0.3905472 0.4124514 0.2129215 0.4819079 0.2056853 0.7142857 0.807296 0.5778244 1 0.5714286 0.807296 0.3599456 0.04105734 0.4124514 0.2129215 0.3222977 0.09987229 0.5714286 0.8072959 0.4349672 1 0.4285715 0.807296 0.3448081 0.03376746 0.1777023 0.09987229 0.155192 0.03376746 0.2857143 0.807296 0.4221757 1 0.2921101 1 0.1400544 0.04105728 0.08754855 0.2129215 0.02183073 0.1893051 0.2857143 0.807296 0.1492529 1 0.1428571 0.807296 0.01809209 0.2056853 0.119724 0.3538916 0.06028562 0.3905472 0.1428571 0.807296 0.006395757 1 0 0.807296 0.07076114 0.4036831 0.25 0.4166292 0.2415993 0.4859544 1 0.807296 0.8571429 0.5603074 1 0.5603073 0.8571429 0.807296 0.7142857 0.807296 0.7142857 0.5603074 0.5714286 0.8072959 0.4285715 0.807296 0.4285715 0.5603074 0.4285715 0.807296 0.2857143 0.807296 0.2857143 0.5603074 0.2857143 0.807296 0.1428571 0.807296 0.1428571 0.5603074 0.1428571 0.807296 0 0.807296 0 0.5603074 0.7142857 0.807296 0.5714286 0.807296 0.5714286 0.5603074 0.4124514 0.2129215 0.380276 0.3538916 0.25 0.4166292 0.25 0.4166292 0.119724 0.3538916 0.08754855 0.2129215 0.08754855 0.2129215 0.1777023 0.09987229 0.3222977 0.09987229 0.3222977 0.09987229 0.4124514 0.2129215 0.25 0.4166292 0.9376395 0.3996376 0.9031397 0.3721249 0.75 0.4458732 0.9839827 0.196595 0.9409621 0.2064141 0.9031397 0.3721249 0.9839827 0.196595 0.8541321 0.03376746 0.8349861 0.07352441 0.6458679 0.03376746 0.6650139 0.07352441 0.8349861 0.07352441 0.5160173 0.196595 0.5590378 0.2064141 0.6650139 0.07352441 0.5623605 0.3996376 0.5968602 0.3721249 0.5590378 0.2064141 0.75 0.49 0.75 0.4458732 0.5968602 0.3721249 0.5968602 0.3721249 0.75 0.4458732 0.9031397 0.3721249 0.9031397 0.3721249 0.9409621 0.2064141 0.5590378 0.2064141 0.9409621 0.2064141 0.8349861 0.07352441 0.5590378 0.2064141 0.8349861 0.07352441 0.6650139 0.07352441 0.5590378 0.2064141 0.8571429 0.807296 1 0.807296 0.9936042 1 0.2584007 0.4859544 0.25 0.4166292 0.380276 0.3538916 0.7142857 0.807296 0.8571429 0.807296 0.8507471 1 0.4397143 0.3905472 0.380276 0.3538916 0.4124514 0.2129215 0.7142857 0.807296 0.70789 1 0.5778244 1 0.3599456 0.04105734 0.4781692 0.1893051 0.4124514 0.2129215 0.5714286 0.8072959 0.5650328 1 0.4349672 1 0.3448081 0.03376746 0.3222977 0.09987229 0.1777023 0.09987229 0.2857143 0.807296 0.4285715 0.807296 0.4221757 1 0.1400544 0.04105728 0.1777023 0.09987229 0.08754855 0.2129215 0.2857143 0.807296 0.2793186 1 0.1492529 1 0.01809209 0.2056853 0.08754855 0.2129215 0.119724 0.3538916 0.1428571 0.807296 0.1364614 1 0.006395757 1 0.07076114 0.4036831 0.119724 0.3538916 0.25 0.4166292 1 0.807296 0.8571429 0.807296 0.8571429 0.5603074</float_array>
          <technique_common>
            <accessor source="#Hamburger_02-mesh-map-0-array" count="198" stride="2">
              <param name="S" type="float"/>
              <param name="T" type="float"/>
            </accessor>
          </technique_common>
        </source>
        <vertices id="Hamburger_02-mesh-vertices">
          <input semantic="POSITION" source="#Hamburger_02-mesh-positions"/>
        </vertices>
        <triangles material="Hamburger_02-material" count="66">
          <input semantic="VERTEX" source="#Hamburger_02-mesh-vertices" offset="0"/>
          <input semantic="NORMAL" source="#Hamburger_02-mesh-normals" offset="1"/>
          <input semantic="TEXCOORD" source="#Hamburger_02-mesh-map-0" offset="2" set="0"/>
          <p>18 0 0 5 1 1 3 2 2 24 3 3 9 4 4 7 5 5 27 6 6 11 7 7 9 4 8 30 8 9 13 9 10 11 7 11 33 10 12 1 11 13 13 9 14 21 12 15 7 5 16 5 1 17 15 13 18 29 14 19 23 15 20 3 2 21 0 16 22 1 11 23 5 1 24 2 17 25 3 2 26 5 1 27 6 18 28 4 19 29 9 4 30 6 18 31 7 5 32 11 7 33 8 20 34 9 4 35 13 9 36 10 21 37 11 7 38 1 11 39 12 22 40 13 9 41 10 21 42 12 22 43 2 17 44 18 0 45 16 23 46 19 24 47 16 23 48 17 25 49 19 24 50 21 12 51 19 24 52 22 26 53 19 24 54 20 27 55 22 26 56 21 12 57 25 28 58 24 3 59 25 28 60 20 27 61 23 15 62 24 3 63 28 29 64 27 6 65 25 28 66 26 30 67 28 29 68 30 8 69 28 29 70 31 31 71 28 29 72 29 14 73 31 31 74 30 8 75 34 32 76 33 10 77 31 31 78 32 33 79 34 32 80 33 10 81 16 23 82 14 34 83 34 32 84 15 13 85 16 23 86 14 34 87 3 2 88 1 11 89 18 0 90 21 12 91 5 1 92 24 3 93 27 6 94 9 4 95 27 6 96 30 8 97 11 7 98 30 8 99 33 10 100 13 9 101 33 10 102 14 34 103 1 11 104 21 12 105 24 3 106 7 5 107 20 27 108 17 25 109 15 13 110 15 13 111 32 33 112 29 14 113 29 14 114 26 30 115 23 15 116 23 15 117 20 27 118 15 13 119 3 2 120 2 17 121 0 16 122 5 1 123 4 19 124 2 17 125 5 1 126 7 5 127 6 18 128 9 4 129 8 20 130 6 18 131 11 7 132 10 21 133 8 20 134 13 9 135 12 22 136 10 21 137 1 11 138 0 16 139 12 22 140 12 22 141 0 16 142 2 17 143 2 17 144 4 19 145 10 21 146 4 19 147 6 18 148 10 21 149 6 18 150 8 20 151 10 21 152 18 0 153 14 34 154 16 23 155 16 23 156 15 13 157 17 25 158 21 12 159 18 0 160 19 24 161 19 24 162 17 25 163 20 27 164 21 12 165 22 26 166 25 28 167 25 28 168 22 26 169 20 27 170 24 3 171 25 28 172 28 29 173 25 28 174 23 15 175 26 30 176 30 8 177 27 6 178 28 29 179 28 29 180 26 30 181 29 14 182 30 8 183 31 31 184 34 32 185 31 31 186 29 14 187 32 33 188 33 10 189 34 32 190 16 23 191 34 32 192 32 33 193 15 13 194 14 34 195 18 0 196 3 2 197</p>
        </triangles>
      </mesh>
    </geometry>
  </library_geometries>
  <library_visual_scenes>
    <visual_scene id="Scene" name="Scene">
      <node id="Hamburger_02" name="Hamburger_02" type="NODE">
        <matrix sid="transform">-0.02682949 8.74216e-9 0 0 -8.74216e-9 -0.02682949 0 0 0 0 0.02682949 0 0 0 0 1</matrix>
        <instance_geometry url="#Hamburger_02-mesh" name="Hamburger_02">
          <bind_material>
            <technique_common>
              <instance_material symbol="Hamburger_02-material" target="#Hamburger_02-material">
                <bind_vertex_input semantic="UVMap" input_semantic="TEXCOORD" input_set="0"/>
              </instance_material>
            </technique_common>
          </bind_material>
        </instance_geometry>
      </node>
    </visual_scene>
  </library_visual_scenes>
  <scene>
    <instance_visual_scene url="#Scene"/>
  </scene>
</COLLADA>