<?xml version="1.0" encoding="utf-8"?>
<COLLADA xmlns="http://www.collada.org/2005/11/COLLADASchema" version="1.4.1" xmlns:xsi="http://www.w3.org/2001/XMLSchema-instance">
  <asset>
    <contributor>
      <author>Blender User</author>
      <authoring_tool>Blender 4.0.1 commit date:2023-11-16, commit time:16:40, hash:d0dd92834a08</authoring_tool>
    </contributor>
    <created>2023-11-28T13:09:04</created>
    <modified>2023-11-28T13:09:04</modified>
    <unit name="meter" meter="1"/>
    <up_axis>Z_UP</up_axis>
  </asset>
  <library_effects>
    <effect id="DoorsMetal-effect">
      <profile_COMMON>
        <newparam sid="DoorsMetal_jpg-surface">
          <surface type="2D">
            <init_from>DoorsMetal_jpg</init_from>
          </surface>
        </newparam>
        <newparam sid="DoorsMetal_jpg-sampler">
          <sampler2D>
            <source>DoorsMetal_jpg-surface</source>
          </sampler2D>
        </newparam>
        <technique sid="common">
          <lambert>
            <emission>
              <color sid="emission">0 0 0 1</color>
            </emission>
            <diffuse>
              <texture texture="DoorsMetal_jpg-sampler" texcoord="UVMap"/>
            </diffuse>
            <index_of_refraction>
              <float sid="ior">1.45</float>
            </index_of_refraction>
          </lambert>
        </technique>
      </profile_COMMON>
    </effect>
    <effect id="Glass-effect">
      <profile_COMMON>
        <technique sid="common">
          <lambert>
            <emission>
              <color sid="emission">0 0 0 1</color>
            </emission>
            <diffuse>
              <color sid="diffuse">0.8 0.8 0.8 1</color>
            </diffuse>
            <index_of_refraction>
              <float sid="ior">1.45</float>
            </index_of_refraction>
          </lambert>
        </technique>
      </profile_COMMON>
    </effect>
  </library_effects>
  <library_images>
    <image id="DoorsMetal_jpg" name="DoorsMetal_jpg">
      <init_from>DoorsMetal.jpg</init_from>
    </image>
  </library_images>
  <library_materials>
    <material id="DoorsMetal-material" name="DoorsMetal">
      <instance_effect url="#DoorsMetal-effect"/>
    </material>
    <material id="Glass-material" name="Glass">
      <instance_effect url="#Glass-effect"/>
    </material>
  </library_materials>
  <library_geometries>
    <geometry id="DoorsMetal-mesh" name="DoorsMetal">
      <mesh>
        <source id="DoorsMetal-mesh-positions">
          <float_array id="DoorsMetal-mesh-positions-array" count="168">-0.0453906 -1.148935 -1.490654 -0.0453906 -1.148935 1.14853 -0.0453906 -1.2517e-5 -1.490654 -0.0453906 -1.2517e-5 1.14853 0.06018745 -1.148935 -1.490654 0.06018745 -1.148935 1.14853 0.06018745 -1.2517e-5 -1.490654 0.06018745 -1.2517e-5 1.14853 -0.0453906 -1.075718 -0.02190309 -0.0453906 -1.075718 1.021651 -0.0453906 -0.08182442 1.021651 -0.0453906 -0.08182442 -0.02190309 0.06018745 -1.075718 1.021651 0.06018745 -0.08182442 -0.02190309 0.06018745 -0.08182442 1.021651 0.06018745 -1.075718 -0.02190309 -0.01110637 -1.075718 1.021651 -0.01110637 -0.08182442 -0.02190309 -0.01110637 -0.08182442 1.021651 -0.01110637 -1.075718 -0.02190309 0.02889209 -1.075718 1.021651 0.02889209 -0.08182442 -0.02190309 0.02889209 -0.08182442 1.021651 0.02889209 -1.075718 -0.02190309 0.05162167 -1.131581 -0.2495763 0.05162167 -1.131581 0.06876891 0.05162167 -1.106864 -0.2495763 0.05162167 -1.106864 0.06876891 0.1129972 -1.131581 -0.2495763 0.1129972 -1.131581 0.06876891 0.1129972 -1.106864 -0.2495763 0.1129972 -1.106864 0.06876891 0.1352596 -1.106864 0.06876891 0.1352596 -1.106864 -0.2495763 0.1352596 -1.131581 -0.2495763 0.1352596 -1.131581 0.06876891 0.1129972 -1.002626 0.06876891 0.1129972 -1.002626 -0.2495763 0.1352596 -1.002626 0.06876891 0.1352596 -1.002626 -0.2495763 -0.03975391 -1.131581 -0.2495762 -0.03975391 -1.131581 0.06876891 -0.03975391 -1.106864 -0.2495762 -0.03975391 -1.106864 0.06876891 -0.1011295 -1.131581 -0.2495762 -0.1011295 -1.131581 0.06876891 -0.1011295 -1.106864 -0.2495762 -0.1011295 -1.106864 0.06876891 -0.1233919 -1.106864 0.06876891 -0.1233919 -1.106864 -0.2495762 -0.1233919 -1.131581 -0.2495762 -0.1233919 -1.131581 0.06876891 -0.1011295 -1.002626 0.06876891 -0.1011295 -1.002626 -0.2495762 -0.1233919 -1.002626 0.06876891 -0.1233919 -1.002626 -0.2495762</float_array>
          <technique_common>
            <accessor source="#DoorsMetal-mesh-positions-array" count="56" stride="3">
              <param name="X" type="float"/>
              <param name="Y" type="float"/>
              <param name="Z" type="float"/>
            </accessor>
          </technique_common>
        </source>
        <source id="DoorsMetal-mesh-normals">
          <float_array id="DoorsMetal-mesh-normals-array" count="33">-1 0 0 0 1 0 1 0 0 0 -1 0 0 0 -1 0 0 1 -1 0 0 -1 0 0 -1 0 0 1 0 0 1 0 0</float_array>
          <technique_common>
            <accessor source="#DoorsMetal-mesh-normals-array" count="11" stride="3">
              <param name="X" type="float"/>
              <param name="Y" type="float"/>
              <param name="Z" type="float"/>
            </accessor>
          </technique_common>
        </source>
        <source id="DoorsMetal-mesh-map-0">
          <float_array id="DoorsMetal-mesh-map-0-array" count="528">1 0.002206087 0.007424771 0.002206146 0.9293213 0.5573413 0.007424712 0.999723 0.9293212 0.9517675 0.07067877 0.9517676 0.9447835 0.999723 1 0.002206087 0.9447836 0.002206087 0.9293213 0.5573413 0.07067877 0.5573413 0.007424712 0.002206087 0.9293212 0.9517676 0.007424771 0.9997231 0.07067877 0.9517675 0.9836208 0.999723 0.9284044 0.002206146 0.983621 0.002206146 1 0.71875 0.9447834 0.2844983 0.9447835 0.71875 0.9447835 0.71875 1 0.2844983 1 0.71875 0.3330128 0.5025931 0.3904149 0.09255504 0.3904149 0.5025931 0.3330128 0.09255504 0.3904149 0.5025931 0.3904149 0.09255504 0.3330128 0.1023116 0.3904149 0.4928367 0.3330128 0.4928367 0.3904149 0.4928367 0.3330128 0.1023116 0.3330128 0.4928367 0.02379423 1 0.9762057 0 0.9762057 1 0.9762057 0 0.02379423 1 0.9762057 1 0.04178833 0.5899068 0.08900791 0.4827541 0.04178833 0.4827541 0.08900791 0.4827541 0.1061356 0.5899068 0.08900791 0.5899068 0.08900791 0.5899068 0.04178833 0.4827541 0.08900791 0.4827541 0.08900791 0.5229475 0.04178833 0.5146279 0.04178833 0.5229475 0.04178833 0.5229475 0.08900791 0.5146279 0.08900791 0.5229475 0.04337251 0.5899068 0.02435606 0.4827541 0.04337251 0.4827541 0.08900791 0.5229475 0.1061356 0.5146279 0.08900791 0.5146279 0.08900791 0.5146279 0.1061356 0.5229475 0.08900791 0.5229475 0.08900791 0.5229475 0.1061356 0.558033 0.1061356 0.5229475 0.08900791 0.5899068 0.1061356 0.4827541 0.08900791 0.4827541 0.04337251 0.4827541 0.1235678 0.5899068 0.04337251 0.5899068 0.1061356 0.5229475 0.08900791 0.558033 0.08900791 0.5229475 0.04337251 0.5899068 0.1235678 0.4827541 0.04337251 0.4827541 0.08900791 0.4827541 0.04178833 0.5899068 0.04178833 0.4827541 0.1061356 0.5899068 0.08900791 0.4827541 0.08900791 0.5899068 0.04178833 0.4827541 0.08900791 0.5899068 0.08900791 0.4827541 0.04178833 0.5146279 0.08900791 0.5229475 0.04178833 0.5229475 0.08900791 0.5146279 0.04178833 0.5229475 0.08900791 0.5229475 0.02435606 0.4827541 0.04337251 0.5899068 0.04337251 0.4827541 0.1061356 0.5146279 0.08900791 0.5229475 0.08900791 0.5146279 0.1061356 0.5229475 0.08900791 0.5146279 0.08900791 0.5229475 0.1061356 0.558033 0.08900791 0.5229475 0.1061356 0.5229475 0.1061356 0.4827541 0.08900791 0.5899068 0.08900791 0.4827541 0.1235678 0.5899068 0.04337251 0.4827541 0.04337251 0.5899068 0.08900791 0.558033 0.1061356 0.5229475 0.08900791 0.5229475 0.1235678 0.4827541 0.04337251 0.5899068 0.04337251 0.4827541 0.9293213 0.5573413 0.9293212 0.9517675 1 0.999723 0.007424771 0.002206146 0.007424712 0.9997232 0.07067877 0.5573413 0.007424712 0.9997232 0.07067877 0.9517676 0.07067877 0.5573413 0.9293213 0.5573413 1 0.999723 1 0.002206087 0.007424771 0.002206146 0.07067877 0.5573413 0.9293213 0.5573413 0.007424712 0.999723 1 0.999723 0.9293212 0.9517675 0.9447835 0.999723 1 0.999723 1 0.002206087 0.07067877 0.9517675 0.007424712 0.9997231 0.07067877 0.5573413 0.007424712 0.9997231 0.007424712 0.002206087 0.07067877 0.5573413 1 0.002206146 1 0.999723 0.9293213 0.5573413 1 0.999723 0.9293212 0.9517676 0.9293213 0.5573413 1 0.002206146 0.9293213 0.5573413 0.007424712 0.002206087 0.9293212 0.9517676 1 0.999723 0.007424771 0.9997231 0.9836208 0.999723 0.9284043 0.9997231 0.9284044 0.002206146 1 0.71875 1 0.2844983 0.9447834 0.2844983 0.9447835 0.71875 0.9447835 0.2844983 1 0.2844983 0.3330128 0.5025931 0.3330128 0.09255504 0.3904149 0.09255504 0.3330128 0.09255504 0.3330128 0.5025931 0.3904149 0.5025931 0.3330128 0.1023116 0.3904149 0.1023116 0.3904149 0.4928367 0.3904149 0.4928367 0.3904149 0.1023116 0.3330128 0.1023116 0.02379423 1 0.02379423 0 0.9762057 0 0.9762057 0 0.02379423 0 0.02379423 1 0.04178833 0.5899068 0.08900791 0.5899068 0.08900791 0.4827541 0.08900791 0.4827541 0.1061356 0.4827541 0.1061356 0.5899068 0.08900791 0.5899068 0.04178833 0.5899068 0.04178833 0.4827541 0.08900791 0.5229475 0.08900791 0.5146279 0.04178833 0.5146279 0.04178833 0.5229475 0.04178833 0.5146279 0.08900791 0.5146279 0.04337251 0.5899068 0.02435606 0.5899068 0.02435606 0.4827541 0.08900791 0.5229475 0.1061356 0.5229475 0.1061356 0.5146279 0.08900791 0.5146279 0.1061356 0.5146279 0.1061356 0.5229475 0.08900791 0.5229475 0.08900791 0.558033 0.1061356 0.558033 0.08900791 0.5899068 0.1061356 0.5899068 0.1061356 0.4827541 0.04337251 0.4827541 0.1235678 0.4827541 0.1235678 0.5899068 0.1061356 0.5229475 0.1061356 0.558033 0.08900791 0.558033 0.04337251 0.5899068 0.1235678 0.5899068 0.1235678 0.4827541 0.08900791 0.4827541 0.08900791 0.5899068 0.04178833 0.5899068 0.1061356 0.5899068 0.1061356 0.4827541 0.08900791 0.4827541 0.04178833 0.4827541 0.04178833 0.5899068 0.08900791 0.5899068 0.04178833 0.5146279 0.08900791 0.5146279 0.08900791 0.5229475 0.08900791 0.5146279 0.04178833 0.5146279 0.04178833 0.5229475 0.02435606 0.4827541 0.02435606 0.5899068 0.04337251 0.5899068 0.1061356 0.5146279 0.1061356 0.5229475 0.08900791 0.5229475 0.1061356 0.5229475 0.1061356 0.5146279 0.08900791 0.5146279 0.1061356 0.558033 0.08900791 0.558033 0.08900791 0.5229475 0.1061356 0.4827541 0.1061356 0.5899068 0.08900791 0.5899068 0.1235678 0.5899068 0.1235678 0.4827541 0.04337251 0.4827541 0.08900791 0.558033 0.1061356 0.558033 0.1061356 0.5229475 0.1235678 0.4827541 0.1235678 0.5899068 0.04337251 0.5899068</float_array>
          <technique_common>
            <accessor source="#DoorsMetal-mesh-map-0-array" count="264" stride="2">
              <param name="S" type="float"/>
              <param name="T" type="float"/>
            </accessor>
          </technique_common>
        </source>
        <vertices id="DoorsMetal-mesh-vertices">
          <input semantic="POSITION" source="#DoorsMetal-mesh-positions"/>
        </vertices>
        <triangles material="DoorsMetal-material" count="84">
          <input semantic="VERTEX" source="#DoorsMetal-mesh-vertices" offset="0"/>
          <input semantic="NORMAL" source="#DoorsMetal-mesh-normals" offset="1"/>
          <input semantic="TEXCOORD" source="#DoorsMetal-mesh-map-0" offset="2" set="0"/>
          <p>2 0 0 0 0 1 11 0 2 1 0 3 10 0 4 9 0 5 3 1 6 6 1 7 2 1 8 13 2 9 15 2 10 4 2 11 14 2 12 5 2 13 12 2 14 5 3 15 0 3 16 4 3 17 6 4 18 0 4 19 2 4 20 3 5 21 5 5 22 7 5 23 10 3 24 13 3 25 14 3 26 8 1 27 12 1 28 15 1 29 8 5 30 13 5 31 11 5 32 14 4 33 9 4 34 10 4 35 27 1 42 30 1 43 26 1 44 28 3 45 35 3 46 29 3 47 29 3 48 24 3 49 28 3 50 30 4 51 24 4 52 26 4 53 27 5 54 29 5 55 31 5 56 32 2 57 34 2 58 33 2 59 30 4 60 34 4 61 28 4 62 29 5 63 32 5 64 31 5 65 30 4 66 39 4 67 33 4 68 36 1 69 39 1 70 37 1 71 33 2 72 38 2 73 32 2 74 32 5 75 36 5 76 31 5 77 31 0 78 37 0 79 30 0 80 46 1 81 43 1 82 42 1 83 51 3 84 44 3 85 45 3 86 40 3 87 45 3 88 44 3 89 40 4 90 46 4 91 42 4 92 45 5 93 43 5 94 47 5 95 50 0 96 48 0 97 49 0 98 50 4 99 46 4 100 44 4 101 48 5 102 45 5 103 47 5 104 55 4 105 46 4 106 49 4 107 55 1 108 52 1 109 53 1 110 54 0 111 49 0 112 48 0 113 52 5 114 48 5 115 47 5 116 53 2 117 47 2 118 46 2 119 11 6 120 10 6 121 3 6 122 0 7 123 1 7 124 8 7 125 1 0 126 9 0 127 8 0 128 11 8 129 3 8 130 2 8 131 0 0 132 8 0 133 11 0 134 1 0 135 3 0 136 10 0 137 3 1 138 7 1 139 6 1 140 12 2 141 5 2 142 15 2 143 5 9 144 4 9 145 15 9 146 6 10 147 7 10 148 13 10 149 7 2 150 14 2 151 13 2 152 6 2 153 13 2 154 4 2 155 14 2 156 7 2 157 5 2 158 5 3 159 1 3 160 0 3 161 6 4 162 4 4 163 0 4 164 3 5 165 1 5 166 5 5 167 10 3 168 11 3 169 13 3 170 8 1 171 9 1 172 12 1 173 8 5 174 15 5 175 13 5 176 14 4 177 12 4 178 9 4 179 27 1 186 31 1 187 30 1 188 28 3 189 34 3 190 35 3 191 29 3 192 25 3 193 24 3 194 30 4 195 28 4 196 24 4 197 27 5 198 25 5 199 29 5 200 32 2 201 35 2 202 34 2 203 30 4 204 33 4 205 34 4 206 29 5 207 35 5 208 32 5 209 30 4 210 37 4 211 39 4 212 36 1 213 38 1 214 39 1 215 33 2 216 39 2 217 38 2 218 32 5 219 38 5 220 36 5 221 31 0 222 36 0 223 37 0 224 46 1 225 47 1 226 43 1 227 51 3 228 50 3 229 44 3 230 40 3 231 41 3 232 45 3 233 40 4 234 44 4 235 46 4 236 45 5 237 41 5 238 43 5 239 50 0 240 51 0 241 48 0 242 50 4 243 49 4 244 46 4 245 48 5 246 51 5 247 45 5 248 55 4 249 53 4 250 46 4 251 55 1 252 54 1 253 52 1 254 54 0 255 55 0 256 49 0 257 52 5 258 54 5 259 48 5 260 53 2 261 52 2 262 47 2 263</p>
        </triangles>
        <triangles material="Glass-material" count="4">
          <input semantic="VERTEX" source="#DoorsMetal-mesh-vertices" offset="0"/>
          <input semantic="NORMAL" source="#DoorsMetal-mesh-normals" offset="1"/>
          <input semantic="TEXCOORD" source="#DoorsMetal-mesh-map-0" offset="2" set="0"/>
          <p>20 2 36 21 2 37 22 2 38 17 0 39 16 0 40 18 0 41 20 2 180 23 2 181 21 2 182 17 0 183 19 0 184 16 0 185</p>
        </triangles>
      </mesh>
    </geometry>
  </library_geometries>
  <library_visual_scenes>
    <visual_scene id="Scene" name="Scene">
      <node id="DoorsMetal" name="DoorsMetal" type="NODE">
        <matrix sid="transform">-4.37114e-8 -1 0 0 1 -4.37114e-8 0 0 0 0 1 0 0 0 0 1</matrix>
        <instance_geometry url="#DoorsMetal-mesh" name="DoorsMetal">
          <bind_material>
            <technique_common>
              <instance_material symbol="DoorsMetal-material" target="#DoorsMetal-material">
                <bind_vertex_input semantic="UVMap" input_semantic="TEXCOORD" input_set="0"/>
              </instance_material>
              <instance_material symbol="Glass-material" target="#Glass-material">
                <bind_vertex_input semantic="UVMap" input_semantic="TEXCOORD" input_set="0"/>
              </instance_material>
            </technique_common>
          </bind_material>
        </instance_geometry>
      </node>
    </visual_scene>
  </library_visual_scenes>
  <scene>
    <instance_visual_scene url="#Scene"/>
  </scene>
</COLLADA>