<?xml version="1.0" encoding="utf-8"?>
<COLLADA xmlns="http://www.collada.org/2005/11/COLLADASchema" version="1.4.1" xmlns:xsi="http://www.w3.org/2001/XMLSchema-instance">
  <asset>
    <contributor>
      <author>Blender User</author>
      <authoring_tool>Blender 4.0.1 commit date:2023-11-16, commit time:16:40, hash:d0dd92834a08</authoring_tool>
    </contributor>
    <created>2023-11-28T13:37:34</created>
    <modified>2023-11-28T13:37:34</modified>
    <unit name="meter" meter="1"/>
    <up_axis>Z_UP</up_axis>
  </asset>
  <library_effects>
    <effect id="Milk_shake-effect">
      <profile_COMMON>
        <newparam sid="Milk_shake_png-surface">
          <surface type="2D">
            <init_from>Milk_shake_png</init_from>
          </surface>
        </newparam>
        <newparam sid="Milk_shake_png-sampler">
          <sampler2D>
            <source>Milk_shake_png-surface</source>
          </sampler2D>
        </newparam>
        <technique sid="common">
          <lambert>
            <emission>
              <color sid="emission">0 0 0 1</color>
            </emission>
            <diffuse>
              <texture texture="Milk_shake_png-sampler" texcoord="UVMap"/>
            </diffuse>
            <index_of_refraction>
              <float sid="ior">1.45</float>
            </index_of_refraction>
          </lambert>
        </technique>
      </profile_COMMON>
    </effect>
  </library_effects>
  <library_images>
    <image id="Milk_shake_png" name="Milk_shake_png">
      <init_from>Milk_shake.png</init_from>
    </image>
  </library_images>
  <library_materials>
    <material id="Milk_shake-material" name="Milk_shake">
      <instance_effect url="#Milk_shake-effect"/>
    </material>
  </library_materials>
  <library_geometries>
    <geometry id="Milk_shake-mesh" name="Milk_shake">
      <mesh>
        <source id="Milk_shake-mesh-positions">
          <float_array id="Milk_shake-mesh-positions-array" count="201">0 0.6702569 -2.280281 0 1.695431 2.864631 0.5105978 0.4243659 -2.280281 1.353865 1.043444 2.864631 0.6367051 -0.1281461 -2.280281 1.688243 -0.4215583 2.864631 0.2833604 -0.5712262 -2.280281 0.7513386 -1.596399 2.864631 -0.2833604 -0.5712262 -2.280281 -0.7513386 -1.596399 2.864631 -0.6367051 -0.1281461 -2.280281 -1.688243 -0.4215583 2.864631 -0.5105978 0.4243659 -2.280281 -1.353865 1.043444 2.864631 1.460534 1.121754 2.964922 0 1.82511 2.964922 1.821257 -0.4586735 2.964922 0.8105356 -1.726078 2.964922 -0.8105356 -1.726078 2.964922 -1.821257 -0.4586735 2.964922 -1.460534 1.121754 2.964922 1.460534 1.121754 4.00966 0 1.82511 4.00966 1.821257 -0.4586735 4.00966 0.8105356 -1.726078 4.00966 -0.8105356 -1.726078 4.00966 -1.821257 -0.4586735 4.00966 -1.460534 1.121754 4.00966 0.9640733 0.7844978 4.816367 0.2509321 1.279726 4.686108 1.059984 -0.228865 4.831861 0.708257 -0.8844705 4.761411 -0.5287619 -1.139127 4.544043 -1.321469 -0.04503256 4.393363 -0.9366654 0.933702 4.466304 0.4260606 0.2595242 5.283942 0.02699422 0.6234136 5.207584 0.3953025 -0.2850195 5.278824 -0.0421192 -0.6001648 5.196085 -0.5568165 -0.4486011 5.098029 -0.7612122 0.05554103 5.058494 -0.5013918 0.5326324 5.10725 0 1.496937 -3.003265 1.190593 0.9235785 -3.003265 1.484645 -0.3647481 -3.003265 0.6607291 -1.397905 -3.003265 -0.6607291 -1.397905 -3.003265 -1.484645 -0.3647481 -3.003265 -1.190593 0.9235785 -3.003265 -0.8714747 -0.1074182 3.310477 -2.504413 0.516361 8.426981 -1.004419 0.003243446 3.258335 -2.637358 0.6270228 8.374838 -0.7607008 0.0341559 3.328505 -2.393639 0.6579352 8.44501 -0.8936456 0.1448177 3.276363 -2.526584 0.7685969 8.392868 -0.05571633 -0.06054496 4.87441 -0.4190227 -0.06385791 5.808448 -0.6130722 -0.4976179 5.300562 -0.6793885 0.3024297 5.277606 0.06616097 0.3725569 5.567846 0.1324772 -0.4274907 5.590803 -0.5632621 -0.2677658 7.434748 -0.5942931 -0.2140185 7.434748 -0.5322312 -0.2140185 7.434748 -0.3684273 -0.03684234 5.387823</float_array>
          <technique_common>
            <accessor source="#Milk_shake-mesh-positions-array" count="67" stride="3">
              <param name="X" type="float"/>
              <param name="Y" type="float"/>
              <param name="Z" type="float"/>
            </accessor>
          </technique_common>
        </source>
        <source id="Milk_shake-mesh-normals">
          <float_array id="Milk_shake-mesh-normals-array" count="201">0 0.8178529 -0.5754276 0.7200407 0.5822113 0.3775864 0 0.9274914 0.3738444 0.6335355 0.5103249 -0.5815508 0.9011015 -0.1978617 0.3858329 0.7846015 -0.1742298 -0.5950165 0.4021017 -0.8273104 0.392265 0.3471232 -0.7161471 -0.6055072 -0.4021017 -0.8273105 0.392265 -0.7846015 -0.1742298 -0.5950165 -0.9011015 -0.1978617 0.3858329 -0.3937655 -0.8200182 -0.4153543 -0.3471231 -0.7161474 -0.605507 -0.6335355 0.5103249 -0.5815508 -0.7200407 0.5822114 0.3775864 0.9354482 -0.221175 -0.2757143 0.7171181 0.5692852 -0.4020648 0.9185178 -0.208034 0.3362247 0.8888311 -0.2053287 -0.4096574 0 0.9171706 -0.3984948 -0.8888312 -0.2053287 -0.4096575 0.3937655 -0.8200179 -0.4153546 -0.717118 0.5692853 -0.4020648 -0.7322795 0.5693187 0.3736883 -0.6725963 -0.01530987 0.7398513 -0.5021541 0.4970157 0.707684 -0.02260583 0.9499843 0.3114783 -0.8879036 -0.2090959 0.4097635 0.3888312 -0.8460249 0.3647635 0.7575933 0.5815418 0.2964147 -0.3999202 -0.8305896 0.3875368 -0.4641027 -0.3133286 0.828513 -0.5669626 0.02665781 0.8233122 -0.2989108 -0.59345 0.7473083 0.6675428 -0.1320619 0.7327663 0.07156908 0.7300705 0.6796138 0.3686113 -0.5708906 0.7336278 0.5791655 0.4001749 0.7102305 -0.0739271 -0.4547405 0.8875505 0.2271797 -0.2117015 0.9505641 -0.0658496 0.394809 0.9164005 0.2391071 0.1400734 0.9608367 -0.3925964 0.3515592 0.8498672 -0.7534468 0.5929833 -0.2840577 -0.9354482 -0.2211751 -0.2757143 0.414906 -0.8690697 -0.2693901 -1.50731e-7 0.9576468 -0.2879459 0.7534471 0.592983 -0.2840575 -0.414906 -0.8690698 -0.2693899 -0.1018026 -0.7428393 0.6616842 -0.9491814 -0.1286104 -0.2872527 0.0888468 -0.9849234 0.1484325 -0.2405251 0.8682394 0.4339449 -0.07667112 0.9864951 -0.1447383 0.6074621 0.1636665 0.7773051 0.9502053 0.1164036 0.2890676 -0.6239557 -0.7641631 -0.1635059 -0.3625042 -0.003305733 0.9319764 -0.7403918 0.6405314 -0.2038127 0.5686164 0.7636582 0.3057804 0.6850523 -0.6410359 0.3460872 0.3625044 0.003305613 -0.9319762 0.04087734 0.8579963 -0.5120269 -0.09110522 -0.09676265 0.9911291 0.7604095 -0.3724561 -0.532028 -0.7041665 -0.3870267 -0.5952814 -0.947186 -0.03504759 0.318764</float_array>
          <technique_common>
            <accessor source="#Milk_shake-mesh-normals-array" count="67" stride="3">
              <param name="X" type="float"/>
              <param name="Y" type="float"/>
              <param name="Z" type="float"/>
            </accessor>
          </technique_common>
        </source>
        <source id="Milk_shake-mesh-map-0">
          <float_array id="Milk_shake-mesh-map-0-array" count="696">0.1414446 0.5174444 0.1920757 0.007273197 0.1414446 0.007273197 0.2283557 0.007273197 0.3445309 0.5174444 0.2897437 0.5174444 0.3736258 0.007273197 0.388467 0.5174444 0.3445309 0.5174444 0.5944581 0.008101105 0.6970593 0.5182723 0.6408631 0.5182723 0.4815199 0.1306319 0.496361 0.6408032 0.5254559 0.1306319 0.1141489 0.8713501 0.2690249 0.884209 0.2631549 0.87135 0.5254559 0.1306319 0.6416311 0.6408032 0.5802432 0.1306319 0.09081357 0.007273197 0.1414446 0.5174444 0.1414446 0.007273197 0.2376921 0.6752018 0.3361318 0.7453327 0.2501969 0.7299891 0.9239488 0.3377878 0.8203522 0.1810721 0.9239488 0.1810721 0.3229016 0.6095824 0.1886519 0.5320721 0.1886519 0.5449311 0.02124518 0.7548525 0.04382479 0.6018171 0.008055448 0.7585328 0.2631549 0.87135 0.3692483 0.7585328 0.3560586 0.7548524 0.05440217 0.6095824 0.1886519 0.5320721 0.04382479 0.6018171 0.1141489 0.8713501 0.008055448 0.7585328 0.1082789 0.884209 0.3560586 0.7548524 0.333479 0.6018171 0.3229016 0.6095824 0.6807092 0.5611002 0.742065 0.6601551 0.6517218 0.6080677 0.9338837 0.3561165 0.8302872 0.5009436 0.9338837 0.5009436 0.384871 0.9388512 0.4884675 0.813175 0.384871 0.813175 0.9239488 0.1810721 0.8203522 0.05539584 0.9239488 0.05539584 0.9338837 0.5009436 0.8302872 0.6457707 0.9338837 0.6457707 0.384871 0.813175 0.4884675 0.6564592 0.384871 0.6564593 0.8882409 0.8327473 0.9918375 0.9934933 0.8882409 0.9934933 0.8205844 0.7675844 0.8908323 0.806944 0.8864424 0.7569921 0.6807093 0.9222931 0.748252 0.793986 0.8063855 0.8220696 0.8203522 0.3377878 0.7388225 0.20386 0.8203522 0.1810721 0.8302872 0.5009436 0.7850061 0.4080636 0.7632104 0.5258262 0.8063855 0.6613236 0.748252 0.793986 0.742065 0.6601551 0.5239935 0.8865237 0.6366058 0.8507226 0.6807093 0.9222931 0.8302872 0.6457707 0.7632104 0.5258262 0.7502939 0.5965415 0.6924122 0.6869961 0.7077349 0.7387174 0.6772026 0.782289 0.6366058 0.8507226 0.6238068 0.7849006 0.6772026 0.782289 0.5135885 0.7371491 0.5961962 0.691702 0.5877555 0.7445856 0.8269049 0.6704691 0.8864424 0.7569921 0.8908323 0.7096402 0.007591605 0.9073906 0.06292122 0.8486731 0.06217759 0.9006233 0.5688045 0.8216414 0.5877555 0.7445856 0.6238068 0.7849006 0.7632104 0.5258262 0.7214497 0.4512255 0.7115005 0.5036204 0.13643 0.6752018 0.04169601 0.7453327 0.07085436 0.6175819 0.187061 0.6508191 0.3069735 0.6175819 0.2376921 0.6752018 0.1239252 0.7299891 0.1233958 0.847781 0.04169601 0.7453327 0.2501969 0.7299891 0.254432 0.847781 0.2151592 0.773925 0.187061 0.6508191 0.07085436 0.6175819 0.1889139 0.5607274 0.2151592 0.773925 0.1233958 0.847781 0.1589629 0.773925 0.9879991 0.364632 0.9923446 0.04566895 0.9816848 0.04566895 0.9848964 0.04566895 0.9954473 0.364632 0.9955562 0.04566895 0.9923446 0.04566895 0.9879991 0.364632 0.9816848 0.04566895 0.9954473 0.364632 0.9848964 0.04566895 0.9955562 0.04566895 0.9842505 0.4711643 0.9735907 0.4605045 0.9842505 0.4605045 0.7419686 0.9901817 0.7915632 0.9405872 0.8411577 0.9901817 0.8411577 0.9901817 0.7915632 0.9405872 0.8411577 0.8909927 0.8411577 0.8909927 0.7915632 0.9405872 0.7419686 0.8909927 0.7419686 0.8909927 0.7915632 0.9405872 0.7419686 0.9901817 0.5729144 0.1076285 0.4836799 0.1076285 0.5388069 0.02516955 0.370904 0.9107024 0.2816695 0.9107023 0.3367965 0.8282434 0.370904 0.9107024 0.3367965 0.8282434 0.2816695 0.9107023 0.5729144 0.1076285 0.5388069 0.02516955 0.4836799 0.1076285 0.789011 0.9003766 0.7782945 0.9953689 0.7865168 0.9003766 0.7874537 0.953231 0.7888937 0.9507368 0.7860135 0.9507368 0.7888937 0.9003766 0.7784119 0.9953689 0.7860135 0.9003766 0.7865168 0.9003766 0.7782945 0.9953689 0.789011 0.9003766 0.2092841 0.6521254 0.2245299 0.5853291 0.1560159 0.5853291 0.1414446 0.5174444 0.2756944 0.5174444 0.1920757 0.007273197 0.2283557 0.007273197 0.3736258 0.007273197 0.3445309 0.5174444 0.3736258 0.007273197 0.4901233 0.007273197 0.388467 0.5174444 0.5944581 0.008101105 0.7434641 0.008101105 0.6970593 0.5182723 0.4815199 0.1306319 0.3798635 0.6408032 0.496361 0.6408032 0.1141489 0.8713501 0.1082789 0.884209 0.2690249 0.884209 0.5254559 0.1306319 0.496361 0.6408032 0.6416311 0.6408032 0.09081357 0.007273197 0.007194936 0.5174444 0.1414446 0.5174444 0.2376921 0.6752018 0.3069735 0.6175819 0.3361318 0.7453327 0.9239488 0.3377878 0.8203522 0.3377878 0.8203522 0.1810721 0.3229016 0.6095824 0.333479 0.6018171 0.1886519 0.5320721 0.02124518 0.7548525 0.05440217 0.6095824 0.04382479 0.6018171 0.2631549 0.87135 0.2690249 0.884209 0.3692483 0.7585328 0.05440217 0.6095824 0.1886519 0.5449311 0.1886519 0.5320721 0.1141489 0.8713501 0.02124518 0.7548525 0.008055448 0.7585328 0.3560586 0.7548524 0.3692483 0.7585328 0.333479 0.6018171 0.6807092 0.5611002 0.8063855 0.6613236 0.742065 0.6601551 0.9338837 0.3561165 0.8302872 0.3561165 0.8302872 0.5009436 0.384871 0.9388512 0.4884675 0.9388512 0.4884675 0.813175 0.9239488 0.1810721 0.8203522 0.1810721 0.8203522 0.05539584 0.9338837 0.5009436 0.8302872 0.5009436 0.8302872 0.6457707 0.384871 0.813175 0.4884675 0.813175 0.4884675 0.6564592 0.8882409 0.8327473 0.9918375 0.8327473 0.9918375 0.9934933 0.8205844 0.7675844 0.8365448 0.87593 0.8908323 0.806944 0.6807093 0.9222931 0.6366058 0.8507226 0.748252 0.793986 0.8203522 0.3377878 0.7403589 0.3043454 0.7388225 0.20386 0.8302872 0.5009436 0.8302872 0.3561165 0.7850061 0.4080636 0.8063855 0.6613236 0.8063855 0.8220696 0.748252 0.793986 0.5239935 0.8865237 0.5688045 0.8216414 0.6366058 0.8507226 0.8302872 0.6457707 0.8302872 0.5009436 0.7632104 0.5258262 0.6238068 0.7849006 0.5877555 0.7445856 0.6772026 0.782289 0.5877555 0.7445856 0.5961962 0.691702 0.6772026 0.782289 0.5961962 0.691702 0.6427728 0.6660723 0.6772026 0.782289 0.6427728 0.6660723 0.6924122 0.6869961 0.6772026 0.782289 0.6366058 0.8507226 0.5688045 0.8216414 0.6238068 0.7849006 0.5135885 0.7371491 0.5382582 0.6546654 0.5961962 0.691702 0.8269049 0.6704691 0.8205844 0.7675844 0.8864424 0.7569921 0.007591605 0.9073906 0.007591605 0.7828481 0.06292122 0.8486731 0.5688045 0.8216414 0.5135885 0.7371491 0.5877555 0.7445856 0.7632104 0.5258262 0.7850061 0.4080636 0.7214497 0.4512255 0.13643 0.6752018 0.1239252 0.7299891 0.04169601 0.7453327 0.187061 0.6508191 0.1889139 0.5607274 0.3069735 0.6175819 0.1239252 0.7299891 0.1589629 0.773925 0.1233958 0.847781 0.2501969 0.7299891 0.3361318 0.7453327 0.254432 0.847781 0.187061 0.6508191 0.13643 0.6752018 0.07085436 0.6175819 0.2151592 0.773925 0.254432 0.847781 0.1233958 0.847781 0.9879991 0.364632 0.9986589 0.364632 0.9923446 0.04566895 0.9848964 0.04566895 0.9847875 0.364632 0.9954473 0.364632 0.9923446 0.04566895 0.9986589 0.364632 0.9879991 0.364632 0.9954473 0.364632 0.9847875 0.364632 0.9848964 0.04566895 0.9842505 0.4711643 0.9735907 0.4711643 0.9735907 0.4605045 0.1475552 0.6223982 0.1712617 0.6521253 0.1560159 0.5853291 0.1712617 0.6521253 0.2092841 0.6521254 0.1560159 0.5853291 0.2092841 0.6521254 0.2329907 0.6223982 0.2245299 0.5853291 0.2245299 0.5853291 0.1902729 0.5688319 0.1560159 0.5853291</float_array>
          <technique_common>
            <accessor source="#Milk_shake-mesh-map-0-array" count="348" stride="2">
              <param name="S" type="float"/>
              <param name="T" type="float"/>
            </accessor>
          </technique_common>
        </source>
        <vertices id="Milk_shake-mesh-vertices">
          <input semantic="POSITION" source="#Milk_shake-mesh-positions"/>
        </vertices>
        <triangles material="Milk_shake-material" count="116">
          <input semantic="VERTEX" source="#Milk_shake-mesh-vertices" offset="0"/>
          <input semantic="NORMAL" source="#Milk_shake-mesh-normals" offset="1"/>
          <input semantic="TEXCOORD" source="#Milk_shake-mesh-map-0" offset="2" set="0"/>
          <p>1 0 0 2 1 1 0 2 2 3 3 3 4 4 4 2 1 5 5 5 6 6 6 7 4 4 8 7 7 9 8 8 10 6 6 11 8 8 12 11 9 13 10 10 14 7 7 15 18 11 16 9 12 17 10 10 18 13 13 19 12 14 20 12 14 21 1 0 22 0 2 23 6 6 24 44 15 25 4 4 26 14 16 27 23 17 28 16 18 29 13 13 30 15 19 31 1 0 32 5 5 33 14 16 34 16 18 35 9 12 36 19 20 37 11 9 38 3 3 39 15 19 40 14 16 41 7 7 42 16 18 43 17 21 44 11 9 45 20 22 46 13 13 47 27 23 48 33 24 49 34 25 50 20 22 51 22 26 52 15 19 53 18 11 54 26 27 55 19 20 56 16 18 57 24 28 58 17 21 59 15 19 60 21 29 61 14 16 62 19 20 63 27 23 64 20 22 65 17 21 66 25 30 67 18 11 68 33 24 69 39 31 70 40 32 71 24 28 72 32 33 73 25 30 74 21 29 75 30 34 76 23 17 77 22 26 78 34 25 79 29 35 80 26 27 81 32 33 82 33 24 83 23 17 84 31 36 85 24 28 86 21 29 87 29 35 88 28 37 89 40 32 90 39 31 91 38 38 92 31 36 93 37 39 94 38 38 95 28 37 96 36 40 97 35 41 98 34 25 99 40 32 100 41 42 101 32 33 102 38 38 103 39 31 104 30 34 105 35 41 106 37 39 107 29 35 108 41 42 109 36 40 110 10 10 111 48 43 112 47 44 113 8 8 114 45 45 115 6 6 116 12 14 117 42 46 118 48 43 119 4 4 120 43 47 121 2 1 122 8 8 123 47 44 124 46 48 125 2 1 126 42 46 127 0 2 128 50 49 129 51 50 130 49 51 131 51 50 132 56 52 133 55 53 134 55 53 135 54 54 136 53 55 137 54 54 138 49 51 139 53 55 140 56 52 141 50 49 142 54 54 143 59 56 144 58 57 145 60 58 146 60 58 147 58 57 148 61 59 149 61 59 150 58 57 151 62 60 152 62 60 153 58 57 154 59 56 155 57 61 156 62 60 157 59 56 158 57 61 159 61 59 160 62 60 161 57 61 162 60 58 163 61 59 164 57 61 165 59 56 166 60 58 167 63 62 168 66 63 169 64 64 170 63 62 171 64 64 172 65 65 173 64 64 174 66 63 175 65 65 176 65 65 177 66 63 178 63 62 179 43 47 180 45 45 181 47 44 182 1 0 183 3 3 184 2 1 185 3 3 186 5 5 187 4 4 188 5 5 189 7 7 190 6 6 191 7 7 192 9 12 193 8 8 194 8 8 195 9 12 196 11 9 197 7 7 198 17 21 199 18 11 200 10 10 201 11 9 202 13 13 203 12 14 204 13 13 205 1 0 206 6 6 207 45 45 208 44 15 209 14 16 210 21 29 211 23 17 212 13 13 213 20 22 214 15 19 215 5 5 216 3 3 217 14 16 218 9 12 219 18 11 220 19 20 221 3 3 222 1 0 223 15 19 224 7 7 225 5 5 226 16 18 227 11 9 228 19 20 229 20 22 230 27 23 231 26 27 232 33 24 233 20 22 234 27 23 235 22 26 236 18 11 237 25 30 238 26 27 239 16 18 240 23 17 241 24 28 242 15 19 243 22 26 244 21 29 245 19 20 246 26 27 247 27 23 248 17 21 249 24 28 250 25 30 251 33 24 252 32 33 253 39 31 254 24 28 255 31 36 256 32 33 257 21 29 258 28 37 259 30 34 260 22 26 261 27 23 262 34 25 263 26 27 264 25 30 265 32 33 266 23 17 267 30 34 268 31 36 269 21 29 270 22 26 271 29 35 272 37 39 273 35 41 274 38 38 275 35 41 276 36 40 277 38 38 278 36 40 279 41 42 280 38 38 281 41 42 282 40 32 283 38 38 284 31 36 285 30 34 286 37 39 287 28 37 288 29 35 289 36 40 290 34 25 291 33 24 292 40 32 293 32 33 294 31 36 295 38 38 296 30 34 297 28 37 298 35 41 299 29 35 300 34 25 301 41 42 302 10 10 303 12 14 304 48 43 305 8 8 306 46 48 307 45 45 308 12 14 309 0 2 310 42 46 311 4 4 312 44 15 313 43 47 314 8 8 315 10 10 316 47 44 317 2 1 318 43 47 319 42 46 320 50 49 321 52 66 322 51 50 323 51 50 324 52 66 325 56 52 326 55 53 327 56 52 328 54 54 329 54 54 330 50 49 331 49 51 332 56 52 333 52 66 334 50 49 335 48 43 336 42 46 337 47 44 338 42 46 339 43 47 340 47 44 341 43 47 342 44 15 343 45 45 344 45 45 345 46 48 346 47 44 347</p>
        </triangles>
      </mesh>
    </geometry>
  </library_geometries>
  <library_visual_scenes>
    <visual_scene id="Scene" name="Scene">
      <node id="Milk_shake" name="Milk_shake" type="NODE">
        <matrix sid="transform">-0.03184446 1.03762e-8 0 0 -1.03762e-8 -0.03184446 0 0 0 0 0.03184446 0 0 0 0 1</matrix>
        <instance_geometry url="#Milk_shake-mesh" name="Milk_shake">
          <bind_material>
            <technique_common>
              <instance_material symbol="Milk_shake-material" target="#Milk_shake-material">
                <bind_vertex_input semantic="UVMap" input_semantic="TEXCOORD" input_set="0"/>
              </instance_material>
            </technique_common>
          </bind_material>
        </instance_geometry>
      </node>
    </visual_scene>
  </library_visual_scenes>
  <scene>
    <instance_visual_scene url="#Scene"/>
  </scene>
</COLLADA>