<?xml version="1.0" encoding="utf-8"?>
<COLLADA xmlns="http://www.collada.org/2005/11/COLLADASchema" version="1.4.1" xmlns:xsi="http://www.w3.org/2001/XMLSchema-instance">
  <asset>
    <contributor>
      <author>Blender User</author>
      <authoring_tool>Blender 4.0.1 commit date:2023-11-16, commit time:16:40, hash:d0dd92834a08</authoring_tool>
    </contributor>
    <created>2023-11-28T13:35:21</created>
    <modified>2023-11-28T13:35:21</modified>
    <unit name="meter" meter="1"/>
    <up_axis>Z_UP</up_axis>
  </asset>
  <library_effects>
    <effect id="Hotdog_01-effect">
      <profile_COMMON>
        <newparam sid="Hotdog_01_png-surface">
          <surface type="2D">
            <init_from>Hotdog_01_png</init_from>
          </surface>
        </newparam>
        <newparam sid="Hotdog_01_png-sampler">
          <sampler2D>
            <source>Hotdog_01_png-surface</source>
          </sampler2D>
        </newparam>
        <technique sid="common">
          <lambert>
            <emission>
              <color sid="emission">0 0 0 1</color>
            </emission>
            <diffuse>
              <texture texture="Hotdog_01_png-sampler" texcoord="UVMap"/>
            </diffuse>
            <index_of_refraction>
              <float sid="ior">1.45</float>
            </index_of_refraction>
          </lambert>
        </technique>
      </profile_COMMON>
    </effect>
  </library_effects>
  <library_images>
    <image id="Hotdog_01_png" name="Hotdog_01_png">
      <init_from>Hotdog_01.png</init_from>
    </image>
  </library_images>
  <library_materials>
    <material id="Hotdog_01-material" name="Hotdog_01">
      <instance_effect url="#Hotdog_01-effect"/>
    </material>
  </library_materials>
  <library_geometries>
    <geometry id="Hotdog_01-mesh" name="Hotdog_01">
      <mesh>
        <source id="Hotdog_01-mesh-positions">
          <float_array id="Hotdog_01-mesh-positions-array" count="216">-1.818285 1.11771 -1.694995 -1.818285 1.934118 -1.004659 -1.818285 1.934118 0.9452614 -1.818285 1.121352 1.648507 0.9815095 1.990633 -1.000369 0.9815095 1.191418 -1.67644 0.9815095 1.194809 1.747994 0.9815095 1.990633 1.059746 -3.847193 0.8571258 -1.50513 -3.847193 1.636392 -0.846817 -3.847193 1.636392 0.6197325 -3.847193 0.8610288 1.291302 3.331682 0.9519516 1.356161 3.331682 1.677093 0.7289396 3.331682 1.677093 -0.8475404 3.331682 0.9487904 -1.463495 -1.818285 -0.9302516 -1.163736 -1.818285 -0.126314 -1.949161 -1.818285 -0.1299002 1.91389 -1.818285 -0.9302516 1.113777 0.9815095 -0.2022718 -1.931288 0.9815095 -0.9892798 -1.162093 0.9815095 -0.9892798 1.242222 0.9815095 -0.2056106 2.025272 -3.847193 -0.6409092 -0.9846981 -3.847193 0.1264545 -1.733689 -3.847193 0.1226112 1.497282 -3.847193 -0.6409092 0.7332086 3.331682 0.02806103 -1.685367 3.331682 -0.689118 -0.9845687 3.331682 -0.689118 0.8588207 3.331682 0.024948 1.572438 -4.603127 -0.1410128 -0.4022765 -4.605155 -0.1380637 0.06271553 -4.649436 0.6778527 0.1505222 -4.616105 0.8265966 0.1585499 -4.55398 1.057858 0.05217808 -4.534247 1.07401 -0.3930094 -4.595205 0.8265429 -0.51965 -4.636792 0.6699165 -0.5133231 -1.617266 -0.4538627 0.224004 -1.619963 -0.4661774 -0.3396205 0.7712618 -0.5198441 -0.2817897 0.7693175 -0.5089573 0.2907637 4.131132 -0.1521797 0.1366088 4.132703 -0.1505215 -0.3654901 4.268358 0.6650627 -0.4342707 4.223884 0.8484243 -0.4336965 4.177362 1.042056 -0.3187599 4.193696 1.031704 0.07891231 4.244215 0.846775 0.1802819 4.283018 0.6724562 0.1787979 -3.445227 -0.2697202 0.1150374 -3.446432 -0.2723435 -0.3500437 2.886393 -0.3406947 0.1834101 2.885774 -0.3393507 -0.2875992 -4.532256 -0.2529373 -0.7882696 -4.532256 -1.041207 0 -4.532256 0.5353323 0 -4.532256 -0.2529373 0.7882696 4.434813 -0.2529373 -0.8974191 4.434813 -1.041207 -0.1091495 4.434813 0.5353323 -0.1091495 4.434813 -0.2529373 0.6791201 -5.1403 0.168569 0 -5.1403 -0.2529373 -0.4215063 -5.1403 -0.6744436 0 -5.1403 -0.2529373 0.4215063 5.194869 -0.2529373 0.3351579 5.194869 0.2132 -0.1309794 5.194869 -0.2529373 -0.5971167 5.194869 -0.7190746 -0.1309794</float_array>
          <technique_common>
            <accessor source="#Hotdog_01-mesh-positions-array" count="72" stride="3">
              <param name="X" type="float"/>
              <param name="Y" type="float"/>
              <param name="Z" type="float"/>
            </accessor>
          </technique_common>
        </source>
        <source id="Hotdog_01-mesh-normals">
          <float_array id="Hotdog_01-mesh-normals-array" count="216">0.07193905 0.4420883 0.8940822 -0.1347781 -0.2876821 0.9481952 0.07902163 -0.2963626 0.9518009 -0.3893936 -0.9140149 0.1137957 -0.78653 -0.6043164 0.1271708 -0.0809257 -0.9597048 -0.2691054 -0.06342571 0.4421231 -0.8947092 -0.4756948 -0.1886256 -0.8591477 -0.4688826 0.4092885 -0.7827082 -0.08916896 0.9024752 -0.4214113 -0.4591511 0.8067119 0.3720167 -0.1144055 0.9011156 0.418213 0.06338471 0.9057419 -0.4190633 0.434317 0.8167911 0.3797647 0.4086901 0.8226896 -0.3951638 -0.7892643 -0.5984941 -0.1373568 -0.3787583 -0.9157249 -0.1341279 -0.1214798 0.4463232 0.8865881 -0.5285621 -0.1997263 0.8250647 -0.09356445 -0.9847866 -0.1464278 0.02576673 -0.9665151 0.2553128 -0.06302428 -0.9601576 0.27226 0.4903007 0.3837528 0.782521 0.9602633 0.03438109 0.2769699 0.9092273 0.2923002 0.2964224 -0.1050957 -0.9544203 0.2793508 0.06061828 -0.9856117 -0.1577822 0.1150349 -0.960579 0.2530909 0.8805217 0.3073288 -0.3608751 0.8142787 0.5469403 -0.1944388 0.5072228 -0.2273325 0.8312913 0.05567163 0.43529 -0.8985673 0.4565265 -0.2255222 -0.8606528 0.0604602 -0.3023567 -0.9512755 0.8281217 0.5387288 0.1548734 0.06981164 0.9019862 0.4260836 -0.5204926 0.3899632 0.7596159 -0.4322988 0.8133453 -0.3893422 -0.9623847 0.07557827 0.2609667 0.4398781 0.3920109 -0.8079819 0.7648801 -0.6253654 -0.1545204 0.3800444 -0.91173 -0.155932 0.758069 -0.6368651 0.1404792 0.3927642 -0.9087541 0.1410756 0.09293502 -0.9631413 -0.2524327 -0.06834805 -0.2890694 -0.9548652 0.06505662 -0.9805542 0.1851515 -0.1065353 -0.9815539 0.1587523 -0.9483672 0.09198933 -0.3035417 -0.8862599 0.3032251 -0.3501402 -0.8383499 0.5200501 0.1634545 0.9447842 0.04113358 -0.3251011 -0.9118956 0.2798219 0.3002436 -0.04751795 -0.9697334 -0.239498 0.02514094 -0.9720411 -0.233461 -0.8228744 0.5319911 -0.1996576 -0.2411858 -0.970474 0.003126382 -0.7744413 2.0869e-7 -0.632646 -0.2470358 0 -0.9690065 -0.2411857 0.970474 0.003126144 0.1994966 0 0.9798986 0.1836026 0.9829999 0.001090884 0.1836026 -0.9829999 0.001090884 0.7329165 0 0.6803187 0.1672524 0 -0.9859141 -0.774441 -0.6326462 1.41611e-7 -0.7744411 0.6326462 -1.19252e-7 -0.2354182 0 0.9718942 -0.7744411 -2.45956e-7 0.632646 0.7241211 0.6895837 -0.01109743 0.724121 -0.6895837 -0.01109731 0.715457 0 -0.6986568</float_array>
          <technique_common>
            <accessor source="#Hotdog_01-mesh-normals-array" count="72" stride="3">
              <param name="X" type="float"/>
              <param name="Y" type="float"/>
              <param name="Z" type="float"/>
            </accessor>
          </technique_common>
        </source>
        <source id="Hotdog_01-mesh-map-0">
          <float_array id="Hotdog_01-mesh-map-0-array" count="816">0.8148943 0.7704808 0.9125348 0.5641159 0.9181152 0.7704808 0.05893397 0.6219317 0.004869818 0.7002724 0.09038037 0.6907066 0.1823441 0.9308395 0.03279906 0.8577769 0.03279906 0.9116326 0.6943018 0.2038507 0.5685626 0.05932217 0.5506988 0.2097226 0.7024171 0.4100562 0.5821385 0.5883438 0.6982393 0.5835964 0.08408474 0.3189728 0.06243431 0.2208382 0.005874097 0.2760442 0.8203085 0.564116 0.8939229 0.4145709 0.9125348 0.5641159 0.5506988 0.2097226 0.7024171 0.4100562 0.6943018 0.2038507 0.2083452 0.689965 0.4010651 0.7617895 0.2248104 0.7655532 0.2455255 0.1267138 0.3323056 0.106113 0.3321963 0.1189616 0.004903912 0.789281 0.05877703 0.7111288 0.09017109 0.7796937 0.4147146 0.6858388 0.5569051 0.7752627 0.4010651 0.7617895 0.3774509 0.1190831 0.4079541 0.180162 0.3689792 0.1333552 0.8148943 0.7704808 0.9011214 0.9437054 0.8327946 0.9437054 0.388709 0.9362723 0.5619336 0.8505245 0.388709 0.8335474 0.2083452 0.689965 0.09017109 0.7796937 0.05877703 0.7111288 0.6982393 0.5835964 0.632606 0.6498699 0.6618436 0.6474694 0.388709 0.9362723 0.1823441 0.9910145 0.388709 0.9951801 0.8203085 0.564116 0.7562363 0.7704808 0.7604019 0.564116 0.7604019 0.564116 0.8394962 0.4145709 0.8203085 0.564116 0.03279912 0.9690701 0.1823441 0.9308395 0.03279906 0.9116326 0.06215101 0.458984 0.08430212 0.353246 0.005874097 0.4026662 0.1165777 0.4438017 0.1030763 0.3597181 0.06215101 0.458984 0.7562363 0.7704808 0.8327946 0.9437054 0.7793465 0.9437054 0.388709 0.9362723 0.5619336 0.97207 0.5619336 0.9183889 0.469708 0.05861645 0.3724236 0.08681833 0.4180541 0.005755245 0.6487975 0.7002723 0.5880736 0.6192332 0.557074 0.6862292 0.1823441 0.9308395 0.388709 0.8335474 0.1823441 0.839146 0.388709 0.8335474 0.1823441 0.7798901 0.1823441 0.839146 0.9125348 0.5641159 0.9758773 0.7704808 0.9181152 0.7704808 0.1647853 0.4821106 0.3065558 0.4267582 0.3174281 0.4847214 0.1823441 0.839146 0.03279906 0.8012167 0.03279906 0.8577769 0.11629 0.2376846 0.1024913 0.3107879 0.1140359 0.3103216 0.6765676 0.05490583 0.6082322 0.005561292 0.5685626 0.05932217 0.9758773 0.7704808 0.9011214 0.9437054 0.9181152 0.7704808 0.388709 0.8335474 0.5619336 0.7976633 0.388709 0.7755393 0.4533544 0.1264808 0.3774932 0.1055681 0.469708 0.05861645 0.3354153 0.08669614 0.2295844 0.05838698 0.2821831 0.005755245 0.4148849 0.5968294 0.557074 0.6862292 0.5880736 0.6192332 0.5879151 0.7081513 0.6487975 0.7892808 0.5569051 0.7752627 0.1140398 0.3603098 0.1737275 0.3943023 0.1310854 0.3524694 0.3321963 0.1189616 0.2917563 0.180162 0.2455255 0.1267138 0.2085133 0.6008467 0.09038037 0.6907066 0.2251359 0.6773516 0.2085133 0.6008467 0.4010506 0.673575 0.4148849 0.5968294 0.1310854 0.3524694 0.1322759 0.3196559 0.1140359 0.3103216 0.3396679 0.1325922 0.3321963 0.1189616 0.3323056 0.106113 0.7170524 0.2708581 0.755074 0.4467512 0.713532 0.4471248 0.713532 0.4471248 0.7476099 0.5815176 0.7133307 0.5817508 0.7133307 0.5817508 0.7441134 0.6670281 0.7098398 0.667023 0.7468482 0.02308404 0.7159678 0.1150066 0.7098398 0.02312397 0.7170524 0.2708581 0.7506842 0.1148148 0.7592539 0.2708237 0.1140359 0.3103216 0.1737275 0.286207 0.11629 0.2376846 0.3323056 0.106113 0.3354153 0.08669614 0.3724236 0.08681833 0.3724236 0.08681833 0.3774932 0.1055681 0.3323056 0.106113 0.3774932 0.1055681 0.3774509 0.1190831 0.3689792 0.1333552 0.3323056 0.106113 0.3774932 0.1055681 0.3689792 0.1333552 0.3689792 0.1333552 0.3396679 0.1325922 0.3323056 0.106113 0.02145528 0.1195811 0.02899581 0.05785334 0.06666755 0.07513713 0.1197955 0.0221036 0.4781594 0.4708403 0.5233718 0.4263964 0.5233718 0.4263964 0.5219658 0.4956728 0.4781594 0.4708403 0.4250316 0.5238739 0.06666755 0.07513713 0.4702439 0.47943 0.4250316 0.5238739 0.06666755 0.07513713 0.02145528 0.1195811 0.4781594 0.4708403 0.1197955 0.0221036 0.5233718 0.4263964 0.006850004 0.188741 0.04075092 0.1548401 0.006850004 0.1548401 0.07458305 0.06654745 0.08212363 0.00481975 0.1197955 0.0221036 0.06666755 0.07513713 0.004819691 0.08161854 0.02145528 0.1195811 0.1197955 0.0221036 0.05794751 0.02858495 0.07458305 0.06654745 0.04289567 0.005405247 0.005405247 0.04289567 0.005405247 0.005405247 0.5233718 0.4263964 0.5219658 0.4956728 0.5487018 0.4693912 0.4702439 0.47943 0.4688379 0.5487064 0.4250316 0.5238739 0.4702439 0.47943 0.4688379 0.5487064 0.4955739 0.5224248 0.8148943 0.7704808 0.8203085 0.564116 0.9125348 0.5641159 0.1823441 0.9308395 0.1823441 0.839146 0.03279906 0.8577769 0.6943018 0.2038507 0.6765676 0.05490583 0.5685626 0.05932217 0.7024171 0.4100562 0.5506988 0.41626 0.5821385 0.5883438 0.08408474 0.3189728 0.1024913 0.3107879 0.06243431 0.2208382 0.8203085 0.564116 0.8394962 0.4145709 0.8939229 0.4145709 0.5506988 0.2097226 0.5506988 0.41626 0.7024171 0.4100562 0.2083452 0.689965 0.4147146 0.6858388 0.4010651 0.7617895 0.2455255 0.1267138 0.2295844 0.05838698 0.3323056 0.106113 0.4147146 0.6858388 0.5879151 0.7081513 0.5569051 0.7752627 0.3774509 0.1190831 0.4533544 0.1264808 0.4079541 0.180162 0.8148943 0.7704808 0.9181152 0.7704808 0.9011214 0.9437054 0.388709 0.9362723 0.5619336 0.9183889 0.5619336 0.8505245 0.2083452 0.689965 0.2248104 0.7655532 0.09017109 0.7796937 0.6982393 0.5835964 0.5821385 0.5883438 0.632606 0.6498699 0.388709 0.9362723 0.1823441 0.9308395 0.1823441 0.9910145 0.8203085 0.564116 0.8148943 0.7704808 0.7562363 0.7704808 0.7604019 0.564116 0.7823464 0.4145709 0.8394962 0.4145709 0.03279912 0.9690701 0.1823441 0.9910145 0.1823441 0.9308395 0.06215101 0.458984 0.1030763 0.3597181 0.08430212 0.353246 0.1165777 0.4438017 0.1140398 0.3603098 0.1030763 0.3597181 0.7562363 0.7704808 0.8148943 0.7704808 0.8327946 0.9437054 0.388709 0.9362723 0.388709 0.9951801 0.5619336 0.97207 0.469708 0.05861645 0.3774932 0.1055681 0.3724236 0.08681833 0.1823441 0.9308395 0.388709 0.9362723 0.388709 0.8335474 0.388709 0.8335474 0.388709 0.7755393 0.1823441 0.7798901 0.9125348 0.5641159 0.9715265 0.5641159 0.9758773 0.7704808 0.1647853 0.4821106 0.1544027 0.4267582 0.3065558 0.4267582 0.1823441 0.839146 0.1823441 0.7798901 0.03279906 0.8012167 0.11629 0.2376846 0.06243431 0.2208382 0.1024913 0.3107879 0.6765676 0.05490583 0.6410776 0.005673885 0.6082322 0.005561292 0.9758773 0.7704808 0.9537532 0.9437054 0.9011214 0.9437054 0.388709 0.8335474 0.5619336 0.8505245 0.5619336 0.7976633 0.4533544 0.1264808 0.3774509 0.1190831 0.3774932 0.1055681 0.3354153 0.08669614 0.3323056 0.106113 0.2295844 0.05838698 0.4148849 0.5968294 0.4010506 0.673575 0.557074 0.6862292 0.1140398 0.3603098 0.1165777 0.4438017 0.1737275 0.3943023 0.3321963 0.1189616 0.3396679 0.1325922 0.2917563 0.180162 0.2085133 0.6008467 0.05893397 0.6219317 0.09038037 0.6907066 0.2085133 0.6008467 0.2251359 0.6773516 0.4010506 0.673575 0.1024913 0.3107879 0.08408474 0.3189728 0.1030763 0.3597181 0.08408474 0.3189728 0.08430212 0.353246 0.1030763 0.3597181 0.1030763 0.3597181 0.1140398 0.3603098 0.1140359 0.3103216 0.1024913 0.3107879 0.1030763 0.3597181 0.1140359 0.3103216 0.1140398 0.3603098 0.1310854 0.3524694 0.1140359 0.3103216 0.7170524 0.2708581 0.7592539 0.2708237 0.755074 0.4467512 0.713532 0.4471248 0.755074 0.4467512 0.7476099 0.5815176 0.7133307 0.5817508 0.7476099 0.5815176 0.7441134 0.6670281 0.7468482 0.02308404 0.7506842 0.1148148 0.7159678 0.1150066 0.7170524 0.2708581 0.7159678 0.1150066 0.7506842 0.1148148 0.1140359 0.3103216 0.1322759 0.3196559 0.1737275 0.286207 0.02145528 0.1195811 0.004819691 0.08161854 0.02899581 0.05785334 0.1197955 0.0221036 0.07458305 0.06654745 0.4781594 0.4708403 0.5233718 0.4263964 0.5487018 0.4693912 0.5219658 0.4956728 0.4250316 0.5238739 0.02145528 0.1195811 0.06666755 0.07513713 0.4250316 0.5238739 0.4702439 0.47943 0.06666755 0.07513713 0.4781594 0.4708403 0.07458305 0.06654745 0.1197955 0.0221036 0.006850004 0.188741 0.04075092 0.188741 0.04075092 0.1548401 0.07458305 0.06654745 0.05794751 0.02858495 0.08212363 0.00481975 0.06666755 0.07513713 0.02899581 0.05785334 0.004819691 0.08161854 0.1197955 0.0221036 0.08212363 0.00481975 0.05794751 0.02858495 0.04289567 0.005405247 0.04289567 0.04289567 0.005405247 0.04289567 0.5233718 0.4263964 0.4781594 0.4708403 0.5219658 0.4956728 0.4702439 0.47943 0.4955739 0.5224248 0.4688379 0.5487064 0.4702439 0.47943 0.4250316 0.5238739 0.4688379 0.5487064</float_array>
          <technique_common>
            <accessor source="#Hotdog_01-mesh-map-0-array" count="408" stride="2">
              <param name="S" type="float"/>
              <param name="T" type="float"/>
            </accessor>
          </technique_common>
        </source>
        <vertices id="Hotdog_01-mesh-vertices">
          <input semantic="POSITION" source="#Hotdog_01-mesh-positions"/>
        </vertices>
        <triangles material="Hotdog_01-material" count="136">
          <input semantic="VERTEX" source="#Hotdog_01-mesh-vertices" offset="0"/>
          <input semantic="NORMAL" source="#Hotdog_01-mesh-normals" offset="1"/>
          <input semantic="TEXCOORD" source="#Hotdog_01-mesh-map-0" offset="2" set="0"/>
          <p>6 0 0 18 1 1 23 2 2 27 3 3 33 4 4 52 5 5 0 6 6 25 7 7 8 8 8 1 9 9 10 10 10 2 11 11 4 12 12 13 13 13 14 14 14 32 15 15 25 7 16 24 16 17 3 17 18 26 18 19 18 1 20 2 11 21 4 12 22 1 9 23 16 19 24 42 20 25 41 21 26 12 22 27 51 23 28 50 24 29 32 15 30 24 16 31 53 25 32 21 26 33 55 27 34 42 20 35 47 28 36 14 14 37 48 29 38 6 0 39 31 30 40 12 22 41 5 31 42 28 32 43 20 33 44 16 19 45 53 25 46 24 16 47 14 14 48 49 34 49 48 29 50 5 31 51 1 9 52 4 12 53 3 17 54 7 35 55 2 11 56 2 11 57 11 36 58 3 17 59 9 37 60 0 6 61 8 8 62 26 18 63 33 4 64 27 3 65 11 36 66 34 38 67 26 18 68 7 35 69 12 22 70 13 13 71 5 31 72 14 14 73 15 39 74 28 32 75 45 40 76 29 41 77 44 42 78 30 43 79 54 44 80 0 6 81 20 33 82 17 45 83 20 33 84 16 19 85 17 45 86 18 1 87 22 46 88 23 2 89 26 18 90 19 47 91 18 1 92 17 45 93 24 16 94 25 7 95 8 8 96 39 48 97 38 49 98 9 37 99 36 50 100 10 10 101 22 46 102 31 30 103 23 2 104 20 33 105 29 41 106 21 26 107 15 39 108 46 51 109 28 32 110 44 42 111 31 30 112 30 43 113 22 46 114 54 44 115 30 43 116 29 41 117 45 40 118 55 27 119 35 52 120 10 10 121 36 50 122 50 24 123 13 13 124 12 22 125 19 47 126 52 5 127 40 53 128 19 47 129 43 54 130 22 46 131 36 50 132 37 55 133 38 49 134 49 34 135 50 24 136 51 23 137 42 20 138 40 53 139 41 21 140 41 21 141 52 5 142 53 25 143 53 25 144 33 4 145 32 15 146 44 42 147 55 27 148 45 40 149 42 20 150 54 44 151 43 54 152 38 49 153 9 37 154 8 8 155 51 23 156 44 42 157 45 40 158 45 40 159 46 51 160 51 23 161 46 51 162 47 28 163 48 29 164 51 23 165 46 51 166 48 29 167 48 29 168 49 34 169 51 23 170 57 56 171 65 57 172 56 58 173 58 59 174 63 60 175 62 61 176 61 62 177 68 63 178 63 60 179 61 62 180 56 58 181 60 64 182 62 61 183 56 58 184 58 59 185 63 60 186 57 56 187 61 62 188 66 65 189 64 66 190 65 57 191 59 67 192 66 65 193 57 56 194 56 58 195 64 66 196 58 59 197 58 59 198 67 68 199 59 67 200 69 69 201 71 70 202 70 71 203 62 61 204 68 63 205 69 69 206 60 64 207 71 70 208 61 62 209 60 64 210 69 69 211 70 71 212 6 0 213 3 17 214 18 1 215 0 6 216 17 45 217 25 7 218 1 9 219 9 37 220 10 10 221 4 12 222 7 35 223 13 13 224 32 15 225 39 48 226 25 7 227 3 17 228 11 36 229 26 18 230 2 11 231 7 35 232 4 12 233 16 19 234 21 26 235 42 20 236 12 22 237 31 30 238 51 23 239 21 26 240 29 41 241 55 27 242 47 28 243 15 39 244 14 14 245 6 0 246 23 2 247 31 30 248 5 31 249 15 39 250 28 32 251 16 19 252 41 21 253 53 25 254 14 14 255 13 13 256 49 34 257 5 31 258 0 6 259 1 9 260 3 17 261 6 0 262 7 35 263 2 11 264 10 10 265 11 36 266 9 37 267 1 9 268 0 6 269 26 18 270 34 38 271 33 4 272 11 36 273 35 52 274 34 38 275 7 35 276 6 0 277 12 22 278 5 31 279 4 12 280 14 14 281 28 32 282 46 51 283 45 40 284 0 6 285 5 31 286 20 33 287 20 33 288 21 26 289 16 19 290 18 1 291 19 47 292 22 46 293 26 18 294 27 3 295 19 47 296 17 45 297 16 19 298 24 16 299 8 8 300 25 7 301 39 48 302 9 37 303 37 55 304 36 50 305 22 46 306 30 43 307 31 30 308 20 33 309 28 32 310 29 41 311 15 39 312 47 28 313 46 51 314 44 42 315 51 23 316 31 30 317 22 46 318 43 54 319 54 44 320 35 52 321 11 36 322 10 10 323 50 24 324 49 34 325 13 13 326 19 47 327 27 3 328 52 5 329 19 47 330 40 53 331 43 54 332 39 48 333 32 15 334 34 38 335 32 15 336 33 4 337 34 38 338 34 38 339 35 52 340 38 49 341 39 48 342 34 38 343 38 49 344 35 52 345 36 50 346 38 49 347 42 20 348 43 54 349 40 53 350 41 21 351 40 53 352 52 5 353 53 25 354 52 5 355 33 4 356 44 42 357 54 44 358 55 27 359 42 20 360 55 27 361 54 44 362 38 49 363 37 55 364 9 37 365 57 56 366 66 65 367 65 57 368 58 59 369 59 67 370 63 60 371 61 62 372 71 70 373 68 63 374 61 62 375 57 56 376 56 58 377 62 61 378 60 64 379 56 58 380 63 60 381 59 67 382 57 56 383 66 65 384 67 68 385 64 66 386 59 67 387 67 68 388 66 65 389 56 58 390 65 57 391 64 66 392 58 59 393 64 66 394 67 68 395 69 69 396 68 63 397 71 70 398 62 61 399 63 60 400 68 63 401 60 64 402 70 71 403 71 70 404 60 64 405 62 61 406 69 69 407</p>
        </triangles>
      </mesh>
    </geometry>
  </library_geometries>
  <library_visual_scenes>
    <visual_scene id="Scene" name="Scene">
      <node id="Hotdog_01" name="Hotdog_01" type="NODE">
        <matrix sid="transform">-0.02936562 -4.18254e-16 9.56853e-9 0 -9.56853e-9 1.28361e-9 -0.02936562 0 0 -0.02936562 -1.28361e-9 0 0 0 0 1</matrix>
        <instance_geometry url="#Hotdog_01-mesh" name="Hotdog_01">
          <bind_material>
            <technique_common>
              <instance_material symbol="Hotdog_01-material" target="#Hotdog_01-material">
                <bind_vertex_input semantic="UVMap" input_semantic="TEXCOORD" input_set="0"/>
              </instance_material>
            </technique_common>
          </bind_material>
        </instance_geometry>
      </node>
    </visual_scene>
  </library_visual_scenes>
  <scene>
    <instance_visual_scene url="#Scene"/>
  </scene>
</COLLADA>