<?xml version="1.0" encoding="utf-8"?>
<COLLADA xmlns="http://www.collada.org/2005/11/COLLADASchema" version="1.4.1" xmlns:xsi="http://www.w3.org/2001/XMLSchema-instance">
  <asset>
    <contributor>
      <author>Blender User</author>
      <authoring_tool>Blender 4.0.1 commit date:2023-11-16, commit time:16:40, hash:d0dd92834a08</authoring_tool>
    </contributor>
    <created>2023-11-28T13:51:09</created>
    <modified>2023-11-28T13:51:09</modified>
    <unit name="meter" meter="1"/>
    <up_axis>Z_UP</up_axis>
  </asset>
  <library_effects>
    <effect id="Trash_Can-effect">
      <profile_COMMON>
        <newparam sid="Trash_Can-surface">
          <surface type="2D">
            <init_from>Trash_Can</init_from>
          </surface>
        </newparam>
        <newparam sid="Trash_Can-sampler">
          <sampler2D>
            <source>Trash_Can-surface</source>
          </sampler2D>
        </newparam>
        <technique sid="common">
          <lambert>
            <emission>
              <color sid="emission">0 0 0 1</color>
            </emission>
            <diffuse>
              <texture texture="Trash_Can-sampler" texcoord="UVMap"/>
            </diffuse>
            <index_of_refraction>
              <float sid="ior">1.45</float>
            </index_of_refraction>
          </lambert>
        </technique>
      </profile_COMMON>
    </effect>
  </library_effects>
  <library_images>
    <image id="Trash_Can" name="Trash_Can">
      <init_from>Trash_Can.png</init_from>
    </image>
  </library_images>
  <library_materials>
    <material id="Trash_Can-material" name="Trash_Can">
      <instance_effect url="#Trash_Can-effect"/>
    </material>
  </library_materials>
  <library_geometries>
    <geometry id="Trash_Can-mesh" name="Trash_Can">
      <mesh>
        <source id="Trash_Can-mesh-positions">
          <float_array id="Trash_Can-mesh-positions-array" count="120">-0.3513618 -0.3449654 -0.9025307 -0.3986967 -0.3923003 0.3865905 -0.3513618 0.3449654 -0.9025307 -0.3986967 0.3923003 0.3865905 0.338569 -0.3449654 -0.9025307 0.3859039 -0.3923003 0.3865905 0.338569 0.3449654 -0.9025307 0.3859039 0.3923003 0.3865905 -0.426163 -0.4197666 0.3865905 -0.426163 0.4197666 0.3865905 0.4133701 0.4197666 0.3865905 0.4133701 -0.4197666 0.3865905 -0.4067994 -0.2681732 0.6100527 -0.4067994 0.2681732 0.6100527 0.4133701 0.4197666 0.5514076 0.4133701 -0.4197666 0.5514076 -0.3349425 -0.2116001 0.8276821 -0.3349425 0.2116001 0.8276821 0.290355 0.2967514 0.9239767 0.290355 -0.2967514 0.9239767 -0.426163 -0.4197666 0.5514076 -0.426163 0.4197666 0.5514076 -0.3031478 -0.2967514 0.9239767 -0.3031478 0.2967514 0.9239767 -0.3640195 -0.3507657 0.5765397 -0.3640195 0.3507657 0.5765397 -0.2700318 -0.2767692 0.8611951 -0.2700318 0.2767692 0.8611951 0.3144563 -0.3507657 0.5765397 0.3144563 0.3507657 0.5765397 0.2770505 -0.2767692 0.8611951 0.2770505 0.2767692 0.8611951 -0.3640195 -0.3507657 0.4773811 -0.3640195 0.3507657 0.4773811 0.3144563 -0.3507657 0.4773811 0.3144563 0.3507657 0.4773811 -0.3795115 -0.2654468 0.6111589 -0.3083851 -0.2094489 0.8265758 -0.3795115 0.2654468 0.6111589 -0.3083851 0.2094489 0.8265758</float_array>
          <technique_common>
            <accessor source="#Trash_Can-mesh-positions-array" count="40" stride="3">
              <param name="X" type="float"/>
              <param name="Y" type="float"/>
              <param name="Z" type="float"/>
            </accessor>
          </technique_common>
        </source>
        <source id="Trash_Can-mesh-normals">
          <float_array id="Trash_Can-mesh-normals-array" count="156">-0.9993266 0 -0.03669399 0 0.9993265 -0.03669393 0.9993266 0 -0.03669399 0 -0.9993265 -0.03669393 0 0 -1 1 0 0 -5.18601e-7 0 -1 5.18601e-7 0 -1 0.9495775 0 0.3135324 -1 0 0 0 -1 0 0 1 0 0 0 1 0 -0.9495776 0.3135323 0 0.9495776 0.3135323 -0.9495774 0 0.3135328 -0.9495774 0 0.3135328 -0.9495776 -7.37612e-7 0.3135322 -0.9495776 -5.74439e-7 0.3135323 0.876241 0.3091048 -0.36967 0.9127736 0 0.408466 0.8762409 -0.3091057 -0.3696697 0.6700473 0 -0.7423185 0 -0.9678341 -0.2515894 0 0.9678341 -0.2515895 -0.9914763 0 -0.1302872 -0.041619 0 -0.9991336 -0.0879386 -0.9707708 -0.2233179 -0.04050487 0 0.9991794 -0.08793872 0.9707711 -0.2233168 -0.9993265 0 -0.03669399 0 0.9993265 -0.03669399 0.9993265 0 -0.03669399 0 -0.9993265 -0.03669399 0.9495776 0 0.3135321 0 -0.9495776 0.3135322 0 0.9495776 0.3135322 -0.9495773 0 0.313533 -0.9495776 0 0.3135322 -0.9495776 5.74439e-7 0.3135323 -0.9495776 7.37612e-7 0.3135322 0.8762409 0.3091057 -0.3696697 0.9127736 0 0.4084659 0.876241 -0.3091048 -0.36967 0.670048 0 -0.7423178 0 -0.9678341 -0.2515895 0 0.9678341 -0.2515894 -0.9914763 0 -0.1302872 -0.04162615 0 -0.9991332 -0.08793872 -0.9707711 -0.2233168 -0.04050958 0 0.9991793 -0.0879386 0.9707708 -0.2233179</float_array>
          <technique_common>
            <accessor source="#Trash_Can-mesh-normals-array" count="52" stride="3">
              <param name="X" type="float"/>
              <param name="Y" type="float"/>
              <param name="Z" type="float"/>
            </accessor>
          </technique_common>
        </source>
        <source id="Trash_Can-mesh-map-0">
          <float_array id="Trash_Can-mesh-map-0-array" count="456">0.5461397 0.4326671 0.7906442 0.00514692 0.5618376 0.00514692 0.005146861 0.8704811 0.2496514 0.442961 0.02084487 0.442961 0.2653494 0.4326671 0.02084487 0.00514692 0.2496514 0.00514692 0.5358458 0.4326671 0.2913413 0.00514692 0.5201478 0.005146861 0.5044498 0.731675 0.2756433 0.9604815 0.5044498 0.9604815 0.8502851 0.4520698 0.8411763 0.7213811 0.8502852 0.7122723 0.6526653 0.4429609 0.7073247 0.721381 0.6526653 0.721381 0.9084933 0.4520697 0.8993844 0.7213811 0.9084933 0.7122723 0.8890905 0.4520697 0.8799818 0.7213811 0.8890906 0.7122722 0.8605791 0.7122723 0.8696879 0.4429609 0.860579 0.4520698 0.7073247 0.4429609 0.8308824 0.6805847 0.7073247 0.721381 0.2756432 0.7213811 0.3303027 0.4429609 0.2756432 0.442961 0.4641544 0.442961 0.5188139 0.7213811 0.4641544 0.7213811 0.816636 0.283567 0.8712955 0.005146861 0.816636 0.005146861 0.5147436 0.7316749 0.711571 0.9285023 0.5147437 0.9285023 0.5188139 0.4429609 0.6423715 0.6805847 0.5188139 0.7213811 0.8712955 0.283567 0.994853 0.04594326 0.8712955 0.005146861 0.3497516 0.4932349 0.3303028 0.7213811 0.3497517 0.6711072 0.4219256 0.6523455 0.4538604 0.4837573 0.4219256 0.5119966 0.3497517 0.6711072 0.4538604 0.6805848 0.4219255 0.6523455 0.3497516 0.4932349 0.4538604 0.4837573 0.3303027 0.4429609 0.3549604 0.6750937 0.4374541 0.6701095 0.3430519 0.6946494 0.3474961 0.6691871 0.3472169 0.4658442 0.347496 0.4951551 0.3549602 0.4892486 0.4374541 0.494233 0.4246807 0.5078195 0.4268668 0.5138228 0.4361784 0.6739578 0.4268669 0.6505195 0.6381428 0.6824995 0.5309018 0.4622995 0.6381428 0.4763917 0.5238615 0.9273093 0.7092142 0.7397693 0.5238615 0.7397693 0.6381428 0.6824995 0.5309018 0.4622995 0.5309018 0.7179084 0.5128614 0.7116268 0.4750829 0.4531337 0.5128614 0.4531337 0.3459537 0.7114915 0.4491004 0.4841003 0.3459537 0.4572873 0.736581 0.7409479 0.9798119 0.9924442 0.736581 0.9924442 0.5128614 0.7160188 0.4750829 0.4487417 0.5128614 0.4487417 0.5128614 0.4487417 0.4750829 0.7160188 0.5128614 0.7160188 0.5128614 0.4531337 0.4750829 0.7116268 0.5128614 0.7116268 0.4219256 0.5119966 0.4266322 0.6510984 0.4219256 0.6523455 0.4219255 0.5119966 0.3538187 0.4905828 0.424876 0.5091539 0.3497517 0.6711072 0.3479844 0.4947769 0.3497516 0.4932349 0.4219255 0.6523455 0.3538188 0.6737594 0.3497517 0.6711072 0.5461397 0.4326671 0.8063421 0.4326671 0.7906442 0.00514692 0.005146861 0.8704811 0.2653494 0.8704811 0.2496514 0.442961 0.2653494 0.4326671 0.00514692 0.4326671 0.02084487 0.00514692 0.5358458 0.4326671 0.2756433 0.4326671 0.2913413 0.00514692 0.5044498 0.731675 0.2756433 0.731675 0.2756433 0.9604815 0.8502851 0.4520698 0.8411763 0.4429609 0.8411763 0.7213811 0.6526653 0.4429609 0.7073247 0.4429609 0.7073247 0.721381 0.9084933 0.4520697 0.8993844 0.4429609 0.8993844 0.7213811 0.8890905 0.4520697 0.8799817 0.4429609 0.8799818 0.7213811 0.8605791 0.7122723 0.8696879 0.7213811 0.8696879 0.4429609 0.7073247 0.4429609 0.8308824 0.4837573 0.8308824 0.6805847 0.2756432 0.7213811 0.3303028 0.7213811 0.3303027 0.4429609 0.4641544 0.442961 0.5188139 0.4429609 0.5188139 0.7213811 0.816636 0.283567 0.8712955 0.283567 0.8712955 0.005146861 0.5147436 0.7316749 0.711571 0.7316749 0.711571 0.9285023 0.5188139 0.4429609 0.6423715 0.4837573 0.6423715 0.6805847 0.8712955 0.283567 0.994853 0.2427706 0.994853 0.04594326 0.3497516 0.4932349 0.3303027 0.4429609 0.3303028 0.7213811 0.4219256 0.6523455 0.4538604 0.6805848 0.4538604 0.4837573 0.3497517 0.6711072 0.3303028 0.7213811 0.4538604 0.6805848 0.3497516 0.4932349 0.4219255 0.5119966 0.4538604 0.4837573 0.3549604 0.6750937 0.4246808 0.6565225 0.4374541 0.6701095 0.3474961 0.6691871 0.3472171 0.698498 0.3472169 0.4658442 0.3549602 0.4892486 0.3430518 0.4696928 0.4374541 0.494233 0.4268668 0.5138228 0.4361782 0.4903842 0.4361784 0.6739578 0.6381428 0.6824995 0.5309018 0.7179084 0.5309018 0.4622995 0.5238615 0.9273093 0.7092142 0.9273093 0.7092142 0.7397693 0.6381428 0.6824995 0.6381428 0.4763917 0.5309018 0.4622995 0.5128614 0.7116268 0.4750829 0.7116268 0.4750829 0.4531337 0.3459537 0.7114915 0.4491004 0.6846784 0.4491004 0.4841003 0.736581 0.7409479 0.9798119 0.7409479 0.9798119 0.9924442 0.5128614 0.7160188 0.4750829 0.7160188 0.4750829 0.4487417 0.5128614 0.4487417 0.4750829 0.4487417 0.4750829 0.7160188 0.5128614 0.4531337 0.4750829 0.4531337 0.4750829 0.7116268 0.4219256 0.5119966 0.4266322 0.5132438 0.4266322 0.6510984 0.4219255 0.5119966 0.3497516 0.4932349 0.3538187 0.4905828 0.3497517 0.6711072 0.3479846 0.6695653 0.3479844 0.4947769 0.4219255 0.6523455 0.424876 0.6551883 0.3538188 0.6737594</float_array>
          <technique_common>
            <accessor source="#Trash_Can-mesh-map-0-array" count="228" stride="2">
              <param name="S" type="float"/>
              <param name="T" type="float"/>
            </accessor>
          </technique_common>
        </source>
        <vertices id="Trash_Can-mesh-vertices">
          <input semantic="POSITION" source="#Trash_Can-mesh-positions"/>
        </vertices>
        <triangles material="Trash_Can-material" count="76">
          <input semantic="VERTEX" source="#Trash_Can-mesh-vertices" offset="0"/>
          <input semantic="NORMAL" source="#Trash_Can-mesh-normals" offset="1"/>
          <input semantic="TEXCOORD" source="#Trash_Can-mesh-map-0" offset="2" set="0"/>
          <p>1 0 0 2 0 1 0 0 2 3 1 3 6 1 4 2 1 5 7 2 6 4 2 7 6 2 8 5 3 9 0 3 10 4 3 11 6 4 12 0 4 13 2 4 14 3 4 15 10 4 16 7 4 17 10 5 18 15 5 19 11 5 20 7 6 21 11 6 22 5 6 23 1 7 24 9 7 25 3 7 26 5 4 27 8 4 28 1 4 29 14 8 30 19 8 31 15 8 32 8 9 33 21 9 34 9 9 35 11 10 36 20 10 37 8 10 38 9 11 39 14 11 40 10 11 41 23 12 42 19 12 43 18 12 44 15 13 45 22 13 46 20 13 47 21 14 48 18 14 49 14 14 50 13 15 51 20 15 52 12 15 53 16 16 54 23 16 55 17 16 56 12 17 57 22 17 58 16 17 59 13 18 60 23 18 61 21 18 62 36 19 63 26 19 64 24 19 65 36 20 66 25 20 67 38 20 68 38 21 69 27 21 70 39 21 71 39 22 72 26 22 73 37 22 74 27 23 75 29 23 76 31 23 77 27 4 78 30 4 79 26 4 80 26 24 81 28 24 82 24 24 83 25 10 84 35 10 85 29 10 86 28 25 87 31 25 88 29 25 89 32 12 90 35 12 91 33 12 92 24 5 93 33 5 94 25 5 95 29 9 96 34 9 97 28 9 98 28 11 99 32 11 100 24 11 101 17 26 102 37 26 103 16 26 104 17 27 105 38 27 106 39 27 107 12 28 108 38 28 109 13 28 110 16 29 111 36 29 112 12 29 113 1 30 114 3 30 115 2 30 116 3 31 117 7 31 118 6 31 119 7 32 120 5 32 121 4 32 122 5 33 123 1 33 124 0 33 125 6 4 126 4 4 127 0 4 128 3 4 129 9 4 130 10 4 131 10 5 132 14 5 133 15 5 134 7 4 135 10 4 136 11 4 137 1 4 138 8 4 139 9 4 140 5 4 141 11 4 142 8 4 143 14 34 144 18 34 145 19 34 146 8 9 147 20 9 148 21 9 149 11 10 150 15 10 151 20 10 152 9 11 153 21 11 154 14 11 155 23 12 156 22 12 157 19 12 158 15 35 159 19 35 160 22 35 161 21 36 162 23 36 163 18 36 164 13 37 165 21 37 166 20 37 167 16 38 168 22 38 169 23 38 170 12 39 171 20 39 172 22 39 173 13 40 174 17 40 175 23 40 176 36 41 177 37 41 178 26 41 179 36 42 180 24 42 181 25 42 182 38 43 183 25 43 184 27 43 185 39 44 186 27 44 187 26 44 188 27 45 189 25 45 190 29 45 191 27 4 192 31 4 193 30 4 194 26 46 195 30 46 196 28 46 197 25 10 198 33 10 199 35 10 200 28 47 201 30 47 202 31 47 203 32 12 204 34 12 205 35 12 206 24 5 207 32 5 208 33 5 209 29 9 210 35 9 211 34 9 212 28 11 213 34 11 214 32 11 215 17 48 216 39 48 217 37 48 218 17 49 219 13 49 220 38 49 221 12 50 222 36 50 223 38 50 224 16 51 225 37 51 226 36 51 227</p>
        </triangles>
      </mesh>
    </geometry>
  </library_geometries>
  <library_visual_scenes>
    <visual_scene id="Scene" name="Scene">
      <node id="Trash_Can" name="Trash_Can" type="NODE">
        <matrix sid="transform">-0.7858149 2.56051e-7 0 0 -2.56051e-7 -0.7858149 0 0 0 0 0.7858149 0 0 0 0 1</matrix>
        <instance_geometry url="#Trash_Can-mesh" name="Trash_Can">
          <bind_material>
            <technique_common>
              <instance_material symbol="Trash_Can-material" target="#Trash_Can-material">
                <bind_vertex_input semantic="UVMap" input_semantic="TEXCOORD" input_set="0"/>
              </instance_material>
            </technique_common>
          </bind_material>
        </instance_geometry>
      </node>
    </visual_scene>
  </library_visual_scenes>
  <scene>
    <instance_visual_scene url="#Scene"/>
  </scene>
</COLLADA>