<?xml version="1.0" encoding="utf-8"?>
<COLLADA xmlns="http://www.collada.org/2005/11/COLLADASchema" version="1.4.1" xmlns:xsi="http://www.w3.org/2001/XMLSchema-instance">
  <asset>
    <contributor>
      <author>Blender User</author>
      <authoring_tool>Blender 4.0.1 commit date:2023-11-16, commit time:16:40, hash:d0dd92834a08</authoring_tool>
    </contributor>
    <created>2023-11-28T13:06:01</created>
    <modified>2023-11-28T13:06:01</modified>
    <unit name="meter" meter="1"/>
    <up_axis>Z_UP</up_axis>
  </asset>
  <library_effects>
    <effect id="BarkDecidious-effect">
      <profile_COMMON>
        <newparam sid="BarkDecidious_jpg-surface">
          <surface type="2D">
            <init_from>BarkDecidious_jpg</init_from>
          </surface>
        </newparam>
        <newparam sid="BarkDecidious_jpg-sampler">
          <sampler2D>
            <source>BarkDecidious_jpg-surface</source>
          </sampler2D>
        </newparam>
        <technique sid="common">
          <lambert>
            <emission>
              <color sid="emission">0 0 0 1</color>
            </emission>
            <diffuse>
              <texture texture="BarkDecidious_jpg-sampler" texcoord="UVMap"/>
            </diffuse>
            <index_of_refraction>
              <float sid="ior">1.45</float>
            </index_of_refraction>
          </lambert>
        </technique>
      </profile_COMMON>
    </effect>
    <effect id="Branch-effect">
      <profile_COMMON>
        <newparam sid="Branch_png-surface">
          <surface type="2D">
            <init_from>Branch_png</init_from>
          </surface>
        </newparam>
        <newparam sid="Branch_png-sampler">
          <sampler2D>
            <source>Branch_png-surface</source>
          </sampler2D>
        </newparam>
        <technique sid="common">
          <lambert>
            <emission>
              <color sid="emission">0 0 0 1</color>
            </emission>
            <diffuse>
              <texture texture="Branch_png-sampler" texcoord="UVMap"/>
            </diffuse>
            <index_of_refraction>
              <float sid="ior">1.45</float>
            </index_of_refraction>
          </lambert>
        </technique>
      </profile_COMMON>
    </effect>
  </library_effects>
  <library_images>
    <image id="BarkDecidious_jpg" name="BarkDecidious_jpg">
      <init_from>BarkDecidious.jpg</init_from>
    </image>
    <image id="Branch_png" name="Branch_png">
      <init_from>Branch.png</init_from>
    </image>
  </library_images>
  <library_materials>
    <material id="BarkDecidious-material" name="BarkDecidious">
      <instance_effect url="#BarkDecidious-effect"/>
    </material>
    <material id="Branch-material" name="Branch">
      <instance_effect url="#Branch-effect"/>
    </material>
  </library_materials>
  <library_geometries>
    <geometry id="Tree-mesh" name="Tree">
      <mesh>
        <source id="Tree-mesh-positions">
          <float_array id="Tree-mesh-positions-array" count="1773">0 0.09773904 -0.09773904 -0.1330881 0.2200399 1.058734 0.09295535 0.03020298 -0.09773904 -0.05437457 0.1628511 1.058734 0.05744957 -0.07907253 -0.09773904 -0.08444046 0.07031774 1.058734 -0.05744957 -0.07907253 -0.09773904 -0.1817358 0.07031774 1.058734 -0.09295535 0.03020298 -0.09773904 -0.2118017 0.1628511 1.058734 -0.003364562 0.1569162 3.203035 -0.07046157 0.205665 3.203035 -0.02996838 0.08296334 3.203633 -0.1128876 0.08287566 3.20194 -0.1375586 0.1569162 3.203035 -0.08183068 0.07068115 1.159661 -0.05197364 0.1625717 1.159661 -0.2083072 0.1625717 1.159661 -0.1784502 0.07068115 1.159661 -0.3848061 0.1764863 5.662016 -0.1301404 0.2193633 1.159661 -0.3605464 0.5671059 1.472837 -0.4191904 0.5281584 1.480763 -0.3800553 0.4740421 1.504399 -0.3214114 0.5129896 1.496474 -0.07322543 0.2062994 3.108402 -0.00561577 0.1571781 3.108402 -0.7078829 0.588446 2.412323 -0.1140355 0.07277357 3.107803 -0.03048276 0.0728619 3.109509 -0.1408351 0.1571781 3.108402 -0.101683 0.2128313 2.134031 -0.05663549 0.07418966 2.134031 -0.1745712 0.1598749 2.134031 -0.0287947 0.1598749 2.134031 -0.1467304 0.07418966 2.134031 -0.02661854 0.1596217 2.225509 -0.1437524 0.07451903 2.225509 -0.09901124 0.2122181 2.225509 -0.05427008 0.07451903 2.225509 -0.171404 0.1596217 2.225509 0.1047124 0.4376789 2.361164 0.126303 0.4954373 2.312468 0.1930932 0.4580838 2.301215 0.1710487 0.4005793 2.349987 -0.08098626 -0.3468933 3.387149 -0.02852344 -0.285062 3.438768 0.4012624 0.717047 3.31111 -0.08988785 -0.2899865 3.428952 -0.01915299 -0.3419312 3.39704 -0.1057116 -0.7652987 4.627221 0.1070759 0.6625614 1.56445 -1.076032 0.2029725 1.241819 -0.5887833 0.9434267 3.210871 -1.491755 0.5926595 2.964633 -0.3206918 0.3106998 1.440339 -0.95356 0.7774816 3.110424 -0.1161764 0.5401317 2.557531 -1.299285 0.0805428 2.2349 -0.5439442 0.18827 2.433421 -0.6566832 -0.0281924 0.9885995 0.5908538 0.1952476 1.430439 -1.403738 1.136307 2.52695 -0.1562005 1.359747 2.968789 -0.115617 0.1796077 1.038603 -0.8843687 1.248299 2.686667 -0.9973513 0.806406 1.528419 0.2501856 1.029846 1.970258 -0.4562852 1.014206 1.578423 0.1468842 -0.1613874 1.401716 -0.3315619 0.8879893 0.7151352 -0.9857313 0.4011412 3.039219 -1.464177 1.450518 2.352638 -0.1578652 0.1632462 1.027317 -1.201551 0.8156904 2.740277 -0.6541356 -0.08455049 2.077347 -1.132582 0.9648262 1.390766 -0.9588851 0.2400831 1.702948 -0.03358829 0.6970686 0.9389221 -0.641233 -0.473716 1.186969 -0.4421151 1.311829 2.871756 -1.04976 0.1410446 3.119803 -0.1260083 0.1343975 1.05422 -0.6658138 0.8150231 2.976342 0.06729626 0.863468 1.971466 -0.5403483 -0.3073166 2.219513 -0.02512371 0.3007969 2.086764 -0.7589345 0.5578926 1.230079 0.07289522 -0.1822705 1.919482 -1.078365 1.377648 2.8015 -0.4434965 0.8127411 3.327666 -0.2818617 0.3380759 1.445201 -0.7988749 1.155681 3.0096 -0.7252811 1.276261 1.960734 0.1065486 0.5360977 2.650137 -0.2482083 1.056444 2.175857 -0.4290089 -0.1341441 1.684324 0.09174537 1.029954 1.386418 -1.321653 0.7095469 2.992797 -0.9242033 1.598009 2.765429 -0.3164146 0.3563767 1.421823 -1.170976 1.077553 2.880736 -1.198616 0.3351235 2.172724 -0.6778621 1.499222 1.874818 -1.086022 0.8256444 1.910222 0.1070759 0.6625614 1.56445 -1.076032 0.2029725 1.241819 -0.5887833 0.9434267 3.210871 -1.491755 0.5926595 2.964633 -0.3206918 0.3106998 1.440339 -0.95356 0.7774816 3.110424 -0.1161764 0.5401317 2.557531 -1.299285 0.0805428 2.2349 -0.5439442 0.18827 2.433421 -0.6566832 -0.0281924 0.9885995 0.5908538 0.1952476 1.430439 -1.403738 1.136307 2.52695 -0.1562005 1.359747 2.968789 -0.115617 0.1796077 1.038603 -0.8843687 1.248299 2.686667 -0.9973513 0.806406 1.528419 0.2501856 1.029846 1.970258 -0.4562852 1.014206 1.578423 0.1468842 -0.1613874 1.401716 -0.3315619 0.8879893 0.7151352 -0.9857313 0.4011412 3.039219 -1.464177 1.450518 2.352638 -0.1578652 0.1632462 1.027317 -1.201551 0.8156904 2.740277 -0.6541356 -0.08455049 2.077347 -1.132582 0.9648262 1.390766 -0.9588851 0.2400831 1.702948 -0.03358829 0.6970686 0.9389221 -0.641233 -0.473716 1.186969 -0.4421151 1.311829 2.871756 -1.04976 0.1410446 3.119803 -0.1260083 0.1343975 1.05422 -0.6658138 0.8150231 2.976342 0.06729626 0.863468 1.971466 -0.5403483 -0.3073166 2.219513 -0.02512371 0.3007969 2.086764 -0.7589345 0.5578926 1.230079 0.07289522 -0.1822705 1.919482 -1.078365 1.377648 2.8015 -0.4434965 0.8127411 3.327666 -0.2818617 0.3380759 1.445201 -0.7988749 1.155681 3.0096 -0.7252811 1.276261 1.960734 0.1065486 0.5360977 2.650137 -0.2482083 1.056444 2.175857 -0.4290089 -0.1341441 1.684324 0.09174537 1.029954 1.386418 -1.321653 0.7095469 2.992797 -0.9242033 1.598009 2.765429 -0.3164146 0.3563767 1.421823 -1.170976 1.077553 2.880736 -1.198616 0.3351235 2.172724 -0.6778621 1.499222 1.874818 -1.086022 0.8256444 1.910222 0.4205681 0.08037382 3.668135 -0.8694759 -0.1110646 3.54899 0.3233643 -1.011833 5.107387 -0.6612223 -1.157942 5.016453 -0.08350402 -0.1078887 3.487404 -0.07929724 -1.0864 5.05268 0.489784 -0.7541525 4.259588 -0.80026 -0.945591 4.140443 -0.01428812 -0.9424151 4.078857 -0.5987141 -0.03737843 3.085666 0.7426267 -0.08534759 3.085729 -0.6081181 -0.462804 5.110412 0.7332226 -0.5107731 5.110475 -0.03876215 0.1202499 3.079258 -0.0534262 -0.45225 5.109337 -0.5941718 0.09101021 4.128503 0.7471688 0.04304111 4.128566 -0.03421992 0.2486386 4.122095 0.2514287 -0.3485508 2.965018 -0.2034687 0.8110271 3.464961 -0.2026214 -1.289728 4.75071 -0.6575189 -0.1301502 5.250652 -0.0847482 0.1132746 3.075182 -0.4157611 -0.8140076 4.940597 -0.2770799 -0.8749321 3.705028 -0.7319774 0.284646 4.204971 -0.6132568 -0.4131065 3.815192 0.1062078 0.5488528 3.361594 -0.609048 -0.4803442 2.881325 0.4277184 -0.5006797 5.115386 -0.2875373 -1.529877 4.635117 -0.05234515 0.07739925 3.059889 0.1558904 -0.9334412 4.899463 0.5450679 -0.08801889 4.072798 -0.1701878 -1.117216 3.592529 0.3865149 -0.5594723 3.771092 -0.5093314 0.1678193 3.687469 0.3352966 -0.750536 3.289618 -0.1751144 -0.4696136 5.338342 0.4695219 -1.17052 5.034694 -0.04055786 -0.0891546 3.496652 0.1066339 -0.7429602 5.209543 -0.1195815 0.1160982 4.634286 0.7250465 -0.8022571 4.236435 0.349192 -0.1408757 4.443469 -0.1954465 -0.5965028 3.353714 0.4222922 0.4560114 3.828762 -0.4715887 -1.082955 5.058952 -1.18479e-4 -0.279655 5.421518 -0.07641971 -0.0632165 3.507447 -0.294748 -0.7385009 5.203066 -0.6766043 -0.7189424 4.250674 -0.05886554 0.3335719 4.725722 -0.5575775 -0.1856561 4.404407 0.4205681 0.08037382 3.668135 -0.8694759 -0.1110646 3.54899 0.3233643 -1.011833 5.107387 -0.6612223 -1.157942 5.016453 -0.08350402 -0.1078887 3.487404 -0.07929724 -1.0864 5.05268 0.489784 -0.7541525 4.259588 -0.80026 -0.945591 4.140443 -0.01428812 -0.9424151 4.078857 -0.5987141 -0.03737843 3.085666 0.7426267 -0.08534759 3.085729 -0.6081181 -0.462804 5.110412 0.7332226 -0.5107731 5.110475 -0.03876215 0.1202499 3.079258 -0.0534262 -0.45225 5.109337 -0.5941718 0.09101021 4.128503 0.7471688 0.04304111 4.128566 -0.03421992 0.2486386 4.122095 0.2514287 -0.3485508 2.965018 -0.2034687 0.8110271 3.464961 -0.2026214 -1.289728 4.75071 -0.6575189 -0.1301502 5.250652 -0.0847482 0.1132746 3.075182 -0.4157611 -0.8140076 4.940597 -0.2770799 -0.8749321 3.705028 -0.7319774 0.284646 4.204971 -0.6132568 -0.4131065 3.815192 0.1062078 0.5488528 3.361594 -0.609048 -0.4803442 2.881325 0.4277184 -0.5006797 5.115386 -0.2875373 -1.529877 4.635117 -0.05234515 0.07739925 3.059889 0.1558904 -0.9334412 4.899463 0.5450679 -0.08801889 4.072798 -0.1701878 -1.117216 3.592529 0.3865149 -0.5594723 3.771092 -0.5093314 0.1678193 3.687469 0.3352966 -0.750536 3.289618 -0.1751144 -0.4696136 5.338342 0.4695219 -1.17052 5.034694 -0.04055786 -0.0891546 3.496652 0.1066339 -0.7429602 5.209543 -0.1195815 0.1160982 4.634286 0.7250465 -0.8022571 4.236435 0.349192 -0.1408757 4.443469 -0.1954465 -0.5965028 3.353714 0.4222922 0.4560114 3.828762 -0.4715887 -1.082955 5.058952 -1.18479e-4 -0.279655 5.421518 -0.07641971 -0.0632165 3.507447 -0.294748 -0.7385009 5.203066 -0.6766043 -0.7189424 4.250674 -0.05886554 0.3335719 4.725722 -0.5575775 -0.1856561 4.404407 0.5171515 0.3926606 2.392488 -0.8075984 -0.03919357 2.518896 0.6821037 0.008252143 4.279683 -0.3289712 -0.3213473 4.37616 0.01505744 0.05380779 2.364027 0.2706382 -0.1487525 4.308974 0.772094 -0.1153569 3.328706 -0.5526559 -0.5472112 3.455114 0.2699998 -0.4542098 3.300245 -0.5568589 -0.1434182 2.007873 0.8616406 0.01338601 1.868716 -0.3997028 0.390864 4.146911 1.018797 0.5476682 4.007754 0.001655578 0.08787512 1.863554 0.1811408 0.4840772 4.074614 -0.5313295 0.4634044 2.951883 0.88717 0.6202086 2.812726 0.02718502 0.6946978 2.807564 0.3897345 -0.3668757 1.930168 -0.2845795 0.8985231 1.942818 0.1662486 -0.5007655 4.12511 -0.5080654 0.7646333 4.137759 -0.0455318 0.07241678 1.868293 -0.1389092 0.007304072 4.118853 -0.03490483 -0.6032751 2.942016 -0.7092189 0.6621237 2.954666 -0.4701712 -0.1639826 2.880141 0.08562964 0.6481143 1.924452 -0.4933027 -0.6607852 2.012274 0.6960871 0.5134505 4.044558 0.1171548 -0.7954491 4.13238 -0.00540167 0.03611361 1.865871 0.4824491 -0.03904658 4.064582 0.6970205 0.4392843 2.842401 0.1180881 -0.8696151 2.930224 0.6059892 -0.1727162 2.78382 -0.4755846 0.344447 2.483172 0.5673409 -0.5855296 2.413242 0.06638616 0.5555326 4.317153 0.862367 -0.1542435 4.263781 0.05706429 0.08238309 2.359326 0.4082526 0.278487 4.282723 -0.01557689 0.7936505 3.369846 1.027348 -0.136326 3.299916 0.517072 0.5315867 3.246 -0.01654219 -0.4894679 2.469089 0.4553141 0.824454 2.377435 -0.1419605 -0.2017484 4.360488 0.2181693 0.8010622 4.290535 0.01497268 0.1066328 2.362316 -0.01463758 0.2191635 4.322615 -0.4605491 -0.2620008 3.444127 0.01130729 1.051921 3.352473 -0.4290341 0.3341 3.337353 0.5171515 0.3926606 2.392488 -0.8075984 -0.03919357 2.518896 0.6821037 0.008252143 4.279683 -0.3289712 -0.3213473 4.37616 0.01505744 0.05380779 2.364027 0.2706382 -0.1487525 4.308974 0.772094 -0.1153569 3.328706 -0.5526559 -0.5472112 3.455114 0.2699998 -0.4542098 3.300245 -0.5568589 -0.1434182 2.007873 0.8616406 0.01338601 1.868716 -0.3997028 0.390864 4.146911 1.018797 0.5476682 4.007754 0.001655578 0.08787512 1.863554 0.1811408 0.4840772 4.074614 -0.5313295 0.4634044 2.951883 0.88717 0.6202086 2.812726 0.02718502 0.6946978 2.807564 0.3897345 -0.3668757 1.930168 -0.2845795 0.8985231 1.942818 0.1662486 -0.5007655 4.12511 -0.5080654 0.7646333 4.137759 -0.0455318 0.07241678 1.868293 -0.1389092 0.007304072 4.118853 -0.03490483 -0.6032751 2.942016 -0.7092189 0.6621237 2.954666 -0.4701712 -0.1639826 2.880141 0.08562964 0.6481143 1.924452 -0.4933027 -0.6607852 2.012274 0.6960871 0.5134505 4.044558 0.1171548 -0.7954491 4.13238 -0.00540167 0.03611361 1.865871 0.4824491 -0.03904658 4.064582 0.6970205 0.4392843 2.842401 0.1180881 -0.8696151 2.930224 0.6059892 -0.1727162 2.78382 -0.4755846 0.344447 2.483172 0.5673409 -0.5855296 2.413242 0.06638616 0.5555326 4.317153 0.862367 -0.1542435 4.263781 0.05706429 0.08238309 2.359326 0.4082526 0.278487 4.282723 -0.01557689 0.7936505 3.369846 1.027348 -0.136326 3.299916 0.517072 0.5315867 3.246 -0.01654219 -0.4894679 2.469089 0.4553141 0.824454 2.377435 -0.1419605 -0.2017484 4.360488 0.2181693 0.8010622 4.290535 0.01497268 0.1066328 2.362316 -0.01463758 0.2191635 4.322615 -0.4605491 -0.2620008 3.444127 0.01130729 1.051921 3.352473 -0.4290341 0.3341 3.337353 -0.7261404 0.4874864 3.950358 0.2287859 -0.5041744 4.199686 -0.5324379 0.9554299 5.815831 0.1963803 0.198575 6.006123 -0.2030361 0.1813385 3.969472 -0.2147954 0.6565218 5.88343 -0.4187104 1.012507 4.861083 0.5362159 0.02084606 5.110411 0.1043937 0.706359 4.880198 0.2367062 -0.2754709 3.668169 -0.5102061 0.9184848 3.398568 -0.4050769 -0.1921486 5.781652 -1.151989 1.001807 5.512051 -0.2063159 0.1138888 3.472227 -0.7363991 0.2829366 5.655897 -0.3620169 -0.4388108 4.603525 -1.108929 0.755145 4.333924 -0.8050391 -0.04945099 4.407583 0.03331226 0.6646806 3.504595 -0.8169117 -0.4878554 3.574404 0.1554118 0.7004203 5.711279 -0.6948121 -0.4521159 5.781087 -0.1722435 0.07861799 3.481343 -0.1706324 0.2058557 5.731185 0.3856946 0.4681745 4.552093 -0.4645294 -0.6843616 4.621901 0.1801388 -0.1178881 4.528841 -0.7500633 -0.04855161 3.523021 0.6753812 0.006116509 3.668668 -0.9836004 0.7299687 5.578504 0.4418441 0.7846369 5.72415 -0.156724 0.1301717 3.475379 -0.3944231 0.7792458 5.620182 -0.865171 0.6652802 4.381645 0.5602734 0.7199484 4.527292 -0.2718318 0.8440036 4.334002 -0.2585731 -0.3753077 4.132128 0.1329002 0.9580867 3.970115 -0.7618077 0.1686769 5.907687 -0.4630276 1.186349 5.784036 -0.246698 0.2062788 3.960821 -0.6580381 0.5927784 5.843017 -0.9000986 -0.08503079 4.971035 -0.5086252 1.248364 4.809023 -0.8882235 0.4965558 4.799728 0.2956634 0.396921 4.079054 -1.087974 0.2436568 3.939419 0.008638262 0.3133334 5.972867 -1.04738 0.196359 5.866295 -0.2505334 0.1582335 3.967576 -0.4239618 0.2421501 5.921852 0.239936 -0.02096021 5.08992 -1.143701 -0.1742244 4.950285 -0.3062608 -0.2596477 4.978443 -0.7261404 0.4874864 3.950358 0.2287859 -0.5041744 4.199686 -0.5324379 0.9554299 5.815831 0.1963803 0.198575 6.006123 -0.2030361 0.1813385 3.969472 -0.2147954 0.6565218 5.88343 -0.4187104 1.012507 4.861083 0.5362159 0.02084606 5.110411 0.1043937 0.706359 4.880198 0.2367062 -0.2754709 3.668169 -0.5102061 0.9184848 3.398568 -0.4050769 -0.1921486 5.781652 -1.151989 1.001807 5.512051 -0.2063159 0.1138888 3.472227 -0.7363991 0.2829366 5.655897 -0.3620169 -0.4388108 4.603525 -1.108929 0.755145 4.333924 -0.8050391 -0.04945099 4.407583 0.03331226 0.6646806 3.504595 -0.8169117 -0.4878554 3.574404 0.1554118 0.7004203 5.711279 -0.6948121 -0.4521159 5.781087 -0.1722435 0.07861799 3.481343 -0.1706324 0.2058557 5.731185 0.3856946 0.4681745 4.552093 -0.4645294 -0.6843616 4.621901 0.1801388 -0.1178881 4.528841 -0.7500633 -0.04855161 3.523021 0.6753812 0.006116509 3.668668 -0.9836004 0.7299687 5.578504 0.4418441 0.7846369 5.72415 -0.156724 0.1301717 3.475379 -0.3944231 0.7792458 5.620182 -0.865171 0.6652802 4.381645 0.5602734 0.7199484 4.527292 -0.2718318 0.8440036 4.334002 -0.2585731 -0.3753077 4.132128 0.1329002 0.9580867 3.970115 -0.7618077 0.1686769 5.907687 -0.4630276 1.186349 5.784036 -0.246698 0.2062788 3.960821 -0.6580381 0.5927784 5.843017 -0.9000986 -0.08503079 4.971035 -0.5086252 1.248364 4.809023 -0.8882235 0.4965558 4.799728 0.2956634 0.396921 4.079054 -1.087974 0.2436568 3.939419 0.008638262 0.3133334 5.972867 -1.04738 0.196359 5.866295 -0.2505334 0.1582335 3.967576 -0.4239618 0.2421501 5.921852 0.239936 -0.02096021 5.08992 -1.143701 -0.1742244 4.950285 -0.3062608 -0.2596477 4.978443 -0.5379533 0.8843523 2.442138 0.3349234 -0.2660108 3.057999 -1.359844 1.123996 4.435006 -0.6936473 0.246017 4.905043 -0.01231545 0.5353751 2.69692 -1.063295 0.7780572 4.629081 -0.7469978 1.328836 3.568672 0.1258788 0.1784728 4.184533 -0.22136 0.9798587 3.823454 0.6092934 0.06761783 2.573186 -0.05969768 1.443713 2.075635 -1.145639 -0.1484332 4.312394 -1.81463 1.227662 3.814843 0.2510375 0.5346724 2.199233 -1.435802 0.4022571 4.078199 -0.4661195 -0.2472335 3.148356 -1.135111 1.128862 2.650805 -0.8243755 0.219821 2.774402 0.4370332 1.139741 2.43349 -0.3694747 -0.14313 1.892631 -0.6092483 0.8485712 4.663249 -1.415756 -0.4343003 4.122389 0.2820592 0.4937186 2.221438 -0.9116833 0.2991588 4.441934 0.2444189 0.7609428 3.619186 -0.5620889 -0.5219288 3.078327 0.08944499 0.1149199 3.407135 -0.3031983 0.3523428 1.937881 1.025315 0.375922 2.845207 -1.666639 0.9136152 3.932202 -0.3381252 0.9371944 4.839527 0.2973868 0.5517709 2.23089 -1.109384 0.9557979 4.292742 -0.9138931 1.019157 2.814737 0.4146203 1.042736 3.722062 -0.3133079 1.218585 3.107745 -0.1189588 -0.1073297 2.750564 0.2717645 1.395411 2.982165 -1.586817 0.2378639 4.295551 -1.288609 1.384784 4.472314 -0.05242681 0.5648754 2.668664 -1.476107 0.7180153 4.345333 -1.21355 0.09712868 3.270573 -0.8228271 1.599869 3.502175 -1.147018 0.7693338 3.188673 0.4094933 0.7533356 3.098585 -0.8748365 0.6187623 2.205882 -0.8686653 0.3806362 4.788432 -1.848891 0.2779272 4.107102 -0.05684012 0.5104798 2.666673 -1.264908 0.3137893 4.498942 -0.1535522 0.1382564 4.001359 -1.437882 0.00368309 3.108656 -0.6198857 -0.1045994 3.569447 -0.5379533 0.8843523 2.442138 0.3349234 -0.2660108 3.057999 -1.359844 1.123996 4.435006 -0.6936473 0.246017 4.905043 -0.01231545 0.5353751 2.69692 -1.063295 0.7780572 4.629081 -0.7469978 1.328836 3.568672 0.1258788 0.1784728 4.184533 -0.22136 0.9798587 3.823454 0.6092934 0.06761783 2.573186 -0.05969768 1.443713 2.075635 -1.145639 -0.1484332 4.312394 -1.81463 1.227662 3.814843 0.2510375 0.5346724 2.199233 -1.435802 0.4022571 4.078199 -0.4661195 -0.2472335 3.148356 -1.135111 1.128862 2.650805 -0.8243755 0.219821 2.774402 0.4370332 1.139741 2.43349 -0.3694747 -0.14313 1.892631 -0.6092483 0.8485712 4.663249 -1.415756 -0.4343003 4.122389 0.2820592 0.4937186 2.221438 -0.9116833 0.2991588 4.441934 0.2444189 0.7609428 3.619186 -0.5620889 -0.5219288 3.078327 0.08944499 0.1149199 3.407135 -0.3031983 0.3523428 1.937881 1.025315 0.375922 2.845207 -1.666639 0.9136152 3.932202 -0.3381252 0.9371944 4.839527 0.2973868 0.5517709 2.23089 -1.109384 0.9557979 4.292742 -0.9138931 1.019157 2.814737 0.4146203 1.042736 3.722062 -0.3133079 1.218585 3.107745 -0.1189588 -0.1073297 2.750564 0.2717645 1.395411 2.982165 -1.586817 0.2378639 4.295551 -1.288609 1.384784 4.472314 -0.05242681 0.5648754 2.668664 -1.476107 0.7180153 4.345333 -1.21355 0.09712868 3.270573 -0.8228271 1.599869 3.502175 -1.147018 0.7693338 3.188673 0.4094933 0.7533356 3.098585 -0.8748365 0.6187623 2.205882 -0.8686653 0.3806362 4.788432 -1.848891 0.2779272 4.107102 -0.05684012 0.5104798 2.666673 -1.264908 0.3137893 4.498942 -0.1535522 0.1382564 4.001359 -1.437882 0.00368309 3.108656 -0.6198857 -0.1045994 3.569447</float_array>
          <technique_common>
            <accessor source="#Tree-mesh-positions-array" count="591" stride="3">
              <param name="X" type="float"/>
              <param name="Y" type="float"/>
              <param name="Z" type="float"/>
            </accessor>
          </technique_common>
        </source>
        <source id="Tree-mesh-normals">
          <float_array id="Tree-mesh-normals-array" count="1773">0.04494261 0.9939776 -0.09994429 0.9406816 0.3381224 0.02813303 0.9617506 0.2576678 0.09296846 0.5783397 -0.8114452 0.08414161 0.5850433 -0.7920942 0.1741009 -0.5384641 -0.8411168 0.05078458 -0.9499323 0.3104195 0.03561365 -0.903514 -0.3590252 0.2340158 -0.9497235 0.311336 -0.03309619 -0.6159415 -0.7873361 0.02679556 -0.9520339 0.277178 -0.1296293 0.1507869 0.9511124 -0.2695338 -0.1273312 0.01491218 0.9917482 0.9488458 0.3154214 -0.01418602 0.9094317 -0.2921301 0.2959632 0.7539997 -0.606598 -0.2520388 6.75266e-5 0.9999776 0.006701648 0.02899199 0.9995064 0.01210945 0.9571352 0.2834101 0.05975836 -0.5295739 -0.6748474 -0.5139383 -0.8642837 0.3709266 0.3397458 0.6233397 0.7567883 0.1967715 -0.2352706 -0.9172169 0.3214979 -0.9243354 -0.3098986 0.2226369 0.9508082 0.3090149 -0.02176308 -0.5874933 -0.808929 0.0220381 0.5876618 -0.8090135 -0.0122826 -0.9582005 0.1448002 -0.2467481 0.9113533 0.08766323 0.4021822 0.1585399 0.9403458 -0.3010229 -0.3421555 0.06944304 0.9370738 -0.8961086 0.1902314 -0.4010007 0.9378822 -0.2526642 0.2377773 0.5883623 -0.8084744 -0.01410311 -0.7373034 -0.6427482 -0.2079866 -0.5882308 -0.8084368 0.02036213 -0.5164229 0.8127646 0.2696685 -0.9504852 0.3089302 0.03376412 -0.9504852 0.3089304 0.03376412 0.5876619 -0.8090133 -0.0122826 -0.2550243 0.937093 -0.238368 -0.5874933 -0.808929 0.02203798 0.9582987 0.03581988 -0.2835148 -0.2991909 0.8641799 -0.4045713 0.5617241 -0.7867438 0.25593 0.7705559 0.2250077 -0.5963347 0.2415682 0.2575713 0.9355757 -0.802784 -0.01762294 0.5960096 0.744502 -0.5500929 -0.3783049 -0.03928291 -0.3466368 0.9371766 0.6804302 0.5535486 0.4802072 0.3093069 -0.8884119 0.3391953 0.02557921 -0.7728981 0.6340144 0.07275229 -0.9661591 0.2474747 0.4843906 -0.7768161 0.402396 0.1478266 -0.7298607 0.6674211 0.4094652 -0.9120979 -0.02039486 0.6267931 -0.7778848 0.04500818 0.1624611 -0.9830752 -0.08467358 -0.07201242 0.9501216 -0.3034523 0.2161323 0.8458497 -0.4876732 0.01421457 0.8161668 -0.5776414 -0.2016401 0.7622149 -0.6151177 0.1341341 0.5762136 -0.8062172 -0.1152803 0.505875 -0.854869 0.3753149 0.6065362 -0.7008942 -0.8940564 -0.4460065 -0.0417304 -0.8285178 -0.4014495 -0.3903802 -0.7559385 -0.5869157 -0.2899776 -0.6613227 -0.7352174 -0.1486868 -0.5236279 -0.6535879 -0.5464766 -0.4060259 -0.8277604 -0.3872413 -0.6051151 -0.4328479 -0.6681905 0.7576327 -0.2561017 0.6003372 0.7660067 -0.5273737 0.367574 0.8825203 -0.3427231 0.3220232 0.9484673 -0.1294535 0.289226 0.9058588 -0.423092 -0.02032351 0.9821992 -0.1752072 -0.06773012 0.7657427 -0.6425054 0.02872592 0.5543496 0.8107349 0.188164 0.8241159 0.5650023 -0.04006892 0.6924595 0.703671 -0.1592076 0.5225311 0.8128669 -0.2573107 0.7424371 0.4602895 -0.4867452 0.5417442 0.5867636 -0.6018487 0.8920812 0.3010026 -0.3370293 -0.7988677 0.1537382 -0.5815282 -0.8745661 0.4304473 -0.2232692 -0.6715615 0.3732969 -0.6400427 -0.8729256 -0.028728 -0.487007 -0.9264536 0.3173378 -0.2024368 -0.5448723 -0.02117276 -0.8382517 -0.6235812 -0.2527517 -0.7397723 -0.4276501 0.212963 -0.8785001 -0.3093069 0.8884121 -0.3391953 -0.02557921 0.7728981 -0.6340144 -0.1478266 0.7298607 -0.6674211 -0.4843905 0.7768161 -0.402396 -0.1833634 0.7716915 -0.608991 -0.4094651 0.9120979 0.02039486 -0.626793 0.7778849 -0.04500818 -0.07275229 0.9661591 -0.2474747 -0.2161323 -0.8458498 0.4876732 0.07201242 -0.9501216 0.3034523 -0.01421463 -0.8161668 0.5776414 0.2016401 -0.7622149 0.6151177 0.09457254 -0.9331616 0.3467932 -0.1341341 -0.5762135 0.8062172 0.1152802 -0.505875 0.854869 0.8285177 0.4014495 0.3903802 0.8940564 0.4460065 0.0417304 0.7559385 0.5869157 0.2899776 0.6613227 0.7352174 0.1486868 0.869871 0.4905095 0.05219966 0.5236279 0.6535879 0.5464766 0.406026 0.8277603 0.3872413 -0.7660068 0.5273738 -0.367574 -0.7576326 0.2561018 -0.6003372 -0.8825203 0.3427231 -0.3220232 -0.9484673 0.1294535 -0.289226 -0.7902701 0.2368697 -0.5651249 -0.9058588 0.423092 0.02032351 -0.9821992 0.1752072 0.06773012 -0.8241159 -0.5650023 0.04006892 -0.5543496 -0.8107349 -0.188164 -0.6924594 -0.703671 0.1592077 -0.5225311 -0.8128669 0.2573108 -0.5535764 -0.8220535 -0.1333465 -0.7424371 -0.4602894 0.4867452 -0.5417442 -0.5867635 0.6018487 0.7988677 -0.1537382 0.5815282 0.8745661 -0.4304473 0.2232692 0.9264536 -0.3173378 0.2024368 0.8729256 0.028728 0.487007 0.9168875 -0.2928127 0.2712528 0.5448723 0.02117276 0.8382518 0.6235812 0.2527517 0.7397724 0.6715615 -0.3732969 0.6400427 0.2223466 -0.8135707 -0.5372751 0.06879121 -0.9815914 -0.1781749 -0.04114198 -0.8223661 -0.5674692 0.4262436 -0.7673704 -0.479019 0.2012608 -0.9648466 -0.1690121 0.2023639 -0.5550414 -0.8068321 0.4506825 -0.4909959 -0.7455256 -0.06127506 -0.5805239 -0.8119345 0.02181148 0.8528189 0.5217511 0.2151545 0.9475595 0.2363041 -0.006304264 0.9732311 0.2297422 -0.2294902 0.9426389 0.2424171 -0.009331107 0.9924682 -0.1221469 -0.2703619 0.9556865 -0.1164815 0.2535644 0.9599354 -0.1192867 -0.9324234 -0.3593454 -0.03817987 -0.9684131 -0.06661081 -0.2402901 -0.9055494 -0.2573828 -0.3372455 -0.8026359 -0.4510361 -0.3903101 -0.7790828 -0.08999466 -0.6204283 -0.6541969 -0.3118456 -0.6890419 -0.8500025 0.1391863 -0.5080582 0.840581 -0.5358365 -0.07939159 0.7261658 -0.5458676 -0.4179854 0.8563317 -0.3767201 -0.3532393 0.948601 -0.2028936 -0.2428796 0.7590475 -0.176685 -0.6266014 0.8631883 0.03214681 -0.5038576 0.6012804 -0.3741156 -0.7060449 0.7291064 0.4617936 0.5051245 0.8649976 0.4921401 0.09786367 0.7323776 0.6592893 0.1701784 0.5647826 0.787325 0.2472651 0.6333967 0.7418333 -0.2202091 0.4352155 0.8908197 -0.1304908 0.7881518 0.5402177 -0.2949263 -0.892885 0.4491765 0.03157234 -0.8022589 0.363793 0.4733237 -0.7499198 0.6523573 0.1097735 -0.9681505 0.249827 -0.01646655 -0.8659437 0.2673562 0.4226847 -0.7668614 0.5463486 -0.3367893 -0.8546272 0.3106822 -0.4160396 -0.6249983 0.7448571 -0.2335919 -0.2223465 0.8135708 0.5372751 -0.06879121 0.9815914 0.1781749 -0.2012608 0.9648467 0.1690121 -0.4262435 0.7673704 0.4790191 -0.2087627 0.9463508 0.2466548 -0.2023638 0.5550414 0.8068321 -0.4506825 0.4909959 0.7455256 0.04114198 0.8223661 0.5674692 -0.2151545 -0.9475595 -0.2363041 -0.02181142 -0.8528189 -0.5217511 0.006304204 -0.9732311 -0.2297422 0.2294902 -0.9426391 -0.2424171 0.01562076 -0.8709986 -0.4910373 0.009331047 -0.9924682 0.1221468 0.2703619 -0.9556865 0.1164814 0.9684131 0.06661069 0.2402901 0.9324234 0.3593453 0.03817987 0.9055494 0.2573828 0.3372455 0.8026359 0.4510362 0.3903102 0.9214933 0.3790374 0.08473926 0.7790827 0.08999466 0.6204283 0.6541969 0.3118455 0.6890419 -0.7261658 0.5458676 0.4179854 -0.840581 0.5358365 0.07939159 -0.8563317 0.3767201 0.3532393 -0.948601 0.2028936 0.2428798 -0.8640469 0.493746 0.09817314 -0.7590475 0.1766849 0.6266015 -0.8631883 -0.03214681 0.5038578 -0.8649977 -0.4921401 -0.09786367 -0.7291064 -0.4617936 -0.5051245 -0.7323776 -0.6592893 -0.1701784 -0.5647826 -0.787325 -0.2472651 -0.7139252 -0.5095863 -0.4802423 -0.6333968 -0.7418333 0.2202091 -0.4352155 -0.8908197 0.1304908 0.892885 -0.4491766 -0.03157228 0.8022589 -0.363793 -0.4733237 0.8659437 -0.2673562 -0.4226847 0.9681505 -0.2498271 0.01646655 0.8825421 -0.3024486 -0.3600617 0.7668614 -0.5463486 0.3367893 0.8546272 -0.3106821 0.4160396 0.7499198 -0.6523573 -0.1097735 0.340108 -0.9257526 -0.1652538 0.233078 -0.9408445 0.2459394 0.08127212 -0.9839053 -0.1591387 0.5348834 -0.8305485 -0.1552067 0.3607997 -0.9032617 0.2322539 0.264139 -0.8157472 -0.5145748 0.4995923 -0.6970715 -0.5142947 0.009100198 -0.8778609 -0.4788295 -0.1074817 0.9883966 0.1073307 0.05453479 0.9759304 -0.211154 -0.1680694 0.9646407 -0.2030296 -0.3817049 0.9114195 -0.1536745 -0.1886023 0.8284108 -0.5274134 -0.4386559 0.7612935 -0.4775072 0.07581621 0.8378401 -0.5406256 -0.8554828 -0.4679031 0.2218464 -0.9504939 -0.3004233 -0.07941883 -0.8590235 -0.5033712 -0.09325379 -0.7258858 -0.6841536 -0.07087856 -0.7754689 -0.4596771 -0.4328339 -0.6163873 -0.6691957 -0.4150227 -0.8809958 -0.217003 -0.4204237 0.9178102 -0.3924279 0.06020736 0.7933977 -0.5646445 -0.2273691 0.8942952 -0.3676698 -0.2550591 0.9589323 -0.1520628 -0.2394279 0.7524245 -0.3222651 -0.5744587 0.8230823 -0.0684629 -0.5637805 0.6287596 -0.5546824 -0.5449669 0.6562955 0.7332318 0.1778976 0.768218 0.6024392 -0.2165831 0.6112963 0.7638165 -0.2071266 0.427043 0.8875363 -0.1729555 0.4837016 0.6536184 -0.5820788 0.2661887 0.7971441 -0.5419455 0.6683585 0.4636652 -0.5816456 -0.9559451 0.287177 -0.06081473 -0.8339999 0.4159896 0.3624872 -0.8479004 0.522079 -0.09218734 -0.9968594 0.07835054 -0.01151698 -0.8817231 0.2992101 0.3647434 -0.8639111 0.2313363 -0.4473713 -0.9119925 -0.02512264 -0.4094368 -0.7551219 0.4727891 -0.4541601 -0.340108 0.9257526 0.1652538 -0.233078 0.9408445 -0.2459394 -0.3607997 0.9032617 -0.2322539 -0.5348834 0.8305485 0.1552067 -0.3617992 0.9194898 -0.1537531 -0.264139 0.8157472 0.5145748 -0.4995923 0.6970715 0.5142947 -0.08127212 0.9839054 0.1591387 -0.05453479 -0.9759304 0.211154 0.1074817 -0.9883966 -0.1073307 0.1680694 -0.9646407 0.2030296 0.3817049 -0.9114195 0.1536745 0.1487335 -0.9859347 -0.07623034 0.1886022 -0.8284108 0.5274134 0.4386559 -0.7612936 0.4775073 0.9504939 0.3004233 0.07941883 0.8554829 0.4679031 -0.2218464 0.8590235 0.5033712 0.09325379 0.7258858 0.6841536 0.07087856 0.8431451 0.5041081 -0.1870329 0.7754689 0.4596771 0.4328339 0.6163874 0.6691956 0.4150227 -0.7933977 0.5646445 0.2273691 -0.9178102 0.3924279 -0.06020736 -0.8942952 0.3676698 0.2550591 -0.9589323 0.1520629 0.2394279 -0.9327338 0.3598362 -0.02292394 -0.7524244 0.3222651 0.5744587 -0.8230823 0.0684629 0.5637806 -0.7682179 -0.6024392 0.2165831 -0.6562955 -0.7332318 -0.1778976 -0.6112962 -0.7638165 0.2071266 -0.427043 -0.8875364 0.1729555 -0.6319588 -0.7627866 -0.1370578 -0.4837016 -0.6536184 0.5820788 -0.2661887 -0.7971441 0.5419455 0.955945 -0.287177 0.06081473 0.8339999 -0.4159896 -0.3624872 0.8817231 -0.2992101 -0.3647434 0.9968594 -0.07835054 0.01151698 0.9067419 -0.3008684 -0.2954617 0.8639111 -0.2313364 0.4473713 0.9119925 0.02512264 0.4094368 0.8479004 -0.522079 0.09218734 0.6948223 0.6929901 -0.1923193 0.7367888 0.6368679 0.2270281 0.8585695 0.4863611 -0.1622082 0.5246055 0.8273779 -0.2005864 0.64844 0.7341104 0.2015135 0.6435447 0.548756 -0.5335888 0.4350583 0.708691 -0.555411 0.8079426 0.3496589 -0.4743074 -0.8490756 -0.5160414 0.113013 -0.8939234 -0.3910917 -0.2189712 -0.7881202 -0.5853431 -0.1903685 -0.6501768 -0.7500254 -0.1213761 -0.642463 -0.5710954 -0.5109712 -0.4763175 -0.7623994 -0.4380284 -0.7643988 -0.3389196 -0.5484779 0.7809537 -0.5470854 0.3013456 0.6840102 -0.7294111 0.009461164 0.8280729 -0.5604931 -0.0119574 0.9326275 -0.3608387 -0.00123471 0.7673541 -0.5320179 -0.3579452 0.8868179 -0.2969962 -0.3540443 0.5936112 -0.7308824 -0.3368036 -0.04466599 0.9987381 -0.02295958 0.1766215 0.9383303 -0.2972224 -0.04320538 0.9412913 -0.3348194 -0.2660633 0.9071517 -0.3260157 -0.009141743 0.7683292 -0.6399897 -0.2688037 0.7226407 -0.6368164 0.2523649 0.7604373 -0.5983704 -0.9514815 0.2858042 0.1140131 -0.8648039 0.4108894 -0.28859 -0.9429917 0.2008817 -0.2653551 -0.9765257 -0.01533275 -0.2148545 -0.7724465 0.1036456 -0.6265652 -0.8097473 -0.1505196 -0.5671448 -0.6808919 0.3517334 -0.6423938 0.1559905 -0.9874094 0.02626043 -0.03098642 -0.8993821 0.4360639 -0.1009401 -0.9947671 -0.0158047 0.3597011 -0.9296401 0.07990252 0.09473884 -0.8914315 0.4431415 0.1833512 -0.9120096 -0.366907 0.4335711 -0.8409568 -0.3237403 -0.08086675 -0.9195402 -0.384586 -0.6948224 -0.69299 0.1923193 -0.7367888 -0.6368679 -0.2270281 -0.6484399 -0.7341104 -0.2015135 -0.5246057 -0.8273779 0.2005864 -0.6660291 -0.7356619 -0.1233155 -0.6435449 -0.548756 0.5335888 -0.4350586 -0.7086909 0.5554109 -0.8585695 -0.4863611 0.1622082 0.8939234 0.3910917 0.2189712 0.8490756 0.5160415 -0.113013 0.7881202 0.5853431 0.1903685 0.6501768 0.7500254 0.1213761 0.8277252 0.5545281 -0.08584737 0.642463 0.5710954 0.5109712 0.4763176 0.7623994 0.4380285 -0.6840102 0.7294112 -0.009461164 -0.7809536 0.5470854 -0.3013456 -0.8280729 0.5604931 0.0119574 -0.9326275 0.3608386 0.00123471 -0.809769 0.5231512 -0.2656825 -0.7673541 0.5320178 0.3579452 -0.8868179 0.2969961 0.3540443 -0.1766215 -0.9383303 0.2972224 0.04466599 -0.9987381 0.02295958 0.04320538 -0.9412913 0.3348194 0.2660633 -0.9071517 0.3260157 0.07886117 -0.9949818 0.06158059 0.009141802 -0.7683293 0.6399897 0.2688038 -0.7226407 0.6368163 0.8648039 -0.4108895 0.28859 0.9514815 -0.2858042 -0.1140131 0.9429917 -0.2008817 0.2653551 0.9765257 0.01533275 0.2148545 0.9658579 -0.2478357 -0.07547247 0.7724466 -0.1036456 0.6265652 0.8097474 0.1505195 0.5671446 -0.1559905 0.9874094 -0.02626043 0.03098642 0.8993821 -0.4360639 -0.0947389 0.8914315 -0.4431415 -0.3597012 0.9296401 -0.07990252 -0.1070281 0.9202346 -0.3764484 -0.1833513 0.9120096 0.3669071 -0.4335713 0.8409567 0.3237404 0.1009401 0.9947671 0.0158047 0.6646086 0.7056744 0.2455996 0.5073706 0.5938294 0.6244531 0.8059462 0.4953029 0.3242311 0.5112413 0.8416057 0.1741622 0.4362501 0.6944522 0.572208 0.7878549 0.6086526 -0.09395128 0.6057628 0.7720767 -0.1922215 0.9156323 0.4018567 0.01135265 -0.7728223 -0.5182612 -0.3662664 -0.6629758 -0.3498054 -0.6618908 -0.5726389 -0.5471492 -0.6105018 -0.4746083 -0.7208753 -0.5050603 -0.294314 -0.4917614 -0.8194817 -0.1718491 -0.6926692 -0.7004836 -0.3967415 -0.2554916 -0.8816577 0.5759434 -0.5898516 0.5660075 0.6378171 -0.7307569 0.2432773 0.7655559 -0.5618913 0.313373 0.8417 -0.3664605 0.3965448 0.8732777 -0.4870294 -0.01373064 0.9638315 -0.255784 0.07485646 0.7211632 -0.6852498 -0.1017675 -0.08306157 0.9932914 0.0804544 0.244152 0.9677922 -0.06138432 0.06806188 0.977856 -0.1979019 -0.1304997 0.9450042 -0.299895 0.25106 0.8467332 -0.4690544 0.02336126 0.8035408 -0.5947912 0.4622376 0.8308443 -0.3098942 -0.9072613 0.2772676 -0.3162271 -0.6483605 0.4539867 -0.6111667 -0.7166904 0.2435207 -0.6534926 -0.7581782 0.02284228 -0.6516472 -0.3912574 0.1935865 -0.8996899 -0.4381875 -0.06585353 -0.8964682 -0.3167166 0.4406772 -0.839937 0.1789405 -0.9835795 -0.02348697 -0.1833205 -0.9490813 0.2561998 -0.02716404 -0.9827885 -0.1827263 0.3299732 -0.9354364 0.1267933 -0.07635039 -0.9433592 0.3228687 0.3838716 -0.8567842 -0.3443307 0.5800706 -0.7945313 -0.1795502 0.1598863 -0.8593403 -0.4857682 -0.6646086 -0.7056744 -0.2455996 -0.5073706 -0.5938294 -0.6244531 -0.4362501 -0.6944522 -0.572208 -0.5112413 -0.8416057 -0.1741622 -0.4884425 -0.7062287 -0.5125084 -0.7878548 -0.6086526 0.09395128 -0.6057628 -0.7720768 0.1922215 -0.8059462 -0.4953029 -0.3242312 0.6629758 0.3498054 0.6618908 0.7728223 0.5182611 0.3662664 0.5726389 0.5471493 0.6105018 0.4746083 0.7208752 0.5050603 0.739138 0.5529937 0.3845429 0.294314 0.4917613 0.8194817 0.1718492 0.6926692 0.7004836 -0.6378171 0.7307568 -0.2432773 -0.5759433 0.5898516 -0.5660075 -0.7655558 0.5618912 -0.313373 -0.8417001 0.3664605 -0.3965448 -0.6167921 0.561663 -0.5514547 -0.8732777 0.4870294 0.01373064 -0.9638315 0.255784 -0.07485646 -0.244152 -0.9677922 0.06138432 0.08306157 -0.9932914 -0.0804544 -0.06806182 -0.977856 0.1979019 0.1304998 -0.9450042 0.299895 0.09480655 -0.9950402 -0.03011554 -0.2510599 -0.8467332 0.4690543 -0.0233612 -0.8035408 0.5947912 0.6483605 -0.4539868 0.6111667 0.9072613 -0.2772676 0.3162271 0.7166904 -0.2435207 0.6534926 0.7581782 -0.02284228 0.6516472 0.8997212 -0.2449076 0.3612785 0.3912573 -0.1935866 0.8996899 0.4381873 0.06585353 0.8964682 -0.1789405 0.9835795 0.02348697 0.1833205 0.9490813 -0.2561998 0.07635039 0.9433592 -0.3228687 -0.3299732 0.9354364 -0.1267933 0.03258126 0.9631458 -0.2669993 -0.3838716 0.8567842 0.3443306 -0.5800706 0.7945312 0.1795502 0.02716404 0.9827885 0.1827263 0.1833634 -0.7716915 0.608991 -0.02048534 0.9468072 -0.3211491 -0.09457254 0.9331616 -0.3467932 -0.8986052 -0.4287229 -0.09330362 -0.869871 -0.4905095 -0.05219966 0.7548571 -0.3066025 0.5798152 0.7902701 -0.2368697 0.5651249 0.6015273 0.7806415 0.1695987 0.5535764 0.8220535 0.1333465 -0.9168875 0.2928127 -0.2712528 -0.1624611 0.9830752 0.08467358 0.02048528 -0.9468071 0.321149 -0.3753149 -0.6065362 0.7008942 0.8986051 0.428723 0.09330362 0.6051151 0.4328479 0.6681905 -0.7548571 0.3066026 -0.5798152 -0.7657427 0.6425054 -0.02872592 -0.6015273 -0.7806415 -0.1695987 -0.8920812 -0.3010026 0.3370293 0.4276501 -0.212963 0.8785001 0.2087627 -0.9463508 -0.2466548 0.06392818 0.8688396 0.4909493 -0.01562076 0.8709986 0.4910373 -0.9490091 -0.3103211 -0.05552196 -0.9214933 -0.3790374 -0.08473926 0.8221473 -0.5549057 -0.1270967 0.8640469 -0.493746 -0.09817314 0.7617968 0.4600516 0.4560902 0.7139252 0.5095863 0.4802423 -0.8825421 0.3024486 0.3600617 0.06127506 0.5805239 0.8119345 -0.06392794 -0.8688396 -0.4909493 -0.2535644 -0.9599354 0.1192867 0.9490091 0.310321 0.05552196 0.8500025 -0.1391863 0.5080582 -0.8221473 0.5549057 0.1270967 -0.6012804 0.3741156 0.7060449 -0.7617967 -0.4600515 -0.4560901 -0.7881518 -0.5402177 0.2949263 0.6249983 -0.7448571 0.2335919 0.3617992 -0.9194898 0.1537531 -0.07011342 0.9952095 0.06813365 -0.1487335 0.9859347 0.07623034 -0.8811148 -0.434174 0.1874293 -0.8431451 -0.5041081 0.1870329 0.9011105 -0.4327232 0.02739614 0.9327338 -0.3598362 0.02292394 0.6867808 0.7149907 0.130845 0.6319588 0.7627866 0.1370578 -0.9067419 0.3008684 0.2954617 -0.009100198 0.8778609 0.4788295 0.07011342 -0.9952095 -0.06813371 -0.07581621 -0.8378401 0.5406256 0.8811149 0.434174 -0.1874293 0.8809958 0.217003 0.4204237 -0.9011106 0.4327232 -0.02739614 -0.6287596 0.5546824 0.5449669 -0.6867808 -0.7149907 -0.130845 -0.6683585 -0.4636652 0.5816456 0.7551219 -0.4727891 0.4541601 0.6660291 0.7356619 0.1233155 -0.8696324 -0.4886376 0.07052016 -0.8277252 -0.5545281 0.08584737 0.7630959 -0.5875035 0.2693036 0.809769 -0.5231512 0.2656825 2.69215e-4 0.998544 -0.05394321 -0.07886117 0.9949818 -0.06158059 -0.9461515 0.3172485 0.064426 -0.9658579 0.2478357 0.07547247 0.1070281 -0.9202346 0.3764484 -0.8079426 -0.3496589 0.4743074 0.8696323 0.4886376 -0.07052016 0.7643988 0.3389196 0.5484779 -0.7630958 0.5875036 -0.2693037 -0.5936112 0.7308824 0.3368036 -2.69222e-4 -0.998544 0.05394321 -0.2523649 -0.7604373 0.5983704 0.9461516 -0.3172485 -0.064426 0.6808919 -0.3517334 0.6423938 0.08086675 0.9195402 0.384586 0.4884425 0.7062287 0.5125084 -0.7724351 -0.4852473 -0.4097308 -0.739138 -0.5529937 -0.3845429 0.5774943 -0.6254704 0.5246782 0.6167921 -0.561663 0.5514547 -0.02889913 0.996789 0.07467734 -0.09480655 0.9950402 0.03011554 -0.8809573 0.3149797 -0.353132 -0.8997212 0.2449076 -0.3612785 -0.03258126 -0.9631458 0.2669993 -0.9156323 -0.4018567 -0.01135265 0.7724351 0.4852473 0.4097307 0.3967415 0.2554916 0.8816577 -0.5774942 0.6254705 -0.5246783 -0.7211632 0.6852498 0.1017675 0.02889913 -0.996789 -0.07467734 -0.4622376 -0.8308443 0.3098942 0.8809574 -0.3149794 0.353132 0.3167166 -0.4406772 0.839937 -0.1598863 0.8593403 0.4857682</float_array>
          <technique_common>
            <accessor source="#Tree-mesh-normals-array" count="591" stride="3">
              <param name="X" type="float"/>
              <param name="Y" type="float"/>
              <param name="Z" type="float"/>
            </accessor>
          </technique_common>
        </source>
        <source id="Tree-mesh-map-0">
          <float_array id="Tree-mesh-map-0-array" count="3450">0.6004571 -2.907233 0.6974733 -1.542104 0.7094284 -2.923303 0.5642441 -2.90546 0.6116796 -1.537929 0.4350254 -2.90546 0.6622268 -1.536906 0.5331091 -2.897301 0.6678047 -2.917165 0.7143919 0.8858065 0.6265296 0.9964153 0.7140824 0.9977105 0.6116796 -1.537929 0.5642441 -2.90546 0.4350254 -2.90546 0.5713701 -2.90546 0.5239132 -1.537929 0.6812897 -2.90546 0.7140824 0.9977105 0.6265296 0.9964153 0.7372242 3.90546 0.7143919 0.8858065 0.626633 0.9984179 0.6146881 0.8871164 0.5947002 0.8858065 0.5186264 0.9977105 0.5979688 0.9977105 0.6746492 0.8858065 0.5979688 0.9977105 0.6773113 0.9977105 0.1326532 0.5373943 -0.01117801 1.12343 0.06444913 1.092413 1.044235 0.6007477 0.9700704 1.039463 0.9341616 0.6089416 0.626633 0.9984179 0.7140824 0.9977105 0.7372242 3.90546 0.5979688 0.9977105 0.5186264 0.9977105 0.2262558 3.90546 0.5477998 0.9964153 0.6458517 0.9984179 0.2262558 3.90546 0.6773113 0.9977105 0.5979688 0.9977105 0.2262558 3.90546 0.6169918 -1.537929 0.5273987 -1.418583 0.6198307 -1.418583 0.5814385 -1.537929 0.4702721 -1.418583 0.4663869 -1.537929 0.7211008 -1.537929 0.6121094 -1.418583 0.6116796 -1.537929 0.6116796 -1.537929 0.7207702 -1.418583 0.7211008 -1.537929 0.755732 -1.079181 0.8219356 -1.058608 0.8612319 -0.07848 1.041879 0.6037212 0.9675205 1.121623 1.047771 1.112015 0.63935 -1.67527 0.7800813 -1.081999 0.7039578 -1.770414 0.6930125 -1.630242 0.8219356 -1.058608 0.755732 -1.079181 0.6498132 -0.1582158 0.5947002 0.8858065 0.6746492 0.8858065 -0.1120574 -0.8278478 -0.1710838 -0.7861894 -0.0554431 0.3721567 -0.1185288 -0.7830958 -0.05950212 -0.8247545 -0.0554431 0.3721567 0.7800813 -1.081999 0.7138777 -1.102572 0.8612319 -0.07848 0.6171152 -0.1582158 0.5464428 0.8850985 0.511302 -0.1582158 0.5642085 -0.1582158 0.5147519 0.8858065 0.5947002 0.8858065 0.6166476 -0.1582158 0.7143919 0.8858065 0.6146881 0.8871164 0.6166476 -0.1582158 0.7143919 0.8858065 0.7172818 -0.1582158 0.6121094 -1.418583 0.7175813 -0.266388 0.7207702 -1.418583 0.7207702 -1.418583 0.6162586 -0.266388 0.6121094 -1.418583 0.5273987 -1.418583 0.4748589 -0.266388 0.5610493 -0.266388 0.5845248 -1.418583 0.507781 -0.266388 0.4702721 -1.418583 0.6198307 -1.418583 0.5610493 -0.266388 0.6472398 -0.266388 0.6162586 -0.266388 0.7172818 -0.1582158 0.7175813 -0.266388 0.7175813 -0.266388 0.6166476 -0.1582158 0.6162586 -0.266388 0.5610493 -0.266388 0.4786043 -0.1582158 0.5642085 -0.1582158 0.614318 -0.266388 0.511302 -0.1582158 0.507781 -0.266388 1.164474 -0.1050266 1.209 0.2791619 1.254201 -0.1461266 1.002215 -0.01101976 1.070214 -0.06869286 1.376438 1.12551 0.5252966 0.5236151 0.449685 0.9619932 0.5362592 0.9816761 1.140414 -0.1689869 1.202917 0.2285903 1.128923 0.180972 0.5274861 0.5251526 0.4674468 0.8906974 0.425717 0.5150786 0.1341595 0.538491 7.44553e-4 1.125112 0.04676997 0.4831041 1.114384 -0.05538594 1.046085 0.00219655 1.376438 1.12551 0.8051122 0.00219655 0.8835551 -0.01101976 1.155783 1.12551 0.9096229 -0.06869286 0.8306431 -0.05538594 1.155783 1.12551 0.06444913 1.092413 -0.01117801 1.12343 -0.007565736 2.614952 0.5908016 0.3832899 0.5023505 -0.05375313 0.5750749 -0.05155122 0.5897156 0.3713873 0.5101705 -0.1215028 0.4910092 0.3762055 7.44553e-4 1.125112 0.07628184 1.094083 -0.007565736 2.614952 0.6185414 1.032389 0.5455852 1.024407 0.5836564 2.440881 0.5541207 0.9745005 0.6276342 0.9825422 0.5836564 2.440881 0.4127262 0.5 1 0.98461 1 0.5 0 0.5 0.4127262 0.98461 0.4127262 0.5 0 0.5 0.4127262 0.01538997 0 0.01538997 0.4127262 0.01538997 1 0.5 1 0.01538997 0.4127262 0.98461 1 0.5 0.4127262 0.5 0 0.5 0.4127262 0.98461 0.4127262 0.5 0 0.5 0.4127262 0.01538997 0 0.01538997 0.4127262 0.01538997 1 0.5 1 0.01538997 0.4127262 0.98461 1 0.5 0.4127262 0.5 0 0.5 0.4127262 0.98461 0.4127262 0.5 0 0.5 0.4127262 0.01538997 0 0.01538997 0.4127262 0.01538997 1 0.5 1 0.01538997 0.4127262 0.98461 1 0.5 0.4127262 0.5 0 0.5 0.4127262 0.98461 0.4127262 0.5 0 0.5 0.4127262 0.01538997 0 0.01538997 0.4127262 0.01538997 1 0.5 1 0.01538997 0.4127262 0.98461 1 0.5 0.4127262 0.5 0 0.5 0.4127262 0.98461 0.4127262 0.5 0 0.5 0.4127262 0.01538997 0 0.01538997 0.4127262 0.01538997 1 0.5 1 0.01538997 0.4127262 0.5 1 0.98461 1 0.5 0 0.5 0.4127262 0.98461 0.4127262 0.5 0 0.5 0.4127262 0.01538997 0 0.01538997 0.4127262 0.01538997 1 0.5 1 0.01538997 0.4127262 0.5 1 0.98461 0.4127262 0.98461 0 0.5 0.4127262 0.98461 0 0.98461 0.4127262 0.01538997 0 0.5 0 0.01538997 0.4127262 0.01538997 1 0.5 0.4127262 0.5 1 0.5 0.4127262 0.98461 0.4127262 0.5 0 0.5 0.4127262 0.98461 0 0.98461 0.4127262 0.01538997 0 0.5 0 0.01538997 0.4127262 0.01538997 1 0.5 0.4127262 0.5 1 0.5 0.4127262 0.98461 0.4127262 0.5 0 0.5 0.4127262 0.98461 0 0.98461 0.4127262 0.01538997 0 0.5 0 0.01538997 0.4127262 0.01538997 1 0.5 0.4127262 0.5 1 0.5 0.4127262 0.98461 0.4127262 0.5 0 0.5 0.4127262 0.98461 0 0.98461 0.4127262 0.01538997 0 0.5 0 0.01538997 0.4127262 0.01538997 1 0.5 0.4127262 0.5 1 0.5 0.4127262 0.98461 0.4127262 0.5 0 0.5 0.4127262 0.98461 0 0.98461 0.4127262 0.01538997 0 0.5 0 0.01538997 0.4127262 0.01538997 1 0.5 0.4127262 0.5 0.4127262 0.5 1 0.98461 0.4127262 0.98461 0 0.5 0.4127262 0.98461 0 0.98461 0.4127262 0.01538997 0 0.5 0 0.01538997 0.4127262 0.01538997 1 0.5 0.4127262 0.5 0.4127262 0.5 1 0.98461 1 0.5 0 0.5 0.4127262 0.98461 0.4127262 0.5 0 0.5 0.4127262 0.01538997 0 0.01538997 0.4127262 0.01538997 1 0.5 1 0.01538997 0.4127262 0.98461 1 0.5 0.4127262 0.5 0 0.5 0.4127262 0.98461 0.4127262 0.5 0 0.5 0.4127262 0.01538997 0 0.01538997 0.4127262 0.01538997 1 0.5 1 0.01538997 0.4127262 0.98461 1 0.5 0.4127262 0.5 0 0.5 0.4127262 0.98461 0.4127262 0.5 0 0.5 0.4127262 0.01538997 0 0.01538997 0.4127262 0.01538997 1 0.5 1 0.01538997 0.4127262 0.98461 1 0.5 0.4127262 0.5 0 0.5 0.4127262 0.98461 0.4127262 0.5 0 0.5 0.4127262 0.01538997 0 0.01538997 0.4127262 0.01538997 1 0.5 1 0.01538997 0.4127262 0.98461 1 0.5 0.4127262 0.5 0 0.5 0.4127262 0.98461 0.4127262 0.5 0 0.5 0.4127262 0.01538997 0 0.01538997 0.4127262 0.01538997 1 0.5 1 0.01538997 0.4127262 0.5 1 0.98461 1 0.5 0 0.5 0.4127262 0.98461 0.4127262 0.5 0 0.5 0.4127262 0.01538997 0 0.01538997 0.4127262 0.01538997 1 0.5 1 0.01538997 0.4127262 0.5 1 0.98461 0.4127262 0.98461 0 0.5 0.4127262 0.98461 0 0.98461 0.4127262 0.01538997 0 0.5 0 0.01538997 0.4127262 0.01538997 1 0.5 0.4127262 0.5 1 0.5 0.4127262 0.98461 0.4127262 0.5 0 0.5 0.4127262 0.98461 0 0.98461 0.4127262 0.01538997 0 0.5 0 0.01538997 0.4127262 0.01538997 1 0.5 0.4127262 0.5 1 0.5 0.4127262 0.98461 0.4127262 0.5 0 0.5 0.4127262 0.98461 0 0.98461 0.4127262 0.01538997 0 0.5 0 0.01538997 0.4127262 0.01538997 1 0.5 0.4127262 0.5 1 0.5 0.4127262 0.98461 0.4127262 0.5 0 0.5 0.4127262 0.98461 0 0.98461 0.4127262 0.01538997 0 0.5 0 0.01538997 0.4127262 0.01538997 1 0.5 0.4127262 0.5 1 0.5 0.4127262 0.98461 0.4127262 0.5 0 0.5 0.4127262 0.98461 0 0.98461 0.4127262 0.01538997 0 0.5 0 0.01538997 0.4127262 0.01538997 1 0.5 0.4127262 0.5 0.4127262 0.5 1 0.98461 0.4127262 0.98461 0 0.5 0.4127262 0.98461 0 0.98461 0.4127262 0.01538997 0 0.5 0 0.01538997 0.4127262 0.01538997 1 0.5 0.4127262 0.5 0.4127262 0.5 1 0.98461 1 0.5 0 0.5 0.4127262 0.98461 0.4127262 0.5 0 0.5 0.4127262 0.01538997 0 0.01538997 0.4127262 0.01538997 1 0.5 1 0.01538997 0.4127262 0.98461 1 0.5 0.4127262 0.5 0 0.5 0.4127262 0.98461 0.4127262 0.5 0 0.5 0.4127262 0.01538997 0 0.01538997 0.4127262 0.01538997 1 0.5 1 0.01538997 0.4127262 0.98461 1 0.5 0.4127262 0.5 0 0.5 0.4127262 0.98461 0.4127262 0.5 0 0.5 0.4127262 0.01538997 0 0.01538997 0.4127262 0.01538997 1 0.5 1 0.01538997 0.4127262 0.98461 1 0.5 0.4127262 0.5 0 0.5 0.4127262 0.98461 0.4127262 0.5 0 0.5 0.4127262 0.01538997 0 0.01538997 0.4127262 0.01538997 1 0.5 1 0.01538997 0.4127262 0.98461 1 0.5 0.4127262 0.5 0 0.5 0.4127262 0.98461 0.4127262 0.5 0 0.5 0.4127262 0.01538997 0 0.01538997 0.4127262 0.01538997 1 0.5 1 0.01538997 0.4127262 0.5 1 0.98461 1 0.5 0 0.5 0.4127262 0.98461 0.4127262 0.5 0 0.5 0.4127262 0.01538997 0 0.01538997 0.4127262 0.01538997 1 0.5 1 0.01538997 0.4127262 0.5 1 0.98461 0.4127262 0.98461 0 0.5 0.4127262 0.98461 0 0.98461 0.4127262 0.01538997 0 0.5 0 0.01538997 0.4127262 0.01538997 1 0.5 0.4127262 0.5 1 0.5 0.4127262 0.98461 0.4127262 0.5 0 0.5 0.4127262 0.98461 0 0.98461 0.4127262 0.01538997 0 0.5 0 0.01538997 0.4127262 0.01538997 1 0.5 0.4127262 0.5 1 0.5 0.4127262 0.98461 0.4127262 0.5 0 0.5 0.4127262 0.98461 0 0.98461 0.4127262 0.01538997 0 0.5 0 0.01538997 0.4127262 0.01538997 1 0.5 0.4127262 0.5 1 0.5 0.4127262 0.98461 0.4127262 0.5 0 0.5 0.4127262 0.98461 0 0.98461 0.4127262 0.01538997 0 0.5 0 0.01538997 0.4127262 0.01538997 1 0.5 0.4127262 0.5 1 0.5 0.4127262 0.98461 0.4127262 0.5 0 0.5 0.4127262 0.98461 0 0.98461 0.4127262 0.01538997 0 0.5 0 0.01538997 0.4127262 0.01538997 1 0.5 0.4127262 0.5 0.4127262 0.5 1 0.98461 0.4127262 0.98461 0 0.5 0.4127262 0.98461 0 0.98461 0.4127262 0.01538997 0 0.5 0 0.01538997 0.4127262 0.01538997 1 0.5 0.4127262 0.5 0.4127262 0.5 1 0.98461 1 0.5 0 0.5 0.4127262 0.98461 0.4127262 0.5 0 0.5 0.4127262 0.01538997 0 0.01538997 0.4127262 0.01538997 1 0.5 1 0.01538997 0.4127262 0.98461 1 0.5 0.4127262 0.5 0 0.5 0.4127262 0.98461 0.4127262 0.5 0 0.5 0.4127262 0.01538997 0 0.01538997 0.4127262 0.01538997 1 0.5 1 0.01538997 0.4127262 0.98461 1 0.5 0.4127262 0.5 0 0.5 0.4127262 0.98461 0.4127262 0.5 0 0.5 0.4127262 0.01538997 0 0.01538997 0.4127262 0.01538997 1 0.5 1 0.01538997 0.4127262 0.98461 1 0.5 0.4127262 0.5 0 0.5 0.4127262 0.98461 0.4127262 0.5 0 0.5 0.4127262 0.01538997 0 0.01538997 0.4127262 0.01538997 1 0.5 1 0.01538997 0.4127262 0.98461 1 0.5 0.4127262 0.5 0 0.5 0.4127262 0.98461 0.4127262 0.5 0 0.5 0.4127262 0.01538997 0 0.01538997 0.4127262 0.01538997 1 0.5 1 0.01538997 0.4127262 0.5 1 0.98461 1 0.5 0 0.5 0.4127262 0.98461 0.4127262 0.5 0 0.5 0.4127262 0.01538997 0 0.01538997 0.4127262 0.01538997 1 0.5 1 0.01538997 0.4127262 0.5 1 0.98461 0.4127262 0.98461 0 0.5 0.4127262 0.98461 0 0.98461 0.4127262 0.01538997 0 0.5 0 0.01538997 0.4127262 0.01538997 1 0.5 0.4127262 0.5 1 0.5 0.4127262 0.98461 0.4127262 0.5 0 0.5 0.4127262 0.98461 0 0.98461 0.4127262 0.01538997 0 0.5 0 0.01538997 0.4127262 0.01538997 1 0.5 0.4127262 0.5 1 0.5 0.4127262 0.98461 0.4127262 0.5 0 0.5 0.4127262 0.98461 0 0.98461 0.4127262 0.01538997 0 0.5 0 0.01538997 0.4127262 0.01538997 1 0.5 0.4127262 0.5 1 0.5 0.4127262 0.98461 0.4127262 0.5 0 0.5 0.4127262 0.98461 0 0.98461 0.4127262 0.01538997 0 0.5 0 0.01538997 0.4127262 0.01538997 1 0.5 0.4127262 0.5 1 0.5 0.4127262 0.98461 0.4127262 0.5 0 0.5 0.4127262 0.98461 0 0.98461 0.4127262 0.01538997 0 0.5 0 0.01538997 0.4127262 0.01538997 1 0.5 0.4127262 0.5 0.4127262 0.5 1 0.98461 0.4127262 0.98461 0 0.5 0.4127262 0.98461 0 0.98461 0.4127262 0.01538997 0 0.5 0 0.01538997 0.4127262 0.01538997 1 0.5 0.4127262 0.5 0.4127262 0.5 1 0.98461 1 0.5 0 0.5 0.4127262 0.98461 0.4127262 0.5 0 0.5 0.4127262 0.01538997 0 0.01538997 0.4127262 0.01538997 1 0.5 1 0.01538997 0.4127262 0.98461 1 0.5 0.4127262 0.5 0 0.5 0.4127262 0.98461 0.4127262 0.5 0 0.5 0.4127262 0.01538997 0 0.01538997 0.4127262 0.01538997 1 0.5 1 0.01538997 0.4127262 0.98461 1 0.5 0.4127262 0.5 0 0.5 0.4127262 0.98461 0.4127262 0.5 0 0.5 0.4127262 0.01538997 0 0.01538997 0.4127262 0.01538997 1 0.5 1 0.01538997 0.4127262 0.98461 1 0.5 0.4127262 0.5 0 0.5 0.4127262 0.98461 0.4127262 0.5 0 0.5 0.4127262 0.01538997 0 0.01538997 0.4127262 0.01538997 1 0.5 1 0.01538997 0.4127262 0.98461 1 0.5 0.4127262 0.5 0 0.5 0.4127262 0.98461 0.4127262 0.5 0 0.5 0.4127262 0.01538997 0 0.01538997 0.4127262 0.01538997 1 0.5 1 0.01538997 0.4127262 0.5 1 0.98461 1 0.5 0 0.5 0.4127262 0.98461 0.4127262 0.5 0 0.5 0.4127262 0.01538997 0 0.01538997 0.4127262 0.01538997 1 0.5 1 0.01538997 0.4127262 0.5 1 0.98461 0.4127262 0.98461 0 0.5 0.4127262 0.98461 0 0.98461 0.4127262 0.01538997 0 0.5 0 0.01538997 0.4127262 0.01538997 1 0.5 0.4127262 0.5 1 0.5 0.4127262 0.98461 0.4127262 0.5 0 0.5 0.4127262 0.98461 0 0.98461 0.4127262 0.01538997 0 0.5 0 0.01538997 0.4127262 0.01538997 1 0.5 0.4127262 0.5 1 0.5 0.4127262 0.98461 0.4127262 0.5 0 0.5 0.4127262 0.98461 0 0.98461 0.4127262 0.01538997 0 0.5 0 0.01538997 0.4127262 0.01538997 1 0.5 0.4127262 0.5 1 0.5 0.4127262 0.98461 0.4127262 0.5 0 0.5 0.4127262 0.98461 0 0.98461 0.4127262 0.01538997 0 0.5 0 0.01538997 0.4127262 0.01538997 1 0.5 0.4127262 0.5 1 0.5 0.4127262 0.98461 0.4127262 0.5 0 0.5 0.4127262 0.98461 0 0.98461 0.4127262 0.01538997 0 0.5 0 0.01538997 0.4127262 0.01538997 1 0.5 0.4127262 0.5 0.4127262 0.5 1 0.98461 0.4127262 0.98461 0 0.5 0.4127262 0.98461 0 0.98461 0.4127262 0.01538997 0 0.5 0 0.01538997 0.4127262 0.01538997 1 0.5 0.4127262 0.5 0.6004571 -2.907233 0.6051979 -1.528496 0.6974733 -1.542104 0.5642441 -2.90546 0.7211008 -1.537929 0.6116796 -1.537929 0.6622268 -1.536906 0.5481681 -1.520086 0.5331091 -2.897301 0.7143919 0.8858065 0.6145835 0.8850985 0.6265296 0.9964153 0.6116796 -1.537929 0.7211008 -1.537929 0.5642441 -2.90546 0.5713701 -2.90546 0.4308336 -1.537929 0.5239132 -1.537929 0.7143919 0.8858065 0.7140824 0.9977105 0.626633 0.9984179 0.5947002 0.8858065 0.5147519 0.8858065 0.5186264 0.9977105 0.6746492 0.8858065 0.5947002 0.8858065 0.5979688 0.9977105 0.1326532 0.5373943 0.04525202 0.4819994 -0.01117801 1.12343 1.044235 0.6007477 1.050322 1.029855 0.9700704 1.039463 0.6169918 -1.537929 0.5239132 -1.537929 0.5273987 -1.418583 0.5814385 -1.537929 0.5845248 -1.418583 0.4702721 -1.418583 0.7211008 -1.537929 0.7207702 -1.418583 0.6121094 -1.418583 0.6116796 -1.537929 0.6121094 -1.418583 0.7207702 -1.418583 1.041879 0.6037212 0.9310353 0.6119727 0.9675205 1.121623 0.63935 -1.67527 0.7138777 -1.102572 0.7800813 -1.081999 0.6930125 -1.630242 0.7579949 -1.725071 0.8219356 -1.058608 0.6498132 -0.1582158 0.5642085 -0.1582158 0.5947002 0.8858065 0.6171152 -0.1582158 0.6452437 0.8871164 0.5464428 0.8850985 0.5642085 -0.1582158 0.4786043 -0.1582158 0.5147519 0.8858065 0.6166476 -0.1582158 0.7172818 -0.1582158 0.7143919 0.8858065 0.6166476 -0.1582158 0.6145835 0.8850985 0.7143919 0.8858065 0.6121094 -1.418583 0.6162586 -0.266388 0.7175813 -0.266388 0.7207702 -1.418583 0.7175813 -0.266388 0.6162586 -0.266388 0.5273987 -1.418583 0.4349658 -1.418583 0.4748589 -0.266388 0.5845248 -1.418583 0.614318 -0.266388 0.507781 -0.266388 0.6198307 -1.418583 0.5273987 -1.418583 0.5610493 -0.266388 0.6162586 -0.266388 0.6166476 -0.1582158 0.7172818 -0.1582158 0.7175813 -0.266388 0.7172818 -0.1582158 0.6166476 -0.1582158 0.5610493 -0.266388 0.4748589 -0.266388 0.4786043 -0.1582158 0.614318 -0.266388 0.6171152 -0.1582158 0.511302 -0.1582158 1.164474 -0.1050266 1.134965 0.2311996 1.209 0.2791619 0.5252966 0.5236151 0.4228312 0.513472 0.449685 0.9619932 1.140414 -0.1689869 1.229977 -0.2105243 1.202917 0.2285903 0.5274861 0.5251526 0.5534324 0.9102465 0.4674468 0.8906974 0.1341595 0.538491 0.07628184 1.094083 7.44553e-4 1.125112 0.5908016 0.3832899 0.4928435 0.3880718 0.5023505 -0.05375313 0.5897156 0.3713873 0.5834504 -0.119284 0.5101705 -0.1215028 0.4127262 0.5 0.4127262 0.98461 1 0.98461 0 0.5 0 0.98461 0.4127262 0.98461 0 0.5 0.4127262 0.5 0.4127262 0.01538997 0.4127262 0.01538997 0.4127262 0.5 1 0.5 0.4127262 0.98461 1 0.98461 1 0.5 0 0.5 0 0.98461 0.4127262 0.98461 0 0.5 0.4127262 0.5 0.4127262 0.01538997 0.4127262 0.01538997 0.4127262 0.5 1 0.5 0.4127262 0.98461 1 0.98461 1 0.5 0 0.5 0 0.98461 0.4127262 0.98461 0 0.5 0.4127262 0.5 0.4127262 0.01538997 0.4127262 0.01538997 0.4127262 0.5 1 0.5 0.4127262 0.98461 1 0.98461 1 0.5 0 0.5 0 0.98461 0.4127262 0.98461 0 0.5 0.4127262 0.5 0.4127262 0.01538997 0.4127262 0.01538997 0.4127262 0.5 1 0.5 0.4127262 0.98461 1 0.98461 1 0.5 0 0.5 0 0.98461 0.4127262 0.98461 0 0.5 0.4127262 0.5 0.4127262 0.01538997 0.4127262 0.01538997 0.4127262 0.5 1 0.5 0.4127262 0.5 0.4127262 0.98461 1 0.98461 0 0.5 0 0.98461 0.4127262 0.98461 0 0.5 0.4127262 0.5 0.4127262 0.01538997 0.4127262 0.01538997 0.4127262 0.5 1 0.5 0.4127262 0.5 1 0.5 1 0.98461 0 0.5 0.4127262 0.5 0.4127262 0.98461 0.4127262 0.01538997 0.4127262 0.5 0 0.5 0.4127262 0.01538997 1 0.01538997 1 0.5 1 0.5 1 0.98461 0.4127262 0.98461 0 0.5 0.4127262 0.5 0.4127262 0.98461 0.4127262 0.01538997 0.4127262 0.5 0 0.5 0.4127262 0.01538997 1 0.01538997 1 0.5 1 0.5 1 0.98461 0.4127262 0.98461 0 0.5 0.4127262 0.5 0.4127262 0.98461 0.4127262 0.01538997 0.4127262 0.5 0 0.5 0.4127262 0.01538997 1 0.01538997 1 0.5 1 0.5 1 0.98461 0.4127262 0.98461 0 0.5 0.4127262 0.5 0.4127262 0.98461 0.4127262 0.01538997 0.4127262 0.5 0 0.5 0.4127262 0.01538997 1 0.01538997 1 0.5 1 0.5 1 0.98461 0.4127262 0.98461 0 0.5 0.4127262 0.5 0.4127262 0.98461 0.4127262 0.01538997 0.4127262 0.5 0 0.5 0.4127262 0.01538997 1 0.01538997 1 0.5 0.4127262 0.5 1 0.5 1 0.98461 0 0.5 0.4127262 0.5 0.4127262 0.98461 0.4127262 0.01538997 0.4127262 0.5 0 0.5 0.4127262 0.01538997 1 0.01538997 1 0.5 0.4127262 0.5 0.4127262 0.98461 1 0.98461 0 0.5 0 0.98461 0.4127262 0.98461 0 0.5 0.4127262 0.5 0.4127262 0.01538997 0.4127262 0.01538997 0.4127262 0.5 1 0.5 0.4127262 0.98461 1 0.98461 1 0.5 0 0.5 0 0.98461 0.4127262 0.98461 0 0.5 0.4127262 0.5 0.4127262 0.01538997 0.4127262 0.01538997 0.4127262 0.5 1 0.5 0.4127262 0.98461 1 0.98461 1 0.5 0 0.5 0 0.98461 0.4127262 0.98461 0 0.5 0.4127262 0.5 0.4127262 0.01538997 0.4127262 0.01538997 0.4127262 0.5 1 0.5 0.4127262 0.98461 1 0.98461 1 0.5 0 0.5 0 0.98461 0.4127262 0.98461 0 0.5 0.4127262 0.5 0.4127262 0.01538997 0.4127262 0.01538997 0.4127262 0.5 1 0.5 0.4127262 0.98461 1 0.98461 1 0.5 0 0.5 0 0.98461 0.4127262 0.98461 0 0.5 0.4127262 0.5 0.4127262 0.01538997 0.4127262 0.01538997 0.4127262 0.5 1 0.5 0.4127262 0.5 0.4127262 0.98461 1 0.98461 0 0.5 0 0.98461 0.4127262 0.98461 0 0.5 0.4127262 0.5 0.4127262 0.01538997 0.4127262 0.01538997 0.4127262 0.5 1 0.5 0.4127262 0.5 1 0.5 1 0.98461 0 0.5 0.4127262 0.5 0.4127262 0.98461 0.4127262 0.01538997 0.4127262 0.5 0 0.5 0.4127262 0.01538997 1 0.01538997 1 0.5 1 0.5 1 0.98461 0.4127262 0.98461 0 0.5 0.4127262 0.5 0.4127262 0.98461 0.4127262 0.01538997 0.4127262 0.5 0 0.5 0.4127262 0.01538997 1 0.01538997 1 0.5 1 0.5 1 0.98461 0.4127262 0.98461 0 0.5 0.4127262 0.5 0.4127262 0.98461 0.4127262 0.01538997 0.4127262 0.5 0 0.5 0.4127262 0.01538997 1 0.01538997 1 0.5 1 0.5 1 0.98461 0.4127262 0.98461 0 0.5 0.4127262 0.5 0.4127262 0.98461 0.4127262 0.01538997 0.4127262 0.5 0 0.5 0.4127262 0.01538997 1 0.01538997 1 0.5 1 0.5 1 0.98461 0.4127262 0.98461 0 0.5 0.4127262 0.5 0.4127262 0.98461 0.4127262 0.01538997 0.4127262 0.5 0 0.5 0.4127262 0.01538997 1 0.01538997 1 0.5 0.4127262 0.5 1 0.5 1 0.98461 0 0.5 0.4127262 0.5 0.4127262 0.98461 0.4127262 0.01538997 0.4127262 0.5 0 0.5 0.4127262 0.01538997 1 0.01538997 1 0.5 0.4127262 0.5 0.4127262 0.98461 1 0.98461 0 0.5 0 0.98461 0.4127262 0.98461 0 0.5 0.4127262 0.5 0.4127262 0.01538997 0.4127262 0.01538997 0.4127262 0.5 1 0.5 0.4127262 0.98461 1 0.98461 1 0.5 0 0.5 0 0.98461 0.4127262 0.98461 0 0.5 0.4127262 0.5 0.4127262 0.01538997 0.4127262 0.01538997 0.4127262 0.5 1 0.5 0.4127262 0.98461 1 0.98461 1 0.5 0 0.5 0 0.98461 0.4127262 0.98461 0 0.5 0.4127262 0.5 0.4127262 0.01538997 0.4127262 0.01538997 0.4127262 0.5 1 0.5 0.4127262 0.98461 1 0.98461 1 0.5 0 0.5 0 0.98461 0.4127262 0.98461 0 0.5 0.4127262 0.5 0.4127262 0.01538997 0.4127262 0.01538997 0.4127262 0.5 1 0.5 0.4127262 0.98461 1 0.98461 1 0.5 0 0.5 0 0.98461 0.4127262 0.98461 0 0.5 0.4127262 0.5 0.4127262 0.01538997 0.4127262 0.01538997 0.4127262 0.5 1 0.5 0.4127262 0.5 0.4127262 0.98461 1 0.98461 0 0.5 0 0.98461 0.4127262 0.98461 0 0.5 0.4127262 0.5 0.4127262 0.01538997 0.4127262 0.01538997 0.4127262 0.5 1 0.5 0.4127262 0.5 1 0.5 1 0.98461 0 0.5 0.4127262 0.5 0.4127262 0.98461 0.4127262 0.01538997 0.4127262 0.5 0 0.5 0.4127262 0.01538997 1 0.01538997 1 0.5 1 0.5 1 0.98461 0.4127262 0.98461 0 0.5 0.4127262 0.5 0.4127262 0.98461 0.4127262 0.01538997 0.4127262 0.5 0 0.5 0.4127262 0.01538997 1 0.01538997 1 0.5 1 0.5 1 0.98461 0.4127262 0.98461 0 0.5 0.4127262 0.5 0.4127262 0.98461 0.4127262 0.01538997 0.4127262 0.5 0 0.5 0.4127262 0.01538997 1 0.01538997 1 0.5 1 0.5 1 0.98461 0.4127262 0.98461 0 0.5 0.4127262 0.5 0.4127262 0.98461 0.4127262 0.01538997 0.4127262 0.5 0 0.5 0.4127262 0.01538997 1 0.01538997 1 0.5 1 0.5 1 0.98461 0.4127262 0.98461 0 0.5 0.4127262 0.5 0.4127262 0.98461 0.4127262 0.01538997 0.4127262 0.5 0 0.5 0.4127262 0.01538997 1 0.01538997 1 0.5 0.4127262 0.5 1 0.5 1 0.98461 0 0.5 0.4127262 0.5 0.4127262 0.98461 0.4127262 0.01538997 0.4127262 0.5 0 0.5 0.4127262 0.01538997 1 0.01538997 1 0.5 0.4127262 0.5 0.4127262 0.98461 1 0.98461 0 0.5 0 0.98461 0.4127262 0.98461 0 0.5 0.4127262 0.5 0.4127262 0.01538997 0.4127262 0.01538997 0.4127262 0.5 1 0.5 0.4127262 0.98461 1 0.98461 1 0.5 0 0.5 0 0.98461 0.4127262 0.98461 0 0.5 0.4127262 0.5 0.4127262 0.01538997 0.4127262 0.01538997 0.4127262 0.5 1 0.5 0.4127262 0.98461 1 0.98461 1 0.5 0 0.5 0 0.98461 0.4127262 0.98461 0 0.5 0.4127262 0.5 0.4127262 0.01538997 0.4127262 0.01538997 0.4127262 0.5 1 0.5 0.4127262 0.98461 1 0.98461 1 0.5 0 0.5 0 0.98461 0.4127262 0.98461 0 0.5 0.4127262 0.5 0.4127262 0.01538997 0.4127262 0.01538997 0.4127262 0.5 1 0.5 0.4127262 0.98461 1 0.98461 1 0.5 0 0.5 0 0.98461 0.4127262 0.98461 0 0.5 0.4127262 0.5 0.4127262 0.01538997 0.4127262 0.01538997 0.4127262 0.5 1 0.5 0.4127262 0.5 0.4127262 0.98461 1 0.98461 0 0.5 0 0.98461 0.4127262 0.98461 0 0.5 0.4127262 0.5 0.4127262 0.01538997 0.4127262 0.01538997 0.4127262 0.5 1 0.5 0.4127262 0.5 1 0.5 1 0.98461 0 0.5 0.4127262 0.5 0.4127262 0.98461 0.4127262 0.01538997 0.4127262 0.5 0 0.5 0.4127262 0.01538997 1 0.01538997 1 0.5 1 0.5 1 0.98461 0.4127262 0.98461 0 0.5 0.4127262 0.5 0.4127262 0.98461 0.4127262 0.01538997 0.4127262 0.5 0 0.5 0.4127262 0.01538997 1 0.01538997 1 0.5 1 0.5 1 0.98461 0.4127262 0.98461 0 0.5 0.4127262 0.5 0.4127262 0.98461 0.4127262 0.01538997 0.4127262 0.5 0 0.5 0.4127262 0.01538997 1 0.01538997 1 0.5 1 0.5 1 0.98461 0.4127262 0.98461 0 0.5 0.4127262 0.5 0.4127262 0.98461 0.4127262 0.01538997 0.4127262 0.5 0 0.5 0.4127262 0.01538997 1 0.01538997 1 0.5 1 0.5 1 0.98461 0.4127262 0.98461 0 0.5 0.4127262 0.5 0.4127262 0.98461 0.4127262 0.01538997 0.4127262 0.5 0 0.5 0.4127262 0.01538997 1 0.01538997 1 0.5 0.4127262 0.5 1 0.5 1 0.98461 0 0.5 0.4127262 0.5 0.4127262 0.98461 0.4127262 0.01538997 0.4127262 0.5 0 0.5 0.4127262 0.01538997 1 0.01538997 1 0.5 0.4127262 0.5 0.4127262 0.98461 1 0.98461 0 0.5 0 0.98461 0.4127262 0.98461 0 0.5 0.4127262 0.5 0.4127262 0.01538997 0.4127262 0.01538997 0.4127262 0.5 1 0.5 0.4127262 0.98461 1 0.98461 1 0.5 0 0.5 0 0.98461 0.4127262 0.98461 0 0.5 0.4127262 0.5 0.4127262 0.01538997 0.4127262 0.01538997 0.4127262 0.5 1 0.5 0.4127262 0.98461 1 0.98461 1 0.5 0 0.5 0 0.98461 0.4127262 0.98461 0 0.5 0.4127262 0.5 0.4127262 0.01538997 0.4127262 0.01538997 0.4127262 0.5 1 0.5 0.4127262 0.98461 1 0.98461 1 0.5 0 0.5 0 0.98461 0.4127262 0.98461 0 0.5 0.4127262 0.5 0.4127262 0.01538997 0.4127262 0.01538997 0.4127262 0.5 1 0.5 0.4127262 0.98461 1 0.98461 1 0.5 0 0.5 0 0.98461 0.4127262 0.98461 0 0.5 0.4127262 0.5 0.4127262 0.01538997 0.4127262 0.01538997 0.4127262 0.5 1 0.5 0.4127262 0.5 0.4127262 0.98461 1 0.98461 0 0.5 0 0.98461 0.4127262 0.98461 0 0.5 0.4127262 0.5 0.4127262 0.01538997 0.4127262 0.01538997 0.4127262 0.5 1 0.5 0.4127262 0.5 1 0.5 1 0.98461 0 0.5 0.4127262 0.5 0.4127262 0.98461 0.4127262 0.01538997 0.4127262 0.5 0 0.5 0.4127262 0.01538997 1 0.01538997 1 0.5 1 0.5 1 0.98461 0.4127262 0.98461 0 0.5 0.4127262 0.5 0.4127262 0.98461 0.4127262 0.01538997 0.4127262 0.5 0 0.5 0.4127262 0.01538997 1 0.01538997 1 0.5 1 0.5 1 0.98461 0.4127262 0.98461 0 0.5 0.4127262 0.5 0.4127262 0.98461 0.4127262 0.01538997 0.4127262 0.5 0 0.5 0.4127262 0.01538997 1 0.01538997 1 0.5 1 0.5 1 0.98461 0.4127262 0.98461 0 0.5 0.4127262 0.5 0.4127262 0.98461 0.4127262 0.01538997 0.4127262 0.5 0 0.5 0.4127262 0.01538997 1 0.01538997 1 0.5 1 0.5 1 0.98461 0.4127262 0.98461 0 0.5 0.4127262 0.5 0.4127262 0.98461 0.4127262 0.01538997 0.4127262 0.5 0 0.5 0.4127262 0.01538997 1 0.01538997 1 0.5 0.4127262 0.5 1 0.5 1 0.98461 0 0.5 0.4127262 0.5 0.4127262 0.98461 0.4127262 0.01538997 0.4127262 0.5 0 0.5 0.4127262 0.01538997 1 0.01538997 1 0.5</float_array>
          <technique_common>
            <accessor source="#Tree-mesh-map-0-array" count="1725" stride="2">
              <param name="S" type="float"/>
              <param name="T" type="float"/>
            </accessor>
          </technique_common>
        </source>
        <vertices id="Tree-mesh-vertices">
          <input semantic="POSITION" source="#Tree-mesh-positions"/>
        </vertices>
        <triangles material="BarkDecidious-material" count="95">
          <input semantic="VERTEX" source="#Tree-mesh-vertices" offset="0"/>
          <input semantic="NORMAL" source="#Tree-mesh-normals" offset="1"/>
          <input semantic="TEXCOORD" source="#Tree-mesh-map-0" offset="2" set="0"/>
          <p>0 0 0 3 1 1 2 2 2 2 2 3 5 3 4 4 4 5 5 3 6 6 5 7 4 4 8 30 6 9 13 7 10 14 8 11 7 9 12 8 10 13 6 5 14 8 10 15 1 11 16 0 0 17 14 8 18 13 7 19 19 12 20 26 13 21 12 14 22 29 15 23 25 16 24 14 8 25 11 17 26 26 13 27 11 17 28 10 18 29 13 7 30 45 19 31 48 20 32 20 21 33 23 22 34 17 23 35 12 14 36 10 18 37 19 12 38 11 17 39 14 8 40 19 12 41 13 7 42 12 14 43 19 12 44 10 18 45 11 17 46 19 12 47 3 1 48 20 21 49 16 24 50 5 3 51 18 25 52 7 9 53 3 1 54 15 26 55 5 3 56 7 9 57 17 23 58 9 27 59 24 28 60 21 29 61 27 30 62 1 11 63 22 31 64 21 29 65 17 23 66 22 31 67 9 27 68 20 21 69 21 29 70 24 28 71 36 32 72 25 16 73 26 13 74 21 29 75 22 31 76 27 30 77 23 22 78 24 28 79 27 30 80 22 31 81 23 22 82 27 30 83 39 33 84 28 34 85 37 35 86 38 36 87 30 6 88 25 16 89 39 33 90 26 13 91 29 15 92 37 35 93 30 6 94 40 37 95 18 25 96 33 38 97 17 23 98 16 24 99 32 39 100 15 26 101 20 21 102 33 38 103 31 40 104 15 26 105 35 41 106 18 25 107 16 24 108 31 40 109 34 42 110 35 41 111 40 37 112 33 38 113 34 42 114 39 33 115 32 39 116 31 40 117 40 37 118 38 36 119 32 39 120 37 35 121 35 41 122 38 36 123 42 43 124 31 40 125 44 44 126 43 45 127 47 46 128 34 42 129 42 43 130 43 45 131 36 32 132 43 45 133 44 44 134 36 32 135 41 47 136 38 36 137 12 14 138 49 48 139 29 15 140 42 43 141 41 47 142 47 46 143 41 47 144 44 44 145 47 46 146 43 45 147 42 43 148 47 46 149 48 20 150 45 19 151 50 49 152 12 14 153 48 20 154 46 50 155 29 15 156 45 19 157 28 34 158 49 48 159 46 50 160 50 49 161 46 50 162 48 20 163 50 49 164 45 19 165 49 48 166 50 49 167 0 0 888 1 11 889 3 1 890 2 2 891 3 1 892 5 3 893 5 3 894 7 9 895 6 5 896 30 6 897 28 34 898 13 7 899 7 9 900 9 27 901 8 10 902 8 10 903 9 27 904 1 11 905 26 13 906 10 18 907 12 14 908 25 16 909 30 6 910 14 8 911 26 13 912 25 16 913 11 17 914 13 7 915 28 34 916 45 19 917 20 21 918 24 28 919 23 22 920 3 1 921 1 11 922 20 21 923 5 3 924 15 26 925 18 25 926 3 1 927 16 24 928 15 26 929 7 9 930 18 25 931 17 23 932 1 11 933 9 27 934 22 31 935 17 23 936 23 22 937 22 31 938 20 21 939 1 11 940 21 29 941 36 32 942 38 36 943 25 16 944 39 33 945 29 15 946 28 34 947 38 36 948 40 37 949 30 6 950 39 33 951 36 32 952 26 13 953 37 35 954 28 34 955 30 6 956 18 25 957 35 41 958 33 38 959 16 24 960 34 42 961 32 39 962 20 21 963 17 23 964 33 38 965 15 26 966 32 39 967 35 41 968 16 24 969 20 21 970 31 40 971 35 41 972 37 35 973 40 37 974 34 42 975 36 32 976 39 33 977 31 40 978 33 38 979 40 37 980 32 39 981 39 33 982 37 35 983 38 36 984 41 47 985 42 43 986 34 42 987 31 40 988 42 43 989 36 32 990 34 42 991 43 45 992 36 32 993 44 44 994 41 47 995 12 14 996 46 50 997 49 48 998 12 14 999 13 7 1000 48 20 1001 29 15 1002 49 48 1003 45 19 1004</p>
        </triangles>
        <triangles material="Branch-material" count="480">
          <input semantic="VERTEX" source="#Tree-mesh-vertices" offset="0"/>
          <input semantic="NORMAL" source="#Tree-mesh-normals" offset="1"/>
          <input semantic="TEXCOORD" source="#Tree-mesh-map-0" offset="2" set="0"/>
          <p>59 51 168 54 52 169 58 53 170 57 54 171 56 55 172 59 51 173 57 54 174 55 56 175 51 57 176 55 56 177 58 53 178 52 58 179 65 59 180 67 60 181 68 61 182 66 62 183 65 59 184 68 61 185 66 62 186 64 63 187 60 64 188 64 63 189 67 60 190 61 65 191 74 66 192 76 67 193 77 68 194 75 69 195 74 66 196 77 68 197 75 69 198 73 70 199 69 71 200 73 70 201 76 67 202 70 72 203 83 73 204 85 74 205 86 75 206 84 76 207 83 73 208 86 75 209 84 76 210 82 77 211 78 78 212 82 77 213 85 74 214 79 79 215 92 80 216 94 81 217 95 82 218 93 83 219 92 80 220 95 82 221 93 83 222 91 84 223 87 85 224 91 84 225 94 81 226 88 86 227 104 87 228 99 88 229 103 89 230 102 90 231 101 91 232 104 87 233 102 90 234 100 92 235 96 93 236 100 92 237 103 89 238 97 94 239 113 95 240 108 96 241 110 97 242 111 98 243 110 97 244 107 99 245 109 100 246 111 98 247 105 101 248 109 100 249 112 102 250 113 95 251 121 103 252 119 104 253 122 105 254 120 106 255 119 104 256 116 107 257 118 108 258 120 106 259 114 109 260 118 108 261 121 103 262 122 105 263 130 110 264 128 111 265 131 112 266 129 113 267 128 111 268 125 114 269 127 115 270 129 113 271 123 116 272 127 115 273 130 110 274 131 112 275 139 117 276 137 118 277 140 119 278 138 120 279 137 118 280 134 121 281 136 122 282 138 120 283 132 123 284 136 122 285 139 117 286 140 119 287 148 124 288 146 125 289 149 126 290 147 127 291 146 125 292 143 128 293 145 129 294 147 127 295 141 130 296 145 129 297 148 124 298 149 126 299 158 131 300 153 132 301 155 133 302 156 134 303 155 133 304 152 135 305 154 136 306 156 134 307 150 137 308 154 136 309 157 138 310 158 131 311 167 139 312 162 140 313 166 141 314 165 142 315 164 143 316 167 139 317 165 142 318 163 144 319 159 145 320 163 144 321 166 141 322 160 146 323 173 147 324 175 148 325 176 149 326 174 150 327 173 147 328 176 149 329 174 150 330 172 151 331 168 152 332 172 151 333 175 148 334 169 153 335 182 154 336 184 155 337 185 156 338 183 157 339 182 154 340 185 156 341 183 157 342 181 158 343 177 159 344 181 158 345 184 155 346 178 160 347 191 161 348 193 162 349 194 163 350 192 164 351 191 161 352 194 163 353 192 164 354 190 165 355 186 166 356 190 165 357 193 162 358 187 167 359 200 168 360 202 169 361 203 170 362 201 171 363 200 168 364 203 170 365 201 171 366 199 172 367 195 173 368 199 172 369 202 169 370 196 174 371 212 175 372 207 176 373 211 177 374 210 178 375 209 179 376 212 175 377 210 178 378 208 180 379 204 181 380 208 180 381 211 177 382 205 182 383 221 183 384 216 184 385 218 185 386 219 186 387 218 185 388 215 187 389 217 188 390 219 186 391 213 189 392 217 188 393 220 190 394 221 183 395 229 191 396 227 192 397 230 193 398 228 194 399 227 192 400 224 195 401 226 196 402 228 194 403 222 197 404 226 196 405 229 191 406 230 193 407 238 198 408 236 199 409 239 200 410 237 201 411 236 199 412 233 202 413 235 203 414 237 201 415 231 204 416 235 203 417 238 198 418 239 200 419 247 205 420 245 206 421 248 207 422 246 208 423 245 206 424 242 209 425 244 210 426 246 208 427 240 211 428 244 210 429 247 205 430 248 207 431 256 212 432 254 213 433 257 214 434 255 215 435 254 213 436 251 216 437 253 217 438 255 215 439 249 218 440 253 217 441 256 212 442 257 214 443 266 219 444 261 220 445 263 221 446 264 222 447 263 221 448 260 223 449 262 224 450 264 222 451 258 225 452 262 224 453 265 226 454 266 219 455 275 227 456 270 228 457 274 229 458 273 230 459 272 231 460 275 227 461 273 230 462 271 232 463 267 233 464 271 232 465 274 229 466 268 234 467 281 235 468 283 236 469 284 237 470 282 238 471 281 235 472 284 237 473 282 238 474 280 239 475 276 240 476 280 239 477 283 236 478 277 241 479 290 242 480 292 243 481 293 244 482 291 245 483 290 242 484 293 244 485 291 245 486 289 246 487 285 247 488 289 246 489 292 243 490 286 248 491 299 249 492 301 250 493 302 251 494 300 252 495 299 249 496 302 251 497 300 252 498 298 253 499 294 254 500 298 253 501 301 250 502 295 255 503 308 256 504 310 257 505 311 258 506 309 259 507 308 256 508 311 258 509 309 259 510 307 260 511 303 261 512 307 260 513 310 257 514 304 262 515 320 263 516 315 264 517 319 265 518 318 266 519 317 267 520 320 263 521 318 266 522 316 268 523 312 269 524 316 268 525 319 265 526 313 270 527 329 271 528 324 272 529 326 273 530 327 274 531 326 273 532 323 275 533 325 276 534 327 274 535 321 277 536 325 276 537 328 278 538 329 271 539 337 279 540 335 280 541 338 281 542 336 282 543 335 280 544 332 283 545 334 284 546 336 282 547 330 285 548 334 284 549 337 279 550 338 281 551 346 286 552 344 287 553 347 288 554 345 289 555 344 287 556 341 290 557 343 291 558 345 289 559 339 292 560 343 291 561 346 286 562 347 288 563 355 293 564 353 294 565 356 295 566 354 296 567 353 294 568 350 297 569 352 298 570 354 296 571 348 299 572 352 298 573 355 293 574 356 295 575 364 300 576 362 301 577 365 302 578 363 303 579 362 301 580 359 304 581 361 305 582 363 303 583 357 306 584 361 305 585 364 300 586 365 302 587 374 307 588 369 308 589 371 309 590 372 310 591 371 309 592 368 311 593 370 312 594 372 310 595 366 313 596 370 312 597 373 314 598 374 307 599 383 315 600 378 316 601 382 317 602 381 318 603 380 319 604 383 315 605 381 318 606 379 320 607 375 321 608 379 320 609 382 317 610 376 322 611 389 323 612 391 324 613 392 325 614 390 326 615 389 323 616 392 325 617 390 326 618 388 327 619 384 328 620 388 327 621 391 324 622 385 329 623 398 330 624 400 331 625 401 332 626 399 333 627 398 330 628 401 332 629 399 333 630 397 334 631 393 335 632 397 334 633 400 331 634 394 336 635 407 337 636 409 338 637 410 339 638 408 340 639 407 337 640 410 339 641 408 340 642 406 341 643 402 342 644 406 341 645 409 338 646 403 343 647 416 344 648 418 345 649 419 346 650 417 347 651 416 344 652 419 346 653 417 347 654 415 348 655 411 349 656 415 348 657 418 345 658 412 350 659 428 351 660 423 352 661 427 353 662 426 354 663 425 355 664 428 351 665 426 354 666 424 356 667 420 357 668 424 356 669 427 353 670 421 358 671 437 359 672 432 360 673 434 361 674 435 362 675 434 361 676 431 363 677 433 364 678 435 362 679 429 365 680 433 364 681 436 366 682 437 359 683 445 367 684 443 368 685 446 369 686 444 370 687 443 368 688 440 371 689 442 372 690 444 370 691 438 373 692 442 372 693 445 367 694 446 369 695 454 374 696 452 375 697 455 376 698 453 377 699 452 375 700 449 378 701 451 379 702 453 377 703 447 380 704 451 379 705 454 374 706 455 376 707 463 381 708 461 382 709 464 383 710 462 384 711 461 382 712 458 385 713 460 386 714 462 384 715 456 387 716 460 386 717 463 381 718 464 383 719 472 388 720 470 389 721 473 390 722 471 391 723 470 389 724 467 392 725 469 393 726 471 391 727 465 394 728 469 393 729 472 388 730 473 390 731 482 395 732 477 396 733 479 397 734 480 398 735 479 397 736 476 399 737 478 400 738 480 398 739 474 401 740 478 400 741 481 402 742 482 395 743 491 403 744 486 404 745 490 405 746 489 406 747 488 407 748 491 403 749 489 406 750 487 408 751 483 409 752 487 408 753 490 405 754 484 410 755 497 411 756 499 412 757 500 413 758 498 414 759 497 411 760 500 413 761 498 414 762 496 415 763 492 416 764 496 415 765 499 412 766 493 417 767 506 418 768 508 419 769 509 420 770 507 421 771 506 418 772 509 420 773 507 421 774 505 422 775 501 423 776 505 422 777 508 419 778 502 424 779 515 425 780 517 426 781 518 427 782 516 428 783 515 425 784 518 427 785 516 428 786 514 429 787 510 430 788 514 429 789 517 426 790 511 431 791 524 432 792 526 433 793 527 434 794 525 435 795 524 432 796 527 434 797 525 435 798 523 436 799 519 437 800 523 436 801 526 433 802 520 438 803 536 439 804 531 440 805 535 441 806 534 442 807 533 443 808 536 439 809 534 442 810 532 444 811 528 445 812 532 444 813 535 441 814 529 446 815 545 447 816 540 448 817 542 449 818 543 450 819 542 449 820 539 451 821 541 452 822 543 450 823 537 453 824 541 452 825 544 454 826 545 447 827 553 455 828 551 456 829 554 457 830 552 458 831 551 456 832 548 459 833 550 460 834 552 458 835 546 461 836 550 460 837 553 455 838 554 457 839 562 462 840 560 463 841 563 464 842 561 465 843 560 463 844 557 466 845 559 467 846 561 465 847 555 468 848 559 467 849 562 462 850 563 464 851 571 469 852 569 470 853 572 471 854 570 472 855 569 470 856 566 473 857 568 474 858 570 472 859 564 475 860 568 474 861 571 469 862 572 471 863 580 476 864 578 477 865 581 478 866 579 479 867 578 477 868 575 480 869 577 481 870 579 479 871 573 482 872 577 481 873 580 476 874 581 478 875 590 483 876 585 484 877 587 485 878 588 486 879 587 485 880 584 487 881 586 488 882 588 486 883 582 489 884 586 488 885 589 490 886 590 483 887 59 51 1005 56 55 1006 54 52 1007 57 54 1008 53 491 1009 56 55 1010 57 54 1011 59 51 1012 55 56 1013 55 56 1014 59 51 1015 58 53 1016 65 59 1017 63 492 1018 67 60 1019 66 62 1020 62 493 1021 65 59 1022 66 62 1023 68 61 1024 64 63 1025 64 63 1026 68 61 1027 67 60 1028 74 66 1029 72 494 1030 76 67 1031 75 69 1032 71 495 1033 74 66 1034 75 69 1035 77 68 1036 73 70 1037 73 70 1038 77 68 1039 76 67 1040 83 73 1041 81 496 1042 85 74 1043 84 76 1044 80 497 1045 83 73 1046 84 76 1047 86 75 1048 82 77 1049 82 77 1050 86 75 1051 85 74 1052 92 80 1053 90 498 1054 94 81 1055 93 83 1056 89 499 1057 92 80 1058 93 83 1059 95 82 1060 91 84 1061 91 84 1062 95 82 1063 94 81 1064 104 87 1065 101 91 1066 99 88 1067 102 90 1068 98 500 1069 101 91 1070 102 90 1071 104 87 1072 100 92 1073 100 92 1074 104 87 1075 103 89 1076 113 95 1077 112 102 1078 108 96 1079 111 98 1080 113 95 1081 110 97 1082 109 100 1083 113 95 1084 111 98 1085 109 100 1086 106 501 1087 112 102 1088 121 103 1089 117 502 1090 119 104 1091 120 106 1092 122 105 1093 119 104 1094 118 108 1095 122 105 1096 120 106 1097 118 108 1098 115 503 1099 121 103 1100 130 110 1101 126 504 1102 128 111 1103 129 113 1104 131 112 1105 128 111 1106 127 115 1107 131 112 1108 129 113 1109 127 115 1110 124 505 1111 130 110 1112 139 117 1113 135 506 1114 137 118 1115 138 120 1116 140 119 1117 137 118 1118 136 122 1119 140 119 1120 138 120 1121 136 122 1122 133 507 1123 139 117 1124 148 124 1125 144 508 1126 146 125 1127 147 127 1128 149 126 1129 146 125 1130 145 129 1131 149 126 1132 147 127 1133 145 129 1134 142 509 1135 148 124 1136 158 131 1137 157 138 1138 153 132 1139 156 134 1140 158 131 1141 155 133 1142 154 136 1143 158 131 1144 156 134 1145 154 136 1146 151 510 1147 157 138 1148 167 139 1149 164 143 1150 162 140 1151 165 142 1152 161 511 1153 164 143 1154 165 142 1155 167 139 1156 163 144 1157 163 144 1158 167 139 1159 166 141 1160 173 147 1161 171 512 1162 175 148 1163 174 150 1164 170 513 1165 173 147 1166 174 150 1167 176 149 1168 172 151 1169 172 151 1170 176 149 1171 175 148 1172 182 154 1173 180 514 1174 184 155 1175 183 157 1176 179 515 1177 182 154 1178 183 157 1179 185 156 1180 181 158 1181 181 158 1182 185 156 1183 184 155 1184 191 161 1185 189 516 1186 193 162 1187 192 164 1188 188 517 1189 191 161 1190 192 164 1191 194 163 1192 190 165 1193 190 165 1194 194 163 1195 193 162 1196 200 168 1197 198 518 1198 202 169 1199 201 171 1200 197 519 1201 200 168 1202 201 171 1203 203 170 1204 199 172 1205 199 172 1206 203 170 1207 202 169 1208 212 175 1209 209 179 1210 207 176 1211 210 178 1212 206 520 1213 209 179 1214 210 178 1215 212 175 1216 208 180 1217 208 180 1218 212 175 1219 211 177 1220 221 183 1221 220 190 1222 216 184 1223 219 186 1224 221 183 1225 218 185 1226 217 188 1227 221 183 1228 219 186 1229 217 188 1230 214 521 1231 220 190 1232 229 191 1233 225 522 1234 227 192 1235 228 194 1236 230 193 1237 227 192 1238 226 196 1239 230 193 1240 228 194 1241 226 196 1242 223 523 1243 229 191 1244 238 198 1245 234 524 1246 236 199 1247 237 201 1248 239 200 1249 236 199 1250 235 203 1251 239 200 1252 237 201 1253 235 203 1254 232 525 1255 238 198 1256 247 205 1257 243 526 1258 245 206 1259 246 208 1260 248 207 1261 245 206 1262 244 210 1263 248 207 1264 246 208 1265 244 210 1266 241 527 1267 247 205 1268 256 212 1269 252 528 1270 254 213 1271 255 215 1272 257 214 1273 254 213 1274 253 217 1275 257 214 1276 255 215 1277 253 217 1278 250 529 1279 256 212 1280 266 219 1281 265 226 1282 261 220 1283 264 222 1284 266 219 1285 263 221 1286 262 224 1287 266 219 1288 264 222 1289 262 224 1290 259 530 1291 265 226 1292 275 227 1293 272 231 1294 270 228 1295 273 230 1296 269 531 1297 272 231 1298 273 230 1299 275 227 1300 271 232 1301 271 232 1302 275 227 1303 274 229 1304 281 235 1305 279 532 1306 283 236 1307 282 238 1308 278 533 1309 281 235 1310 282 238 1311 284 237 1312 280 239 1313 280 239 1314 284 237 1315 283 236 1316 290 242 1317 288 534 1318 292 243 1319 291 245 1320 287 535 1321 290 242 1322 291 245 1323 293 244 1324 289 246 1325 289 246 1326 293 244 1327 292 243 1328 299 249 1329 297 536 1330 301 250 1331 300 252 1332 296 537 1333 299 249 1334 300 252 1335 302 251 1336 298 253 1337 298 253 1338 302 251 1339 301 250 1340 308 256 1341 306 538 1342 310 257 1343 309 259 1344 305 539 1345 308 256 1346 309 259 1347 311 258 1348 307 260 1349 307 260 1350 311 258 1351 310 257 1352 320 263 1353 317 267 1354 315 264 1355 318 266 1356 314 540 1357 317 267 1358 318 266 1359 320 263 1360 316 268 1361 316 268 1362 320 263 1363 319 265 1364 329 271 1365 328 278 1366 324 272 1367 327 274 1368 329 271 1369 326 273 1370 325 276 1371 329 271 1372 327 274 1373 325 276 1374 322 541 1375 328 278 1376 337 279 1377 333 542 1378 335 280 1379 336 282 1380 338 281 1381 335 280 1382 334 284 1383 338 281 1384 336 282 1385 334 284 1386 331 543 1387 337 279 1388 346 286 1389 342 544 1390 344 287 1391 345 289 1392 347 288 1393 344 287 1394 343 291 1395 347 288 1396 345 289 1397 343 291 1398 340 545 1399 346 286 1400 355 293 1401 351 546 1402 353 294 1403 354 296 1404 356 295 1405 353 294 1406 352 298 1407 356 295 1408 354 296 1409 352 298 1410 349 547 1411 355 293 1412 364 300 1413 360 548 1414 362 301 1415 363 303 1416 365 302 1417 362 301 1418 361 305 1419 365 302 1420 363 303 1421 361 305 1422 358 549 1423 364 300 1424 374 307 1425 373 314 1426 369 308 1427 372 310 1428 374 307 1429 371 309 1430 370 312 1431 374 307 1432 372 310 1433 370 312 1434 367 550 1435 373 314 1436 383 315 1437 380 319 1438 378 316 1439 381 318 1440 377 551 1441 380 319 1442 381 318 1443 383 315 1444 379 320 1445 379 320 1446 383 315 1447 382 317 1448 389 323 1449 387 552 1450 391 324 1451 390 326 1452 386 553 1453 389 323 1454 390 326 1455 392 325 1456 388 327 1457 388 327 1458 392 325 1459 391 324 1460 398 330 1461 396 554 1462 400 331 1463 399 333 1464 395 555 1465 398 330 1466 399 333 1467 401 332 1468 397 334 1469 397 334 1470 401 332 1471 400 331 1472 407 337 1473 405 556 1474 409 338 1475 408 340 1476 404 557 1477 407 337 1478 408 340 1479 410 339 1480 406 341 1481 406 341 1482 410 339 1483 409 338 1484 416 344 1485 414 558 1486 418 345 1487 417 347 1488 413 559 1489 416 344 1490 417 347 1491 419 346 1492 415 348 1493 415 348 1494 419 346 1495 418 345 1496 428 351 1497 425 355 1498 423 352 1499 426 354 1500 422 560 1501 425 355 1502 426 354 1503 428 351 1504 424 356 1505 424 356 1506 428 351 1507 427 353 1508 437 359 1509 436 366 1510 432 360 1511 435 362 1512 437 359 1513 434 361 1514 433 364 1515 437 359 1516 435 362 1517 433 364 1518 430 561 1519 436 366 1520 445 367 1521 441 562 1522 443 368 1523 444 370 1524 446 369 1525 443 368 1526 442 372 1527 446 369 1528 444 370 1529 442 372 1530 439 563 1531 445 367 1532 454 374 1533 450 564 1534 452 375 1535 453 377 1536 455 376 1537 452 375 1538 451 379 1539 455 376 1540 453 377 1541 451 379 1542 448 565 1543 454 374 1544 463 381 1545 459 566 1546 461 382 1547 462 384 1548 464 383 1549 461 382 1550 460 386 1551 464 383 1552 462 384 1553 460 386 1554 457 567 1555 463 381 1556 472 388 1557 468 568 1558 470 389 1559 471 391 1560 473 390 1561 470 389 1562 469 393 1563 473 390 1564 471 391 1565 469 393 1566 466 569 1567 472 388 1568 482 395 1569 481 402 1570 477 396 1571 480 398 1572 482 395 1573 479 397 1574 478 400 1575 482 395 1576 480 398 1577 478 400 1578 475 570 1579 481 402 1580 491 403 1581 488 407 1582 486 404 1583 489 406 1584 485 571 1585 488 407 1586 489 406 1587 491 403 1588 487 408 1589 487 408 1590 491 403 1591 490 405 1592 497 411 1593 495 572 1594 499 412 1595 498 414 1596 494 573 1597 497 411 1598 498 414 1599 500 413 1600 496 415 1601 496 415 1602 500 413 1603 499 412 1604 506 418 1605 504 574 1606 508 419 1607 507 421 1608 503 575 1609 506 418 1610 507 421 1611 509 420 1612 505 422 1613 505 422 1614 509 420 1615 508 419 1616 515 425 1617 513 576 1618 517 426 1619 516 428 1620 512 577 1621 515 425 1622 516 428 1623 518 427 1624 514 429 1625 514 429 1626 518 427 1627 517 426 1628 524 432 1629 522 578 1630 526 433 1631 525 435 1632 521 579 1633 524 432 1634 525 435 1635 527 434 1636 523 436 1637 523 436 1638 527 434 1639 526 433 1640 536 439 1641 533 443 1642 531 440 1643 534 442 1644 530 580 1645 533 443 1646 534 442 1647 536 439 1648 532 444 1649 532 444 1650 536 439 1651 535 441 1652 545 447 1653 544 454 1654 540 448 1655 543 450 1656 545 447 1657 542 449 1658 541 452 1659 545 447 1660 543 450 1661 541 452 1662 538 581 1663 544 454 1664 553 455 1665 549 582 1666 551 456 1667 552 458 1668 554 457 1669 551 456 1670 550 460 1671 554 457 1672 552 458 1673 550 460 1674 547 583 1675 553 455 1676 562 462 1677 558 584 1678 560 463 1679 561 465 1680 563 464 1681 560 463 1682 559 467 1683 563 464 1684 561 465 1685 559 467 1686 556 585 1687 562 462 1688 571 469 1689 567 586 1690 569 470 1691 570 472 1692 572 471 1693 569 470 1694 568 474 1695 572 471 1696 570 472 1697 568 474 1698 565 587 1699 571 469 1700 580 476 1701 576 588 1702 578 477 1703 579 479 1704 581 478 1705 578 477 1706 577 481 1707 581 478 1708 579 479 1709 577 481 1710 574 589 1711 580 476 1712 590 483 1713 589 490 1714 585 484 1715 588 486 1716 590 483 1717 587 485 1718 586 488 1719 590 483 1720 588 486 1721 586 488 1722 583 590 1723 589 490 1724</p>
        </triangles>
      </mesh>
    </geometry>
  </library_geometries>
  <library_visual_scenes>
    <visual_scene id="Scene" name="Scene">
      <node id="Tree" name="Tree" type="NODE">
        <matrix sid="transform">-0.991986 0.04173766 -0.1192551 0 -0.04505338 -0.9986656 0.02524301 0 -0.1180424 0.03041355 0.9925427 0 0 0 0 1</matrix>
        <instance_geometry url="#Tree-mesh" name="Tree">
          <bind_material>
            <technique_common>
              <instance_material symbol="BarkDecidious-material" target="#BarkDecidious-material">
                <bind_vertex_input semantic="UVMap" input_semantic="TEXCOORD" input_set="0"/>
              </instance_material>
              <instance_material symbol="Branch-material" target="#Branch-material">
                <bind_vertex_input semantic="UVMap" input_semantic="TEXCOORD" input_set="0"/>
              </instance_material>
            </technique_common>
          </bind_material>
        </instance_geometry>
      </node>
    </visual_scene>
  </library_visual_scenes>
  <scene>
    <instance_visual_scene url="#Scene"/>
  </scene>
</COLLADA>