<?xml version="1.0" encoding="utf-8"?>
<COLLADA xmlns="http://www.collada.org/2005/11/COLLADASchema" version="1.4.1" xmlns:xsi="http://www.w3.org/2001/XMLSchema-instance">
  <asset>
    <contributor>
      <author>Blender User</author>
      <authoring_tool>Blender 4.0.1 commit date:2023-11-16, commit time:16:40, hash:d0dd92834a08</authoring_tool>
    </contributor>
    <created>2023-11-28T13:55:27</created>
    <modified>2023-11-28T13:55:27</modified>
    <unit name="meter" meter="1"/>
    <up_axis>Z_UP</up_axis>
  </asset>
  <library_effects>
    <effect id="Cup_Plate-effect">
      <profile_COMMON>
        <newparam sid="Cup_Plate-surface">
          <surface type="2D">
            <init_from>Cup_Plate</init_from>
          </surface>
        </newparam>
        <newparam sid="Cup_Plate-sampler">
          <sampler2D>
            <source>Cup_Plate-surface</source>
          </sampler2D>
        </newparam>
        <technique sid="common">
          <lambert>
            <emission>
              <color sid="emission">0 0 0 1</color>
            </emission>
            <diffuse>
              <texture texture="Cup_Plate-sampler" texcoord="UVMap"/>
            </diffuse>
            <index_of_refraction>
              <float sid="ior">1.45</float>
            </index_of_refraction>
          </lambert>
        </technique>
      </profile_COMMON>
    </effect>
  </library_effects>
  <library_images>
    <image id="Cup_Plate" name="Cup_Plate">
      <init_from>Cup_Plate.png</init_from>
    </image>
  </library_images>
  <library_materials>
    <material id="Cup_Plate-material" name="Cup_Plate">
      <instance_effect url="#Cup_Plate-effect"/>
    </material>
  </library_materials>
  <library_geometries>
    <geometry id="Plate-mesh" name="Plate">
      <mesh>
        <source id="Plate-mesh-positions">
          <float_array id="Plate-mesh-positions-array" count="96">-0.1076862 0.1076862 -0.008489251 0 0.2106 0.02288937 -0.1522913 0 -0.008489251 0.1489167 0.1489167 0.02288937 -0.1076862 -0.1076862 -0.008489251 0.2106 0 0.02288937 0 -0.1522914 -0.008489251 0.1489167 -0.1489167 0.02288937 0.1076863 -0.1076862 -0.008489251 0 -0.2106 0.02288937 0.1522914 0 -0.008489251 -0.1489167 -0.1489167 0.02288937 0 0.1522914 -0.008489251 -0.2106 0 0.02288937 0.1076863 0.1076862 -0.008489251 -0.1489167 0.1489167 0.02288937 -0.1098065 0.1098065 -0.01802909 0 0.2153388 0.0140835 -0.1552898 0 -0.01802909 0.1522675 0.1522675 0.0140835 -0.1098065 -0.1098065 -0.01802909 0.2153388 0 0.0140835 0 -0.1552899 -0.01802909 0.1522675 -0.1522675 0.0140835 0.1098065 -0.1098065 -0.01802909 0 -0.2153388 0.0140835 0.1552899 0 -0.01802909 -0.1522675 -0.1522675 0.0140835 0 0.1552899 -0.01802909 -0.2153388 0 0.0140835 0.1098065 0.1098065 -0.01802909 -0.1522675 0.1522675 0.0140835</float_array>
          <technique_common>
            <accessor source="#Plate-mesh-positions-array" count="32" stride="3">
              <param name="X" type="float"/>
              <param name="Y" type="float"/>
              <param name="Z" type="float"/>
            </accessor>
          </technique_common>
        </source>
        <source id="Plate-mesh-normals">
          <float_array id="Plate-mesh-normals-array" count="144">-0.3350878 -0.3350878 0.8805864 0 -0.2998515 0.953986 -0.212027 -0.2120268 0.9539859 0 -0.4738858 0.8805863 0.2120268 -0.2120269 0.9539861 0 0.4738859 0.8805864 0.2120268 0.2120269 0.9539861 0.3350877 0.3350876 0.8805866 -0.4738859 0 0.8805863 -0.2998515 0 0.953986 0.3350877 -0.3350876 0.8805866 0.2998514 0 0.9539859 -0.3350879 0.3350878 0.8805864 0 0.2998515 0.953986 0.4738856 0 0.8805865 -0.212027 0.2120268 0.9539859 0.3334557 0.3334558 -0.8818247 0 0.2983483 -0.9544572 0 0.4715775 -0.8818247 -0.2109639 0.2109639 -0.9544572 -0.3334555 0.3334553 -0.8818249 -0.2109639 -0.2109639 -0.9544572 0 -0.4715775 -0.8818247 -0.3334555 -0.3334553 -0.8818249 0.4715776 0 -0.8818246 0.210964 0.210964 -0.9544571 -0.2983481 0 -0.9544571 -0.4715773 0 -0.8818249 0 -0.2983484 -0.9544571 0.3334557 -0.3334558 -0.8818247 0.2109641 -0.210964 -0.9544572 0.2983483 0 -0.9544572 0.6226686 0.6226687 0.4738858 0 0.8805869 0.4738848 0 0.8805869 0.4738847 0.8805864 0 0.4738857 0.6226685 0.6226686 0.4738858 0.6226686 -0.6226687 0.4738858 0.8805864 0 0.4738857 0 -0.8805869 0.4738848 0.6226685 -0.6226686 0.4738858 -0.6226686 -0.6226687 0.4738857 0 -0.8805869 0.4738847 -0.8805864 0 0.4738857 -0.6226686 -0.6226686 0.4738857 -0.6226686 0.6226687 0.4738857 -0.8805864 0 0.4738857 -0.6226686 0.6226686 0.4738857</float_array>
          <technique_common>
            <accessor source="#Plate-mesh-normals-array" count="48" stride="3">
              <param name="X" type="float"/>
              <param name="Y" type="float"/>
              <param name="Z" type="float"/>
            </accessor>
          </technique_common>
        </source>
        <source id="Plate-mesh-map-0">
          <float_array id="Plate-mesh-map-0-array" count="360">0.5091523 0.1526485 0.4393574 0.3325736 0.4393574 0.1815584 0.5091523 0.3614836 0.3325736 0.4393573 0.4393574 0.3325736 0.004979729 0.1526484 0.07477462 0.3325735 0.004979729 0.3614835 0.3614836 0.004979729 0.4393574 0.1815584 0.3325736 0.07477456 0.3614835 0.5091523 0.1815584 0.4393573 0.3325736 0.4393573 0.1526485 0.004979729 0.07477462 0.1815584 0.004979729 0.1526484 0.004979729 0.3614835 0.1815584 0.4393573 0.1526484 0.5091523 0.3614836 0.004979729 0.1815584 0.07477456 0.1526485 0.004979729 0.07477462 0.1815584 0.1815584 0.07477456 0.3325736 0.07477456 0.5091523 0.1526485 0.4393574 0.3325736 0.5091523 0.3614836 0.5091523 0.3614836 0.3325736 0.4393573 0.3614835 0.5091523 0.07477462 0.3325735 0.004979729 0.1526484 0.004979729 0.3614835 0.3614836 0.004979729 0.4393574 0.1815584 0.5091523 0.1526485 0.3614835 0.5091523 0.1815584 0.4393573 0.1526484 0.5091523 0.07477462 0.1815584 0.1526485 0.004979729 0.004979729 0.1526484 0.1815584 0.4393573 0.004979729 0.3614835 0.1526484 0.5091523 0.1815584 0.07477456 0.3614836 0.004979729 0.1526485 0.004979729 0.4393574 0.3325736 0.3325736 0.07477456 0.07477462 0.1815584 0.5091523 0.1526485 0.5091523 0.3614836 0.5091523 0.3614836 0.5091523 0.1526485 0.3614836 0.004979729 0.5091523 0.1526485 0.1526485 0.004979729 0.3614836 0.004979729 0.3614836 0.004979729 0.1526485 0.004979729 0.004979729 0.1526484 0.1526485 0.004979729 0.004979729 0.3614835 0.004979729 0.1526484 0.004979729 0.1526484 0.004979729 0.3614835 0.1526484 0.5091523 0.004979729 0.3614835 0.3614835 0.5091523 0.1526484 0.5091523 0.1526484 0.5091523 0.3614835 0.5091523 0.5091523 0.3614836 0.3614835 0.5091523 0.5091523 0.1526485 0.5091523 0.3614836 0.4393574 0.3325736 0.5091523 0.3614836 0.3614835 0.5091523 0.3325736 0.4393573 0.004979729 0.1526484 0.07477462 0.1815584 0.07477462 0.3325735 0.3614836 0.004979729 0.5091523 0.1526485 0.4393574 0.1815584 0.3614835 0.5091523 0.1526484 0.5091523 0.1815584 0.4393573 0.1526485 0.004979729 0.1815584 0.07477456 0.07477462 0.1815584 0.004979729 0.3614835 0.07477462 0.3325735 0.1815584 0.4393573 0.3614836 0.004979729 0.3325736 0.07477456 0.1815584 0.07477456 0.3325736 0.07477456 0.4393574 0.1815584 0.4393574 0.3325736 0.4393574 0.3325736 0.3325736 0.4393573 0.3325736 0.07477456 0.3325736 0.4393573 0.1815584 0.4393573 0.3325736 0.07477456 0.1815584 0.4393573 0.07477462 0.3325735 0.3325736 0.07477456 0.07477462 0.3325735 0.07477462 0.1815584 0.3325736 0.07477456 0.5091523 0.1526485 0.4393574 0.1815584 0.4393574 0.3325736 0.5091523 0.3614836 0.4393574 0.3325736 0.3325736 0.4393573 0.07477462 0.3325735 0.07477462 0.1815584 0.004979729 0.1526484 0.3614836 0.004979729 0.3325736 0.07477456 0.4393574 0.1815584 0.3614835 0.5091523 0.3325736 0.4393573 0.1815584 0.4393573 0.07477462 0.1815584 0.1815584 0.07477456 0.1526485 0.004979729 0.1815584 0.4393573 0.07477462 0.3325735 0.004979729 0.3614835 0.1815584 0.07477456 0.3325736 0.07477456 0.3614836 0.004979729 0.4393574 0.3325736 0.4393574 0.1815584 0.3325736 0.07477456 0.3325736 0.07477456 0.1815584 0.07477456 0.07477462 0.1815584 0.07477462 0.1815584 0.07477462 0.3325735 0.1815584 0.4393573 0.1815584 0.4393573 0.3325736 0.4393573 0.07477462 0.1815584 0.3325736 0.4393573 0.4393574 0.3325736 0.07477462 0.1815584 0.5091523 0.1526485 0.5091523 0.1526485 0.5091523 0.3614836 0.5091523 0.1526485 0.3614836 0.004979729 0.3614836 0.004979729 0.1526485 0.004979729 0.1526485 0.004979729 0.3614836 0.004979729 0.1526485 0.004979729 0.004979729 0.1526484 0.004979729 0.1526484 0.004979729 0.3614835 0.004979729 0.3614835 0.004979729 0.1526484 0.004979729 0.3614835 0.1526484 0.5091523 0.1526484 0.5091523 0.3614835 0.5091523 0.3614835 0.5091523 0.1526484 0.5091523 0.3614835 0.5091523 0.5091523 0.3614836 0.5091523 0.3614836</float_array>
          <technique_common>
            <accessor source="#Plate-mesh-map-0-array" count="180" stride="2">
              <param name="S" type="float"/>
              <param name="T" type="float"/>
            </accessor>
          </technique_common>
        </source>
        <vertices id="Plate-mesh-vertices">
          <input semantic="POSITION" source="#Plate-mesh-positions"/>
        </vertices>
        <triangles material="Cup_Plate-material" count="60">
          <input semantic="VERTEX" source="#Plate-mesh-vertices" offset="0"/>
          <input semantic="NORMAL" source="#Plate-mesh-normals" offset="1"/>
          <input semantic="TEXCOORD" source="#Plate-mesh-map-0" offset="2" set="0"/>
          <p>3 0 0 12 1 1 14 2 2 1 3 3 0 4 4 12 1 5 9 5 6 4 6 7 11 7 8 5 8 9 14 2 10 10 9 11 15 10 12 2 11 13 0 4 14 7 12 15 6 13 16 9 5 17 11 7 18 2 11 19 13 14 20 5 8 21 8 15 22 7 12 23 6 13 24 8 15 25 10 9 26 19 16 27 28 17 28 17 18 29 17 18 30 16 19 31 31 20 32 20 21 33 25 22 34 27 23 35 21 24 36 30 25 37 19 16 38 31 20 39 18 26 40 29 27 41 22 28 42 23 29 43 25 22 44 18 26 45 27 23 46 29 27 47 24 30 48 21 24 49 23 29 50 28 17 51 26 31 52 22 28 53 3 32 54 17 33 55 1 34 56 3 32 57 21 35 58 19 36 59 7 37 60 21 35 61 5 38 62 7 37 63 25 39 64 23 40 65 11 41 66 25 39 67 9 42 68 11 41 69 29 43 70 27 44 71 15 45 72 29 43 73 13 46 74 15 45 75 17 33 76 31 47 77 3 0 78 1 3 79 12 1 80 1 3 81 15 10 82 0 4 83 9 5 84 6 13 85 4 6 86 5 8 87 3 0 88 14 2 89 15 10 90 13 14 91 2 11 92 7 12 93 8 15 94 6 13 95 11 7 96 4 6 97 2 11 98 5 8 99 10 9 100 8 15 101 10 9 102 14 2 103 12 1 104 12 1 105 0 4 106 10 9 107 0 4 108 2 11 109 10 9 110 2 11 111 4 6 112 10 9 113 4 6 114 6 13 115 10 9 116 19 16 117 30 25 118 28 17 119 17 18 120 28 17 121 16 19 122 20 21 123 22 28 124 25 22 125 21 24 126 26 31 127 30 25 128 31 20 129 16 19 130 18 26 131 22 28 132 24 30 133 23 29 134 18 26 135 20 21 136 27 23 137 24 30 138 26 31 139 21 24 140 28 17 141 30 25 142 26 31 143 26 31 144 24 30 145 22 28 146 22 28 147 20 21 148 18 26 149 18 26 150 16 19 151 22 28 152 16 19 153 28 17 154 22 28 155 3 32 156 19 36 157 17 33 158 3 32 159 5 38 160 21 35 161 7 37 162 23 40 163 21 35 164 7 37 165 9 42 166 25 39 167 11 41 168 27 44 169 25 39 170 11 41 171 13 46 172 29 43 173 15 45 174 31 47 175 29 43 176 15 45 177 1 34 178 17 33 179</p>
        </triangles>
      </mesh>
    </geometry>
  </library_geometries>
  <library_visual_scenes>
    <visual_scene id="Scene" name="Scene">
      <node id="Plate" name="Plate" type="NODE">
        <matrix sid="transform">5.40668e-8 2.33347e-7 -0.7161366 0 0 -0.7161366 -2.33347e-7 0 -0.7161366 1.76172e-14 -5.40668e-8 0 0 0 0 1</matrix>
        <instance_geometry url="#Plate-mesh" name="Plate">
          <bind_material>
            <technique_common>
              <instance_material symbol="Cup_Plate-material" target="#Cup_Plate-material">
                <bind_vertex_input semantic="UVMap" input_semantic="TEXCOORD" input_set="0"/>
              </instance_material>
            </technique_common>
          </bind_material>
        </instance_geometry>
      </node>
    </visual_scene>
  </library_visual_scenes>
  <scene>
    <instance_visual_scene url="#Scene"/>
  </scene>
</COLLADA>