<?xml version="1.0" encoding="utf-8"?>
<COLLADA xmlns="http://www.collada.org/2005/11/COLLADASchema" version="1.4.1" xmlns:xsi="http://www.w3.org/2001/XMLSchema-instance">
  <asset>
    <contributor>
      <author>Blender User</author>
      <authoring_tool>Blender 4.0.1 commit date:2023-11-16, commit time:16:40, hash:d0dd92834a08</authoring_tool>
    </contributor>
    <created>2023-11-28T13:41:57</created>
    <modified>2023-11-28T13:41:57</modified>
    <unit name="meter" meter="1"/>
    <up_axis>Z_UP</up_axis>
  </asset>
  <library_effects>
    <effect id="Cupcakes-effect">
      <profile_COMMON>
        <newparam sid="Cupcakes-surface">
          <surface type="2D">
            <init_from>Cupcakes</init_from>
          </surface>
        </newparam>
        <newparam sid="Cupcakes-sampler">
          <sampler2D>
            <source>Cupcakes-surface</source>
          </sampler2D>
        </newparam>
        <technique sid="common">
          <lambert>
            <emission>
              <color sid="emission">0 0 0 1</color>
            </emission>
            <diffuse>
              <texture texture="Cupcakes-sampler" texcoord="UVMap"/>
            </diffuse>
            <index_of_refraction>
              <float sid="ior">1.45</float>
            </index_of_refraction>
          </lambert>
        </technique>
      </profile_COMMON>
    </effect>
  </library_effects>
  <library_images>
    <image id="Cupcakes" name="Cupcakes">
      <init_from>Cupcakes.png</init_from>
    </image>
  </library_images>
  <library_materials>
    <material id="Cupcakes-material" name="Cupcakes">
      <instance_effect url="#Cupcakes-effect"/>
    </material>
  </library_materials>
  <library_geometries>
    <geometry id="Cupcake-mesh" name="Cupcake">
      <mesh>
        <source id="Cupcake-mesh-positions">
          <float_array id="Cupcake-mesh-positions-array" count="129">0 0.1825265 -0.1640194 0 0.1984387 0.09967321 0.1427049 0.1138034 -0.1640194 0.1551457 0.1237245 0.09967321 0.1779502 -0.04061591 -0.1640194 0.1934635 -0.04415673 0.09967321 0.07919526 -0.1644507 -0.1640194 0.08609932 -0.1787871 0.09967321 -0.07919526 -0.1644507 -0.1640194 -0.08609932 -0.1787871 0.09967321 -0.1779502 -0.04061591 -0.1640194 -0.1934635 -0.04415673 0.09967321 -0.1427049 0.1138034 -0.1640194 -0.1551457 0.1237245 0.09967321 0.129818 0.1035264 0.1194287 0 0.1660435 0.1194287 0.1618804 -0.03694814 0.1194287 0.07204359 -0.1496 0.1194287 -0.07204359 -0.1496 0.1194287 -0.1618804 -0.03694814 0.1194287 -0.129818 0.1035264 0.1194287 0.16105 0.1284331 0.1956277 0 0.2059907 0.1956277 0.2008261 -0.04583722 0.1956277 0.08937597 -0.1855912 0.1956277 -0.08937597 -0.1855912 0.1956277 -0.2008261 -0.04583722 0.1956277 -0.16105 0.1284331 0.1956277 0.128753 0.1026772 0.2802938 0 0.1646813 0.2802938 0.1605525 -0.03664505 0.2802938 0.07145255 -0.1483728 0.2802938 -0.07145255 -0.1483728 0.2802938 -0.1605525 -0.03664505 0.2802938 -0.128753 0.1026772 0.2802938 0.006280899 0 0.3314618 0.05967116 0.0397948 0.332543 0.01476687 0.04461222 0.3055883 -0.08011126 -0.04473131 0.3035141 0.04723852 -0.06336617 0.3114776 0.08125627 -0.03198248 0.3364579 -0.001075029 -0.01399177 0.4007883 0.04914033 8.38532e-4 0.3958261</float_array>
          <technique_common>
            <accessor source="#Cupcake-mesh-positions-array" count="43" stride="3">
              <param name="X" type="float"/>
              <param name="Y" type="float"/>
              <param name="Z" type="float"/>
            </accessor>
          </technique_common>
        </source>
        <source id="Cupcake-mesh-normals">
          <float_array id="Cupcake-mesh-normals-array" count="129">0 0.9107812 0.4128893 0.598264 0.4770997 -0.6437827 0 0.7652084 -0.6437827 0.7120774 0.5678628 0.4128894 0.7460231 -0.1702748 -0.6437827 0.8879461 -0.2026679 0.4128893 0.3320115 -0.6894289 -0.6437827 0.3951732 -0.8205854 0.4128894 -0.3320115 -0.6894289 -0.6437827 -0.3951731 -0.8205856 0.4128893 -0.7460229 -0.1702748 -0.6437827 -0.7372596 0.5879452 0.3328195 0 0.9429907 0.3328192 -0.7120775 0.5678628 0.4128894 -0.598264 0.4770997 -0.6437827 0.919348 -0.2098351 0.3328192 -0.919348 -0.2098351 0.3328192 -0.8879461 -0.2026679 0.4128892 0.7372597 0.5879451 0.3328195 0.4091483 -0.8496052 0.3328195 -0.4091482 -0.8496053 0.3328193 -0.7817661 0.6234378 -0.01293814 0.4338474 -0.9008936 -0.01293796 0.781766 0.6234377 -0.01293802 -0.4338474 -0.9008935 -0.01293808 0.9748464 -0.2225022 -0.01293808 -0.9748464 -0.2225023 -0.01293802 -0.551306 0.4389216 0.7095136 -9.65309e-4 0.7069118 0.7073011 0.01229739 0 0.9999245 -0.3069363 -0.6354137 0.7085476 0.6920365 -0.1581888 0.7043166 0 0.9999164 -0.01293808 -0.6865537 -0.156495 0.7100377 0.3064713 -0.6384602 0.7060056 0.5541391 0.4427243 0.7049292 -0.8982013 -0.3004544 -0.3208764 -0.1256109 0.8379941 -0.5310252 0.3790975 -0.8138053 -0.4404612 -0.3629549 -0.05597978 0.9301237 0.4089792 0.1718703 0.8962123 0.5798895 0.8041183 -0.1308506 0.9302092 -0.3608047 -0.06731307</float_array>
          <technique_common>
            <accessor source="#Cupcake-mesh-normals-array" count="43" stride="3">
              <param name="X" type="float"/>
              <param name="Y" type="float"/>
              <param name="Z" type="float"/>
            </accessor>
          </technique_common>
        </source>
        <source id="Cupcake-mesh-map-0">
          <float_array id="Cupcake-mesh-map-0-array" count="468">0.6550735 0.5694075 0.5094716 0.4906108 0.5094716 0.5694075 0.7730488 0.1853373 0.6274469 0.2760804 0.6274469 0.1908153 0.7730488 0.2780355 0.6274469 0.3444576 0.6274469 0.2760804 0.1928009 0.9003379 0.3384028 0.809068 0.3384028 0.8965257 0.5246797 0.6709114 0.4483864 0.8165134 0.5167636 0.8165133 0.2180991 0.1167083 0.1656918 0.1883894 0.2002115 0.1167083 0.4483864 0.8165134 0.3576433 0.6709115 0.3631214 0.8165134 0.5094716 0.6482042 0.6550735 0.5694075 0.5094716 0.5694075 0.2017998 0.396928 0.07858836 0.2986701 0.01021116 0.4406569 0.1768445 0.03104233 0.08812665 0.0273236 0.08414632 0.009884595 0.009808123 0.1642494 0.08812665 0.2060931 0.08414632 0.2235321 0.2180991 0.1167083 0.1656918 0.04502737 0.1768445 0.03104233 0.08414632 0.009884595 0.0259242 0.07692843 0.009808123 0.06916731 0.1768445 0.2023744 0.08812665 0.2060931 0.1656918 0.1883894 0.009808123 0.06916731 0.0259242 0.1564883 0.009808123 0.1642494 0.3461644 0.5221891 0.2572383 0.5642635 0.3289192 0.5642635 0.553831 0.1010967 0.5959054 0.009778916 0.553831 0.02353149 0.8862051 0.1086615 0.9282795 0.0195313 0.9282795 0.09909117 0.1758757 0.6347312 0.2671935 0.6768056 0.1896283 0.6768056 0.5959054 0.1831722 0.553831 0.1010967 0.553831 0.1632991 0.2721018 0.6347312 0.329396 0.6768056 0.2671935 0.6768056 0.5959054 0.1060049 0.642655 0.0240004 0.5959054 0.009778916 0.425162 0.3425083 0.4962549 0.3767448 0.4216939 0.4334395 0.8862051 0.1086615 0.8394554 0.01985764 0.8862051 0.009960889 0.1758757 0.6347312 0.2670261 0.5879816 0.2721018 0.6347312 0.3461644 0.5221891 0.2572383 0.4754394 0.2572383 0.5221891 0.5959054 0.1831722 0.642655 0.1009293 0.5959054 0.1060049 0.2721018 0.6347312 0.3287183 0.5879816 0.349269 0.6347312 0.1683121 0.5221891 0.2572383 0.4754394 0.1861453 0.4754394 0.5138135 0.4536737 0.4646157 0.5153658 0.4216939 0.4334395 0.3857084 0.5153658 0.3365105 0.4536737 0.4216939 0.4334395 0.3540691 0.3767448 0.425162 0.3425083 0.4216939 0.4334395 0.4962549 0.3767448 0.5138135 0.4536737 0.4216939 0.4334395 0.4646157 0.5153658 0.3857084 0.5153658 0.4216939 0.4334395 0.3365105 0.4536737 0.3540691 0.3767448 0.4216939 0.4334395 0.2572383 0.5642635 0.1683121 0.5221891 0.1855573 0.5642635 0.8692919 0.6612827 0.8084025 0.6031423 0.8692919 0.5863609 0.201279 0.01105153 0.2821582 0.01105147 0.249342 0.07618153 0.8084025 0.6031423 0.8542772 0.5584471 0.8138018 0.5696023 0.8692919 0.6612827 0.8692919 0.5863609 0.8084025 0.6031423 0.1536783 0.2278311 0.1536783 0.2763106 0.1116938 0.2520709 0.2821582 0.01105147 0.2824379 0.0791676 0.249342 0.07618153 0.8084025 0.6031423 0.8542772 0.5584471 0.8692919 0.5863609 0.6550735 0.5694075 0.6550735 0.4837415 0.5094716 0.4906108 0.7730488 0.1853373 0.7730488 0.2780355 0.6274469 0.2760804 0.7730488 0.2780355 0.7730488 0.3523736 0.6274469 0.3444576 0.1928009 0.9003379 0.1928009 0.8052558 0.3384028 0.809068 0.5246797 0.6709114 0.4503415 0.6709114 0.4483864 0.8165134 0.2180991 0.1167083 0.1768445 0.2023744 0.1656918 0.1883894 0.4483864 0.8165134 0.4503415 0.6709114 0.3576433 0.6709115 0.5094716 0.6482042 0.6550735 0.6550735 0.6550735 0.5694075 0.07858836 0.4951859 0.1638534 0.4757246 0.2017998 0.396928 0.2017998 0.396928 0.1638534 0.3181313 0.07858836 0.2986701 0.07858836 0.2986701 0.01021116 0.3531991 0.01021116 0.4406569 0.01021116 0.4406569 0.07858836 0.4951859 0.2017998 0.396928 0.1768445 0.03104233 0.1656918 0.04502737 0.08812665 0.0273236 0.009808123 0.1642494 0.0259242 0.1564883 0.08812665 0.2060931 0.2180991 0.1167083 0.2002115 0.1167083 0.1656918 0.04502737 0.08414632 0.009884595 0.08812665 0.0273236 0.0259242 0.07692843 0.1768445 0.2023744 0.08414632 0.2235321 0.08812665 0.2060931 0.009808123 0.06916731 0.0259242 0.07692843 0.0259242 0.1564883 0.3461644 0.5221891 0.2572383 0.5221891 0.2572383 0.5642635 0.553831 0.1010967 0.5959054 0.1060049 0.5959054 0.009778916 0.8862051 0.1086615 0.8862051 0.009960889 0.9282795 0.0195313 0.1758757 0.6347312 0.2721018 0.6347312 0.2671935 0.6768056 0.5959054 0.1831722 0.5959054 0.1060049 0.553831 0.1010967 0.2721018 0.6347312 0.349269 0.6347312 0.329396 0.6768056 0.5959054 0.1060049 0.642655 0.1009293 0.642655 0.0240004 0.8862051 0.1086615 0.8394554 0.09876483 0.8394554 0.01985764 0.1758757 0.6347312 0.1900972 0.5879816 0.2670261 0.5879816 0.3461644 0.5221891 0.3283312 0.4754394 0.2572383 0.4754394 0.5959054 0.1831722 0.642655 0.1626214 0.642655 0.1009293 0.2721018 0.6347312 0.2670261 0.5879816 0.3287183 0.5879816 0.1683121 0.5221891 0.2572383 0.5221891 0.2572383 0.4754394 0.2572383 0.5642635 0.2572383 0.5221891 0.1683121 0.5221891 0.8084025 0.6031423 0.8692919 0.5863609 0.8542772 0.5584471 0.2821582 0.01105147 0.3042521 0.03587323 0.2824379 0.0791676 0.8084025 0.6031423 0.8138018 0.5696023 0.8542772 0.5584471</float_array>
          <technique_common>
            <accessor source="#Cupcake-mesh-map-0-array" count="234" stride="2">
              <param name="S" type="float"/>
              <param name="T" type="float"/>
            </accessor>
          </technique_common>
        </source>
        <vertices id="Cupcake-mesh-vertices">
          <input semantic="POSITION" source="#Cupcake-mesh-positions"/>
        </vertices>
        <triangles material="Cupcakes-material" count="78">
          <input semantic="VERTEX" source="#Cupcake-mesh-vertices" offset="0"/>
          <input semantic="NORMAL" source="#Cupcake-mesh-normals" offset="1"/>
          <input semantic="TEXCOORD" source="#Cupcake-mesh-map-0" offset="2" set="0"/>
          <p>1 0 0 2 1 1 0 2 2 3 3 3 4 4 4 2 1 5 5 5 6 6 6 7 4 4 8 7 7 9 8 8 10 6 6 11 9 9 12 10 10 13 8 8 14 1 0 15 20 11 16 15 12 17 10 10 18 13 13 19 12 14 20 12 14 21 1 0 22 0 2 23 2 1 24 6 6 25 10 10 26 3 3 27 16 15 28 5 5 29 9 9 30 19 16 31 11 17 32 1 0 33 14 18 34 3 3 35 5 5 36 17 19 37 7 7 38 13 13 39 19 16 40 20 11 41 7 7 42 18 20 43 9 9 44 27 21 45 15 12 46 20 11 47 19 16 48 27 21 49 20 11 50 24 22 51 18 20 52 17 19 53 21 23 54 16 15 55 14 18 56 25 24 57 19 16 58 18 20 59 23 25 60 17 19 61 16 15 62 26 26 63 34 27 64 27 21 65 29 28 66 34 27 67 35 29 68 24 22 69 32 30 70 25 24 71 21 23 72 30 31 73 23 25 74 27 21 75 29 28 76 22 32 77 25 24 78 33 33 79 26 26 80 23 25 81 31 34 82 24 22 83 21 23 84 29 28 85 28 35 86 33 33 87 32 30 88 35 29 89 31 34 90 30 31 91 35 29 92 28 35 93 29 28 94 35 29 95 34 27 96 33 33 97 35 29 98 32 30 99 31 34 100 35 29 101 30 31 102 28 35 103 35 29 104 15 12 105 21 23 106 14 18 107 38 36 108 37 37 109 39 38 110 38 36 111 39 38 112 41 39 113 37 37 114 42 40 115 36 41 116 38 36 117 41 39 118 37 37 119 40 42 120 36 41 121 42 40 122 39 38 123 42 40 124 41 39 125 37 37 126 40 42 127 39 38 128 1 0 129 3 3 130 2 1 131 3 3 132 5 5 133 4 4 134 5 5 135 7 7 136 6 6 137 7 7 138 9 9 139 8 8 140 9 9 141 11 17 142 10 10 143 1 0 144 13 13 145 20 11 146 10 10 147 11 17 148 13 13 149 12 14 150 13 13 151 1 0 152 12 14 153 0 2 154 2 1 155 2 1 156 4 4 157 6 6 158 6 6 159 8 8 160 10 10 161 10 10 162 12 14 163 2 1 164 3 3 165 14 18 166 16 15 167 9 9 168 18 20 169 19 16 170 1 0 171 15 12 172 14 18 173 5 5 174 16 15 175 17 19 176 13 13 177 11 17 178 19 16 179 7 7 180 17 19 181 18 20 182 27 21 183 22 32 184 15 12 185 19 16 186 26 26 187 27 21 188 24 22 189 25 24 190 18 20 191 21 23 192 23 25 193 16 15 194 25 24 195 26 26 196 19 16 197 23 25 198 24 22 199 17 19 200 26 26 201 33 33 202 34 27 203 24 22 204 31 34 205 32 30 206 21 23 207 28 35 208 30 31 209 27 21 210 34 27 211 29 28 212 25 24 213 32 30 214 33 33 215 23 25 216 30 31 217 31 34 218 21 23 219 22 32 220 29 28 221 15 12 222 22 32 223 21 23 224 37 37 225 41 39 226 42 40 227 39 38 228 40 42 229 42 40 230 37 37 231 36 41 232 40 42 233</p>
        </triangles>
      </mesh>
    </geometry>
  </library_geometries>
  <library_visual_scenes>
    <visual_scene id="Scene" name="Scene">
      <node id="Cupcake" name="Cupcake" type="NODE">
        <matrix sid="transform">-0.2166485 7.05931e-8 0 0 -7.05931e-8 -0.2166485 0 0 0 0 0.2166485 0 0 0 0 1</matrix>
        <instance_geometry url="#Cupcake-mesh" name="Cupcake">
          <bind_material>
            <technique_common>
              <instance_material symbol="Cupcakes-material" target="#Cupcakes-material">
                <bind_vertex_input semantic="UVMap" input_semantic="TEXCOORD" input_set="0"/>
              </instance_material>
            </technique_common>
          </bind_material>
        </instance_geometry>
      </node>
    </visual_scene>
  </library_visual_scenes>
  <scene>
    <instance_visual_scene url="#Scene"/>
  </scene>
</COLLADA>