<?xml version="1.0" encoding="utf-8"?>
<COLLADA xmlns="http://www.collada.org/2005/11/COLLADASchema" version="1.4.1" xmlns:xsi="http://www.w3.org/2001/XMLSchema-instance">
  <asset>
    <contributor>
      <author>Blender User</author>
      <authoring_tool>Blender 4.0.1 commit date:2023-11-16, commit time:16:40, hash:d0dd92834a08</authoring_tool>
    </contributor>
    <created>2023-11-28T13:38:51</created>
    <modified>2023-11-28T13:38:51</modified>
    <unit name="meter" meter="1"/>
    <up_axis>Z_UP</up_axis>
  </asset>
  <library_effects>
    <effect id="Ice_crea-effect">
      <profile_COMMON>
        <newparam sid="Ice_cream-surface">
          <surface type="2D">
            <init_from>Ice_cream</init_from>
          </surface>
        </newparam>
        <newparam sid="Ice_cream-sampler">
          <sampler2D>
            <source>Ice_cream-surface</source>
          </sampler2D>
        </newparam>
        <technique sid="common">
          <lambert>
            <emission>
              <color sid="emission">0 0 0 1</color>
            </emission>
            <diffuse>
              <texture texture="Ice_cream-sampler" texcoord="UVMap"/>
            </diffuse>
            <index_of_refraction>
              <float sid="ior">1.45</float>
            </index_of_refraction>
          </lambert>
        </technique>
      </profile_COMMON>
    </effect>
  </library_effects>
  <library_images>
    <image id="Ice_cream" name="Ice_cream">
      <init_from>Ice_cream.png</init_from>
    </image>
  </library_images>
  <library_materials>
    <material id="Ice_crea-material" name="Ice_crea">
      <instance_effect url="#Ice_crea-effect"/>
    </material>
  </library_materials>
  <library_geometries>
    <geometry id="Ice_cream-mesh" name="Ice_cream">
      <mesh>
        <source id="Ice_cream-mesh-positions">
          <float_array id="Ice_cream-mesh-positions-array" count="111">-1.028165 -0.27458 1.289054 0.09046155 0.8741872 1.158094 -0.4073743 -1.055841 1.341884 0.7777165 0.5432227 1.158094 0.5882968 -1.055841 1.426617 0.9474545 -0.200448 1.158094 -0.05126172 0 -2.759263 0.4718593 -0.7968257 1.158094 1.209087 -0.2745801 1.479447 -0.2909362 -0.7968257 1.158094 0.09046125 1.133203 1.384251 -0.7665314 -0.200448 1.158094 0.9875297 0.6996362 1.460592 -0.5967935 0.5432227 1.158094 -0.8066073 0.6996362 1.307909 0.02940964 1.084515 1.671933 -0.8277542 0.6702346 1.598988 -1.039456 -0.2606452 1.580971 -0.4462804 -1.007153 1.631451 0.5050998 -1.007153 1.712415 1.098276 -0.2606453 1.762895 0.8865736 0.6702346 1.744879 -0.9908165 -0.225201 2.285063 -0.4678809 -0.8833118 2.329566 -0.8041828 0.5954498 2.300946 -0.04851901 0.9606736 2.365254 0.3708428 -0.8833118 2.400942 0.8937785 -0.225201 2.445445 0.7071448 0.5954498 2.429562 -0.6660487 -0.1250088 2.703419 -0.3416655 -0.5332427 2.731024 -0.5502776 0.3840507 2.713271 -0.08153033 0.6106034 2.753162 0.1786048 -0.5332427 2.7753 0.502988 -0.1250088 2.802905 0.3872169 0.3840507 2.793053 -0.1041421 0.00888592 2.977394</float_array>
          <technique_common>
            <accessor source="#Ice_cream-mesh-positions-array" count="37" stride="3">
              <param name="X" type="float"/>
              <param name="Y" type="float"/>
              <param name="Z" type="float"/>
            </accessor>
          </technique_common>
        </source>
        <source id="Ice_cream-mesh-normals">
          <float_array id="Ice_cream-mesh-normals-array" count="126">-0.03463757 0.001187145 -0.9993993 0.02191889 0.827091 -0.5616406 0.6862191 0.5299641 -0.4982383 0.8510103 -0.191329 -0.489055 0.3970217 -0.7410281 -0.5415267 -0.3234532 -0.7074343 -0.6284224 -0.7221674 -0.1535497 -0.6744604 -0.6850306 0.5757739 -0.446338 0.04012292 0.9561049 -0.2902647 -0.5939709 0.4817331 -0.6443073 0.7377378 -0.1673206 -0.6540235 0.3529422 -0.5922611 -0.7243332 0.6185908 0.4398656 -0.6510482 -0.4347495 -0.1094694 -0.8938732 -0.9724307 -0.2316755 -0.0265544 -0.7892763 0.6122826 0.04639941 -0.1962598 -0.5283173 -0.8260527 -0.4526057 -0.8844743 0.1133736 0.3463112 -0.8100601 0.4731504 -0.4299286 -0.8111495 0.3964819 -0.02961564 0.9857916 0.1653418 0.7422187 0.5865011 0.3242343 0.9181845 -0.2186008 0.33038 0.9072828 -0.2088988 0.3649646 -0.4127127 -0.9056995 0.09683299 0.3909766 -0.8857718 0.2500917 -0.9756742 -0.2179257 0.0238403 0.732411 0.6147759 0.2926171 0.4236142 -0.8644847 0.2705869 -0.9186659 -0.2022573 0.3393304 -0.3234127 -0.5251314 0.7871731 -0.6448131 -0.1262068 0.7538488 -0.0393157 0.9116244 0.4091396 0.6674563 0.5656809 0.4842594 0.8347066 -0.2016659 0.512441 -0.7483896 0.5667481 0.3445426 0.3974919 0.3783253 0.8359845 -0.06730884 0.6057977 0.7927665 -0.08695626 0 0.9962121 0.5069937 -0.1258835 0.8527079 -0.5335687 0.3790405 0.7560641 0.1857439 -0.524551 0.8308703</float_array>
          <technique_common>
            <accessor source="#Ice_cream-mesh-normals-array" count="42" stride="3">
              <param name="X" type="float"/>
              <param name="Y" type="float"/>
              <param name="Z" type="float"/>
            </accessor>
          </technique_common>
        </source>
        <source id="Ice_cream-mesh-map-0">
          <float_array id="Ice_cream-mesh-map-0-array" count="420">0.7783852 0.7783834 0.2471204 0.4560121 0.1872705 0.5470511 0.7551823 0.7440193 0.3147023 0.2978645 0.4091794 0.227345 0.7551823 0.7440193 0.4091794 0.227345 0.484944 0.1707928 0.7112768 0.6262572 0.6283468 0.005241334 0.7492721 0.005241274 0.6262573 0.7302544 0.005241334 0.6039342 0.005241334 0.6984775 0.743166 0.6717073 0.8717222 0.6049001 0.7176212 0.6395592 0.6262573 0.7302544 0.005241334 0.6984775 0.005241334 0.8163711 0.7783852 0.7783834 0.3069705 0.3649731 0.2471204 0.4560121 0.8606292 0.9167227 0.7176212 0.9246112 0.8717222 0.9603543 0.1872705 0.5470511 0.2171621 0.436317 0.1289276 0.5485012 0.9553048 0.8414933 0.9953017 0.7039658 0.9555174 0.720568 0.4091794 0.227345 0.2661466 0.2742667 0.3881245 0.1794902 0.7339939 0.4673184 0.7860167 0.3185163 0.7399709 0.3129632 0.9555174 0.720568 0.8717222 0.6049001 0.8611068 0.6450061 0.8606292 0.9167227 0.9953017 0.8621579 0.9553048 0.8414933 0.005682945 0.05138283 0.1450982 0.1619461 0.01165533 0.1619461 0.3053966 0.3241329 0.1843702 0.4031767 0.2171621 0.436317 0.2661466 0.2742667 0.3594759 0.1448019 0.3881245 0.1794902 0.007936 0.005120277 0.1570497 0.05138283 0.005682945 0.05138283 0.7339939 0.4673184 0.7860165 0.5844811 0.7803055 0.4660052 0.2171621 0.436317 0.1000607 0.5103706 0.1289276 0.5485012 0.4923866 0.1121178 0.3594759 0.1448019 0.4591001 0.08042645 0.8920125 0.4625471 0.9617522 0.5127396 0.9586291 0.44795 0.2686797 0.2959828 0.09931415 0.3324754 0.1843702 0.4031767 0.1843702 0.4031767 0.02498799 0.4269761 0.1000607 0.5103706 0.4591001 0.08042645 0.2902494 0.06145083 0.3780768 0.004698395 0.7860167 0.3185163 0.8920125 0.4625471 0.8970473 0.332523 0.242924 0.2353625 0.2902494 0.06145083 0.3594759 0.1448019 0.7803055 0.4660052 0.8970473 0.5669939 0.8920125 0.4625471 0.7984554 0.1900752 0.7989892 0.1075426 0.8861844 0.1463894 0.7460117 0.2208173 0.862793 0.2421341 0.8497298 0.3047412 0.1450982 0.1619461 0.03698867 0.2236632 0.01165533 0.1619461 0.8970473 0.332523 0.9586291 0.44795 0.9617522 0.3672945 0.09931415 0.3324754 0.004698336 0.3529412 0.02498799 0.4269761 0.8497298 0.3047412 0.9435545 0.2245181 0.9799249 0.2763425 0.09931415 0.3324754 0.0969091 0.2357015 0.05080372 0.2943214 0.9435545 0.2245181 0.862793 0.2421341 0.8861844 0.1463894 0.7989892 0.1075426 0.8639925 0.0566852 0.8861844 0.1463894 0.9445165 0.07579946 0.9799249 0.1504921 0.8861844 0.1463894 0.862793 0.2421341 0.7984554 0.1900752 0.8861844 0.1463894 0.9799249 0.1504921 0.9435545 0.2245181 0.8861844 0.1463894 0.8639925 0.0566852 0.9445165 0.07579946 0.8861844 0.1463894 0.743166 0.6717073 0.8611068 0.6450061 0.8717222 0.6049001 0.8606292 0.9167227 0.742783 0.8896071 0.7176212 0.9246112 0.1872705 0.5470511 0.2471204 0.4560121 0.2171621 0.436317 0.9553048 0.8414933 0.9953017 0.8621579 0.9953017 0.7039658 0.4091794 0.227345 0.3147023 0.2978645 0.2661466 0.2742667 0.7339939 0.4673184 0.7803055 0.4660052 0.7860167 0.3185163 0.9555174 0.720568 0.9953017 0.7039658 0.8717222 0.6049001 0.8606292 0.9167227 0.8717222 0.9603543 0.9953017 0.8621579 0.005682945 0.05138283 0.1570497 0.05138283 0.1450982 0.1619461 0.3053966 0.3241329 0.2686797 0.2959828 0.1843702 0.4031767 0.2661466 0.2742667 0.242924 0.2353625 0.3594759 0.1448019 0.007936 0.005120277 0.1663495 0.005120277 0.1570497 0.05138283 0.7339939 0.4673184 0.7399709 0.5913099 0.7860165 0.5844811 0.2171621 0.436317 0.1843702 0.4031767 0.1000607 0.5103706 0.4923866 0.1121178 0.3881245 0.1794902 0.3594759 0.1448019 0.8920125 0.4625471 0.8970473 0.5669939 0.9617522 0.5127396 0.2686797 0.2959828 0.1736402 0.2379748 0.09931415 0.3324754 0.1843702 0.4031767 0.09931415 0.3324754 0.02498799 0.4269761 0.4591001 0.08042645 0.3594759 0.1448019 0.2902494 0.06145083 0.7860167 0.3185163 0.7803055 0.4660052 0.8920125 0.4625471 0.242924 0.2353625 0.1874988 0.1412878 0.2902494 0.06145083 0.7803055 0.4660052 0.7860165 0.5844811 0.8970473 0.5669939 0.7460117 0.2208173 0.7984554 0.1900752 0.862793 0.2421341 0.1450982 0.1619461 0.1197649 0.2236632 0.03698867 0.2236632 0.8970473 0.332523 0.8920125 0.4625471 0.9586291 0.44795 0.09931415 0.3324754 0.05080372 0.2943214 0.004698336 0.3529412 0.8497298 0.3047412 0.862793 0.2421341 0.9435545 0.2245181 0.09931415 0.3324754 0.1736402 0.2379748 0.0969091 0.2357015</float_array>
          <technique_common>
            <accessor source="#Ice_cream-mesh-map-0-array" count="210" stride="2">
              <param name="S" type="float"/>
              <param name="T" type="float"/>
            </accessor>
          </technique_common>
        </source>
        <vertices id="Ice_cream-mesh-vertices">
          <input semantic="POSITION" source="#Ice_cream-mesh-positions"/>
        </vertices>
        <triangles material="Ice_crea-material" count="70">
          <input semantic="VERTEX" source="#Ice_cream-mesh-vertices" offset="0"/>
          <input semantic="NORMAL" source="#Ice_cream-mesh-normals" offset="1"/>
          <input semantic="TEXCOORD" source="#Ice_cream-mesh-map-0" offset="2" set="0"/>
          <p>6 0 0 1 1 1 3 2 2 6 0 3 3 2 4 5 3 5 6 0 6 5 3 7 7 4 8 6 0 9 7 4 10 9 5 11 6 0 12 9 5 13 11 6 14 1 1 15 14 7 16 10 8 17 6 0 18 11 6 19 13 9 20 6 0 21 13 9 22 1 1 23 7 4 24 8 10 25 4 11 26 3 2 27 10 8 28 12 12 29 9 5 30 0 13 31 11 6 32 5 3 33 12 12 34 8 10 35 0 14 36 16 15 37 14 7 38 11 6 39 14 7 40 13 9 41 7 4 42 2 16 43 9 5 44 18 17 45 26 18 46 23 19 47 14 7 48 15 20 49 10 8 50 12 21 51 20 22 52 8 23 53 2 24 54 19 25 55 18 17 56 0 14 57 18 17 58 17 26 59 10 8 60 21 27 61 12 21 62 4 28 63 20 22 64 19 25 65 22 29 66 30 30 67 29 31 68 16 15 69 25 32 70 15 20 71 15 20 72 28 33 73 21 27 74 19 25 75 27 34 76 26 18 77 16 15 78 22 29 79 24 35 80 21 27 81 27 34 82 20 22 83 17 26 84 23 19 85 22 29 86 35 36 87 32 37 88 36 38 89 28 33 90 34 39 91 27 34 92 26 18 93 30 30 94 23 19 95 24 35 96 29 31 97 31 40 98 25 32 99 35 36 100 28 33 101 27 34 102 33 41 103 26 18 104 25 32 105 31 40 106 32 37 107 33 41 108 34 39 109 36 38 110 32 37 111 31 40 112 36 38 113 29 31 114 30 30 115 36 38 116 34 39 117 35 36 118 36 38 119 30 30 120 33 41 121 36 38 122 31 40 123 29 31 124 36 38 125 1 1 126 13 9 127 14 7 128 7 4 129 5 3 130 8 10 131 3 2 132 1 1 133 10 8 134 9 5 135 2 16 136 0 13 137 5 3 138 3 2 139 12 12 140 0 14 141 17 26 142 16 15 143 11 6 144 0 13 145 14 7 146 7 4 147 4 11 148 2 16 149 18 17 150 19 25 151 26 18 152 14 7 153 16 15 154 15 20 155 12 21 156 21 27 157 20 22 158 2 24 159 4 28 160 19 25 161 0 14 162 2 24 163 18 17 164 10 8 165 15 20 166 21 27 167 4 28 168 8 23 169 20 22 170 22 29 171 23 19 172 30 30 173 16 15 174 24 35 175 25 32 176 15 20 177 25 32 178 28 33 179 19 25 180 20 22 181 27 34 182 16 15 183 17 26 184 22 29 185 21 27 186 28 33 187 27 34 188 17 26 189 18 17 190 23 19 191 28 33 192 35 36 193 34 39 194 26 18 195 33 41 196 30 30 197 24 35 198 22 29 199 29 31 200 25 32 201 32 37 202 35 36 203 27 34 204 34 39 205 33 41 206 25 32 207 24 35 208 31 40 209</p>
        </triangles>
      </mesh>
    </geometry>
  </library_geometries>
  <library_visual_scenes>
    <visual_scene id="Scene" name="Scene">
      <node id="Ice_cream" name="Ice_cream" type="NODE">
        <matrix sid="transform">-0.04351143 1.41778e-8 0 0 -1.41778e-8 -0.04351143 0 0 0 0 0.04351143 0 0 0 0 1</matrix>
        <instance_geometry url="#Ice_cream-mesh" name="Ice_cream">
          <bind_material>
            <technique_common>
              <instance_material symbol="Ice_crea-material" target="#Ice_crea-material">
                <bind_vertex_input semantic="UVMap" input_semantic="TEXCOORD" input_set="0"/>
              </instance_material>
            </technique_common>
          </bind_material>
        </instance_geometry>
      </node>
    </visual_scene>
  </library_visual_scenes>
  <scene>
    <instance_visual_scene url="#Scene"/>
  </scene>
</COLLADA>