<?xml version="1.0" encoding="utf-8"?>
<COLLADA xmlns="http://www.collada.org/2005/11/COLLADASchema" version="1.4.1" xmlns:xsi="http://www.w3.org/2001/XMLSchema-instance">
  <asset>
    <contributor>
      <author>Blender User</author>
      <authoring_tool>Blender 4.0.1 commit date:2023-11-16, commit time:16:40, hash:d0dd92834a08</authoring_tool>
    </contributor>
    <created>2023-11-28T13:20:12</created>
    <modified>2023-11-28T13:20:12</modified>
    <unit name="meter" meter="1"/>
    <up_axis>Z_UP</up_axis>
  </asset>
  <library_effects>
    <effect id="Toilet-effect">
      <profile_COMMON>
        <newparam sid="Toilet-surface">
          <surface type="2D">
            <init_from>Toilet</init_from>
          </surface>
        </newparam>
        <newparam sid="Toilet-sampler">
          <sampler2D>
            <source>Toilet-surface</source>
          </sampler2D>
        </newparam>
        <technique sid="common">
          <lambert>
            <emission>
              <color sid="emission">0 0 0 1</color>
            </emission>
            <diffuse>
              <texture texture="Toilet-sampler" texcoord="UVMap"/>
            </diffuse>
            <index_of_refraction>
              <float sid="ior">1.45</float>
            </index_of_refraction>
          </lambert>
        </technique>
      </profile_COMMON>
    </effect>
  </library_effects>
  <library_images>
    <image id="Toilet" name="Toilet">
      <init_from>Toilet.png</init_from>
    </image>
  </library_images>
  <library_materials>
    <material id="Toilet-material" name="Toilet">
      <instance_effect url="#Toilet-effect"/>
    </material>
  </library_materials>
  <library_geometries>
    <geometry id="Toilet-mesh" name="Toilet">
      <mesh>
        <source id="Toilet-mesh-positions">
          <float_array id="Toilet-mesh-positions-array" count="300">-0.2865749 -1.421835 -1.768976 -0.6623023 -1.046107 -1.768976 -0.5941959 -0.95951 -0.7254306 -0.2571023 -1.296604 -0.7254306 -0.4809242 0.6382717 -1.768976 -0.2080848 1.013999 -1.768976 -0.1866829 0.8887678 -0.7254306 -0.4314678 0.5516743 -0.7254306 0.662414 -1.046107 -1.768976 0.2866865 -1.421835 -1.768976 0.257214 -1.296604 -0.7254306 0.5943076 -0.95951 -0.7254306 0.2081965 1.013999 -1.768976 0.4810359 0.6382717 -1.768976 0.4315795 0.5516743 -0.7254306 0.1867946 0.8887678 -0.7254306 -0.6623023 -0.2589926 -1.768976 -0.5941959 -0.2039178 -0.7254306 0.662414 -0.2589926 -1.768976 0.5943076 -0.2039178 -0.7254306 0.4315795 -0.07946538 -0.7254306 0.4810359 -0.03616666 -1.768976 -0.4809242 -0.03616666 -1.768976 -0.4314678 -0.07946538 -0.7254306 -0.3284349 -1.669463 -0.317878 -0.7590342 -1.257222 -0.317878 -0.5511674 0.3977746 -0.317878 -0.238482 0.5438222 -0.317878 0.2385938 0.5438222 -0.317878 0.5512791 0.3977746 -0.317878 0.7591459 -1.257222 -0.317878 0.3285466 -1.669463 -0.317878 -0.5511674 0.0229808 -0.317878 0.5512791 0.0229808 -0.317878 -0.7590342 -0.1359933 -0.317878 0.7591459 -0.1359933 -0.317878 -0.385106 -1.86038 0.03092825 -0.8899922 -1.377019 0.03092825 -0.6462643 0.5634964 0.03092825 -0.2796345 0.73474 -0.05168378 0.2797462 0.73474 -0.05168378 0.646376 0.5634964 0.03092825 0.8901039 -1.377019 0.03092825 0.3852177 -1.86038 0.03092825 -0.7847242 0.2525485 0.008900523 0.7848359 0.2525485 0.008900523 -0.8899922 -0.062357 0.03092825 0.8901039 -0.062357 0.03092825 -0.385106 -1.86038 0.3063016 -0.8899922 -1.377019 0.3063016 -0.6462643 0.5634964 0.3063016 -0.2796345 0.73474 0.3063016 0.2797462 0.73474 0.3063016 0.646376 0.5634964 0.3063016 0.8901039 -1.377019 0.3063016 0.3852177 -1.86038 0.3063016 -0.7847242 0.2525485 0.3283293 0.7848359 0.2525485 0.3283293 -0.8899922 -0.062357 0.3063016 0.8901039 -0.062357 0.3063016 -0.4692795 1.132601 0.1318985 -0.2030456 1.303845 0.1318985 0.2031573 1.303845 0.1318985 0.4693912 1.132601 0.1318985 -0.4692795 1.132601 0.3063016 -0.2030456 1.303845 0.3063016 0.2031573 1.303845 0.3063016 0.4693912 1.132601 0.3063016 -0.3193567 -1.691995 0.3063016 -0.7380559 -1.291147 0.3063016 0.7381677 -1.291147 0.3063016 0.3194684 -1.691995 0.3063016 -0.7380559 -0.4162287 0.3063016 0.7381677 -0.4162287 0.3063016 0.416349 -0.08529359 0.3063016 -0.4162373 -0.08529359 0.3063016 -0.147082 -1.175678 -0.528364 -0.3399565 -0.9910269 -0.528364 0.3400682 -0.9910269 -0.528364 0.1471937 -1.175678 -0.528364 -0.3399565 -0.6710246 -0.528364 0.3400682 -0.6710246 -0.528364 0.191822 -0.5185788 -0.528364 -0.1917102 -0.5185788 -0.528364 -0.6489706 0.6014026 0.2949251 -0.7886838 0.7491965 0.2949251 -0.7886838 0.7491965 1.838921 -0.6489706 0.6014026 1.838921 -0.7886838 1.154796 0.2949251 -0.6489706 1.30259 0.2949251 -0.6489706 1.30259 1.838921 -0.7886838 1.154796 1.838921 0.7887955 0.7491965 0.2949251 0.6490823 0.6014026 0.2949251 0.6490823 0.6014026 1.838921 0.7887955 0.7491965 1.838921 0.6490823 1.30259 0.2949251 0.7887955 1.154796 0.2949251 0.7887955 1.154796 1.838921 0.6490823 1.30259 1.838921</float_array>
          <technique_common>
            <accessor source="#Toilet-mesh-positions-array" count="100" stride="3">
              <param name="X" type="float"/>
              <param name="Y" type="float"/>
              <param name="Z" type="float"/>
            </accessor>
          </technique_common>
        </source>
        <source id="Toilet-mesh-normals">
          <float_array id="Toilet-mesh-normals-array" count="408">0.3767927 -0.8618957 -0.3393568 -0.3756574 -0.918842 0.1208756 0.3756574 -0.918842 0.1208755 0.9461901 0.32049 0.04483819 0.9207666 -0.310823 -0.2357497 0.9152477 -0.3921821 0.09227788 0.8255149 0.4008705 -0.3972759 0.7988452 -0.3477535 -0.4908298 -0.9383402 0.3436622 0.03760677 -0.9148926 0.3938416 0.08865821 -0.9447988 0.3197962 0.07131433 -0.401308 0.8488307 0.3441489 0.4422527 0.8893833 0.115801 -0.4422526 0.8893833 0.115801 -0.3767927 -0.8618958 -0.3393568 -0.9152477 -0.3921821 0.09227788 0.9447988 0.3197961 0.07131439 0.401308 0.8488307 0.344149 0.9148926 0.3938416 0.08865821 -0.9207667 -0.3108231 -0.2357497 -0.9461901 0.3204901 0.04483819 0.9383401 0.3436621 0.03760677 0.8788549 0.4401034 -0.1841826 -0.8788549 0.4401033 -0.1841826 0.9494198 0.1966869 -0.2447784 0.8929171 -0.3967968 -0.212724 0.3088009 0.9474976 -0.08300805 0.8099898 0.4462354 -0.3805136 -0.8255149 0.4008705 -0.3972758 0.8819633 0.4496952 -0.141121 0.8173811 0.3610772 -0.4489002 0.3031016 -0.7588934 -0.5763767 -0.7988452 -0.3477535 -0.4908298 -0.8819633 0.4496952 -0.141121 -0.8099898 0.4462354 -0.3805136 -0.8173811 0.3610773 -0.4489002 -0.3088009 0.9474976 -0.08300805 -0.3031017 -0.7588936 -0.5763767 0.002162337 0.02191168 0.9997577 0 0 1 -0.002162337 0.02191168 0.9997577 0.9038653 0.2996979 -0.3053014 0.3578394 -0.9019041 -0.2419091 -0.8929171 -0.3967969 -0.2127239 0.2055625 0.5545306 -0.8063746 -0.9038652 0.2996979 -0.3053014 -0.8101593 0.4798464 -0.3367337 -0.9494198 0.196687 -0.2447784 -0.2055625 0.5545306 -0.8063746 -0.3578394 -0.9019041 -0.241909 0.8101593 0.4798464 -0.3367337 -0.006599724 -0.01898902 0.9997979 0.006599724 -0.01898902 0.999798 0.9196578 -0.3927206 0 0.9320409 0.3623532 0 0.3726008 -0.9279918 0 0.9864737 0.1639202 0 -0.9196578 -0.3927206 0 0.246123 0.3068997 -0.9193673 -0.9354026 0.3535845 0 -0.9320409 0.362353 0 -0.8068972 0.5906919 0 -0.9864736 0.1639201 0 -0.3726008 -0.9279918 0 0.2819182 0.9594385 0 0.7958666 0.605472 0 0.8068972 0.5906919 0 -0.2819181 0.9594386 0 0.2819181 0.9594385 0 -0.2819181 0.9594386 0 0.07319676 0.3150879 -0.9462357 0 0 1 -0.03097748 0.06632208 0.9973173 -0.246123 0.3068997 -0.9193672 -0.07319682 0.315088 -0.9462357 0.9354026 0.3535845 0 0 0 1 0 0 1 -0.1384752 0.3514862 0.9258953 0.2122344 0.5142954 0.8309374 0.1384753 0.3514861 0.9258954 0.001530468 -0.03161233 0.9994992 -0.1529975 -0.3902504 0.9079078 0 0 1 0 0 1 0 0 1 -0.001530468 -0.03161233 0.9994992 0.1529975 -0.3902503 0.9079078 0.3547523 0.1625537 0.9207211 0 0 1 -0.3547522 0.1625537 0.9207211 0 0 1 0 0 1 -0.2122344 0.5142953 0.8309374 -0.5464882 0.2093054 0.8108897 0 0 1 0.5464882 0.2093054 0.8108896 -0.3266865 -0.8000455 0.5031931 -0.8026984 -0.3433179 0.4876559 -0.8188048 -0.3078898 0.4845231 0.8026983 -0.3433178 0.4876559 0.8188048 -0.30789 0.484523 0.3266863 -0.8000456 0.503193 0.3956252 -0.9184121 0 -0.3956252 -0.9184121 0 0.3956251 -0.9184122 0 0.9291646 0.3696663 0 0.9291646 -0.3696663 0 0.9291647 0.3696662 0 0 0 1 0 0 1 2.30418e-7 0 1 -0.9291647 -0.3696661 0 -0.9291647 0.3696661 0 -0.9291647 -0.3696662 0 -0.3956252 0.9184121 0 0.3956252 0.9184121 0 -0.3956254 0.9184121 0 -0.3956254 -0.9184121 0 -0.9291647 0.3696662 0 0.3956251 0.9184122 0 0.9291647 -0.3696662 0 0 0 -1 0 0 -1 0 0 -1 0.03097748 0.06632208 0.9973173 -0.7958666 0.605472 0 0 0 1 1.05183e-6 0 1 -2.30418e-7 0 1 0 0 1 -1.05183e-6 0 1 -1.31479e-7 0 -1 0 0 -1 0 0 -1 1.31479e-7 0 -1</float_array>
          <technique_common>
            <accessor source="#Toilet-mesh-normals-array" count="136" stride="3">
              <param name="X" type="float"/>
              <param name="Y" type="float"/>
              <param name="Z" type="float"/>
            </accessor>
          </technique_common>
        </source>
        <source id="Toilet-mesh-map-0">
          <float_array id="Toilet-mesh-map-0-array" count="1092">0.175488 0.6393854 0.09534025 0.4855797 0.1798319 0.4855797 0.2815762 0.6008082 0.4353819 0.7040558 0.2815762 0.7168192 0.4353819 0.7040558 0.4954501 0.5826796 0.4954501 0.7479348 0.2815761 0.178666 0.4353819 0.09202551 0.2815761 0.07926213 0.6712377 0.1602097 0.7294381 0.006403982 0.6680834 0.006403982 0.4353819 0.3644388 0.2815761 0.3275188 0.2815761 0.3828964 0.4353819 0.04234212 0.2815761 0.07926213 0.4353819 0.09202551 0.2815762 0.4685625 0.4353819 0.4316425 0.4353819 0.4813259 0.4353819 0.7537392 0.2815762 0.7168192 0.4353819 0.7040558 0.4353819 0.3147554 0.2815761 0.2115077 0.2815761 0.3275188 0.2815762 0.5679664 0.4353819 0.5926908 0.2815762 0.6008082 0.4353819 0.4813259 0.2815762 0.5679664 0.2815762 0.4685625 0.4353819 0.2033904 0.2815761 0.178666 0.2815761 0.2115077 0.4954501 0.7479348 0.5468599 0.5718265 0.5468599 0.7655915 0.762362 0.1602097 0.7339183 0.2202779 0.7800042 0.2202779 0.4353819 0.3147554 0.4954501 0.1933792 0.4353819 0.2033904 0.4353819 0.5743481 0.4954501 0.5040088 0.4954501 0.5592488 0.9012978 0.8005878 0.9482643 0.8580393 0.9482643 0.7701786 0.9699491 0.03681319 0.9229827 0.09426462 0.9714792 0.1070595 0.6712377 0.1602097 0.7339183 0.2202779 0.7262837 0.1602097 0.5762431 0.7917635 0.553231 0.8476102 0.5826264 0.8562437 0.4353819 0.1850477 0.4954501 0.1147084 0.4353819 0.09202551 0.5596143 0.8758105 0.5826264 0.9316571 0.5826264 0.8690517 0.6351594 0.1602097 0.6636032 0.2202779 0.6712377 0.1602097 0.175488 0.6393854 0.08917057 0.6994536 0.09968411 0.6393854 0.1788089 0.3888926 0.1076514 0.4727717 0.09636312 0.3888926 0.4954501 0.5040088 0.5436133 0.5254133 0.4954501 0.5592488 0.1860015 0.6994536 0.2687681 0.7508634 0.1943542 0.7508634 0.4954501 0.5592488 0.5468599 0.5718265 0.4954501 0.5826796 0.08917057 0.6994536 0.006403982 0.7508634 0.02570557 0.6994536 0.6636032 0.2202779 0.7399836 0.2595117 0.7339183 0.2202779 0.4954501 0.1147084 0.5436132 0.136113 0.5468599 0.09028309 0.4954501 0.1699484 0.5468599 0.1825261 0.5436132 0.136113 0.6175172 0.2202779 0.6575378 0.2595117 0.6636032 0.2202779 0.4954501 0.3586344 0.5468599 0.1825261 0.4954501 0.1933792 0.1860015 0.6994536 0.08081793 0.7508634 0.08917057 0.6994536 0.7800042 0.2202779 0.7399836 0.2595117 0.7940204 0.2716877 0.02191919 0.3178236 0.2532529 0.3178236 0.1788089 0.3888926 0.5468599 0.5718265 0.5874465 0.7655915 0.5468599 0.7655915 0.5468599 0.4795835 0.5906931 0.5254133 0.5436133 0.5254133 0.2687681 0.7508634 0.1943542 0.79145 0.1943542 0.7508634 0.5436133 0.5254133 0.5874465 0.5718265 0.5468599 0.5718265 0.08081793 0.7508634 0.006403982 0.79145 0.006403982 0.7508634 0.7645677 0.8242154 0.8232076 0.7962641 0.7393285 0.7701786 0.5436132 0.136113 0.5874465 0.09028309 0.5468599 0.09028309 0.5468599 0.1825261 0.5906931 0.136113 0.5436132 0.136113 0.5874465 0.09028309 0.5617416 0.006403982 0.5468599 0.09028309 0.5468599 0.3762911 0.5874465 0.1825261 0.5468599 0.1825261 0.1943542 0.7508634 0.08081793 0.79145 0.08081793 0.7508634 0.8612548 0.8094183 0.8869596 0.7701787 0.8612548 0.7701787 0.8612548 0.8692876 0.8869596 0.8094183 0.8612548 0.8094183 0.8612548 0.9085272 0.8869596 0.8692876 0.8612548 0.8692876 0.7645677 0.9066612 0.8484468 0.8355036 0.7645677 0.8242154 0.09636312 0.3888926 0.06841182 0.4475325 0.04232645 0.3636534 0.7645677 0.9066612 0.8232076 0.9346125 0.8484468 0.8953729 0.5874465 0.4795835 0.5617416 0.3957044 0.5874465 0.3957044 0.1788089 0.3888926 0.2067603 0.4475325 0.1675207 0.4727717 0.7265205 0.8335462 0.5983592 0.9035736 0.7265205 0.9302285 0.2687681 0.2714104 0.2005894 0.2712081 0.2492947 0.221123 0.006403982 0.07764542 0.02587741 0.221123 0.006403982 0.2714104 0.006403982 0.2714104 0.07458263 0.2712081 0.02191919 0.3178236 0.006403982 0.07764542 0.08924496 0.02804362 0.02587741 0.08870959 0.2687681 0.07764542 0.2492947 0.221123 0.2492947 0.08870959 0.02191919 0.3178236 0.2005894 0.2712081 0.2532529 0.3178236 0.1943542 0.006403982 0.08924496 0.02804362 0.08081793 0.006403982 0.2687681 0.07764542 0.1859272 0.02804362 0.1943542 0.006403982 0.2140313 0.8164956 0.2424587 0.8437109 0.220609 0.9133439 0.7265205 0.993596 0.5997924 0.9082928 0.5997924 0.9367201 0.1294234 0.9302648 0.006403982 0.8389975 0.1294234 0.8042581 0.4045956 0.8350898 0.2815761 0.8520439 0.2815761 0.8745125 0.540423 0.8350898 0.4174036 0.9216768 0.4174036 0.8745125 0.7265205 0.7701787 0.5997924 0.8554819 0.7265205 0.8335462 0.540423 0.8350898 0.4174036 0.8520439 0.540423 0.7850048 0.4045956 0.8350898 0.2815761 0.9216769 0.4045956 0.9675032 0.9109724 0.5120617 0.7196554 0.2844957 0.9109724 0.2844957 0.8883917 0.2339699 0.8286114 0.006403982 0.8883917 0.006403982 0.6035012 0.3050878 0.6252841 0.2844957 0.7068474 0.3050878 0.8294091 0.7573706 0.8891894 0.5298047 0.8294091 0.5298047 0.6035012 0.7573707 0.7948181 0.5298047 0.6035012 0.5298047 0.8076261 0.7573706 0.8294091 0.5298047 0.8076261 0.5298047 0.9109724 0.5298047 0.8891894 0.7573706 0.9109724 0.7573706 0.8883917 0.006403982 0.9101747 0.2339699 0.8883917 0.2339699 0.8068284 0.006403982 0.8286114 0.2339699 0.8068284 0.2339699 0.6010611 0.7383965 0.6227059 0.7588579 0.7037516 0.7383965 0.175488 0.6393854 0.09968411 0.6393854 0.09534025 0.4855797 0.2815762 0.6008082 0.4353819 0.5926908 0.4353819 0.7040558 0.4353819 0.7040558 0.4353819 0.5926908 0.4954501 0.5826796 0.2815761 0.178666 0.4353819 0.1850477 0.4353819 0.09202551 0.6712377 0.1602097 0.7262837 0.1602097 0.7294381 0.006403982 0.4353819 0.3644388 0.4353819 0.3147554 0.2815761 0.3275188 0.4353819 0.04234212 0.2815761 0.02388453 0.2815761 0.07926213 0.2815762 0.4685625 0.2815762 0.413185 0.4353819 0.4316425 0.4353819 0.7537392 0.2815762 0.7721968 0.2815762 0.7168192 0.4353819 0.3147554 0.4353819 0.2033904 0.2815761 0.2115077 0.2815762 0.5679664 0.4353819 0.5743481 0.4353819 0.5926908 0.4353819 0.4813259 0.4353819 0.5743481 0.2815762 0.5679664 0.4353819 0.2033904 0.4353819 0.1850477 0.2815761 0.178666 0.4954501 0.7479348 0.4954501 0.5826796 0.5468599 0.5718265 0.762362 0.1602097 0.7262837 0.1602097 0.7339183 0.2202779 0.4353819 0.3147554 0.4954501 0.3586344 0.4954501 0.1933792 0.4353819 0.5743481 0.4353819 0.4813259 0.4954501 0.5040088 0.9012978 0.8005878 0.8997677 0.8708342 0.9482643 0.8580393 0.9699491 0.03681319 0.9229827 0.006403982 0.9229827 0.09426462 0.6712377 0.1602097 0.6636032 0.2202779 0.7339183 0.2202779 0.5762431 0.7917635 0.553231 0.7850047 0.553231 0.8476102 0.4353819 0.1850477 0.4954501 0.1699484 0.4954501 0.1147084 0.5596143 0.8758105 0.553231 0.9402906 0.5826264 0.9316571 0.6351594 0.1602097 0.6175172 0.2202779 0.6636032 0.2202779 0.175488 0.6393854 0.1860015 0.6994536 0.08917057 0.6994536 0.1788089 0.3888926 0.1675207 0.4727717 0.1076514 0.4727717 0.4954501 0.5040088 0.5468599 0.4795835 0.5436133 0.5254133 0.1860015 0.6994536 0.2494665 0.6994536 0.2687681 0.7508634 0.4954501 0.5592488 0.5436133 0.5254133 0.5468599 0.5718265 0.08917057 0.6994536 0.08081793 0.7508634 0.006403982 0.7508634 0.6636032 0.2202779 0.6575378 0.2595117 0.7399836 0.2595117 0.4954501 0.1147084 0.4954501 0.1699484 0.5436132 0.136113 0.4954501 0.1699484 0.4954501 0.1933792 0.5468599 0.1825261 0.6175172 0.2202779 0.6035011 0.2716877 0.6575378 0.2595117 0.4954501 0.3586344 0.5468599 0.3762911 0.5468599 0.1825261 0.1860015 0.6994536 0.1943542 0.7508634 0.08081793 0.7508634 0.7800042 0.2202779 0.7339183 0.2202779 0.7399836 0.2595117 0.2532529 0.3178236 0.2328457 0.3636534 0.1788089 0.3888926 0.1788089 0.3888926 0.09636312 0.3888926 0.02191919 0.3178236 0.09636312 0.3888926 0.04232645 0.3636534 0.02191919 0.3178236 0.5468599 0.5718265 0.5874465 0.5718265 0.5874465 0.7655915 0.5468599 0.4795835 0.5874465 0.4795835 0.5906931 0.5254133 0.2687681 0.7508634 0.2687681 0.79145 0.1943542 0.79145 0.5436133 0.5254133 0.5906931 0.5254133 0.5874465 0.5718265 0.08081793 0.7508634 0.08081793 0.79145 0.006403982 0.79145 0.7645677 0.8242154 0.8484468 0.8355036 0.8232076 0.7962641 0.5436132 0.136113 0.5906931 0.136113 0.5874465 0.09028309 0.5468599 0.1825261 0.5874465 0.1825261 0.5906931 0.136113 0.5874465 0.09028309 0.5874465 0.006403982 0.5617416 0.006403982 0.5468599 0.3762911 0.5874465 0.3762911 0.5874465 0.1825261 0.1943542 0.7508634 0.1943542 0.79145 0.08081793 0.79145 0.8612548 0.8094183 0.8869596 0.8094183 0.8869596 0.7701787 0.8612548 0.8692876 0.8869596 0.8692876 0.8869596 0.8094183 0.8612548 0.9085272 0.8869596 0.9085272 0.8869596 0.8692876 0.7645677 0.9066612 0.8484468 0.8953729 0.8484468 0.8355036 0.09636312 0.3888926 0.1076514 0.4727717 0.06841182 0.4475325 0.7645677 0.9066612 0.7393285 0.9606979 0.8232076 0.9346125 0.5874465 0.4795835 0.5468599 0.4795835 0.5617416 0.3957044 0.1788089 0.3888926 0.2328457 0.3636534 0.2067603 0.4475325 0.7265205 0.8335462 0.5983592 0.860201 0.5983592 0.9035736 0.2687681 0.2714104 0.2532529 0.3178236 0.2005894 0.2712081 0.006403982 0.07764542 0.02587741 0.08870959 0.02587741 0.221123 0.006403982 0.2714104 0.02587741 0.221123 0.07458263 0.2712081 0.006403982 0.07764542 0.08081793 0.006403982 0.08924496 0.02804362 0.2687681 0.07764542 0.2687681 0.2714104 0.2492947 0.221123 0.02191919 0.3178236 0.07458263 0.2712081 0.2005894 0.2712081 0.1943542 0.006403982 0.1859272 0.02804362 0.08924496 0.02804362 0.2687681 0.07764542 0.2492947 0.08870959 0.1859272 0.02804362 0.2424587 0.8908753 0.220609 0.9133439 0.2424587 0.8437109 0.220609 0.9133439 0.1640811 0.9133439 0.2140313 0.8164956 0.1640811 0.9133439 0.1422314 0.8908753 0.1422314 0.843711 0.1422314 0.843711 0.1706587 0.8164957 0.1640811 0.9133439 0.1706587 0.8164957 0.2140313 0.8164956 0.1640811 0.9133439 0.7265205 0.993596 0.7265205 0.9302285 0.5997924 0.9082928 0.1294234 0.9302648 0.006403982 0.8955254 0.006403982 0.8389975 0.4045956 0.8350898 0.4045956 0.7850048 0.2815761 0.8520439 0.540423 0.8350898 0.540423 0.9675032 0.4174036 0.9216768 0.7265205 0.7701787 0.5997924 0.8270545 0.5997924 0.8554819 0.540423 0.8350898 0.4174036 0.8745125 0.4174036 0.8520439 0.4045956 0.8350898 0.2815761 0.8745125 0.2815761 0.9216769 0.9109724 0.5120617 0.7196554 0.5120617 0.7196554 0.2844957 0.8883917 0.2339699 0.8286114 0.2339699 0.8286114 0.006403982 0.6252841 0.2844957 0.6850644 0.2844957 0.7068474 0.3050878 0.7068474 0.3050878 0.7068474 0.4964047 0.6035012 0.4964047 0.7068474 0.4964047 0.6850644 0.5169967 0.6035012 0.4964047 0.6850644 0.5169967 0.6252841 0.5169967 0.6035012 0.4964047 0.6035012 0.4964047 0.6035012 0.3050878 0.7068474 0.3050878 0.8294091 0.7573706 0.8891894 0.7573706 0.8891894 0.5298047 0.6035012 0.7573707 0.7948181 0.7573707 0.7948181 0.5298047 0.8076261 0.7573706 0.8294091 0.7573706 0.8294091 0.5298047 0.9109724 0.5298047 0.8891894 0.5298047 0.8891894 0.7573706 0.8883917 0.006403982 0.9101747 0.006403982 0.9101747 0.2339699 0.8068284 0.006403982 0.8286114 0.006403982 0.8286114 0.2339699 0.6227059 0.7588579 0.6821068 0.7588579 0.7037516 0.7383965 0.7037516 0.7383965 0.7037516 0.5482937 0.6010611 0.5482937 0.7037516 0.5482937 0.6821068 0.5278323 0.6010611 0.5482937 0.6821068 0.5278323 0.6227059 0.5278323 0.6010611 0.5482937 0.6010611 0.5482937 0.6010611 0.7383965 0.7037516 0.7383965</float_array>
          <technique_common>
            <accessor source="#Toilet-mesh-map-0-array" count="546" stride="2">
              <param name="S" type="float"/>
              <param name="T" type="float"/>
            </accessor>
          </technique_common>
        </source>
        <vertices id="Toilet-mesh-vertices">
          <input semantic="POSITION" source="#Toilet-mesh-positions"/>
        </vertices>
        <triangles material="Toilet-material" count="182">
          <input semantic="VERTEX" source="#Toilet-mesh-vertices" offset="0"/>
          <input semantic="NORMAL" source="#Toilet-mesh-normals" offset="1"/>
          <input semantic="TEXCOORD" source="#Toilet-mesh-map-0" offset="2" set="0"/>
          <p>10 0 0 0 1 1 9 2 2 18 3 3 11 4 4 8 5 5 11 4 6 35 6 7 30 7 8 22 8 9 7 9 10 4 10 11 6 11 12 12 12 13 5 13 14 3 14 15 1 15 16 0 1 17 6 11 18 4 10 19 7 9 20 13 16 21 15 17 22 14 18 23 10 0 24 8 5 25 11 4 26 2 19 27 16 20 28 1 15 29 21 21 30 19 22 31 18 3 32 14 18 33 21 21 34 13 16 35 17 23 36 22 8 37 16 20 38 30 7 39 47 24 40 42 25 41 14 18 42 28 26 43 29 27 44 2 19 45 34 28 46 17 23 47 20 29 48 29 27 49 33 30 50 10 0 51 30 7 52 31 31 53 3 14 54 25 32 55 2 19 56 6 11 57 28 26 58 15 17 59 19 22 60 33 30 61 35 6 62 23 33 63 26 34 64 7 9 65 17 23 66 32 35 67 23 33 68 7 9 69 27 36 70 6 11 71 10 0 72 24 37 73 3 14 74 52 38 75 65 39 76 51 40 77 29 27 78 45 41 79 33 30 80 31 31 81 42 25 82 43 42 83 33 30 84 47 24 85 35 6 86 24 37 87 37 43 88 25 32 89 27 36 90 40 44 91 28 26 92 26 34 93 44 45 94 38 46 95 32 35 96 46 47 97 44 45 98 26 34 99 39 48 100 27 36 101 25 32 102 46 47 103 34 28 104 31 31 105 36 49 106 24 37 107 29 27 108 40 44 109 41 50 110 56 51 111 57 52 112 52 38 113 47 24 114 54 53 115 42 25 116 41 50 117 57 54 118 45 41 119 42 25 120 55 55 121 43 42 122 45 41 123 59 56 124 47 24 125 36 49 126 49 57 127 37 43 128 40 44 129 63 58 130 41 50 131 44 45 132 50 59 133 38 46 134 46 47 135 56 60 136 44 45 137 50 59 138 60 61 139 38 46 140 37 43 141 58 62 142 46 47 143 43 42 144 48 63 145 36 49 146 62 64 147 67 65 148 63 66 149 61 67 150 66 68 151 62 64 152 60 61 153 65 69 154 61 67 155 39 48 156 62 70 157 40 44 158 51 40 159 64 71 160 50 72 161 39 48 162 60 73 163 61 74 164 53 75 165 63 66 166 67 65 167 52 38 168 67 76 169 66 77 170 71 78 171 76 79 172 68 80 173 59 81 174 74 82 175 73 83 176 49 84 177 72 85 178 58 86 179 58 86 180 75 87 181 56 51 182 49 84 183 68 80 184 69 88 185 54 89 186 73 83 187 70 90 188 56 51 189 74 82 190 57 52 191 55 91 192 68 80 193 48 92 194 54 89 195 71 78 196 55 91 197 79 93 198 78 94 199 82 95 200 69 88 201 76 79 202 77 96 203 75 87 204 82 97 205 74 82 206 73 98 207 82 97 208 81 99 209 72 100 210 77 96 211 80 101 212 70 90 213 79 93 214 71 78 215 72 100 216 83 102 217 75 87 218 73 98 219 78 94 220 70 90 221 94 103 222 84 104 223 93 105 224 98 106 225 92 107 226 97 108 227 94 109 228 95 110 229 99 111 230 86 112 231 88 113 232 85 114 233 90 115 234 96 116 235 89 117 236 87 118 237 85 114 238 84 104 239 89 117 240 91 119 241 90 115 242 97 108 243 99 120 244 98 106 245 93 105 246 95 121 247 94 103 248 84 122 249 85 123 250 89 124 251 10 0 252 3 14 253 0 1 254 18 3 255 19 22 256 11 4 257 11 4 258 19 22 259 35 6 260 22 8 261 23 33 262 7 9 263 6 11 264 15 17 265 12 12 266 3 14 267 2 19 268 1 15 269 6 11 270 5 13 271 4 10 272 13 16 273 12 12 274 15 17 275 10 0 276 9 2 277 8 5 278 2 19 279 17 23 280 16 20 281 21 21 282 20 29 283 19 22 284 14 18 285 20 29 286 21 21 287 17 23 288 23 33 289 22 8 290 30 7 291 35 6 292 47 24 293 14 18 294 15 17 295 28 26 296 2 19 297 25 32 298 34 28 299 20 29 300 14 18 301 29 27 302 10 0 303 11 4 304 30 7 305 3 14 306 24 37 307 25 32 308 6 11 309 27 36 310 28 26 311 19 22 312 20 29 313 33 30 314 23 33 315 32 35 316 26 34 317 17 23 318 34 28 319 32 35 320 7 9 321 26 34 322 27 36 323 10 0 324 31 31 325 24 37 326 52 38 327 66 77 328 65 39 329 29 27 330 41 50 331 45 41 332 31 31 333 30 7 334 42 25 335 33 30 336 45 41 337 47 24 338 24 37 339 36 49 340 37 43 341 27 36 342 39 48 343 40 44 344 26 34 345 32 35 346 44 45 347 32 35 348 34 28 349 46 47 350 26 34 351 38 46 352 39 48 353 25 32 354 37 43 355 46 47 356 31 31 357 43 42 358 36 49 359 29 27 360 28 26 361 40 44 362 57 52 363 53 125 364 52 38 365 52 38 366 51 40 367 56 51 368 51 40 369 50 72 370 56 51 371 47 24 372 59 56 373 54 53 374 41 50 375 53 75 376 57 54 377 42 25 378 54 53 379 55 55 380 45 41 381 57 54 382 59 56 383 36 49 384 48 63 385 49 57 386 40 44 387 62 70 388 63 58 389 44 45 390 56 60 391 50 59 392 46 47 393 58 62 394 56 60 395 50 59 396 64 126 397 60 61 398 37 43 399 49 57 400 58 62 401 43 42 402 55 55 403 48 63 404 62 64 405 66 68 406 67 65 407 61 67 408 65 69 409 66 68 410 60 61 411 64 126 412 65 69 413 39 48 414 61 74 415 62 70 416 51 40 417 65 39 418 64 71 419 39 48 420 38 46 421 60 73 422 53 75 423 41 50 424 63 66 425 52 38 426 53 125 427 67 76 428 71 78 429 79 93 430 76 79 431 59 81 432 57 52 433 74 82 434 49 84 435 69 88 436 72 85 437 58 86 438 72 85 439 75 87 440 49 84 441 48 92 442 68 80 443 54 89 444 59 81 445 73 83 446 56 51 447 75 87 448 74 82 449 55 91 450 71 78 451 68 80 452 54 89 453 70 90 454 71 78 455 81 109 456 82 95 457 78 94 458 82 95 459 83 127 460 79 93 461 83 127 462 80 109 463 77 96 464 77 96 465 76 79 466 83 127 467 76 79 468 79 93 469 83 127 470 69 88 471 68 80 472 76 79 473 75 87 474 83 102 475 82 97 476 73 98 477 74 82 478 82 97 479 72 100 480 69 88 481 77 96 482 70 90 483 78 94 484 79 93 485 72 100 486 80 101 487 83 102 488 73 98 489 81 99 490 78 94 491 94 103 492 87 118 493 84 104 494 98 106 495 95 121 496 92 107 497 95 110 498 98 128 499 99 111 500 99 111 501 90 109 502 87 129 503 90 109 504 91 130 505 87 129 506 91 130 507 86 131 508 87 129 509 87 129 510 94 109 511 99 111 512 86 112 513 91 119 514 88 113 515 90 115 516 99 120 517 96 116 518 87 118 519 86 112 520 85 114 521 89 117 522 88 113 523 91 119 524 97 108 525 96 116 526 99 120 527 93 105 528 92 107 529 95 121 530 85 123 531 88 132 532 89 124 533 89 124 534 96 122 535 93 133 536 96 122 537 97 134 538 93 133 539 97 134 540 92 135 541 93 133 542 93 133 543 84 122 544 89 124 545</p>
        </triangles>
      </mesh>
    </geometry>
  </library_geometries>
  <library_visual_scenes>
    <visual_scene id="Scene" name="Scene">
      <node id="Toilet" name="Toilet" type="NODE">
        <matrix sid="transform">-0.2940979 -9.58293e-8 0 0 -9.58293e-8 0.2940979 0 0 0 0 0.2940979 0 0 0 0 1</matrix>
        <instance_geometry url="#Toilet-mesh" name="Toilet">
          <bind_material>
            <technique_common>
              <instance_material symbol="Toilet-material" target="#Toilet-material">
                <bind_vertex_input semantic="UVMap" input_semantic="TEXCOORD" input_set="0"/>
              </instance_material>
            </technique_common>
          </bind_material>
        </instance_geometry>
      </node>
    </visual_scene>
  </library_visual_scenes>
  <scene>
    <instance_visual_scene url="#Scene"/>
  </scene>
</COLLADA>