<?xml version="1.0" encoding="utf-8"?>
<COLLADA xmlns="http://www.collada.org/2005/11/COLLADASchema" version="1.4.1" xmlns:xsi="http://www.w3.org/2001/XMLSchema-instance">
  <asset>
    <contributor>
      <author>Blender User</author>
      <authoring_tool>Blender 4.0.1 commit date:2023-11-16, commit time:16:40, hash:d0dd92834a08</authoring_tool>
    </contributor>
    <created>2023-11-28T13:53:45</created>
    <modified>2023-11-28T13:53:45</modified>
    <unit name="meter" meter="1"/>
    <up_axis>Z_UP</up_axis>
  </asset>
  <library_effects>
    <effect id="Soda_fountain-effect">
      <profile_COMMON>
        <newparam sid="Soda_fountain-surface">
          <surface type="2D">
            <init_from>Soda_fountain</init_from>
          </surface>
        </newparam>
        <newparam sid="Soda_fountain-sampler">
          <sampler2D>
            <source>Soda_fountain-surface</source>
          </sampler2D>
        </newparam>
        <technique sid="common">
          <lambert>
            <emission>
              <color sid="emission">0 0 0 1</color>
            </emission>
            <diffuse>
              <texture texture="Soda_fountain-sampler" texcoord="UVMap"/>
            </diffuse>
            <index_of_refraction>
              <float sid="ior">1.45</float>
            </index_of_refraction>
          </lambert>
        </technique>
      </profile_COMMON>
    </effect>
  </library_effects>
  <library_images>
    <image id="Soda_fountain" name="Soda_fountain">
      <init_from>Soda_fountain.png</init_from>
    </image>
  </library_images>
  <library_materials>
    <material id="Soda_fountain-material" name="Soda_fountain">
      <instance_effect url="#Soda_fountain-effect"/>
    </material>
  </library_materials>
  <library_geometries>
    <geometry id="Soda_fountain-mesh" name="Soda_fountain">
      <mesh>
        <source id="Soda_fountain-mesh-positions">
          <float_array id="Soda_fountain-mesh-positions-array" count="258">-0.3148708 -0.3148708 -0.3148708 -0.1759977 -0.1449488 0.1333563 -0.3148708 0.3148708 -0.3148708 -0.1759977 0.1449488 0.1333563 0.3892346 -0.3148708 -0.3148708 0.1138999 -0.1449488 0.1333563 0.3892346 0.3148708 -0.3148708 0.1138999 0.1449488 0.1333563 -0.135396 -0.104347 2.036158 -0.135396 0.104347 2.036158 0.07329809 0.104347 2.036158 0.07329809 -0.104347 2.036158 -0.3019102 -0.299198 -0.2757162 -0.3019103 0.299198 -0.2757163 0.3643535 0.299198 -0.2757163 0.3643535 -0.299198 -0.2757163 -0.3148708 0 -0.3148708 -0.1759977 0 0.1333563 0.3892346 0 -0.3148708 0.03940778 0 0.1333563 -0.135396 0 2.036158 0.05849093 0 2.036158 0.008443117 0 -0.2757163 -0.3019103 0 -0.2757163 0.3020622 0 -0.3059074 0.3257996 0.210165 2.083751 0.3257996 0.2887514 2.012948 0.4901131 0.1310357 2.083751 0.5515546 0.1800336 2.012948 0.5306953 -0.0467661 2.083751 0.6073114 -0.06425321 2.012948 0.4169868 -0.189352 2.083751 0.4510841 -0.260156 2.012948 0.2346124 -0.189352 2.083751 0.200515 -0.260156 2.012948 0.1209039 -0.0467661 2.083751 0.04428774 -0.06425321 2.012948 0.161486 0.1310357 2.083751 0.1000446 0.1800336 2.012948 0.3271826 0.07774668 1.404427 0.3257996 0.2887514 1.656011 0.5515546 0.1800336 1.656011 0.387219 0.04883468 1.404427 0.6073114 -0.06425321 1.656011 0.4020467 -0.01612997 1.404427 0.4510841 -0.260156 1.656011 0.3605003 -0.06822758 1.404427 0.200515 -0.260156 1.656011 0.293865 -0.06822758 1.404427 0.04428774 -0.06425321 1.656011 0.2523185 -0.01612997 1.404427 0.1000446 0.1800336 1.656011 0.2671462 0.04883468 1.404427 0.3264911 0.195745 1.530219 0.4796654 0.1219801 1.530219 0.5174964 -0.04376798 1.530219 0.4114965 -0.1766877 1.530219 0.2414857 -0.1766877 1.530219 0.1354858 -0.04376798 1.530219 0.1733168 0.1219801 1.530219 0.3257996 -0.02396899 0.7887979 0.3257996 -0.02396899 1.433229 0.3018305 0 0.7887979 0.3018305 0 1.433229 0.3497686 0 0.7887979 0.3497686 0 1.433229 0.3257996 0.02396899 0.7887979 0.3257996 0.02396899 1.433229 0.07912516 0.05108028 1.405267 0.07912516 0.05108028 1.674456 0.1233626 -0.02554118 1.405267 0.1233626 -0.02554118 1.674456 0.03488773 -0.02554118 1.405267 0.03488773 -0.02554118 1.674456 0.3257996 0.08165037 0.7884545 0.3257996 0.08165037 0.805029 0.3965115 0.04082477 0.7884545 0.3965115 0.04082477 0.805029 0.3965115 -0.04082626 0.7884545 0.3965115 -0.04082626 0.805029 0.3257996 -0.0816518 0.7884545 0.3257996 -0.0816518 0.805029 0.2550877 -0.04082626 0.7884545 0.2550877 -0.04082626 0.805029 0.2550877 0.04082477 0.7884545 0.2550877 0.04082477 0.805029</float_array>
          <technique_common>
            <accessor source="#Soda_fountain-mesh-positions-array" count="86" stride="3">
              <param name="X" type="float"/>
              <param name="Y" type="float"/>
              <param name="Z" type="float"/>
            </accessor>
          </technique_common>
        </source>
        <source id="Soda_fountain-mesh-normals">
          <float_array id="Soda_fountain-mesh-normals-array" count="258">-0.9525993 0 0.3042279 -0.6923925 0.6719717 0.2627676 -0.6383651 0.6247387 0.4496573 0.8732647 0.4281452 0.2325952 0.5005127 0.4806095 0.7200706 0.8233787 0 0.5674924 0.8732647 -0.4281453 0.2325952 0.5005125 -0.4806095 0.7200707 -0.6383649 -0.6247387 0.4496574 0.9938731 0 -0.1105277 -0.6382676 -0.6577764 -0.3999311 -0.81063 0 -0.5855588 0.623701 0.5305905 0.5739956 0.6761335 0 0.7367792 -0.5716738 -0.5716733 0.5885396 0.623701 -0.5305905 0.5739956 0.9994424 0 -0.03339326 -0.9872328 0 0.1592846 -0.6995238 0 0.7146093 -0.6923925 -0.6719716 0.2627676 0.6928448 -0.6352786 -0.3411558 -0.6382673 0.6577765 -0.3999313 0.6928447 0.6352785 -0.3411561 -0.5716738 0.5716733 0.5885396 0.1022847 0 0.9947552 3.79532e-7 0.9290713 0.3699007 0.748362 0.5972051 -0.2886183 -3.86387e-4 0.9570561 -0.2899029 0.4031083 -0.8370645 0.369901 -0.4156103 -0.8621243 -0.2898447 0.4151481 -0.8627738 -0.2885712 -0.4031092 -0.8370643 0.3699005 -0.9328116 -0.2127243 -0.2908799 -0.9057773 -0.2067382 0.369901 -0.7481214 0.596396 -0.290906 0.7263765 0.5792669 0.3699014 0.9336159 -0.2130834 -0.2880223 0.9057777 -0.2067378 0.3699005 -0.7263767 0.5792668 0.3699014 0.3444924 0.2747238 0.8976926 0.4295762 -0.09804797 0.897692 0.1911781 -0.3969874 0.8976925 -0.1911801 -0.3969873 0.8976923 -0.429576 -0.09804821 0.897692 -0.3444935 0.2747237 0.8976922 0 0.4406228 0.8976923 0.6070622 0.4830946 -0.6309477 7.44369e-4 0.4838044 -0.8751758 5.0224e-4 0.7745576 -0.6325033 0.470517 -0.1060124 -0.8759996 0.3781404 0.3021802 -0.8750413 0.7559073 -0.1730311 -0.6313989 0.2092887 -0.4318636 -0.877321 0.3358893 -0.6970347 -0.6334992 -0.2075462 -0.4312987 -0.8780125 -0.7519556 -0.1723536 -0.6362838 -0.3342922 -0.6958298 -0.6356647 -0.6041519 0.4815832 -0.6348844 -0.4676674 -0.1057096 -0.8775607 -0.3757807 0.3014739 -0.8763005 -5.90293e-7 -1 0 -0.8164966 -8.39344e-7 -0.5773504 9.32452e-7 -0.8164967 -0.5773501 -1 1.0196e-6 0 -4.80603e-7 0.8164966 -0.5773503 1.12692e-6 1 0 0.8164967 4.88819e-7 -0.5773501 1 -5.90293e-7 0 0 1 0 0.7205764 -0.4160254 -0.5547004 -1.42077e-7 0.8320504 -0.5547002 0.8660255 -0.5 0 -0.7205771 -0.4160248 -0.5547001 -0.8660255 -0.5 0 0 0.7924061 0.609994 0.6862433 0.3962032 -0.6099944 -2.43039e-7 0.7924062 -0.6099939 0.6862434 0.3962032 0.6099944 0.6862434 -0.3962032 -0.6099944 0.6862435 -0.396203 0.6099942 1.54503e-6 -0.7924057 -0.6099945 1.44087e-6 -0.7924057 0.6099945 -0.6862445 -0.3962019 -0.6099939 -0.6862446 -0.3962017 0.6099939 -0.6862433 0.3962031 -0.6099944 -0.6862434 0.3962033 0.6099943</float_array>
          <technique_common>
            <accessor source="#Soda_fountain-mesh-normals-array" count="86" stride="3">
              <param name="X" type="float"/>
              <param name="Y" type="float"/>
              <param name="Z" type="float"/>
            </accessor>
          </technique_common>
        </source>
        <source id="Soda_fountain-mesh-map-0">
          <float_array id="Soda_fountain-mesh-map-0-array" count="894">0.5810745 0.02354288 0.6255411 0.1490359 0.6728609 0.02354288 0.01365828 0.02354288 0.1412184 0.149036 0.2180512 0.02354288 0.7073608 0.7949258 0.7518274 0.6694326 0.7991472 0.7949257 0.3782311 0.149036 0.2506709 0.02354288 0.4550639 0.02354288 0.8645824 0.3532668 0.767988 0.5692687 0.8645824 0.5692686 0.05228501 0.149036 0.1287627 0.7327676 0.1412184 0.149036 0.8697669 0.2186131 0.8377559 0.2780928 0.8377558 0.2140706 0.7073608 0.6694326 0.6753497 0.08570104 0.7073607 0.08570104 0.5810745 0.1490359 0.5490635 0.7327676 0.5810745 0.7327676 0.3782311 0.149036 0.3017533 0.7327676 0.2892977 0.149036 0.4550639 0.02354288 0.2466949 0.01153117 0.4626967 0.01153117 0.8645824 0.3532668 0.772796 0.3608997 0.767988 0.3532668 0.009682297 0.01153117 0.2180512 0.02354288 0.2256841 0.01153117 0.5810745 0.01153117 0.6728609 0.02354288 0.6776689 0.01153117 0.489288 0.02354288 0.5810745 0.01153117 0.48448 0.01153117 0.9563688 0.3608997 0.8645824 0.3532668 0.9611768 0.3532668 0.5810745 0.1490359 0.6130855 0.7327676 0.6255411 0.1490359 0.7073608 0.6694326 0.7393717 0.08570104 0.7518274 0.6694326 0.9017779 0.2780928 0.8697669 0.2186131 0.9017779 0.2140706 0.9611768 0.3532668 0.8645824 0.5692686 0.9611768 0.5692686 0.6628941 0.6694326 0.7073608 0.7949258 0.6155744 0.7949258 0.5366078 0.1490359 0.5810745 0.02354288 0.489288 0.02354288 0.772796 0.3608997 0.8645824 0.3800091 0.8645824 0.470084 0.8645824 0.3800091 0.9563688 0.3608997 0.8645824 0.470084 0.2100161 0.8789461 0.279272 0.769447 0.2100161 0.769447 0.257469 0.2552288 0.1806007 0.1457296 0.257469 0.1457296 0.9188485 0.5935316 0.8587505 0.7030308 0.9188485 0.7030307 0.8587505 0.5935316 0.7838094 0.7030308 0.8587505 0.7030308 0.940471 0.8110262 0.8309718 0.8859673 0.8309718 0.8110262 0.940471 0.8859673 0.8309718 0.9460653 0.8309718 0.8859673 0.1407601 0.8789461 0.2100161 0.769447 0.1407601 0.769447 0.6892373 0.9045923 0.6408541 0.854185 0.6558853 0.8353363 0.5809443 0.8182315 0.6408541 0.854185 0.5863089 0.8417354 0.5809443 0.8182315 0.5425671 0.8766184 0.5208463 0.8661581 0.5208463 0.8661581 0.5425671 0.9325662 0.5208463 0.9430264 0.5208463 0.9430264 0.5863089 0.9674491 0.5809443 0.990953 0.5809443 0.990953 0.6408541 0.9549996 0.6558853 0.9738482 0.6558853 0.9738482 0.665129 0.9045923 0.6892373 0.9045923 0.5425671 0.8766184 0.5863089 0.8417354 0.665129 0.9045923 0.2572183 0.7308573 0.2104404 0.6922674 0.2102282 0.7308573 0.7923821 0.8288356 0.7537923 0.8712043 0.7537923 0.8512747 0.370305 0.9150163 0.3461428 0.872683 0.341594 0.8926125 0.2453244 0.1071398 0.2092381 0.06855005 0.2296801 0.06855005 0.2972375 0.8233925 0.3333973 0.8567007 0.3493925 0.8233925 0.8016187 0.7416205 0.8439875 0.7802103 0.8524661 0.7416205 0.3129553 0.8567007 0.3002099 0.872683 0.3231763 0.9014819 0.2102282 0.7308573 0.1920228 0.6922674 0.1632382 0.7308573 0.2100161 0.769447 0.1632382 0.7308573 0.1407601 0.769447 0.8587505 0.7030308 0.8016187 0.7416205 0.8524661 0.7416205 0.9188485 0.7030307 0.8524661 0.7416205 0.8932425 0.7416205 0.257469 0.1457296 0.1931695 0.1071398 0.2453244 0.1071398 0.8309718 0.8859673 0.7923821 0.9204593 0.7923821 0.8796829 0.8309718 0.8859673 0.7923821 0.8288356 0.8309718 0.8110262 0.279272 0.769447 0.2102282 0.7308573 0.2100161 0.769447 0.4131212 0.749427 0.4244669 0.5337297 0.4131212 0.5337297 0.4594069 0.749427 0.4707527 0.5337297 0.4594069 0.5337297 0.4244669 0.749427 0.4131212 0.5337297 0.4244669 0.5337297 0.4707527 0.749427 0.4594069 0.5337297 0.4707527 0.5337297 0.4594069 0.6655278 0.4707527 0.654182 0.4594069 0.654182 0.4892653 0.830168 0.4606609 0.7400678 0.4892653 0.7400678 0.411123 0.830168 0.3901832 0.7400678 0.411123 0.7400678 0.3901832 0.830168 0.4187875 0.7400678 0.3901832 0.7400678 0.4187875 0.7303262 0.411123 0.7017218 0.3901832 0.7226617 0.4381187 0.5391624 0.4117205 0.5336148 0.4381187 0.5336148 0.4914779 0.5391624 0.472153 0.5336148 0.4914779 0.5336148 0.472153 0.5391624 0.4457548 0.5336148 0.472153 0.5336148 0.3994691 0.5391624 0.4258673 0.5336148 0.3994691 0.5336148 0.4386815 0.6669281 0.4457548 0.64053 0.472153 0.6334565 0.4386815 0.5391624 0.4580063 0.5336148 0.4386815 0.5336148 0.4580063 0.5391624 0.4844045 0.5336148 0.4580063 0.5336148 0.4386815 0.6669281 0.4580063 0.686253 0.4914779 0.6527814 0.5810745 0.02354288 0.5810745 0.1490359 0.6255411 0.1490359 0.01365828 0.02354288 0.05228501 0.149036 0.1412184 0.149036 0.7073608 0.7949258 0.7073608 0.6694326 0.7518274 0.6694326 0.3782311 0.149036 0.2892977 0.149036 0.2506709 0.02354288 0.8645824 0.3532668 0.767988 0.3532668 0.767988 0.5692687 0.05228501 0.149036 0.06474065 0.7327676 0.1287627 0.7327676 0.8697669 0.2186131 0.8697669 0.2780928 0.8377559 0.2780928 0.7073608 0.6694326 0.6628941 0.6694326 0.6753497 0.08570104 0.5810745 0.1490359 0.5366078 0.1490359 0.5490635 0.7327676 0.3782311 0.149036 0.3657754 0.7327676 0.3017533 0.7327676 0.4550639 0.02354288 0.2506709 0.02354288 0.2466949 0.01153117 0.8645824 0.3532668 0.8645824 0.3800091 0.772796 0.3608997 0.009682297 0.01153117 0.01365828 0.02354288 0.2180512 0.02354288 0.5810745 0.01153117 0.5810745 0.02354288 0.6728609 0.02354288 0.489288 0.02354288 0.5810745 0.02354288 0.5810745 0.01153117 0.9563688 0.3608997 0.8645824 0.3800091 0.8645824 0.3532668 0.5810745 0.1490359 0.5810745 0.7327676 0.6130855 0.7327676 0.7073608 0.6694326 0.7073607 0.08570104 0.7393717 0.08570104 0.9017779 0.2780928 0.8697669 0.2780928 0.8697669 0.2186131 0.9611768 0.3532668 0.8645824 0.3532668 0.8645824 0.5692686 0.6628941 0.6694326 0.7073608 0.6694326 0.7073608 0.7949258 0.5366078 0.1490359 0.5810745 0.1490359 0.5810745 0.02354288 0.2100161 0.8789461 0.279272 0.8789461 0.279272 0.769447 0.257469 0.2552288 0.1806007 0.2552288 0.1806007 0.1457296 0.9188485 0.5935316 0.8587505 0.5935316 0.8587505 0.7030308 0.8587505 0.5935316 0.7838094 0.5935316 0.7838094 0.7030308 0.940471 0.8110262 0.940471 0.8859673 0.8309718 0.8859673 0.940471 0.8859673 0.940471 0.9460653 0.8309718 0.9460653 0.1407601 0.8789461 0.2100161 0.8789461 0.2100161 0.769447 0.6892373 0.9045923 0.665129 0.9045923 0.6408541 0.854185 0.5809443 0.8182315 0.6558853 0.8353363 0.6408541 0.854185 0.5809443 0.8182315 0.5863089 0.8417354 0.5425671 0.8766184 0.5208463 0.8661581 0.5425671 0.8766184 0.5425671 0.9325662 0.5208463 0.9430264 0.5425671 0.9325662 0.5863089 0.9674491 0.5809443 0.990953 0.5863089 0.9674491 0.6408541 0.9549996 0.6558853 0.9738482 0.6408541 0.9549996 0.665129 0.9045923 0.5863089 0.8417354 0.6408541 0.854185 0.665129 0.9045923 0.665129 0.9045923 0.6408541 0.9549996 0.5863089 0.9674491 0.5863089 0.9674491 0.5425671 0.9325662 0.665129 0.9045923 0.5425671 0.9325662 0.5425671 0.8766184 0.665129 0.9045923 0.2572183 0.7308573 0.228858 0.6922674 0.2104404 0.6922674 0.7923821 0.8288356 0.7923821 0.8796829 0.7537923 0.8712043 0.370305 0.9150163 0.3819106 0.864169 0.3461428 0.872683 0.2453244 0.1071398 0.1931695 0.1071398 0.2092381 0.06855005 0.2972375 0.8233925 0.3129553 0.8567007 0.3333973 0.8567007 0.8016187 0.7416205 0.8240579 0.7802103 0.8439875 0.7802103 0.3002099 0.872683 0.3047587 0.8926125 0.3231763 0.9014819 0.3231763 0.9014819 0.341594 0.8926125 0.3129553 0.8567007 0.341594 0.8926125 0.3461428 0.872683 0.3129553 0.8567007 0.3461428 0.872683 0.3333973 0.8567007 0.3129553 0.8567007 0.2102282 0.7308573 0.2104404 0.6922674 0.1920228 0.6922674 0.2100161 0.769447 0.2102282 0.7308573 0.1632382 0.7308573 0.8587505 0.7030308 0.7838094 0.7030308 0.8016187 0.7416205 0.9188485 0.7030307 0.8587505 0.7030308 0.8524661 0.7416205 0.257469 0.1457296 0.1806007 0.1457296 0.1931695 0.1071398 0.8309718 0.8859673 0.8309718 0.9460653 0.7923821 0.9204593 0.8309718 0.8859673 0.7923821 0.8796829 0.7923821 0.8288356 0.279272 0.769447 0.2572183 0.7308573 0.2102282 0.7308573 0.4131212 0.749427 0.4244669 0.749427 0.4244669 0.5337297 0.4594069 0.749427 0.4707527 0.749427 0.4707527 0.5337297 0.4244669 0.749427 0.4131212 0.749427 0.4131212 0.5337297 0.4707527 0.749427 0.4594069 0.749427 0.4594069 0.5337297 0.4594069 0.6655278 0.4707527 0.6655278 0.4707527 0.654182 0.4892653 0.830168 0.4606609 0.830168 0.4606609 0.7400678 0.411123 0.830168 0.3901832 0.830168 0.3901832 0.7400678 0.3901832 0.830168 0.4187875 0.830168 0.4187875 0.7400678 0.4381187 0.5391624 0.4117205 0.5391624 0.4117205 0.5336148 0.4914779 0.5391624 0.472153 0.5391624 0.472153 0.5336148 0.472153 0.5391624 0.4457548 0.5391624 0.4457548 0.5336148 0.3994691 0.5391624 0.4258673 0.5391624 0.4258673 0.5336148 0.472153 0.6334565 0.4914779 0.6527814 0.4386815 0.6669281 0.4914779 0.6527814 0.4844045 0.6791796 0.4386815 0.6669281 0.4844045 0.6791796 0.4580063 0.686253 0.4386815 0.6669281 0.4386815 0.5391624 0.4580063 0.5391624 0.4580063 0.5336148 0.4580063 0.5391624 0.4844045 0.5391624 0.4844045 0.5336148 0.4580063 0.686253 0.4844045 0.6791796 0.4914779 0.6527814 0.4914779 0.6527814 0.472153 0.6334565 0.4457548 0.64053 0.4457548 0.64053 0.4386815 0.6669281 0.4914779 0.6527814</float_array>
          <technique_common>
            <accessor source="#Soda_fountain-mesh-map-0-array" count="447" stride="2">
              <param name="S" type="float"/>
              <param name="T" type="float"/>
            </accessor>
          </technique_common>
        </source>
        <vertices id="Soda_fountain-mesh-vertices">
          <input semantic="POSITION" source="#Soda_fountain-mesh-positions"/>
        </vertices>
        <triangles material="Soda_fountain-material" count="149">
          <input semantic="VERTEX" source="#Soda_fountain-mesh-vertices" offset="0"/>
          <input semantic="NORMAL" source="#Soda_fountain-mesh-normals" offset="1"/>
          <input semantic="TEXCOORD" source="#Soda_fountain-mesh-map-0" offset="2" set="0"/>
          <p>23 0 0 3 1 1 13 2 2 13 2 3 7 3 4 14 4 5 22 5 6 5 6 7 15 7 8 5 6 9 12 8 10 15 7 11 18 9 12 0 10 13 16 11 14 3 1 15 10 12 16 7 3 17 21 13 18 8 14 19 11 15 20 19 16 21 10 12 22 21 13 23 17 17 24 8 14 25 20 18 26 5 6 27 8 14 28 1 19 29 15 7 30 0 10 31 4 20 32 18 9 33 15 7 34 4 20 35 2 21 36 14 4 37 6 22 38 16 11 39 13 2 40 2 21 41 12 8 42 16 11 43 0 10 44 14 4 45 18 9 46 6 22 47 17 17 48 9 23 49 3 1 50 19 16 51 11 15 52 5 6 53 9 23 54 21 13 55 10 12 56 6 22 57 16 11 58 2 21 59 7 3 60 22 5 61 14 4 62 1 19 63 23 0 64 12 8 65 15 7 66 24 24 67 22 5 68 24 24 69 14 4 70 22 5 71 26 25 72 41 26 73 40 27 74 32 28 75 47 29 76 45 30 77 34 31 78 49 32 79 47 29 80 36 33 81 51 34 82 49 32 83 28 35 84 43 36 85 41 26 86 30 37 87 45 30 88 43 36 89 38 38 90 40 27 91 51 34 92 26 25 93 27 39 94 28 35 95 30 37 96 27 39 97 29 40 98 30 37 99 31 41 100 32 28 101 32 28 102 33 42 103 34 31 104 34 31 105 35 43 106 36 33 107 36 33 108 37 44 109 38 38 110 38 38 111 25 45 112 26 25 113 31 41 114 29 40 115 25 45 116 54 46 117 39 47 118 53 48 119 54 46 120 44 49 121 42 50 122 55 51 123 46 52 124 44 49 125 56 53 126 48 54 127 46 52 128 58 55 129 48 54 130 57 56 131 59 57 132 50 58 133 58 55 134 50 58 135 52 59 136 42 50 137 53 48 138 52 59 139 59 57 140 40 27 141 59 57 142 51 34 143 49 32 144 59 57 145 58 55 146 47 29 147 58 55 148 57 56 149 45 30 150 57 56 151 56 53 152 43 36 153 56 53 154 55 51 155 43 36 156 54 46 157 41 26 158 41 26 159 53 48 160 40 27 161 61 60 162 62 61 163 60 62 164 63 63 165 66 64 166 62 61 167 67 65 168 64 66 169 66 64 170 65 67 171 60 62 172 64 66 173 62 61 174 64 66 175 60 62 176 69 68 177 70 69 178 68 70 179 71 71 180 72 72 181 70 69 182 73 73 183 68 70 184 72 72 185 68 70 186 70 69 187 72 72 188 75 74 189 76 75 190 74 76 191 77 77 192 78 78 193 76 75 194 79 79 195 80 80 196 78 78 197 81 81 198 82 82 199 80 80 200 83 83 201 81 81 202 79 79 203 83 83 204 84 84 205 82 82 206 85 85 207 74 76 208 84 84 209 82 82 210 84 84 211 76 75 212 23 0 213 17 17 214 3 1 215 13 2 216 3 1 217 7 3 218 22 5 219 19 16 220 5 6 221 5 6 222 1 19 223 12 8 224 18 9 225 4 20 226 0 10 227 3 1 228 9 23 229 10 12 230 21 13 231 20 18 232 8 14 233 19 16 234 7 3 235 10 12 236 17 17 237 1 19 238 8 14 239 5 6 240 11 15 241 8 14 242 15 7 243 12 8 244 0 10 245 18 9 246 24 24 247 15 7 248 2 21 249 13 2 250 14 4 251 16 11 252 23 0 253 13 2 254 12 8 255 23 0 256 16 11 257 14 4 258 24 24 259 18 9 260 17 17 261 20 18 262 9 23 263 19 16 264 21 13 265 11 15 266 9 23 267 20 18 268 21 13 269 6 22 270 18 9 271 16 11 272 7 3 273 19 16 274 22 5 275 1 19 276 17 17 277 23 0 278 26 25 279 28 35 280 41 26 281 32 28 282 34 31 283 47 29 284 34 31 285 36 33 286 49 32 287 36 33 288 38 38 289 51 34 290 28 35 291 30 37 292 43 36 293 30 37 294 32 28 295 45 30 296 38 38 297 26 25 298 40 27 299 26 25 300 25 45 301 27 39 302 30 37 303 28 35 304 27 39 305 30 37 306 29 40 307 31 41 308 32 28 309 31 41 310 33 42 311 34 31 312 33 42 313 35 43 314 36 33 315 35 43 316 37 44 317 38 38 318 37 44 319 25 45 320 29 40 321 27 39 322 25 45 323 25 45 324 37 44 325 35 43 326 35 43 327 33 42 328 25 45 329 33 42 330 31 41 331 25 45 332 54 46 333 42 50 334 39 47 335 54 46 336 55 51 337 44 49 338 55 51 339 56 53 340 46 52 341 56 53 342 57 56 343 48 54 344 58 55 345 50 58 346 48 54 347 59 57 348 52 59 349 50 58 350 52 59 351 39 47 352 42 50 353 42 50 354 44 49 355 50 58 356 44 49 357 46 52 358 50 58 359 46 52 360 48 54 361 50 58 362 53 48 363 39 47 364 52 59 365 40 27 366 53 48 367 59 57 368 49 32 369 51 34 370 59 57 371 47 29 372 49 32 373 58 55 374 45 30 375 47 29 376 57 56 377 43 36 378 45 30 379 56 53 380 43 36 381 55 51 382 54 46 383 41 26 384 54 46 385 53 48 386 61 60 387 63 63 388 62 61 389 63 63 390 67 65 391 66 64 392 67 65 393 65 67 394 64 66 395 65 67 396 61 60 397 60 62 398 62 61 399 66 64 400 64 66 401 69 68 402 71 71 403 70 69 404 71 71 405 73 73 406 72 72 407 73 73 408 69 68 409 68 70 410 75 74 411 77 77 412 76 75 413 77 77 414 79 79 415 78 78 416 79 79 417 81 81 418 80 80 419 81 81 420 83 83 421 82 82 422 79 79 423 77 77 424 83 83 425 77 77 426 75 74 427 83 83 428 75 74 429 85 85 430 83 83 431 83 83 432 85 85 433 84 84 434 85 85 435 75 74 436 74 76 437 84 84 438 74 76 439 76 75 440 76 75 441 78 78 442 80 80 443 80 80 444 82 82 445 76 75 446</p>
        </triangles>
      </mesh>
    </geometry>
    <geometry id="Cup_M-mesh" name="Cup_M">
      <mesh>
        <source id="Cup_M-mesh-positions">
          <float_array id="Cup_M-mesh-positions-array" count="84">0 0.1896072 -0.1896072 0 0.2881768 0.8441137 0.1482409 0.1182182 -0.1896072 0.2293202 0.177742 0.8441137 0.1848534 -0.04219156 -0.1896072 0.2859577 -0.07040274 0.8441137 0.08226746 -0.1708302 -0.1896072 0.1272631 -0.2693994 0.8441137 -0.08226746 -0.1708302 -0.1896072 -0.1272631 -0.2693994 0.8441137 -0.1848534 -0.04219156 -0.1896072 -0.2859577 -0.07040274 0.8441137 -0.1482409 0.1182182 -0.1896072 -0.2293202 0.177742 0.8441137 0 0.1669741 -0.169916 0 0.2583099 0.8469365 0.130575 0.1040982 -0.1698957 0.2059544 0.1591473 0.8469914 0.162837 -0.0371983 -0.1698501 0.256865 -0.06372368 0.8471147 0.07247382 -0.1505253 -0.1698134 0.1143314 -0.2425076 0.8472132 -0.07247382 -0.1505253 -0.1698134 -0.1143314 -0.2425076 0.8472132 -0.162837 -0.0371983 -0.1698501 -0.256865 -0.06372368 0.8471147 -0.130575 0.1040982 -0.1698957 -0.2059544 0.1591473 0.8469914</float_array>
          <technique_common>
            <accessor source="#Cup_M-mesh-positions-array" count="28" stride="3">
              <param name="X" type="float"/>
              <param name="Y" type="float"/>
              <param name="Z" type="float"/>
            </accessor>
          </technique_common>
        </source>
        <source id="Cup_M-mesh-normals">
          <float_array id="Cup_M-mesh-normals-array" count="84">0 0.8317641 0.5551292 0.5886448 0.4704997 -0.657364 0 0.7541683 -0.6566812 0.6514255 0.5186079 0.5537967 0.7336028 -0.1663694 -0.6588993 0.8134869 -0.1866089 0.5508325 0.3263303 -0.6765613 -0.6601313 0.3623908 -0.7535383 0.5485009 -0.3263303 -0.6765614 -0.6601313 -0.8134868 -0.1866089 0.5508325 -0.7336028 -0.1663694 -0.6588992 -0.6514255 0.5186079 0.5537967 -0.5886449 0.4704996 -0.6573639 -0.5900033 -0.4715042 0.6554235 0 -0.4865954 0.8736276 0 -0.7558162 0.654784 -0.7353203 0.1668382 0.656863 -0.379585 -0.3015856 0.8746207 -0.327104 0.6782417 0.6580207 -0.4684928 0.107919 0.8768512 0.327104 0.6782416 0.6580208 -0.2068777 0.4303342 0.8786434 0.4684928 0.107919 0.8768512 0.2068777 0.4303342 0.8786433 0.7353203 0.1668382 0.6568632 0.379585 -0.3015856 0.8746207 0.5900033 -0.4715042 0.6554235 -0.3623907 -0.7535381 0.548501</float_array>
          <technique_common>
            <accessor source="#Cup_M-mesh-normals-array" count="28" stride="3">
              <param name="X" type="float"/>
              <param name="Y" type="float"/>
              <param name="Z" type="float"/>
            </accessor>
          </technique_common>
        </source>
        <source id="Cup_M-mesh-map-0">
          <float_array id="Cup_M-mesh-map-0-array" count="312">0.4571365 0.4938803 0.5027168 0.1767405 0.4572402 0.1767405 0.2837649 0.6662549 0.21635 0.3491134 0.2655597 0.3491134 0.2078575 0.666257 0.1768869 0.3491134 0.21635 0.3491134 0.7531855 0.01397407 0.8174643 0.3311187 0.7669891 0.3311187 0.4036933 0.5214862 0.4346639 0.8386299 0.4431564 0.5214862 0.4431564 0.5214862 0.5105713 0.8386278 0.4923661 0.5214862 0.4117636 0.1767405 0.4573439 0.4938803 0.4572402 0.1767405 0.3922563 0.7242572 0.3922563 0.7747325 0.4317194 0.8062033 0.5027168 0.1767405 0.4571313 0.4938319 0.4572402 0.1767405 0.21635 0.3491134 0.2837669 0.6662065 0.2655597 0.3491134 0.1768869 0.3491134 0.2078629 0.6662088 0.21635 0.3491134 0.8174643 0.3311187 0.7531809 0.01402217 0.7669891 0.3311187 0.4036933 0.5214862 0.4346693 0.8385816 0.3736151 0.8385816 0.4431564 0.5214862 0.5105734 0.8385794 0.43444 0.8385794 0.4117636 0.1767405 0.4573492 0.4938319 0.3869915 0.493832 0.4317194 0.6927865 0.4809291 0.7040182 0.4809291 0.7949714 0.4386997 0.7670183 0.4685069 0.7483442 0.4718886 0.7510353 0.4719685 0.7509418 0.4759549 0.715995 0.4801654 0.7150284 0.480142 0.7149031 0.455303 0.6899948 0.4571746 0.6861027 0.4570576 0.6860438 0.4220922 0.6899358 0.4202207 0.6860439 0.3971362 0.7149031 0.4219753 0.6899948 0.4013468 0.7158697 0.4053098 0.7509418 0.4013234 0.715995 0.4086915 0.7482506 0.4385786 0.7670182 0.4087714 0.7483442 0.4385787 0.7626958 0.4571365 0.4938803 0.5274863 0.4938804 0.5027168 0.1767405 0.2837649 0.6662549 0.2076403 0.6662549 0.21635 0.3491134 0.2078575 0.666257 0.1468104 0.666257 0.1768869 0.3491134 0.7531855 0.01397407 0.8312678 0.01397407 0.8174643 0.3311187 0.4036933 0.5214862 0.3736168 0.8386299 0.4346639 0.8386299 0.4431564 0.5214862 0.4344466 0.8386276 0.5105713 0.8386278 0.4117636 0.1767405 0.3869943 0.4938804 0.4573439 0.4938803 0.4809291 0.7949714 0.5028295 0.7494949 0.4317194 0.8062033 0.5028295 0.7494949 0.4809291 0.7040182 0.4317194 0.8062033 0.4809291 0.7040182 0.4317194 0.6927865 0.4317194 0.8062033 0.4317194 0.6927865 0.3922563 0.7242572 0.4317194 0.8062033 0.5027168 0.1767405 0.5274891 0.4938321 0.4571313 0.4938319 0.21635 0.3491134 0.2076336 0.6662066 0.2837669 0.6662065 0.1768869 0.3491134 0.1468087 0.6662089 0.2078629 0.6662088 0.8174643 0.3311187 0.8312723 0.01402217 0.7531809 0.01402217 0.4036933 0.5214862 0.4431564 0.5214862 0.4346693 0.8385816 0.4431564 0.5214862 0.4923661 0.5214862 0.5105734 0.8385794 0.4117636 0.1767405 0.4572402 0.1767405 0.4573492 0.4938319 0.4809291 0.7040182 0.5028295 0.7494949 0.4809291 0.7949714 0.4809291 0.7949714 0.4317194 0.8062033 0.4317194 0.6927865 0.4317194 0.8062033 0.3922563 0.7747325 0.4317194 0.6927865 0.3922563 0.7747325 0.3922563 0.7242572 0.4317194 0.6927865 0.4386997 0.7670183 0.4386997 0.7626958 0.4685069 0.7483442 0.4719685 0.7509418 0.4685868 0.7482506 0.4759549 0.715995 0.480142 0.7149031 0.4759315 0.7158697 0.455303 0.6899948 0.4570576 0.6860438 0.4551861 0.6899359 0.4220922 0.6899358 0.3971362 0.7149031 0.4201037 0.6861027 0.4219753 0.6899948 0.4053098 0.7509418 0.3971129 0.7150284 0.4013234 0.715995 0.4385786 0.7670182 0.4053896 0.7510352 0.4087714 0.7483442</float_array>
          <technique_common>
            <accessor source="#Cup_M-mesh-map-0-array" count="156" stride="2">
              <param name="S" type="float"/>
              <param name="T" type="float"/>
            </accessor>
          </technique_common>
        </source>
        <vertices id="Cup_M-mesh-vertices">
          <input semantic="POSITION" source="#Cup_M-mesh-positions"/>
        </vertices>
        <triangles material="Soda_fountain-material" count="52">
          <input semantic="VERTEX" source="#Cup_M-mesh-vertices" offset="0"/>
          <input semantic="NORMAL" source="#Cup_M-mesh-normals" offset="1"/>
          <input semantic="TEXCOORD" source="#Cup_M-mesh-map-0" offset="2" set="0"/>
          <p>1 0 0 2 1 1 0 2 2 3 3 3 4 4 4 2 1 5 5 5 6 6 6 7 4 4 8 7 7 9 8 8 10 6 6 11 8 8 12 11 9 13 10 10 14 10 10 15 13 11 16 12 12 17 12 12 18 1 0 19 0 2 20 6 6 21 8 8 22 10 10 23 16 13 24 15 14 25 14 15 26 18 16 27 17 17 28 16 13 29 20 18 30 19 19 31 18 16 32 22 20 33 21 21 34 20 18 35 22 20 36 25 22 37 23 23 38 24 24 39 27 25 40 25 22 41 26 26 42 15 14 43 27 25 44 18 16 45 16 13 46 26 26 47 1 0 48 17 17 49 3 3 50 3 3 51 19 19 52 5 5 53 5 5 54 21 21 55 7 7 56 7 7 57 23 23 58 9 27 59 11 9 60 23 23 61 25 22 62 13 11 63 25 22 64 27 25 65 1 0 66 27 25 67 15 14 68 1 0 69 3 3 70 2 1 71 3 3 72 5 5 73 4 4 74 5 5 75 7 7 76 6 6 77 7 7 78 9 27 79 8 8 80 8 8 81 9 27 82 11 9 83 10 10 84 11 9 85 13 11 86 12 12 87 13 11 88 1 0 89 12 12 90 0 2 91 10 10 92 0 2 93 2 1 94 10 10 95 2 1 96 4 4 97 10 10 98 4 4 99 6 6 100 10 10 101 16 13 102 17 17 103 15 14 104 18 16 105 19 19 106 17 17 107 20 18 108 21 21 109 19 19 110 22 20 111 23 23 112 21 21 113 22 20 114 24 24 115 25 22 116 24 24 117 26 26 118 27 25 119 26 26 120 14 15 121 15 14 122 16 13 123 14 15 124 26 26 125 26 26 126 24 24 127 18 16 128 24 24 129 22 20 130 18 16 131 22 20 132 20 18 133 18 16 134 1 0 135 15 14 136 17 17 137 3 3 138 17 17 139 19 19 140 5 5 141 19 19 142 21 21 143 7 7 144 21 21 145 23 23 146 11 9 147 9 27 148 23 23 149 13 11 150 11 9 151 25 22 152 1 0 153 13 11 154 27 25 155</p>
        </triangles>
      </mesh>
    </geometry>
  </library_geometries>
  <library_visual_scenes>
    <visual_scene id="Scene" name="Scene">
      <node id="Soda_fountain" name="Soda_fountain" type="NODE">
        <matrix sid="transform">-0.2523069 8.2212e-8 0 0 -8.2212e-8 -0.2523069 0 0 0 0 0.2523069 0 0 0 0 1</matrix>
        <instance_geometry url="#Soda_fountain-mesh" name="Soda_fountain">
          <bind_material>
            <technique_common>
              <instance_material symbol="Soda_fountain-material" target="#Soda_fountain-material">
                <bind_vertex_input semantic="UVMap" input_semantic="TEXCOORD" input_set="0"/>
              </instance_material>
            </technique_common>
          </bind_material>
        </instance_geometry>
      </node>
      <node id="Cup_M" name="Cup_M" type="NODE">
        <matrix sid="transform">-0.2523069 8.2212e-8 0 0 -8.2212e-8 -0.2523069 0 0 0 0 0.2523069 0 0 0 0 1</matrix>
        <instance_geometry url="#Cup_M-mesh" name="Cup_M">
          <bind_material>
            <technique_common>
              <instance_material symbol="Soda_fountain-material" target="#Soda_fountain-material">
                <bind_vertex_input semantic="UVMap" input_semantic="TEXCOORD" input_set="0"/>
              </instance_material>
            </technique_common>
          </bind_material>
        </instance_geometry>
      </node>
    </visual_scene>
  </library_visual_scenes>
  <scene>
    <instance_visual_scene url="#Scene"/>
  </scene>
</COLLADA>