<?xml version="1.0" encoding="utf-8"?>
<COLLADA xmlns="http://www.collada.org/2005/11/COLLADASchema" version="1.4.1" xmlns:xsi="http://www.w3.org/2001/XMLSchema-instance">
  <asset>
    <contributor>
      <author>Blender User</author>
      <authoring_tool>Blender 4.0.1 commit date:2023-11-16, commit time:16:40, hash:d0dd92834a08</authoring_tool>
    </contributor>
    <created>2023-11-28T13:19:44</created>
    <modified>2023-11-28T13:19:44</modified>
    <unit name="meter" meter="1"/>
    <up_axis>Z_UP</up_axis>
  </asset>
  <library_effects>
    <effect id="Washbasin-effect">
      <profile_COMMON>
        <newparam sid="Washbasin-surface">
          <surface type="2D">
            <init_from>Washbasin</init_from>
          </surface>
        </newparam>
        <newparam sid="Washbasin-sampler">
          <sampler2D>
            <source>Washbasin-surface</source>
          </sampler2D>
        </newparam>
        <technique sid="common">
          <lambert>
            <emission>
              <color sid="emission">0 0 0 1</color>
            </emission>
            <diffuse>
              <texture texture="Washbasin-sampler" texcoord="UVMap"/>
            </diffuse>
            <index_of_refraction>
              <float sid="ior">1.45</float>
            </index_of_refraction>
          </lambert>
        </technique>
      </profile_COMMON>
    </effect>
  </library_effects>
  <library_images>
    <image id="Washbasin" name="Washbasin">
      <init_from>Washbasin.png</init_from>
    </image>
  </library_images>
  <library_materials>
    <material id="Washbasin-material" name="Washbasin">
      <instance_effect url="#Washbasin-effect"/>
    </material>
  </library_materials>
  <library_geometries>
    <geometry id="Washbasin-mesh" name="Washbasin">
      <mesh>
        <source id="Washbasin-mesh-positions">
          <float_array id="Washbasin-mesh-positions-array" count="441">-0.9439468 0.5978691 -0.4128296 0.9439468 0.5978691 -0.4128296 -0.9838708 0.8681883 0.1377715 -0.9439468 0.8385092 -0.4128296 0.9439468 0.8385092 -0.4128296 0.9838707 0.8681883 0.1377715 -0.9838708 0.8681883 0.5913065 0.9838707 0.8681883 0.5913065 -0.7541781 -0.9074736 0.1377714 -0.7541781 0.1352391 0.1377714 0.7541781 0.1352391 0.1377714 0.7541781 -0.9074736 0.1377714 -0.8130749 -0.3676709 0.1377714 0.8130749 -0.3676709 0.1377714 0 0.2660006 0.1377714 0 -1.038235 0.1377714 -0.9276008 -1.13147 -0.2505256 -0.9439468 -1.026019 -0.4128296 -0.9276008 -1.13147 0.08150148 -0.9273048 -1.076307 0.1377715 -0.9838708 -1.0752 0.08150148 -0.9273362 0.6585853 0.1377715 -0.9838708 0.7148553 0.08150148 0.9276006 -1.13147 -0.2505256 0.9439468 -1.026019 -0.4128296 0.9273048 -1.076307 0.1377715 0.9276006 -1.13147 0.08150148 0.9838707 -1.0752 0.08150148 0.9838708 0.7148553 0.08150148 0.9273362 0.6585853 0.1377715 -0.9273464 0.6585853 0.5350364 -0.9838708 0.7148553 0.5913065 0.9273464 0.6585853 0.5350364 0.9838708 0.7148553 0.5913065 -0.6801558 -0.3691838 -0.1849905 -0.6308873 0.06498318 -0.1849905 0 0.1778706 -0.1849905 0.6308873 0.06498318 -0.1849905 0.6801558 -0.3691838 -0.1849905 0.6308873 -0.8352006 -0.1849905 0 -0.9480881 -0.1849905 -0.6308873 -0.8352006 -0.1849905 -0.3241636 0.3305829 0.118226 -0.3241636 0.3305829 0.201016 -0.3241636 0.5826022 0.118226 -0.3241636 0.5826022 0.201016 0.3241636 0.3305829 0.118226 0.3241636 0.3305829 0.201016 0.3241636 0.5826022 0.118226 0.3241636 0.5826022 0.201016 -0.07483226 0.3461009 0.1880261 -0.06392049 0.3533285 0.3012024 -0.07483226 0.5505034 0.1880261 -0.06392049 0.5359075 0.3012024 0.07483226 0.3461009 0.1880261 0.06392049 0.3533285 0.3012024 0.07483226 0.5505034 0.1880261 0.06392049 0.5359075 0.3012024 -0.04974001 -0.04744875 0.3495035 -0.04248708 -0.04264461 0.4127063 0.04248708 -0.04264461 0.4127063 0.04974001 -0.04744875 0.3495035 -0.04974001 -0.1585725 0.3495035 -0.04248708 -0.1537684 0.4127063 0.04248708 -0.1537684 0.4127063 0.04974001 -0.1585725 0.3495035 0 -0.05708861 0.3019542 0 -0.05708861 0.3588977 0.04275196 -0.08814978 0.3019542 0.04275196 -0.08814978 0.3588977 0.02642214 -0.1384077 0.3019542 0.02642214 -0.1384077 0.3588977 -0.02642214 -0.1384077 0.3019542 -0.02642214 -0.1384077 0.3588977 -0.04275196 -0.08814978 0.3019542 -0.04275196 -0.08814978 0.3588977 0.196457 0.5246356 0.1881608 0.196457 0.5246356 0.3375561 0.2674987 0.4730207 0.1881608 0.2674987 0.4730207 0.3375561 0.2403632 0.3895062 0.1881608 0.2403632 0.3895062 0.3375561 0.1525508 0.3895062 0.1881608 0.1525508 0.3895062 0.3375561 0.1254153 0.4730207 0.1881608 0.1254153 0.4730207 0.3375561 0.2330182 0.4499356 0.2607716 0.2330182 0.4214901 0.2892171 0.2330182 0.4783812 0.2892171 0.2330182 0.4499356 0.3176626 0.4584657 0.4499356 0.2607716 0.4584657 0.4214901 0.2892171 0.4584657 0.4783812 0.2892171 0.4584657 0.4499356 0.3176626 -0.196457 0.5246356 0.1881608 -0.196457 0.5246356 0.3375561 -0.2674987 0.4730207 0.1881608 -0.2674987 0.4730207 0.3375561 -0.2403632 0.3895062 0.1881608 -0.2403632 0.3895062 0.3375561 -0.1525509 0.3895062 0.1881608 -0.1525509 0.3895062 0.3375561 -0.1254154 0.4730207 0.1881608 -0.1254154 0.4730207 0.3375561 -0.2330182 0.4499356 0.2607716 -0.2330182 0.4214901 0.2892171 -0.2330182 0.4783812 0.2892171 -0.2330182 0.4499356 0.3176626 -0.4584658 0.4499356 0.2607716 -0.4584658 0.4214901 0.2892171 -0.4584658 0.4783812 0.2892171 -0.4584658 0.4499356 0.3176626 0 0.08983486 -0.5776249 0 0.1855581 -0.3572684 0.121455 0.001592695 -0.5776249 0.2124931 0.03117275 -0.3572684 0.07506328 -0.1411861 -0.5776249 0.131328 -0.2186279 -0.3572684 -0.07506328 -0.1411861 -0.5776249 -0.131328 -0.2186279 -0.3572684 -0.121455 0.001592695 -0.5776249 -0.2124931 0.03117275 -0.3572684 0 0.09942507 -1.251446 0.1305758 0.004556238 -1.251446 0.08070027 -0.1489448 -1.251446 -0.08070027 -0.1489448 -1.251446 -0.1305758 0.004556238 -1.251446 -0.06981414 0.134107 -1.320548 0.06076163 0.07704067 -1.396334 0.01088607 -0.01529455 -1.518958 -0.1505144 -0.01529455 -1.518958 -0.20039 0.07704067 -1.396334 -0.1724057 0.1720517 -1.318749 -0.04182988 0.2325976 -1.391785 -0.09170544 0.3305631 -1.50996 -0.2531061 0.3305631 -1.50996 -0.3029816 0.2325976 -1.391785 -0.2538372 0.4249906 -1.111615 -0.1193129 0.4372007 -1.199957 -0.159484 0.4946258 -1.324527 -0.3188355 0.4701044 -1.33201 -0.3771489 0.3975242 -1.212064 -0.2854646 0.8499662 -1.093007 -0.1592802 0.8684307 -1.174597 -0.1969609 0.8621919 -1.321095 -0.3464333 0.8398717 -1.330045 -0.4011315 0.8323157 -1.18908</float_array>
          <technique_common>
            <accessor source="#Washbasin-mesh-positions-array" count="147" stride="3">
              <param name="X" type="float"/>
              <param name="Y" type="float"/>
              <param name="Z" type="float"/>
            </accessor>
          </technique_common>
        </source>
        <source id="Washbasin-mesh-normals">
          <float_array id="Washbasin-mesh-normals-array" count="675">0.3423573 -0.8767153 0.3378784 -0.5108305 -0.8236135 -0.2464001 0.5108302 -0.8236138 -0.2463998 0.9967545 0 -0.08050149 0.8890575 -0.3301858 0.3171031 0.9934968 -0.07286918 -0.08748781 0.572814 -0.5796118 0.5795984 -3.16078e-7 0 1 -4.64772e-7 0 1 -0.3409534 -0.3462218 0.8740031 3.27635e-7 1.24285e-7 1 4.64772e-7 0 1 -0.8890573 -0.3301858 0.3171035 -0.9967545 0 -0.08050149 -0.9934968 -0.07286894 -0.08748805 -0.5728134 -0.5796121 0.5795986 0.2991951 -0.9057021 0.3003097 -0.2991949 -0.9057021 0.3003098 0 0.9996545 -0.02628827 0 0.9985504 -0.05382513 0 0.9985505 -0.05382496 -0.9995595 0.01022607 -0.02786588 -0.6507042 -0.391719 0.6504924 -1 0 0 0.9995594 0.01022696 -0.02786582 0.6507041 -0.3917188 0.6504926 0.9923486 -0.1037494 0.06693702 0 0 -1 0 0 1 0 1 0 0 0.9996545 -0.02628833 3.16078e-7 0 1 0 -1.37341e-7 1 0 -0.9638586 0.2664147 -0.165915 -0.9493246 0.2669368 -0.1645186 -0.9488755 0.2693865 0.9968412 0.004967093 -0.07926595 0.3409538 -0.3462221 0.8740028 0 1.0583e-6 1 -0.9923484 -0.1037499 0.06693702 -0.9968412 0.004967093 -0.07926601 0 0.9622968 0.2720019 0.1656522 0.9478088 0.2724297 0.1642535 0.9473466 0.274873 -0.3423571 -0.8767154 0.3378785 0 -0.4638665 -0.8859052 0 0 1 0 0 1 0 0 1 0 0 1 0 0 1 -0.1656522 0.9478088 0.2724297 0 0.9631392 0.2690035 0.9253144 -0.003804743 0.379182 0.9212581 0.09939765 0.376037 0.9246501 -0.003351211 0.3808031 -0.9253144 -0.003804743 0.379182 -0.9212581 0.09939765 0.376037 -0.9217156 0.1005665 0.374602 0.9202058 -0.1064946 0.37667 0.9206706 -0.1078215 0.3751537 0.165915 -0.9493246 0.2669368 0 -0.964685 0.2634063 -0.9202058 -0.1064946 0.37667 -0.9246501 -0.003351211 0.3808031 1 0 0 0 -1 0 -0.9952636 -0.01059699 0.09663397 -0.9953843 0 0.0959689 -0.9953843 0 0.0959689 0 0.9917863 0.1279068 0 0.9917862 0.1279067 0 0.9917861 0.1279072 0.9953843 0 0.0959689 0.9952636 -0.01059699 0.09663397 0.9953843 0 0.0959689 0 0.1345075 0.9909127 0 0.1390426 0.9902864 0 0.1345075 0.9909127 0.9934754 -0.01150494 0.1134651 0.9934799 0 0.1140078 0.9934799 0 0.1140078 0.9951554 -0.01214808 0.09756171 -0.9951554 -0.01214808 0.09756171 -0.9934754 -0.01150494 0.1134651 -0.9933414 -0.01013183 0.114762 0 -0.3795988 -0.9251512 0 -0.1970139 -0.9804008 0 -0.3795988 -0.9251512 0 -0.9971238 0.07579153 0 -0.9971237 0.07579171 0 -0.9971237 0.07579129 -0.9934799 0 0.1140078 0 0.1390426 0.9902864 0.5877858 0.8090167 0 0.5877857 0.8090167 0 0.5877853 0.809017 0 0.9510567 -0.3090169 0 0.9510565 -0.309017 0 -0.9510567 -0.3090169 0 -0.9510565 -0.3090171 0 -0.5877858 0.8090167 0 -0.5877857 0.8090167 0 -0.5877853 0.809017 0 0.5877856 0.8090167 0 0.5877856 0.8090169 0 0.5877854 0.809017 0 0.9510567 -0.3090169 0 0.9510565 -0.309017 0 -1.69325e-7 0 1 -5.07975e-7 0 1 -1.69325e-7 0 1 -0.9510566 -0.3090171 0 -0.9510565 -0.309017 0 -0.9510565 -0.309017 0 -0.5877856 0.8090168 0 -0.5877856 0.8090168 0 -0.5877856 0.8090168 0 0 0.7071069 0.7071067 0 0.7071062 0.7071074 0 0.707107 0.7071067 0 -0.7071069 -0.7071067 0 -0.707107 -0.7071067 0 0.7071062 -0.7071074 0 0.7071069 -0.7071067 0 0.707107 -0.7071067 0 -0.707107 0.7071067 0 -0.7071069 0.7071067 -0.5877855 0.809017 0 -0.5877855 0.8090169 0 -0.9510566 -0.3090168 0 -0.9510567 -0.3090169 0 0.9510567 -0.3090167 0 0.9510566 -0.3090168 0 0.9510567 -0.3090166 0 0.5877857 0.8090167 0 0.5877856 0.8090168 0 0 0.7071062 0.7071074 0 0.707107 0.7071066 0 -0.707107 -0.7071066 0 -0.7071069 -0.7071067 0 0.7071062 -0.7071074 0 0.707107 -0.7071066 0 -0.7071069 0.7071067 0 -0.707107 0.7071066 0 0.9769135 -0.2136358 0.872307 0.2834298 -0.3984324 0.9290999 0.3018828 -0.2136358 0.5742152 -0.7903395 -0.2136359 0.5391153 -0.7420285 -0.3984326 -0.5742152 -0.7903395 -0.2136359 -0.8723069 0.2834298 -0.3984324 -0.9290999 0.3018828 -0.2136359 -0.9501038 -0.3087075 0.04475098 -0.5857059 0.7319241 0.3481895 -0.4992617 0.578313 0.6452068 -0.5836359 0.5779681 0.5703702 0.9105595 -0.295859 -0.2887022 0.5352897 0.8431296 0.0509659 0 -0.9785501 -0.2060093 -0.4316703 -0.4908423 0.7567924 -0.1120588 -0.483439 0.868176 -0.580326 -0.632024 0.513583 0 -0.9706172 -0.240629 0 -0.6029389 -0.7977875 0.5801443 0.7559437 0.3032853 0.440829 0.6497089 0.6193128 -0.9327475 -0.3553479 0.06091105 -0.9206798 -0.3900598 -0.0142138 0.9454649 -0.2669422 -0.1866496 0.8465673 0.1398607 -0.5135784 -0.5432231 -0.4453682 0.7117274 0 -0.4242804 -0.9055309 0 0.3522775 -0.9358956 0.5560207 0.07456094 0.8278174 -0.8878412 -0.4439355 -0.121076 -0.8931236 -0.1581522 -0.4210915 0.9087212 0.1512366 -0.3890416 0.9094179 0.3704812 -0.1889521 -0.9090429 0.002624213 -0.4166942 -0.9215473 -0.05788046 -0.3839277 -0.9289332 -0.06739765 -0.3640616 -0.01985728 0.4988179 -0.8664793 -0.005402445 0.4347798 -0.9005207 0.5560472 -0.2557979 0.7908092 -0.02545332 -0.3130813 0.9493853 -0.8223665 -0.2065104 -0.5301573 0.9489197 0.2633331 -0.173802 0.9436089 0.2812527 -0.1746404 0.9618833 0.1013476 -0.2539871 -0.6273609 -0.079539 0.7746559 0.05444389 0.01352238 -0.9984253 0.05750888 0.01518523 -0.9982296 0.5441756 0.001666605 0.8389698 -3.27636e-7 1.24285e-7 1 1 8.57104e-7 0 0 -0.4638666 -0.8859051 0 0 1 -0.1642535 0.9473466 0.274873 0.9217156 0.1005665 0.374602 0.1645186 -0.9488755 0.2693865 -0.9206706 -0.1078215 0.3751537 0 0.9917863 0.1279063 0.9933414 -0.01013183 0.114762 0 -0.9971237 0.07579201 -0.9934799 0 0.1140078 0.5877862 0.8090164 0 -0.9510567 -0.3090167 0 -0.5877862 0.8090164 0 -0.9510565 -0.3090171 0 -0.5877856 0.8090168 0 0 0.7071061 0.7071075 0 0.7071061 -0.7071075 0.5877859 0.8090167 0 0 0.9171978 -0.3984324 -0.5391153 -0.7420285 -0.3984326 -0.552586 0.7605698 0.3408553 0.5869435 0.8078585 0.05349797 -0.2018766 -0.583116 0.7869064 0.9250716 0.3705596 -0.08323538 -0.9016835 0.01006144 -0.4322797 -0.02179229 0.4186506 -0.907886 0.962534 0.1004913 -0.2518531 -0.6295425 -0.08068752 0.772765 0.5428795 9.27118e-4 0.8398101</float_array>
          <technique_common>
            <accessor source="#Washbasin-mesh-normals-array" count="225" stride="3">
              <param name="X" type="float"/>
              <param name="Y" type="float"/>
              <param name="Z" type="float"/>
            </accessor>
          </technique_common>
        </source>
        <source id="Washbasin-mesh-map-0">
          <float_array id="Washbasin-mesh-map-0-array" count="1410">0.214259 0.7306531 0.2750851 0.3907877 0.2750851 0.7306531 0.3481305 0.05618703 0.43869 0.3626864 0.3481305 0.3536767 0.3244908 0.01702255 0.2286159 0.04874438 0.1364848 0.03795474 0.006665647 0.3567852 0.03759515 0.3250691 0.1364848 0.3358588 0.635975 0.3626864 0.5454155 0.05618703 0.5454155 0.3536767 0.358439 0.7364515 0.4312162 0.3966812 0.4312163 0.7364534 0.1075335 0.7409614 0.006665647 0.3877931 0.006665647 0.7336475 0.6462834 0.006665587 0.7293692 0.03475558 0.7293692 0.006665587 0.4489984 0.006665647 0.5320842 0.03475558 0.43869 0.03475564 0.7523458 0.7321806 0.7964301 0.3863261 0.7523458 0.3863261 0.7530089 0.006665647 0.7810989 0.3671479 0.7530089 0.3671479 0.1075335 0.7409614 0.1906192 0.3804792 0.1075335 0.3804792 0.3244908 0.356791 0.2286159 0.3250691 0.2525709 0.1869068 0.8688901 0.5244886 0.8097614 0.4089125 0.8688901 0.3863262 0.43869 0.03475564 0.3481305 0.01210272 0.4489984 0.006665647 0.006665647 0.3567852 0.006665647 0.01702827 0.01364016 0.1869068 0.635975 0.03475558 0.5454155 0.01210272 0.5454155 0.05618703 0.9413502 0.5244886 0.8822215 0.6400645 0.9413502 0.6626509 0.214259 0.3907877 0.2039507 0.3908419 0.214259 0.3804793 0.2039506 0.7305989 0.214259 0.7306531 0.214259 0.7409615 0.5751489 0.3729948 0.635975 0.3626864 0.5454155 0.3536767 0.3244908 0.356791 0.006868422 0.3671479 0.006665647 0.3567852 0.3244908 0.01702255 0.006868422 0.006665647 0.3347992 0.006665587 0.377864 0.3729948 0.43869 0.3626864 0.43869 0.3729948 0.3048185 0.3877932 0.2750851 0.7306531 0.2750851 0.3907877 0.2039507 0.3908419 0.214259 0.7306531 0.2039506 0.7305989 0.7427005 0.3567928 0.7530089 0.006665647 0.7530089 0.3671479 0.3481305 0.3863261 0.4312162 0.3966812 0.358439 0.396683 0.3481305 0.7468084 0.4312163 0.7364534 0.4415248 0.7468084 0.7523458 0.3863261 0.454856 0.7321806 0.7523458 0.7321806 0.5414186 0.745512 0.6272668 0.745512 0.6599839 0.8582731 0.454856 0.8799598 0.5414186 0.745512 0.567619 0.9933344 0.9413502 0.5244886 0.8822215 0.4089125 0.8822215 0.5244886 0.4072592 0.8522708 0.3481305 0.9379203 0.3481305 0.8525479 0.9565373 0.09879672 0.8974086 0.1844462 0.9565373 0.1976863 0.4072592 0.8522708 0.3481305 0.7730103 0.4072592 0.7601397 0.8688901 0.5244886 0.8097614 0.6400645 0.8097614 0.5244886 0.9565373 0.09879672 0.8974086 0.01953625 0.8974086 0.09907388 0.8403798 0.1816148 0.8117614 0.09449827 0.8117614 0.1816148 0.8403798 0.2501115 0.8117614 0.02600157 0.8117615 0.2501115 0.8403798 0.09449827 0.8117614 0.1816148 0.8117614 0.09449827 0.8403798 0.02600157 0.8117615 0.2501115 0.8117614 0.02600157 0.8758126 0.2501115 0.7886961 0.02600157 0.8758126 0.02600157 0.8358895 0.1762506 0.8750116 0.1106394 0.8358895 0.105594 0.8750116 0.1601522 0.8358895 0.1121889 0.8358895 0.1639241 0.8750116 0.1106394 0.8358895 0.1762506 0.8358895 0.105594 0.8561065 0.05383533 0.8193242 0.1907129 0.8119151 0.05383533 0.8596714 0.1601522 0.7965586 0.1159608 0.8596714 0.1159608 0.8525684 0.2306077 0.8744159 0.2673597 0.8525684 0.2690203 0.8358719 0.09206938 0.8525684 0.2306077 0.7967498 0.09456777 0.8358719 0.09206938 0.8525684 0.2306077 0.8744159 0.228947 0.8081432 0.05633378 0.8512047 0.1923736 0.8598784 0.05633372 0.8761177 0.1233698 0.8542701 0.1552504 0.8542701 0.1208627 0.816817 0.1923736 0.8512047 0.2307863 0.8512047 0.1923736 0.8525684 0.2306077 0.8744159 0.2673597 0.8744159 0.228947 0.8486975 0.1907129 0.8193242 0.2291256 0.8193242 0.1907129 0.8575175 0.1380565 0.8378335 0.1232783 0.8378335 0.1380565 0.8558157 0.244677 0.8361318 0.2620499 0.8361318 0.244677 0.8575175 0.1289231 0.8378335 0.14719 0.8378335 0.1289231 0.8558157 0.2620499 0.8361318 0.244677 0.8361318 0.2620499 0.8575175 0.1528348 0.8378335 0.1380565 0.8378335 0.1528348 0.8192325 0.2064429 0.8431442 0.2238158 0.848789 0.2064429 0.8875782 0.07014644 0.8359361 0.04558914 0.8359361 0.07014644 0.8875782 0.1323777 0.8359361 0.1612465 0.8359361 0.1323777 0.8875782 0.05496919 0.8359361 0.08532363 0.8359361 0.05496919 0.8557749 0.07014644 0.8379331 0.09470367 0.8090643 0.08532363 0.8875782 0.1612465 0.8359361 0.1323777 0.8359361 0.1612465 0.8875782 0.09470367 0.8359361 0.07014644 0.8359361 0.09470367 0.8738946 0.09920048 0.8640617 0.02126914 0.8640617 0.09920048 0.8807016 0.1403577 0.8610358 0.1403577 0.8708686 0.1305248 0.8133134 0.02126914 0.8231462 0.09920048 0.8231462 0.02126914 0.8329791 0.02126914 0.8231462 0.09920048 0.8329791 0.09920048 0.8738946 0.09920048 0.8640617 0.02126914 0.8738946 0.02126914 0.8359361 0.230524 0.8875782 0.2059666 0.8359361 0.2059666 0.8359361 0.1612465 0.8875782 0.1323777 0.8359361 0.1323777 0.8359361 0.1907894 0.8875782 0.2211439 0.8359361 0.2211439 0.8090643 0.2211439 0.8090643 0.1907894 0.8379331 0.1814094 0.8359361 0.1323777 0.8875782 0.1612465 0.8359361 0.1612465 0.8359361 0.2059666 0.8875782 0.1814094 0.8359361 0.1814094 0.8708686 0.2965363 0.8807016 0.2186049 0.8708686 0.2186049 0.8610358 0.1403577 0.8807016 0.1403577 0.8708686 0.1305248 0.8299531 0.2186049 0.8201203 0.2965363 0.8299532 0.2965363 0.8299531 0.2186049 0.8397861 0.2965363 0.839786 0.2186049 0.8708686 0.2965363 0.8807016 0.2186049 0.8807016 0.2965363 0.239032 0.9042769 0.27796 0.9446453 0.2612821 0.9042769 0.7189394 0.9603034 0.684323 0.9225103 0.7104004 0.9204781 0.9303324 0.8896228 0.8931941 0.8486354 0.9206929 0.8490896 0.01767337 0.9312911 0.05228978 0.9690843 0.04375082 0.9292589 0.2001041 0.9446453 0.239032 0.9042769 0.216782 0.9042769 0.04375082 0.9292589 0.006665647 0.8083335 0.01767337 0.9312911 0.9216439 0.2110177 0.938726 0.2309015 0.9128788 0.2272374 0.684323 0.9225103 0.701351 0.7973678 0.7104004 0.9204781 0.239032 0.9042769 0.2151111 0.7808356 0.216782 0.9042769 0.2612821 0.9042769 0.239032 0.7808356 0.239032 0.9042769 0.8931941 0.8486354 0.9237639 0.7256823 0.9206929 0.8490896 0.9128788 0.2272374 0.9224807 0.2426335 0.9024053 0.2597279 0.8942 0.725194 0.9117853 0.6764705 0.9237639 0.7256823 0.239032 0.7808356 0.2501633 0.7542928 0.2262424 0.7681765 0.0347014 0.8061486 0.02726823 0.7575721 0.006665647 0.8083335 0.6733152 0.7995526 0.7125275 0.7698734 0.701351 0.7973678 0.8369776 0.6792252 0.8097615 0.7115999 0.8097615 0.6759822 0.2912912 0.7627014 0.3196384 0.8203812 0.3196384 0.7542928 0.938726 0.2309015 0.9484987 0.2469118 0.9224807 0.2426335 0.04587787 0.7786543 0.09056448 0.7542928 0.02726823 0.7575721 0.6939178 0.7487912 0.7410035 0.7684901 0.7125275 0.7698734 0.1185835 0.784808 0.1867728 0.8057575 0.1861465 0.7799037 0.7945481 0.3154798 0.8223191 0.3414979 0.8223191 0.3053292 0.9224807 0.2426335 0.9448637 0.2868269 0.920521 0.2912736 0.07435387 0.7772709 0.1185835 0.784808 0.09056448 0.7542928 0.7410035 0.7684901 0.7898182 0.7770448 0.781103 0.8006138 0.7898182 0.7770448 0.8602247 0.7991078 0.781103 0.8006138 0.920521 0.2912736 0.9145129 0.3703951 0.8974085 0.2924773 0.3207889 0.843629 0.2931326 0.9100244 0.3207889 0.9113147 0.9448637 0.2868269 0.9357944 0.367834 0.920521 0.2912736 0.214259 0.7306531 0.214259 0.3907877 0.2750851 0.3907877 0.3481305 0.05618703 0.43869 0.03475564 0.43869 0.3626864 0.03759515 0.04874438 0.006665647 0.01702827 0.1364848 0.03795474 0.006665647 0.01702827 0.3244908 0.01702255 0.1364848 0.03795474 0.2286159 0.3250691 0.3244908 0.356791 0.1364848 0.3358588 0.3244908 0.356791 0.006665647 0.3567852 0.1364848 0.3358588 0.635975 0.3626864 0.635975 0.03475558 0.5454155 0.05618703 0.358439 0.7364515 0.358439 0.396683 0.4312162 0.3966812 0.1075335 0.7409614 0.1075335 0.3804792 0.006665647 0.3877931 0.6462834 0.006665587 0.635975 0.03475558 0.7293692 0.03475558 0.4489984 0.006665647 0.5320842 0.006665647 0.5320842 0.03475558 0.7523458 0.7321806 0.7964301 0.7321806 0.7964301 0.3863261 0.7530089 0.006665647 0.7810989 0.006665647 0.7810989 0.3671479 0.1075335 0.7409614 0.1906193 0.7409614 0.1906192 0.3804792 0.2286159 0.04874438 0.3244908 0.01702255 0.2525709 0.1869068 0.3244908 0.01702255 0.3244908 0.356791 0.2525709 0.1869068 0.8688901 0.5244886 0.8097614 0.5244886 0.8097614 0.4089125 0.43869 0.03475564 0.3481305 0.05618703 0.3481305 0.01210272 0.006665647 0.01702827 0.03759515 0.04874438 0.01364016 0.1869068 0.01364016 0.1869068 0.03759515 0.3250691 0.006665647 0.3567852 0.635975 0.03475558 0.6462834 0.006665587 0.5454155 0.01210272 0.9413502 0.5244886 0.8822215 0.5244886 0.8822215 0.6400645 0.5751489 0.3729948 0.635975 0.3729948 0.635975 0.3626864 0.3244908 0.356791 0.3347992 0.3671479 0.006868422 0.3671479 0.3244908 0.01702255 0.006665647 0.01702827 0.006868422 0.006665647 0.377864 0.3729948 0.3481305 0.3536767 0.43869 0.3626864 0.3048185 0.3877932 0.3048185 0.7336476 0.2750851 0.7306531 0.2039507 0.3908419 0.214259 0.3907877 0.214259 0.7306531 0.7427005 0.3567928 0.7427004 0.0170207 0.7530089 0.006665647 0.3481305 0.3863261 0.4415247 0.3863261 0.4312162 0.3966812 0.3481305 0.7468084 0.358439 0.7364515 0.4312163 0.7364534 0.7523458 0.3863261 0.454856 0.3863261 0.454856 0.7321806 0.6515693 0.9753828 0.567619 0.9933344 0.6599839 0.8582731 0.567619 0.9933344 0.5414186 0.745512 0.6599839 0.8582731 0.567619 0.9933344 0.4875733 0.9927209 0.454856 0.8799598 0.454856 0.8799598 0.4632707 0.7628501 0.5414186 0.745512 0.9413502 0.5244886 0.9413502 0.3863262 0.8822215 0.4089125 0.4072592 0.8522708 0.4072592 0.9511604 0.3481305 0.9379203 0.9565373 0.09879672 0.8974086 0.09907388 0.8974086 0.1844462 0.4072592 0.8522708 0.3481305 0.8525479 0.3481305 0.7730103 0.8688901 0.5244886 0.8688901 0.6626509 0.8097614 0.6400645 0.9565373 0.09879672 0.9565372 0.006665647 0.8974086 0.01953625 0.8403798 0.1816148 0.8403798 0.09449827 0.8117614 0.09449827 0.8403798 0.2501115 0.8403798 0.02600157 0.8117614 0.02600157 0.8403798 0.09449827 0.8403798 0.1816148 0.8117614 0.1816148 0.8403798 0.02600157 0.8403798 0.2501115 0.8117615 0.2501115 0.8758126 0.2501115 0.7886961 0.2501115 0.7886961 0.02600157 0.8358895 0.1762506 0.8750116 0.1737523 0.8750116 0.1106394 0.8750116 0.1601522 0.8750116 0.1159608 0.8358895 0.1121889 0.8750116 0.1106394 0.8750116 0.1737523 0.8358895 0.1762506 0.8561065 0.05383533 0.8486975 0.1907129 0.8193242 0.1907129 0.8596714 0.1601522 0.7965586 0.1601522 0.7965586 0.1159608 0.8525684 0.2306077 0.8744159 0.228947 0.8744159 0.2673597 0.8358719 0.09206938 0.8744159 0.228947 0.8525684 0.2306077 0.8358719 0.09206938 0.7967498 0.09456777 0.8525684 0.2306077 0.8081432 0.05633378 0.816817 0.1923736 0.8512047 0.1923736 0.8761177 0.1233698 0.8761177 0.1527432 0.8542701 0.1552504 0.816817 0.1923736 0.816817 0.2307863 0.8512047 0.2307863 0.8525684 0.2306077 0.8525684 0.2690203 0.8744159 0.2673597 0.8486975 0.1907129 0.8486975 0.2291256 0.8193242 0.2291256 0.8575175 0.1380565 0.8575175 0.1232783 0.8378335 0.1232783 0.8558157 0.244677 0.8558157 0.2620499 0.8361318 0.2620499 0.8575175 0.1289231 0.8575175 0.14719 0.8378335 0.14719 0.8558157 0.2620499 0.8558157 0.244677 0.8361318 0.244677 0.8575175 0.1528348 0.8575175 0.1380565 0.8378335 0.1380565 0.848789 0.2064429 0.8340108 0.1957059 0.8192325 0.2064429 0.8192325 0.2064429 0.8248773 0.2238158 0.8431442 0.2238158 0.8875782 0.07014644 0.8875782 0.04558914 0.8359361 0.04558914 0.8875782 0.1323777 0.8875782 0.1612465 0.8359361 0.1612465 0.8875782 0.05496919 0.8875782 0.08532363 0.8359361 0.08532363 0.8090643 0.05496919 0.8379331 0.04558914 0.8090643 0.08532363 0.8379331 0.04558914 0.8557749 0.07014644 0.8090643 0.08532363 0.8875782 0.1612465 0.8875782 0.1323777 0.8359361 0.1323777 0.8875782 0.09470367 0.8875782 0.07014644 0.8359361 0.07014644 0.8738946 0.09920048 0.8738946 0.02126914 0.8640617 0.02126914 0.8807016 0.1403577 0.8708686 0.1501905 0.8610358 0.1403577 0.8133134 0.02126914 0.8133134 0.09920048 0.8231462 0.09920048 0.8329791 0.02126914 0.8231462 0.02126914 0.8231462 0.09920048 0.8738946 0.09920048 0.8640617 0.09920048 0.8640617 0.02126914 0.8359361 0.230524 0.8875782 0.230524 0.8875782 0.2059666 0.8359361 0.1612465 0.8875782 0.1612465 0.8875782 0.1323777 0.8359361 0.1907894 0.8875782 0.1907894 0.8875782 0.2211439 0.8557749 0.2059666 0.8379331 0.230524 0.8379331 0.1814094 0.8379331 0.230524 0.8090643 0.2211439 0.8379331 0.1814094 0.8359361 0.1323777 0.8875782 0.1323777 0.8875782 0.1612465 0.8359361 0.2059666 0.8875782 0.2059666 0.8875782 0.1814094 0.8708686 0.2965363 0.8807016 0.2965363 0.8807016 0.2186049 0.8610358 0.1403577 0.8708686 0.1501905 0.8807016 0.1403577 0.8299531 0.2186049 0.8201203 0.2186049 0.8201203 0.2965363 0.8299531 0.2186049 0.8299532 0.2965363 0.8397861 0.2965363 0.8708686 0.2965363 0.8708686 0.2186049 0.8807016 0.2186049 0.239032 0.9042769 0.239032 0.9446453 0.27796 0.9446453 0.7189394 0.9603034 0.6733152 0.9638589 0.684323 0.9225103 0.9303324 0.8896228 0.8822214 0.8888282 0.8931941 0.8486354 0.01767337 0.9312911 0.006665647 0.9726397 0.05228978 0.9690843 0.2001041 0.9446453 0.239032 0.9446453 0.239032 0.9042769 0.04375082 0.9292589 0.0347014 0.8061486 0.006665647 0.8083335 0.9216439 0.2110177 0.9493462 0.2213541 0.938726 0.2309015 0.684323 0.9225103 0.6733152 0.7995526 0.701351 0.7973678 0.239032 0.9042769 0.239032 0.7808356 0.2151111 0.7808356 0.2612821 0.9042769 0.262953 0.7808356 0.239032 0.7808356 0.8931941 0.8486354 0.8942 0.725194 0.9237639 0.7256823 0.9128788 0.2272374 0.938726 0.2309015 0.9224807 0.2426335 0.8942 0.725194 0.8822214 0.6759822 0.9117853 0.6764705 0.239032 0.7808356 0.262953 0.7808356 0.2501633 0.7542928 0.0347014 0.8061486 0.04587787 0.7786543 0.02726823 0.7575721 0.6733152 0.7995526 0.6939178 0.7487912 0.7125275 0.7698734 0.8369776 0.6792252 0.8376632 0.7199926 0.8097615 0.7115999 0.2912912 0.7627014 0.2912912 0.8287898 0.3196384 0.8203812 0.938726 0.2309015 0.9589722 0.2144213 0.9484987 0.2469118 0.04587787 0.7786543 0.07435387 0.7772709 0.09056448 0.7542928 0.6939178 0.7487912 0.7572141 0.745512 0.7410035 0.7684901 0.1185835 0.784808 0.1070345 0.8077481 0.1867728 0.8057575 0.7945481 0.3154798 0.7944301 0.3502323 0.8223191 0.3414979 0.9224807 0.2426335 0.9484987 0.2469118 0.9448637 0.2868269 0.07435387 0.7772709 0.1070345 0.8077481 0.1185835 0.784808 0.7410035 0.7684901 0.7572141 0.745512 0.7898182 0.7770448 0.7898182 0.7770448 0.8570001 0.77244 0.8602247 0.7991078 0.920521 0.2912736 0.9357944 0.367834 0.9145129 0.3703951 0.3207889 0.843629 0.2912912 0.842121 0.2931326 0.9100244 0.9448637 0.2868269 0.9589721 0.3649005 0.9357944 0.367834</float_array>
          <technique_common>
            <accessor source="#Washbasin-mesh-map-0-array" count="705" stride="2">
              <param name="S" type="float"/>
              <param name="T" type="float"/>
            </accessor>
          </technique_common>
        </source>
        <vertices id="Washbasin-mesh-vertices">
          <input semantic="POSITION" source="#Washbasin-mesh-positions"/>
        </vertices>
        <triangles material="Washbasin-material" count="235">
          <input semantic="VERTEX" source="#Washbasin-mesh-vertices" offset="0"/>
          <input semantic="NORMAL" source="#Washbasin-mesh-normals" offset="1"/>
          <input semantic="TEXCOORD" source="#Washbasin-mesh-map-0" offset="2" set="0"/>
          <p>26 0 0 16 1 1 23 2 2 1 3 3 27 4 4 24 5 5 29 6 6 10 7 7 13 8 8 19 9 9 8 10 10 12 11 11 20 12 12 0 13 13 17 14 14 21 15 15 32 16 16 30 17 17 2 18 18 4 19 19 3 20 20 2 21 21 31 22 22 6 23 23 5 24 24 33 25 25 28 26 26 0 27 27 4 27 28 1 27 29 33 25 30 6 28 31 31 22 32 2 18 33 7 29 34 5 30 35 21 15 36 9 31 37 14 32 38 14 33 39 37 34 40 10 35 41 28 26 42 4 36 43 5 24 44 19 9 45 25 37 46 15 38 47 22 39 48 3 40 49 0 13 50 15 41 51 41 42 52 8 43 53 18 44 54 19 9 55 20 12 56 25 37 57 26 0 58 27 4 59 16 1 60 20 12 61 17 14 62 21 15 63 20 12 64 19 9 65 29 6 66 27 4 67 28 26 68 23 2 69 27 4 70 26 0 71 17 45 72 23 2 73 16 1 74 19 9 75 26 0 76 25 37 77 30 17 78 33 25 79 31 22 80 28 26 81 32 16 82 29 6 83 22 39 84 30 17 85 31 22 86 1 27 87 17 45 88 0 27 89 34 46 90 41 47 91 40 48 92 36 49 93 34 46 94 38 50 95 15 41 96 39 51 97 40 52 98 12 53 99 41 54 100 34 55 101 13 56 102 39 57 103 11 58 104 12 53 105 35 59 106 9 60 107 14 33 108 35 61 109 36 62 110 13 56 111 37 63 112 38 64 113 43 23 114 44 23 115 42 23 116 45 29 117 48 29 118 44 29 119 49 65 120 46 65 121 48 65 122 47 66 123 42 66 124 46 66 125 45 28 126 47 28 127 49 28 128 50 67 129 53 68 130 52 69 131 53 70 132 56 71 133 52 72 134 57 73 135 54 74 136 56 75 137 51 76 138 60 77 139 55 78 140 53 28 141 55 78 142 57 28 143 61 79 144 64 80 145 65 81 146 55 82 147 61 79 148 54 74 149 51 83 150 58 84 151 59 85 152 54 86 153 58 87 154 50 88 155 64 89 156 62 90 157 65 91 158 61 87 159 62 27 160 58 87 161 58 84 162 63 92 163 59 85 164 59 93 165 64 28 166 60 77 167 67 94 168 68 95 169 66 96 170 69 97 171 70 97 172 68 98 173 71 66 174 72 66 175 70 66 176 73 99 177 74 99 178 72 100 179 75 101 180 66 102 181 74 103 182 68 27 183 72 27 184 74 27 185 77 104 186 78 105 187 76 106 188 79 107 189 80 107 190 78 108 191 81 66 192 82 66 193 80 66 194 77 109 195 85 110 196 83 111 197 83 112 198 84 113 199 82 114 200 85 115 201 76 116 202 84 117 203 89 118 204 92 119 205 88 120 206 93 65 207 90 65 208 92 65 209 91 121 210 86 122 211 90 121 212 92 123 213 86 124 214 88 125 215 89 126 216 91 127 217 93 127 218 96 128 219 95 128 220 94 129 221 98 130 222 97 130 223 96 131 224 100 66 225 99 66 226 98 66 227 99 28 228 101 28 229 103 28 230 102 132 231 101 133 232 100 134 233 94 135 234 103 94 235 102 136 236 110 137 237 107 118 238 106 138 239 108 23 240 111 23 241 110 23 242 104 139 243 109 140 244 108 121 245 104 124 246 110 141 247 106 142 248 109 143 249 107 144 250 111 127 251 112 145 252 115 146 253 114 147 254 115 146 255 116 148 256 114 147 257 117 149 258 118 150 259 116 148 260 118 150 261 121 151 262 120 152 263 121 151 264 112 145 265 120 152 266 120 152 267 125 153 268 118 150 269 126 154 270 127 155 271 131 156 272 116 148 273 123 157 274 114 147 275 112 145 276 126 154 277 120 152 278 114 147 279 122 158 280 112 145 281 118 150 282 124 159 283 116 148 284 131 160 285 132 161 286 136 162 287 125 163 288 129 164 289 124 159 290 122 158 291 128 165 292 127 166 293 126 167 294 130 168 295 125 153 296 124 169 297 128 170 298 123 157 299 132 161 300 141 171 301 136 162 302 130 172 303 134 173 304 129 164 305 127 166 306 133 174 307 132 161 308 131 175 309 135 176 310 130 168 311 129 177 312 133 178 313 128 170 314 140 179 315 146 180 316 145 181 317 135 182 318 139 183 319 134 173 320 132 161 321 138 184 322 137 185 323 136 186 324 140 179 325 135 176 326 133 178 327 139 187 328 138 188 329 139 187 330 143 189 331 138 188 332 137 185 333 146 190 334 141 171 335 139 183 336 145 191 337 144 192 338 138 184 339 142 193 340 137 185 341 26 0 342 18 44 343 16 1 344 1 3 345 28 26 346 27 4 347 11 194 348 25 37 349 13 8 350 25 37 351 29 6 352 13 8 353 9 31 354 21 15 355 12 11 356 21 15 357 19 9 358 12 11 359 20 12 360 22 39 361 0 13 362 21 15 363 29 6 364 32 16 365 2 18 366 5 30 367 4 19 368 2 21 369 22 39 370 31 22 371 5 24 372 7 195 373 33 25 374 0 27 375 3 27 376 4 27 377 33 25 378 7 28 379 6 28 380 2 18 381 6 29 382 7 29 383 10 7 384 29 6 385 14 32 386 29 6 387 21 15 388 14 32 389 14 33 390 36 62 391 37 34 392 28 26 393 1 3 394 4 36 395 25 37 396 11 194 397 15 38 398 15 38 399 8 10 400 19 9 401 22 39 402 2 21 403 3 40 404 15 41 405 40 52 406 41 42 407 16 1 408 18 44 409 20 12 410 21 15 411 22 39 412 20 12 413 29 6 414 25 37 415 27 4 416 23 2 417 24 5 418 27 4 419 17 45 420 24 196 421 23 2 422 19 9 423 18 44 424 26 0 425 30 17 426 32 16 427 33 25 428 28 26 429 33 25 430 32 16 431 22 39 432 21 15 433 30 17 434 1 27 435 24 196 436 17 45 437 39 28 438 38 50 439 40 48 440 38 50 441 34 46 442 40 48 443 38 50 444 37 197 445 36 49 446 36 49 447 35 28 448 34 46 449 15 41 450 11 198 451 39 51 452 12 53 453 8 199 454 41 54 455 13 56 456 38 64 457 39 57 458 12 53 459 34 55 460 35 59 461 14 33 462 9 200 463 35 61 464 13 56 465 10 201 466 37 63 467 43 23 468 45 23 469 44 23 470 45 29 471 49 29 472 48 29 473 49 65 474 47 65 475 46 65 476 47 66 477 43 66 478 42 66 479 45 28 480 43 28 481 47 28 482 50 67 483 51 83 484 53 68 485 53 70 486 57 202 487 56 71 488 57 73 489 55 82 490 54 74 491 51 76 492 59 93 493 60 77 494 53 28 495 51 76 496 55 78 497 61 79 498 60 203 499 64 80 500 55 82 501 60 203 502 61 79 503 51 83 504 50 67 505 58 84 506 54 86 507 61 87 508 58 87 509 64 89 510 63 204 511 62 90 512 61 87 513 65 27 514 62 27 515 58 84 516 62 205 517 63 92 518 59 93 519 63 28 520 64 28 521 67 94 522 69 206 523 68 95 524 69 97 525 71 133 526 70 97 527 71 66 528 73 66 529 72 66 530 73 99 531 75 207 532 74 99 533 75 101 534 67 208 535 66 102 536 74 27 537 66 27 538 68 27 539 68 27 540 70 27 541 72 27 542 77 104 543 79 95 544 78 105 545 79 107 546 81 97 547 80 107 548 81 66 549 83 66 550 82 66 551 81 28 552 79 28 553 83 111 554 79 28 555 77 109 556 83 111 557 83 112 558 85 209 559 84 113 560 85 115 561 77 210 562 76 116 563 89 118 564 93 211 565 92 119 566 93 65 567 91 65 568 90 65 569 91 121 570 87 122 571 86 122 572 92 123 573 90 212 574 86 124 575 89 126 576 87 126 577 91 127 578 96 128 579 97 128 580 95 128 581 98 130 582 99 131 583 97 130 584 100 66 585 101 66 586 99 66 587 95 28 588 97 28 589 103 28 590 97 28 591 99 28 592 103 28 593 102 132 594 103 97 595 101 133 596 94 135 597 95 213 598 103 94 599 110 137 600 111 211 601 107 118 602 108 23 603 109 23 604 111 23 605 104 139 606 105 139 607 109 140 608 104 124 609 108 212 610 110 141 611 109 143 612 105 144 613 107 144 614 112 145 615 113 214 616 115 146 617 115 146 618 117 149 619 116 148 620 117 149 621 119 215 622 118 150 623 118 150 624 119 215 625 121 151 626 121 151 627 113 214 628 112 145 629 120 152 630 126 167 631 125 153 632 126 154 633 122 216 634 127 155 635 116 148 636 124 169 637 123 157 638 112 145 639 122 216 640 126 154 641 114 147 642 123 217 643 122 158 644 118 150 645 125 163 646 124 159 647 131 160 648 127 218 649 132 161 650 125 163 651 130 172 652 129 164 653 122 158 654 123 217 655 128 165 656 126 167 657 131 175 658 130 168 659 124 169 660 129 177 661 128 170 662 132 161 663 137 185 664 141 171 665 130 172 666 135 182 667 134 173 668 127 166 669 128 165 670 133 174 671 131 175 672 136 186 673 135 176 674 129 177 675 134 219 676 133 178 677 140 179 678 141 220 679 146 180 680 135 182 681 140 221 682 139 183 683 132 161 684 133 174 685 138 184 686 136 186 687 141 220 688 140 179 689 133 178 690 134 219 691 139 187 692 139 187 693 144 222 694 143 189 695 137 185 696 142 223 697 146 190 698 139 183 699 140 221 700 145 191 701 138 184 702 143 224 703 142 193 704</p>
        </triangles>
      </mesh>
    </geometry>
  </library_geometries>
  <library_visual_scenes>
    <visual_scene id="Scene" name="Scene">
      <node id="Washbasin" name="Washbasin" type="NODE">
        <matrix sid="transform">-0.2940979 -9.58293e-8 0 0 -9.58293e-8 0.2940979 0 0 0 0 0.2940979 0 0 0 0 1</matrix>
        <instance_geometry url="#Washbasin-mesh" name="Washbasin">
          <bind_material>
            <technique_common>
              <instance_material symbol="Washbasin-material" target="#Washbasin-material">
                <bind_vertex_input semantic="UVMap" input_semantic="TEXCOORD" input_set="0"/>
              </instance_material>
            </technique_common>
          </bind_material>
        </instance_geometry>
      </node>
    </visual_scene>
  </library_visual_scenes>
  <scene>
    <instance_visual_scene url="#Scene"/>
  </scene>
</COLLADA>