<?xml version="1.0" encoding="utf-8"?>
<COLLADA xmlns="http://www.collada.org/2005/11/COLLADASchema" version="1.4.1" xmlns:xsi="http://www.w3.org/2001/XMLSchema-instance">
  <asset>
    <contributor>
      <author>Blender User</author>
      <authoring_tool>Blender 4.0.1 commit date:2023-11-16, commit time:16:40, hash:d0dd92834a08</authoring_tool>
    </contributor>
    <created>2023-11-28T13:19:16</created>
    <modified>2023-11-28T13:19:16</modified>
    <unit name="meter" meter="1"/>
    <up_axis>Z_UP</up_axis>
  </asset>
  <library_effects>
    <effect id="Soap_dispenser-effect">
      <profile_COMMON>
        <newparam sid="Soap_dispenser-surface">
          <surface type="2D">
            <init_from>Soap_dispenser</init_from>
          </surface>
        </newparam>
        <newparam sid="Soap_dispenser-sampler">
          <sampler2D>
            <source>Soap_dispenser-surface</source>
          </sampler2D>
        </newparam>
        <technique sid="common">
          <lambert>
            <emission>
              <color sid="emission">0 0 0 1</color>
            </emission>
            <diffuse>
              <texture texture="Soap_dispenser-sampler" texcoord="UVMap"/>
            </diffuse>
            <index_of_refraction>
              <float sid="ior">1.45</float>
            </index_of_refraction>
          </lambert>
        </technique>
      </profile_COMMON>
    </effect>
  </library_effects>
  <library_images>
    <image id="Soap_dispenser" name="Soap_dispenser">
      <init_from>Soap_dispenser.png</init_from>
    </image>
  </library_images>
  <library_materials>
    <material id="Soap_dispenser-material" name="Soap_dispenser">
      <instance_effect url="#Soap_dispenser-effect"/>
    </material>
  </library_materials>
  <library_geometries>
    <geometry id="Soap_dispenser-mesh" name="Soap_dispenser">
      <mesh>
        <source id="Soap_dispenser-mesh-positions">
          <float_array id="Soap_dispenser-mesh-positions-array" count="138">-0.9684321 0.4718984 -1.50161 -0.9684321 0.4718984 1.068902 0.9689671 0.4718984 -1.50161 0.9689671 0.4718984 1.068902 -0.5509177 -0.6746084 -1.50161 -0.8085418 -0.4894576 -1.50161 -0.5508261 -0.5685085 1.068902 -0.8116493 -0.3835368 1.068902 0.8090769 -0.4894576 -1.50161 0.5514527 -0.6746084 -1.50161 0.8121843 -0.3835368 1.068902 0.5513612 -0.5685085 1.068902 -0.6993798 -0.2152917 1.512651 -0.4318634 -0.4034025 1.499185 -0.4182378 -0.1579747 1.696905 -0.8128501 0.4718984 1.614642 -0.5349029 0.4718984 1.793329 0.535438 0.4718984 1.793329 0.8133851 0.4718984 1.614642 0.6999148 -0.2152917 1.512651 0.4187728 -0.1579747 1.696905 0.4323984 -0.4034025 1.499185 -0.6460727 -0.311102 -1.591932 0.6460727 -0.311102 -1.591932 -0.6460727 -0.311102 -1.325616 -0.0982567 -0.311102 -0.8639863 -0.4856211 -0.311102 -0.9991946 0.0982567 -0.311102 -0.8639863 0.6460727 -0.311102 -1.325616 0.4856211 -0.311102 -0.9991946 -0.4191169 -0.8814105 -1.591932 -0.6460727 -0.6544547 -1.591932 0.6460727 -0.6544547 -1.591932 0.4191169 -0.8814105 -1.591932 -0.05311238 -0.8814105 -1.055236 -0.0982567 -0.6544547 -0.8639863 -0.4191169 -0.8814105 -1.363658 -0.6460727 -0.6544547 -1.325616 -0.3119167 -0.8814105 -1.145571 -0.4856211 -0.6544547 -0.9991946 0.4191169 -0.8814105 -1.363658 0.6460727 -0.6544547 -1.325616 0.05311238 -0.8814105 -1.055236 0.0982567 -0.6544547 -0.8639863 0.3119166 -0.8814105 -1.145571 0.4856211 -0.6544547 -0.9991946</float_array>
          <technique_common>
            <accessor source="#Soap_dispenser-mesh-positions-array" count="46" stride="3">
              <param name="X" type="float"/>
              <param name="Y" type="float"/>
              <param name="Z" type="float"/>
            </accessor>
          </technique_common>
        </source>
        <source id="Soap_dispenser-mesh-normals">
          <float_array id="Soap_dispenser-mesh-normals-array" count="138">0.3071004 -0.9253996 0.2220926 -0.2364209 -0.7402386 -0.6294062 0.2364209 -0.7402386 -0.6294062 -0.7866942 0.6068809 0.1131717 0.6287761 0.5309966 -0.5680522 -0.628776 0.5309966 -0.5680524 0.7866943 0.6068809 0.1131717 0.6897877 -0.4350581 0.5787206 0.819325 -0.536657 0.2017568 -0.6897876 -0.435058 0.5787206 -0.6662676 0.5504161 0.5031198 -0.819325 -0.536657 0.2017569 -0.6610327 -0.4191038 -0.6224049 -0.2149268 -0.7844276 0.5817902 -0.3071004 -0.9253996 0.2220926 -0.248587 0.5725978 0.7812403 0.248587 0.5725978 0.7812402 0.6610328 -0.4191038 -0.6224048 0.2149872 -0.3881052 0.896189 -0.2149872 -0.3881052 0.896189 0.2149268 -0.7844276 0.5817902 0.6662676 0.5504162 0.5031198 -0.514452 0.6308653 0.5808168 -0.9064991 -0.3670317 0.2086794 -0.6258778 -0.3520038 0.6959672 -0.1238623 0.6713539 0.7307134 -0.1588845 -0.3372914 0.9278956 0.7321672 0.6595121 0.1702208 0.717284 -0.2971084 -0.6302621 0.5773504 0.5773502 -0.5773503 -0.4134996 -0.9050595 0.09942579 -0.2971087 -0.7172837 -0.6302624 -0.07325452 -0.8922572 0.4455457 0.1238623 0.6713539 0.7307134 0.1588846 -0.3372915 0.9278956 0.6258779 -0.3520038 0.6959671 0.514452 0.6308653 0.5808169 -0.5773503 0.5773501 -0.5773503 -0.717284 -0.2971084 -0.6302621 -0.294196 -0.8872805 0.3552212 0.294196 -0.8872805 0.3552212 0.07325458 -0.8922572 0.4455457 0.4134996 -0.9050595 0.09942585 0.2971086 -0.7172836 -0.6302624 -0.7321672 0.6595121 0.1702207 0.9064992 -0.3670317 0.2086794</float_array>
          <technique_common>
            <accessor source="#Soap_dispenser-mesh-normals-array" count="46" stride="3">
              <param name="X" type="float"/>
              <param name="Y" type="float"/>
              <param name="Z" type="float"/>
            </accessor>
          </technique_common>
        </source>
        <source id="Soap_dispenser-mesh-map-0">
          <float_array id="Soap_dispenser-mesh-map-0-array" count="504">0.2864733 0.7925063 0.005524396 0.9129819 0.005524396 0.7924963 0.5292508 0.7087719 0.7410024 0.427823 0.5292508 0.427823 0.8577356 0.7118069 0.7826279 0.7603073 0.7642393 0.7118069 0.8678864 0.2867457 0.7927787 0.335246 0.8678864 0.3463932 0.77439 0.2867457 0.8678864 0.00579679 0.7628132 0.00579679 0.2864733 0.7925063 0.3335018 0.8999696 0.2864733 0.9129719 0.5766341 0.7879495 0.693619 0.7879495 0.7410024 0.7087719 0.8577356 0.430858 0.7642393 0.7118069 0.7526625 0.430858 0.9668558 0.7486888 0.8980127 0.6444551 0.9668558 0.6317039 0.8917481 0.7666656 0.8711882 0.7374269 0.8980127 0.7359377 0.8917481 0.6137272 0.8980127 0.6444551 0.8711882 0.6429659 0.2864733 0.9129719 0.005524396 0.9411394 0.005524396 0.9129819 0.2864733 0.7925063 0.005524396 0.7643388 0.2864733 0.7639992 0.8980127 0.7359377 0.9668558 0.7790675 0.8917481 0.7666656 0.8980127 0.6444551 0.9668558 0.6013252 0.9668558 0.6317039 0.8980127 0.7359377 0.8711882 0.6429659 0.8980127 0.6444551 0.3335018 0.8999696 0.2864733 0.941479 0.2864733 0.9129719 0.2864733 0.7639992 0.3335018 0.8055086 0.2864733 0.7925063 0.8694608 0.4289672 0.8694608 0.5494529 0.9947703 0.3833342 0.9300596 0.7990136 0.8018568 0.933866 0.9300596 0.933866 0.7511531 0.2627726 0.6163008 0.4149106 0.6163008 0.2627726 0.4529259 0.8015514 0.3483301 0.9364037 0.3483301 0.8015514 0.4267629 0.09552514 0.5164177 0.09552514 0.3056295 0.239274 0.005931198 0.006387829 0.2918331 0.2215434 0.110527 0.00638777 0.7511531 0.2627726 0.6163008 0.1855915 0.7511531 0.1855915 0.5811287 0.9364037 0.4529259 0.8015514 0.5811286 0.8015514 0.6163008 0.1855915 0.7511531 0.03345352 0.7511531 0.1855915 0.8018568 0.933866 0.697261 0.7990136 0.697261 0.933866 0.5271635 0.3466879 0.6163008 0.2627726 0.6163008 0.4149106 0.4267629 0.09552514 0.2836192 0.06940549 0.4118219 0.006387829 0.5271635 0.1016762 0.6163008 0.1855915 0.5271635 0.2033221 0.4267629 0.4247429 0.2836192 0.4508625 0.3411087 0.3826398 0.5164177 0.5138802 0.4267629 0.4247429 0.5164177 0.4247429 0.6163008 0.2627726 0.5271635 0.2033221 0.6163008 0.1855915 0.5164177 0.006387829 0.4267629 0.09552514 0.4118219 0.006387829 0.09552508 0.7511531 0.4247428 0.7511531 0.5138801 0.5271635 0.2864733 0.7925063 0.2864733 0.9129719 0.005524396 0.9129819 0.5292508 0.7087719 0.7410024 0.7087719 0.7410024 0.427823 0.8577356 0.7118069 0.8577356 0.7714545 0.7826279 0.7603073 0.8678864 0.2867457 0.77439 0.2867457 0.7927787 0.335246 0.77439 0.2867457 0.8678864 0.2867457 0.8678864 0.00579679 0.2864733 0.7925063 0.3335018 0.8055086 0.3335018 0.8999696 0.7239977 0.7684195 0.7410024 0.7087719 0.693619 0.7879495 0.7410024 0.7087719 0.5292508 0.7087719 0.5766341 0.7879495 0.5292508 0.7087719 0.5462554 0.7684195 0.5766341 0.7879495 0.8577356 0.430858 0.8577356 0.7118069 0.7642393 0.7118069 0.9668558 0.7486888 0.8980127 0.7359377 0.8980127 0.6444551 0.2864733 0.9129719 0.2864733 0.941479 0.005524396 0.9411394 0.2864733 0.7925063 0.005524396 0.7924963 0.005524396 0.7643388 0.8980127 0.7359377 0.9668558 0.7486888 0.9668558 0.7790675 0.8980127 0.6444551 0.8917481 0.6137272 0.9668558 0.6013252 0.8980127 0.7359377 0.8711882 0.7374269 0.8711882 0.6429659 0.3335018 0.8999696 0.3349737 0.9292083 0.2864733 0.941479 0.2864733 0.7639992 0.3349737 0.7762699 0.3335018 0.8055086 0.8896971 0.5776104 0.9947703 0.5950859 0.8694608 0.5494529 0.9947703 0.5950859 0.9947703 0.3833342 0.8694608 0.5494529 0.9947703 0.3833342 0.8896971 0.4008097 0.8694608 0.4289672 0.9300596 0.7990136 0.8018568 0.7990136 0.8018568 0.933866 0.7511531 0.2627726 0.7511531 0.4149106 0.6163008 0.4149106 0.4529259 0.8015514 0.4529259 0.9364037 0.3483301 0.9364037 0.5164177 0.09552514 0.5164177 0.4247429 0.3056295 0.280994 0.5164177 0.4247429 0.4267629 0.4247429 0.3056295 0.280994 0.4267629 0.4247429 0.3411087 0.3826398 0.3056295 0.280994 0.3056295 0.280994 0.3056295 0.239274 0.5164177 0.09552514 0.3056295 0.239274 0.3411086 0.1376282 0.4267629 0.09552514 0.005931198 0.006387829 0.005931258 0.5138801 0.2918331 0.2987244 0.005931258 0.5138801 0.110527 0.5138801 0.2918331 0.2987244 0.110527 0.5138801 0.2387298 0.4508625 0.2918331 0.2987244 0.2918331 0.2987244 0.2918331 0.2215434 0.005931198 0.006387829 0.2918331 0.2215434 0.2387298 0.06940543 0.110527 0.00638777 0.7511531 0.2627726 0.6163008 0.2627726 0.6163008 0.1855915 0.5811287 0.9364037 0.4529259 0.9364037 0.4529259 0.8015514 0.6163008 0.1855915 0.6163008 0.03345358 0.7511531 0.03345352 0.8018568 0.933866 0.8018568 0.7990136 0.697261 0.7990136 0.5271635 0.3466879 0.5271635 0.245042 0.6163008 0.2627726 0.4267629 0.09552514 0.3411086 0.1376282 0.2836192 0.06940549 0.5271635 0.1016762 0.6163008 0.03345358 0.6163008 0.1855915 0.4267629 0.4247429 0.4118219 0.5138802 0.2836192 0.4508625 0.5164177 0.5138802 0.4118219 0.5138802 0.4267629 0.4247429 0.6163008 0.2627726 0.5271635 0.245042 0.5271635 0.2033221 0.5164177 0.006387829 0.5164177 0.09552514 0.4267629 0.09552514 0.5138801 0.6620158 0.5138801 0.5271635 0.4247428 0.7511531 0.5138801 0.5271635 0.00638777 0.5271635 0.09552508 0.7511531 0.00638777 0.5271635 0.00638777 0.6620159 0.09552508 0.7511531</float_array>
          <technique_common>
            <accessor source="#Soap_dispenser-mesh-map-0-array" count="252" stride="2">
              <param name="S" type="float"/>
              <param name="T" type="float"/>
            </accessor>
          </technique_common>
        </source>
        <vertices id="Soap_dispenser-mesh-vertices">
          <input semantic="POSITION" source="#Soap_dispenser-mesh-positions"/>
        </vertices>
        <triangles material="Soap_dispenser-material" count="84">
          <input semantic="VERTEX" source="#Soap_dispenser-mesh-vertices" offset="0"/>
          <input semantic="NORMAL" source="#Soap_dispenser-mesh-normals" offset="1"/>
          <input semantic="TEXCOORD" source="#Soap_dispenser-mesh-map-0" offset="2" set="0"/>
          <p>11 0 0 4 1 1 9 2 2 1 3 3 2 4 4 0 5 5 3 6 6 19 7 7 10 8 8 1 3 9 12 9 10 15 10 11 7 11 12 0 5 13 5 12 14 11 0 15 13 13 16 6 14 17 16 15 18 17 16 19 3 6 20 2 4 21 10 8 22 8 17 23 16 15 24 20 18 25 17 16 26 12 9 27 13 13 28 14 19 29 19 7 30 20 18 31 21 20 32 6 14 33 5 12 34 4 1 35 11 0 36 8 17 37 10 8 38 14 19 39 15 10 40 12 9 41 20 18 42 18 21 43 17 16 44 14 19 45 21 20 46 20 18 47 13 13 48 7 11 49 6 14 50 10 8 51 21 20 52 11 0 53 9 2 54 4 1 55 2 4 56 26 22 57 37 23 58 39 24 59 25 25 60 39 24 61 35 26 62 28 27 63 32 28 64 23 29 65 36 30 66 30 31 67 34 32 68 23 29 69 27 33 70 28 27 71 25 25 72 43 34 73 27 33 74 45 35 75 28 27 76 29 36 77 43 34 78 29 36 79 27 33 80 37 23 81 22 37 82 31 38 83 38 39 84 35 26 85 39 24 86 36 30 87 39 24 88 37 23 89 44 40 90 43 34 91 42 41 92 40 42 93 45 35 94 44 40 95 32 28 96 40 42 97 33 43 98 35 26 99 42 41 100 43 34 101 31 38 102 36 30 103 37 23 104 33 43 105 30 31 106 22 37 107 11 0 108 6 14 109 4 1 110 1 3 111 3 6 112 2 4 113 3 6 114 18 21 115 19 7 116 1 3 117 7 11 118 12 9 119 7 11 120 1 3 121 0 5 122 11 0 123 21 20 124 13 13 125 18 21 126 3 6 127 17 16 128 3 6 129 1 3 130 16 15 131 1 3 132 15 10 133 16 15 134 2 4 135 3 6 136 10 8 137 16 15 138 14 19 139 20 18 140 6 14 141 7 11 142 5 12 143 11 0 144 9 2 145 8 17 146 14 19 147 16 15 148 15 10 149 20 18 150 19 7 151 18 21 152 14 19 153 13 13 154 21 20 155 13 13 156 12 9 157 7 11 158 10 8 159 19 7 160 21 20 161 5 12 162 0 5 163 4 1 164 0 5 165 2 4 166 4 1 167 2 4 168 8 17 169 9 2 170 26 22 171 24 44 172 37 23 173 25 25 174 26 22 175 39 24 176 28 27 177 41 45 178 32 28 179 30 31 180 33 43 181 42 41 182 33 43 183 40 42 184 42 41 185 40 42 186 44 40 187 42 41 188 42 41 189 34 32 190 30 31 191 34 32 192 38 39 193 36 30 194 23 29 195 22 37 196 25 25 197 22 37 198 24 44 199 25 25 200 24 44 201 26 22 202 25 25 203 25 25 204 27 33 205 23 29 206 27 33 207 29 36 208 28 27 209 25 25 210 35 26 211 43 34 212 45 35 213 41 45 214 28 27 215 43 34 216 45 35 217 29 36 218 37 23 219 24 44 220 22 37 221 38 39 222 34 32 223 35 26 224 36 30 225 38 39 226 39 24 227 44 40 228 45 35 229 43 34 230 40 42 231 41 45 232 45 35 233 32 28 234 41 45 235 40 42 236 35 26 237 34 32 238 42 41 239 31 38 240 30 31 241 36 30 242 31 38 243 22 37 244 30 31 245 22 37 246 23 29 247 33 43 248 23 29 249 32 28 250 33 43 251</p>
        </triangles>
      </mesh>
    </geometry>
  </library_geometries>
  <library_visual_scenes>
    <visual_scene id="Scene" name="Scene">
      <node id="Soap_dispenser" name="Soap_dispenser" type="NODE">
        <matrix sid="transform">-0.08663663 -2.82298e-8 0 0 -2.82298e-8 0.08663663 0 0 0 0 0.08663663 0 0 0 0 1</matrix>
        <instance_geometry url="#Soap_dispenser-mesh" name="Soap_dispenser">
          <bind_material>
            <technique_common>
              <instance_material symbol="Soap_dispenser-material" target="#Soap_dispenser-material">
                <bind_vertex_input semantic="UVMap" input_semantic="TEXCOORD" input_set="0"/>
              </instance_material>
            </technique_common>
          </bind_material>
        </instance_geometry>
      </node>
    </visual_scene>
  </library_visual_scenes>
  <scene>
    <instance_visual_scene url="#Scene"/>
  </scene>
</COLLADA>