<?xml version="1.0" encoding="utf-8"?>
<COLLADA xmlns="http://www.collada.org/2005/11/COLLADASchema" version="1.4.1" xmlns:xsi="http://www.w3.org/2001/XMLSchema-instance">
  <asset>
    <contributor>
      <author>Blender User</author>
      <authoring_tool>Blender 4.0.1 commit date:2023-11-16, commit time:16:40, hash:d0dd92834a08</authoring_tool>
    </contributor>
    <created>2023-11-28T13:39:41</created>
    <modified>2023-11-28T13:39:41</modified>
    <unit name="meter" meter="1"/>
    <up_axis>Z_UP</up_axis>
  </asset>
  <library_effects>
    <effect id="French_fries-effect">
      <profile_COMMON>
        <newparam sid="French_fries-surface">
          <surface type="2D">
            <init_from>French_fries</init_from>
          </surface>
        </newparam>
        <newparam sid="French_fries-sampler">
          <sampler2D>
            <source>French_fries-surface</source>
          </sampler2D>
        </newparam>
        <technique sid="common">
          <lambert>
            <emission>
              <color sid="emission">0 0 0 1</color>
            </emission>
            <diffuse>
              <texture texture="French_fries-sampler" texcoord="UVMap"/>
            </diffuse>
            <index_of_refraction>
              <float sid="ior">1.45</float>
            </index_of_refraction>
          </lambert>
        </technique>
      </profile_COMMON>
    </effect>
  </library_effects>
  <library_images>
    <image id="French_fries" name="French_fries">
      <init_from>French_fries.png</init_from>
    </image>
  </library_images>
  <library_materials>
    <material id="French_fries-material" name="French_fries">
      <instance_effect url="#French_fries-effect"/>
    </material>
  </library_materials>
  <library_geometries>
    <geometry id="French_fries-mesh" name="French_fries">
      <mesh>
        <source id="French_fries-mesh-positions">
          <float_array id="French_fries-mesh-positions-array" count="624">-1.965509 -0.6453174 -2.463697 -2.447449 -1.05158 3.455497 -1.965509 0.6453189 -2.463697 -2.447449 1.051578 3.455497 1.673803 -0.6453174 -2.463697 2.447448 -1.05158 3.455497 1.673803 0.6453189 -2.463697 2.447448 1.051578 3.455497 -2.714985 6.63496e-7 -2.463697 -3.455497 -7.00464e-7 3.455497 2.423278 6.63496e-7 -2.463697 3.455497 -7.00464e-7 3.455497 0.8158159 -1.05158 1.588581 -0.8158164 -1.05158 1.588581 -1.965509 -0.6453174 -2.463697 -2.447449 -1.05158 3.455497 -1.965509 0.6453189 -2.463697 -2.447449 1.051578 3.455497 1.673803 -0.6453174 -2.463697 2.447448 -1.05158 3.455497 1.673803 0.6453189 -2.463697 2.447448 1.051578 3.455497 -2.714985 6.63496e-7 -2.463697 -3.455497 -7.00464e-7 3.455497 2.423278 6.63496e-7 -2.463697 3.455497 -7.00464e-7 3.455497 0.8158159 -1.05158 1.588581 -0.8158164 -1.05158 1.588581 -0.2224836 0.553608 -0.3832371 -0.1675721 0.1443666 -0.3544697 0.3353773 0.9763363 4.136897 0.4013174 0.5844067 4.263292 0.5942212 1.00861 4.101933 0.03636032 0.5858815 -0.4182012 0.09127175 0.1766402 -0.3894336 0.6601614 0.6166803 4.228328 0.1380209 0.6763899 2.398971 0.1929324 0.2671486 2.427738 0.3968649 0.7086635 2.364007 0.4517764 0.2994222 2.392774 1.509213 0.579365 -0.4261863 1.678419 0.2038949 -0.4675741 2.181524 0.3080187 3.757149 2.350729 -0.06745141 3.715762 1.746197 0.6895721 -0.457124 2.418508 0.4182258 3.726212 1.915403 0.314102 -0.4985118 2.587713 0.04275566 3.684824 1.793432 0.5532021 1.657745 1.962637 0.1777319 1.616357 2.030416 0.6634092 1.626807 2.199621 0.287939 1.585419 1.426348 0.09339827 -0.274432 1.64931 0.4416688 -0.3135864 0.8191798 0.2155414 3.563221 1.033221 0.5687023 3.591239 1.205203 0.2305502 -0.3137851 0.5980352 0.3526934 3.523868 1.428165 0.5788207 -0.3529395 0.8120767 0.7058542 3.551886 1.340875 0.199731 0.5764654 1.563837 0.5480015 0.537311 1.11973 0.336883 0.5371122 1.342692 0.6851535 0.4979578 -1.017093 0.4221667 0.3621591 -1.421403 0.4119384 0.274123 -1.959056 0.3431542 4.837423 -2.375799 0.3314125 4.848359 -1.951726 0.0800935 4.834322 -1.009763 0.159106 0.3590576 -1.414072 0.1488777 0.2710214 -2.368469 0.06835186 4.845258 -1.729756 0.3702891 3.07788 -2.134066 0.3600608 2.989844 -1.722426 0.1072285 3.074779 -2.126735 0.09700018 2.986742 0.4895597 0.4940466 0.220365 0.1004795 0.3730737 0.14754 -0.338382 0.3014573 4.380095 -0.7274621 0.1804844 4.30727 0.5670449 0.242559 0.2241439 -0.2608967 0.04996973 4.383873 0.1779648 0.1215861 0.151319 -0.6499769 -0.07100313 4.311048 0.1916391 0.4335294 2.301666 -0.197441 0.3125566 2.228841 0.2691243 0.1820418 2.305445 -0.1199558 0.06106901 2.23262 -1.195484 0.01311993 0.3711293 -0.8879854 -0.263374 0.3319749 -0.9764854 0.5924397 4.208783 -0.6627143 0.3239551 4.2368 -1.024282 0.2090928 0.3317762 -0.8052832 0.7884126 4.169429 -0.7167832 -0.06740105 0.2926217 -0.4915121 0.519928 4.197447 -1.076697 0.08021551 1.222027 -0.7691982 -0.1962783 1.182872 -0.9054948 0.2761884 1.182673 -0.597996 -3.05444e-4 1.143519 0.526905 -0.5985215 -1.026698 0.3886464 -0.2089764 -1.048158 0.3216088 -0.4514452 3.540331 0.1816363 -0.06644195 3.618514 0.07385367 -0.5398359 3.53204 0.2791498 -0.6869122 -1.034988 0.1408912 -0.2973672 -1.056448 -0.06611877 -0.1548327 3.610223 0.3548573 -0.3783605 1.767519 0.2165988 0.01118451 1.746059 0.1071022 -0.4667513 1.759229 -0.0311563 -0.07720619 1.737769 1.828678 -0.4762487 -1.121934 1.57187 -0.1519475 -1.107802 2.48083 -0.0104565 3.047437 2.224022 0.3138446 3.06157 1.627107 -0.6380301 -1.072332 2.279259 -0.1722378 3.09704 1.370299 -0.3137289 -1.058199 2.022451 0.1520633 3.111172 2.225716 -0.3390268 0.9390761 1.968908 -0.01472562 0.9532084 2.024146 -0.5008081 0.9886785 1.767338 -0.1765069 1.002811 0.8012004 0.02540659 -0.9250705 0.6292183 -0.3506606 -0.9642249 1.419491 -0.01048707 2.912583 1.257027 -0.3901469 2.9406 1.039376 -0.07941776 -0.9644237 1.657666 -0.1153115 2.873229 0.8673934 -0.4554849 -1.003578 1.495202 -0.4949713 2.901247 0.9007243 -0.06790578 -0.07417321 0.7287423 -0.443973 -0.1133276 1.138899 -0.1727302 -0.1135263 0.9669174 -0.5487974 -0.1526807 -1.357651 -0.5403634 -0.393213 -0.9712806 -0.4998674 -0.2503873 -2.959638 -0.6643989 3.889284 -2.615744 -0.6274018 4.122309 -2.986209 -0.4025733 3.886927 -1.384222 -0.2785378 -0.3955696 -0.9978519 -0.2380418 -0.2527436 -2.642315 -0.3655762 4.119952 -2.21141 -0.602937 2.281278 -1.825039 -0.562441 2.424104 -2.237981 -0.3411113 2.278922 -1.85161 -0.3006153 2.421747 -0.3788423 -0.7389046 -0.4302735 -0.01054227 -0.5646263 -0.5030985 0.4139615 -0.4322451 3.729456 0.7822616 -0.2579668 3.656631 -0.4907892 -0.5007495 -0.4264946 0.3020146 -0.19409 3.733235 -0.1224892 -0.3264712 -0.4993196 0.6703146 -0.01981168 3.66041 -0.09233522 -0.6372547 1.651028 0.2759647 -0.4629764 1.578203 -0.2042822 -0.3990996 1.654807 0.1640177 -0.2248213 1.581982 -0.4918306 -0.1473346 -0.2795093 -0.8350262 0.08336257 -0.3186637 -0.6275259 -0.7516182 3.558144 -0.9758101 -0.5297299 3.586162 -0.6338954 -0.3653557 -0.3188624 -0.7695907 -0.9696393 3.518791 -0.977091 -0.1346584 -0.3580169 -1.117875 -0.7477509 3.546809 -0.6000488 -0.2304071 0.571388 -0.9432443 2.90036e-4 0.5322336 -0.7421136 -0.4484282 0.5320349 -1.085309 -0.2177309 0.4928805 -1.641342 0.0324397 -0.5255079 -2.002106 0.1973599 -0.648746 -2.207439 0.1914636 3.317069 -2.580998 0.3604788 3.260427 -1.749054 -0.2076166 -0.5314417 -2.315151 -0.04859268 3.311135 -2.109819 -0.04269641 -0.6546798 -2.688711 0.1204224 3.254494 -1.849969 0.1054615 0.3074271 -2.210734 0.2703818 0.184189 -1.957682 -0.1345947 0.3014933 -2.318447 0.03032541 0.1782553 -0.5115916 0.03463053 0.3687564 -0.6498501 0.4241756 0.3472962 -0.7168877 0.1817068 4.935785 -0.8568602 0.5667101 5.013968 -0.9646428 0.09331601 4.927495 -0.7593467 -0.05376023 0.360466 -0.8976052 0.3357848 0.339006 -1.104615 0.4783193 5.005678 -0.6836392 0.2547915 3.162974 -0.8218978 0.6443366 3.141514 -0.9313943 0.1664007 3.154683 -1.069653 0.5559458 3.133223 1.130331 0.6246553 0.7076267 0.7349584 0.4973176 0.705981 1.620896 0.9609259 4.549166 1.231036 0.8384983 4.615056 1.21089 0.3743765 0.7192475 1.701455 0.7106471 4.560786 0.8155172 0.2470387 0.7176018 1.311594 0.5882195 4.626677 1.150588 0.6711192 1.567899 0.7552145 0.5437815 1.566254 1.231146 0.4208404 1.57952 0.8357734 0.2935027 1.577875</float_array>
          <technique_common>
            <accessor source="#French_fries-mesh-positions-array" count="208" stride="3">
              <param name="X" type="float"/>
              <param name="Y" type="float"/>
              <param name="Z" type="float"/>
            </accessor>
          </technique_common>
        </source>
        <source id="French_fries-mesh-normals">
          <float_array id="French_fries-mesh-normals-array" count="624">-0.7798522 0 -0.6259638 -0.3970379 0.9136606 -0.087094 -0.249855 0.698511 -0.6705632 0.24082 0.6962811 -0.6761645 0.7653507 0 -0.6436136 0.5706368 -0.8124724 -0.1194258 0.2462335 -0.68914 -0.6815094 -0.04627478 -0.9951643 -0.08664166 -0.5595928 -0.8237092 -0.0914278 -0.2553105 -0.691756 -0.6754925 0.4060056 0.9075595 -0.1072162 0.7798522 0 0.6259638 0.3970379 -0.9136605 0.087094 0.9922652 0 0.124136 -0.24082 -0.6962811 0.6761645 0.249855 -0.698511 0.6705632 -0.7653507 0 0.6436136 -0.5706368 0.8124724 0.1194258 -0.9851332 1.41189e-7 0.1717925 0.2553105 0.691756 0.6754925 0.5595928 0.8237092 0.0914278 0.04627478 0.9951643 0.08664166 -0.4060056 -0.9075595 0.1072162 -0.5841718 -0.7962768 0.1571202 -0.6055967 0.6194756 0.4995025 -0.8033758 0.5945293 0.03349977 0.5471103 0.763199 0.3437989 0.7791157 -0.6262972 -0.02702921 0.6161997 0.7715271 -0.1582528 0.4177817 0.6058652 -0.677042 -0.5675507 -0.6790926 -0.4655314 -0.7135412 0.4648082 -0.5242255 0.7058109 -0.3467772 0.6177188 -0.4145978 -0.4864729 0.7690597 0.5726005 -0.5369347 -0.6195401 -0.3670881 -0.9301857 -9.15286e-4 -0.6605829 0.2318987 0.7140402 -0.9169943 0.3607074 0.1703282 0.3869392 0.7190382 0.5772888 0.9294966 -0.3272224 -0.170181 0.3340951 0.9425134 0.007001757 0.8448541 -0.3293748 0.4215851 -0.1875677 -0.8094921 0.5563641 -0.8402327 0.296468 -0.454 0.6740802 -0.2680318 -0.6883131 -0.3626347 -0.7501448 -0.5529729 0.2026478 0.7814488 -0.5901455 0.2450376 -0.9646897 0.09659415 0.6870611 0.1988324 0.6988653 0.08963483 -0.786072 0.6116016 -0.9701236 -0.2110567 -0.1196468 -0.2846396 0.8014724 0.5259489 -0.2024983 0.9749479 -0.09203928 -0.7447785 -0.2644162 -0.6126901 0.2293328 -0.868552 -0.4393448 -0.1230329 0.7047595 -0.6986967 0.8435013 0.105323 -0.5266998 0.9604313 0.2537088 0.1149069 -0.879064 -0.1852935 0.4392185 -0.7265151 0.6746746 -0.1303462 0.5261648 0.5937626 0.6087665 0.6589885 0.7387046 0.1415973 0.5588077 -0.5777217 0.5949552 -0.687908 -0.7108215 -0.1466816 0.69919 -0.7039968 0.1245876 0.681104 0.5993411 -0.4205803 -0.4096487 -0.5830359 -0.7016104 -0.4419374 0.5756887 -0.6879491 -0.625917 0.5458438 0.5570301 0.7131428 -0.5504115 -0.4341367 -0.8613531 0.4858109 -0.1485221 0.2444651 0.6941983 0.6769975 0.4685146 0.8733499 0.133244 0.5869671 -0.4174311 0.693701 -0.4374169 -0.8901245 -0.1278467 0.8775752 -0.4543054 0.153194 -0.8304567 0.350565 0.4329503 0.8044468 -0.3651908 -0.4685097 0.4634627 0.7415134 -0.4851396 -0.6237661 0.4001483 -0.6714144 -0.2847981 -0.7000132 -0.6548829 -0.9916588 -0.08533686 0.09659415 0.08476984 -0.7102125 0.698865 -0.7902024 0.03903979 0.6116012 -0.05092442 0.9915097 -0.1196468 0.8370255 0.1508851 0.5259489 0.9948821 0.04169672 -0.09203928 -0.1401247 0.777802 -0.6126902 -0.8942469 -0.08543187 -0.4393448 0.7153829 0.007103562 -0.6986966 -0.03287327 -0.8494156 -0.5266997 0.09458363 -0.9888632 0.1149069 -0.04027092 0.8974773 0.4392182 0.4109891 0.9116403 -4.37316e-4 0.7492458 -0.40446 0.5244453 0.9112347 -0.409509 0.04420334 -0.3540797 -0.7980893 0.4875257 -0.8938953 0.446101 -0.04410201 -0.4475266 -0.8942697 -0.001264154 0.7653627 -0.3843987 -0.5161953 -0.7062862 0.3133991 -0.6347763 0.3850213 0.702741 -0.5982589 0.3446405 0.6680737 0.6594698 -0.3174946 -0.7707257 -0.5524302 0.1181733 0.9847001 -0.1280661 0.8886558 -0.02053099 0.458115 0.9810922 -0.1348453 -0.1388344 -0.002328753 -0.7356401 0.6773687 -0.9846557 0.09956431 0.1433179 -0.08304041 -0.988923 0.1230272 0.1593045 0.8745376 0.4580459 0.6965276 -0.1414793 -0.7034436 -0.1905099 -0.8534193 -0.4851616 -0.01954889 0.762567 -0.646614 -0.9013424 0.05483633 -0.4296219 -0.3777453 0.9208573 0.09659415 -0.6524383 -0.2931081 0.6988648 -0.1988559 0.7657678 0.6116013 0.9309974 0.3448602 -0.1196468 0.3940942 -0.7537027 0.525949 0.337062 -0.9369729 -0.09203928 0.7003997 0.3661298 -0.6126903 -0.3487296 0.8278672 -0.4393448 -0.8204334 -0.2224332 -0.5266997 -0.9154263 -0.3857344 0.1149069 0.220535 -0.6805787 -0.6986967 0.8444441 0.3065965 0.4392184 0.7375314 -0.619383 0.2690951 -0.7178598 -0.6598992 0.221834 -0.5681976 -0.7852923 -0.2459018 -0.8361889 0.5060865 0.21134 0.597585 0.7596088 0.2566845 -0.7139207 0.6506361 -0.2588242 -0.2985061 -0.614979 -0.7298596 0.6702477 0.647383 -0.3628544 0.7872893 -0.5059019 -0.3524757 0.1602602 0.5958854 0.7869164 0.2752739 -0.537429 0.7971164 -0.4146399 0.529376 -0.7401587 0.9209087 -0.3603727 -0.148522 -0.1448194 -0.7215967 0.6769975 -0.3415666 -0.9303647 0.133244 -0.6396493 0.3311005 0.6937012 0.308426 0.942618 -0.1278467 -0.9325578 0.326906 0.1531939 0.8713735 -0.2307877 0.4329497 -0.8476681 0.2489128 -0.4685098 -0.3550307 -0.7991201 -0.4851395 0.6736652 -0.3088333 -0.6714144 0.1839405 0.7330036 -0.654883 0.9699299 0.2233958 0.09659421 -0.1834123 0.6913379 0.6988648 0.7878807 0.07202792 0.6116012 0.1893017 -0.9746022 -0.1196468 -0.8076396 -0.2666382 0.5259491 -0.9792338 -0.1806374 -0.09203922 0.2476891 -0.7505071 -0.6126902 0.8734649 0.2098459 -0.4393447 -0.7073355 -0.1072363 -0.6986966 -0.08642715 0.8456465 -0.5266997 -0.2321599 0.9658665 0.1149069 0.1655822 -0.8829892 0.4392184 0.9137552 0.3791191 0.1460142 -0.3577674 0.7818082 0.5106649 0.6852832 0.3081484 0.6598724 0.3218892 -0.9399606 0.1134089 -0.8310521 -0.2729896 0.4845917 -0.928768 -0.3381666 -0.1517673 0.8913412 0.2449618 -0.3814506 0.4168822 -0.8124538 -0.407588 -0.1194562 0.7014977 -0.702589 -0.3623424 0.9242146 -0.1205635 0.2134602 -0.7433914 0.6338801 -0.5902243 -0.3476924 -0.7285228 0.410989 0.9116404 -4.3731e-4 0.7492465 -0.4044593 0.5244449 0.9112346 -0.409509 0.04420334 -0.354079 -0.7980893 0.4875259 -0.8938953 0.4461011 -0.04410201 -0.4475268 -0.8942697 -0.001264095 0.7653628 -0.3843986 -0.5161952 -0.7062861 0.3133993 -0.6347763 0.3850212 0.702741 -0.5982589 0.3446405 0.6680739 0.6594697 -0.3174943 -0.7707258 -0.5524303 0.4333701 0.8948915 -0.1065813 -0.6355429 0.4331201 0.6391339 0.4518496 0.7723046 0.4465171 0.8760307 -0.4803591 -0.04272598 -0.2815706 -0.6665951 0.690195 -0.4724458 -0.8747228 0.1079587 0.36933 0.7000189 -0.6112029 -0.376438 -0.751125 -0.5423152 -0.7285283 0.3427433 -0.5931051 -0.8960794 0.4414148 0.04684811 0.8047286 -0.3240138 0.4974204 0.7241808 -0.402425 -0.5600146 -0.9922652 0 -0.124136 0.9851332 -1.41189e-7 -0.1717925 0.05085289 -0.9947362 -0.08896058 -0.2462335 0.68914 0.6815094 -0.05085289 0.9947362 0.08896058 -0.5941896 -0.5928164 0.5436061 -0.4928918 -0.7450407 0.4494131 -0.7277695 0.2854729 0.6235839 -0.7188363 0.1697372 0.6741394 0.3836774 0.8067343 0.4494125 -0.7277702 0.2854725 0.6235833</float_array>
          <technique_common>
            <accessor source="#French_fries-mesh-normals-array" count="208" stride="3">
              <param name="X" type="float"/>
              <param name="Y" type="float"/>
              <param name="Z" type="float"/>
            </accessor>
          </technique_common>
        </source>
        <source id="French_fries-mesh-map-0">
          <float_array id="French_fries-mesh-map-0-array" count="2016">0.4449678 0.8427535 0.8916094 0.8225662 0.4449679 0.7862008 0.8916094 0.8225662 0.4449679 0.5115911 0.4449679 0.7862008 0.4501925 0.4468983 0.003550946 0.4487221 0.4501925 0.3903455 0.1444219 0.2024875 0.003550946 0.07937031 0.4501925 0.1157358 0.5094401 0.003680229 0.4607467 0.3348427 0.5094401 0.3913955 0.5581335 0.06023299 0.5094401 0.3913955 0.5581336 0.3348427 0.8916094 0.4532144 0.4449679 0.4550383 0.4449679 0.5115911 0.003550946 0.07937031 0.4501926 0.059183 0.4501925 0.1157358 0.4449678 0.8427535 0.8916094 0.8225662 0.8916094 0.89863 0.4449679 0.5115911 0.8916094 0.8225662 0.4449679 0.7862008 0.4501925 0.4468983 0.003550946 0.4487221 0.003550946 0.5247859 0.4501925 0.1157358 0.003550946 0.07937031 0.1444219 0.2024875 0.4607467 0.3348427 0.5094401 0.003680229 0.5094401 0.3913955 0.5094401 0.3913955 0.5581335 0.06023299 0.5581336 0.3348427 0.4449679 0.4550383 0.8916094 0.4532144 0.4449679 0.5115911 0.4501926 0.059183 0.003550946 0.07937031 0.4501925 0.1157358 0.9665231 0.3652716 0.9033776 0.5195912 0.9033776 0.3652716 0.9033776 0.5195912 0.9665231 0.3652716 0.9033777 0.3652716 0.9033776 0.2427293 0.9665231 0.2828798 0.9033776 0.2828798 0.9550256 0.1603375 0.9148751 0.006017863 0.9550256 0.006017863 0.9665231 0.2828798 0.9033776 0.2427293 0.9033776 0.2828798 0.914875 0.1603375 0.9550256 0.5195912 0.9550256 0.1603375 0.9550256 0.006017863 0.914875 0.1603375 0.9550256 0.1603375 0.9148751 0.5195912 0.9550256 0.1603375 0.9550256 0.5195912 0.9033777 0.3652716 0.9665231 0.006017863 0.9033776 0.006017863 0.9665231 0.006017863 0.9033776 0.3652716 0.9033776 0.006017863 0.2662894 0.9328714 0.5253062 0.9965652 0.2662894 0.9965652 0.5253062 0.9965652 0.2662894 0.9328714 0.2662894 0.9965652 0.2460398 0.9328714 0.286539 0.9965652 0.286539 0.9328714 0.2662894 0.9849678 0.5253062 0.9444687 0.2662894 0.9444687 0.286539 0.9965652 0.2460398 0.9328714 0.286539 0.9328714 0.2662894 0.9444687 0.007272601 0.9849678 0.007272601 0.9444687 0.5253062 0.9444687 0.2662894 0.9849678 0.2662894 0.9444687 0.007272601 0.9849678 0.2662894 0.9444687 0.007272601 0.9444687 0.007272601 0.9965652 0.2662894 0.9328714 0.007272601 0.9328714 0.007272601 0.9965652 0.2662894 0.9328714 0.2662894 0.9965652 0.126898 0.9225044 0.5273066 0.8593771 0.5273066 0.9225043 0.4099962 0.8608396 0.003306567 0.9249572 0.4099962 0.924957 0.4142897 0.8708713 0.5273066 0.9110101 0.5273066 0.8708713 0.2906633 0.9225044 0.2505244 0.8593771 0.2906633 0.8593771 0.4099962 0.924957 0.003306567 0.9249572 0.4099962 0.924957 0.2906633 0.8593771 0.2505244 0.9225044 0.2906633 0.9225044 0.524786 0.924957 0.4099962 0.924957 0.524786 0.924957 0.01388102 0.9110102 0.4142897 0.8708713 0.01388102 0.8708713 0.5247859 0.8608396 0.4099962 0.924957 0.524786 0.924957 0.01388102 0.9225044 0.126898 0.8593771 0.126898 0.9225044 0.9665231 0.3652716 0.9033776 0.5195912 0.9033776 0.3652716 0.9033776 0.5195912 0.9665231 0.3652716 0.9033777 0.3652716 0.9033776 0.2828798 0.9665231 0.2427293 0.9665231 0.2828798 0.914875 0.1603375 0.9550256 0.006017863 0.9550256 0.1603375 0.9665231 0.2828798 0.9033776 0.2427293 0.9033776 0.2828798 0.914875 0.1603375 0.9550256 0.5195912 0.9550256 0.1603375 0.9550256 0.006017863 0.914875 0.1603375 0.9550256 0.1603375 0.9148751 0.5195912 0.9550256 0.1603375 0.9550256 0.5195912 0.9033777 0.3652716 0.9665231 0.006017863 0.9033776 0.006017863 0.9665231 0.006017863 0.9033776 0.3652716 0.9033776 0.006017863 0.2662894 0.9328714 0.5253062 0.9965652 0.2662894 0.9965652 0.5253062 0.9965652 0.2662894 0.9328714 0.2662894 0.9965652 0.286539 0.9328714 0.2460398 0.9965652 0.286539 0.9965652 0.2662894 0.9444687 0.5253062 0.9849678 0.5253062 0.9444687 0.2460398 0.9965652 0.286539 0.9328714 0.286539 0.9965652 0.2662894 0.9849678 0.007272601 0.9444687 0.2662894 0.9444687 0.5253062 0.9849678 0.2662894 0.9444687 0.5253062 0.9444687 0.007272601 0.9849678 0.2662894 0.9444687 0.007272601 0.9444687 0.007272601 0.9965652 0.2662894 0.9328714 0.007272601 0.9328714 0.007272601 0.9965652 0.2662894 0.9328714 0.2662894 0.9965652 0.126898 0.9225044 0.5273066 0.8593771 0.5273066 0.9225043 0.4099962 0.8608396 0.003306567 0.9249572 0.4099962 0.924957 0.4142897 0.8708713 0.5273066 0.9110101 0.5273066 0.8708713 0.2906633 0.9225044 0.2505244 0.8593771 0.2906633 0.8593771 0.4099962 0.924957 0.003306567 0.9249572 0.4099962 0.924957 0.2505244 0.8593771 0.2906633 0.9225044 0.2906633 0.8593771 0.524786 0.924957 0.4099962 0.924957 0.524786 0.924957 0.01388102 0.9110102 0.4142897 0.8708713 0.01388102 0.8708713 0.5247859 0.8608396 0.4099962 0.924957 0.524786 0.924957 0.01388102 0.9225044 0.126898 0.8593771 0.126898 0.9225044 0.9665231 0.3652716 0.9033776 0.5195912 0.9033776 0.3652716 0.9033776 0.5195912 0.9665231 0.3652716 0.9033777 0.3652716 0.9033776 0.2828798 0.9665231 0.2427293 0.9665231 0.2828798 0.914875 0.1603375 0.9550256 0.006017863 0.9550256 0.1603375 0.9665231 0.2828798 0.9033776 0.2427293 0.9033776 0.2828798 0.914875 0.1603375 0.9550256 0.5195912 0.9550256 0.1603375 0.9550256 0.006017863 0.914875 0.1603375 0.9550256 0.1603375 0.9550256 0.5195912 0.914875 0.1603375 0.9550256 0.1603375 0.9033777 0.3652716 0.9665231 0.006017863 0.9033776 0.006017863 0.9665231 0.006017863 0.9033776 0.3652716 0.9033776 0.006017863 0.2662894 0.9328714 0.5253062 0.9965652 0.2662894 0.9965652 0.5253062 0.9965652 0.2662894 0.9328714 0.2662894 0.9965652 0.286539 0.9328714 0.2460398 0.9965652 0.286539 0.9965652 0.2662894 0.9849678 0.5253062 0.9444687 0.2662894 0.9444687 0.2460398 0.9965652 0.286539 0.9328714 0.286539 0.9965652 0.2662894 0.9849678 0.007272601 0.9444687 0.2662894 0.9444687 0.5253062 0.9849678 0.2662894 0.9444687 0.5253062 0.9444687 0.007272601 0.9849678 0.2662894 0.9444687 0.007272601 0.9444687 0.007272601 0.9965652 0.2662894 0.9328714 0.007272601 0.9328714 0.007272601 0.9965652 0.2662894 0.9328714 0.2662894 0.9965652 0.126898 0.9225044 0.5273066 0.8593771 0.5273066 0.9225043 0.4099962 0.8608396 0.003306567 0.9249572 0.4099962 0.924957 0.4142897 0.8708713 0.5273066 0.9110101 0.5273066 0.8708713 0.2505244 0.9225044 0.2906633 0.8593771 0.2906633 0.9225044 0.4099962 0.924957 0.003306567 0.9249572 0.4099962 0.924957 0.2505244 0.8593771 0.2906633 0.9225044 0.2906633 0.8593771 0.524786 0.924957 0.4099962 0.924957 0.524786 0.924957 0.01388102 0.9110102 0.4142897 0.8708713 0.01388102 0.8708713 0.5247859 0.8608396 0.4099962 0.924957 0.524786 0.924957 0.01388102 0.9225044 0.126898 0.8593771 0.126898 0.9225044 0.9665231 0.3652716 0.9033776 0.5195912 0.9033776 0.3652716 0.9033776 0.5195912 0.9665231 0.3652716 0.9033777 0.3652716 0.9033776 0.2828798 0.9665231 0.2427293 0.9665231 0.2828798 0.9550256 0.1603375 0.9148751 0.006017863 0.9550256 0.006017863 0.9665231 0.2427293 0.9033776 0.2828798 0.9665231 0.2828798 0.914875 0.1603375 0.9550256 0.5195912 0.9550256 0.1603375 0.9148751 0.006017863 0.9550256 0.1603375 0.9550256 0.006017863 0.9550256 0.5195912 0.914875 0.1603375 0.9550256 0.1603375 0.9033777 0.3652716 0.9665231 0.006017863 0.9033776 0.006017863 0.9665231 0.006017863 0.9033776 0.3652716 0.9033776 0.006017863 0.2662894 0.9328714 0.5253062 0.9965652 0.2662894 0.9965652 0.5253062 0.9965652 0.2662894 0.9328714 0.2662894 0.9965652 0.286539 0.9328714 0.2460398 0.9965652 0.286539 0.9965652 0.2662894 0.9444687 0.5253062 0.9849678 0.5253062 0.9444687 0.2460398 0.9965652 0.286539 0.9328714 0.286539 0.9965652 0.2662894 0.9849678 0.007272601 0.9444687 0.2662894 0.9444687 0.5253062 0.9849678 0.2662894 0.9444687 0.5253062 0.9444687 0.007272601 0.9444687 0.2662894 0.9849678 0.2662894 0.9444687 0.007272601 0.9965652 0.2662894 0.9328714 0.007272601 0.9328714 0.007272601 0.9965652 0.2662894 0.9328714 0.2662894 0.9965652 0.126898 0.9225044 0.5273066 0.8593771 0.5273066 0.9225043 0.4099962 0.8608396 0.003306567 0.9249572 0.4099962 0.924957 0.4142897 0.8708713 0.5273066 0.9110101 0.5273066 0.8708713 0.2906633 0.9225044 0.2505244 0.8593771 0.2906633 0.8593771 0.4099962 0.924957 0.003306567 0.9249572 0.4099962 0.924957 0.2505244 0.8593771 0.2906633 0.9225044 0.2906633 0.8593771 0.524786 0.924957 0.4099962 0.924957 0.524786 0.924957 0.01388102 0.9110102 0.4142897 0.8708713 0.01388102 0.8708713 0.5247859 0.8608396 0.4099962 0.924957 0.524786 0.924957 0.01388102 0.9225044 0.126898 0.8593771 0.126898 0.9225044 0.126898 0.9225044 0.5273066 0.8593771 0.5273066 0.9225043 0.4099962 0.8608396 0.003306567 0.9249572 0.4099962 0.924957 0.4142897 0.9110102 0.5273066 0.8708713 0.4142897 0.8708713 0.2505244 0.9225044 0.2906633 0.8593771 0.2906633 0.9225044 0.4099962 0.924957 0.003306567 0.9249572 0.4099962 0.924957 0.2906633 0.8593771 0.2505244 0.9225044 0.2906633 0.9225044 0.524786 0.924957 0.4099962 0.924957 0.524786 0.924957 0.01388102 0.9110102 0.4142897 0.8708713 0.01388102 0.8708713 0.5247859 0.8608396 0.4099962 0.924957 0.524786 0.924957 0.01388102 0.9225044 0.126898 0.8593771 0.126898 0.9225044 0.9665231 0.3652716 0.9033776 0.5195912 0.9033776 0.3652716 0.9033776 0.5195912 0.9665231 0.3652716 0.9033777 0.3652716 0.9033776 0.2828798 0.9665231 0.2427293 0.9665231 0.2828798 0.914875 0.1603375 0.9550256 0.006017863 0.9550256 0.1603375 0.9665231 0.2828798 0.9033776 0.2427293 0.9033776 0.2828798 0.914875 0.1603375 0.9550256 0.5195912 0.9550256 0.1603375 0.9148751 0.006017863 0.9550256 0.1603375 0.9550256 0.006017863 0.9550256 0.5195912 0.914875 0.1603375 0.9550256 0.1603375 0.9033777 0.3652716 0.9665231 0.006017863 0.9033776 0.006017863 0.9665231 0.006017863 0.9033776 0.3652716 0.9033776 0.006017863 0.126898 0.9225044 0.5273066 0.8593771 0.5273066 0.9225043 0.4099962 0.8608396 0.003306567 0.9249572 0.4099962 0.924957 0.4142897 0.9110102 0.5273066 0.8708713 0.4142897 0.8708713 0.2906633 0.9225044 0.2505244 0.8593771 0.2906633 0.8593771 0.4099962 0.924957 0.003306567 0.9249572 0.003306567 0.9249572 0.2906633 0.8593771 0.2505244 0.9225044 0.2906633 0.9225044 0.524786 0.924957 0.4099962 0.924957 0.4099962 0.924957 0.01388102 0.9110102 0.4142897 0.8708713 0.01388102 0.8708713 0.5247859 0.8608396 0.4099962 0.924957 0.524786 0.924957 0.01388102 0.9225044 0.126898 0.8593771 0.126898 0.9225044 0.4449678 0.8427535 0.8916094 0.89863 0.8916094 0.8225662 0.8916094 0.8225662 0.8916094 0.4532144 0.4449679 0.5115911 0.4501925 0.4468983 0.003550946 0.5247859 0.003550946 0.4487221 0.4501925 0.1157358 0.4501925 0.3903455 0.1444219 0.2024875 0.4501925 0.3903455 0.003550946 0.4487221 0.1444219 0.3256049 0.4501925 0.3903455 0.1444219 0.3256049 0.1444219 0.2024875 0.5094401 0.003680229 0.4607466 0.06023299 0.4607467 0.3348427 0.5581335 0.06023299 0.5094401 0.003680229 0.5094401 0.3913955 0.8916094 0.4532144 0.8916094 0.3771506 0.4449679 0.4550383 0.003550946 0.07937031 0.003550946 0.003306448 0.4501926 0.059183 0.4449678 0.8427535 0.4449679 0.7862008 0.8916094 0.8225662 0.4449679 0.5115911 0.8916094 0.4532144 0.8916094 0.8225662 0.4501925 0.4468983 0.4501925 0.3903455 0.003550946 0.4487221 0.003550946 0.4487221 0.4501925 0.3903455 0.1444219 0.3256049 0.4501925 0.3903455 0.4501925 0.1157358 0.1444219 0.2024875 0.1444219 0.3256049 0.4501925 0.3903455 0.1444219 0.2024875 0.4607467 0.3348427 0.4607466 0.06023299 0.5094401 0.003680229 0.5094401 0.3913955 0.5094401 0.003680229 0.5581335 0.06023299 0.4449679 0.4550383 0.8916094 0.3771506 0.8916094 0.4532144 0.4501926 0.059183 0.003550946 0.003306448 0.003550946 0.07937031 0.9665231 0.3652716 0.9665231 0.5195912 0.9033776 0.5195912 0.9033776 0.5195912 0.9665231 0.5195912 0.9665231 0.3652716 0.9033776 0.2427293 0.9665231 0.2427293 0.9665231 0.2828798 0.9550256 0.1603375 0.914875 0.1603375 0.9148751 0.006017863 0.9665231 0.2828798 0.9665231 0.2427293 0.9033776 0.2427293 0.914875 0.1603375 0.9148751 0.5195912 0.9550256 0.5195912 0.9550256 0.006017863 0.9148751 0.006017863 0.914875 0.1603375 0.9148751 0.5195912 0.914875 0.1603375 0.9550256 0.1603375 0.9033777 0.3652716 0.9665231 0.3652716 0.9665231 0.006017863 0.9665231 0.006017863 0.9665231 0.3652716 0.9033776 0.3652716 0.2662894 0.9328714 0.5253062 0.9328714 0.5253062 0.9965652 0.5253062 0.9965652 0.5253062 0.9328714 0.2662894 0.9328714 0.2460398 0.9328714 0.2460398 0.9965652 0.286539 0.9965652 0.2662894 0.9849678 0.5253062 0.9849678 0.5253062 0.9444687 0.286539 0.9965652 0.2460398 0.9965652 0.2460398 0.9328714 0.2662894 0.9444687 0.2662894 0.9849678 0.007272601 0.9849678 0.5253062 0.9444687 0.5253062 0.9849678 0.2662894 0.9849678 0.007272601 0.9849678 0.2662894 0.9849678 0.2662894 0.9444687 0.007272601 0.9965652 0.2662894 0.9965652 0.2662894 0.9328714 0.007272601 0.9965652 0.007272601 0.9328714 0.2662894 0.9328714 0.126898 0.9225044 0.126898 0.8593771 0.5273066 0.8593771 0.4099962 0.8608396 0.003306508 0.8608397 0.003306567 0.9249572 0.4142897 0.8708713 0.4142897 0.9110102 0.5273066 0.9110101 0.2906633 0.9225044 0.2505244 0.9225044 0.2505244 0.8593771 0.4099962 0.924957 0.003306567 0.9249572 0.003306567 0.9249572 0.2906633 0.8593771 0.2505244 0.8593771 0.2505244 0.9225044 0.524786 0.924957 0.4099962 0.924957 0.4099962 0.924957 0.01388102 0.9110102 0.4142897 0.9110102 0.4142897 0.8708713 0.5247859 0.8608396 0.4099962 0.8608396 0.4099962 0.924957 0.01388102 0.9225044 0.01388102 0.8593771 0.126898 0.8593771 0.9665231 0.3652716 0.9665231 0.5195912 0.9033776 0.5195912 0.9033776 0.5195912 0.9665231 0.5195912 0.9665231 0.3652716 0.9033776 0.2828798 0.9033776 0.2427293 0.9665231 0.2427293 0.914875 0.1603375 0.9148751 0.006017863 0.9550256 0.006017863 0.9665231 0.2828798 0.9665231 0.2427293 0.9033776 0.2427293 0.914875 0.1603375 0.9148751 0.5195912 0.9550256 0.5195912 0.9550256 0.006017863 0.9148751 0.006017863 0.914875 0.1603375 0.9148751 0.5195912 0.914875 0.1603375 0.9550256 0.1603375 0.9033777 0.3652716 0.9665231 0.3652716 0.9665231 0.006017863 0.9665231 0.006017863 0.9665231 0.3652716 0.9033776 0.3652716 0.2662894 0.9328714 0.5253062 0.9328714 0.5253062 0.9965652 0.5253062 0.9965652 0.5253062 0.9328714 0.2662894 0.9328714 0.286539 0.9328714 0.2460398 0.9328714 0.2460398 0.9965652 0.2662894 0.9444687 0.2662894 0.9849678 0.5253062 0.9849678 0.2460398 0.9965652 0.2460398 0.9328714 0.286539 0.9328714 0.2662894 0.9849678 0.007272601 0.9849678 0.007272601 0.9444687 0.5253062 0.9849678 0.2662894 0.9849678 0.2662894 0.9444687 0.007272601 0.9849678 0.2662894 0.9849678 0.2662894 0.9444687 0.007272601 0.9965652 0.2662894 0.9965652 0.2662894 0.9328714 0.007272601 0.9965652 0.007272601 0.9328714 0.2662894 0.9328714 0.126898 0.9225044 0.126898 0.8593771 0.5273066 0.8593771 0.4099962 0.8608396 0.003306508 0.8608397 0.003306567 0.9249572 0.4142897 0.8708713 0.4142897 0.9110102 0.5273066 0.9110101 0.2906633 0.9225044 0.2505244 0.9225044 0.2505244 0.8593771 0.4099962 0.924957 0.003306567 0.9249572 0.003306567 0.9249572 0.2505244 0.8593771 0.2505244 0.9225044 0.2906633 0.9225044 0.524786 0.924957 0.4099962 0.924957 0.4099962 0.924957 0.01388102 0.9110102 0.4142897 0.9110102 0.4142897 0.8708713 0.5247859 0.8608396 0.4099962 0.8608396 0.4099962 0.924957 0.01388102 0.9225044 0.01388102 0.8593771 0.126898 0.8593771 0.9665231 0.3652716 0.9665231 0.5195912 0.9033776 0.5195912 0.9033776 0.5195912 0.9665231 0.5195912 0.9665231 0.3652716 0.9033776 0.2828798 0.9033776 0.2427293 0.9665231 0.2427293 0.914875 0.1603375 0.9148751 0.006017863 0.9550256 0.006017863 0.9665231 0.2828798 0.9665231 0.2427293 0.9033776 0.2427293 0.914875 0.1603375 0.9148751 0.5195912 0.9550256 0.5195912 0.9550256 0.006017863 0.9148751 0.006017863 0.914875 0.1603375 0.9550256 0.5195912 0.9148751 0.5195912 0.914875 0.1603375 0.9033777 0.3652716 0.9665231 0.3652716 0.9665231 0.006017863 0.9665231 0.006017863 0.9665231 0.3652716 0.9033776 0.3652716 0.2662894 0.9328714 0.5253062 0.9328714 0.5253062 0.9965652 0.5253062 0.9965652 0.5253062 0.9328714 0.2662894 0.9328714 0.286539 0.9328714 0.2460398 0.9328714 0.2460398 0.9965652 0.2662894 0.9849678 0.5253062 0.9849678 0.5253062 0.9444687 0.2460398 0.9965652 0.2460398 0.9328714 0.286539 0.9328714 0.2662894 0.9849678 0.007272601 0.9849678 0.007272601 0.9444687 0.5253062 0.9849678 0.2662894 0.9849678 0.2662894 0.9444687 0.007272601 0.9849678 0.2662894 0.9849678 0.2662894 0.9444687 0.007272601 0.9965652 0.2662894 0.9965652 0.2662894 0.9328714 0.007272601 0.9965652 0.007272601 0.9328714 0.2662894 0.9328714 0.126898 0.9225044 0.126898 0.8593771 0.5273066 0.8593771 0.4099962 0.8608396 0.003306508 0.8608397 0.003306567 0.9249572 0.4142897 0.8708713 0.4142897 0.9110102 0.5273066 0.9110101 0.2505244 0.9225044 0.2505244 0.8593771 0.2906633 0.8593771 0.4099962 0.924957 0.003306567 0.9249572 0.003306567 0.9249572 0.2505244 0.8593771 0.2505244 0.9225044 0.2906633 0.9225044 0.524786 0.924957 0.4099962 0.924957 0.4099962 0.924957 0.01388102 0.9110102 0.4142897 0.9110102 0.4142897 0.8708713 0.5247859 0.8608396 0.4099962 0.8608396 0.4099962 0.924957 0.01388102 0.9225044 0.01388102 0.8593771 0.126898 0.8593771 0.9665231 0.3652716 0.9665231 0.5195912 0.9033776 0.5195912 0.9033776 0.5195912 0.9665231 0.5195912 0.9665231 0.3652716 0.9033776 0.2828798 0.9033776 0.2427293 0.9665231 0.2427293 0.9550256 0.1603375 0.914875 0.1603375 0.9148751 0.006017863 0.9665231 0.2427293 0.9033776 0.2427293 0.9033776 0.2828798 0.914875 0.1603375 0.9148751 0.5195912 0.9550256 0.5195912 0.9148751 0.006017863 0.914875 0.1603375 0.9550256 0.1603375 0.9550256 0.5195912 0.9148751 0.5195912 0.914875 0.1603375 0.9033777 0.3652716 0.9665231 0.3652716 0.9665231 0.006017863 0.9665231 0.006017863 0.9665231 0.3652716 0.9033776 0.3652716 0.2662894 0.9328714 0.5253062 0.9328714 0.5253062 0.9965652 0.5253062 0.9965652 0.5253062 0.9328714 0.2662894 0.9328714 0.286539 0.9328714 0.2460398 0.9328714 0.2460398 0.9965652 0.2662894 0.9444687 0.2662894 0.9849678 0.5253062 0.9849678 0.2460398 0.9965652 0.2460398 0.9328714 0.286539 0.9328714 0.2662894 0.9849678 0.007272601 0.9849678 0.007272601 0.9444687 0.5253062 0.9849678 0.2662894 0.9849678 0.2662894 0.9444687 0.007272601 0.9444687 0.007272601 0.9849678 0.2662894 0.9849678 0.007272601 0.9965652 0.2662894 0.9965652 0.2662894 0.9328714 0.007272601 0.9965652 0.007272601 0.9328714 0.2662894 0.9328714 0.126898 0.9225044 0.126898 0.8593771 0.5273066 0.8593771 0.4099962 0.8608396 0.003306508 0.8608397 0.003306567 0.9249572 0.4142897 0.8708713 0.4142897 0.9110102 0.5273066 0.9110101 0.2906633 0.9225044 0.2505244 0.9225044 0.2505244 0.8593771 0.4099962 0.924957 0.003306567 0.9249572 0.003306567 0.9249572 0.2505244 0.8593771 0.2505244 0.9225044 0.2906633 0.9225044 0.524786 0.924957 0.4099962 0.924957 0.4099962 0.924957 0.01388102 0.9110102 0.4142897 0.9110102 0.4142897 0.8708713 0.5247859 0.8608396 0.4099962 0.8608396 0.4099962 0.924957 0.01388102 0.9225044 0.01388102 0.8593771 0.126898 0.8593771 0.126898 0.9225044 0.126898 0.8593771 0.5273066 0.8593771 0.4099962 0.8608396 0.003306508 0.8608397 0.003306567 0.9249572 0.4142897 0.9110102 0.5273066 0.9110101 0.5273066 0.8708713 0.2505244 0.9225044 0.2505244 0.8593771 0.2906633 0.8593771 0.4099962 0.924957 0.003306567 0.9249572 0.003306567 0.9249572 0.2906633 0.8593771 0.2505244 0.8593771 0.2505244 0.9225044 0.524786 0.924957 0.4099962 0.924957 0.4099962 0.924957 0.01388102 0.9110102 0.4142897 0.9110102 0.4142897 0.8708713 0.5247859 0.8608396 0.4099962 0.8608396 0.4099962 0.924957 0.01388102 0.9225044 0.01388102 0.8593771 0.126898 0.8593771 0.9665231 0.3652716 0.9665231 0.5195912 0.9033776 0.5195912 0.9033776 0.5195912 0.9665231 0.5195912 0.9665231 0.3652716 0.9033776 0.2828798 0.9033776 0.2427293 0.9665231 0.2427293 0.914875 0.1603375 0.9148751 0.006017863 0.9550256 0.006017863 0.9665231 0.2828798 0.9665231 0.2427293 0.9033776 0.2427293 0.914875 0.1603375 0.9148751 0.5195912 0.9550256 0.5195912 0.9148751 0.006017863 0.914875 0.1603375 0.9550256 0.1603375 0.9550256 0.5195912 0.9148751 0.5195912 0.914875 0.1603375 0.9033777 0.3652716 0.9665231 0.3652716 0.9665231 0.006017863 0.9665231 0.006017863 0.9665231 0.3652716 0.9033776 0.3652716 0.126898 0.9225044 0.126898 0.8593771 0.5273066 0.8593771 0.4099962 0.8608396 0.003306508 0.8608397 0.003306567 0.9249572 0.4142897 0.9110102 0.5273066 0.9110101 0.5273066 0.8708713 0.2906633 0.9225044 0.2505244 0.9225044 0.2505244 0.8593771 0.4099962 0.924957 0.4099962 0.924957 0.003306567 0.9249572 0.2906633 0.8593771 0.2505244 0.8593771 0.2505244 0.9225044 0.524786 0.924957 0.524786 0.924957 0.4099962 0.924957 0.01388102 0.9110102 0.4142897 0.9110102 0.4142897 0.8708713 0.5247859 0.8608396 0.4099962 0.8608396 0.4099962 0.924957 0.01388102 0.9225044 0.01388102 0.8593771 0.126898 0.8593771</float_array>
          <technique_common>
            <accessor source="#French_fries-mesh-map-0-array" count="1008" stride="2">
              <param name="S" type="float"/>
              <param name="T" type="float"/>
            </accessor>
          </technique_common>
        </source>
        <vertices id="French_fries-mesh-vertices">
          <input semantic="POSITION" source="#French_fries-mesh-positions"/>
        </vertices>
        <triangles material="French_fries-material" count="336">
          <input semantic="VERTEX" source="#French_fries-mesh-vertices" offset="0"/>
          <input semantic="NORMAL" source="#French_fries-mesh-normals" offset="1"/>
          <input semantic="TEXCOORD" source="#French_fries-mesh-map-0" offset="2" set="0"/>
          <p>8 0 0 3 1 1 2 2 2 3 1 3 6 3 4 2 2 5 10 4 6 5 5 7 4 6 8 13 7 9 1 8 10 0 9 11 10 4 12 0 9 13 8 0 14 6 3 15 8 0 16 2 2 17 7 10 18 10 4 19 6 3 20 1 8 21 8 0 22 0 9 23 22 11 24 17 12 25 23 13 26 20 14 27 17 12 28 16 15 29 24 16 30 19 17 31 25 18 32 14 19 33 15 20 34 27 21 35 14 19 36 24 16 37 22 11 38 22 11 39 20 14 40 16 15 41 24 16 42 21 22 43 20 14 44 22 11 45 15 20 46 14 19 47 37 23 48 30 24 49 36 25 50 32 26 51 39 27 52 38 28 53 33 29 54 29 30 55 28 31 56 37 23 57 35 32 58 31 33 59 31 33 60 32 26 61 30 24 62 38 28 63 28 31 64 36 25 65 30 24 66 38 28 67 36 25 68 34 34 69 37 23 70 29 30 71 38 28 72 34 34 73 33 29 74 29 30 75 36 25 76 28 31 77 49 35 78 42 36 79 48 37 80 45 38 81 51 39 82 50 40 83 47 41 84 42 36 85 43 42 86 50 40 87 40 43 88 48 37 89 40 43 90 46 44 91 41 45 92 49 35 93 47 41 94 43 42 95 41 45 96 51 39 97 49 35 98 45 38 99 48 37 100 42 36 101 44 46 102 51 39 103 46 44 104 40 43 105 49 35 106 48 37 107 60 47 108 55 48 109 54 49 110 62 50 111 59 51 112 63 52 113 60 47 114 56 53 115 52 54 116 52 54 117 58 55 118 53 56 119 63 52 120 55 48 121 61 57 122 55 48 123 57 58 124 54 49 125 58 55 126 61 57 127 53 56 128 57 58 129 60 47 130 54 49 131 56 53 132 63 52 133 58 55 134 52 54 135 61 57 136 60 47 137 73 59 138 66 60 139 72 61 140 68 62 141 75 63 142 74 64 143 64 65 144 70 66 145 65 67 146 75 63 147 67 68 148 73 59 149 67 68 150 68 62 151 66 60 152 74 64 153 64 65 154 72 61 155 66 60 156 74 64 157 72 61 158 70 66 159 73 59 160 65 67 161 74 64 162 70 66 163 69 69 164 65 67 165 72 61 166 64 65 167 85 70 168 78 71 169 84 72 170 81 73 171 87 74 172 86 75 173 79 76 174 81 73 175 78 71 176 84 72 177 80 77 178 76 78 179 80 77 180 77 79 181 76 78 182 87 74 183 79 76 184 85 70 185 82 80 186 85 70 187 77 79 188 81 73 189 84 72 190 78 71 191 80 77 192 87 74 193 82 80 194 76 78 195 85 70 196 84 72 197 96 81 198 91 82 199 90 83 200 98 84 201 95 85 202 99 86 203 96 81 204 92 87 205 88 88 206 88 88 207 94 89 208 89 90 209 99 86 210 91 82 211 97 91 212 95 85 213 90 83 214 91 82 215 94 89 216 97 91 217 89 90 218 93 92 219 96 81 220 90 83 221 92 87 222 99 86 223 94 89 224 88 88 225 97 91 226 96 81 227 109 93 228 102 94 229 108 95 230 104 96 231 111 97 232 110 98 233 100 99 234 106 100 235 101 101 236 111 97 237 103 102 238 109 93 239 103 102 240 104 96 241 102 94 242 110 98 243 100 99 244 108 95 245 102 94 246 110 98 247 108 95 248 101 101 249 111 97 250 109 93 251 110 98 252 106 100 253 105 103 254 101 101 255 108 95 256 100 99 257 121 104 258 114 105 259 120 106 260 117 107 261 123 108 262 122 109 263 115 110 264 117 107 265 114 105 266 122 109 267 112 111 268 120 106 269 116 112 270 113 113 271 112 111 272 123 108 273 115 110 274 121 104 275 118 114 276 121 104 277 113 113 278 117 107 279 120 106 280 114 105 281 116 112 282 123 108 283 118 114 284 112 111 285 121 104 286 120 106 287 132 115 288 127 116 289 126 117 290 134 118 291 131 119 292 135 120 293 132 115 294 128 121 295 124 122 296 128 121 297 125 123 298 124 122 299 135 120 300 127 116 301 133 124 302 131 119 303 126 117 304 127 116 305 130 125 306 133 124 307 125 123 308 129 126 309 132 115 310 126 117 311 128 121 312 135 120 313 130 125 314 124 122 315 133 124 316 132 115 317 145 127 318 138 128 319 144 129 320 140 130 321 147 131 322 146 132 323 136 133 324 142 134 325 137 135 326 145 127 327 143 136 328 139 137 329 143 136 330 138 128 331 139 137 332 146 132 333 136 133 334 144 129 335 140 130 336 144 129 337 138 128 338 137 135 339 147 131 340 145 127 341 146 132 342 142 134 343 141 138 344 137 135 345 144 129 346 136 133 347 157 139 348 150 140 349 156 141 350 153 142 351 159 143 352 158 144 353 151 145 354 153 142 355 150 140 356 156 141 357 152 146 358 148 147 359 152 146 360 149 148 361 148 147 362 159 143 363 151 145 364 157 139 365 154 149 366 157 139 367 149 148 368 150 140 369 158 144 370 156 141 371 152 146 372 159 143 373 154 149 374 148 147 375 157 139 376 156 141 377 168 150 378 163 151 379 162 152 380 170 153 381 167 154 382 171 155 383 168 150 384 164 156 385 160 157 386 160 157 387 166 158 388 161 159 389 171 155 390 163 151 391 169 160 392 167 154 393 162 152 394 163 151 395 166 158 396 169 160 397 161 159 398 165 161 399 168 150 400 162 152 401 164 156 402 171 155 403 166 158 404 160 157 405 169 160 406 168 150 407 180 162 408 175 163 409 174 164 410 182 165 411 179 166 412 183 167 413 182 165 414 172 168 415 180 162 416 176 169 417 173 170 418 172 168 419 183 167 420 175 163 421 181 171 422 175 163 423 177 172 424 174 164 425 178 173 426 181 171 427 173 170 428 177 172 429 180 162 430 174 164 431 176 169 432 183 167 433 178 173 434 172 168 435 181 171 436 180 162 437 193 174 438 186 175 439 192 176 440 188 177 441 195 178 442 194 179 443 184 180 444 190 181 445 185 182 446 195 178 447 187 183 448 193 174 449 187 183 450 188 177 451 186 175 452 194 179 453 184 180 454 192 176 455 188 177 456 192 176 457 186 175 458 185 182 459 195 178 460 193 174 461 194 179 462 190 181 463 189 184 464 185 182 465 192 176 466 184 180 467 204 185 468 199 186 469 198 187 470 206 188 471 203 189 472 207 190 473 206 188 474 196 191 475 204 185 476 196 191 477 202 192 478 197 193 479 205 194 480 203 189 481 199 186 482 199 186 483 201 195 484 198 187 485 197 193 486 207 190 487 205 194 488 201 195 489 204 185 490 198 187 491 200 196 492 207 190 493 202 192 494 196 191 495 205 194 496 204 185 497 8 0 498 9 197 499 3 1 500 3 1 501 7 10 502 6 3 503 10 4 504 11 198 505 5 5 506 0 9 507 4 6 508 13 7 509 4 6 510 5 5 511 12 199 512 4 6 513 12 199 514 13 7 515 10 4 516 4 6 517 0 9 518 6 3 519 10 4 520 8 0 521 7 10 522 11 198 523 10 4 524 1 8 525 9 197 526 8 0 527 22 11 528 16 15 529 17 12 530 20 14 531 21 22 532 17 12 533 24 16 534 18 200 535 19 17 536 19 17 537 18 200 538 26 201 539 18 200 540 14 19 541 27 21 542 26 201 543 18 200 544 27 21 545 14 19 546 18 200 547 24 16 548 22 11 549 24 16 550 20 14 551 24 16 552 25 18 553 21 22 554 22 11 555 23 13 556 15 20 557 37 23 558 31 33 559 30 24 560 32 26 561 35 32 562 39 27 563 33 29 564 34 34 565 29 30 566 37 23 567 39 27 568 35 32 569 31 33 570 35 32 571 32 26 572 38 28 573 33 29 574 28 31 575 30 24 576 32 26 577 38 28 578 34 34 579 39 27 580 37 23 581 38 28 582 39 27 583 34 34 584 29 30 585 37 23 586 36 25 587 49 35 588 43 42 589 42 36 590 45 38 591 47 41 592 51 39 593 47 41 594 45 38 595 42 36 596 50 40 597 44 46 598 40 43 599 40 43 600 44 46 601 46 44 602 49 35 603 51 39 604 47 41 605 41 45 606 46 44 607 51 39 608 45 38 609 50 40 610 48 37 611 44 46 612 50 40 613 51 39 614 40 43 615 41 45 616 49 35 617 60 47 618 61 57 619 55 48 620 62 50 621 57 58 622 59 51 623 60 47 624 62 50 625 56 53 626 52 54 627 56 53 628 58 55 629 63 52 630 59 51 631 55 48 632 55 48 633 59 51 634 57 58 635 58 55 636 63 52 637 61 57 638 57 58 639 62 50 640 60 47 641 56 53 642 62 50 643 63 52 644 52 54 645 53 56 646 61 57 647 73 59 648 67 68 649 66 60 650 68 62 651 71 202 652 75 63 653 64 65 654 69 69 655 70 66 656 75 63 657 71 202 658 67 68 659 67 68 660 71 202 661 68 62 662 74 64 663 69 69 664 64 65 665 66 60 666 68 62 667 74 64 668 70 66 669 75 63 670 73 59 671 74 64 672 75 63 673 70 66 674 65 67 675 73 59 676 72 61 677 85 70 678 79 76 679 78 71 680 81 73 681 83 203 682 87 74 683 79 76 684 83 203 685 81 73 686 84 72 687 86 75 688 80 77 689 80 77 690 82 80 691 77 79 692 87 74 693 83 203 694 79 76 695 82 80 696 87 74 697 85 70 698 81 73 699 86 75 700 84 72 701 80 77 702 86 75 703 87 74 704 76 78 705 77 79 706 85 70 707 96 81 708 97 91 709 91 82 710 98 84 711 93 92 712 95 85 713 96 81 714 98 84 715 92 87 716 88 88 717 92 87 718 94 89 719 99 86 720 95 85 721 91 82 722 95 85 723 93 92 724 90 83 725 94 89 726 99 86 727 97 91 728 93 92 729 98 84 730 96 81 731 92 87 732 98 84 733 99 86 734 88 88 735 89 90 736 97 91 737 109 93 738 103 102 739 102 94 740 104 96 741 107 204 742 111 97 743 100 99 744 105 103 745 106 100 746 111 97 747 107 204 748 103 102 749 103 102 750 107 204 751 104 96 752 110 98 753 105 103 754 100 99 755 102 94 756 104 96 757 110 98 758 101 101 759 106 100 760 111 97 761 110 98 762 111 97 763 106 100 764 101 101 765 109 93 766 108 95 767 121 104 768 115 110 769 114 105 770 117 107 771 119 205 772 123 108 773 115 110 774 119 205 775 117 107 776 122 109 777 116 112 778 112 111 779 116 112 780 118 114 781 113 113 782 123 108 783 119 205 784 115 110 785 118 114 786 123 108 787 121 104 788 117 107 789 122 109 790 120 106 791 116 112 792 122 109 793 123 108 794 112 111 795 113 113 796 121 104 797 132 115 798 133 124 799 127 116 800 134 118 801 129 126 802 131 119 803 132 115 804 134 118 805 128 121 806 128 121 807 130 125 808 125 123 809 135 120 810 131 119 811 127 116 812 131 119 813 129 126 814 126 117 815 130 125 816 135 120 817 133 124 818 129 126 819 134 118 820 132 115 821 128 121 822 134 118 823 135 120 824 124 122 825 125 123 826 133 124 827 145 127 828 139 137 829 138 128 830 140 130 831 143 136 832 147 131 833 136 133 834 141 138 835 142 134 836 145 127 837 147 131 838 143 136 839 143 136 840 140 130 841 138 128 842 146 132 843 141 138 844 136 133 845 140 130 846 146 132 847 144 129 848 137 135 849 142 134 850 147 131 851 146 132 852 147 131 853 142 134 854 137 135 855 145 127 856 144 129 857 157 139 858 151 145 859 150 140 860 153 142 861 155 206 862 159 143 863 151 145 864 155 206 865 153 142 866 156 141 867 158 144 868 152 146 869 152 146 870 154 149 871 149 148 872 159 143 873 155 206 874 151 145 875 154 149 876 159 143 877 157 139 878 150 140 879 153 142 880 158 144 881 152 146 882 158 144 883 159 143 884 148 147 885 149 148 886 157 139 887 168 150 888 169 160 889 163 151 890 170 153 891 165 161 892 167 154 893 168 150 894 170 153 895 164 156 896 160 157 897 164 156 898 166 158 899 171 155 900 167 154 901 163 151 902 167 154 903 165 161 904 162 152 905 166 158 906 171 155 907 169 160 908 165 161 909 170 153 910 168 150 911 164 156 912 170 153 913 171 155 914 160 157 915 161 159 916 169 160 917 180 162 918 181 171 919 175 163 920 182 165 921 177 172 922 179 166 923 182 165 924 176 169 925 172 168 926 176 169 927 178 173 928 173 170 929 183 167 930 179 166 931 175 163 932 175 163 933 179 166 934 177 172 935 178 173 936 183 167 937 181 171 938 177 172 939 182 165 940 180 162 941 176 169 942 182 165 943 183 167 944 172 168 945 173 170 946 181 171 947 193 174 948 187 183 949 186 175 950 188 177 951 191 207 952 195 178 953 184 180 954 189 184 955 190 181 956 195 178 957 191 207 958 187 183 959 187 183 960 191 207 961 188 177 962 194 179 963 189 184 964 184 180 965 188 177 966 194 179 967 192 176 968 185 182 969 190 181 970 195 178 971 194 179 972 195 178 973 190 181 974 185 182 975 193 174 976 192 176 977 204 185 978 205 194 979 199 186 980 206 188 981 201 195 982 203 189 983 206 188 984 200 196 985 196 191 986 196 191 987 200 196 988 202 192 989 205 194 990 207 190 991 203 189 992 199 186 993 203 189 994 201 195 995 197 193 996 202 192 997 207 190 998 201 195 999 206 188 1000 204 185 1001 200 196 1002 206 188 1003 207 190 1004 196 191 1005 197 193 1006 205 194 1007</p>
        </triangles>
      </mesh>
    </geometry>
  </library_geometries>
  <library_visual_scenes>
    <visual_scene id="Scene" name="Scene">
      <node id="French_fries" name="French_fries" type="NODE">
        <matrix sid="transform">-0.02470313 8.0493e-9 0 0 -8.0493e-9 -0.02470313 0 0 0 0 0.02470313 0 0 0 0 1</matrix>
        <instance_geometry url="#French_fries-mesh" name="French_fries">
          <bind_material>
            <technique_common>
              <instance_material symbol="French_fries-material" target="#French_fries-material">
                <bind_vertex_input semantic="UVMap" input_semantic="TEXCOORD" input_set="0"/>
              </instance_material>
            </technique_common>
          </bind_material>
        </instance_geometry>
      </node>
    </visual_scene>
  </library_visual_scenes>
  <scene>
    <instance_visual_scene url="#Scene"/>
  </scene>
</COLLADA>