<?xml version="1.0" encoding="utf-8"?>
<COLLADA xmlns="http://www.collada.org/2005/11/COLLADASchema" version="1.4.1" xmlns:xsi="http://www.w3.org/2001/XMLSchema-instance">
  <asset>
    <contributor>
      <author>Blender User</author>
      <authoring_tool>Blender 4.0.1 commit date:2023-11-16, commit time:16:40, hash:d0dd92834a08</authoring_tool>
    </contributor>
    <created>2023-11-28T13:07:43</created>
    <modified>2023-11-28T13:07:43</modified>
    <unit name="meter" meter="1"/>
    <up_axis>Z_UP</up_axis>
  </asset>
  <library_effects>
    <effect id="Door-effect">
      <profile_COMMON>
        <newparam sid="Door_png-surface">
          <surface type="2D">
            <init_from>Door_png</init_from>
          </surface>
        </newparam>
        <newparam sid="Door_png-sampler">
          <sampler2D>
            <source>Door_png-surface</source>
          </sampler2D>
        </newparam>
        <technique sid="common">
          <lambert>
            <emission>
              <color sid="emission">0 0 0 1</color>
            </emission>
            <diffuse>
              <texture texture="Door_png-sampler" texcoord="UVMap"/>
            </diffuse>
            <index_of_refraction>
              <float sid="ior">1.45</float>
            </index_of_refraction>
          </lambert>
        </technique>
      </profile_COMMON>
    </effect>
    <effect id="Glass-effect">
      <profile_COMMON>
        <technique sid="common">
          <lambert>
            <emission>
              <color sid="emission">0 0 0 1</color>
            </emission>
            <diffuse>
              <color sid="diffuse">0.8 0.8 0.8 1</color>
            </diffuse>
            <index_of_refraction>
              <float sid="ior">1.45</float>
            </index_of_refraction>
          </lambert>
        </technique>
      </profile_COMMON>
    </effect>
  </library_effects>
  <library_images>
    <image id="Door_png" name="Door_png">
      <init_from>Door.png</init_from>
    </image>
  </library_images>
  <library_materials>
    <material id="Door-material" name="Door">
      <instance_effect url="#Door-effect"/>
    </material>
    <material id="Glass-material" name="Glass">
      <instance_effect url="#Glass-effect"/>
    </material>
  </library_materials>
  <library_geometries>
    <geometry id="Door-mesh" name="Door">
      <mesh>
        <source id="Door-mesh-positions">
          <float_array id="Door-mesh-positions-array" count="216">-0.04114633 -1.037261 -1.422634 -0.04114633 -1.19209e-5 -1.422634 -0.04114633 -1.037261 1.030425 -0.04114633 -1.19209e-5 1.030425 0.04022711 -1.037261 -1.422634 0.04022711 -1.19209e-5 -1.422634 0.04022711 -1.037261 1.030425 0.04022711 -1.19209e-5 1.030425 -0.04114633 -0.7764298 0.4138471 -0.04114633 -0.6998313 0.5987724 -0.04114633 -0.6998313 0.2289218 -0.04114633 -0.253382 0.4138471 -0.04114633 -0.3299806 0.5987724 -0.04114633 -0.3299806 0.2289218 -0.04114633 -0.5149059 0.6753709 -0.04114633 -0.5149059 0.1523232 0.04022711 -0.7764298 0.4138471 0.04022711 -0.6998313 0.5987724 0.04022711 -0.6998313 0.2289218 0.04022711 -0.253382 0.4138471 0.04022711 -0.3299806 0.5987724 0.04022711 -0.3299806 0.2289218 0.04022711 -0.5149059 0.6753709 0.04022711 -0.5149059 0.1523232 -0.05156248 -0.7464298 0.4138471 -0.05156248 -0.678618 0.5775592 -0.05156248 -0.678618 0.250135 -0.05156248 -0.2833821 0.4138471 -0.05156248 -0.3511939 0.5775592 -0.05156248 -0.3511939 0.250135 -0.05156248 -0.5149059 0.645371 -0.05156248 -0.5149059 0.1823232 0.05064326 -0.7464298 0.4138471 0.05064326 -0.678618 0.5775592 0.05064326 -0.678618 0.250135 0.05064326 -0.2833821 0.4138471 0.05064326 -0.3511939 0.5775592 0.05064326 -0.3511939 0.250135 0.05064326 -0.5149059 0.645371 0.05064326 -0.5149059 0.1823232 -0.05156248 -0.7764298 0.4138471 -0.05156248 -0.6998313 0.5987724 -0.05156248 -0.6998313 0.2289218 -0.05156248 -0.253382 0.4138471 -0.05156248 -0.3299806 0.5987724 -0.05156248 -0.3299806 0.2289218 -0.05156248 -0.5149059 0.6753709 -0.05156248 -0.5149059 0.1523232 0.05064326 -0.7764298 0.4138471 0.05064326 -0.6998313 0.5987724 0.05064326 -0.6998313 0.2289218 0.05064326 -0.253382 0.4138471 0.05064326 -0.3299806 0.5987724 0.05064326 -0.3299806 0.2289218 0.05064326 -0.5149059 0.6753709 0.05064326 -0.5149059 0.1523232 -0.01146477 -0.7464298 0.4138471 -0.01146477 -0.678618 0.5775592 -0.01146477 -0.678618 0.250135 -0.01146477 -0.2833821 0.4138471 -0.01146477 -0.3511939 0.5775592 -0.01146477 -0.3511939 0.250135 -0.01146477 -0.5149059 0.645371 -0.01146477 -0.5149059 0.1823232 0.005660772 -0.7464298 0.4138471 0.005660772 -0.678618 0.5775592 0.005660772 -0.678618 0.250135 0.005660772 -0.2833821 0.4138471 0.005660772 -0.3511939 0.5775592 0.005660772 -0.3511939 0.250135 0.005660772 -0.5149059 0.645371 0.005660772 -0.5149059 0.1823232</float_array>
          <technique_common>
            <accessor source="#Door-mesh-positions-array" count="72" stride="3">
              <param name="X" type="float"/>
              <param name="Y" type="float"/>
              <param name="Z" type="float"/>
            </accessor>
          </technique_common>
        </source>
        <source id="Door-mesh-normals">
          <float_array id="Door-mesh-normals-array" count="267">-1 0 0 -1 0 0 -1 0 0 -1 0 0 -1 0 0 -1 0 0 1 0 0 1 0 0 1 0 0 1 0 0 1 0 0 1 0 0 0 0 -1 0 -1 0 0 0 1 0 1 0 0 0 -1 0 0.7071066 -0.707107 0 0 -1 0 1 0 0 1 0 0 0.7071066 0.707107 0 0 1 0 0 1 0 -0.7071067 0.7071068 0 -1 0 0 -1 0 0 -0.7071067 -0.7071069 0 -0.7071067 -0.7071069 0 -0.7071067 0.7071069 0 0 1 0 0 1 0 -1 0 0 -0.7071068 -0.7071068 0 -1 0 0 0 -1 0 0.7071068 -0.7071068 0 0.7071068 -0.7071068 0 1 0 0 0.7071068 0.7071068 -1 0 0 -1 0 0 -1 0 0 -1 0 0 -1 1.25474e-7 0 -1 1.21587e-7 0 -1 0 0 -1 0 0 -1 0 0 -1 0 0 1 0 0 1 0 0 1 0 0 -1 0 0 -1 0 0 1 -1.64162e-7 0 1 0 0 1 0 0 1 0 0 1 0 0 1 0 0 -1 0 0 1 0 0 1 0 0 1 0 0 1 0 0 -1 0 0 1 0 0 1 -1.45381e-7 0 -1 0 0 -1 0 0 -1 0 0 -1 0 0 -1 0 0 -1 0 0 1 0 0 1 0 0 1 0 0 1 0 0 1 0 0 1 0 0 0 0.7071065 -0.7071071 0 0.7071065 0.7071071 0 -0.7071068 -0.7071068 0 1 0 -1 0 0 -1 0 0 1 0 0 1 0 0</float_array>
          <technique_common>
            <accessor source="#Door-mesh-normals-array" count="89" stride="3">
              <param name="X" type="float"/>
              <param name="Y" type="float"/>
              <param name="Z" type="float"/>
            </accessor>
          </technique_common>
        </source>
        <source id="Door-mesh-map-0">
          <float_array id="Door-mesh-map-0-array" count="648">0.970055 0.994807 0.6688213 0.8206695 0.5000001 0.851571 0.9700551 0.005193054 0.02313369 0.005193054 0.5 0.6405627 0.02313375 0.005193054 0.970055 0.005193054 0.5 0.6405627 0.02313369 0.994807 0.3311787 0.8206695 0.5000001 0.8515709 0.4649494 0.7056993 0.5350506 0.29132 0.4649494 0.29132 0.4649494 0.005193054 0.5350506 0.994807 0.4649494 0.994807 0.4649494 0.29132 0.5350506 0.7056993 0.4649494 0.7056994 0.4649494 0.994807 0.5350506 0.005193054 0.4649494 0.005193054 0.7653326 0.08007353 0.7093898 0.05698961 0.7653326 0.05698961 0.7093898 0.05698961 0.6534469 0.08007353 0.6534469 0.05698961 0.6534469 0.08007353 0.5975041 0.05698961 0.6534469 0.05698961 0.5975041 0.05698961 0.5415611 0.08007353 0.5415611 0.05698961 0.9891042 0.05698961 0.9331613 0.08007353 0.9331613 0.05698961 0.9331613 0.05698961 0.8772184 0.08007353 0.8772184 0.05698961 0.8772184 0.05698961 0.8212755 0.08007353 0.8212755 0.05698961 0.8212755 0.08007353 0.7653326 0.05698961 0.8212755 0.05698961 0.7093898 0.03946125 0.7653326 0.01637732 0.7653326 0.03946125 0.7093898 0.03946125 0.6534469 0.01637732 0.7093898 0.01637732 0.597504 0.03946125 0.6534469 0.01637732 0.6534469 0.03946125 0.5415611 0.01637732 0.597504 0.03946125 0.5415611 0.03946125 0.4856182 0.01637732 0.5415611 0.03946125 0.4856182 0.03946125 0.8772184 0.03946125 0.9331613 0.01637732 0.9331613 0.03946125 0.8212755 0.01637732 0.8772184 0.03946125 0.8212755 0.03946125 0.7653326 0.03946125 0.8212755 0.01637732 0.8212755 0.03946125 0.5975041 0.0536952 0.6534469 0.04275566 0.6534469 0.0536952 0.8772184 0.05369514 0.9331613 0.04275566 0.9331613 0.05369514 0.7093898 0.0536952 0.7653326 0.04275566 0.7653326 0.05369514 0.5975041 0.0536952 0.5415611 0.04275572 0.597504 0.04275566 0.6534469 0.002143383 0.5975041 0.01308292 0.5975041 0.002143383 0.8772184 0.05369514 0.8212755 0.04275566 0.8772184 0.04275566 0.8212755 0.002143383 0.7653326 0.01308286 0.7653326 0.002143383 0.5975041 0.002143383 0.5415611 0.01308292 0.5415611 0.002143383 0.5415611 0.002143383 0.4856182 0.01308292 0.4856183 0.002143383 0.8212755 0.05369514 0.7653326 0.04275566 0.8212755 0.04275566 0.4856182 0.0536952 0.5415611 0.04275572 0.5415611 0.0536952 0.8772184 0.002143383 0.9331613 0.01308286 0.8772184 0.01308286 0.6534469 0.002143383 0.7093898 0.01308286 0.6534469 0.01308286 0.6534469 0.0536952 0.7093898 0.04275566 0.7093898 0.0536952 0.7093898 0.002143383 0.7653326 0.01308286 0.7093898 0.01308286 0.8772184 0.002143383 0.8212755 0.01308286 0.8212755 0.002143383 0.8535534 1.985078 0.8535534 1.277971 0.1464466 1.277971 0.8535534 1.277971 0.8535534 1.985078 0.1464466 1.985078 0.5000001 0.851571 0.3311787 0.8206693 0.02313375 0.994807 0.02313375 0.994807 0.970055 0.994807 0.5000001 0.851571 0.7387495 0.7460668 0.6688215 0.8206695 0.9700551 0.994807 0.02313375 0.994807 0.3311787 0.8206694 0.2612507 0.7460667 0.02313375 0.994807 0.2612507 0.7460667 0.02313369 0.005193054 0.2612507 0.7460667 0.3311787 0.6714641 0.02313369 0.005193054 0.7387495 0.7460668 0.9700551 0.994807 0.9700551 0.005193054 0.6688213 0.6714641 0.7387495 0.7460668 0.9700551 0.005193054 0.5 0.6405627 0.6688213 0.6714641 0.9700551 0.005193054 0.02313369 0.005193054 0.3311787 0.6714641 0.5 0.6405627 0.2612506 0.7460668 0.3311788 0.8206695 0.02313375 0.9948071 0.9700549 0.9948069 0.6688213 0.8206694 0.7387495 0.7460668 0.970055 0.005193054 0.9700549 0.9948069 0.7387495 0.7460668 0.2612506 0.7460668 0.02313375 0.9948071 0.02313375 0.005193054 0.3311787 0.6714641 0.2612506 0.7460668 0.02313375 0.005193054 0.970055 0.005193054 0.7387495 0.7460668 0.6688213 0.6714641 0.5 0.6405627 0.3311787 0.6714641 0.02313375 0.005193054 0.970055 0.005193054 0.6688213 0.6714641 0.5 0.6405627 0.5000001 0.8515709 0.6688213 0.8206693 0.9700551 0.994807 0.9700551 0.994807 0.02313369 0.994807 0.5000001 0.8515709 0.4649494 0.7056993 0.5350506 0.7056994 0.5350506 0.29132 0.4649494 0.005193054 0.5350506 0.005193054 0.5350506 0.994807 0.4649494 0.29132 0.5350506 0.29132 0.5350506 0.7056993 0.4649494 0.994807 0.5350506 0.994807 0.5350506 0.005193054 0.7653326 0.08007353 0.7093898 0.08007353 0.7093898 0.05698961 0.7093898 0.05698961 0.7093898 0.08007353 0.6534469 0.08007353 0.6534469 0.08007353 0.597504 0.08007353 0.5975041 0.05698961 0.5975041 0.05698961 0.597504 0.08007353 0.5415611 0.08007353 0.9891042 0.05698961 0.9891041 0.08007353 0.9331613 0.08007353 0.9331613 0.05698961 0.9331613 0.08007353 0.8772184 0.08007353 0.8772184 0.05698961 0.8772184 0.08007353 0.8212755 0.08007353 0.8212755 0.08007353 0.7653326 0.08007353 0.7653326 0.05698961 0.7093898 0.03946125 0.7093898 0.01637732 0.7653326 0.01637732 0.7093898 0.03946125 0.6534469 0.03946125 0.6534469 0.01637732 0.597504 0.03946125 0.5975041 0.01637732 0.6534469 0.01637732 0.5415611 0.01637732 0.5975041 0.01637732 0.597504 0.03946125 0.4856182 0.01637732 0.5415611 0.01637732 0.5415611 0.03946125 0.8772184 0.03946125 0.8772184 0.01637732 0.9331613 0.01637732 0.8212755 0.01637732 0.8772184 0.01637732 0.8772184 0.03946125 0.7653326 0.03946125 0.7653326 0.01637732 0.8212755 0.01637732 0.5975041 0.0536952 0.597504 0.04275566 0.6534469 0.04275566 0.8772184 0.05369514 0.8772184 0.04275566 0.9331613 0.04275566 0.7093898 0.0536952 0.7093898 0.04275566 0.7653326 0.04275566 0.5975041 0.0536952 0.5415611 0.0536952 0.5415611 0.04275572 0.6534469 0.002143383 0.6534469 0.01308286 0.5975041 0.01308292 0.8772184 0.05369514 0.8212755 0.05369514 0.8212755 0.04275566 0.8212755 0.002143383 0.8212755 0.01308286 0.7653326 0.01308286 0.5975041 0.002143383 0.5975041 0.01308292 0.5415611 0.01308292 0.5415611 0.002143383 0.5415611 0.01308292 0.4856182 0.01308292 0.8212755 0.05369514 0.7653326 0.05369514 0.7653326 0.04275566 0.4856182 0.0536952 0.4856182 0.04275572 0.5415611 0.04275572 0.8772184 0.002143383 0.9331613 0.002143383 0.9331613 0.01308286 0.6534469 0.002143383 0.7093898 0.002143383 0.7093898 0.01308286 0.6534469 0.0536952 0.6534469 0.04275566 0.7093898 0.04275566 0.7093898 0.002143383 0.7653326 0.002143383 0.7653326 0.01308286 0.8772184 0.002143383 0.8772184 0.01308286 0.8212755 0.01308286 0.1464466 1.277971 0 1.631524 0.1464466 1.985078 0.1464466 1.985078 0.5 2.131524 0.8535534 1.985078 0.8535534 1.985078 1 1.631524 0.8535534 1.277971 0.8535534 1.277971 0.5 1.131524 0.1464466 1.277971 0.1464466 1.277971 0.1464466 1.985078 0.8535534 1.985078 0.1464466 1.985078 0 1.631524 0.1464466 1.277971 0.1464466 1.277971 0.5 1.131524 0.8535534 1.277971 0.8535534 1.277971 1 1.631524 0.8535534 1.985078 0.8535534 1.985078 0.5 2.131524 0.1464466 1.985078 0.1464466 1.985078 0.1464466 1.277971 0.8535534 1.277971</float_array>
          <technique_common>
            <accessor source="#Door-mesh-map-0-array" count="324" stride="2">
              <param name="S" type="float"/>
              <param name="T" type="float"/>
            </accessor>
          </technique_common>
        </source>
        <vertices id="Door-mesh-vertices">
          <input semantic="POSITION" source="#Door-mesh-positions"/>
        </vertices>
        <triangles material="Door-material" count="96">
          <input semantic="VERTEX" source="#Door-mesh-vertices" offset="0"/>
          <input semantic="NORMAL" source="#Door-mesh-normals" offset="1"/>
          <input semantic="TEXCOORD" source="#Door-mesh-map-0" offset="2" set="0"/>
          <p>3 0 0 12 1 1 14 2 2 1 3 3 0 4 4 15 5 5 4 6 6 5 7 7 23 8 8 6 9 9 17 10 10 22 11 11 1 12 12 4 12 13 0 12 14 0 13 15 6 13 16 2 13 17 2 14 18 7 14 19 3 14 20 3 15 21 5 15 22 1 15 23 38 16 24 25 17 25 30 18 26 25 17 27 32 19 28 24 20 29 32 19 30 26 21 31 24 20 32 26 21 33 39 22 34 31 23 35 31 23 36 37 24 37 29 24 38 29 24 39 35 25 40 27 26 41 27 26 42 36 27 43 28 28 44 36 27 45 30 18 46 28 28 47 41 29 48 54 30 49 46 31 50 41 29 51 48 32 52 49 24 53 42 33 54 48 32 55 40 34 56 55 12 57 42 33 58 47 35 59 53 36 60 47 35 61 45 37 62 43 38 63 53 36 64 45 37 65 52 39 66 43 38 67 44 39 68 46 31 69 52 39 70 44 39 71 26 40 72 40 41 73 24 42 74 27 43 75 45 44 76 29 45 77 25 46 78 46 47 79 30 47 80 26 40 81 47 48 82 42 49 83 32 50 84 50 51 85 34 52 86 27 43 87 44 53 88 43 54 89 36 55 90 54 56 91 38 56 92 34 52 93 55 57 94 39 58 95 39 58 96 53 59 97 37 60 98 28 61 99 46 47 100 44 53 101 29 45 102 47 48 103 31 47 104 35 62 105 53 59 106 51 63 107 32 50 108 49 64 109 48 65 110 24 42 111 41 66 112 25 46 113 33 67 114 54 56 115 49 64 116 35 62 117 52 68 118 36 55 119 14 2 126 9 69 127 2 70 128 2 70 129 3 0 130 14 2 131 11 71 132 12 1 133 3 0 134 2 70 135 9 69 136 8 72 137 2 70 138 8 72 139 0 4 140 8 72 141 10 73 142 0 4 143 11 71 144 3 0 145 1 3 146 13 74 147 11 71 148 1 3 149 15 5 150 13 74 151 1 3 152 0 4 153 10 73 154 15 5 155 16 75 156 17 10 157 6 9 158 7 76 159 20 77 160 19 78 161 5 7 162 7 76 163 19 78 164 16 75 165 6 9 166 4 6 167 18 79 168 16 75 169 4 6 170 5 7 171 19 78 172 21 80 173 23 8 174 18 79 175 4 6 176 5 7 177 21 80 178 23 8 179 22 11 180 20 77 181 7 76 182 7 76 183 6 9 184 22 11 185 1 12 186 5 12 187 4 12 188 0 13 189 4 13 190 6 13 191 2 14 192 6 14 193 7 14 194 3 15 195 7 15 196 5 15 197 38 16 198 33 81 199 25 17 200 25 17 201 33 81 202 32 19 203 32 19 204 34 82 205 26 21 206 26 21 207 34 82 208 39 22 209 31 23 210 39 22 211 37 24 212 29 24 213 37 24 214 35 25 215 27 26 216 35 25 217 36 27 218 36 27 219 38 16 220 30 18 221 41 29 222 49 24 223 54 30 224 41 29 225 40 34 226 48 32 227 42 33 228 50 83 229 48 32 230 55 12 231 50 83 232 42 33 233 53 36 234 55 12 235 47 35 236 43 38 237 51 84 238 53 36 239 52 39 240 51 84 241 43 38 242 46 31 243 54 30 244 52 39 245 26 40 246 42 49 247 40 41 248 27 43 249 43 54 250 45 44 251 25 46 252 41 66 253 46 47 254 26 40 255 31 47 256 47 48 257 32 50 258 48 65 259 50 51 260 27 43 261 28 61 262 44 53 263 36 55 264 52 68 265 54 56 266 34 52 267 50 51 268 55 57 269 39 58 270 55 57 271 53 59 272 28 61 273 30 47 274 46 47 275 29 45 276 45 44 277 47 48 278 35 62 279 37 60 280 53 59 281 32 50 282 33 67 283 49 64 284 24 42 285 40 41 286 41 66 287 33 67 288 38 56 289 54 56 290 35 62 291 51 63 292 52 68 293</p>
        </triangles>
        <triangles material="Glass-material" count="12">
          <input semantic="VERTEX" source="#Door-mesh-vertices" offset="0"/>
          <input semantic="NORMAL" source="#Door-mesh-normals" offset="1"/>
          <input semantic="TEXCOORD" source="#Door-mesh-map-0" offset="2" set="0"/>
          <p>60 47 120 61 47 121 58 47 122 69 56 123 68 56 124 65 56 125 58 85 294 56 85 295 57 85 296 57 47 297 62 47 298 60 47 299 60 86 300 59 86 301 61 86 302 61 47 303 63 47 304 58 47 305 58 47 306 57 47 307 60 47 308 65 87 309 64 87 310 66 87 311 66 56 312 71 56 313 69 56 314 69 88 315 67 88 316 68 88 317 68 56 318 70 56 319 65 56 320 65 56 321 66 56 322 69 56 323</p>
        </triangles>
      </mesh>
    </geometry>
  </library_geometries>
  <library_visual_scenes>
    <visual_scene id="Scene" name="Scene">
      <node id="Door" name="Door" type="NODE">
        <matrix sid="transform">-4.37114e-8 -1 0 0 1 -4.37114e-8 0 0 0 0 1 0 0 0 0 1</matrix>
        <instance_geometry url="#Door-mesh" name="Door">
          <bind_material>
            <technique_common>
              <instance_material symbol="Door-material" target="#Door-material">
                <bind_vertex_input semantic="UVMap" input_semantic="TEXCOORD" input_set="0"/>
              </instance_material>
              <instance_material symbol="Glass-material" target="#Glass-material">
                <bind_vertex_input semantic="UVMap" input_semantic="TEXCOORD" input_set="0"/>
              </instance_material>
            </technique_common>
          </bind_material>
        </instance_geometry>
      </node>
    </visual_scene>
  </library_visual_scenes>
  <scene>
    <instance_visual_scene url="#Scene"/>
  </scene>
</COLLADA>