<?xml version="1.0" encoding="utf-8"?>
<COLLADA xmlns="http://www.collada.org/2005/11/COLLADASchema" version="1.4.1" xmlns:xsi="http://www.w3.org/2001/XMLSchema-instance">
  <asset>
    <contributor>
      <author>Blender User</author>
      <authoring_tool>Blender 4.0.1 commit date:2023-11-16, commit time:16:40, hash:d0dd92834a08</authoring_tool>
    </contributor>
    <created>2023-11-28T13:40:56</created>
    <modified>2023-11-28T13:40:56</modified>
    <unit name="meter" meter="1"/>
    <up_axis>Z_UP</up_axis>
  </asset>
  <library_effects>
    <effect id="Lamp-effect">
      <profile_COMMON>
        <newparam sid="Lamp-surface">
          <surface type="2D">
            <init_from>Lamp</init_from>
          </surface>
        </newparam>
        <newparam sid="Lamp-sampler">
          <sampler2D>
            <source>Lamp-surface</source>
          </sampler2D>
        </newparam>
        <technique sid="common">
          <lambert>
            <emission>
              <color sid="emission">0 0 0 1</color>
            </emission>
            <diffuse>
              <texture texture="Lamp-sampler" texcoord="UVMap"/>
            </diffuse>
            <index_of_refraction>
              <float sid="ior">1.45</float>
            </index_of_refraction>
          </lambert>
        </technique>
      </profile_COMMON>
    </effect>
  </library_effects>
  <library_images>
    <image id="Lamp" name="Lamp">
      <init_from>Lamp.png</init_from>
    </image>
  </library_images>
  <library_materials>
    <material id="Lamp-material" name="Lamp">
      <instance_effect url="#Lamp-effect"/>
    </material>
  </library_materials>
  <library_geometries>
    <geometry id="Lamp-mesh" name="Lamp">
      <mesh>
        <source id="Lamp-mesh-positions">
          <float_array id="Lamp-mesh-positions-array" count="114">0 0.4420594 -0.1143279 0 0.3993002 -0.02073287 0.3125831 0.3125832 -0.1143279 0.2823478 0.2823479 -0.02073287 0.4420593 0 -0.1143279 0.3993001 0 -0.02073287 0.3125831 -0.312583 -0.1143279 0.2823478 -0.2823477 -0.02073287 0 -0.4420592 -0.1143279 0 -0.3993 -0.02073287 -0.3125831 -0.312583 -0.1143279 -0.2823478 -0.2823477 -0.02073287 -0.4420593 0 -0.1143279 -0.3993001 0 -0.02073287 -0.3125831 0.3125832 -0.1143279 -0.2823478 0.2823479 -0.02073287 0.05821859 0.05821806 0.167587 0 0.08233302 0.167587 0.08233356 -5.15636e-7 0.167587 0.05821859 -0.05821913 0.167587 0 -0.0823341 0.167587 -0.05821859 -0.05821913 0.167587 -0.08233356 -5.15636e-7 0.167587 -0.05821859 0.05821806 0.167587 0.03948765 0.039487 0.4099277 0 0.05584335 0.4099277 0.055844 -6.55932e-7 0.4099277 0.03948765 -0.03948831 0.4099277 0 -0.05584466 0.4099277 -0.03948765 -0.03948831 0.4099277 -0.055844 -6.55932e-7 0.4099277 -0.03948765 0.039487 0.4099277 0 0.02247059 0.3859446 0 0.02247059 0.9364393 0.01946008 -0.01123529 0.3859446 0.01946008 -0.01123529 0.9364393 -0.01946008 -0.01123529 0.3859446 -0.01946008 -0.01123529 0.9364393</float_array>
          <technique_common>
            <accessor source="#Lamp-mesh-positions-array" count="38" stride="3">
              <param name="X" type="float"/>
              <param name="Y" type="float"/>
              <param name="Z" type="float"/>
            </accessor>
          </technique_common>
        </source>
        <source id="Lamp-mesh-normals">
          <float_array id="Lamp-mesh-normals-array" count="111">0 0.7736252 0.6336436 0.6263257 0.6263257 -0.464147 0 0.8857582 -0.4641469 0.5470358 0.5470359 0.6336433 0.8857581 0 -0.4641473 0.7736258 0 0.6336429 0.6263257 -0.6263255 -0.4641472 0.5470362 -0.5470361 0.6336427 0 -0.8857579 -0.4641478 -0.5470362 -0.5470361 0.6336427 -0.6263257 -0.6263255 -0.4641473 -0.7736257 0 0.6336429 -0.8857581 0 -0.4641474 -0.801922 0 0.5974287 -0.5470358 0.5470358 0.6336432 -0.6263256 0.6263256 -0.464147 0 0.8019215 0.5974294 0.5670443 0.5670442 0.5974293 0.5670448 -0.5670447 0.5974283 0 -0.773626 0.6336425 -0.5670443 0.5670442 0.5974292 -0.5670448 -0.5670447 0.5974284 0.801922 0 0.5974287 0.5244972 0.5244958 0.6706765 0.74175 -2.10675e-7 0.6706766 0 0.7417496 0.670677 -0.74175 -2.68471e-7 0.6706766 0 -0.74175 0.6706765 -0.5244975 0.5244957 0.6706764 0 -0.8019225 0.5974283 -0.5244966 -0.5244963 0.6706765 0.5244963 -0.5244964 0.6706767 0.8660255 0.5 0 0 -1 0 -0.8660255 0.5 0 0.8660255 0.5 0 -0.8660255 0.5 0</float_array>
          <technique_common>
            <accessor source="#Lamp-mesh-normals-array" count="37" stride="3">
              <param name="X" type="float"/>
              <param name="Y" type="float"/>
              <param name="Z" type="float"/>
            </accessor>
          </technique_common>
        </source>
        <source id="Lamp-mesh-map-0">
          <float_array id="Lamp-mesh-map-0-array" count="396">0.8433442 0.2360451 0.9121782 0.4659327 0.9121781 0.2360451 0.4436964 0.9953024 0.2360452 0.9264684 0.4659327 0.9264684 0.2360452 0.9953024 0.006157696 0.9264685 0.2360452 0.9264684 0.02839416 0.8455317 0.2360453 0.9143655 0.006157755 0.9143657 0.2360453 0.9143655 0.4436964 0.8455316 0.4659329 0.9143655 0.924281 0.4659327 0.9931149 0.2360453 0.9242809 0.2360452 0.4461213 0.6072382 0.6614879 0.7427899 0.4461213 0.8319982 0.9242809 0.2360452 0.9931149 0.02839404 0.9242809 0.006157696 0.9121781 0.006157577 0.8433442 0.2360451 0.9121781 0.2360451 0.6059314 0.4299829 0.429983 0.005206108 0.005206227 0.1811544 0.6050507 0.9909275 0.7406026 0.7755603 0.8298107 0.9909274 0.7733731 0.7427899 0.9887399 0.6072381 0.98874 0.8319982 0.7406027 0.6636752 0.6050506 0.4483088 0.8298106 0.4483088 0.4461213 0.8319982 0.6942583 0.7755603 0.6050507 0.9909275 0.6050506 0.4483088 0.6614879 0.6964457 0.4461213 0.6072382 0.7733731 0.6964456 0.8298106 0.4483088 0.9887399 0.6072381 0.138744 0.7918669 0.1097031 0.6136388 0.1387441 0.6136388 0.005048811 0.06089711 0.02727586 0.007236301 0.08093661 0.02946335 0.1958304 0.6593638 0.3740586 0.6303229 0.1958304 0.6165472 0.04905736 0.6956179 0.07809835 0.5173897 0.091874 0.6956179 0.1815605 0.7918669 0.1387441 0.6136388 0.1677851 0.6136388 0.4331206 0.7809295 0.2548924 0.738113 0.2548924 0.7671539 0.4331206 0.6952964 0.2548924 0.738113 0.4331206 0.738113 0.1958304 0.7021803 0.3740586 0.6593639 0.1958304 0.6593638 0.04905736 0.6956179 0.02001637 0.5173897 0.04905736 0.5173897 0.7406026 0.7755603 0.98874 0.8319982 0.8298107 0.9909274 0.6699616 0.315777 0.6516257 0.01631098 0.6699616 0.01631098 0.6713799 0.315777 0.6502075 0.01631098 0.6713799 0.01631098 0.6516257 0.315777 0.6699616 0.01631098 0.6516257 0.01631098 0.8433442 0.2360451 0.8433442 0.4436963 0.9121782 0.4659327 0.4436964 0.9953024 0.2360452 0.9953024 0.2360452 0.9264684 0.2360452 0.9953024 0.02839404 0.9953024 0.006157696 0.9264685 0.02839416 0.8455317 0.2360453 0.8455316 0.2360453 0.9143655 0.2360453 0.9143655 0.2360453 0.8455316 0.4436964 0.8455316 0.924281 0.4659327 0.9931149 0.4436964 0.9931149 0.2360453 0.4461213 0.6072382 0.6614879 0.6964457 0.6614879 0.7427899 0.9242809 0.2360452 0.9931149 0.2360453 0.9931149 0.02839404 0.9121781 0.006157577 0.8433442 0.02839398 0.8433442 0.2360451 0.6059314 0.4299829 0.6059314 0.1811544 0.429983 0.005206108 0.429983 0.005206108 0.1811545 0.005206108 0.005206227 0.1811544 0.005206227 0.1811544 0.005206227 0.429983 0.1811546 0.6059313 0.1811546 0.6059313 0.4299831 0.6059313 0.005206227 0.1811544 0.4299831 0.6059313 0.6059314 0.4299829 0.005206227 0.1811544 0.6050507 0.9909275 0.6942583 0.7755603 0.7406026 0.7755603 0.7733731 0.7427899 0.7733731 0.6964456 0.9887399 0.6072381 0.7406027 0.6636752 0.6942583 0.6636752 0.6050506 0.4483088 0.4461213 0.8319982 0.6614879 0.7427899 0.6942583 0.7755603 0.6050506 0.4483088 0.6942583 0.6636752 0.6614879 0.6964457 0.7733731 0.6964456 0.7406027 0.6636752 0.8298106 0.4483088 0.138744 0.7918669 0.09592741 0.7918669 0.1097031 0.6136388 0.05870962 0.0831241 0.02727586 0.08312416 0.005048811 0.06089711 0.005048811 0.06089711 0.005048811 0.02946335 0.02727586 0.007236301 0.02727586 0.007236301 0.05870962 0.007236301 0.08093661 0.02946335 0.08093661 0.02946335 0.08093661 0.06089711 0.05870962 0.0831241 0.05870962 0.0831241 0.005048811 0.06089711 0.08093661 0.02946335 0.1958304 0.6593638 0.3740586 0.6593639 0.3740586 0.6303229 0.04905736 0.6956179 0.04905736 0.5173897 0.07809835 0.5173897 0.1815605 0.7918669 0.138744 0.7918669 0.1387441 0.6136388 0.4331206 0.7809295 0.4331206 0.738113 0.2548924 0.738113 0.4331206 0.6952964 0.2548924 0.709072 0.2548924 0.738113 0.1958304 0.7021803 0.3740586 0.6884049 0.3740586 0.6593639 0.04905736 0.6956179 0.006240785 0.6956179 0.02001637 0.5173897 0.7406026 0.7755603 0.7733731 0.7427899 0.98874 0.8319982 0.6699616 0.315777 0.6516257 0.315777 0.6516257 0.01631098 0.6713799 0.315777 0.6502075 0.315777 0.6502075 0.01631098 0.6516257 0.315777 0.6699616 0.315777 0.6699616 0.01631098</float_array>
          <technique_common>
            <accessor source="#Lamp-mesh-map-0-array" count="198" stride="2">
              <param name="S" type="float"/>
              <param name="T" type="float"/>
            </accessor>
          </technique_common>
        </source>
        <vertices id="Lamp-mesh-vertices">
          <input semantic="POSITION" source="#Lamp-mesh-positions"/>
        </vertices>
        <triangles material="Lamp-material" count="66">
          <input semantic="VERTEX" source="#Lamp-mesh-vertices" offset="0"/>
          <input semantic="NORMAL" source="#Lamp-mesh-normals" offset="1"/>
          <input semantic="TEXCOORD" source="#Lamp-mesh-map-0" offset="2" set="0"/>
          <p>1 0 0 2 1 1 0 2 2 3 3 3 4 4 4 2 1 5 5 5 6 6 6 7 4 4 8 7 7 9 8 8 10 6 6 11 8 8 12 11 9 13 10 10 14 10 10 15 13 11 16 12 12 17 11 9 18 22 13 19 13 11 20 12 12 21 15 14 22 14 15 23 14 15 24 1 0 25 0 2 26 14 15 27 2 1 28 6 6 29 15 14 30 17 16 31 1 0 32 16 17 33 5 5 34 3 3 35 19 18 36 9 19 37 7 7 38 13 11 39 23 20 40 15 14 41 9 19 42 21 21 43 11 9 44 18 22 45 7 7 46 5 5 47 18 22 48 24 23 49 26 24 50 25 25 51 30 26 52 28 27 53 22 13 54 31 28 55 23 20 56 20 29 57 29 30 58 21 21 59 19 18 60 26 24 61 27 31 62 16 17 63 25 25 64 24 23 65 23 20 66 25 25 67 17 16 68 21 21 69 30 26 70 22 13 71 20 29 72 27 31 73 28 27 74 17 16 75 3 3 76 1 0 77 33 32 78 34 32 79 32 32 80 35 33 81 36 33 82 34 33 83 37 34 84 32 34 85 36 34 86 1 0 87 3 3 88 2 1 89 3 3 90 5 5 91 4 4 92 5 5 93 7 7 94 6 6 95 7 7 96 9 19 97 8 8 98 8 8 99 9 19 100 11 9 101 10 10 102 11 9 103 13 11 104 11 9 105 21 21 106 22 13 107 12 12 108 13 11 109 15 14 110 14 15 111 15 14 112 1 0 113 14 15 114 0 2 115 2 1 116 2 1 117 4 4 118 6 6 119 6 6 120 8 8 121 10 10 122 10 10 123 12 12 124 6 6 125 12 12 126 14 15 127 6 6 128 15 14 129 23 20 130 17 16 131 16 17 132 18 22 133 5 5 134 19 18 135 20 29 136 9 19 137 13 11 138 22 13 139 23 20 140 9 19 141 20 29 142 21 21 143 18 22 144 19 18 145 7 7 146 18 22 147 16 17 148 24 23 149 26 24 150 24 23 151 25 25 152 25 25 153 31 28 154 30 26 155 30 26 156 29 30 157 28 27 158 28 27 159 27 31 160 26 24 161 26 24 162 25 25 163 28 27 164 22 13 165 30 26 166 31 28 167 20 29 168 28 27 169 29 30 170 19 18 171 18 22 172 26 24 173 16 17 174 17 16 175 25 25 176 23 20 177 31 28 178 25 25 179 21 21 180 29 30 181 30 26 182 20 29 183 19 18 184 27 31 185 17 16 186 16 17 187 3 3 188 33 35 189 35 35 190 34 35 191 35 33 192 37 33 193 36 33 194 37 36 195 33 36 196 32 36 197</p>
        </triangles>
      </mesh>
    </geometry>
  </library_geometries>
  <library_visual_scenes>
    <visual_scene id="Scene" name="Scene">
      <node id="Lamp" name="Lamp" type="NODE">
        <matrix sid="transform">-0.6698056 2.1825e-7 0 0 -2.1825e-7 -0.6698056 0 0 0 0 0.6698056 0 0 0 0 1</matrix>
        <instance_geometry url="#Lamp-mesh" name="Lamp">
          <bind_material>
            <technique_common>
              <instance_material symbol="Lamp-material" target="#Lamp-material">
                <bind_vertex_input semantic="UVMap" input_semantic="TEXCOORD" input_set="0"/>
              </instance_material>
            </technique_common>
          </bind_material>
        </instance_geometry>
      </node>
    </visual_scene>
  </library_visual_scenes>
  <scene>
    <instance_visual_scene url="#Scene"/>
  </scene>
</COLLADA>