<?xml version="1.0" encoding="utf-8"?>
<COLLADA xmlns="http://www.collada.org/2005/11/COLLADASchema" version="1.4.1" xmlns:xsi="http://www.w3.org/2001/XMLSchema-instance">
  <asset>
    <contributor>
      <author>Blender User</author>
      <authoring_tool>Blender 4.0.1 commit date:2023-11-16, commit time:16:40, hash:d0dd92834a08</authoring_tool>
    </contributor>
    <created>2023-11-28T13:05:28</created>
    <modified>2023-11-28T13:05:28</modified>
    <unit name="meter" meter="1"/>
    <up_axis>Z_UP</up_axis>
  </asset>
  <library_effects>
    <effect id="BarkDecidious-effect">
      <profile_COMMON>
        <newparam sid="BarkDecidious_jpg-surface">
          <surface type="2D">
            <init_from>BarkDecidious_jpg</init_from>
          </surface>
        </newparam>
        <newparam sid="BarkDecidious_jpg-sampler">
          <sampler2D>
            <source>BarkDecidious_jpg-surface</source>
          </sampler2D>
        </newparam>
        <technique sid="common">
          <lambert>
            <emission>
              <color sid="emission">0 0 0 1</color>
            </emission>
            <diffuse>
              <texture texture="BarkDecidious_jpg-sampler" texcoord="UVMap"/>
            </diffuse>
            <index_of_refraction>
              <float sid="ior">1.45</float>
            </index_of_refraction>
          </lambert>
        </technique>
      </profile_COMMON>
    </effect>
    <effect id="Branch-effect">
      <profile_COMMON>
        <newparam sid="Branch_png-surface">
          <surface type="2D">
            <init_from>Branch_png</init_from>
          </surface>
        </newparam>
        <newparam sid="Branch_png-sampler">
          <sampler2D>
            <source>Branch_png-surface</source>
          </sampler2D>
        </newparam>
        <technique sid="common">
          <lambert>
            <emission>
              <color sid="emission">0 0 0 1</color>
            </emission>
            <diffuse>
              <texture texture="Branch_png-sampler" texcoord="UVMap"/>
            </diffuse>
            <index_of_refraction>
              <float sid="ior">1.45</float>
            </index_of_refraction>
          </lambert>
        </technique>
      </profile_COMMON>
    </effect>
  </library_effects>
  <library_images>
    <image id="BarkDecidious_jpg" name="BarkDecidious_jpg">
      <init_from>BarkDecidious.jpg</init_from>
    </image>
    <image id="Branch_png" name="Branch_png">
      <init_from>Branch.png</init_from>
    </image>
  </library_images>
  <library_materials>
    <material id="BarkDecidious-material" name="BarkDecidious">
      <instance_effect url="#BarkDecidious-effect"/>
    </material>
    <material id="Branch-material" name="Branch">
      <instance_effect url="#Branch-effect"/>
    </material>
  </library_materials>
  <library_geometries>
    <geometry id="Tree_02-mesh" name="Tree_02">
      <mesh>
        <source id="Tree_02-mesh-positions">
          <float_array id="Tree_02-mesh-positions-array" count="1473">0 0.2609752 -0.1641827 0 0.1641827 0.1641827 0.2579205 0.07358503 -0.1641827 0.1561471 0.05073523 0.1641827 0.1594036 -0.2296186 -0.1641827 0.09650421 -0.1328266 0.1641827 -0.1594036 -0.2296186 -0.1641827 -0.09650421 -0.1328266 0.1641827 -0.2579205 0.07358503 -0.1641827 -0.1561471 0.05073523 0.1641827 0.1803222 0.0915445 1.565654 0.05966109 0.1828358 1.576754 0.1311374 -0.05190598 1.570035 -0.0263884 -0.04907405 1.590754 -0.06827825 0.09224575 1.59487 0.2870698 0.08740431 1.814024 0.2239539 0.148608 1.846294 0.253719 0.001096189 1.828498 0.1699913 0.008958518 1.869713 0.1515955 0.1001258 1.880712 0.6831826 -0.02099019 2.309754 0.6256449 0.02590292 2.323163 0.6574292 -0.09166783 2.315303 0.5839749 -0.08845585 2.332141 0.5643311 -0.01579308 2.336998 0.05236726 0.1805554 1.404061 -0.07534998 0.0902962 1.413928 0.1269034 -0.06179893 1.398164 0.1773667 0.08655542 1.394318 0.8277937 0.009510695 3.640075 -0.02928411 -0.05948698 1.410283 -0.3258708 -0.005378901 1.675486 -0.2830173 -0.1247402 1.672103 -0.4171743 -0.04110026 1.567388 -0.3723112 -0.1642184 1.56409 -0.4797691 -0.09996652 1.950855 -0.4424332 -0.1944193 1.946065 -0.5817155 -0.1432316 1.913237 -0.5426652 -0.2406266 1.908185 -0.704504 -0.3739838 3.524556 0.07846838 -0.01758533 1.71972 0.04927003 0.09756016 1.726709 0.233696 0.08947443 1.689839 0.1924282 -0.02540487 1.699266 0.1418075 0.1657219 1.711524 -0.1812218 -0.2225952 1.948426 -0.1502207 -0.3228784 1.911787 -0.04935413 -0.205404 1.956621 -0.02862924 -0.2876778 1.92745 -0.09655666 -0.4882965 2.623786 -0.08338409 -0.5752573 2.602481 0.01148301 -0.4899359 2.633094 0.01848655 -0.5606375 2.616194 -0.1270905 -0.5778527 3.78354 0.1839026 0.404165 2.044343 0.1434683 0.369924 2.068731 0.053083 0.408775 2.008859 0.1112622 0.4490481 1.994491 -0.1895312 0.7320908 3.379976 0.6646956 0.9047979 2.320732 -1.44817 -0.03953081 2.32661 0.3914111 0.9938642 5.000891 -1.221169 0.2731342 5.005377 -0.08808618 0.2478577 2.263628 -0.258573 0.6615149 4.994969 0.8514041 0.4960441 3.765456 -1.261462 -0.4482846 3.771334 0.09862226 -0.160896 3.708351 -0.8699966 -0.3177451 1.713906 1.435583 0.2161967 1.778987 -1.361037 1.286612 4.502732 0.9445425 1.820554 4.567813 0.04256033 0.1257609 1.576113 -0.4161387 1.545156 4.501426 -1.208247 0.9576483 2.842757 1.097333 1.49159 2.907838 -0.2956902 1.401154 2.704963 0.7089 -0.4671487 1.859961 -0.5544745 1.347244 1.421259 -0.3206011 0.02533215 4.813155 -1.583975 1.839725 4.374453 -0.03276324 0.09208709 1.57666 -0.8797041 0.7417432 4.614602 -0.2594206 -0.5886707 3.198802 -1.522795 1.225722 2.7601 -1.001084 -0.02943497 2.915502 0.08165872 1.039092 1.53544 -0.6979644 -1.106768 1.862484 0.4182084 1.703116 4.559595 -0.3614147 -0.442744 4.886638 0.03758633 0.04427284 1.590749 0.143943 0.7987885 4.680945 0.8067896 1.174793 2.954041 0.02716642 -0.9710665 3.281084 0.7627173 0.1799746 3.009349 -0.9552162 0.6246247 2.250721 0.8734118 -0.5993969 2.604024 -0.6867287 1.712453 4.787594 0.7089155 0.778256 5.057241 -0.02291685 0.3007379 2.25878 -0.08752495 1.350556 4.880898 -0.5544073 1.738265 3.431113 1.274221 0.5142439 3.784416 0.377892 1.414379 3.439172 -0.09723383 -0.5695701 2.53509 0.5105295 1.557312 2.179542 -0.9316419 0.4984976 4.992802 -0.4677851 2.121776 4.721441 -0.09494572 0.3295108 2.248073 -0.7726476 1.171243 4.86249 -1.148939 0.01399892 3.704066 -0.5411754 2.140882 3.348519 -1.146651 0.9130799 3.417049 0.6646956 0.9047979 2.320732 -1.44817 -0.03953081 2.32661 0.3914111 0.9938642 5.000891 -1.221169 0.2731342 5.005377 -0.08808618 0.2478577 2.263628 -0.258573 0.6615149 4.994969 0.8514041 0.4960441 3.765456 -1.261462 -0.4482846 3.771334 0.09862226 -0.160896 3.708351 -0.8699966 -0.3177451 1.713906 1.435583 0.2161967 1.778987 -1.361037 1.286612 4.502732 0.9445425 1.820554 4.567813 0.04256033 0.1257609 1.576113 -0.4161387 1.545156 4.501426 -1.208247 0.9576483 2.842757 1.097333 1.49159 2.907838 -0.2956902 1.401154 2.704963 0.7089 -0.4671487 1.859961 -0.5544745 1.347244 1.421259 -0.3206011 0.02533215 4.813155 -1.583975 1.839725 4.374453 -0.03276324 0.09208709 1.57666 -0.8797041 0.7417432 4.614602 -0.2594206 -0.5886707 3.198802 -1.522795 1.225722 2.7601 -1.001084 -0.02943497 2.915502 0.08165872 1.039092 1.53544 -0.6979644 -1.106768 1.862484 0.4182084 1.703116 4.559595 -0.3614147 -0.442744 4.886638 0.03758633 0.04427284 1.590749 0.143943 0.7987885 4.680945 0.8067896 1.174793 2.954041 0.02716642 -0.9710665 3.281084 0.7627173 0.1799746 3.009349 -0.9552162 0.6246247 2.250721 0.8734118 -0.5993969 2.604024 -0.6867287 1.712453 4.787594 0.7089155 0.778256 5.057241 -0.02291685 0.3007379 2.25878 -0.08752495 1.350556 4.880898 -0.5544073 1.738265 3.431113 1.274221 0.5142439 3.784416 0.377892 1.414379 3.439172 -0.09723383 -0.5695701 2.53509 0.5105295 1.557312 2.179542 -0.9316419 0.4984976 4.992802 -0.4677851 2.121776 4.721441 -0.09494572 0.3295108 2.248073 -0.7726476 1.171243 4.86249 -1.148939 0.01399892 3.704066 -0.5411754 2.140882 3.348519 -1.146651 0.9130799 3.417049 -0.5006133 0.0498445 3.500633 1.497871 -1.274782 2.751097 0.8139612 0.4508952 5.544447 2.339243 -0.5600868 4.972387 0.4110501 -0.2601006 3.000719 1.454822 0.06455111 5.283463 0.3203446 0.8108138 4.365434 2.318828 -0.5138166 3.6159 1.232007 0.5008647 3.865521 1.054976 -0.7727434 2.180956 -0.7430956 0.9656582 2.760929 1.485639 -1.372162 5.176375 -0.312432 0.3662395 5.756349 0.1058174 -0.2551335 2.423829 0.7081083 -0.6888708 5.416345 0.8751083 -1.483557 3.748096 -0.9229626 0.2548447 4.328069 -0.07404917 -0.9659429 3.990968 0.2328988 0.7286568 2.351885 -0.4506053 -1.492705 2.96872 1.861198 0.3153192 4.766973 1.177693 -1.906042 5.383809 0.1772215 -0.3022615 2.397356 1.617832 -0.6210135 4.985785 1.530052 0.2931389 3.19692 0.8465473 -1.928223 3.813755 1.474374 -0.7377834 3.242392 -0.5818721 -0.7364434 2.933544 1.570623 -0.1477212 1.845391 0.09788608 -0.03137123 5.631562 2.250381 0.5573508 4.543409 0.1730585 -0.210657 2.386496 0.9634463 0.2599884 5.165699 -0.4957526 0.1877431 4.149326 1.656744 0.7764653 3.061172 0.2591791 0.7135297 3.602278 0.6847445 -1.230331 3.130668 0.557454 1.137084 2.849705 0.8889398 -0.9444854 5.704531 0.7917893 0.862369 5.490095 0.3305408 -0.2335809 3.034282 0.8094565 -0.1961839 5.618584 0.1773303 -1.19191 4.711205 0.05003905 1.175504 4.430242 -0.1768739 -0.19516 4.614819 1.116001 0.2537421 2.72388 -0.9278048 -0.4821599 3.763234 1.992348 -0.4346626 5.122622 0.4324754 -0.9963169 5.915877 0.3507226 -0.3152564 3.036342 1.358764 -0.7011071 5.434808 1.89142 -0.6883156 3.847496 -0.1523865 -1.424218 4.88685 1.126141 -1.25731 4.159958 -0.5006133 0.0498445 3.500633 1.497871 -1.274782 2.751097 0.8139612 0.4508952 5.544447 2.339243 -0.5600868 4.972387 0.4110501 -0.2601006 3.000719 1.454822 0.06455111 5.283463 0.3203446 0.8108138 4.365434 2.318828 -0.5138166 3.6159 1.232007 0.5008647 3.865521 1.054976 -0.7727434 2.180956 -0.7430956 0.9656582 2.760929 1.485639 -1.372162 5.176375 -0.312432 0.3662395 5.756349 0.1058174 -0.2551335 2.423829 0.7081083 -0.6888708 5.416345 0.8751083 -1.483557 3.748096 -0.9229626 0.2548447 4.328069 -0.07404917 -0.9659429 3.990968 0.2328988 0.7286568 2.351885 -0.4506053 -1.492705 2.96872 1.861198 0.3153192 4.766973 1.177693 -1.906042 5.383809 0.1772215 -0.3022615 2.397356 1.617832 -0.6210135 4.985785 1.530052 0.2931389 3.19692 0.8465473 -1.928223 3.813755 1.474374 -0.7377834 3.242392 -0.5818721 -0.7364434 2.933544 1.570623 -0.1477212 1.845391 0.09788608 -0.03137123 5.631562 2.250381 0.5573508 4.543409 0.1730585 -0.210657 2.386496 0.9634463 0.2599884 5.165699 -0.4957526 0.1877431 4.149326 1.656744 0.7764653 3.061172 0.2591791 0.7135297 3.602278 0.6847445 -1.230331 3.130668 0.557454 1.137084 2.849705 0.8889398 -0.9444854 5.704531 0.7917893 0.862369 5.490095 0.3305408 -0.2335809 3.034282 0.8094565 -0.1961839 5.618584 0.1773303 -1.19191 4.711205 0.05003905 1.175504 4.430242 -0.1768739 -0.19516 4.614819 1.116001 0.2537421 2.72388 -0.9278048 -0.4821599 3.763234 1.992348 -0.4346626 5.122622 0.4324754 -0.9963169 5.915877 0.3507226 -0.3152564 3.036342 1.358764 -0.7011071 5.434808 1.89142 -0.6883156 3.847496 -0.1523865 -1.424218 4.88685 1.126141 -1.25731 4.159958 -1.404116 -0.3016726 2.876202 0.8558149 -1.315388 3.295094 -1.453033 0.04057806 5.314766 0.27179 -0.7331108 5.634473 -0.3323833 -0.4575307 2.941069 -0.7230062 -0.2444649 5.432614 -1.290774 0.4573445 4.064467 0.969156 -0.556375 4.48336 -0.2190421 0.3014823 4.129334 0.7158141 -0.8122398 2.587633 -1.34752 0.6496413 2.143759 -0.4295114 -1.651294 5.326525 -2.492846 -0.1894131 4.88265 -0.2810142 -0.4299458 2.290997 -1.305949 -1.085755 5.12392 -0.163082 -1.68915 3.792667 -2.226416 -0.2272691 3.348793 -1.15991 -1.306852 3.496031 -0.2811429 0.5641567 2.321478 -0.8532196 -1.769295 2.420692 -0.1462358 0.09952133 5.223334 -0.7183136 -2.23393 5.322549 -0.2004618 -0.4659978 2.306227 -0.3281546 -0.8750292 5.254669 0.4155237 0.1949354 3.723154 -0.156554 -2.138516 3.822369 0.4962044 -0.8352232 3.707904 -1.055004 -1.032585 2.337379 1.232617 -0.1037518 2.598086 -2.025882 -0.5246551 4.990284 0.2617383 0.4041779 5.25099 -0.2116041 -0.3748059 2.296923 -1.098958 -0.09435629 5.072556 -1.765182 -0.2284851 3.42767 0.5224402 0.7003479 3.688377 -0.9217808 0.429294 3.387215 -0.03077757 -1.399283 3.176183 -0.3350269 0.9553008 2.924865 -1.270811 -1.346703 5.458228 -1.503019 0.4503586 5.266417 -0.4212763 -0.4435694 2.926417 -1.401239 -0.60711 5.359995 -1.299977 -1.573066 4.232579 -1.604227 0.7815179 3.981261 -1.690477 -0.6173523 3.982813 0.3274204 0.1563265 3.100656 -1.821992 -0.9011545 2.854264 -0.1158522 -0.662473 5.576323 -1.756326 -1.469563 5.388272 -0.3935502 -0.5222937 2.937196 -0.7712264 -1.027199 5.490644 0.5151146 -0.7992945 4.443347 -1.634299 -1.856776 4.196955 -0.2058566 -1.477911 4.279887 -1.404116 -0.3016726 2.876202 0.8558149 -1.315388 3.295094 -1.453033 0.04057806 5.314766 0.27179 -0.7331108 5.634473 -0.3323833 -0.4575307 2.941069 -0.7230062 -0.2444649 5.432614 -1.290774 0.4573445 4.064467 0.969156 -0.556375 4.48336 -0.2190421 0.3014823 4.129334 0.7158141 -0.8122398 2.587633 -1.34752 0.6496413 2.143759 -0.4295114 -1.651294 5.326525 -2.492846 -0.1894131 4.88265 -0.2810142 -0.4299458 2.290997 -1.305949 -1.085755 5.12392 -0.163082 -1.68915 3.792667 -2.226416 -0.2272691 3.348793 -1.15991 -1.306852 3.496031 -0.2811429 0.5641567 2.321478 -0.8532196 -1.769295 2.420692 -0.1462358 0.09952133 5.223334 -0.7183136 -2.23393 5.322549 -0.2004618 -0.4659978 2.306227 -0.3281546 -0.8750292 5.254669 0.4155237 0.1949354 3.723154 -0.156554 -2.138516 3.822369 0.4962044 -0.8352232 3.707904 -1.055004 -1.032585 2.337379 1.232617 -0.1037518 2.598086 -2.025882 -0.5246551 4.990284 0.2617383 0.4041779 5.25099 -0.2116041 -0.3748059 2.296923 -1.098958 -0.09435629 5.072556 -1.765182 -0.2284851 3.42767 0.5224402 0.7003479 3.688377 -0.9217808 0.429294 3.387215 -0.03077757 -1.399283 3.176183 -0.3350269 0.9553008 2.924865 -1.270811 -1.346703 5.458228 -1.503019 0.4503586 5.266417 -0.4212763 -0.4435694 2.926417 -1.401239 -0.60711 5.359995 -1.299977 -1.573066 4.232579 -1.604227 0.7815179 3.981261 -1.690477 -0.6173523 3.982813 0.3274204 0.1563265 3.100656 -1.821992 -0.9011545 2.854264 -0.1158522 -0.662473 5.576323 -1.756326 -1.469563 5.388272 -0.3935502 -0.5222937 2.937196 -0.7712264 -1.027199 5.490644 0.5151146 -0.7992945 4.443347 -1.634299 -1.856776 4.196955 -0.2058566 -1.477911 4.279887 -0.5339295 -0.4972713 4.333635 1.001486 1.485016 4.486655 -1.188852 0.1175022 6.626942 -0.01699149 1.630422 6.74373 -0.0978778 0.4892688 4.216553 -0.7310031 0.7639097 6.65161 -1.379199 0.0739749 5.313494 0.15622 2.056261 5.466516 -0.9431439 1.060514 5.196414 0.5751642 1.306568 3.738547 -1.329532 -0.3887274 3.439259 0.7035841 0.6763029 6.755762 -1.201112 -1.018993 6.456474 -0.02586299 0.3900605 3.575487 -0.05087047 -0.06048089 6.625475 1.011653 0.5541155 5.23415 -0.8930431 -1.14118 4.934862 0.4106222 -0.3623908 5.07109 -0.9765796 0.6364815 3.418696 1.074851 -0.4401381 4.062616 -0.872223 1.339912 6.273368 1.179207 0.2632911 6.917288 0.0287494 0.460807 3.581215 0.00159502 0.9415239 6.521469 -0.6138614 1.535749 4.701708 1.437569 0.4591279 5.345629 0.3914715 1.360073 4.864228 0.3282876 -0.4724619 3.883737 0.0418204 1.965998 3.515285 -0.7667929 -0.6346779 6.531942 -1.05326 1.803782 6.163489 -0.05997157 0.4700663 3.55735 -0.9312179 0.3608091 6.350051 -0.7746971 -0.6886668 4.921207 -1.061164 1.749794 4.552754 -1.162956 0.2538623 4.59482 0.8518915 0.6021872 4.560545 -1.442028 0.8230509 3.936888 0.164102 -0.01093149 6.989373 -1.58666 0.1576358 6.513386 -0.1338307 0.4054918 4.217144 -0.563569 0.0210576 6.781692 0.5301814 -0.3835952 5.857378 -1.763738 -0.1627324 5.233721 -0.4555411 -0.5802916 5.513977 -0.5208958 1.29588 4.12675 -0.07558906 -1.040079 4.50616 -0.1838073 1.268799 6.750009 0.1560589 -0.5140497 7.039582 -0.05259376 0.4151917 4.236865 -0.006388664 0.5438625 6.863455 0.2673361 1.560965 5.561909 0.7126428 -0.7749943 5.941318 0.7356342 0.6802772 5.672022 -0.5339295 -0.4972713 4.333635 1.001486 1.485016 4.486655 -1.188852 0.1175022 6.626942 -0.01699149 1.630422 6.74373 -0.0978778 0.4892688 4.216553 -0.7310031 0.7639097 6.65161 -1.379199 0.0739749 5.313494 0.15622 2.056261 5.466516 -0.9431439 1.060514 5.196414 0.5751642 1.306568 3.738547 -1.329532 -0.3887274 3.439259 0.7035841 0.6763029 6.755762 -1.201112 -1.018993 6.456474 -0.02586299 0.3900605 3.575487 -0.05087047 -0.06048089 6.625475 1.011653 0.5541155 5.23415 -0.8930431 -1.14118 4.934862 0.4106222 -0.3623908 5.07109 -0.9765796 0.6364815 3.418696 1.074851 -0.4401381 4.062616 -0.872223 1.339912 6.273368 1.179207 0.2632911 6.917288 0.0287494 0.460807 3.581215 0.00159502 0.9415239 6.521469 -0.6138614 1.535749 4.701708 1.437569 0.4591279 5.345629 0.3914715 1.360073 4.864228 0.3282876 -0.4724619 3.883737 0.0418204 1.965998 3.515285 -0.7667929 -0.6346779 6.531942 -1.05326 1.803782 6.163489 -0.05997157 0.4700663 3.55735 -0.9312179 0.3608091 6.350051 -0.7746971 -0.6886668 4.921207 -1.061164 1.749794 4.552754 -1.162956 0.2538623 4.59482 0.8518915 0.6021872 4.560545 -1.442028 0.8230509 3.936888 0.164102 -0.01093149 6.989373 -1.58666 0.1576358 6.513386 -0.1338307 0.4054918 4.217144 -0.563569 0.0210576 6.781692 0.5301814 -0.3835952 5.857378 -1.763738 -0.1627324 5.233721 -0.4555411 -0.5802916 5.513977 -0.5208958 1.29588 4.12675 -0.07558906 -1.040079 4.50616 -0.1838073 1.268799 6.750009 0.1560589 -0.5140497 7.039582 -0.05259376 0.4151917 4.236865 -0.006388664 0.5438625 6.863455 0.2673361 1.560965 5.561909 0.7126428 -0.7749943 5.941318 0.7356342 0.6802772 5.672022</float_array>
          <technique_common>
            <accessor source="#Tree_02-mesh-positions-array" count="491" stride="3">
              <param name="X" type="float"/>
              <param name="Y" type="float"/>
              <param name="Z" type="float"/>
            </accessor>
          </technique_common>
        </source>
        <source id="Tree_02-mesh-normals">
          <float_array id="Tree_02-mesh-normals-array" count="1473">0 0.9591959 0.2827425 0.9396541 0.3075721 0.1498319 0.9093515 0.2863803 0.3017718 0.5720556 -0.7964918 0.1958402 0.5504024 -0.7663426 0.3313253 -0.5504024 -0.7663426 0.3313253 0.9550495 0.2953598 -0.02536082 0.5102095 -0.8599967 0.009602665 0.5784343 -0.8150994 0.03204697 -0.5782276 -0.7863972 0.2173298 -0.9093515 0.2863803 0.3017718 -0.9348633 0.3019353 0.1867238 -0.6826657 0.5296285 0.5034494 -0.5586391 -0.7093848 0.4297623 -0.6015782 -0.1842598 0.7772722 -0.7873777 0.5731477 -0.2270202 -0.05825144 0.9945192 0.08682447 0.01421535 0.9998089 -0.01342177 0.9257885 0.3155497 -0.2081925 -0.3354747 -0.9204776 -0.2004439 0.004894495 -0.9980771 0.06179153 -0.2731885 -0.7758616 -0.5686887 -0.8153146 0.3358529 0.4716619 0.8903731 0.2577803 -0.3752136 0.4413442 -0.8541552 -0.2750169 0.5407729 -0.8354974 -0.09751385 0.184885 0.9236189 -0.3357764 -0.9829873 0.1307244 -0.1290238 0.0690357 0.8689845 -0.4900001 0.3440116 -0.8436548 0.4121925 0.692183 0.7197827 0.05287253 0.8394166 0.2717394 -0.470678 0.1620318 0.986586 0.01984608 0.154095 0.0355876 0.987415 0.9095275 0.2171853 -0.3543871 0.5419856 -0.7973605 -0.2654582 -0.4974307 -0.8474159 0.1856048 -0.007057309 0.9894325 0.1448225 0.6126331 -0.5993559 0.5152217 -0.3951604 -0.8855854 -0.2441038 -0.5402799 0.7693555 0.3408663 -0.7233048 0.4303432 -0.5400324 0.02654391 0.8585829 0.5119873 -0.9225905 0.3462641 -0.1700824 -0.1191984 -0.1263209 0.984802 0.2637672 0.9096575 0.3208586 0.8633266 -0.4487597 0.2308292 -0.9123482 0.3767238 0.1603121 0.5234156 0.6058154 0.5991861 -0.4949907 -0.7393516 -0.4564468 -0.7858037 0.5911171 0.1819153 0.8069538 -0.5442228 -0.2294499 0.7715026 -0.6289184 -0.09615385 0.7261127 0.6642738 0.1774843 -0.07508784 -0.0424295 0.9962739 -0.531115 -0.8333468 -0.1531346 0.1628632 -0.7975601 0.5808387 -0.2183852 0.2274925 0.9489758 0.9587635 0.274568 0.07338416 0.4505475 -0.8849314 0.1179126 0.2627254 -0.8023982 0.5358474 0.2099568 -0.9732975 0.09279137 0.6224534 -0.770254 0.1387822 0.3821007 -0.7503695 0.539393 0.428604 -0.8533424 -0.2968256 0.6425272 -0.7115486 -0.2843544 0.1850211 -0.9390926 -0.2896075 -0.2281578 0.9595408 -0.1650018 -0.02378076 0.88479 -0.4653828 -0.2214826 0.8557758 -0.4675396 -0.4120729 0.7861372 -0.4606347 -0.1632378 0.6292589 -0.7598596 -0.3810353 0.5540574 -0.7401571 0.06403988 0.6708868 -0.7387895 -0.8393288 -0.4876545 0.240251 -0.8885536 -0.4298508 -0.1603148 -0.7775323 -0.6106216 -0.1502825 -0.7510812 -0.5948075 0.286498 -0.5770281 -0.811588 -0.09145265 -0.6043344 -0.6252247 -0.4938361 -0.4503925 -0.7990759 -0.3982771 -0.7345418 -0.3753083 -0.5653248 0.9007758 -0.2594051 0.3482987 0.8619391 -0.5064334 0.02421623 0.954419 -0.2980698 -0.01545816 0.9964212 -0.08217453 -0.01980602 0.891051 -0.06445491 -0.4493036 0.8500688 -0.340301 -0.401968 0.7568766 -0.5623037 -0.3330952 0.5300088 0.7902573 -0.3075453 0.6005604 0.7783264 0.1831266 0.7311694 0.6142128 -0.2968736 0.3436969 0.8843738 -0.3158408 0.488799 0.8591955 0.1511908 0.4701449 0.5567071 -0.6848657 0.2371909 0.6651295 -0.708056 0.6614003 0.4203571 -0.621168 -0.9344418 0.3238477 0.148126 -0.8629404 0.3733865 -0.3404651 -0.934149 0.1821186 -0.3069179 -0.9648352 0.1900002 0.1816394 -0.9590769 -0.08389037 -0.2704331 -0.7339933 0.03576594 -0.6782143 -0.7751749 -0.1903314 -0.6023934 -0.6417034 0.2765189 -0.7153699 -0.4505475 0.8849314 -0.1179127 -0.2627254 0.8023982 -0.5358474 -0.3821007 0.7503695 -0.5393929 -0.6224534 0.770254 -0.1387822 -0.3992722 0.7891811 -0.4666635 -0.428604 0.8533424 0.2968256 -0.6425272 0.7115486 0.2843544 -0.2099568 0.9732975 -0.09279137 0.02378076 -0.88479 0.4653829 0.2281578 -0.9595408 0.1650018 0.2214826 -0.8557758 0.4675396 0.4120729 -0.7861371 0.4606347 0.2582699 -0.9428347 0.2106173 0.1632378 -0.6292589 0.7598596 0.3810353 -0.5540574 0.7401571 0.8885537 0.4298508 0.1603147 0.8393288 0.4876544 -0.240251 0.7775324 0.6106216 0.1502825 0.7510812 0.5948074 -0.286498 0.5770281 0.811588 0.09145265 0.6043344 0.6252247 0.4938361 0.4503925 0.7990757 0.3982771 0.7345418 0.3753083 0.5653247 -0.8619391 0.5064334 -0.02421623 -0.9007758 0.2594051 -0.3482987 -0.954419 0.2980697 0.01545816 -0.9964212 0.08217453 0.01980602 -0.9227544 0.2393188 -0.3020779 -0.891051 0.06445491 0.4493036 -0.8500688 0.340301 0.401968 -0.5300088 -0.7902573 0.3075453 -0.6005604 -0.7783264 -0.1831266 -0.488799 -0.8591955 -0.1511908 -0.3436969 -0.8843738 0.3158408 -0.5083217 -0.8586403 -0.06592446 -0.4701449 -0.5567071 0.6848657 -0.2371909 -0.6651296 0.7080559 -0.7311694 -0.6142129 0.2968736 0.8629404 -0.3733865 0.3404651 0.9344418 -0.3238478 -0.148126 0.934149 -0.1821186 0.3069179 0.9648352 -0.1900003 -0.1816394 0.9590769 0.08389037 0.270433 0.7339934 -0.035766 0.6782143 0.7751749 0.1903314 0.6023934 0.3746069 0.8583205 -0.3506503 0.6463474 0.7587615 0.08072388 0.5506991 0.7012363 -0.4527674 0.2116842 0.9402285 -0.2667588 0.5439617 0.8291426 0.128951 0.1281912 0.6810276 -0.7209497 -0.07332527 0.7822093 -0.6186858 0.3227146 0.5373434 -0.7791773 -0.5732583 -0.7324717 0.3672333 -0.7910892 -0.6099265 0.04655814 -0.6639888 -0.7469536 0.03433936 -0.5196685 -0.8538987 -0.02831631 -0.6807107 -0.6345909 -0.365961 -0.5155228 -0.7565538 -0.4023215 -0.8181257 -0.4825419 -0.3127678 0.9307958 -0.3532134 -0.09412556 0.7136096 -0.537936 -0.4487608 0.7660744 -0.3575573 -0.5341188 0.9738992 -0.1985839 -0.1099308 0.7980337 -0.06950306 -0.5985914 0.4519718 -0.2903776 -0.8434468 0.5290329 -0.06588864 -0.8460395 0.3230113 -0.5425361 -0.7754472 -0.3852833 0.9151427 -0.1186196 -0.03470665 0.9714618 0.2346429 -0.1430848 0.9553719 -0.2584401 -0.5246072 0.8512861 0.009969115 -0.1638996 0.94099 0.2960991 -0.7009618 0.5908272 -0.3994693 -0.4757677 0.7161383 -0.5106772 -0.2569818 0.7780488 -0.573237 -0.9753051 -0.07471913 0.2078394 -0.7435395 0.1398469 0.6539052 -0.9794707 0.1755056 0.09917062 -0.9360204 -0.2710527 0.2244911 -0.7452304 -0.01507627 0.6666366 -0.9471237 -0.1101012 -0.3013876 -0.8959535 -0.3453871 -0.2792402 -0.9449777 0.1152104 -0.3061759 0.4074968 -0.8735107 0.2663184 0.07281738 -0.9832432 -0.1671245 0.255106 -0.9375925 -0.2363077 0.5392479 -0.8151821 0.2114002 0.4445658 -0.8090472 -0.3844527 0.01499956 -0.7610962 -0.6484656 0.2105573 -0.6727076 -0.7093167 -0.2025362 -0.8147331 -0.5433132 -0.3746069 -0.8583205 0.3506502 -0.6463474 -0.7587615 -0.08072388 -0.5439617 -0.8291426 -0.128951 -0.2116842 -0.9402285 0.2667588 -0.5273172 -0.8488029 -0.03834325 -0.1281912 -0.6810277 0.7209497 0.07332527 -0.7822093 0.6186858 -0.5506992 -0.7012363 0.4527674 0.7910892 0.6099265 -0.04655814 0.5732583 0.7324717 -0.3672333 0.6639888 0.7469536 -0.03433936 0.5196685 0.8538987 0.02831631 0.5739635 0.7601099 -0.304629 0.6807107 0.6345909 0.365961 0.5155228 0.7565538 0.4023215 -0.7136096 0.537936 0.4487608 -0.9307958 0.3532134 0.09412556 -0.7660744 0.3575573 0.5341188 -0.9738992 0.1985839 0.1099308 -0.7980337 0.069503 0.5985914 -0.4519718 0.2903776 0.8434467 -0.5290329 0.0658887 0.8460396 -0.3230115 0.542536 0.7754471 0.3852833 -0.9151427 0.1186196 0.03470665 -0.9714618 -0.2346429 0.1638996 -0.94099 -0.2960991 0.5246072 -0.8512861 -0.009969174 0.2017372 -0.9539902 -0.2218216 0.7009618 -0.5908272 0.3994693 0.4757677 -0.7161383 0.5106772 0.1430847 -0.9553719 0.2584401 0.975305 0.07471913 -0.2078394 0.7435395 -0.1398469 -0.6539052 0.7452304 0.01507627 -0.6666366 0.9360204 0.2710527 -0.2244911 0.8105487 0.01886188 -0.5853675 0.9471237 0.1101012 0.3013876 0.8959535 0.3453871 0.2792402 0.9794707 -0.1755056 -0.09917062 -0.07281732 0.9832432 0.1671245 -0.4074968 0.8735107 -0.2663184 -0.255106 0.9375925 0.2363077 -0.5392479 0.8151821 -0.2114002 -0.4445658 0.8090472 0.3844528 -0.01499956 0.7610962 0.6484656 -0.2105572 0.6727076 0.7093166 0.3729342 0.924972 -0.07312303 0.3848748 0.814408 0.4342937 0.5971663 0.7992743 -0.06747698 0.1804102 0.9795842 -0.08869552 0.2635004 0.8678675 0.4211575 0.3902791 0.758575 -0.5217723 0.1529659 0.8261438 -0.5422987 0.6045848 0.6438702 -0.4689441 -0.5659254 -0.8242735 -0.01737415 -0.5951241 -0.6958485 -0.4020227 -0.4624974 -0.8159993 -0.3467587 -0.2931061 -0.899529 -0.3239392 -0.2801139 -0.6674221 -0.6899884 -0.1050919 -0.7660621 -0.6341173 -0.4453337 -0.5375902 -0.7160132 0.8783017 -0.2363777 0.4155859 0.9127908 -0.4084054 -0.004265785 0.9754626 -0.2157981 -0.04363328 0.8999657 -0.07710933 0.4290874 0.9941233 0.07895499 -0.07406097 0.8680515 -0.153962 -0.4719983 0.9007639 0.07687532 -0.4274511 0.7613344 -0.4243677 -0.4901858 -0.3926262 0.8737338 -0.2871131 -0.2962734 0.9337737 0.2007206 -0.1221644 0.9542282 -0.2729917 -0.5678364 0.7824355 -0.2556491 -0.4322409 0.8832132 0.1819406 -0.4590361 0.5454431 -0.7012687 -0.2304573 0.7053711 -0.670329 -0.02378326 0.7971091 -0.6033667 -0.9130817 -0.2029374 -0.3536924 -0.9883989 -0.008755087 0.1516283 -0.8955056 0.05472356 -0.4416732 -0.8603512 -0.3943541 -0.3229252 -0.9738413 -0.1633993 0.1579046 -0.6136476 -0.1847651 -0.7676578 -0.5482079 -0.4139182 -0.7267323 -0.6423789 0.03875744 -0.7654066 0.3265205 -0.8445983 0.4243091 0.2938958 -0.9478121 -0.1236023 0.4760332 -0.8755682 -0.08229631 0.4570576 -0.7668471 0.4506039 0.6939679 -0.7127932 -0.1016594 0.4689726 -0.6872845 -0.5547113 0.6514763 -0.5721173 -0.4982573 0.2394827 -0.7748854 -0.5849792 -0.3729341 -0.924972 0.07312303 -0.3848748 -0.814408 -0.4342937 -0.2635004 -0.8678675 -0.4211575 -0.1804101 -0.9795843 0.08869552 -0.2949031 -0.8943566 -0.3363903 -0.3902791 -0.7585749 0.5217723 -0.1529659 -0.8261438 0.5422988 -0.5971663 -0.7992743 0.06747698 0.5951241 0.6958485 0.4020226 0.5659254 0.8242735 0.01737415 0.4624972 0.8159993 0.3467587 0.293106 0.8995289 0.3239391 0.5291734 0.8455339 0.07104903 0.2801139 0.6674222 0.6899883 0.1050918 0.766062 0.6341173 -0.9127908 0.4084053 0.004265844 -0.8783018 0.2363777 -0.4155858 -0.9754626 0.2157981 0.04363334 -0.8999657 0.07710933 -0.4290874 -0.9941233 -0.07895499 0.07406097 -0.8680515 0.1539619 0.4719982 -0.9007641 -0.07687532 0.4274511 -0.7613344 0.4243678 0.4901858 0.3926263 -0.8737338 0.2871131 0.2962734 -0.9337737 -0.2007206 0.4322409 -0.8832132 -0.1819406 0.5678364 -0.7824355 0.2556491 0.4262207 -0.8991514 -0.09931147 0.4590361 -0.5454431 0.7012687 0.2304573 -0.7053711 0.670329 0.1221644 -0.9542282 0.2729917 0.9130817 0.2029375 0.3536924 0.9883989 0.008755087 -0.1516283 0.9738413 0.1633993 -0.1579046 0.8603512 0.3943541 0.3229252 0.9845637 0.1664345 -0.05416774 0.6136476 0.1847651 0.7676579 0.5482078 0.4139183 0.7267324 0.8955056 -0.05472356 0.4416732 -0.2938958 0.9478121 0.1236023 -0.3265205 0.8445982 -0.4243091 -0.4760333 0.8755683 0.08229637 -0.4570576 0.7668471 -0.4506039 -0.6939678 0.7127932 0.1016594 -0.4689727 0.6872846 0.5547113 -0.6514764 0.5721174 0.4982573 -0.7684374 0.5563174 -0.3162513 -0.7254861 0.6612969 0.1906738 -0.5875266 0.7384356 -0.3309463 -0.8716081 0.3845742 -0.3039773 -0.8082223 0.5568177 0.1916528 -0.5471379 0.4261661 -0.7204323 -0.6743775 0.2142128 -0.7066313 -0.3855418 0.6127799 -0.6898249 0.6309402 -0.7351773 0.2478482 0.5503302 -0.8229799 -0.1408582 0.6942382 -0.7139722 -0.09097892 0.8176215 -0.5692433 -0.08635503 0.6475164 -0.587966 -0.4847871 0.7825695 -0.4337354 -0.446608 0.4816039 -0.7183827 -0.5019803 0.4139381 0.8682963 0.2733435 0.64161 0.7597557 -0.1053951 0.4805824 0.8557687 -0.1915734 0.2664952 0.9302291 0.2522979 0.2089635 0.9370707 -0.2797013 0.4474415 0.6679563 -0.5946684 0.2308748 0.7648805 -0.6013773 0.6778415 0.4981088 -0.5407575 -0.9034042 -0.2272918 -0.3635923 -0.9970802 -0.006441593 0.07608991 -0.9071891 0.04998356 -0.4177435 -0.8689191 -0.406708 -0.2820785 -0.9840532 -0.151035 0.09395688 -0.5555198 -0.4670609 -0.6879331 -0.6486974 -0.2060926 -0.7326102 -0.6876438 0.02638852 -0.7255685 -0.01316744 -0.9921061 -0.1247088 -0.2842718 -0.896385 0.3401229 -0.2423157 -0.9344057 -0.2610923 0.1797127 -0.9812604 -0.06950885 -0.133787 -0.9184229 0.3722906 0.1057823 -0.8041072 -0.5849974 0.3367971 -0.7879749 -0.5154253 -0.1153172 -0.7768051 -0.6190929 0.83965 0.2046317 0.503104 0.9998165 0.01911669 0.001252055 0.9759772 0.2177265 -0.007979094 0.7982559 0.3524423 0.4884383 0.8836559 0.4574304 -0.09954798 0.8558288 0.1443517 -0.4967089 0.7892524 0.3572328 -0.4994651 0.8797869 -0.0999034 -0.4647522 0.7684374 -0.5563174 0.3162513 0.7254861 -0.6612969 -0.1906738 0.8082224 -0.5568176 -0.1916528 0.871608 -0.3845743 0.3039773 0.8138103 -0.5726426 -0.09896171 0.5471378 -0.4261661 0.7204323 0.6743773 -0.2142128 0.7066315 0.5875266 -0.7384356 0.3309463 -0.5503302 0.8229799 0.1408582 -0.6309402 0.7351773 -0.2478482 -0.6942382 0.7139722 0.09097892 -0.8176216 0.5692432 0.08635503 -0.6682821 0.7184377 -0.1929935 -0.6475164 0.587966 0.4847871 -0.7825695 0.4337354 0.446608 -0.64161 -0.7597557 0.1053951 -0.4139381 -0.8682965 -0.2733436 -0.4805824 -0.8557689 0.1915734 -0.2664952 -0.9302291 -0.2522979 -0.2089635 -0.9370708 0.2797014 -0.4474415 -0.6679564 0.5946683 -0.2308748 -0.7648805 0.6013773 -0.6778415 -0.4981088 0.5407575 0.9034042 0.2272918 0.3635923 0.9970802 0.006441593 -0.07608991 0.9840532 0.151035 -0.09395688 0.8689191 0.406708 0.2820785 0.9868798 0.1611316 -0.01024365 0.5555198 0.4670609 0.6879331 0.6486974 0.2060926 0.7326101 0.9071891 -0.04998356 0.4177435 0.0131675 0.9921061 0.1247088 0.2842718 0.896385 -0.3401229 0.133787 0.9184229 -0.3722906 -0.1797126 0.9812604 0.06950885 0.1204377 0.9538514 -0.2750683 -0.1057822 0.8041071 0.5849974 -0.3367971 0.787975 0.5154254 0.2423157 0.9344057 0.2610923 -0.9998165 -0.01911669 -0.001251995 -0.8396502 -0.2046317 -0.503104 -0.9759773 -0.2177265 0.007979154 -0.798256 -0.3524423 -0.4884382 -0.8836559 -0.4574304 0.09954804 -0.8558288 -0.1443517 0.4967089 -0.7892525 -0.3572327 0.4994651 0.3992722 -0.7891811 0.4666635 -0.1843345 0.9607406 -0.2073609 -0.2582699 0.9428347 -0.2106173 -0.8463738 -0.5076683 0.1610108 0.8950725 -0.3114629 0.319118 0.9227544 -0.2393188 0.3020779 0.5083217 0.8586403 0.06592446 -0.9483751 0.3123381 0.05504238 -0.1850211 0.9390926 0.2896075 0.1843345 -0.9607406 0.2073609 -0.06403988 -0.6708868 0.7387895 0.8463738 0.5076683 -0.1610108 -0.8950725 0.3114629 -0.3191179 -0.7568766 0.5623037 0.3330952 -0.6614003 -0.4203571 0.621168 0.9483751 -0.3123382 -0.05504244 0.6417034 -0.2765189 0.7153699 0.5273172 0.8488029 0.03834325 -0.6261181 -0.7096858 0.3229898 -0.5739635 -0.7601099 0.304629 0.9102255 -0.3696097 -0.1867577 -0.2017372 0.9539902 0.2218216 -0.8105487 -0.01886188 0.5853675 0.3763335 -0.9116384 0.1651926 -0.3227146 -0.5373434 0.7791773 0.6261181 0.7096858 -0.3229898 0.8181257 0.4825419 0.3127678 -0.9102255 0.3696096 0.1867576 0.2569818 -0.7780488 0.573237 0.9449777 -0.1152104 0.3061759 -0.3763333 0.9116384 -0.1651926 0.2025362 0.8147331 0.5433132 0.2949031 0.8943566 0.3363903 -0.5898398 -0.8032818 -0.08262956 -0.5291734 -0.8455339 -0.07104903 0.912798 -0.2457836 0.3261752 -0.4262207 0.8991514 0.09931147 -0.9845637 -0.1664345 0.05416774 0.3598862 -0.8758401 0.3215371 -0.6045848 -0.6438702 0.4689441 0.5898398 0.8032817 0.08262956 0.4453337 0.5375902 0.7160132 -0.912798 0.2457836 -0.3261753 0.02378326 -0.7971091 0.6033667 0.6423789 -0.03875744 0.7654066 -0.3598863 0.8758401 -0.3215372 -0.2394827 0.7748854 0.5849792 -0.8138103 0.5726426 0.09896171 0.6127856 -0.7681096 0.185746 0.6682821 -0.7184377 0.1929935 0.4439905 0.8772905 0.1823015 -0.9868798 -0.1611316 0.01024365 -0.1204377 -0.9538514 0.2750683 0.8919141 0.204136 0.4035068 0.3855418 -0.6127799 0.6898249 -0.6127855 0.7681096 -0.185746 -0.4816039 0.7183827 0.5019803 -0.4439904 -0.8772905 -0.1823015 0.6876438 -0.02638852 0.7255685 0.1153172 0.7768051 0.6190929 -0.8919141 -0.204136 -0.4035069 -0.8797869 0.0999034 0.4647522</float_array>
          <technique_common>
            <accessor source="#Tree_02-mesh-normals-array" count="491" stride="3">
              <param name="X" type="float"/>
              <param name="Y" type="float"/>
              <param name="Z" type="float"/>
            </accessor>
          </technique_common>
        </source>
        <source id="Tree_02-mesh-map-0">
          <float_array id="Tree_02-mesh-map-0-array" count="2970">0.4434294 -1.245557 0.5867235 -0.9442207 0.6801194 -1.245557 0.5197299 -1.245557 0.3303089 -0.9442207 0.2414842 -1.245557 0.53199 -0.9442207 0.2971469 -1.245557 0.5897117 -1.245557 0.5316327 0.1846574 0.4045686 0.3459105 0.3954901 0.1881864 0.3303089 -0.9442207 0.5197299 -1.245557 0.2414842 -1.245557 0.3001354 -0.9442207 0.4434294 -1.245557 0.2067393 -1.245557 0.5417316 0.4896879 0.4604232 0.6209211 0.544086 0.6310141 0.3742818 0.2026531 0.4981796 0.3520764 0.4914861 0.1935983 0.4914861 0.1935983 0.6089086 0.3418902 0.6061964 0.1846574 0.4165557 0.1993083 0.5637723 0.3459105 0.4192131 0.3649243 0.3175202 0.2675954 0.137105 0.4317269 0.07937073 0.193202 0.4207593 0.6450569 0.4940081 1.071689 0.5058667 0.6478404 0.5343114 0.4558529 0.4532081 0.5830981 0.4288883 0.4645043 0.5735643 0.6042829 0.4921429 0.8273293 0.5455331 0.8642874 0.6200181 0.4645043 0.599428 0.6209211 0.5154388 0.4832746 0.6578891 0.4558529 0.6489488 0.5994296 0.7068693 0.5698157 1.017575 1.037045 0.9613083 1.049742 1.203084 2.245557 0.4051693 0.6082216 0.4837028 1.047341 0.4206069 1.057974 0.8254286 0.5614359 0.7657893 1.050392 0.8251131 1.05537 0.8618215 0.5548461 0.7850868 1.051641 0.7655119 0.5661933 0.898852 0.5519059 0.8251131 1.05537 0.8810746 1.059697 0.4434294 -0.9442207 0.6061964 0.1846574 0.5867235 -0.9442207 0.9793351 1.045284 1.046743 1.029832 1.203084 2.245557 1.070377 1.024741 1.017575 1.037045 1.203084 2.245557 0.437709 1.049742 0.3710273 1.045284 0.4609298 2.245557 0.3680797 1.029832 0.4329396 1.024741 0.4609298 2.245557 0.53199 -0.9442207 0.4165557 0.1993083 0.3548688 -0.9442207 0.4987611 -0.9442207 0.3976116 0.1993083 0.5350658 0.2026531 0.4434294 -0.9442207 0.3742818 0.2026531 0.4914861 0.1935983 0.4987611 -0.9442207 0.3954901 0.1881864 0.3303089 -0.9442207 0.1504818 0.4414557 0.0119096 0.6893329 0.02959561 0.3591415 0.3053154 0.2905584 0.1225762 0.4558531 0.3028734 0.4550128 0.2439804 0.2883414 0.392496 0.4375189 0.2128514 0.4491543 0.2302429 0.2929432 0.3690965 0.4972993 0.4534262 0.2741737 0.2021241 0.6495905 0.1124464 0.650476 0.2270388 2.134038 0.1138396 0.4508557 -0.02071845 0.6996425 0.08412659 0.7177233 0.2600437 0.3192719 0.3436595 0.635665 0.372749 0.313492 0.315944 0.4147993 0.3900018 0.6668292 0.3031197 0.6692062 0.1601815 0.6824589 0.2471339 0.6814997 0.2270388 2.134038 -0.1720975 0.6680688 -0.07502847 0.6970014 -0.08351397 2.153239 -0.1084223 0.703483 -0.2070185 0.6748868 -0.08351397 2.153239 0.6089086 0.3418902 0.5735643 0.475753 0.6578891 0.4558529 0.5637723 0.3459105 0.5154388 0.4832746 0.4192131 0.3649243 0.4981796 0.3520764 0.4886439 0.4896879 0.5735643 0.475753 0.5362112 0.3418902 0.4288883 0.4645043 0.4045686 0.3459105 0.4886439 0.4896879 0.2771247 0.6931546 0.3981378 0.7006756 0.2825101 0.382306 0.3568264 1.08147 0.3795666 0.4099372 0.2847169 0.3670339 0.3756135 0.7203464 0.3860576 0.286021 0.4192131 0.3649243 0.4171568 0.6739053 0.3055739 0.6595312 0.3833128 0.438593 0.3925092 0.7158764 0.3176158 0.7443029 -0.05039769 1.366559 0.01736837 1.376194 -0.01791024 2.265366 0.3169993 0.3945634 0.3567284 1.090062 0.2896437 1.078735 0.5828062 0.4220079 0.5124412 1.081097 0.6115878 1.089639 0.6018252 0.3952378 0.5245295 1.061545 0.4902424 0.3808637 0.3272755 1.348605 0.2271813 1.348886 0.3581637 2.231886 0.2346846 1.328467 0.3300974 1.332686 0.3581637 2.231886 0.01690787 1.367606 -0.06655097 1.355285 -0.01791024 2.265366 0.3750945 0.8002291 0.467134 0.8380112 0.4011494 2.077765 0.6041066 0.514957 0.7038723 0.8049622 0.7083411 0.4194908 0.6489488 0.5885775 0.5750883 0.7916762 0.5825465 0.5440862 0.6572497 0.5273214 0.7382472 0.8238862 0.6766904 0.8233857 0.499185 0.8088485 0.4249057 0.7769222 0.4011494 2.077765 0.9300248 0.7288436 0.9657448 0.7142724 0.9773468 1.976313 0.4249057 0.7769222 0.3750945 0.8002291 0.4011494 2.077765 0.4127262 0.5 1 0.98461 1 0.5 0 0.5 0.4127262 0.98461 0.4127262 0.5 0 0.5 0.4127262 0.01538997 0 0.01538997 0.4127262 0.01538997 1 0.5 1 0.01538997 0.4127262 0.98461 1 0.5 0.4127262 0.5 0 0.5 0.4127262 0.98461 0.4127262 0.5 0 0.5 0.4127262 0.01538997 0 0.01538997 0.4127262 0.01538997 1 0.5 1 0.01538997 0.4127262 0.98461 1 0.5 0.4127262 0.5 0 0.98461 0.4127262 0.5 0 0.5 0 0.5 0.4127262 0.01538997 0 0.01538997 0.4127262 0.5 1 0.01538997 0.4127262 0.01538997 0.4127262 0.98461 1 0.5 0.4127262 0.5 0 0.5 0.4127262 0.98461 0.4127262 0.5 0 0.01538997 0.4127262 0.5 0.4127262 0.01538997 0.4127262 0.01538997 1 0.5 1 0.01538997 0.4127262 0.5 1 0.98461 1 0.5 0 0.5 0.4127262 0.98461 0.4127262 0.5 0 0.5 0.4127262 0.01538997 0 0.01538997 0.4127262 0.01538997 1 0.5 1 0.01538997 0.4127262 0.98461 1 0.5 0.4127262 0.5 0 0.98461 0.4127262 0.5 0 0.5 0 0.5 0.4127262 0.01538997 0 0.01538997 0.4127262 0.01538997 1 0.5 1 0.01538997 0.4127262 0.5 1 0.98461 0.4127262 0.98461 0 0.5 0.4127262 0.98461 0 0.98461 0.4127262 0.01538997 0 0.5 0 0.01538997 0.4127262 0.01538997 1 0.5 0.4127262 0.5 1 0.5 0.4127262 0.98461 0.4127262 0.5 0 0.5 0.4127262 0.98461 0 0.98461 0.4127262 0.01538997 0 0.5 0 0.01538997 0.4127262 0.01538997 1 0.5 0.4127262 0.5 1 0.5 0.4127262 0.98461 0.4127262 0.5 0.4127262 0.5 0 0.98461 0 0.5 0.4127262 0.01538997 0 0.5 0 0.01538997 1 0.01538997 0.4127262 0.5 0.4127262 0.01538997 1 0.5 0.4127262 0.98461 0.4127262 0.5 0 0.5 0.4127262 0.98461 0 0.98461 0 0.01538997 0.4127262 0.5 0 0.5 0.4127262 0.01538997 1 0.5 0.4127262 0.5 0.4127262 0.5 1 0.98461 0.4127262 0.98461 0 0.5 0.4127262 0.98461 0 0.98461 0.4127262 0.01538997 0 0.5 0 0.01538997 0.4127262 0.01538997 1 0.5 0.4127262 0.5 1 0.5 0.4127262 0.98461 0.4127262 0.5 0.4127262 0.5 0 0.98461 0 0.5 0.4127262 0.01538997 0 0.5 0 0.01538997 0.4127262 0.01538997 1 0.5 0.4127262 0.5 0.4127262 0.5 1 0.98461 1 0.5 0 0.5 0.4127262 0.98461 0.4127262 0.5 0 0.5 0.4127262 0.01538997 0 0.01538997 0.4127262 0.01538997 1 0.5 1 0.01538997 0.4127262 0.98461 1 0.5 0.4127262 0.5 0 0.5 0.4127262 0.98461 0.4127262 0.5 0 0.5 0.4127262 0.01538997 0 0.01538997 0.4127262 0.01538997 1 0.5 1 0.01538997 0.4127262 0.98461 1 0.5 0.4127262 0.5 0 0.98461 0.4127262 0.5 0 0.5 0 0.5 0.4127262 0.01538997 0 0.01538997 0.4127262 0.5 1 0.01538997 0.4127262 0.01538997 0.4127262 0.5 1 0.98461 1 0.5 0 0.5 0.4127262 0.98461 0.4127262 0.5 0 0.01538997 0.4127262 0.5 0.4127262 0.01538997 0.4127262 0.01538997 1 0.5 1 0.01538997 0.4127262 0.5 1 0.98461 1 0.5 0 0.5 0.4127262 0.98461 0.4127262 0.5 0 0.5 0.4127262 0.01538997 0 0.01538997 0.4127262 0.01538997 1 0.5 1 0.01538997 0.4127262 0.98461 1 0.5 0.4127262 0.5 0 0.98461 0.4127262 0.5 0 0.5 0 0.5 0.4127262 0.01538997 0 0.01538997 0.4127262 0.01538997 1 0.5 1 0.01538997 0.4127262 0.5 1 0.98461 0.4127262 0.98461 0 0.5 0.4127262 0.98461 0 0.98461 0.4127262 0.01538997 0 0.5 0 0.01538997 0.4127262 0.01538997 1 0.5 0.4127262 0.5 1 0.5 0.4127262 0.98461 0.4127262 0.5 0 0.5 0.4127262 0.98461 0 0.98461 0.4127262 0.01538997 0 0.5 0 0.01538997 0.4127262 0.01538997 1 0.5 0.4127262 0.5 1 0.5 0.4127262 0.98461 0.4127262 0.5 0.4127262 0.5 0 0.98461 0 0.5 0.4127262 0.01538997 0 0.5 0 0.01538997 1 0.01538997 0.4127262 0.5 0.4127262 0.01538997 0.4127262 0.5 1 0.98461 0.4127262 0.98461 0 0.5 0.4127262 0.98461 0 0.98461 0 0.01538997 0.4127262 0.5 0 0.5 0.4127262 0.01538997 1 0.5 0.4127262 0.5 0.4127262 0.5 1 0.98461 0.4127262 0.98461 0 0.5 0.4127262 0.98461 0 0.98461 0.4127262 0.01538997 0 0.5 0 0.01538997 0.4127262 0.01538997 1 0.5 0.4127262 0.5 1 0.5 0.4127262 0.98461 0.4127262 0.5 0.4127262 0.5 0 0.98461 0 0.5 0.4127262 0.01538997 0 0.5 0 0.01538997 0.4127262 0.01538997 1 0.5 0.4127262 0.5 0.4127262 0.5 1 0.98461 1 0.5 0 0.5 0.4127262 0.98461 0.4127262 0.5 0 0.5 0.4127262 0.01538997 0 0.01538997 0.4127262 0.01538997 1 0.5 1 0.01538997 0.4127262 0.98461 1 0.5 0.4127262 0.5 0 0.5 0.4127262 0.98461 0.4127262 0.5 0 0.5 0.4127262 0.01538997 0 0.01538997 0.4127262 0.01538997 1 0.5 1 0.01538997 0.4127262 0.98461 1 0.5 0.4127262 0.5 0 0.98461 0.4127262 0.5 0 0.5 0 0.5 0.4127262 0.01538997 0 0.01538997 0.4127262 0.5 1 0.01538997 0.4127262 0.01538997 0.4127262 0.5 1 0.98461 1 0.5 0 0.5 0.4127262 0.98461 0.4127262 0.5 0 0.01538997 0.4127262 0.5 0.4127262 0.01538997 0.4127262 0.01538997 1 0.5 1 0.01538997 0.4127262 0.5 1 0.98461 1 0.5 0 0.5 0.4127262 0.98461 0.4127262 0.5 0 0.5 0.4127262 0.01538997 0 0.01538997 0.4127262 0.01538997 1 0.5 1 0.01538997 0.4127262 0.98461 1 0.5 0.4127262 0.5 0 0.98461 0.4127262 0.5 0 0.5 0 0.5 0.4127262 0.01538997 0 0.01538997 0.4127262 0.01538997 1 0.5 1 0.01538997 0.4127262 0.5 1 0.98461 0.4127262 0.98461 0 0.5 0.4127262 0.98461 0 0.98461 0.4127262 0.01538997 0 0.5 0 0.01538997 0.4127262 0.01538997 1 0.5 0.4127262 0.5 1 0.5 0.4127262 0.98461 0.4127262 0.5 0 0.5 0.4127262 0.98461 0 0.98461 0.4127262 0.01538997 0 0.5 0 0.01538997 0.4127262 0.01538997 1 0.5 0.4127262 0.5 1 0.5 0.4127262 0.98461 0.4127262 0.5 0.4127262 0.5 0 0.98461 0 0.5 0.4127262 0.01538997 0 0.5 0 0.01538997 1 0.01538997 0.4127262 0.5 0.4127262 0.01538997 0.4127262 0.5 1 0.98461 0.4127262 0.98461 0 0.5 0.4127262 0.98461 0 0.98461 0 0.01538997 0.4127262 0.5 0 0.5 0.4127262 0.01538997 1 0.5 0.4127262 0.5 0.4127262 0.5 1 0.98461 0.4127262 0.98461 0 0.5 0.4127262 0.98461 0 0.98461 0.4127262 0.01538997 0 0.5 0 0.01538997 0.4127262 0.01538997 1 0.5 0.4127262 0.5 1 0.5 0.4127262 0.98461 0.4127262 0.5 0.4127262 0.5 0 0.98461 0 0.5 0.4127262 0.01538997 0 0.5 0 0.01538997 0.4127262 0.01538997 1 0.5 0.4127262 0.5 0.4127262 0.5 1 0.98461 1 0.5 0 0.5 0.4127262 0.98461 0.4127262 0.5 0 0.5 0.4127262 0.01538997 0 0.01538997 0.4127262 0.01538997 1 0.5 1 0.01538997 0.4127262 0.98461 1 0.5 0.4127262 0.5 0 0.5 0.4127262 0.98461 0.4127262 0.5 0 0.5 0.4127262 0.01538997 0 0.01538997 0.4127262 0.01538997 1 0.5 1 0.01538997 0.4127262 0.98461 1 0.5 0.4127262 0.5 0 0.98461 0.4127262 0.5 0 0.5 0 0.5 0.4127262 0.01538997 0 0.01538997 0.4127262 0.5 1 0.01538997 0.4127262 0.01538997 0.4127262 0.5 1 0.98461 1 0.5 0 0.5 0.4127262 0.98461 0.4127262 0.5 0 0.01538997 0.4127262 0.5 0.4127262 0.01538997 0.4127262 0.01538997 1 0.5 1 0.01538997 0.4127262 0.5 1 0.98461 1 0.5 0 0.5 0.4127262 0.98461 0.4127262 0.5 0 0.5 0.4127262 0.01538997 0 0.01538997 0.4127262 0.01538997 1 0.5 1 0.01538997 0.4127262 0.98461 1 0.5 0.4127262 0.5 0 0.98461 0.4127262 0.5 0 0.5 0 0.5 0.4127262 0.01538997 0 0.01538997 0.4127262 0.01538997 1 0.5 1 0.01538997 0.4127262 0.5 1 0.98461 0.4127262 0.98461 0 0.5 0.4127262 0.98461 0 0.98461 0.4127262 0.01538997 0 0.5 0 0.01538997 0.4127262 0.01538997 1 0.5 0.4127262 0.5 1 0.5 0.4127262 0.98461 0.4127262 0.5 0 0.5 0.4127262 0.98461 0 0.98461 0.4127262 0.01538997 0 0.5 0 0.01538997 0.4127262 0.01538997 1 0.5 0.4127262 0.5 1 0.5 0.4127262 0.98461 0.4127262 0.5 0.4127262 0.5 0 0.98461 0 0.5 0.4127262 0.01538997 0 0.5 0 0.01538997 1 0.01538997 0.4127262 0.5 0.4127262 0.01538997 0.4127262 0.5 1 0.98461 0.4127262 0.98461 0 0.5 0.4127262 0.98461 0 0.98461 0 0.01538997 0.4127262 0.5 0 0.5 0.4127262 0.01538997 1 0.5 0.4127262 0.5 0.4127262 0.5 1 0.98461 0.4127262 0.98461 0 0.5 0.4127262 0.98461 0 0.98461 0.4127262 0.01538997 0 0.5 0 0.01538997 0.4127262 0.01538997 1 0.5 0.4127262 0.5 1 0.5 0.4127262 0.98461 0.4127262 0.5 0.4127262 0.5 0 0.98461 0 0.5 0.4127262 0.01538997 0 0.5 0 0.01538997 0.4127262 0.01538997 1 0.5 0.4127262 0.5 0.4434294 -1.245557 0.4434294 -0.9442207 0.5867235 -0.9442207 0.5197299 -1.245557 0.4987611 -0.9442207 0.3303089 -0.9442207 0.53199 -0.9442207 0.3548688 -0.9442207 0.2971469 -1.245557 0.5316327 0.1846574 0.5362112 0.3418902 0.4045686 0.3459105 0.3303089 -0.9442207 0.4987611 -0.9442207 0.5197299 -1.245557 0.3001354 -0.9442207 0.4434294 -0.9442207 0.4434294 -1.245557 0.5417316 0.4896879 0.4360643 0.4832746 0.4604232 0.6209211 0.3742818 0.2026531 0.3807713 0.3687013 0.4981796 0.3520764 0.4914861 0.1935983 0.4981796 0.3520764 0.6089086 0.3418902 0.4165557 0.1993083 0.5598869 0.1881864 0.5637723 0.3459105 0.3175202 0.2675954 0.3164452 0.4318693 0.137105 0.4317269 0.4207593 0.6450569 0.426976 1.073023 0.4940081 1.071689 0.5343114 0.4558529 0.5324118 0.5698157 0.4532081 0.5830981 0.5735643 0.6042829 0.4886439 0.5417317 0.4921429 0.8273293 0.6200181 0.4645043 0.6762638 0.5830981 0.599428 0.6209211 0.6578891 0.4558529 0.5735643 0.475753 0.6489488 0.5994296 0.4051693 0.6082216 0.4806415 0.5882401 0.4837028 1.047341 0.8254286 0.5614359 0.7430201 0.5702658 0.7657893 1.050392 0.8618215 0.5548461 0.8563372 1.057392 0.7850868 1.051641 0.898852 0.5519059 0.8254286 0.5614359 0.8251131 1.05537 0.4434294 -0.9442207 0.4914861 0.1935983 0.6061964 0.1846574 0.53199 -0.9442207 0.5598869 0.1881864 0.4165557 0.1993083 0.4987611 -0.9442207 0.3303089 -0.9442207 0.3976116 0.1993083 0.4434294 -0.9442207 0.3001354 -0.9442207 0.3742818 0.2026531 0.4987611 -0.9442207 0.5316327 0.1846574 0.3954901 0.1881864 0.1504818 0.4414557 0.1153379 0.7079023 0.0119096 0.6893329 0.3053154 0.2905584 0.06479203 0.2180837 0.1225762 0.4558531 0.2439804 0.2883414 0.4540941 0.2697818 0.392496 0.4375189 0.2302429 0.2929432 0.1836048 0.5089437 0.3690965 0.4972993 0.1138396 0.4508557 -0.008859336 0.3687661 -0.02071845 0.6996425 0.2600437 0.3192719 0.2540501 0.6380128 0.3436595 0.635665 0.315944 0.4147993 0.4252448 0.4093652 0.3900018 0.6668292 0.6089086 0.3418902 0.4981796 0.3520764 0.5735643 0.475753 0.5637723 0.3459105 0.6200181 0.4645043 0.5154388 0.4832746 0.4981796 0.3520764 0.3807713 0.3687013 0.4886439 0.4896879 0.5362112 0.3418902 0.5343114 0.4558529 0.4288883 0.4645043 0.4886439 0.4896879 0.3807713 0.3687013 0.2771247 0.6931546 0.2825101 0.382306 0.2742364 1.067064 0.3568264 1.08147 0.2847169 0.3670339 0.2836834 0.7542381 0.3756135 0.7203464 0.4192131 0.3649243 0.5154388 0.4832746 0.4171568 0.6739053 0.3833128 0.438593 0.4680416 0.3751285 0.3925092 0.7158764 0.3169993 0.3945634 0.3964922 0.4164217 0.3567284 1.090062 0.5828062 0.4220079 0.4617931 0.4144871 0.5124412 1.081097 0.6018252 0.3952378 0.6180148 1.07413 0.5245295 1.061545 0.6041066 0.514957 0.6391028 0.8147019 0.7038723 0.8049622 0.6489488 0.5885775 0.6121943 0.8230987 0.5750883 0.7916762 0.6572497 0.5273214 0.760246 0.4570769 0.7382472 0.8238862 0.4127262 0.5 0.4127262 0.98461 1 0.98461 0 0.5 0 0.98461 0.4127262 0.98461 0 0.5 0.4127262 0.5 0.4127262 0.01538997 0.4127262 0.01538997 0.4127262 0.5 1 0.5 0.4127262 0.98461 1 0.98461 1 0.5 0 0.5 0 0.98461 0.4127262 0.98461 0 0.5 0.4127262 0.5 0.4127262 0.01538997 0.4127262 0.01538997 0.4127262 0.5 1 0.5 0.4127262 0.98461 1 0.98461 1 0.5 0 0.98461 0.4127262 0.98461 0.4127262 0.5 0 0.5 0.4127262 0.5 0.4127262 0.01538997 0.4127262 0.5 1 0.5 1 0.01538997 0.4127262 0.98461 1 0.98461 1 0.5 0 0.5 0 0.98461 0.4127262 0.98461 0 0.01538997 0 0.5 0.4127262 0.5 0.4127262 0.01538997 0.4127262 0.5 1 0.5 0.4127262 0.5 0.4127262 0.98461 1 0.98461 0 0.5 0 0.98461 0.4127262 0.98461 0 0.5 0.4127262 0.5 0.4127262 0.01538997 0.4127262 0.01538997 0.4127262 0.5 1 0.5 0.4127262 0.98461 1 0.98461 1 0.5 0 0.98461 0.4127262 0.98461 0.4127262 0.5 0 0.5 0.4127262 0.5 0.4127262 0.01538997 0.4127262 0.01538997 0.4127262 0.5 1 0.5 0.4127262 0.5 1 0.5 1 0.98461 0 0.5 0.4127262 0.5 0.4127262 0.98461 0.4127262 0.01538997 0.4127262 0.5 0 0.5 0.4127262 0.01538997 1 0.01538997 1 0.5 1 0.5 1 0.98461 0.4127262 0.98461 0 0.5 0.4127262 0.5 0.4127262 0.98461 0.4127262 0.01538997 0.4127262 0.5 0 0.5 0.4127262 0.01538997 1 0.01538997 1 0.5 1 0.5 1 0.98461 0.4127262 0.98461 0.4127262 0.5 0.4127262 0.98461 0 0.98461 0.4127262 0.01538997 0.4127262 0.5 0 0.5 1 0.01538997 1 0.5 0.4127262 0.5 1 0.5 1 0.98461 0.4127262 0.98461 0 0.5 0.4127262 0.5 0.4127262 0.98461 0 0.01538997 0.4127262 0.01538997 0.4127262 0.5 0.4127262 0.01538997 1 0.01538997 1 0.5 0.4127262 0.5 1 0.5 1 0.98461 0 0.5 0.4127262 0.5 0.4127262 0.98461 0.4127262 0.01538997 0.4127262 0.5 0 0.5 0.4127262 0.01538997 1 0.01538997 1 0.5 1 0.5 1 0.98461 0.4127262 0.98461 0.4127262 0.5 0.4127262 0.98461 0 0.98461 0.4127262 0.01538997 0.4127262 0.5 0 0.5 0.4127262 0.01538997 1 0.01538997 1 0.5 0.4127262 0.5 0.4127262 0.98461 1 0.98461 0 0.5 0 0.98461 0.4127262 0.98461 0 0.5 0.4127262 0.5 0.4127262 0.01538997 0.4127262 0.01538997 0.4127262 0.5 1 0.5 0.4127262 0.98461 1 0.98461 1 0.5 0 0.5 0 0.98461 0.4127262 0.98461 0 0.5 0.4127262 0.5 0.4127262 0.01538997 0.4127262 0.01538997 0.4127262 0.5 1 0.5 0.4127262 0.98461 1 0.98461 1 0.5 0 0.98461 0.4127262 0.98461 0.4127262 0.5 0 0.5 0.4127262 0.5 0.4127262 0.01538997 0.4127262 0.5 1 0.5 1 0.01538997 0.4127262 0.5 0.4127262 0.98461 1 0.98461 0 0.5 0 0.98461 0.4127262 0.98461 0 0.01538997 0 0.5 0.4127262 0.5 0.4127262 0.01538997 0.4127262 0.5 1 0.5 0.4127262 0.5 0.4127262 0.98461 1 0.98461 0 0.5 0 0.98461 0.4127262 0.98461 0 0.5 0.4127262 0.5 0.4127262 0.01538997 0.4127262 0.01538997 0.4127262 0.5 1 0.5 0.4127262 0.98461 1 0.98461 1 0.5 0 0.98461 0.4127262 0.98461 0.4127262 0.5 0 0.5 0.4127262 0.5 0.4127262 0.01538997 0.4127262 0.01538997 0.4127262 0.5 1 0.5 0.4127262 0.5 1 0.5 1 0.98461 0 0.5 0.4127262 0.5 0.4127262 0.98461 0.4127262 0.01538997 0.4127262 0.5 0 0.5 0.4127262 0.01538997 1 0.01538997 1 0.5 1 0.5 1 0.98461 0.4127262 0.98461 0 0.5 0.4127262 0.5 0.4127262 0.98461 0.4127262 0.01538997 0.4127262 0.5 0 0.5 0.4127262 0.01538997 1 0.01538997 1 0.5 1 0.5 1 0.98461 0.4127262 0.98461 0.4127262 0.5 0.4127262 0.98461 0 0.98461 0.4127262 0.01538997 0.4127262 0.5 0 0.5 1 0.01538997 1 0.5 0.4127262 0.5 0.4127262 0.5 1 0.5 1 0.98461 0 0.5 0.4127262 0.5 0.4127262 0.98461 0 0.01538997 0.4127262 0.01538997 0.4127262 0.5 0.4127262 0.01538997 1 0.01538997 1 0.5 0.4127262 0.5 1 0.5 1 0.98461 0 0.5 0.4127262 0.5 0.4127262 0.98461 0.4127262 0.01538997 0.4127262 0.5 0 0.5 0.4127262 0.01538997 1 0.01538997 1 0.5 1 0.5 1 0.98461 0.4127262 0.98461 0.4127262 0.5 0.4127262 0.98461 0 0.98461 0.4127262 0.01538997 0.4127262 0.5 0 0.5 0.4127262 0.01538997 1 0.01538997 1 0.5 0.4127262 0.5 0.4127262 0.98461 1 0.98461 0 0.5 0 0.98461 0.4127262 0.98461 0 0.5 0.4127262 0.5 0.4127262 0.01538997 0.4127262 0.01538997 0.4127262 0.5 1 0.5 0.4127262 0.98461 1 0.98461 1 0.5 0 0.5 0 0.98461 0.4127262 0.98461 0 0.5 0.4127262 0.5 0.4127262 0.01538997 0.4127262 0.01538997 0.4127262 0.5 1 0.5 0.4127262 0.98461 1 0.98461 1 0.5 0 0.98461 0.4127262 0.98461 0.4127262 0.5 0 0.5 0.4127262 0.5 0.4127262 0.01538997 0.4127262 0.5 1 0.5 1 0.01538997 0.4127262 0.5 0.4127262 0.98461 1 0.98461 0 0.5 0 0.98461 0.4127262 0.98461 0 0.01538997 0 0.5 0.4127262 0.5 0.4127262 0.01538997 0.4127262 0.5 1 0.5 0.4127262 0.5 0.4127262 0.98461 1 0.98461 0 0.5 0 0.98461 0.4127262 0.98461 0 0.5 0.4127262 0.5 0.4127262 0.01538997 0.4127262 0.01538997 0.4127262 0.5 1 0.5 0.4127262 0.98461 1 0.98461 1 0.5 0 0.98461 0.4127262 0.98461 0.4127262 0.5 0 0.5 0.4127262 0.5 0.4127262 0.01538997 0.4127262 0.01538997 0.4127262 0.5 1 0.5 0.4127262 0.5 1 0.5 1 0.98461 0 0.5 0.4127262 0.5 0.4127262 0.98461 0.4127262 0.01538997 0.4127262 0.5 0 0.5 0.4127262 0.01538997 1 0.01538997 1 0.5 1 0.5 1 0.98461 0.4127262 0.98461 0 0.5 0.4127262 0.5 0.4127262 0.98461 0.4127262 0.01538997 0.4127262 0.5 0 0.5 0.4127262 0.01538997 1 0.01538997 1 0.5 1 0.5 1 0.98461 0.4127262 0.98461 0.4127262 0.5 0.4127262 0.98461 0 0.98461 0.4127262 0.01538997 0.4127262 0.5 0 0.5 1 0.01538997 1 0.5 0.4127262 0.5 0.4127262 0.5 1 0.5 1 0.98461 0 0.5 0.4127262 0.5 0.4127262 0.98461 0 0.01538997 0.4127262 0.01538997 0.4127262 0.5 0.4127262 0.01538997 1 0.01538997 1 0.5 0.4127262 0.5 1 0.5 1 0.98461 0 0.5 0.4127262 0.5 0.4127262 0.98461 0.4127262 0.01538997 0.4127262 0.5 0 0.5 0.4127262 0.01538997 1 0.01538997 1 0.5 1 0.5 1 0.98461 0.4127262 0.98461 0.4127262 0.5 0.4127262 0.98461 0 0.98461 0.4127262 0.01538997 0.4127262 0.5 0 0.5 0.4127262 0.01538997 1 0.01538997 1 0.5 0.4127262 0.5 0.4127262 0.98461 1 0.98461 0 0.5 0 0.98461 0.4127262 0.98461 0 0.5 0.4127262 0.5 0.4127262 0.01538997 0.4127262 0.01538997 0.4127262 0.5 1 0.5 0.4127262 0.98461 1 0.98461 1 0.5 0 0.5 0 0.98461 0.4127262 0.98461 0 0.5 0.4127262 0.5 0.4127262 0.01538997 0.4127262 0.01538997 0.4127262 0.5 1 0.5 0.4127262 0.98461 1 0.98461 1 0.5 0 0.98461 0.4127262 0.98461 0.4127262 0.5 0 0.5 0.4127262 0.5 0.4127262 0.01538997 0.4127262 0.5 1 0.5 1 0.01538997 0.4127262 0.5 0.4127262 0.98461 1 0.98461 0 0.5 0 0.98461 0.4127262 0.98461 0 0.01538997 0 0.5 0.4127262 0.5 0.4127262 0.01538997 0.4127262 0.5 1 0.5 0.4127262 0.5 0.4127262 0.98461 1 0.98461 0 0.5 0 0.98461 0.4127262 0.98461 0 0.5 0.4127262 0.5 0.4127262 0.01538997 0.4127262 0.01538997 0.4127262 0.5 1 0.5 0.4127262 0.98461 1 0.98461 1 0.5 0 0.98461 0.4127262 0.98461 0.4127262 0.5 0 0.5 0.4127262 0.5 0.4127262 0.01538997 0.4127262 0.01538997 0.4127262 0.5 1 0.5 0.4127262 0.5 1 0.5 1 0.98461 0 0.5 0.4127262 0.5 0.4127262 0.98461 0.4127262 0.01538997 0.4127262 0.5 0 0.5 0.4127262 0.01538997 1 0.01538997 1 0.5 1 0.5 1 0.98461 0.4127262 0.98461 0 0.5 0.4127262 0.5 0.4127262 0.98461 0.4127262 0.01538997 0.4127262 0.5 0 0.5 0.4127262 0.01538997 1 0.01538997 1 0.5 1 0.5 1 0.98461 0.4127262 0.98461 0.4127262 0.5 0.4127262 0.98461 0 0.98461 0.4127262 0.01538997 0.4127262 0.5 0 0.5 1 0.01538997 1 0.5 0.4127262 0.5 0.4127262 0.5 1 0.5 1 0.98461 0 0.5 0.4127262 0.5 0.4127262 0.98461 0 0.01538997 0.4127262 0.01538997 0.4127262 0.5 0.4127262 0.01538997 1 0.01538997 1 0.5 0.4127262 0.5 1 0.5 1 0.98461 0 0.5 0.4127262 0.5 0.4127262 0.98461 0.4127262 0.01538997 0.4127262 0.5 0 0.5 0.4127262 0.01538997 1 0.01538997 1 0.5 1 0.5 1 0.98461 0.4127262 0.98461 0.4127262 0.5 0.4127262 0.98461 0 0.98461 0.4127262 0.01538997 0.4127262 0.5 0 0.5 0.4127262 0.01538997 1 0.01538997 1 0.5</float_array>
          <technique_common>
            <accessor source="#Tree_02-mesh-map-0-array" count="1485" stride="2">
              <param name="S" type="float"/>
              <param name="T" type="float"/>
            </accessor>
          </technique_common>
        </source>
        <vertices id="Tree_02-mesh-vertices">
          <input semantic="POSITION" source="#Tree_02-mesh-positions"/>
        </vertices>
        <triangles material="BarkDecidious-material" count="111">
          <input semantic="VERTEX" source="#Tree_02-mesh-vertices" offset="0"/>
          <input semantic="NORMAL" source="#Tree_02-mesh-normals" offset="1"/>
          <input semantic="TEXCOORD" source="#Tree_02-mesh-map-0" offset="2" set="0"/>
          <p>0 0 0 3 1 1 2 2 2 2 2 3 5 3 4 4 4 5 5 3 6 6 5 7 4 4 8 28 6 9 12 7 10 27 8 11 7 9 12 8 10 13 6 5 14 9 11 15 0 0 16 8 10 17 41 12 18 18 13 19 19 14 20 26 15 21 11 16 22 25 17 23 25 17 24 10 18 25 28 6 26 30 19 27 12 7 28 13 20 29 13 20 30 34 21 31 30 19 32 18 13 33 24 22 34 19 14 35 42 23 36 17 24 37 43 25 38 44 26 39 56 27 40 57 28 41 43 25 42 18 13 43 40 29 44 42 23 45 16 30 46 15 31 47 21 32 48 24 22 49 29 33 50 17 24 51 20 34 52 22 35 53 16 30 54 24 22 55 21 32 56 17 24 57 23 36 58 18 13 59 15 31 60 21 32 61 20 34 62 1 37 63 28 6 64 3 1 65 23 36 66 22 35 67 29 33 68 20 34 69 21 32 70 29 33 71 24 22 72 23 36 73 29 33 74 22 35 75 20 34 76 29 33 77 5 3 78 30 19 79 7 9 80 9 11 81 30 19 82 26 15 83 1 37 84 26 15 85 25 17 86 3 1 87 27 8 88 5 3 89 32 38 90 38 39 91 34 21 92 14 40 93 33 41 94 31 42 95 13 20 96 31 42 97 32 38 98 30 19 99 33 41 100 26 15 101 37 43 102 38 39 103 39 44 104 31 42 105 37 43 106 35 45 107 34 21 108 37 43 109 33 41 110 32 38 111 35 45 112 36 46 113 36 46 114 35 45 115 39 44 116 38 39 117 36 46 118 39 44 119 35 45 120 37 43 121 39 44 122 10 18 123 44 26 124 42 23 125 12 7 126 40 29 127 13 20 128 11 16 129 41 12 130 44 26 131 10 18 132 43 25 133 12 7 134 41 12 135 45 47 136 47 48 137 46 49 138 49 50 139 45 47 140 13 20 141 45 47 142 14 40 143 13 20 144 48 51 145 46 49 146 40 29 147 47 48 148 48 51 149 52 52 150 51 53 151 53 54 152 48 51 153 51 53 154 52 52 155 47 48 156 49 50 157 51 53 158 48 51 159 50 55 160 46 49 161 51 53 162 49 50 163 53 54 164 50 55 165 52 52 166 53 54 167 49 50 168 50 55 169 53 54 170 56 27 171 55 56 172 58 57 173 19 14 174 56 27 175 41 12 176 16 30 177 55 56 178 19 14 179 16 30 180 57 28 181 54 58 182 54 58 183 57 28 184 58 57 185 55 56 186 54 58 187 58 57 188 57 28 189 56 27 190 58 57 191 0 0 768 1 37 769 3 1 770 2 2 771 3 1 772 5 3 773 5 3 774 7 9 775 6 5 776 28 6 777 10 18 778 12 7 779 7 9 780 9 11 781 8 10 782 9 11 783 1 37 784 0 0 785 41 12 786 40 29 787 18 13 788 26 15 789 14 40 790 11 16 791 25 17 792 11 16 793 10 18 794 30 19 795 27 8 796 12 7 797 13 20 798 32 38 799 34 21 800 18 13 801 23 36 802 24 22 803 42 23 804 15 31 805 17 24 806 44 26 807 41 12 808 56 27 809 43 25 810 17 24 811 18 13 812 42 23 813 44 26 814 16 30 815 17 24 816 15 31 817 20 34 818 16 30 819 19 14 820 24 22 821 17 24 822 22 35 823 23 36 824 15 31 825 16 30 826 21 32 827 1 37 828 25 17 829 28 6 830 5 3 831 27 8 832 30 19 833 9 11 834 7 9 835 30 19 836 1 37 837 9 11 838 26 15 839 3 1 840 28 6 841 27 8 842 32 38 843 36 46 844 38 39 845 14 40 846 26 15 847 33 41 848 13 20 849 14 40 850 31 42 851 30 19 852 34 21 853 33 41 854 31 42 855 33 41 856 37 43 857 34 21 858 38 39 859 37 43 860 32 38 861 31 42 862 35 45 863 10 18 864 11 16 865 44 26 866 12 7 867 43 25 868 40 29 869 11 16 870 14 40 871 41 12 872 10 18 873 42 23 874 43 25 875 41 12 876 14 40 877 45 47 878 46 49 879 50 55 880 49 50 881 13 20 882 46 49 883 45 47 884 13 20 885 40 29 886 48 51 887 40 29 888 41 12 889 47 48 890 48 51 891 47 48 892 51 53 893 47 48 894 45 47 895 49 50 896 48 51 897 52 52 898 50 55 899 19 14 900 55 56 901 56 27 902 16 30 903 54 58 904 55 56 905 16 30 906 44 26 907 57 28 908</p>
        </triangles>
        <triangles material="Branch-material" count="384">
          <input semantic="VERTEX" source="#Tree_02-mesh-vertices" offset="0"/>
          <input semantic="NORMAL" source="#Tree_02-mesh-normals" offset="1"/>
          <input semantic="TEXCOORD" source="#Tree_02-mesh-map-0" offset="2" set="0"/>
          <p>67 59 192 62 60 193 66 61 194 65 62 195 64 63 196 67 59 197 65 62 198 63 64 199 59 65 200 63 64 201 66 61 202 60 66 203 73 67 204 75 68 205 76 69 206 74 70 207 73 67 208 76 69 209 74 70 210 72 71 211 68 72 212 72 71 213 75 68 214 69 73 215 82 74 216 84 75 217 85 76 218 79 77 219 85 76 220 83 78 221 83 78 222 81 79 223 77 80 224 85 76 225 78 81 226 81 79 227 91 82 228 93 83 229 94 84 230 92 85 231 91 82 232 94 84 233 86 86 234 94 84 235 90 87 236 90 87 237 93 83 238 87 88 239 103 89 240 98 90 241 102 91 242 101 92 243 100 93 244 103 89 245 101 92 246 99 94 247 95 95 248 99 94 249 102 91 250 96 96 251 109 97 252 111 98 253 112 99 254 106 100 255 112 99 256 110 101 257 110 101 258 108 102 259 104 103 260 108 102 261 111 98 262 105 104 263 121 105 264 116 106 265 118 107 266 119 108 267 118 107 268 115 109 269 117 110 270 119 108 271 113 111 272 117 110 273 120 112 274 121 105 275 129 113 276 127 114 277 130 115 278 128 116 279 127 114 280 124 117 281 126 118 282 128 116 283 122 119 284 126 118 285 129 113 286 130 115 287 138 120 288 136 121 289 139 122 290 139 122 291 133 123 292 137 124 293 135 125 294 137 124 295 131 126 296 132 127 297 139 122 298 135 125 299 147 128 300 145 129 301 148 130 302 146 131 303 145 129 304 142 132 305 140 133 306 148 130 307 146 131 308 144 134 309 147 128 310 148 130 311 157 135 312 152 136 313 154 137 314 155 138 315 154 137 316 151 139 317 153 140 318 155 138 319 149 141 320 153 140 321 156 142 322 157 135 323 165 143 324 163 144 325 166 145 326 166 145 327 160 146 328 164 147 329 162 148 330 164 147 331 158 149 332 162 148 333 165 143 334 166 145 335 175 150 336 170 151 337 174 152 338 173 153 339 172 154 340 175 150 341 173 153 342 171 155 343 167 156 344 171 155 345 174 152 346 168 157 347 181 158 348 183 159 349 184 160 350 182 161 351 181 158 352 184 160 353 182 161 354 180 162 355 176 163 356 180 162 357 183 159 358 177 164 359 190 165 360 192 166 361 193 167 362 187 168 363 193 167 364 191 169 365 191 169 366 189 170 367 185 171 368 193 167 369 186 172 370 189 170 371 202 173 372 197 174 373 201 175 374 200 176 375 199 177 376 202 173 377 194 178 378 202 173 379 198 179 380 198 179 381 201 175 382 195 180 383 211 181 384 206 182 385 210 183 386 209 184 387 208 185 388 211 181 389 209 184 390 207 186 391 203 187 392 207 186 393 210 183 394 204 188 395 217 189 396 219 190 397 220 191 398 214 192 399 220 191 400 218 193 401 218 193 402 216 194 403 212 195 404 216 194 405 219 190 406 213 196 407 229 197 408 224 198 409 226 199 410 227 200 411 226 199 412 223 201 413 225 202 414 227 200 415 221 203 416 225 202 417 228 204 418 229 197 419 237 205 420 235 206 421 238 207 422 236 208 423 235 206 424 232 209 425 234 210 426 236 208 427 230 211 428 234 210 429 237 205 430 238 207 431 246 212 432 244 213 433 247 214 434 247 214 435 241 215 436 245 216 437 243 217 438 245 216 439 239 218 440 240 219 441 247 214 442 243 217 443 256 220 444 251 221 445 253 222 446 254 223 447 253 222 448 250 224 449 248 225 450 256 220 451 254 223 452 252 226 453 255 227 454 256 220 455 265 228 456 260 229 457 262 230 458 263 231 459 262 230 460 259 232 461 261 233 462 263 231 463 257 234 464 261 233 465 264 235 466 265 228 467 273 236 468 271 237 469 274 238 470 274 238 471 268 239 472 272 240 473 270 241 474 272 240 475 266 242 476 270 241 477 273 236 478 274 238 479 283 243 480 278 244 481 282 245 482 281 246 483 280 247 484 283 243 485 281 246 486 279 248 487 275 249 488 279 248 489 282 245 490 276 250 491 289 251 492 291 252 493 292 253 494 290 254 495 289 251 496 292 253 497 290 254 498 288 255 499 284 256 500 288 255 501 291 252 502 285 257 503 298 258 504 300 259 505 301 260 506 295 261 507 301 260 508 299 262 509 299 262 510 297 263 511 293 264 512 301 260 513 294 265 514 297 263 515 310 266 516 305 267 517 309 268 518 308 269 519 307 270 520 310 266 521 302 271 522 310 266 523 306 272 524 306 272 525 309 268 526 303 273 527 319 274 528 314 275 529 318 276 530 317 277 531 316 278 532 319 274 533 317 277 534 315 279 535 311 280 536 315 279 537 318 276 538 312 281 539 325 282 540 327 283 541 328 284 542 322 285 543 328 284 544 326 286 545 326 286 546 324 287 547 320 288 548 324 287 549 327 283 550 321 289 551 337 290 552 332 291 553 334 292 554 335 293 555 334 292 556 331 294 557 333 295 558 335 293 559 329 296 560 333 295 561 336 297 562 337 290 563 345 298 564 343 299 565 346 300 566 344 301 567 343 299 568 340 302 569 342 303 570 344 301 571 338 304 572 342 303 573 345 298 574 346 300 575 354 305 576 352 306 577 355 307 578 355 307 579 349 308 580 353 309 581 351 310 582 353 309 583 347 311 584 348 312 585 355 307 586 351 310 587 364 313 588 359 314 589 361 315 590 362 316 591 361 315 592 358 317 593 356 318 594 364 313 595 362 316 596 360 319 597 363 320 598 364 313 599 373 321 600 368 322 601 370 323 602 371 324 603 370 323 604 367 325 605 369 326 606 371 324 607 365 327 608 369 326 609 372 328 610 373 321 611 381 329 612 379 330 613 382 331 614 382 331 615 376 332 616 380 333 617 378 334 618 380 333 619 374 335 620 378 334 621 381 329 622 382 331 623 391 336 624 386 337 625 390 338 626 389 339 627 388 340 628 391 336 629 389 339 630 387 341 631 383 342 632 387 341 633 390 338 634 384 343 635 397 344 636 399 345 637 400 346 638 398 347 639 397 344 640 400 346 641 398 347 642 396 348 643 392 349 644 396 348 645 399 345 646 393 350 647 406 351 648 408 352 649 409 353 650 403 354 651 409 353 652 407 355 653 407 355 654 405 356 655 401 357 656 409 353 657 402 358 658 405 356 659 418 359 660 413 360 661 417 361 662 416 362 663 415 363 664 418 359 665 410 364 666 418 359 667 414 365 668 414 365 669 417 361 670 411 366 671 427 367 672 422 368 673 426 369 674 425 370 675 424 371 676 427 367 677 425 370 678 423 372 679 419 373 680 423 372 681 426 369 682 420 374 683 433 375 684 435 376 685 436 377 686 430 378 687 436 377 688 434 379 689 434 379 690 432 380 691 428 381 692 432 380 693 435 376 694 429 382 695 445 383 696 440 384 697 442 385 698 443 386 699 442 385 700 439 387 701 441 388 702 443 386 703 437 389 704 441 388 705 444 390 706 445 383 707 453 391 708 451 392 709 454 393 710 452 394 711 451 392 712 448 395 713 450 396 714 452 394 715 446 397 716 450 396 717 453 391 718 454 393 719 462 398 720 460 399 721 463 400 722 463 400 723 457 401 724 461 402 725 459 403 726 461 402 727 455 404 728 456 405 729 463 400 730 459 403 731 472 406 732 467 407 733 469 408 734 470 409 735 469 408 736 466 410 737 464 411 738 472 406 739 470 409 740 468 412 741 471 413 742 472 406 743 481 414 744 476 415 745 478 416 746 479 417 747 478 416 748 475 418 749 477 419 750 479 417 751 473 420 752 477 419 753 480 421 754 481 414 755 489 422 756 487 423 757 490 424 758 490 424 759 484 425 760 488 426 761 486 427 762 488 426 763 482 428 764 486 427 765 489 422 766 490 424 767 67 59 909 64 63 910 62 60 911 65 62 912 61 429 913 64 63 914 65 62 915 67 59 916 63 64 917 63 64 918 67 59 919 66 61 920 73 67 921 71 430 922 75 68 923 74 70 924 70 431 925 73 67 926 74 70 927 76 69 928 72 71 929 72 71 930 76 69 931 75 68 932 82 74 933 80 432 934 84 75 935 79 77 936 82 74 937 85 76 938 83 78 939 85 76 940 81 79 941 85 76 942 84 75 943 78 81 944 91 82 945 89 433 946 93 83 947 92 85 948 88 434 949 91 82 950 86 86 951 92 85 952 94 84 953 90 87 954 94 84 955 93 83 956 103 89 957 100 93 958 98 90 959 101 92 960 97 435 961 100 93 962 101 92 963 103 89 964 99 94 965 99 94 966 103 89 967 102 91 968 109 97 969 107 436 970 111 98 971 106 100 972 109 97 973 112 99 974 110 101 975 112 99 976 108 102 977 108 102 978 112 99 979 111 98 980 121 105 981 120 112 982 116 106 983 119 108 984 121 105 985 118 107 986 117 110 987 121 105 988 119 108 989 117 110 990 114 437 991 120 112 992 129 113 993 125 438 994 127 114 995 128 116 996 130 115 997 127 114 998 126 118 999 130 115 1000 128 116 1001 126 118 1002 123 439 1003 129 113 1004 138 120 1005 134 440 1006 136 121 1007 139 122 1008 136 121 1009 133 123 1010 135 125 1011 139 122 1012 137 124 1013 132 127 1014 138 120 1015 139 122 1016 147 128 1017 143 441 1018 145 129 1019 146 131 1020 148 130 1021 145 129 1022 140 133 1023 144 134 1024 148 130 1025 144 134 1026 141 442 1027 147 128 1028 157 135 1029 156 142 1030 152 136 1031 155 138 1032 157 135 1033 154 137 1034 153 140 1035 157 135 1036 155 138 1037 153 140 1038 150 443 1039 156 142 1040 165 143 1041 161 444 1042 163 144 1043 166 145 1044 163 144 1045 160 146 1046 162 148 1047 166 145 1048 164 147 1049 162 148 1050 159 445 1051 165 143 1052 175 150 1053 172 154 1054 170 151 1055 173 153 1056 169 446 1057 172 154 1058 173 153 1059 175 150 1060 171 155 1061 171 155 1062 175 150 1063 174 152 1064 181 158 1065 179 447 1066 183 159 1067 182 161 1068 178 448 1069 181 158 1070 182 161 1071 184 160 1072 180 162 1073 180 162 1074 184 160 1075 183 159 1076 190 165 1077 188 449 1078 192 166 1079 187 168 1080 190 165 1081 193 167 1082 191 169 1083 193 167 1084 189 170 1085 193 167 1086 192 166 1087 186 172 1088 202 173 1089 199 177 1090 197 174 1091 200 176 1092 196 450 1093 199 177 1094 194 178 1095 200 176 1096 202 173 1097 198 179 1098 202 173 1099 201 175 1100 211 181 1101 208 185 1102 206 182 1103 209 184 1104 205 451 1105 208 185 1106 209 184 1107 211 181 1108 207 186 1109 207 186 1110 211 181 1111 210 183 1112 217 189 1113 215 452 1114 219 190 1115 214 192 1116 217 189 1117 220 191 1118 218 193 1119 220 191 1120 216 194 1121 216 194 1122 220 191 1123 219 190 1124 229 197 1125 228 204 1126 224 198 1127 227 200 1128 229 197 1129 226 199 1130 225 202 1131 229 197 1132 227 200 1133 225 202 1134 222 453 1135 228 204 1136 237 205 1137 233 454 1138 235 206 1139 236 208 1140 238 207 1141 235 206 1142 234 210 1143 238 207 1144 236 208 1145 234 210 1146 231 455 1147 237 205 1148 246 212 1149 242 456 1150 244 213 1151 247 214 1152 244 213 1153 241 215 1154 243 217 1155 247 214 1156 245 216 1157 240 219 1158 246 212 1159 247 214 1160 256 220 1161 255 227 1162 251 221 1163 254 223 1164 256 220 1165 253 222 1166 248 225 1167 252 226 1168 256 220 1169 252 226 1170 249 457 1171 255 227 1172 265 228 1173 264 235 1174 260 229 1175 263 231 1176 265 228 1177 262 230 1178 261 233 1179 265 228 1180 263 231 1181 261 233 1182 258 458 1183 264 235 1184 273 236 1185 269 459 1186 271 237 1187 274 238 1188 271 237 1189 268 239 1190 270 241 1191 274 238 1192 272 240 1193 270 241 1194 267 460 1195 273 236 1196 283 243 1197 280 247 1198 278 244 1199 281 246 1200 277 461 1201 280 247 1202 281 246 1203 283 243 1204 279 248 1205 279 248 1206 283 243 1207 282 245 1208 289 251 1209 287 462 1210 291 252 1211 290 254 1212 286 463 1213 289 251 1214 290 254 1215 292 253 1216 288 255 1217 288 255 1218 292 253 1219 291 252 1220 298 258 1221 296 464 1222 300 259 1223 295 261 1224 298 258 1225 301 260 1226 299 262 1227 301 260 1228 297 263 1229 301 260 1230 300 259 1231 294 265 1232 310 266 1233 307 270 1234 305 267 1235 308 269 1236 304 465 1237 307 270 1238 302 271 1239 308 269 1240 310 266 1241 306 272 1242 310 266 1243 309 268 1244 319 274 1245 316 278 1246 314 275 1247 317 277 1248 313 466 1249 316 278 1250 317 277 1251 319 274 1252 315 279 1253 315 279 1254 319 274 1255 318 276 1256 325 282 1257 323 467 1258 327 283 1259 322 285 1260 325 282 1261 328 284 1262 326 286 1263 328 284 1264 324 287 1265 324 287 1266 328 284 1267 327 283 1268 337 290 1269 336 297 1270 332 291 1271 335 293 1272 337 290 1273 334 292 1274 333 295 1275 337 290 1276 335 293 1277 333 295 1278 330 468 1279 336 297 1280 345 298 1281 341 469 1282 343 299 1283 344 301 1284 346 300 1285 343 299 1286 342 303 1287 346 300 1288 344 301 1289 342 303 1290 339 470 1291 345 298 1292 354 305 1293 350 471 1294 352 306 1295 355 307 1296 352 306 1297 349 308 1298 351 310 1299 355 307 1300 353 309 1301 348 312 1302 354 305 1303 355 307 1304 364 313 1305 363 320 1306 359 314 1307 362 316 1308 364 313 1309 361 315 1310 356 318 1311 360 319 1312 364 313 1313 360 319 1314 357 472 1315 363 320 1316 373 321 1317 372 328 1318 368 322 1319 371 324 1320 373 321 1321 370 323 1322 369 326 1323 373 321 1324 371 324 1325 369 326 1326 366 473 1327 372 328 1328 381 329 1329 377 474 1330 379 330 1331 382 331 1332 379 330 1333 376 332 1334 378 334 1335 382 331 1336 380 333 1337 378 334 1338 375 475 1339 381 329 1340 391 336 1341 388 340 1342 386 337 1343 389 339 1344 385 476 1345 388 340 1346 389 339 1347 391 336 1348 387 341 1349 387 341 1350 391 336 1351 390 338 1352 397 344 1353 395 477 1354 399 345 1355 398 347 1356 394 478 1357 397 344 1358 398 347 1359 400 346 1360 396 348 1361 396 348 1362 400 346 1363 399 345 1364 406 351 1365 404 479 1366 408 352 1367 403 354 1368 406 351 1369 409 353 1370 407 355 1371 409 353 1372 405 356 1373 409 353 1374 408 352 1375 402 358 1376 418 359 1377 415 363 1378 413 360 1379 416 362 1380 412 480 1381 415 363 1382 410 364 1383 416 362 1384 418 359 1385 414 365 1386 418 359 1387 417 361 1388 427 367 1389 424 371 1390 422 368 1391 425 370 1392 421 481 1393 424 371 1394 425 370 1395 427 367 1396 423 372 1397 423 372 1398 427 367 1399 426 369 1400 433 375 1401 431 482 1402 435 376 1403 430 378 1404 433 375 1405 436 377 1406 434 379 1407 436 377 1408 432 380 1409 432 380 1410 436 377 1411 435 376 1412 445 383 1413 444 390 1414 440 384 1415 443 386 1416 445 383 1417 442 385 1418 441 388 1419 445 383 1420 443 386 1421 441 388 1422 438 483 1423 444 390 1424 453 391 1425 449 484 1426 451 392 1427 452 394 1428 454 393 1429 451 392 1430 450 396 1431 454 393 1432 452 394 1433 450 396 1434 447 485 1435 453 391 1436 462 398 1437 458 486 1438 460 399 1439 463 400 1440 460 399 1441 457 401 1442 459 403 1443 463 400 1444 461 402 1445 456 405 1446 462 398 1447 463 400 1448 472 406 1449 471 413 1450 467 407 1451 470 409 1452 472 406 1453 469 408 1454 464 411 1455 468 412 1456 472 406 1457 468 412 1458 465 487 1459 471 413 1460 481 414 1461 480 421 1462 476 415 1463 479 417 1464 481 414 1465 478 416 1466 477 419 1467 481 414 1468 479 417 1469 477 419 1470 474 488 1471 480 421 1472 489 422 1473 485 489 1474 487 423 1475 490 424 1476 487 423 1477 484 425 1478 486 427 1479 490 424 1480 488 426 1481 486 427 1482 483 490 1483 489 422 1484</p>
        </triangles>
      </mesh>
    </geometry>
  </library_geometries>
  <library_visual_scenes>
    <visual_scene id="Scene" name="Scene">
      <node id="Tree_02" name="Tree_02" type="NODE">
        <matrix sid="transform">-1 3.25841e-7 0 0 -3.25841e-7 -1 0 0 0 0 1 0 0 0 0 1</matrix>
        <instance_geometry url="#Tree_02-mesh" name="Tree_02">
          <bind_material>
            <technique_common>
              <instance_material symbol="BarkDecidious-material" target="#BarkDecidious-material">
                <bind_vertex_input semantic="UVMap" input_semantic="TEXCOORD" input_set="0"/>
              </instance_material>
              <instance_material symbol="Branch-material" target="#Branch-material">
                <bind_vertex_input semantic="UVMap" input_semantic="TEXCOORD" input_set="0"/>
              </instance_material>
            </technique_common>
          </bind_material>
        </instance_geometry>
      </node>
    </visual_scene>
  </library_visual_scenes>
  <scene>
    <instance_visual_scene url="#Scene"/>
  </scene>
</COLLADA>