<?xml version="1.0" encoding="utf-8"?>
<COLLADA xmlns="http://www.collada.org/2005/11/COLLADASchema" version="1.4.1" xmlns:xsi="http://www.w3.org/2001/XMLSchema-instance">
  <asset>
    <contributor>
      <author>Blender User</author>
      <authoring_tool>Blender 4.0.1 commit date:2023-11-16, commit time:16:40, hash:d0dd92834a08</authoring_tool>
    </contributor>
    <created>2023-11-28T13:04:53</created>
    <modified>2023-11-28T13:04:53</modified>
    <unit name="meter" meter="1"/>
    <up_axis>Z_UP</up_axis>
  </asset>
  <library_effects>
    <effect id="BarkDecidious-effect">
      <profile_COMMON>
        <newparam sid="BarkDecidious_jpg-surface">
          <surface type="2D">
            <init_from>BarkDecidious_jpg</init_from>
          </surface>
        </newparam>
        <newparam sid="BarkDecidious_jpg-sampler">
          <sampler2D>
            <source>BarkDecidious_jpg-surface</source>
          </sampler2D>
        </newparam>
        <technique sid="common">
          <lambert>
            <emission>
              <color sid="emission">0 0 0 1</color>
            </emission>
            <diffuse>
              <texture texture="BarkDecidious_jpg-sampler" texcoord="UVMap"/>
            </diffuse>
            <index_of_refraction>
              <float sid="ior">1.45</float>
            </index_of_refraction>
          </lambert>
        </technique>
      </profile_COMMON>
    </effect>
    <effect id="Branch-effect">
      <profile_COMMON>
        <newparam sid="Branch_png-surface">
          <surface type="2D">
            <init_from>Branch_png</init_from>
          </surface>
        </newparam>
        <newparam sid="Branch_png-sampler">
          <sampler2D>
            <source>Branch_png-surface</source>
          </sampler2D>
        </newparam>
        <technique sid="common">
          <lambert>
            <emission>
              <color sid="emission">0 0 0 1</color>
            </emission>
            <diffuse>
              <texture texture="Branch_png-sampler" texcoord="UVMap"/>
            </diffuse>
            <index_of_refraction>
              <float sid="ior">1.45</float>
            </index_of_refraction>
          </lambert>
        </technique>
      </profile_COMMON>
    </effect>
  </library_effects>
  <library_images>
    <image id="BarkDecidious_jpg" name="BarkDecidious_jpg">
      <init_from>BarkDecidious.jpg</init_from>
    </image>
    <image id="Branch_png" name="Branch_png">
      <init_from>Branch.png</init_from>
    </image>
  </library_images>
  <library_materials>
    <material id="BarkDecidious-material" name="BarkDecidious">
      <instance_effect url="#BarkDecidious-effect"/>
    </material>
    <material id="Branch-material" name="Branch">
      <instance_effect url="#Branch-effect"/>
    </material>
  </library_materials>
  <library_geometries>
    <geometry id="Tree_01-mesh" name="Tree_01">
      <mesh>
        <source id="Tree_01-mesh-positions">
          <float_array id="Tree_01-mesh-positions-array" count="1473">0 1 -0.4522167 -1.15476e-6 0.6972866 0.8543279 0.8660254 0.5 -0.4522167 0.6038668 0.3486433 0.8543279 0.8660254 -0.5 -0.4522167 0.6038668 -0.3486433 0.8543279 0 -1 -0.4522167 -1.15476e-6 -0.6972866 0.8543279 -0.8660254 -0.5 -0.4522167 -0.603869 -0.3486433 0.8543279 -0.8660254 0.5 -0.4522167 -0.603869 0.3486433 0.8543279 0.6106023 -0.07550179 6.333527 0.1717994 0.159315 6.719462 0.6178026 -0.5873004 6.259647 0.1861999 -0.8642823 6.326342 -0.2526029 -0.6294654 6.712277 -0.2598032 -0.1176667 6.786156 0.5066601 -0.346602 7.401345 0.1482137 0.1817783 7.229961 0.3017675 -0.9200862 7.01977 0.1320728 -0.6665819 7.264296 -0.2263737 -0.1382016 7.270938 -0.2913078 0.5887078 9.989677 -0.5104981 0.8326076 9.937102 -0.759999 0.618171 9.982507 -0.5408088 0.3742713 10.03508 -1.951161 0.3744458 15.10749 -0.9702772 -2.009779 7.631308 -0.732285 -2.188742 7.439916 -0.5656729 -1.857661 7.737653 -0.4977233 -2.076873 7.624956 1.014912 -1.331005 7.881704 1.179723 -0.8731259 7.815342 -0.8363478 -3.548043 10.12508 1.202724 -1.151714 7.767737 0.9689108 -0.7738283 7.976912 0.8040997 -1.231708 8.043274 0.7810991 -0.9531191 8.090879 2.431712 -1.996399 9.065136 2.402799 -1.810799 9.176881 2.203145 -1.754807 9.245969 2.260971 -2.126006 9.022481 2.061317 -2.070014 9.091569 2.032404 -1.884414 9.203314 2.814124 -2.102805 13.38006 -0.204368 -0.1461552 8.738702 -0.4931864 0.2399846 8.626723 -0.1811422 0.507193 8.583532 0.1076761 0.1210529 8.695511 -0.303174 0.006683707 9.119423 -0.2778675 0.6027609 8.981049 -0.571544 0.3510505 9.02489 -0.009497523 0.2583939 9.075583 1.015139 -0.08838886 10.12606 1.178202 -0.2158618 10.00932 1.001128 -0.3611586 9.965117 0.8474888 -0.2248004 10.08592 2.197743 0.5038582 12.74912 2.031038 1.987887 11.49444 -3.809773 -0.3788874 11.96376 2.785095 0.1452946 19.67468 -1.672725 -1.661073 20.03287 -0.1302103 0.3198773 11.30647 0.9777992 -0.6904831 19.77268 3.27138 -0.2797529 15.49519 -2.569431 -2.646528 15.9645 1.110132 -1.947763 15.30721 -2.628293 -0.7088924 9.711613 3.710958 0.4674206 9.136638 -2.177086 1.504096 19.16055 4.162165 2.680408 18.58558 -0.1749404 0.5167972 9.124821 0.4114006 2.116215 18.86346 -2.729244 1.902469 13.94928 3.610007 3.078782 13.37431 -0.2758921 3.128159 13.36249 1.692417 -1.383695 9.334257 -1.69069 4.018 9.618438 0.6155644 -2.270978 18.90427 -2.767543 3.130717 19.18845 -0.3829801 0.4321327 9.142556 -0.8969053 -0.1123094 18.9687 -0.2010632 -2.674645 13.71297 -3.584171 2.727051 13.99715 -2.276461 -0.8588172 13.52127 0.04381436 3.028343 9.493645 -2.199098 -2.987984 9.636569 2.71932 2.418752 18.73914 0.4764078 -3.597576 18.88207 -0.1923962 0.2841889 9.125473 1.911563 -0.1090035 18.72506 2.804108 2.20928 13.47036 0.5611964 -3.807048 13.61328 2.567898 -0.5348749 13.10219 -2.422243 1.438773 11.87876 2.527367 -2.345415 11.40667 -0.1363544 2.371967 19.93639 3.641283 -0.5161985 19.57608 0.05089759 0.4611381 11.29128 1.478957 1.25622 19.73642 -0.5236487 3.497871 15.83845 4.425961 -0.2863173 15.36635 1.949491 2.520236 15.25096 -0.1265473 -2.115633 11.66642 1.633876 3.888261 11.5073 -0.8645961 -1.066567 19.98682 0.4789927 3.515722 19.86538 -0.1451822 0.5548085 11.30864 -0.4073582 0.8497946 19.89856 -2.234122 -1.347548 15.96888 -0.4736986 4.656346 15.80976 -2.252757 1.322893 15.6111 2.031038 1.987887 11.49444 -3.809773 -0.3788874 11.96376 2.785095 0.1452946 19.67468 -1.672725 -1.661073 20.03287 -0.1302103 0.3198773 11.30647 0.9777992 -0.6904831 19.77268 3.27138 -0.2797529 15.49519 -2.569431 -2.646528 15.9645 1.110132 -1.947763 15.30721 -2.628293 -0.7088924 9.711613 3.710958 0.4674206 9.136638 -2.177086 1.504096 19.16055 4.162165 2.680408 18.58558 -0.1749404 0.5167972 9.124821 0.4114006 2.116215 18.86346 -2.729244 1.902469 13.94928 3.610007 3.078782 13.37431 -0.2758921 3.128159 13.36249 1.692417 -1.383695 9.334257 -1.69069 4.018 9.618438 0.6155644 -2.270978 18.90427 -2.767543 3.130717 19.18845 -0.3829801 0.4321327 9.142556 -0.8969053 -0.1123094 18.9687 -0.2010632 -2.674645 13.71297 -3.584171 2.727051 13.99715 -2.276461 -0.8588172 13.52127 0.04381436 3.028343 9.493645 -2.199098 -2.987984 9.636569 2.71932 2.418752 18.73914 0.4764078 -3.597576 18.88207 -0.1923962 0.2841889 9.125473 1.911563 -0.1090035 18.72506 2.804108 2.20928 13.47036 0.5611964 -3.807048 13.61328 2.567898 -0.5348749 13.10219 -2.422243 1.438773 11.87876 2.527367 -2.345415 11.40667 -0.1363544 2.371967 19.93639 3.641283 -0.5161985 19.57608 0.05089759 0.4611381 11.29128 1.478957 1.25622 19.73642 -0.5236487 3.497871 15.83845 4.425961 -0.2863173 15.36635 1.949491 2.520236 15.25096 -0.1265473 -2.115633 11.66642 1.633876 3.888261 11.5073 -0.8645961 -1.066567 19.98682 0.4789927 3.515722 19.86538 -0.1451822 0.5548085 11.30864 -0.4073582 0.8497946 19.89856 -2.234122 -1.347548 15.96888 -0.4736986 4.656346 15.80976 -2.252757 1.322893 15.6111 1.865761 -0.5286398 9.789548 -4.282285 -2.557768 10.64477 3.060441 -2.622804 18.14882 -1.631868 -4.171473 18.80154 -0.4911553 -2.08984 9.723278 1.147374 -3.356472 18.36347 3.24728 -3.023775 13.80102 -2.900766 -5.052903 14.65624 0.8903637 -4.584976 13.73475 -3.243199 -2.943781 8.237573 3.323939 -2.175609 7.224377 -1.979724 -0.857832 17.97621 4.587413 -0.08965861 16.96301 -0.6703149 -1.846085 7.479484 0.7071759 -0.4072416 17.49989 -2.870958 -0.3178907 12.64615 3.696179 0.4502821 11.63295 -0.2980747 0.7798054 11.88806 1.126573 -3.94241 7.54359 -1.94176 1.862861 8.136051 0.6012933 -4.944647 17.4733 -2.467041 0.860625 18.06576 -0.8892554 -1.918752 7.510991 -0.7932952 -2.612353 17.67042 -0.6188781 -5.212799 12.17199 -3.687211 0.5924728 12.76445 -2.634707 -3.189141 12.13939 -0.2379603 0.7206502 7.876024 -2.972332 -5.322402 8.102355 3.094676 -0.258625 17.2171 0.3603041 -6.301677 17.44343 -0.7051203 -2.084605 7.478456 2.079271 -2.805975 17.22652 2.81057 -0.3898642 11.77646 0.07619827 -6.432916 12.00279 2.34341 -3.19512 11.37889 -2.728796 -0.7821772 10.48456 2.055623 -5.029217 9.611008 0.2348467 -0.1228594 18.64688 3.886408 -3.364282 17.98016 -0.2956341 -1.956951 9.696949 1.801805 -1.385203 18.31595 -0.3587207 1.135991 14.46242 4.425699 -3.111048 13.58887 2.074442 -0.03878259 13.67481 -0.6399518 -4.60669 10.0638 1.596134 1.458395 9.853735 -0.760558 -3.615798 18.70601 0.9460659 1.013193 18.54569 -0.4893456 -1.846651 9.72947 -0.1570211 -1.671761 18.60751 -2.461225 -3.738088 14.65392 -0.2251398 2.326997 14.44386 -2.310619 -0.9780486 14.31959 1.865761 -0.5286398 9.789548 -4.282285 -2.557768 10.64477 3.060441 -2.622804 18.14882 -1.631868 -4.171473 18.80154 -0.4911553 -2.08984 9.723278 1.147374 -3.356472 18.36347 3.24728 -3.023775 13.80102 -2.900766 -5.052903 14.65624 0.8903637 -4.584976 13.73475 -3.243199 -2.943781 8.237573 3.323939 -2.175609 7.224377 -1.979724 -0.857832 17.97621 4.587413 -0.08965861 16.96301 -0.6703149 -1.846085 7.479484 0.7071759 -0.4072416 17.49989 -2.870958 -0.3178907 12.64615 3.696179 0.4502821 11.63295 -0.2980747 0.7798054 11.88806 1.126573 -3.94241 7.54359 -1.94176 1.862861 8.136051 0.6012933 -4.944647 17.4733 -2.467041 0.860625 18.06576 -0.8892554 -1.918752 7.510991 -0.7932952 -2.612353 17.67042 -0.6188781 -5.212799 12.17199 -3.687211 0.5924728 12.76445 -2.634707 -3.189141 12.13939 -0.2379603 0.7206502 7.876024 -2.972332 -5.322402 8.102355 3.094676 -0.258625 17.2171 0.3603041 -6.301677 17.44343 -0.7051203 -2.084605 7.478456 2.079271 -2.805975 17.22652 2.81057 -0.3898642 11.77646 0.07619827 -6.432916 12.00279 2.34341 -3.19512 11.37889 -2.728796 -0.7821772 10.48456 2.055623 -5.029217 9.611008 0.2348467 -0.1228594 18.64688 3.886408 -3.364282 17.98016 -0.2956341 -1.956951 9.696949 1.801805 -1.385203 18.31595 -0.3587207 1.135991 14.46242 4.425699 -3.111048 13.58887 2.074442 -0.03878259 13.67481 -0.6399518 -4.60669 10.0638 1.596134 1.458395 9.853735 -0.760558 -3.615798 18.70601 0.9460659 1.013193 18.54569 -0.4893456 -1.846651 9.72947 -0.1570211 -1.671761 18.60751 -2.461225 -3.738088 14.65392 -0.2251398 2.326997 14.44386 -2.310619 -0.9780486 14.31959 4.423186 -0.7370273 11.32444 -1.363519 -2.508465 11.54815 4.824788 -3.041576 19.04563 0.4082615 -4.393571 19.21636 2.220557 -2.125695 11.01336 3.026216 -3.685431 19.06342 5.333203 -3.241805 15.02998 -0.4535017 -5.013243 15.25369 3.130574 -4.630473 14.7189 -0.2209596 -2.792893 9.391005 5.940586 -2.192632 9.001029 0.2172975 -1.283244 18.56711 6.378842 -0.6829825 18.17713 2.237227 -1.805238 8.938466 2.745814 -0.9089241 18.35628 -0.1740088 -0.5474305 13.60025 5.987536 0.05283021 13.21028 2.284178 0.4402244 13.14771 3.850826 -3.790971 9.049562 1.083724 1.63279 9.601651 2.560936 -5.107766 18.1321 -0.2061655 0.315995 18.68419 2.031064 -1.868741 8.947386 1.302946 -2.923346 18.3035 1.847623 -5.11392 13.13201 -0.9194789 0.3098407 13.6841 0.02785992 -3.19169 13.02983 2.655707 0.5459564 9.446518 -0.006805181 -4.996694 9.187026 4.976529 -0.8151581 18.28797 2.314016 -6.357808 18.02848 2.20047 -2.025299 8.92474 3.987748 -3.15128 18.10993 5.141605 -0.7105628 13.23815 2.479093 -6.253212 12.97865 4.686367 -3.281818 12.71637 0.1190667 -0.8934927 11.59647 4.524237 -4.902476 10.98466 2.22442 -0.6808908 19.39013 5.58653 -3.740625 18.92318 2.405861 -2.006083 11.00993 3.673241 -1.872956 19.1538 2.031646 0.6676221 15.53432 6.436817 -3.341362 14.9225 4.318441 -0.4449687 14.94778 2.006725 -4.466999 11.20992 4.208096 1.10694 11.44644 1.231601 -3.895249 19.21967 2.91173 0.3588896 19.40019 2.226518 -1.900754 11.02947 1.835106 -2.10476 19.25787 -0.02145576 -3.805598 15.34132 2.179915 1.768341 15.57784 0.1983373 -1.239353 15.16088 4.423186 -0.7370273 11.32444 -1.363519 -2.508465 11.54815 4.824788 -3.041576 19.04563 0.4082615 -4.393571 19.21636 2.220557 -2.125695 11.01336 3.026216 -3.685431 19.06342 5.333203 -3.241805 15.02998 -0.4535017 -5.013243 15.25369 3.130574 -4.630473 14.7189 -0.2209596 -2.792893 9.391005 5.940586 -2.192632 9.001029 0.2172975 -1.283244 18.56711 6.378842 -0.6829825 18.17713 2.237227 -1.805238 8.938466 2.745814 -0.9089241 18.35628 -0.1740088 -0.5474305 13.60025 5.987536 0.05283021 13.21028 2.284178 0.4402244 13.14771 3.850826 -3.790971 9.049562 1.083724 1.63279 9.601651 2.560936 -5.107766 18.1321 -0.2061655 0.315995 18.68419 2.031064 -1.868741 8.947386 1.302946 -2.923346 18.3035 1.847623 -5.11392 13.13201 -0.9194789 0.3098407 13.6841 0.02785992 -3.19169 13.02983 2.655707 0.5459564 9.446518 -0.006805181 -4.996694 9.187026 4.976529 -0.8151581 18.28797 2.314016 -6.357808 18.02848 2.20047 -2.025299 8.92474 3.987748 -3.15128 18.10993 5.141605 -0.7105628 13.23815 2.479093 -6.253212 12.97865 4.686367 -3.281818 12.71637 0.1190667 -0.8934927 11.59647 4.524237 -4.902476 10.98466 2.22442 -0.6808908 19.39013 5.58653 -3.740625 18.92318 2.405861 -2.006083 11.00993 3.673241 -1.872956 19.1538 2.031646 0.6676221 15.53432 6.436817 -3.341362 14.9225 4.318441 -0.4449687 14.94778 2.006725 -4.466999 11.20992 4.208096 1.10694 11.44644 1.231601 -3.895249 19.21967 2.91173 0.3588896 19.40019 2.226518 -1.900754 11.02947 1.835106 -2.10476 19.25787 -0.02145576 -3.805598 15.34132 2.179915 1.768341 15.57784 0.1983373 -1.239353 15.16088 2.144734 -0.3173225 14.61209 -4.762392 -3.116183 15.16708 3.036455 -2.496304 24.28573 -2.235198 -4.632448 24.70931 -0.4110776 -2.289849 14.38979 0.8992133 -3.484664 24.40162 3.611517 -2.99895 19.34322 -3.295609 -5.79781 19.89822 1.055705 -4.971477 19.12093 -3.365217 -3.506434 12.50378 4.131346 -2.115371 11.82383 -2.831637 -0.8894363 23.67775 4.664926 0.5016277 22.9978 -0.4639737 -2.056979 11.80986 0.2294111 -0.1655664 23.32641 -3.484599 -0.4183344 17.51509 4.011964 0.9727292 16.83515 -0.5833557 1.031121 16.82117 1.744294 -4.304431 12.05753 -2.256443 2.083414 12.39359 0.470848 -5.353699 23.37468 -3.52989 1.034147 23.71074 -0.7099938 -2.1571 11.83083 -1.317743 -2.800937 23.45087 -0.4948654 -5.83106 17.23564 -4.495603 0.5567849 17.5717 -2.949154 -3.68373 17.00894 -0.2052825 0.9130824 12.24602 -2.857667 -6.201604 12.41503 2.958671 0.192202 23.1794 0.3062865 -6.922485 23.34842 -0.4846162 -2.332053 11.81063 2.003447 -2.797028 23.16275 3.058938 -0.05551195 16.94874 0.4065545 -7.170198 17.11775 2.779605 -3.300648 16.51335 -3.12155 -0.9666841 15.06657 2.731675 -5.441726 14.50829 -0.4183437 0.1368768 24.59522 4.048951 -3.278562 24.16913 -0.196906 -2.1228 14.37183 1.491864 -1.182565 24.35874 -0.8763435 1.468329 19.74914 4.976881 -3.006713 19.19087 2.048301 0.3122137 19.0544 -0.4067457 -5.169993 14.81546 1.675065 1.929989 14.62729 -1.279535 -3.929407 24.65486 0.3093429 1.489439 24.51125 -0.4287828 -2.012028 14.39236 -0.7388225 -1.663189 24.55049 -2.899085 -4.261685 19.90339 -0.8172743 2.838298 19.71522 -2.921122 -1.10372 19.48029 2.144734 -0.3173225 14.61209 -4.762392 -3.116183 15.16708 3.036455 -2.496304 24.28573 -2.235198 -4.632448 24.70931 -0.4110776 -2.289849 14.38979 0.8992133 -3.484664 24.40162 3.611517 -2.99895 19.34322 -3.295609 -5.79781 19.89822 1.055705 -4.971477 19.12093 -3.365217 -3.506434 12.50378 4.131346 -2.115371 11.82383 -2.831637 -0.8894363 23.67775 4.664926 0.5016277 22.9978 -0.4639737 -2.056979 11.80986 0.2294111 -0.1655664 23.32641 -3.484599 -0.4183344 17.51509 4.011964 0.9727292 16.83515 -0.5833557 1.031121 16.82117 1.744294 -4.304431 12.05753 -2.256443 2.083414 12.39359 0.470848 -5.353699 23.37468 -3.52989 1.034147 23.71074 -0.7099938 -2.1571 11.83083 -1.317743 -2.800937 23.45087 -0.4948654 -5.83106 17.23564 -4.495603 0.5567849 17.5717 -2.949154 -3.68373 17.00894 -0.2052825 0.9130824 12.24602 -2.857667 -6.201604 12.41503 2.958671 0.192202 23.1794 0.3062865 -6.922485 23.34842 -0.4846162 -2.332053 11.81063 2.003447 -2.797028 23.16275 3.058938 -0.05551195 16.94874 0.4065545 -7.170198 17.11775 2.779605 -3.300648 16.51335 -3.12155 -0.9666841 15.06657 2.731675 -5.441726 14.50829 -0.4183437 0.1368768 24.59522 4.048951 -3.278562 24.16913 -0.196906 -2.1228 14.37183 1.491864 -1.182565 24.35874 -0.8763435 1.468329 19.74914 4.976881 -3.006713 19.19087 2.048301 0.3122137 19.0544 -0.4067457 -5.169993 14.81546 1.675065 1.929989 14.62729 -1.279535 -3.929407 24.65486 0.3093429 1.489439 24.51125 -0.4287828 -2.012028 14.39236 -0.7388225 -1.663189 24.55049 -2.899085 -4.261685 19.90339 -0.8172743 2.838298 19.71522 -2.921122 -1.10372 19.48029</float_array>
          <technique_common>
            <accessor source="#Tree_01-mesh-positions-array" count="491" stride="3">
              <param name="X" type="float"/>
              <param name="Y" type="float"/>
              <param name="Z" type="float"/>
            </accessor>
          </technique_common>
        </source>
        <source id="Tree_01-mesh-normals">
          <float_array id="Tree_01-mesh-normals-array" count="1473">1.58996e-7 0.8520442 -0.5234699 0.8526749 0.5042224 0.136768 0.7378921 0.4260221 -0.5234696 0.7378922 -0.4260221 -0.5234696 0.8640218 -0.4921644 0.1060208 1.69254e-7 -0.8520442 -0.52347 -0.004730939 -0.9945759 0.103906 -0.7378918 -0.4260221 -0.5234702 -0.8634383 -0.4867677 0.1324064 -0.8906487 0.4502083 0.06369763 -0.8521464 0.4979927 0.1607785 -0.7378917 0.4260221 -0.5234702 -0.003974616 0.9866289 0.1629343 0.1975679 0.9767737 -0.08294743 0.08548963 0.9907709 0.1051878 0.830941 0.5560709 0.01795589 0.8633663 -0.4434431 -0.2407428 0.01940006 -0.951619 -0.3066678 -0.9895631 -0.1435733 -0.01231282 0.5983461 0.599211 0.5319099 0.7981716 0.5907043 -0.1182817 0.02304005 -0.9813333 0.1909297 -0.1467461 -0.7147288 -0.6838336 0.7101594 -0.335215 -0.619116 -0.122282 -0.9223152 -0.3665814 -0.9906762 0.1335083 0.02713346 -0.5770786 0.2920921 0.7626681 0.1641861 0.8442692 0.5101495 -0.9781227 0.05348438 -0.2010365 -0.06102579 -0.9850656 0.161002 -0.972004 0.1031619 -0.2111061 0.05063265 0.9963565 -0.06863111 -0.2676477 -0.04268229 0.9625711 0.1010134 0.9712045 -0.2157738 0.9512378 0.06939959 0.3005501 0.6492017 0.6990009 0.2998915 -0.5327708 -0.7509057 0.3902514 0.2462095 0.5349932 0.8081852 -0.9825297 0.1776595 -0.05543029 -0.04510134 -0.5165445 0.8550717 -0.5760469 -0.3753141 0.7261608 0.8861981 -0.4615523 -0.04027938 -0.8507025 0.09037864 0.5178195 -0.08914279 0.9379706 0.3350593 -0.7286158 -0.5926729 0.3433044 0.2262187 -0.8932176 -0.3885712 0.7672024 0.6310765 -0.1146433 0.1356965 -0.03857398 0.9899992 -0.5844298 -0.8075184 0.07972466 0.8776326 -0.2519092 -0.4078027 -0.3016645 -0.9516981 0.05717849 0.1120348 0.9714103 -0.2093091 0.9900311 0.1119746 -0.08544147 -0.9761866 0.06496185 -0.2069779 0.1778416 -0.9791951 -0.09772121 0.9092766 -0.005332469 -0.4161584 -0.0669173 0.9976354 -0.01567631 0.3902486 0.2379834 0.8894212 -0.7080532 -0.2730142 0.651248 0.4030089 -0.8959187 -0.1868515 0.2954699 -0.9271915 0.2302467 0.151267 -0.970949 -0.185409 0.588325 -0.7899419 -0.1728164 0.4196676 -0.8806539 0.2198364 0.3199927 -0.7782425 -0.5403179 0.5448817 -0.6457223 -0.5349268 0.07207018 -0.8579586 -0.5086385 -0.1782127 0.975261 0.1307913 -0.0186004 0.9812846 -0.1916629 -0.2341715 0.9550904 -0.1815657 -0.4395754 0.887292 -0.1395936 -0.243536 0.8231046 -0.5130198 -0.481998 0.7407446 -0.4679482 0.01241284 0.851405 -0.5243619 -0.8198677 -0.533486 0.2078695 -0.9278774 -0.3604513 -0.09549045 -0.8221094 -0.5572031 -0.1168808 -0.6739029 -0.7316292 -0.102829 -0.7352609 -0.4943482 -0.4636931 -0.5647273 -0.6927983 -0.4484572 -0.8582966 -0.2538208 -0.4459841 0.9388018 -0.3382441 0.06513154 0.8272452 -0.5077614 -0.2405071 0.9172849 -0.3024079 -0.25911 0.96838 -0.08520448 -0.2344792 0.768624 -0.2560061 -0.5862408 0.8220278 0.005638539 -0.5694196 0.6630507 -0.4944158 -0.5620648 0.5998836 0.7724472 0.2084833 0.7204617 0.6629506 -0.2035474 0.5532103 0.8126826 -0.1830452 0.3598803 0.9213568 -0.1469287 0.4286723 0.7009285 -0.5700345 0.2015566 0.8261082 -0.5262323 0.6253207 0.5281553 -0.5744791 -0.9710942 0.2302111 -0.06308001 -0.8594079 0.3529713 0.3699048 -0.8765919 0.4730899 -0.08816283 -0.999484 0.0176407 -0.02684426 -0.899255 0.231399 0.3712074 -0.8671786 0.1927209 -0.4591952 -0.9006661 -0.06386774 -0.4297924 -0.7730181 0.4398055 -0.4571806 -0.4030091 0.8959187 0.1868515 -0.2954699 0.9271915 -0.2302467 -0.4196676 0.8806539 -0.2198364 -0.588325 0.7899419 0.1728164 -0.4218451 0.8957659 -0.1401799 -0.3199928 0.7782425 0.5403179 -0.5448819 0.6457222 0.5349268 -0.151267 0.970949 0.185409 0.0186004 -0.9812846 0.1916629 0.1782127 -0.975261 -0.1307913 0.2341716 -0.9550904 0.1815657 0.4395754 -0.887292 0.1395936 0.2184395 -0.9709805 -0.09737104 0.2435361 -0.8231045 0.5130198 0.481998 -0.7407445 0.4679481 0.9278774 0.3604513 0.09549039 0.8198676 0.533486 -0.2078696 0.8221094 0.5572031 0.1168808 0.6739029 0.7316292 0.102829 0.8045464 0.5688023 -0.1707898 0.7352608 0.4943483 0.4636932 0.5647271 0.6927983 0.4484572 -0.8272452 0.5077614 0.2405072 -0.9388018 0.3382441 -0.06513154 -0.9172849 0.3024079 0.25911 -0.96838 0.08520448 0.2344792 -0.9521446 0.3044152 -0.02742516 -0.7686238 0.2560061 0.5862408 -0.8220278 -0.005638539 0.5694196 -0.7204617 -0.6629505 0.2035475 -0.5998836 -0.7724472 -0.2084833 -0.5532101 -0.8126826 0.1830452 -0.3598802 -0.9213567 0.1469287 -0.5742788 -0.8016575 -0.1659794 -0.4286723 -0.7009285 0.5700345 -0.2015566 -0.8261082 0.5262323 0.9710942 -0.2302111 0.06307995 0.8594079 -0.3529713 -0.3699048 0.899255 -0.231399 -0.3712074 0.9994841 -0.0176407 0.0268442 0.9250295 -0.2344755 -0.2989009 0.8671786 -0.1927209 0.4591951 0.9006661 0.06386774 0.4297924 0.8765919 -0.4730899 0.08816283 0.3259569 -0.9184665 -0.2239899 0.2439969 -0.9491553 0.1989217 0.07019859 -0.975875 -0.2067372 0.5187835 -0.8258424 -0.2210159 0.3702108 -0.9111739 0.1808482 0.2284766 -0.7894424 -0.5697185 0.4619936 -0.6729423 -0.5776769 -0.02183157 -0.8522936 -0.5226079 -0.1002891 0.9829546 0.1540853 0.03791898 0.9832705 -0.1781607 -0.1778367 0.9719216 -0.1540863 -0.3843117 0.9178382 -0.09938633 -0.2181134 0.8464455 -0.4857538 -0.4583146 0.780078 -0.4259415 0.0379005 0.8571165 -0.5137265 -0.8399804 -0.4787462 0.2554114 -0.9551708 -0.2936067 -0.03799796 -0.8651191 -0.4968343 -0.06873548 -0.7289378 -0.6813268 -0.06666082 -0.7969372 -0.434381 -0.4197668 -0.6401426 -0.6444041 -0.4182833 -0.9013411 -0.1862301 -0.3910277 0.9149515 -0.4035615 -0.001440346 0.7720054 -0.5598179 -0.3010174 0.8748457 -0.3609202 -0.3230814 0.9425818 -0.148223 -0.2992816 0.7087368 -0.2988765 -0.6390345 0.7813836 -0.04188114 -0.6226441 0.5884759 -0.5297622 -0.6107767 0.6650396 0.725412 0.177482 0.7504161 0.6147012 -0.2429369 0.5958018 0.775307 -0.2095693 0.4133654 0.8965072 -0.1593859 0.4386736 0.6789225 -0.5887528 0.2242704 0.8188007 -0.5284585 0.6219796 0.4930285 -0.6083292 -0.9545536 0.2980082 0.004329204 -0.8064358 0.4054951 0.4303897 -0.8450579 0.5341342 -0.02404421 -0.9953827 0.08734345 0.03980517 -0.8545583 0.2869737 0.4328699 -0.8796608 0.2600107 -0.3982355 -0.9291049 0.005906999 -0.3697692 -0.7684374 0.4999038 -0.3994999 -0.325957 0.9184665 0.2239899 -0.2439969 0.9491553 -0.1989217 -0.3702108 0.9111739 -0.1808482 -0.5187836 0.8258424 0.2210159 -0.366106 0.9250708 -0.1010467 -0.2284767 0.7894424 0.5697185 -0.4619937 0.6729423 0.5776768 -0.07019859 0.975875 0.2067372 -0.03791898 -0.9832705 0.1781607 0.100289 -0.9829546 -0.1540853 0.1778368 -0.9719216 0.1540864 0.3843117 -0.9178382 0.09938633 0.1428169 -0.9820312 -0.1233612 0.2181134 -0.8464455 0.4857537 0.4583146 -0.780078 0.4259415 0.9551708 0.2936067 0.03799796 0.8399804 0.4787462 -0.2554114 0.8651191 0.4968343 0.06873548 0.7289378 0.6813268 0.06666082 0.8296371 0.5144171 -0.2169731 0.7969372 0.434381 0.4197668 0.6401426 0.6444041 0.4182833 -0.7720056 0.559818 0.3010174 -0.9149515 0.4035614 0.001440346 -0.8748457 0.3609202 0.3230814 -0.9425818 0.148223 0.2992816 -0.9281439 0.3701157 0.03953897 -0.7087367 0.2988765 0.6390345 -0.7813838 0.0418812 0.622644 -0.7504161 -0.6147013 0.2429369 -0.6650396 -0.725412 -0.177482 -0.5958018 -0.775307 0.2095693 -0.4133654 -0.8965073 0.1593859 -0.6388258 -0.7570321 -0.1371276 -0.4386735 -0.6789225 0.5887528 -0.2242703 -0.8188007 0.5284585 0.9545536 -0.2980082 -0.004329204 0.8064358 -0.4054951 -0.4303897 0.8545583 -0.2869737 -0.4328699 0.9953827 -0.08734345 -0.03980517 0.8847266 -0.2930347 -0.3624769 0.8796607 -0.2600107 0.3982355 0.9291049 -0.005907058 0.3697693 0.8450579 -0.5341342 0.02404421 0.3243269 -0.9157016 -0.2372817 0.2059808 -0.9627099 0.1753903 0.06686973 -0.9674019 -0.2442584 0.5181175 -0.828139 -0.2138693 0.3340525 -0.9271417 0.1697565 0.2594302 -0.7693601 -0.5837647 0.4951921 -0.6584917 -0.5667217 0.004740774 -0.8279317 -0.5608091 -0.09220534 0.9775154 0.1896361 0.07379865 0.9888385 -0.1294305 -0.1434162 0.9818441 -0.1241534 -0.3549024 0.9306045 -0.08955299 -0.1579222 0.8719657 -0.4633966 -0.4037004 0.8090773 -0.4271068 0.09971302 0.8774474 -0.4691946 -0.8686526 -0.4682821 0.1617242 -0.9544616 -0.2677302 -0.1316191 -0.8664447 -0.4716132 -0.1638743 -0.7348763 -0.6593643 -0.1587311 -0.7672782 -0.3956646 -0.5047116 -0.6156669 -0.6094033 -0.4995819 -0.8684695 -0.1464697 -0.4736111 0.9029849 -0.4258387 0.05726778 0.7828183 -0.5652915 -0.260079 0.891357 -0.3682525 -0.2643349 0.9613101 -0.1585504 -0.2252661 0.7541393 -0.2883887 -0.590005 0.8305547 -0.03424465 -0.5558835 0.6270415 -0.5172098 -0.5825057 0.6627124 0.7001668 0.2656669 0.7812522 0.6057596 -0.1506665 0.627795 0.768572 -0.1231692 0.4443544 0.8919916 -0.08306843 0.5015558 0.6927347 -0.5182283 0.2858055 0.8351669 -0.4699059 0.6818823 0.5033493 -0.5307317 -0.9449171 0.3212819 -0.06252795 -0.8314146 0.4063927 0.3789392 -0.8284217 0.5556109 -0.07081055 -0.9930772 0.1103582 -0.04023414 -0.8820742 0.2891144 0.371965 -0.8368014 0.2989811 -0.4586653 -0.8938661 0.04519355 -0.4460504 -0.7208163 0.5358496 -0.4396467 -0.3243269 0.9157016 0.2372817 -0.2059808 0.9627099 -0.1753903 -0.3340526 0.9271417 -0.1697565 -0.5181176 0.828139 0.2138693 -0.3364723 0.9374457 -0.08934348 -0.2594303 0.7693601 0.5837647 -0.4951924 0.6584914 0.5667217 -0.06686973 0.9674019 0.2442584 -0.07379859 -0.9888384 0.1294305 0.09220534 -0.9775154 -0.1896361 0.1434162 -0.9818441 0.1241534 0.3549024 -0.9306045 0.08955299 0.131969 -0.9789923 -0.1554294 0.1579223 -0.8719658 0.4633967 0.4037005 -0.8090772 0.4271067 0.9544616 0.2677302 0.1316191 0.8686526 0.4682821 -0.1617242 0.8664447 0.4716132 0.1638743 0.7348765 0.6593642 0.1587311 0.8558285 0.5024935 -0.122711 0.7672782 0.3956646 0.5047116 0.6156669 0.6094033 0.4995819 -0.7828183 0.5652916 0.260079 -0.9029849 0.4258387 -0.05726778 -0.891357 0.3682525 0.2643349 -0.9613101 0.1585504 0.2252661 -0.9200832 0.3911063 -0.02197623 -0.7541394 0.2883887 0.590005 -0.8305547 0.03424471 0.5558834 -0.7812521 -0.6057597 0.1506665 -0.6627124 -0.7001667 -0.2656668 -0.627795 -0.768572 0.1231691 -0.4443544 -0.8919916 0.08306843 -0.6407102 -0.7341579 -0.2247281 -0.5015558 -0.6927347 0.5182283 -0.2858055 -0.8351669 0.4699059 0.9449171 -0.3212819 0.06252795 0.8314146 -0.4063927 -0.3789392 0.8820742 -0.2891144 -0.3719649 0.9930772 -0.1103582 0.04023414 0.9059966 -0.2989847 -0.2996304 0.8368014 -0.298981 0.4586653 0.8938661 -0.04519361 0.4460504 0.8284217 -0.5556109 0.07081055 0.4030091 -0.8959188 -0.1868515 0.2954698 -0.9271916 0.2302467 0.1512671 -0.970949 -0.185409 0.588325 -0.7899419 -0.1728163 0.4196674 -0.8806539 0.2198363 0.3199929 -0.7782424 -0.5403179 0.5448822 -0.645722 -0.5349267 0.07207006 -0.8579586 -0.5086383 -0.1782125 0.975261 0.1307912 -0.01860046 0.9812846 -0.1916629 -0.2341716 0.9550904 -0.1815658 -0.4395754 0.887292 -0.1395936 -0.2435361 0.8231046 -0.5130198 -0.4819982 0.7407444 -0.4679482 0.01241302 0.8514051 -0.5243619 -0.8198677 -0.5334861 0.2078696 -0.9278774 -0.3604514 -0.09549045 -0.8221094 -0.5572031 -0.1168805 -0.6739029 -0.7316291 -0.1028288 -0.735261 -0.4943482 -0.463693 -0.5647273 -0.6927983 -0.4484571 -0.8582967 -0.2538206 -0.4459842 0.9388019 -0.3382441 0.06513154 0.8272453 -0.5077613 -0.2405072 0.9172849 -0.3024078 -0.25911 0.96838 -0.08520436 -0.2344789 0.768624 -0.256006 -0.5862407 0.8220278 0.00563842 -0.5694195 0.6630508 -0.4944156 -0.5620648 0.5998836 0.7724472 0.2084833 0.7204617 0.6629506 -0.2035473 0.5532104 0.8126825 -0.1830452 0.3598805 0.9213566 -0.1469287 0.4286724 0.7009284 -0.5700345 0.2015567 0.8261081 -0.5262323 0.6253207 0.5281553 -0.5744789 -0.9710942 0.230211 -0.06308007 -0.8594078 0.3529711 0.3699048 -0.8765919 0.4730898 -0.08816313 -0.999484 0.01764065 -0.02684444 -0.899255 0.231399 0.3712075 -0.8671784 0.192721 -0.4591953 -0.9006661 -0.06386774 -0.4297925 -0.773018 0.4398055 -0.4571808 -0.403009 0.8959187 0.1868515 -0.2954698 0.9271916 -0.2302467 -0.4196674 0.8806539 -0.2198363 -0.5883251 0.7899419 0.1728163 -0.4218448 0.8957659 -0.1401799 -0.3199929 0.7782424 0.5403179 -0.5448822 0.645722 0.5349267 -0.1512671 0.970949 0.185409 0.0186004 -0.9812846 0.1916629 0.1782125 -0.975261 -0.1307911 0.2341715 -0.9550903 0.1815658 0.4395754 -0.8872922 0.1395936 0.2184394 -0.9709805 -0.09737092 0.2435361 -0.8231046 0.5130198 0.4819982 -0.7407444 0.4679482 0.9278774 0.3604514 0.09549045 0.8198677 0.5334861 -0.2078697 0.8221094 0.5572031 0.1168805 0.6739029 0.7316291 0.1028288 0.8045464 0.5688023 -0.1707899 0.735261 0.4943482 0.463693 0.5647273 0.6927983 0.448457 -0.8272454 0.5077614 0.2405072 -0.9388019 0.3382441 -0.06513154 -0.9172849 0.3024078 0.25911 -0.96838 0.08520436 0.2344789 -0.9521446 0.3044155 -0.02742516 -0.768624 0.256006 0.5862407 -0.8220278 -0.00563842 0.5694195 -0.7204617 -0.6629506 0.2035473 -0.5998836 -0.7724471 -0.2084833 -0.5532104 -0.8126825 0.1830453 -0.3598805 -0.9213566 0.1469287 -0.574279 -0.8016575 -0.1659794 -0.4286724 -0.7009284 0.5700345 -0.2015567 -0.8261081 0.5262323 0.9710941 -0.230211 0.06308007 0.8594078 -0.3529711 -0.3699048 0.899255 -0.231399 -0.3712075 0.999484 -0.01764065 0.02684444 0.9250295 -0.2344756 -0.298901 0.8671783 -0.192721 0.4591953 0.9006661 0.06386774 0.4297925 0.8765919 -0.4730898 0.08816313 0.4218451 -0.8957659 0.1401799 -0.1415892 0.9857929 0.09036052 -0.2184395 0.9709805 0.09737104 -0.848159 -0.5009135 0.1723715 -0.8045464 -0.5688023 0.1707898 0.9248595 -0.3791274 0.0299564 0.9521446 -0.3044152 0.02742516 0.6328731 0.7576825 0.1593402 0.5742788 0.8016575 0.1659794 -0.9250295 0.2344755 0.2989009 -0.07207018 0.8579586 0.5086385 0.1415892 -0.9857928 -0.09036052 -0.01241284 -0.851405 0.5243619 0.8481591 0.5009135 -0.1723716 0.8582966 0.2538208 0.4459841 -0.9248594 0.3791275 -0.0299564 -0.6630507 0.4944158 0.5620648 -0.6328731 -0.7576823 -0.1593401 -0.6253207 -0.5281553 0.5744791 0.7730181 -0.4398055 0.4571806 0.366106 -0.9250708 0.1010467 -0.06573897 0.9915943 0.1114417 -0.1428169 0.9820312 0.1233612 -0.8681734 -0.4437035 0.2222658 -0.8296371 -0.5144171 0.2169731 0.8958997 -0.4427872 -0.03610217 0.9281439 -0.3701157 -0.03953897 0.6936252 0.7092162 0.126082 0.6388258 0.7570321 0.1371276 -0.8847266 0.2930347 0.3624769 0.02183157 0.8522936 0.5226079 0.06573897 -0.9915943 -0.1114417 -0.0379005 -0.8571165 0.5137265 0.8681734 0.4437035 -0.2222658 0.9013411 0.1862301 0.3910277 -0.8958997 0.4427872 0.03610217 -0.5884759 0.5297622 0.6107767 -0.6936252 -0.7092162 -0.126082 -0.6219796 -0.4930285 0.6083292 0.7684374 -0.4999038 0.3994999 0.3364723 -0.9374457 0.08934348 -0.05397051 0.9871371 0.1504909 -0.131969 0.9789923 0.1554294 -0.8931684 -0.431137 0.1279501 -0.8558285 -0.5024935 0.122711 0.8861304 -0.463031 0.01937645 0.9200832 -0.3911063 0.02197623 0.6952259 0.6855143 0.2161738 0.6407102 0.7341579 0.2247281 -0.9059966 0.2989847 0.2996304 -0.004740774 0.8279317 0.5608091 0.05397051 -0.9871371 -0.1504909 -0.09971302 -0.8774474 0.4691946 0.8931684 0.431137 -0.1279501 0.8684695 0.1464697 0.4736111 -0.8861303 0.463031 -0.01937645 -0.6270415 0.5172098 0.5825057 -0.695226 -0.6855142 -0.2161737 -0.6818823 -0.5033493 0.5307317 0.7208163 -0.5358496 0.4396467 0.4218448 -0.8957659 0.1401799 -0.1415892 0.9857929 0.09036052 -0.2184394 0.9709805 0.09737092 -0.848159 -0.5009136 0.1723715 -0.8045464 -0.5688023 0.1707899 0.9248596 -0.3791272 0.02995645 0.9521446 -0.3044155 0.02742516 0.6328727 0.7576825 0.1593402 0.574279 0.8016575 0.1659794 -0.9250295 0.2344756 0.298901 -0.07207006 0.8579586 0.5086383 0.1415892 -0.9857929 -0.09036058 -0.01241302 -0.8514051 0.5243619 0.848159 0.5009136 -0.1723715 0.8582967 0.2538206 0.4459842 -0.9248596 0.3791272 -0.02995651 -0.6630508 0.4944156 0.5620648 -0.6328727 -0.7576827 -0.1593402 -0.6253207 -0.5281553 0.5744789 0.773018 -0.4398055 0.4571808</float_array>
          <technique_common>
            <accessor source="#Tree_01-mesh-normals-array" count="491" stride="3">
              <param name="X" type="float"/>
              <param name="Y" type="float"/>
              <param name="Z" type="float"/>
            </accessor>
          </technique_common>
        </source>
        <source id="Tree_01-mesh-map-0">
          <float_array id="Tree_01-mesh-map-0-array" count="2988">0.3880907 -1.517789 0.5447099 -1.178923 0.6127036 -1.517789 0.9208556 -1.178923 0.7007507 -1.517789 0.9601116 -1.517789 0.5447099 -1.178923 0.3880907 -1.517789 0.6127036 -1.517789 0.3880903 -1.178923 0.1634777 -1.517789 0.3880907 -1.517789 0.7400067 -1.178923 0.7999129 0.3595609 0.9208556 -1.178923 0.7400067 -1.178923 0.9601116 -1.517789 0.7007507 -1.517789 0.1634777 -1.517789 0.3880903 -1.178923 0.3880907 -1.517789 0.6127036 0.9601116 0.3880907 0.5710704 0.1634777 0.9601116 0.3207079 0.3595609 0.4265315 0.4746667 0.4326487 0.342263 0.3880903 -1.178923 0.546457 0.2421666 0.5447099 -1.178923 0.3880903 -1.178923 0.5483244 0.2230051 0.4363836 0.240303 0.2314707 -1.178923 0.4326487 0.342263 0.3880903 -1.178923 0.2314707 -1.178923 0.4363836 0.240303 0.3225754 0.3403996 0.9208556 -1.178923 0.6781085 0.2230051 0.7400067 -1.178923 0.5125773 0.4801048 0.6343377 0.6449595 0.6411278 0.2333195 0.455999 0.2650711 0.4028157 0.6075809 0.3025713 0.1701248 0.5397341 0.1904364 0.6444869 0.6357383 0.5882573 0.6449409 0.6671726 0.3403996 0.7945871 0.4852942 0.7999129 0.3595609 0.4297923 0.6854659 0.5546234 0.5661802 0.5824156 0.627521 0.8717512 0.342263 0.7405362 0.5191168 0.8108491 0.2421666 0.9214801 0.9402008 0.9275024 1.202205 0.9907605 1.188569 0.2556875 1.176793 0.1909767 1.188569 -0.1179639 2.517789 0.9867638 0.9288298 0.983119 1.190428 0.8974485 0.9533483 0.2398545 0.9402008 0.2556875 1.176793 0.3160228 0.9288298 0.3094593 0.9647188 0.3125368 1.190428 0.2478261 1.202205 0.983119 1.190428 1.046377 1.176793 0.9275476 2.517789 0.2478261 1.202205 0.3125368 1.190428 -0.1179639 2.517789 0.9907605 1.188569 0.9275024 1.202205 0.9275476 2.517789 0.2413772 0.6063418 0.1364387 0.5787602 0.1711748 1.225548 0.2647152 0.7548236 0.380794 0.3479386 0.3037444 0.353218 0.314037 0.4404368 0.4051362 0.7031522 0.4790096 0.4973255 0.455999 0.2650711 0.5107121 0.5664101 0.4587595 0.6036627 0.6381337 0.6437155 0.6380187 0.2449051 0.69325 0.2385401 0.1070326 0.5394254 0.1708772 0.5361563 0.1026337 1.291782 0.1981647 0.5291207 0.2590007 0.5771125 0.1711748 1.225548 0.1408135 0.5196037 0.07623416 0.4984375 0.102463 1.278574 0.5840701 0.7729032 0.6699879 1.107265 0.644784 0.7318297 0.6141144 0.5309934 0.637473 0.1586485 0.5467714 0.5311172 0.5002918 0.368448 0.5882573 0.6449409 0.5218786 0.6633642 0.5990812 0.2482274 0.6834262 0.649703 0.6118829 0.6656663 0.6788229 0.497143 0.6197731 0.7396609 0.6913159 0.7236976 1.011282 0.9796212 0.9595001 0.99754 1.117964 2.06976 0.341688 0.9864768 0.2935506 0.9574944 0.2850461 2.06976 0.3126436 0.9506389 0.360781 0.9796212 0.2850461 2.06976 0.9392778 0.433794 0.8814002 0.8863238 0.9315434 0.9084179 0.5496095 0.7069492 0.679031 1.089106 0.6242223 1.101482 0.8962393 0.4173291 0.8816825 0.8319483 0.8276571 0.4108464 0.9595001 0.99754 0.9152166 0.9864768 1.117964 2.06976 0.9744979 0.9395758 1.018781 0.9506389 1.117964 2.06976 0.9227154 0.9574944 0.9744979 0.9395758 1.117964 2.06976 0.5194984 0.5191168 0.3350856 0.8659747 0.4223451 0.4835717 0.3293782 0.4852942 0.3411096 0.8257295 0.4265315 0.4746667 0.8775773 0.4746667 0.8618275 0.8547728 0.7405362 0.5191168 0.7945871 0.4852942 0.7925243 0.8659747 0.8926737 0.8369317 0.5437674 0.8367038 0.4729864 1.233083 0.4788429 0.7871026 0.2601775 0.8369317 0.3160228 0.9288298 0.3411096 0.8257295 0.9619773 0.8257295 0.8974485 0.9533483 0.8618275 0.8547728 0.8926737 0.8369317 0.8321647 0.9647188 0.9214801 0.9402008 0.6908981 0.2564094 0.6394372 0.2639601 0.6006115 1.009215 0.4523574 0.8845046 0.4971694 1.273775 0.5437674 0.8367038 0.5514226 0.7524811 0.6419324 0.9910536 0.6004222 1.028727 0.3906664 0.8384058 0.4729864 1.233083 0.4226828 1.226833 0.6394372 0.2639601 0.6055477 0.2347958 0.6006115 1.009215 0.6553191 0.2251875 0.6908981 0.2564094 0.6006115 1.009215 0.6055477 0.2347958 0.6553191 0.2251875 0.6006115 1.009215 0.4127262 0.5 1 0.98461 1 0.5 0 0.5 0.4127262 0.98461 0.4127262 0.5 0 0.5 0.4127262 0.01538997 0 0.01538997 0.4127262 0.01538997 1 0.5 1 0.01538997 0.4127262 0.98461 1 0.5 0.4127262 0.5 0 0.5 0.4127262 0.98461 0.4127262 0.5 0 0.5 0.4127262 0.01538997 0 0.01538997 0.4127262 0.01538997 1 0.5 1 0.01538997 0.4127262 0.98461 1 0.5 0.4127262 0.5 0 0.5 0.4127262 0.98461 0.4127262 0.5 0 0.5 0.4127262 0.01538997 0 0.01538997 0.4127262 0.01538997 1 0.5 1 0.01538997 0.4127262 0.98461 1 0.5 0.4127262 0.5 0 0.5 0.4127262 0.98461 0.4127262 0.5 0 0.5 0.4127262 0.01538997 0 0.01538997 0.4127262 0.01538997 1 0.5 1 0.01538997 0.4127262 0.98461 1 0.5 0.4127262 0.5 0 0.5 0.4127262 0.98461 0.4127262 0.5 0 0.5 0.4127262 0.01538997 0 0.01538997 0.4127262 0.01538997 1 0.5 1 0.01538997 0.4127262 0.5 1 0.98461 1 0.5 0 0.5 0.4127262 0.98461 0.4127262 0.5 0 0.5 0.4127262 0.01538997 0 0.01538997 0.4127262 0.01538997 1 0.5 1 0.01538997 0.4127262 0.5 1 0.98461 0.4127262 0.98461 0 0.5 0.4127262 0.98461 0 0.98461 0.4127262 0.01538997 0 0.5 0 0.01538997 0.4127262 0.01538997 1 0.5 0.4127262 0.5 1 0.5 0.4127262 0.98461 0.4127262 0.5 0 0.5 0.4127262 0.98461 0 0.98461 0.4127262 0.01538997 0 0.5 0 0.01538997 0.4127262 0.01538997 1 0.5 0.4127262 0.5 1 0.5 0.4127262 0.98461 0.4127262 0.5 0 0.5 0.4127262 0.98461 0 0.98461 0.4127262 0.01538997 0 0.5 0 0.01538997 0.4127262 0.01538997 1 0.5 0.4127262 0.5 1 0.5 0.4127262 0.98461 0.4127262 0.5 0 0.5 0.4127262 0.98461 0 0.98461 0.4127262 0.01538997 0 0.5 0 0.01538997 0.4127262 0.01538997 1 0.5 0.4127262 0.5 1 0.5 0.4127262 0.98461 0.4127262 0.5 0 0.5 0.4127262 0.98461 0 0.98461 0.4127262 0.01538997 0 0.5 0 0.01538997 0.4127262 0.01538997 1 0.5 0.4127262 0.5 0.4127262 0.5 1 0.98461 0.4127262 0.98461 0 0.5 0.4127262 0.98461 0 0.98461 0.4127262 0.01538997 0 0.5 0 0.01538997 0.4127262 0.01538997 1 0.5 0.4127262 0.5 0.4127262 0.5 1 0.98461 1 0.5 0 0.5 0.4127262 0.98461 0.4127262 0.5 0 0.5 0.4127262 0.01538997 0 0.01538997 0.4127262 0.01538997 1 0.5 1 0.01538997 0.4127262 0.98461 1 0.5 0.4127262 0.5 0 0.5 0.4127262 0.98461 0.4127262 0.5 0 0.5 0.4127262 0.01538997 0 0.01538997 0.4127262 0.01538997 1 0.5 1 0.01538997 0.4127262 0.98461 1 0.5 0.4127262 0.5 0 0.5 0.4127262 0.98461 0.4127262 0.5 0 0.5 0.4127262 0.01538997 0 0.01538997 0.4127262 0.01538997 1 0.5 1 0.01538997 0.4127262 0.98461 1 0.5 0.4127262 0.5 0 0.5 0.4127262 0.98461 0.4127262 0.5 0 0.5 0.4127262 0.01538997 0 0.01538997 0.4127262 0.01538997 1 0.5 1 0.01538997 0.4127262 0.98461 1 0.5 0.4127262 0.5 0 0.5 0.4127262 0.98461 0.4127262 0.5 0 0.5 0.4127262 0.01538997 0 0.01538997 0.4127262 0.01538997 1 0.5 1 0.01538997 0.4127262 0.5 1 0.98461 1 0.5 0 0.5 0.4127262 0.98461 0.4127262 0.5 0 0.5 0.4127262 0.01538997 0 0.01538997 0.4127262 0.01538997 1 0.5 1 0.01538997 0.4127262 0.5 1 0.98461 0.4127262 0.98461 0 0.5 0.4127262 0.98461 0 0.98461 0.4127262 0.01538997 0 0.5 0 0.01538997 0.4127262 0.01538997 1 0.5 0.4127262 0.5 1 0.5 0.4127262 0.98461 0.4127262 0.5 0 0.5 0.4127262 0.98461 0 0.98461 0.4127262 0.01538997 0 0.5 0 0.01538997 0.4127262 0.01538997 1 0.5 0.4127262 0.5 1 0.5 0.4127262 0.98461 0.4127262 0.5 0 0.5 0.4127262 0.98461 0 0.98461 0.4127262 0.01538997 0 0.5 0 0.01538997 0.4127262 0.01538997 1 0.5 0.4127262 0.5 1 0.5 0.4127262 0.98461 0.4127262 0.5 0 0.5 0.4127262 0.98461 0 0.98461 0.4127262 0.01538997 0 0.5 0 0.01538997 0.4127262 0.01538997 1 0.5 0.4127262 0.5 1 0.5 0.4127262 0.98461 0.4127262 0.5 0 0.5 0.4127262 0.98461 0 0.98461 0.4127262 0.01538997 0 0.5 0 0.01538997 0.4127262 0.01538997 1 0.5 0.4127262 0.5 0.4127262 0.5 1 0.98461 0.4127262 0.98461 0 0.5 0.4127262 0.98461 0 0.98461 0.4127262 0.01538997 0 0.5 0 0.01538997 0.4127262 0.01538997 1 0.5 0.4127262 0.5 0.4127262 0.5 1 0.98461 1 0.5 0 0.5 0.4127262 0.98461 0.4127262 0.5 0 0.5 0.4127262 0.01538997 0 0.01538997 0.4127262 0.01538997 1 0.5 1 0.01538997 0.4127262 0.98461 1 0.5 0.4127262 0.5 0 0.5 0.4127262 0.98461 0.4127262 0.5 0 0.5 0.4127262 0.01538997 0 0.01538997 0.4127262 0.01538997 1 0.5 1 0.01538997 0.4127262 0.98461 1 0.5 0.4127262 0.5 0 0.5 0.4127262 0.98461 0.4127262 0.5 0 0.5 0.4127262 0.01538997 0 0.01538997 0.4127262 0.01538997 1 0.5 1 0.01538997 0.4127262 0.98461 1 0.5 0.4127262 0.5 0 0.5 0.4127262 0.98461 0.4127262 0.5 0 0.5 0.4127262 0.01538997 0 0.01538997 0.4127262 0.01538997 1 0.5 1 0.01538997 0.4127262 0.98461 1 0.5 0.4127262 0.5 0 0.5 0.4127262 0.98461 0.4127262 0.5 0 0.5 0.4127262 0.01538997 0 0.01538997 0.4127262 0.01538997 1 0.5 1 0.01538997 0.4127262 0.5 1 0.98461 1 0.5 0 0.5 0.4127262 0.98461 0.4127262 0.5 0 0.5 0.4127262 0.01538997 0 0.01538997 0.4127262 0.01538997 1 0.5 1 0.01538997 0.4127262 0.5 1 0.98461 0.4127262 0.98461 0 0.5 0.4127262 0.98461 0 0.98461 0.4127262 0.01538997 0 0.5 0 0.01538997 0.4127262 0.01538997 1 0.5 0.4127262 0.5 1 0.5 0.4127262 0.98461 0.4127262 0.5 0 0.5 0.4127262 0.98461 0 0.98461 0.4127262 0.01538997 0 0.5 0 0.01538997 0.4127262 0.01538997 1 0.5 0.4127262 0.5 1 0.5 0.4127262 0.98461 0.4127262 0.5 0 0.5 0.4127262 0.98461 0 0.98461 0.4127262 0.01538997 0 0.5 0 0.01538997 0.4127262 0.01538997 1 0.5 0.4127262 0.5 1 0.5 0.4127262 0.98461 0.4127262 0.5 0 0.5 0.4127262 0.98461 0 0.98461 0.4127262 0.01538997 0 0.5 0 0.01538997 0.4127262 0.01538997 1 0.5 0.4127262 0.5 1 0.5 0.4127262 0.98461 0.4127262 0.5 0 0.5 0.4127262 0.98461 0 0.98461 0.4127262 0.01538997 0 0.5 0 0.01538997 0.4127262 0.01538997 1 0.5 0.4127262 0.5 0.4127262 0.5 1 0.98461 0.4127262 0.98461 0 0.5 0.4127262 0.98461 0 0.98461 0.4127262 0.01538997 0 0.5 0 0.01538997 0.4127262 0.01538997 1 0.5 0.4127262 0.5 0.4127262 0.5 1 0.98461 1 0.5 0 0.5 0.4127262 0.98461 0.4127262 0.5 0 0.5 0.4127262 0.01538997 0 0.01538997 0.4127262 0.01538997 1 0.5 1 0.01538997 0.4127262 0.98461 1 0.5 0.4127262 0.5 0 0.5 0.4127262 0.98461 0.4127262 0.5 0 0.5 0.4127262 0.01538997 0 0.01538997 0.4127262 0.01538997 1 0.5 1 0.01538997 0.4127262 0.98461 1 0.5 0.4127262 0.5 0 0.5 0.4127262 0.98461 0.4127262 0.5 0 0.5 0.4127262 0.01538997 0 0.01538997 0.4127262 0.01538997 1 0.5 1 0.01538997 0.4127262 0.98461 1 0.5 0.4127262 0.5 0 0.5 0.4127262 0.98461 0.4127262 0.5 0 0.5 0.4127262 0.01538997 0 0.01538997 0.4127262 0.01538997 1 0.5 1 0.01538997 0.4127262 0.98461 1 0.5 0.4127262 0.5 0 0.5 0.4127262 0.98461 0.4127262 0.5 0 0.5 0.4127262 0.01538997 0 0.01538997 0.4127262 0.01538997 1 0.5 1 0.01538997 0.4127262 0.5 1 0.98461 1 0.5 0 0.5 0.4127262 0.98461 0.4127262 0.5 0 0.5 0.4127262 0.01538997 0 0.01538997 0.4127262 0.01538997 1 0.5 1 0.01538997 0.4127262 0.5 1 0.98461 0.4127262 0.98461 0 0.5 0.4127262 0.98461 0 0.98461 0.4127262 0.01538997 0 0.5 0 0.01538997 0.4127262 0.01538997 1 0.5 0.4127262 0.5 1 0.5 0.4127262 0.98461 0.4127262 0.5 0 0.5 0.4127262 0.98461 0 0.98461 0.4127262 0.01538997 0 0.5 0 0.01538997 0.4127262 0.01538997 1 0.5 0.4127262 0.5 1 0.5 0.4127262 0.98461 0.4127262 0.5 0 0.5 0.4127262 0.98461 0 0.98461 0.4127262 0.01538997 0 0.5 0 0.01538997 0.4127262 0.01538997 1 0.5 0.4127262 0.5 1 0.5 0.4127262 0.98461 0.4127262 0.5 0 0.5 0.4127262 0.98461 0 0.98461 0.4127262 0.01538997 0 0.5 0 0.01538997 0.4127262 0.01538997 1 0.5 0.4127262 0.5 1 0.5 0.4127262 0.98461 0.4127262 0.5 0 0.5 0.4127262 0.98461 0 0.98461 0.4127262 0.01538997 0 0.5 0 0.01538997 0.4127262 0.01538997 1 0.5 0.4127262 0.5 0.4127262 0.5 1 0.98461 0.4127262 0.98461 0 0.5 0.4127262 0.98461 0 0.98461 0.4127262 0.01538997 0 0.5 0 0.01538997 0.4127262 0.01538997 1 0.5 0.4127262 0.5 0.3880907 -1.517789 0.3880903 -1.178923 0.5447099 -1.178923 0.9208556 -1.178923 0.7400067 -1.178923 0.7007507 -1.517789 0.5447099 -1.178923 0.3880903 -1.178923 0.3880907 -1.517789 0.3880903 -1.178923 0.2314707 -1.178923 0.1634777 -1.517789 0.7400067 -1.178923 0.6671726 0.3403996 0.7999129 0.3595609 0.7400067 -1.178923 0.9208556 -1.178923 0.9601116 -1.517789 0.1634777 -1.517789 0.2314707 -1.178923 0.3880903 -1.178923 0.1634777 0.9601116 0.3880907 1.089792 0.6127036 0.9601116 0.6127036 0.9601116 0.6127036 0.7007507 0.3880907 0.5710704 0.3880907 0.5710704 0.1634777 0.7007507 0.1634777 0.9601116 0.3207079 0.3595609 0.3293782 0.4852942 0.4265315 0.4746667 0.3880903 -1.178923 0.4326487 0.342263 0.546457 0.2421666 0.3880903 -1.178923 0.5447099 -1.178923 0.5483244 0.2230051 0.2314707 -1.178923 0.3207079 0.3595609 0.4326487 0.342263 0.2314707 -1.178923 0.3880903 -1.178923 0.4363836 0.240303 0.9208556 -1.178923 0.8108491 0.2421666 0.6781085 0.2230051 0.5125773 0.4801048 0.5679592 0.6633826 0.6343377 0.6449595 0.455999 0.2650711 0.4587595 0.6036627 0.4028157 0.6075809 0.5397341 0.1904364 0.6500238 0.2162458 0.6444869 0.6357383 0.6671726 0.3403996 0.6575459 0.4835717 0.7945871 0.4852942 0.4297923 0.6854659 0.3707137 0.5721704 0.5546234 0.5661802 0.8717512 0.342263 0.8775773 0.4746667 0.7405362 0.5191168 0.9214801 0.9402008 0.8321647 0.9647188 0.9275024 1.202205 0.9867638 0.9288298 1.046377 1.176793 0.983119 1.190428 0.2398545 0.9402008 0.1909767 1.188569 0.2556875 1.176793 0.3094593 0.9647188 0.3856275 0.9533483 0.3125368 1.190428 0.2647152 0.7548236 0.3933284 0.7657811 0.380794 0.3479386 0.314037 0.4404368 0.3040981 0.7427014 0.4051362 0.7031522 0.455999 0.2650711 0.542434 0.2355063 0.5107121 0.5664101 0.6381337 0.6437155 0.5707907 0.6438391 0.6380187 0.2449051 0.5840701 0.7729032 0.615179 1.119642 0.6699879 1.107265 0.6141144 0.5309934 0.6927043 0.1522834 0.637473 0.1586485 0.5002918 0.368448 0.5397341 0.1904364 0.5882573 0.6449409 0.5990812 0.2482274 0.7291792 0.2156426 0.6834262 0.649703 0.6788229 0.497143 0.5939406 0.4633781 0.6197731 0.7396609 0.9392778 0.433794 0.8706958 0.4273111 0.8814002 0.8863238 0.5496095 0.7069492 0.6103237 0.6658756 0.679031 1.089106 0.8962393 0.4173291 0.9318256 0.8540428 0.8816825 0.8319483 0.5194984 0.5191168 0.4160177 0.8547728 0.3350856 0.8659747 0.3293782 0.4852942 0.2601775 0.8369317 0.3411096 0.8257295 0.8775773 0.4746667 0.9619773 0.8257295 0.8618275 0.8547728 0.7945871 0.4852942 0.6575459 0.4835717 0.7925243 0.8659747 0.5437674 0.8367038 0.4971694 1.273775 0.4729864 1.233083 0.2601775 0.8369317 0.2398545 0.9402008 0.3160228 0.9288298 0.9619773 0.8257295 0.9867638 0.9288298 0.8974485 0.9533483 0.8926737 0.8369317 0.7925243 0.8659747 0.8321647 0.9647188 0.4523574 0.8845046 0.4458953 1.265046 0.4971694 1.273775 0.5514226 0.7524811 0.6274079 0.6869843 0.6419324 0.9910536 0.3906664 0.8384058 0.4788429 0.7871026 0.4729864 1.233083 0.4127262 0.5 0.4127262 0.98461 1 0.98461 0 0.5 0 0.98461 0.4127262 0.98461 0 0.5 0.4127262 0.5 0.4127262 0.01538997 0.4127262 0.01538997 0.4127262 0.5 1 0.5 0.4127262 0.98461 1 0.98461 1 0.5 0 0.5 0 0.98461 0.4127262 0.98461 0 0.5 0.4127262 0.5 0.4127262 0.01538997 0.4127262 0.01538997 0.4127262 0.5 1 0.5 0.4127262 0.98461 1 0.98461 1 0.5 0 0.5 0 0.98461 0.4127262 0.98461 0 0.5 0.4127262 0.5 0.4127262 0.01538997 0.4127262 0.01538997 0.4127262 0.5 1 0.5 0.4127262 0.98461 1 0.98461 1 0.5 0 0.5 0 0.98461 0.4127262 0.98461 0 0.5 0.4127262 0.5 0.4127262 0.01538997 0.4127262 0.01538997 0.4127262 0.5 1 0.5 0.4127262 0.98461 1 0.98461 1 0.5 0 0.5 0 0.98461 0.4127262 0.98461 0 0.5 0.4127262 0.5 0.4127262 0.01538997 0.4127262 0.01538997 0.4127262 0.5 1 0.5 0.4127262 0.5 0.4127262 0.98461 1 0.98461 0 0.5 0 0.98461 0.4127262 0.98461 0 0.5 0.4127262 0.5 0.4127262 0.01538997 0.4127262 0.01538997 0.4127262 0.5 1 0.5 0.4127262 0.5 1 0.5 1 0.98461 0 0.5 0.4127262 0.5 0.4127262 0.98461 0.4127262 0.01538997 0.4127262 0.5 0 0.5 0.4127262 0.01538997 1 0.01538997 1 0.5 1 0.5 1 0.98461 0.4127262 0.98461 0 0.5 0.4127262 0.5 0.4127262 0.98461 0.4127262 0.01538997 0.4127262 0.5 0 0.5 0.4127262 0.01538997 1 0.01538997 1 0.5 1 0.5 1 0.98461 0.4127262 0.98461 0 0.5 0.4127262 0.5 0.4127262 0.98461 0.4127262 0.01538997 0.4127262 0.5 0 0.5 0.4127262 0.01538997 1 0.01538997 1 0.5 1 0.5 1 0.98461 0.4127262 0.98461 0 0.5 0.4127262 0.5 0.4127262 0.98461 0.4127262 0.01538997 0.4127262 0.5 0 0.5 0.4127262 0.01538997 1 0.01538997 1 0.5 1 0.5 1 0.98461 0.4127262 0.98461 0 0.5 0.4127262 0.5 0.4127262 0.98461 0.4127262 0.01538997 0.4127262 0.5 0 0.5 0.4127262 0.01538997 1 0.01538997 1 0.5 0.4127262 0.5 1 0.5 1 0.98461 0 0.5 0.4127262 0.5 0.4127262 0.98461 0.4127262 0.01538997 0.4127262 0.5 0 0.5 0.4127262 0.01538997 1 0.01538997 1 0.5 0.4127262 0.5 0.4127262 0.98461 1 0.98461 0 0.5 0 0.98461 0.4127262 0.98461 0 0.5 0.4127262 0.5 0.4127262 0.01538997 0.4127262 0.01538997 0.4127262 0.5 1 0.5 0.4127262 0.98461 1 0.98461 1 0.5 0 0.5 0 0.98461 0.4127262 0.98461 0 0.5 0.4127262 0.5 0.4127262 0.01538997 0.4127262 0.01538997 0.4127262 0.5 1 0.5 0.4127262 0.98461 1 0.98461 1 0.5 0 0.5 0 0.98461 0.4127262 0.98461 0 0.5 0.4127262 0.5 0.4127262 0.01538997 0.4127262 0.01538997 0.4127262 0.5 1 0.5 0.4127262 0.98461 1 0.98461 1 0.5 0 0.5 0 0.98461 0.4127262 0.98461 0 0.5 0.4127262 0.5 0.4127262 0.01538997 0.4127262 0.01538997 0.4127262 0.5 1 0.5 0.4127262 0.98461 1 0.98461 1 0.5 0 0.5 0 0.98461 0.4127262 0.98461 0 0.5 0.4127262 0.5 0.4127262 0.01538997 0.4127262 0.01538997 0.4127262 0.5 1 0.5 0.4127262 0.5 0.4127262 0.98461 1 0.98461 0 0.5 0 0.98461 0.4127262 0.98461 0 0.5 0.4127262 0.5 0.4127262 0.01538997 0.4127262 0.01538997 0.4127262 0.5 1 0.5 0.4127262 0.5 1 0.5 1 0.98461 0 0.5 0.4127262 0.5 0.4127262 0.98461 0.4127262 0.01538997 0.4127262 0.5 0 0.5 0.4127262 0.01538997 1 0.01538997 1 0.5 1 0.5 1 0.98461 0.4127262 0.98461 0 0.5 0.4127262 0.5 0.4127262 0.98461 0.4127262 0.01538997 0.4127262 0.5 0 0.5 0.4127262 0.01538997 1 0.01538997 1 0.5 1 0.5 1 0.98461 0.4127262 0.98461 0 0.5 0.4127262 0.5 0.4127262 0.98461 0.4127262 0.01538997 0.4127262 0.5 0 0.5 0.4127262 0.01538997 1 0.01538997 1 0.5 1 0.5 1 0.98461 0.4127262 0.98461 0 0.5 0.4127262 0.5 0.4127262 0.98461 0.4127262 0.01538997 0.4127262 0.5 0 0.5 0.4127262 0.01538997 1 0.01538997 1 0.5 1 0.5 1 0.98461 0.4127262 0.98461 0 0.5 0.4127262 0.5 0.4127262 0.98461 0.4127262 0.01538997 0.4127262 0.5 0 0.5 0.4127262 0.01538997 1 0.01538997 1 0.5 0.4127262 0.5 1 0.5 1 0.98461 0 0.5 0.4127262 0.5 0.4127262 0.98461 0.4127262 0.01538997 0.4127262 0.5 0 0.5 0.4127262 0.01538997 1 0.01538997 1 0.5 0.4127262 0.5 0.4127262 0.98461 1 0.98461 0 0.5 0 0.98461 0.4127262 0.98461 0 0.5 0.4127262 0.5 0.4127262 0.01538997 0.4127262 0.01538997 0.4127262 0.5 1 0.5 0.4127262 0.98461 1 0.98461 1 0.5 0 0.5 0 0.98461 0.4127262 0.98461 0 0.5 0.4127262 0.5 0.4127262 0.01538997 0.4127262 0.01538997 0.4127262 0.5 1 0.5 0.4127262 0.98461 1 0.98461 1 0.5 0 0.5 0 0.98461 0.4127262 0.98461 0 0.5 0.4127262 0.5 0.4127262 0.01538997 0.4127262 0.01538997 0.4127262 0.5 1 0.5 0.4127262 0.98461 1 0.98461 1 0.5 0 0.5 0 0.98461 0.4127262 0.98461 0 0.5 0.4127262 0.5 0.4127262 0.01538997 0.4127262 0.01538997 0.4127262 0.5 1 0.5 0.4127262 0.98461 1 0.98461 1 0.5 0 0.5 0 0.98461 0.4127262 0.98461 0 0.5 0.4127262 0.5 0.4127262 0.01538997 0.4127262 0.01538997 0.4127262 0.5 1 0.5 0.4127262 0.5 0.4127262 0.98461 1 0.98461 0 0.5 0 0.98461 0.4127262 0.98461 0 0.5 0.4127262 0.5 0.4127262 0.01538997 0.4127262 0.01538997 0.4127262 0.5 1 0.5 0.4127262 0.5 1 0.5 1 0.98461 0 0.5 0.4127262 0.5 0.4127262 0.98461 0.4127262 0.01538997 0.4127262 0.5 0 0.5 0.4127262 0.01538997 1 0.01538997 1 0.5 1 0.5 1 0.98461 0.4127262 0.98461 0 0.5 0.4127262 0.5 0.4127262 0.98461 0.4127262 0.01538997 0.4127262 0.5 0 0.5 0.4127262 0.01538997 1 0.01538997 1 0.5 1 0.5 1 0.98461 0.4127262 0.98461 0 0.5 0.4127262 0.5 0.4127262 0.98461 0.4127262 0.01538997 0.4127262 0.5 0 0.5 0.4127262 0.01538997 1 0.01538997 1 0.5 1 0.5 1 0.98461 0.4127262 0.98461 0 0.5 0.4127262 0.5 0.4127262 0.98461 0.4127262 0.01538997 0.4127262 0.5 0 0.5 0.4127262 0.01538997 1 0.01538997 1 0.5 1 0.5 1 0.98461 0.4127262 0.98461 0 0.5 0.4127262 0.5 0.4127262 0.98461 0.4127262 0.01538997 0.4127262 0.5 0 0.5 0.4127262 0.01538997 1 0.01538997 1 0.5 0.4127262 0.5 1 0.5 1 0.98461 0 0.5 0.4127262 0.5 0.4127262 0.98461 0.4127262 0.01538997 0.4127262 0.5 0 0.5 0.4127262 0.01538997 1 0.01538997 1 0.5 0.4127262 0.5 0.4127262 0.98461 1 0.98461 0 0.5 0 0.98461 0.4127262 0.98461 0 0.5 0.4127262 0.5 0.4127262 0.01538997 0.4127262 0.01538997 0.4127262 0.5 1 0.5 0.4127262 0.98461 1 0.98461 1 0.5 0 0.5 0 0.98461 0.4127262 0.98461 0 0.5 0.4127262 0.5 0.4127262 0.01538997 0.4127262 0.01538997 0.4127262 0.5 1 0.5 0.4127262 0.98461 1 0.98461 1 0.5 0 0.5 0 0.98461 0.4127262 0.98461 0 0.5 0.4127262 0.5 0.4127262 0.01538997 0.4127262 0.01538997 0.4127262 0.5 1 0.5 0.4127262 0.98461 1 0.98461 1 0.5 0 0.5 0 0.98461 0.4127262 0.98461 0 0.5 0.4127262 0.5 0.4127262 0.01538997 0.4127262 0.01538997 0.4127262 0.5 1 0.5 0.4127262 0.98461 1 0.98461 1 0.5 0 0.5 0 0.98461 0.4127262 0.98461 0 0.5 0.4127262 0.5 0.4127262 0.01538997 0.4127262 0.01538997 0.4127262 0.5 1 0.5 0.4127262 0.5 0.4127262 0.98461 1 0.98461 0 0.5 0 0.98461 0.4127262 0.98461 0 0.5 0.4127262 0.5 0.4127262 0.01538997 0.4127262 0.01538997 0.4127262 0.5 1 0.5 0.4127262 0.5 1 0.5 1 0.98461 0 0.5 0.4127262 0.5 0.4127262 0.98461 0.4127262 0.01538997 0.4127262 0.5 0 0.5 0.4127262 0.01538997 1 0.01538997 1 0.5 1 0.5 1 0.98461 0.4127262 0.98461 0 0.5 0.4127262 0.5 0.4127262 0.98461 0.4127262 0.01538997 0.4127262 0.5 0 0.5 0.4127262 0.01538997 1 0.01538997 1 0.5 1 0.5 1 0.98461 0.4127262 0.98461 0 0.5 0.4127262 0.5 0.4127262 0.98461 0.4127262 0.01538997 0.4127262 0.5 0 0.5 0.4127262 0.01538997 1 0.01538997 1 0.5 1 0.5 1 0.98461 0.4127262 0.98461 0 0.5 0.4127262 0.5 0.4127262 0.98461 0.4127262 0.01538997 0.4127262 0.5 0 0.5 0.4127262 0.01538997 1 0.01538997 1 0.5 1 0.5 1 0.98461 0.4127262 0.98461 0 0.5 0.4127262 0.5 0.4127262 0.98461 0.4127262 0.01538997 0.4127262 0.5 0 0.5 0.4127262 0.01538997 1 0.01538997 1 0.5 0.4127262 0.5 1 0.5 1 0.98461 0 0.5 0.4127262 0.5 0.4127262 0.98461 0.4127262 0.01538997 0.4127262 0.5 0 0.5 0.4127262 0.01538997 1 0.01538997 1 0.5</float_array>
          <technique_common>
            <accessor source="#Tree_01-mesh-map-0-array" count="1494" stride="2">
              <param name="S" type="float"/>
              <param name="T" type="float"/>
            </accessor>
          </technique_common>
        </source>
        <vertices id="Tree_01-mesh-vertices">
          <input semantic="POSITION" source="#Tree_01-mesh-positions"/>
        </vertices>
        <triangles material="BarkDecidious-material" count="114">
          <input semantic="VERTEX" source="#Tree_01-mesh-vertices" offset="0"/>
          <input semantic="NORMAL" source="#Tree_01-mesh-normals" offset="1"/>
          <input semantic="TEXCOORD" source="#Tree_01-mesh-map-0" offset="2" set="0"/>
          <p>0 0 0 3 1 1 2 2 2 3 1 3 4 3 4 2 2 5 5 4 6 6 5 7 4 3 8 7 6 9 8 7 10 6 5 11 9 8 12 17 9 13 11 10 14 9 8 15 10 11 16 8 7 17 10 11 18 1 12 19 0 0 20 2 2 21 6 5 22 10 11 23 17 9 24 19 13 25 13 14 26 1 12 27 12 15 28 3 1 29 7 6 30 14 16 31 15 17 32 11 10 33 13 14 34 1 12 35 9 8 36 15 17 37 16 18 38 3 1 39 14 16 40 5 4 41 18 19 42 33 20 43 12 15 44 20 21 45 29 22 46 15 17 47 15 17 48 35 23 49 32 24 50 16 18 51 22 25 52 17 9 53 18 19 54 38 26 55 36 27 56 13 14 57 18 19 58 12 15 59 52 28 60 26 29 61 25 30 62 24 31 63 25 30 64 27 32 65 51 33 66 23 34 67 53 35 68 52 28 69 24 31 70 51 33 71 50 36 72 23 34 73 26 29 74 23 34 75 24 31 76 27 32 77 26 29 78 23 34 79 27 32 80 25 30 81 26 29 82 27 32 83 30 37 84 28 38 85 34 39 86 16 18 87 29 22 88 28 38 89 16 18 90 30 37 91 21 40 92 20 21 93 30 37 94 31 41 95 36 27 96 44 42 97 41 43 98 31 41 99 30 37 100 34 39 101 29 22 102 31 41 103 34 39 104 28 38 105 29 22 106 34 39 107 37 44 108 44 42 109 38 26 110 35 23 111 42 45 112 32 24 113 20 21 114 32 24 115 37 44 116 14 16 117 33 20 118 35 23 119 21 40 120 37 44 121 38 26 122 40 46 123 41 43 124 45 47 125 44 42 126 43 48 127 45 47 128 39 49 129 40 46 130 45 47 131 33 20 132 41 43 133 40 46 134 35 23 135 40 46 136 39 49 137 32 24 138 43 48 139 37 44 140 41 43 141 44 42 142 45 47 143 42 45 144 39 49 145 45 47 146 43 48 147 42 45 148 45 47 149 18 19 150 46 50 151 21 40 152 22 25 153 48 51 154 19 13 155 19 13 156 49 52 157 18 19 158 22 25 159 46 50 160 47 53 161 49 52 162 56 54 163 46 50 164 47 53 165 51 33 166 48 51 167 48 51 168 53 35 169 49 52 170 47 53 171 50 36 172 52 28 173 55 55 174 54 56 175 58 57 176 53 35 177 55 55 178 49 52 179 53 35 180 57 58 181 54 56 182 50 36 183 56 54 184 57 58 185 54 56 186 57 58 187 58 57 188 56 54 189 55 55 190 58 57 191 57 58 192 56 54 193 58 57 194 0 0 771 1 12 772 3 1 773 3 1 774 5 4 775 4 3 776 5 4 777 7 6 778 6 5 779 7 6 780 9 8 781 8 7 782 9 8 783 16 18 784 17 9 785 9 8 786 11 10 787 10 11 788 10 11 789 11 10 790 1 12 791 10 11 792 0 0 793 2 2 794 2 2 795 4 3 796 6 5 797 6 5 798 8 7 799 10 11 800 17 9 801 22 25 802 19 13 803 1 12 804 13 14 805 12 15 806 7 6 807 5 4 808 14 16 809 11 10 810 17 9 811 13 14 812 9 8 813 7 6 814 15 17 815 3 1 816 12 15 817 14 16 818 18 19 819 36 27 820 33 20 821 20 21 822 31 41 823 29 22 824 15 17 825 14 16 826 35 23 827 16 18 828 21 40 829 22 25 830 18 19 831 21 40 832 38 26 833 13 14 834 19 13 835 18 19 836 52 28 837 50 36 838 26 29 839 51 33 840 24 31 841 23 34 842 52 28 843 25 30 844 24 31 845 50 36 846 53 35 847 23 34 848 16 18 849 15 17 850 29 22 851 16 18 852 28 38 853 30 37 854 20 21 855 21 40 856 30 37 857 36 27 858 38 26 859 44 42 860 37 44 861 43 48 862 44 42 863 35 23 864 39 49 865 42 45 866 20 21 867 15 17 868 32 24 869 14 16 870 12 15 871 33 20 872 21 40 873 20 21 874 37 44 875 33 20 876 36 27 877 41 43 878 35 23 879 33 20 880 40 46 881 32 24 882 42 45 883 43 48 884 18 19 885 49 52 886 46 50 887 22 25 888 47 53 889 48 51 890 19 13 891 48 51 892 49 52 893 22 25 894 21 40 895 46 50 896 49 52 897 55 55 898 56 54 899 47 53 900 52 28 901 51 33 902 48 51 903 51 33 904 53 35 905 47 53 906 46 50 907 50 36 908 53 35 909 54 56 910 55 55 911 53 35 912 50 36 913 57 58 914 50 36 915 46 50 916 56 54 917</p>
        </triangles>
        <triangles material="Branch-material" count="384">
          <input semantic="VERTEX" source="#Tree_01-mesh-vertices" offset="0"/>
          <input semantic="NORMAL" source="#Tree_01-mesh-normals" offset="1"/>
          <input semantic="TEXCOORD" source="#Tree_01-mesh-map-0" offset="2" set="0"/>
          <p>67 59 195 62 60 196 66 61 197 65 62 198 64 63 199 67 59 200 65 62 201 63 64 202 59 65 203 63 64 204 66 61 205 60 66 206 73 67 207 75 68 208 76 69 209 74 70 210 73 67 211 76 69 212 74 70 213 72 71 214 68 72 215 72 71 216 75 68 217 69 73 218 82 74 219 84 75 220 85 76 221 83 77 222 82 74 223 85 76 224 83 77 225 81 78 226 77 79 227 81 78 228 84 75 229 78 80 230 91 81 231 93 82 232 94 83 233 92 84 234 91 81 235 94 83 236 92 84 237 90 85 238 86 86 239 90 85 240 93 82 241 87 87 242 100 88 243 102 89 244 103 90 245 101 91 246 100 88 247 103 90 248 101 91 249 99 92 250 95 93 251 99 92 252 102 89 253 96 94 254 112 95 255 107 96 256 111 97 257 110 98 258 109 99 259 112 95 260 110 98 261 108 100 262 104 101 263 108 100 264 111 97 265 105 102 266 121 103 267 116 104 268 118 105 269 119 106 270 118 105 271 115 107 272 117 108 273 119 106 274 113 109 275 117 108 276 120 110 277 121 103 278 129 111 279 127 112 280 130 113 281 128 114 282 127 112 283 124 115 284 126 116 285 128 114 286 122 117 287 126 116 288 129 111 289 130 113 290 138 118 291 136 119 292 139 120 293 137 121 294 136 119 295 133 122 296 135 123 297 137 121 298 131 124 299 135 123 300 138 118 301 139 120 302 147 125 303 145 126 304 148 127 305 146 128 306 145 126 307 142 129 308 144 130 309 146 128 310 140 131 311 144 130 312 147 125 313 148 127 314 156 132 315 154 133 316 157 134 317 155 135 318 154 133 319 151 136 320 153 137 321 155 135 322 149 138 323 153 137 324 156 132 325 157 134 326 166 139 327 161 140 328 163 141 329 164 142 330 163 141 331 160 143 332 162 144 333 164 142 334 158 145 335 162 144 336 165 146 337 166 139 338 175 147 339 170 148 340 174 149 341 173 150 342 172 151 343 175 147 344 173 150 345 171 152 346 167 153 347 171 152 348 174 149 349 168 154 350 181 155 351 183 156 352 184 157 353 182 158 354 181 155 355 184 157 356 182 158 357 180 159 358 176 160 359 180 159 360 183 156 361 177 161 362 190 162 363 192 163 364 193 164 365 191 165 366 190 162 367 193 164 368 191 165 369 189 166 370 185 167 371 189 166 372 192 163 373 186 168 374 199 169 375 201 170 376 202 171 377 200 172 378 199 169 379 202 171 380 200 172 381 198 173 382 194 174 383 198 173 384 201 170 385 195 175 386 208 176 387 210 177 388 211 178 389 209 179 390 208 176 391 211 178 392 209 179 393 207 180 394 203 181 395 207 180 396 210 177 397 204 182 398 220 183 399 215 184 400 219 185 401 218 186 402 217 187 403 220 183 404 218 186 405 216 188 406 212 189 407 216 188 408 219 185 409 213 190 410 229 191 411 224 192 412 226 193 413 227 194 414 226 193 415 223 195 416 225 196 417 227 194 418 221 197 419 225 196 420 228 198 421 229 191 422 237 199 423 235 200 424 238 201 425 236 202 426 235 200 427 232 203 428 234 204 429 236 202 430 230 205 431 234 204 432 237 199 433 238 201 434 246 206 435 244 207 436 247 208 437 245 209 438 244 207 439 241 210 440 243 211 441 245 209 442 239 212 443 243 211 444 246 206 445 247 208 446 255 213 447 253 214 448 256 215 449 254 216 450 253 214 451 250 217 452 252 218 453 254 216 454 248 219 455 252 218 456 255 213 457 256 215 458 264 220 459 262 221 460 265 222 461 263 223 462 262 221 463 259 224 464 261 225 465 263 223 466 257 226 467 261 225 468 264 220 469 265 222 470 274 227 471 269 228 472 271 229 473 272 230 474 271 229 475 268 231 476 270 232 477 272 230 478 266 233 479 270 232 480 273 234 481 274 227 482 283 235 483 278 236 484 282 237 485 281 238 486 280 239 487 283 235 488 281 238 489 279 240 490 275 241 491 279 240 492 282 237 493 276 242 494 289 243 495 291 244 496 292 245 497 290 246 498 289 243 499 292 245 500 290 246 501 288 247 502 284 248 503 288 247 504 291 244 505 285 249 506 298 250 507 300 251 508 301 252 509 299 253 510 298 250 511 301 252 512 299 253 513 297 254 514 293 255 515 297 254 516 300 251 517 294 256 518 307 257 519 309 258 520 310 259 521 308 260 522 307 257 523 310 259 524 308 260 525 306 261 526 302 262 527 306 261 528 309 258 529 303 263 530 316 264 531 318 265 532 319 266 533 317 267 534 316 264 535 319 266 536 317 267 537 315 268 538 311 269 539 315 268 540 318 265 541 312 270 542 328 271 543 323 272 544 327 273 545 326 274 546 325 275 547 328 271 548 326 274 549 324 276 550 320 277 551 324 276 552 327 273 553 321 278 554 337 279 555 332 280 556 334 281 557 335 282 558 334 281 559 331 283 560 333 284 561 335 282 562 329 285 563 333 284 564 336 286 565 337 279 566 345 287 567 343 288 568 346 289 569 344 290 570 343 288 571 340 291 572 342 292 573 344 290 574 338 293 575 342 292 576 345 287 577 346 289 578 354 294 579 352 295 580 355 296 581 353 297 582 352 295 583 349 298 584 351 299 585 353 297 586 347 300 587 351 299 588 354 294 589 355 296 590 363 301 591 361 302 592 364 303 593 362 304 594 361 302 595 358 305 596 360 306 597 362 304 598 356 307 599 360 306 600 363 301 601 364 303 602 372 308 603 370 309 604 373 310 605 371 311 606 370 309 607 367 312 608 369 313 609 371 311 610 365 314 611 369 313 612 372 308 613 373 310 614 382 315 615 377 316 616 379 317 617 380 318 618 379 317 619 376 319 620 378 320 621 380 318 622 374 321 623 378 320 624 381 322 625 382 315 626 391 323 627 386 324 628 390 325 629 389 326 630 388 327 631 391 323 632 389 326 633 387 328 634 383 329 635 387 328 636 390 325 637 384 330 638 397 331 639 399 332 640 400 333 641 398 334 642 397 331 643 400 333 644 398 334 645 396 335 646 392 336 647 396 335 648 399 332 649 393 337 650 406 338 651 408 339 652 409 340 653 407 341 654 406 338 655 409 340 656 407 341 657 405 342 658 401 343 659 405 342 660 408 339 661 402 344 662 415 345 663 417 346 664 418 347 665 416 348 666 415 345 667 418 347 668 416 348 669 414 349 670 410 350 671 414 349 672 417 346 673 411 351 674 424 352 675 426 353 676 427 354 677 425 355 678 424 352 679 427 354 680 425 355 681 423 356 682 419 357 683 423 356 684 426 353 685 420 358 686 436 359 687 431 360 688 435 361 689 434 362 690 433 363 691 436 359 692 434 362 693 432 364 694 428 365 695 432 364 696 435 361 697 429 366 698 445 367 699 440 368 700 442 369 701 443 370 702 442 369 703 439 371 704 441 372 705 443 370 706 437 373 707 441 372 708 444 374 709 445 367 710 453 375 711 451 376 712 454 377 713 452 378 714 451 376 715 448 379 716 450 380 717 452 378 718 446 381 719 450 380 720 453 375 721 454 377 722 462 382 723 460 383 724 463 384 725 461 385 726 460 383 727 457 386 728 459 387 729 461 385 730 455 388 731 459 387 732 462 382 733 463 384 734 471 389 735 469 390 736 472 391 737 470 392 738 469 390 739 466 393 740 468 394 741 470 392 742 464 395 743 468 394 744 471 389 745 472 391 746 480 396 747 478 397 748 481 398 749 479 399 750 478 397 751 475 400 752 477 401 753 479 399 754 473 402 755 477 401 756 480 396 757 481 398 758 490 403 759 485 404 760 487 405 761 488 406 762 487 405 763 484 407 764 486 408 765 488 406 766 482 409 767 486 408 768 489 410 769 490 403 770 67 59 918 64 63 919 62 60 920 65 62 921 61 411 922 64 63 923 65 62 924 67 59 925 63 64 926 63 64 927 67 59 928 66 61 929 73 67 930 71 412 931 75 68 932 74 70 933 70 413 934 73 67 935 74 70 936 76 69 937 72 71 938 72 71 939 76 69 940 75 68 941 82 74 942 80 414 943 84 75 944 83 77 945 79 415 946 82 74 947 83 77 948 85 76 949 81 78 950 81 78 951 85 76 952 84 75 953 91 81 954 89 416 955 93 82 956 92 84 957 88 417 958 91 81 959 92 84 960 94 83 961 90 85 962 90 85 963 94 83 964 93 82 965 100 88 966 98 418 967 102 89 968 101 91 969 97 419 970 100 88 971 101 91 972 103 90 973 99 92 974 99 92 975 103 90 976 102 89 977 112 95 978 109 99 979 107 96 980 110 98 981 106 420 982 109 99 983 110 98 984 112 95 985 108 100 986 108 100 987 112 95 988 111 97 989 121 103 990 120 110 991 116 104 992 119 106 993 121 103 994 118 105 995 117 108 996 121 103 997 119 106 998 117 108 999 114 421 1000 120 110 1001 129 111 1002 125 422 1003 127 112 1004 128 114 1005 130 113 1006 127 112 1007 126 116 1008 130 113 1009 128 114 1010 126 116 1011 123 423 1012 129 111 1013 138 118 1014 134 424 1015 136 119 1016 137 121 1017 139 120 1018 136 119 1019 135 123 1020 139 120 1021 137 121 1022 135 123 1023 132 425 1024 138 118 1025 147 125 1026 143 426 1027 145 126 1028 146 128 1029 148 127 1030 145 126 1031 144 130 1032 148 127 1033 146 128 1034 144 130 1035 141 427 1036 147 125 1037 156 132 1038 152 428 1039 154 133 1040 155 135 1041 157 134 1042 154 133 1043 153 137 1044 157 134 1045 155 135 1046 153 137 1047 150 429 1048 156 132 1049 166 139 1050 165 146 1051 161 140 1052 164 142 1053 166 139 1054 163 141 1055 162 144 1056 166 139 1057 164 142 1058 162 144 1059 159 430 1060 165 146 1061 175 147 1062 172 151 1063 170 148 1064 173 150 1065 169 431 1066 172 151 1067 173 150 1068 175 147 1069 171 152 1070 171 152 1071 175 147 1072 174 149 1073 181 155 1074 179 432 1075 183 156 1076 182 158 1077 178 433 1078 181 155 1079 182 158 1080 184 157 1081 180 159 1082 180 159 1083 184 157 1084 183 156 1085 190 162 1086 188 434 1087 192 163 1088 191 165 1089 187 435 1090 190 162 1091 191 165 1092 193 164 1093 189 166 1094 189 166 1095 193 164 1096 192 163 1097 199 169 1098 197 436 1099 201 170 1100 200 172 1101 196 437 1102 199 169 1103 200 172 1104 202 171 1105 198 173 1106 198 173 1107 202 171 1108 201 170 1109 208 176 1110 206 438 1111 210 177 1112 209 179 1113 205 439 1114 208 176 1115 209 179 1116 211 178 1117 207 180 1118 207 180 1119 211 178 1120 210 177 1121 220 183 1122 217 187 1123 215 184 1124 218 186 1125 214 440 1126 217 187 1127 218 186 1128 220 183 1129 216 188 1130 216 188 1131 220 183 1132 219 185 1133 229 191 1134 228 198 1135 224 192 1136 227 194 1137 229 191 1138 226 193 1139 225 196 1140 229 191 1141 227 194 1142 225 196 1143 222 441 1144 228 198 1145 237 199 1146 233 442 1147 235 200 1148 236 202 1149 238 201 1150 235 200 1151 234 204 1152 238 201 1153 236 202 1154 234 204 1155 231 443 1156 237 199 1157 246 206 1158 242 444 1159 244 207 1160 245 209 1161 247 208 1162 244 207 1163 243 211 1164 247 208 1165 245 209 1166 243 211 1167 240 445 1168 246 206 1169 255 213 1170 251 446 1171 253 214 1172 254 216 1173 256 215 1174 253 214 1175 252 218 1176 256 215 1177 254 216 1178 252 218 1179 249 447 1180 255 213 1181 264 220 1182 260 448 1183 262 221 1184 263 223 1185 265 222 1186 262 221 1187 261 225 1188 265 222 1189 263 223 1190 261 225 1191 258 449 1192 264 220 1193 274 227 1194 273 234 1195 269 228 1196 272 230 1197 274 227 1198 271 229 1199 270 232 1200 274 227 1201 272 230 1202 270 232 1203 267 450 1204 273 234 1205 283 235 1206 280 239 1207 278 236 1208 281 238 1209 277 451 1210 280 239 1211 281 238 1212 283 235 1213 279 240 1214 279 240 1215 283 235 1216 282 237 1217 289 243 1218 287 452 1219 291 244 1220 290 246 1221 286 453 1222 289 243 1223 290 246 1224 292 245 1225 288 247 1226 288 247 1227 292 245 1228 291 244 1229 298 250 1230 296 454 1231 300 251 1232 299 253 1233 295 455 1234 298 250 1235 299 253 1236 301 252 1237 297 254 1238 297 254 1239 301 252 1240 300 251 1241 307 257 1242 305 456 1243 309 258 1244 308 260 1245 304 457 1246 307 257 1247 308 260 1248 310 259 1249 306 261 1250 306 261 1251 310 259 1252 309 258 1253 316 264 1254 314 458 1255 318 265 1256 317 267 1257 313 459 1258 316 264 1259 317 267 1260 319 266 1261 315 268 1262 315 268 1263 319 266 1264 318 265 1265 328 271 1266 325 275 1267 323 272 1268 326 274 1269 322 460 1270 325 275 1271 326 274 1272 328 271 1273 324 276 1274 324 276 1275 328 271 1276 327 273 1277 337 279 1278 336 286 1279 332 280 1280 335 282 1281 337 279 1282 334 281 1283 333 284 1284 337 279 1285 335 282 1286 333 284 1287 330 461 1288 336 286 1289 345 287 1290 341 462 1291 343 288 1292 344 290 1293 346 289 1294 343 288 1295 342 292 1296 346 289 1297 344 290 1298 342 292 1299 339 463 1300 345 287 1301 354 294 1302 350 464 1303 352 295 1304 353 297 1305 355 296 1306 352 295 1307 351 299 1308 355 296 1309 353 297 1310 351 299 1311 348 465 1312 354 294 1313 363 301 1314 359 466 1315 361 302 1316 362 304 1317 364 303 1318 361 302 1319 360 306 1320 364 303 1321 362 304 1322 360 306 1323 357 467 1324 363 301 1325 372 308 1326 368 468 1327 370 309 1328 371 311 1329 373 310 1330 370 309 1331 369 313 1332 373 310 1333 371 311 1334 369 313 1335 366 469 1336 372 308 1337 382 315 1338 381 322 1339 377 316 1340 380 318 1341 382 315 1342 379 317 1343 378 320 1344 382 315 1345 380 318 1346 378 320 1347 375 470 1348 381 322 1349 391 323 1350 388 327 1351 386 324 1352 389 326 1353 385 471 1354 388 327 1355 389 326 1356 391 323 1357 387 328 1358 387 328 1359 391 323 1360 390 325 1361 397 331 1362 395 472 1363 399 332 1364 398 334 1365 394 473 1366 397 331 1367 398 334 1368 400 333 1369 396 335 1370 396 335 1371 400 333 1372 399 332 1373 406 338 1374 404 474 1375 408 339 1376 407 341 1377 403 475 1378 406 338 1379 407 341 1380 409 340 1381 405 342 1382 405 342 1383 409 340 1384 408 339 1385 415 345 1386 413 476 1387 417 346 1388 416 348 1389 412 477 1390 415 345 1391 416 348 1392 418 347 1393 414 349 1394 414 349 1395 418 347 1396 417 346 1397 424 352 1398 422 478 1399 426 353 1400 425 355 1401 421 479 1402 424 352 1403 425 355 1404 427 354 1405 423 356 1406 423 356 1407 427 354 1408 426 353 1409 436 359 1410 433 363 1411 431 360 1412 434 362 1413 430 480 1414 433 363 1415 434 362 1416 436 359 1417 432 364 1418 432 364 1419 436 359 1420 435 361 1421 445 367 1422 444 374 1423 440 368 1424 443 370 1425 445 367 1426 442 369 1427 441 372 1428 445 367 1429 443 370 1430 441 372 1431 438 481 1432 444 374 1433 453 375 1434 449 482 1435 451 376 1436 452 378 1437 454 377 1438 451 376 1439 450 380 1440 454 377 1441 452 378 1442 450 380 1443 447 483 1444 453 375 1445 462 382 1446 458 484 1447 460 383 1448 461 385 1449 463 384 1450 460 383 1451 459 387 1452 463 384 1453 461 385 1454 459 387 1455 456 485 1456 462 382 1457 471 389 1458 467 486 1459 469 390 1460 470 392 1461 472 391 1462 469 390 1463 468 394 1464 472 391 1465 470 392 1466 468 394 1467 465 487 1468 471 389 1469 480 396 1470 476 488 1471 478 397 1472 479 399 1473 481 398 1474 478 397 1475 477 401 1476 481 398 1477 479 399 1478 477 401 1479 474 489 1480 480 396 1481 490 403 1482 489 410 1483 485 404 1484 488 406 1485 490 403 1486 487 405 1487 486 408 1488 490 403 1489 488 406 1490 486 408 1491 483 490 1492 489 410 1493</p>
        </triangles>
      </mesh>
    </geometry>
  </library_geometries>
  <library_visual_scenes>
    <visual_scene id="Scene" name="Scene">
      <node id="Tree_01" name="Tree_01" type="NODE">
        <matrix sid="transform">-0.3187836 1.03873e-7 0 0 -1.03873e-7 -0.3187836 0 0 0 0 0.3187836 0 0 0 0 1</matrix>
        <instance_geometry url="#Tree_01-mesh" name="Tree_01">
          <bind_material>
            <technique_common>
              <instance_material symbol="BarkDecidious-material" target="#BarkDecidious-material">
                <bind_vertex_input semantic="UVMap" input_semantic="TEXCOORD" input_set="0"/>
              </instance_material>
              <instance_material symbol="Branch-material" target="#Branch-material">
                <bind_vertex_input semantic="UVMap" input_semantic="TEXCOORD" input_set="0"/>
              </instance_material>
            </technique_common>
          </bind_material>
        </instance_geometry>
      </node>
    </visual_scene>
  </library_visual_scenes>
  <scene>
    <instance_visual_scene url="#Scene"/>
  </scene>
</COLLADA>