<?xml version="1.0" encoding="utf-8"?>
<COLLADA xmlns="http://www.collada.org/2005/11/COLLADASchema" version="1.4.1" xmlns:xsi="http://www.w3.org/2001/XMLSchema-instance">
  <asset>
    <contributor>
      <author>Blender User</author>
      <authoring_tool>Blender 4.0.1 commit date:2023-11-16, commit time:16:40, hash:d0dd92834a08</authoring_tool>
    </contributor>
    <created>2023-11-28T13:41:37</created>
    <modified>2023-11-28T13:41:37</modified>
    <unit name="meter" meter="1"/>
    <up_axis>Z_UP</up_axis>
  </asset>
  <library_effects>
    <effect id="Cupcakes-effect">
      <profile_COMMON>
        <newparam sid="Cupcakes-surface">
          <surface type="2D">
            <init_from>Cupcakes</init_from>
          </surface>
        </newparam>
        <newparam sid="Cupcakes-sampler">
          <sampler2D>
            <source>Cupcakes-surface</source>
          </sampler2D>
        </newparam>
        <technique sid="common">
          <lambert>
            <emission>
              <color sid="emission">0 0 0 1</color>
            </emission>
            <diffuse>
              <texture texture="Cupcakes-sampler" texcoord="UVMap"/>
            </diffuse>
            <index_of_refraction>
              <float sid="ior">1.45</float>
            </index_of_refraction>
          </lambert>
        </technique>
      </profile_COMMON>
    </effect>
  </library_effects>
  <library_images>
    <image id="Cupcakes" name="Cupcakes">
      <init_from>Cupcakes.png</init_from>
    </image>
  </library_images>
  <library_materials>
    <material id="Cupcakes-material" name="Cupcakes">
      <instance_effect url="#Cupcakes-effect"/>
    </material>
  </library_materials>
  <library_geometries>
    <geometry id="Cupcake_01-mesh" name="Cupcake_01">
      <mesh>
        <source id="Cupcake_01-mesh-positions">
          <float_array id="Cupcake_01-mesh-positions-array" count="108">0 0.1825265 -0.1640194 0 0.1984387 0.09967321 0.1427049 0.1138034 -0.1640194 0.1551457 0.1237245 0.09967321 0.1779502 -0.04061591 -0.1640194 0.1934635 -0.04415673 0.09967321 0.07919526 -0.1644507 -0.1640194 0.08609932 -0.1787871 0.09967321 -0.07919526 -0.1644507 -0.1640194 -0.08609932 -0.1787871 0.09967321 -0.1779502 -0.04061591 -0.1640194 -0.1934635 -0.04415673 0.09967321 -0.1427049 0.1138034 -0.1640194 -0.1551457 0.1237245 0.09967321 0.129818 0.1035264 0.1194287 0 0.1660435 0.1194287 0.1618804 -0.03694814 0.1194287 0.07204359 -0.1496 0.1194287 -0.07204359 -0.1496 0.1194287 -0.1618804 -0.03694814 0.1194287 -0.129818 0.1035264 0.1194287 0.1484534 0.1183876 0.1538516 0 0.189879 0.1538516 0.1851183 -0.04225206 0.1538516 0.08238542 -0.1710751 0.1538516 -0.08238542 -0.1710751 0.1538516 -0.1851183 -0.04225206 0.1538516 -0.1484534 0.1183876 0.1538516 0.1143196 0.09116685 0.2802938 0 0.1462202 0.2802938 0.1425542 -0.03253704 0.2802938 0.06344258 -0.1317399 0.2802938 -0.06344258 -0.1317399 0.2802938 -0.1425542 -0.03253704 0.2802938 -0.1143196 0.09116685 0.2802938 0.006280899 0 0.3314618</float_array>
          <technique_common>
            <accessor source="#Cupcake_01-mesh-positions-array" count="36" stride="3">
              <param name="X" type="float"/>
              <param name="Y" type="float"/>
              <param name="Z" type="float"/>
            </accessor>
          </technique_common>
        </source>
        <source id="Cupcake_01-mesh-normals">
          <float_array id="Cupcake_01-mesh-normals-array" count="108">0 0.9107812 0.4128893 0.598264 0.4770997 -0.6437827 0 0.7652084 -0.6437827 0.7120774 0.5678628 0.4128894 0.7460231 -0.1702748 -0.6437827 0.8879461 -0.2026679 0.4128893 0.3320115 -0.6894289 -0.6437827 0.3951732 -0.8205854 0.4128894 -0.3320115 -0.6894289 -0.6437827 -0.3951731 -0.8205856 0.4128893 -0.7460229 -0.1702748 -0.6437827 -0.7540051 0.6012992 0.2644157 0 0.964409 0.2644151 -0.7120775 0.5678628 0.4128894 -0.598264 0.4770997 -0.6437827 0.9402293 -0.2146012 0.2644152 -0.9402293 -0.2146012 0.264415 -0.8879461 -0.2026679 0.4128892 0.7540051 0.6012992 0.2644153 0.4184414 -0.8689025 0.2644153 -0.4184414 -0.8689023 0.2644156 -0.7760037 0.6188426 -0.1218694 0.4306495 -0.8942533 -0.1218696 0.7760037 0.6188426 -0.1218697 -0.4306497 -0.8942532 -0.1218695 0.9676609 -0.2208622 -0.1218696 -0.9676609 -0.2208623 -0.1218698 -0.5927823 0.4717859 0.6527076 -0.001251816 0.7601574 0.6497379 0.01519185 0 0.9998847 -0.3301811 -0.6831113 0.6514135 0.7443803 -0.170208 0.645699 0 0.9925462 -0.1218696 -0.7380839 -0.1681969 0.6534081 0.3294166 -0.6867274 0.6479895 0.5959325 0.4763005 0.646531</float_array>
          <technique_common>
            <accessor source="#Cupcake_01-mesh-normals-array" count="36" stride="3">
              <param name="X" type="float"/>
              <param name="Y" type="float"/>
              <param name="Z" type="float"/>
            </accessor>
          </technique_common>
        </source>
        <source id="Cupcake_01-mesh-map-0">
          <float_array id="Cupcake_01-mesh-map-0-array" count="408">0.009628772 0.6221858 0.1552307 0.7009825 0.1552307 0.6221858 0.8211703 0.6556861 0.6755684 0.7464293 0.6755684 0.6611643 0.8211703 0.7483844 0.6755684 0.8148065 0.6755684 0.7464293 0.9344887 0.9127564 0.8432187 0.7671545 0.9306765 0.7671545 0.8227226 0.5402027 0.6771208 0.4639094 0.6771208 0.5322867 0.1774572 0.2789245 0.2298644 0.2072435 0.1953447 0.2789245 0.6771208 0.4639094 0.8227226 0.3731663 0.6771208 0.3786444 0.1552307 0.5433892 0.009628772 0.6221858 0.1552307 0.6221858 0.4178841 0.2017999 0.516142 0.07858848 0.3741552 0.01021122 0.2187118 0.3645905 0.3074296 0.3683093 0.31141 0.3857483 0.3857482 0.2313834 0.3074296 0.1895397 0.31141 0.1721007 0.1774572 0.2789245 0.2298644 0.3506055 0.2187118 0.3645905 0.31141 0.3857483 0.3696321 0.3187044 0.3857482 0.3264656 0.2187117 0.1932585 0.3074296 0.1895397 0.2298644 0.2072435 0.3857482 0.3264656 0.3696321 0.2391445 0.3857482 0.2313834 0.3399552 0.7664601 0.2579844 0.7854672 0.3296654 0.7854672 0.5445172 0.7579762 0.5635243 0.6722052 0.5445171 0.6804111 0.0114715 0.9682601 0.09674179 0.9872671 0.01718193 0.9872671 0.01092249 0.8595985 0.09669351 0.8786056 0.01912832 0.8786056 0.5635243 0.8320364 0.5445172 0.7579762 0.5445172 0.8201786 0.09962213 0.8595985 0.1588959 0.8786056 0.09669351 0.8786056 0.5635243 0.7609049 0.6333412 0.6872355 0.5635243 0.6722052 0.8165134 0.08893567 0.7861149 0.1520589 0.7357757 0.08546757 0.0114715 0.9682601 0.09199267 0.8984431 0.1024522 0.9682601 0.01092249 0.8595985 0.09425783 0.7897816 0.09962213 0.8595985 0.3399552 0.7664601 0.2579844 0.6966431 0.2579844 0.7664601 0.5635243 0.8320364 0.6333412 0.7555406 0.5635243 0.7609049 0.09962213 0.8595985 0.1490342 0.7897816 0.1707537 0.8595985 0.2579844 0.7664601 0.1948611 0.6966431 0.1760136 0.7664601 0.7178099 0.1676491 0.6630335 0.1239665 0.7357757 0.08546757 0.6630335 0.05390483 0.7178099 0.01022219 0.7357757 0.08546757 0.7861149 0.02581232 0.8165134 0.08893567 0.7357757 0.08546757 0.7861149 0.1520589 0.7178099 0.1676491 0.7357757 0.08546757 0.6630335 0.1239665 0.6630335 0.05390483 0.7357757 0.08546757 0.7178099 0.01022219 0.7861149 0.02581232 0.7357757 0.08546757 0.2579844 0.7664601 0.1863034 0.7854672 0.2579844 0.7854672 0.009628772 0.6221858 0.009628772 0.7078518 0.1552307 0.7009825 0.8211703 0.6556861 0.8211703 0.7483844 0.6755684 0.7464293 0.8211703 0.7483844 0.8211703 0.8227226 0.6755684 0.8148065 0.9344887 0.9127564 0.8394065 0.9127564 0.8432187 0.7671545 0.8227226 0.5402027 0.8227226 0.4658645 0.6771208 0.4639094 0.1774572 0.2789245 0.2187117 0.1932585 0.2298644 0.2072435 0.6771208 0.4639094 0.8227226 0.4658645 0.8227226 0.3731663 0.1552307 0.5433892 0.009628772 0.5365198 0.009628772 0.6221858 0.3196262 0.07858848 0.3390874 0.1638534 0.4178841 0.2017999 0.4178841 0.2017999 0.4966808 0.1638535 0.516142 0.07858848 0.516142 0.07858848 0.461613 0.01021128 0.3741552 0.01021122 0.3741552 0.01021122 0.3196262 0.07858848 0.4178841 0.2017999 0.2187118 0.3645905 0.2298644 0.3506055 0.3074296 0.3683093 0.3857482 0.2313834 0.3696321 0.2391445 0.3074296 0.1895397 0.1774572 0.2789245 0.1953447 0.2789245 0.2298644 0.3506055 0.31141 0.3857483 0.3074296 0.3683093 0.3696321 0.3187044 0.2187117 0.1932585 0.31141 0.1721007 0.3074296 0.1895397 0.3857482 0.3264656 0.3696321 0.3187044 0.3696321 0.2391445 0.3399552 0.7664601 0.2579844 0.7664601 0.2579844 0.7854672 0.5445172 0.7579762 0.5635243 0.7609049 0.5635243 0.6722052 0.0114715 0.9682601 0.1024522 0.9682601 0.09674179 0.9872671 0.01092249 0.8595985 0.09962213 0.8595985 0.09669351 0.8786056 0.5635243 0.8320364 0.5635243 0.7609049 0.5445172 0.7579762 0.09962213 0.8595985 0.1707537 0.8595985 0.1588959 0.8786056 0.5635243 0.7609049 0.6333412 0.7555406 0.6333412 0.6872355 0.0114715 0.9682601 0.02193105 0.8984431 0.09199267 0.8984431 0.01092249 0.8595985 0.02595287 0.7897816 0.09425783 0.7897816 0.3399552 0.7664601 0.3211077 0.6966431 0.2579844 0.6966431 0.5635243 0.8320364 0.6333412 0.8103169 0.6333412 0.7555406 0.09962213 0.8595985 0.09425783 0.7897816 0.1490342 0.7897816 0.2579844 0.7664601 0.2579844 0.6966431 0.1948611 0.6966431 0.2579844 0.7664601 0.1760136 0.7664601 0.1863034 0.7854672</float_array>
          <technique_common>
            <accessor source="#Cupcake_01-mesh-map-0-array" count="204" stride="2">
              <param name="S" type="float"/>
              <param name="T" type="float"/>
            </accessor>
          </technique_common>
        </source>
        <vertices id="Cupcake_01-mesh-vertices">
          <input semantic="POSITION" source="#Cupcake_01-mesh-positions"/>
        </vertices>
        <triangles material="Cupcakes-material" count="68">
          <input semantic="VERTEX" source="#Cupcake_01-mesh-vertices" offset="0"/>
          <input semantic="NORMAL" source="#Cupcake_01-mesh-normals" offset="1"/>
          <input semantic="TEXCOORD" source="#Cupcake_01-mesh-map-0" offset="2" set="0"/>
          <p>1 0 0 2 1 1 0 2 2 3 3 3 4 4 4 2 1 5 5 5 6 6 6 7 4 4 8 7 7 9 8 8 10 6 6 11 9 9 12 10 10 13 8 8 14 1 0 15 20 11 16 15 12 17 10 10 18 13 13 19 12 14 20 12 14 21 1 0 22 0 2 23 2 1 24 6 6 25 10 10 26 3 3 27 16 15 28 5 5 29 9 9 30 19 16 31 11 17 32 1 0 33 14 18 34 3 3 35 5 5 36 17 19 37 7 7 38 13 13 39 19 16 40 20 11 41 7 7 42 18 20 43 9 9 44 27 21 45 15 12 46 20 11 47 19 16 48 27 21 49 20 11 50 24 22 51 18 20 52 17 19 53 21 23 54 16 15 55 14 18 56 25 24 57 19 16 58 18 20 59 23 25 60 17 19 61 16 15 62 26 26 63 34 27 64 27 21 65 29 28 66 34 27 67 35 29 68 24 22 69 32 30 70 25 24 71 21 23 72 30 31 73 23 25 74 27 21 75 29 28 76 22 32 77 25 24 78 33 33 79 26 26 80 23 25 81 31 34 82 24 22 83 22 32 84 28 35 85 21 23 86 33 33 87 32 30 88 35 29 89 31 34 90 30 31 91 35 29 92 28 35 93 29 28 94 35 29 95 34 27 96 33 33 97 35 29 98 32 30 99 31 34 100 35 29 101 30 31 102 28 35 103 35 29 104 22 32 105 14 18 106 15 12 107 1 0 108 3 3 109 2 1 110 3 3 111 5 5 112 4 4 113 5 5 114 7 7 115 6 6 116 7 7 117 9 9 118 8 8 119 9 9 120 11 17 121 10 10 122 1 0 123 13 13 124 20 11 125 10 10 126 11 17 127 13 13 128 12 14 129 13 13 130 1 0 131 12 14 132 0 2 133 2 1 134 2 1 135 4 4 136 6 6 137 6 6 138 8 8 139 10 10 140 10 10 141 12 14 142 2 1 143 3 3 144 14 18 145 16 15 146 9 9 147 18 20 148 19 16 149 1 0 150 15 12 151 14 18 152 5 5 153 16 15 154 17 19 155 13 13 156 11 17 157 19 16 158 7 7 159 17 19 160 18 20 161 27 21 162 22 32 163 15 12 164 19 16 165 26 26 166 27 21 167 24 22 168 25 24 169 18 20 170 21 23 171 23 25 172 16 15 173 25 24 174 26 26 175 19 16 176 23 25 177 24 22 178 17 19 179 26 26 180 33 33 181 34 27 182 24 22 183 31 34 184 32 30 185 21 23 186 28 35 187 30 31 188 27 21 189 34 27 190 29 28 191 25 24 192 32 30 193 33 33 194 23 25 195 30 31 196 31 34 197 22 32 198 29 28 199 28 35 200 22 32 201 21 23 202 14 18 203</p>
        </triangles>
      </mesh>
    </geometry>
  </library_geometries>
  <library_visual_scenes>
    <visual_scene id="Scene" name="Scene">
      <node id="Cupcake_01" name="Cupcake_01" type="NODE">
        <matrix sid="transform">-0.219016 7.13645e-8 0 0 -7.13645e-8 -0.219016 0 0 0 0 0.219016 0 0 0 0 1</matrix>
        <instance_geometry url="#Cupcake_01-mesh" name="Cupcake_01">
          <bind_material>
            <technique_common>
              <instance_material symbol="Cupcakes-material" target="#Cupcakes-material">
                <bind_vertex_input semantic="UVMap" input_semantic="TEXCOORD" input_set="0"/>
              </instance_material>
            </technique_common>
          </bind_material>
        </instance_geometry>
      </node>
    </visual_scene>
  </library_visual_scenes>
  <scene>
    <instance_visual_scene url="#Scene"/>
  </scene>
</COLLADA>