<?xml version="1.0" encoding="utf-8"?>
<COLLADA xmlns="http://www.collada.org/2005/11/COLLADASchema" version="1.4.1" xmlns:xsi="http://www.w3.org/2001/XMLSchema-instance">
  <asset>
    <contributor>
      <author>Blender User</author>
      <authoring_tool>Blender 4.0.1 commit date:2023-11-16, commit time:16:40, hash:d0dd92834a08</authoring_tool>
    </contributor>
    <created>2023-11-28T13:39:14</created>
    <modified>2023-11-28T13:39:14</modified>
    <unit name="meter" meter="1"/>
    <up_axis>Z_UP</up_axis>
  </asset>
  <library_effects>
    <effect id="Ice_cream_01-effect">
      <profile_COMMON>
        <newparam sid="Ice_cream_01-surface">
          <surface type="2D">
            <init_from>Ice_cream_01</init_from>
          </surface>
        </newparam>
        <newparam sid="Ice_cream_01-sampler">
          <sampler2D>
            <source>Ice_cream_01-surface</source>
          </sampler2D>
        </newparam>
        <technique sid="common">
          <lambert>
            <emission>
              <color sid="emission">0 0 0 1</color>
            </emission>
            <diffuse>
              <texture texture="Ice_cream_01-sampler" texcoord="UVMap"/>
            </diffuse>
            <index_of_refraction>
              <float sid="ior">1.45</float>
            </index_of_refraction>
          </lambert>
        </technique>
      </profile_COMMON>
    </effect>
  </library_effects>
  <library_images>
    <image id="Ice_cream_01" name="Ice_cream_01">
      <init_from>Ice_cream_01.png</init_from>
    </image>
  </library_images>
  <library_materials>
    <material id="Ice_cream_01-material" name="Ice_cream_01">
      <instance_effect url="#Ice_cream_01-effect"/>
    </material>
  </library_materials>
  <library_geometries>
    <geometry id="Ice_cream_01-mesh" name="Ice_cream_01">
      <mesh>
        <source id="Ice_cream_01-mesh-positions">
          <float_array id="Ice_cream_01-mesh-positions-array" count="132">-1.169236 -0.3254563 1.338046 0.09068667 0.9944553 1.160976 -0.4449049 -1.23384 1.348848 0.8767907 0.6158878 1.160976 0.716832 -1.23384 1.366173 1.070942 -0.2347463 1.160976 0.008980333 0 -2.373727 0.5269415 -0.9169018 1.160976 1.441163 -0.3254563 1.376976 -0.3455681 -0.9169018 1.160976 0.1359636 1.311394 1.357511 -0.8895689 -0.2347463 1.160976 1.182652 0.8072796 1.37312 -0.6954173 0.6158878 1.160976 -0.9107251 0.8072796 1.341901 0.1804072 1.359404 1.676093 -0.9050297 0.8362717 1.632879 -1.17311 -0.3391975 1.622206 -0.4219648 -1.281851 1.652111 0.7827793 -1.281851 1.700075 1.533925 -0.3391975 1.729981 1.265844 0.8362717 1.719308 -0.9736907 -0.2631906 1.832687 -0.3765696 -1.016285 1.896987 -0.7605805 0.6759034 1.855635 0.1022845 1.09384 1.948551 0.5811385 -1.016285 2.000116 1.17826 -0.2631906 2.064415 0.9651495 0.6759034 2.041467 -0.7360203 -0.1872395 3.008247 -0.2865661 -0.7509113 3.000953 -0.5756117 0.5156477 3.005644 0.07386803 0.828462 2.995103 0.4343022 -0.7509113 2.989253 0.8837563 -0.1872396 2.981959 0.723348 0.5156477 2.984562 0.07406204 -0.002363502 3.306282 -0.4351693 -1.008387 2.457776 -1.02827 -0.260931 2.398632 0.8975152 0.6711313 2.590673 1.109191 -0.2609311 2.611781 0.51609 -1.008387 2.552637 -0.8165946 0.6711313 2.41974 0.04046034 1.085938 2.505206</float_array>
          <technique_common>
            <accessor source="#Ice_cream_01-mesh-positions-array" count="44" stride="3">
              <param name="X" type="float"/>
              <param name="Y" type="float"/>
              <param name="Z" type="float"/>
            </accessor>
          </technique_common>
        </source>
        <source id="Ice_cream_01-mesh-normals">
          <float_array id="Ice_cream_01-mesh-normals-array" count="132">-0.02158606 0.00290966 -0.9997628 -0.0105831 0.755397 -0.655182 0.5744405 0.4680034 -0.6715586 0.7127686 -0.158796 -0.6831873 0.3131433 -0.6595295 -0.6833464 -0.3325719 -0.6631178 -0.670575 -0.7404012 -0.1578525 -0.6533673 -0.7040829 0.5459353 -0.4541165 -0.01412093 0.8660107 -0.499826 -0.5998787 0.4717367 -0.6462277 0.3537197 -0.7612964 -0.5434246 0.6512855 0.5266968 -0.5462763 -0.8705468 -0.1951004 -0.4517569 0.8052443 -0.1860967 -0.5629829 -0.9181563 -0.2170966 0.3314484 -0.7376371 0.5999239 0.3098112 -0.3903886 -0.7762869 -0.4949498 -0.395439 -0.8687252 0.2982355 0.3432466 -0.8106864 0.4743096 -0.4416589 -0.7898585 0.4255127 0.02253288 0.9636057 0.2663767 0.767586 0.5898582 0.2507571 0.9438787 -0.2130029 0.252434 0.4339035 -0.8610437 0.2652012 -0.4505164 -0.8677451 0.2098894 -0.694628 -0.1535274 0.7027953 -0.963141 -0.2136452 0.1634485 -0.0527122 0.9056301 0.4207798 0.6677951 0.5725542 0.4756379 0.8439306 -0.1972298 0.4988803 -0.9024205 -0.1778224 0.3924494 -0.7453671 0.5443006 0.3849217 0.5501929 0.4245436 0.7190624 0.008860766 0.706519 0.7076387 0.01405817 0 0.9999012 0.7354936 0.6098439 0.2951945 0.6698542 -0.1378988 0.7295747 0.9212099 -0.2192521 0.3214045 0.3868458 -0.8785243 0.2802597 -0.3010647 -0.6288643 0.7168611 -0.7838838 0.5967377 0.1715528 -0.5567145 0.4477381 0.699714 0.3086776 -0.610286 0.7295678 -0.03352153 0.9733236 0.2269752</float_array>
          <technique_common>
            <accessor source="#Ice_cream_01-mesh-normals-array" count="44" stride="3">
              <param name="X" type="float"/>
              <param name="Y" type="float"/>
              <param name="Z" type="float"/>
            </accessor>
          </technique_common>
        </source>
        <source id="Ice_cream_01-mesh-map-0">
          <float_array id="Ice_cream_01-mesh-map-0-array" count="504">0.08245092 0.5027254 0.6073219 0.4905928 0.6073219 0.3738637 0.02107405 0.5165603 0.3739951 0.1174364 0.4528527 0.2161077 0.02107405 0.5165603 0.4528527 0.2161077 0.5160915 0.2952361 0.5317844 0.6044363 0.006913423 0.6813488 0.006913423 0.5517891 0.005925834 0.5152658 0.3651155 0.1090522 0.2748159 0.0631566 0.8409133 0.1592359 0.8469016 0.310393 0.8853002 0.14221 0.005925834 0.5152658 0.2748159 0.0631566 0.162214 0.005925774 0.08245092 0.5027254 0.6073218 0.6073221 0.6073219 0.4905928 0.6305771 0.05793702 0.497639 0.14221 0.5497954 0.1592289 0.7601367 0.05794018 0.8853002 0.14221 0.7777389 0.007337629 0.5786221 0.2855409 0.6914579 0.3852416 0.6953501 0.3417575 0.6305771 0.05793702 0.7777389 0.007337629 0.6052134 0.007337629 0.9547946 0.6225098 0.9125928 0.4524111 0.911602 0.6269618 0.6953501 0.3417575 0.8469016 0.310393 0.8120806 0.2855466 0.5497954 0.1592289 0.5360214 0.310393 0.5786221 0.2855409 0.477408 0.9490144 0.3289157 0.8960332 0.4709866 0.9125947 0.6754723 0.862639 0.8294233 0.8194488 0.6681681 0.8154361 0.1799383 0.8207036 0.007260441 0.7704579 0.1818004 0.7682789 0.3079409 0.9899873 0.477408 0.9490144 0.4804189 0.9940742 0.9527315 0.3194275 0.9125928 0.4524111 0.9547946 0.4543079 0.5200313 0.862639 0.6681681 0.8154361 0.5069129 0.8114233 0.1799383 0.8207036 0.32179 0.7722431 0.3148296 0.8218485 0.7881808 0.3534655 0.7068565 0.4756758 0.7973409 0.4644253 0.8294233 0.8194488 0.679164 0.7748101 0.6681681 0.8154361 0.6681681 0.8154361 0.550845 0.762925 0.5069129 0.8114233 0.2137193 0.7174491 0.3742265 0.693655 0.2455492 0.7553755 0.911602 0.6269618 0.8813768 0.4638037 0.8784439 0.6032613 0.5363166 0.7171021 0.3742265 0.693655 0.3749077 0.6396538 0.006065607 0.1873331 0.03591215 0.03499239 0.03625792 0.1777059 0.5869955 0.2677919 0.5631675 0.1634326 0.6834387 0.1909098 0.2643814 0.9194595 0.137431 0.9786671 0.1260113 0.9237964 0.3392946 0.8140769 0.4590616 0.748555 0.4804189 0.8294023 0.7946776 0.6028378 0.7068565 0.4756758 0.7075982 0.5800462 0.5596708 0.6812323 0.6810657 0.6193612 0.584658 0.6223643 0.1260113 0.9237964 0.05374348 0.9804775 0.01494884 0.9159787 0.6871107 0.6920242 0.7774735 0.6163579 0.6810657 0.6193612 0.7799033 0.2677921 0.683452 0.3142362 0.6834387 0.1909098 0.5631675 0.1634326 0.629911 0.0797432 0.6834387 0.1909098 0.7369667 0.0797432 0.8037195 0.1634328 0.6834387 0.1909098 0.683452 0.3142362 0.5869955 0.2677919 0.6834387 0.1909098 0.8037195 0.1634328 0.7799033 0.2677921 0.6834387 0.1909098 0.629911 0.0797432 0.7369667 0.0797432 0.6834387 0.1909098 0.807483 0.7866951 0.6871107 0.6920242 0.679164 0.7748101 0.01306307 0.8339477 0.1260113 0.9237964 0.01494884 0.9159787 0.679164 0.7748101 0.5596708 0.6812323 0.550845 0.762925 0.8813768 0.4638037 0.7946776 0.6028378 0.8784439 0.6032613 0.4709866 0.9125947 0.3392946 0.8140769 0.4804189 0.8294023 0.2643814 0.8379044 0.1260113 0.9237964 0.1249695 0.8425236 0.8813768 0.4638037 0.7881808 0.3534655 0.7973409 0.4644253 0.8409133 0.1592359 0.8120806 0.2855466 0.8469016 0.310393 0.6305771 0.05793702 0.6052134 0.007337629 0.497639 0.14221 0.7601367 0.05794018 0.8409133 0.1592359 0.8853002 0.14221 0.5786221 0.2855409 0.5360214 0.310393 0.6914579 0.3852416 0.6305771 0.05793702 0.7601367 0.05794018 0.7777389 0.007337629 0.9547946 0.6225098 0.9547946 0.4543079 0.9125928 0.4524111 0.6953501 0.3417575 0.6914579 0.3852416 0.8469016 0.310393 0.5497954 0.1592289 0.497639 0.14221 0.5360214 0.310393 0.477408 0.9490144 0.2985839 0.9403219 0.3289157 0.8960332 0.6754723 0.862639 0.8309132 0.862639 0.8294233 0.8194488 0.1799383 0.8207036 0.01174038 0.8218485 0.007260441 0.7704579 0.3079409 0.9899873 0.2985839 0.9403219 0.477408 0.9490144 0.9527315 0.3194275 0.9076758 0.3124517 0.9125928 0.4524111 0.5200313 0.862639 0.6754723 0.862639 0.6681681 0.8154361 0.1799383 0.8207036 0.1818004 0.7682789 0.32179 0.7722431 0.7881808 0.3534655 0.7076546 0.3919725 0.7068565 0.4756758 0.8294233 0.8194488 0.807483 0.7866951 0.679164 0.7748101 0.6681681 0.8154361 0.679164 0.7748101 0.550845 0.762925 0.2137193 0.7174491 0.3749077 0.6396538 0.3742265 0.693655 0.911602 0.6269618 0.9125928 0.4524111 0.8813768 0.4638037 0.5363166 0.7171021 0.5032125 0.7553755 0.3742265 0.693655 0.006065607 0.1873331 0.006065607 0.008352935 0.03591215 0.03499239 0.2643814 0.9194595 0.2418027 0.9781469 0.137431 0.9786671 0.3392946 0.8140769 0.3520081 0.7493525 0.4590616 0.748555 0.7946776 0.6028378 0.7973409 0.4644253 0.7068565 0.4756758 0.5596708 0.6812323 0.6871107 0.6920242 0.6810657 0.6193612 0.1260113 0.9237964 0.137431 0.9786671 0.05374348 0.9804775 0.6871107 0.6920242 0.8145506 0.702816 0.7774735 0.6163579 0.807483 0.7866951 0.8145506 0.702816 0.6871107 0.6920242 0.01306307 0.8339477 0.1249695 0.8425236 0.1260113 0.9237964 0.679164 0.7748101 0.6871107 0.6920242 0.5596708 0.6812323 0.8813768 0.4638037 0.7973409 0.4644253 0.7946776 0.6028378 0.4709866 0.9125947 0.3289157 0.8960332 0.3392946 0.8140769 0.2643814 0.8379044 0.2643814 0.9194595 0.1260113 0.9237964 0.8813768 0.4638037 0.8714484 0.3520092 0.7881808 0.3534655</float_array>
          <technique_common>
            <accessor source="#Ice_cream_01-mesh-map-0-array" count="252" stride="2">
              <param name="S" type="float"/>
              <param name="T" type="float"/>
            </accessor>
          </technique_common>
        </source>
        <vertices id="Ice_cream_01-mesh-vertices">
          <input semantic="POSITION" source="#Ice_cream_01-mesh-positions"/>
        </vertices>
        <triangles material="Ice_cream_01-material" count="84">
          <input semantic="VERTEX" source="#Ice_cream_01-mesh-vertices" offset="0"/>
          <input semantic="NORMAL" source="#Ice_cream_01-mesh-normals" offset="1"/>
          <input semantic="TEXCOORD" source="#Ice_cream_01-mesh-map-0" offset="2" set="0"/>
          <p>6 0 0 1 1 1 3 2 2 6 0 3 3 2 4 5 3 5 6 0 6 5 3 7 7 4 8 6 0 9 7 4 10 9 5 11 6 0 12 9 5 13 11 6 14 1 1 15 14 7 16 10 8 17 6 0 18 11 6 19 13 9 20 6 0 21 13 9 22 1 1 23 5 3 24 4 10 25 7 4 26 3 2 27 10 8 28 12 11 29 9 5 30 0 12 31 11 6 32 5 3 33 12 11 34 8 13 35 14 7 36 17 14 37 16 15 38 11 6 39 14 7 40 13 9 41 7 4 42 2 16 43 9 5 44 18 17 45 26 18 46 23 19 47 10 8 48 16 15 49 15 20 50 8 13 51 21 21 52 20 22 53 4 10 54 18 17 55 2 16 56 2 16 57 17 14 58 0 12 59 12 11 60 15 20 61 21 21 62 8 13 63 19 23 64 4 10 65 37 24 66 29 25 67 38 26 68 16 15 69 25 27 70 15 20 71 15 20 72 28 28 73 21 21 74 19 23 75 27 29 76 26 18 77 16 15 78 22 30 79 24 31 80 21 21 81 27 29 82 20 22 83 17 14 84 23 19 85 22 30 86 35 32 87 32 33 88 36 34 89 39 35 90 34 36 91 40 37 92 41 38 93 30 39 94 37 24 95 42 40 96 29 25 97 31 41 98 39 35 99 32 33 100 35 32 101 40 37 102 33 42 103 41 38 104 43 43 105 31 41 106 32 33 107 33 42 108 34 36 109 36 34 110 32 33 111 31 41 112 36 34 113 29 25 114 30 39 115 36 34 116 34 36 117 35 32 118 36 34 119 30 39 120 33 42 121 36 34 122 31 41 123 29 25 124 36 34 125 24 31 126 43 43 127 25 27 128 26 18 129 40 37 130 41 38 131 25 27 132 39 35 133 28 28 134 22 30 135 42 40 136 24 31 137 23 19 138 41 38 139 37 24 140 28 28 141 40 37 142 27 29 143 22 30 144 37 24 145 38 26 146 1 1 147 13 9 148 14 7 149 5 3 150 8 13 151 4 10 152 3 2 153 1 1 154 10 8 155 9 5 156 2 16 157 0 12 158 5 3 159 3 2 160 12 11 161 14 7 162 0 12 163 17 14 164 11 6 165 0 12 166 14 7 167 7 4 168 4 10 169 2 16 170 18 17 171 19 23 172 26 18 173 10 8 174 14 7 175 16 15 176 8 13 177 12 11 178 21 21 179 4 10 180 19 23 181 18 17 182 2 16 183 18 17 184 17 14 185 12 11 186 10 8 187 15 20 188 8 13 189 20 22 190 19 23 191 37 24 192 30 39 193 29 25 194 16 15 195 24 31 196 25 27 197 15 20 198 25 27 199 28 28 200 19 23 201 20 22 202 27 29 203 16 15 204 17 14 205 22 30 206 21 21 207 28 28 208 27 29 209 17 14 210 18 17 211 23 19 212 39 35 213 35 32 214 34 36 215 41 38 216 33 42 217 30 39 218 42 40 219 38 26 220 29 25 221 39 35 222 43 43 223 32 33 224 40 37 225 34 36 226 33 42 227 43 43 228 42 40 229 31 41 230 24 31 231 42 40 232 43 43 233 26 18 234 27 29 235 40 37 236 25 27 237 43 43 238 39 35 239 22 30 240 38 26 241 42 40 242 23 19 243 26 18 244 41 38 245 28 28 246 39 35 247 40 37 248 22 30 249 23 19 250 37 24 251</p>
        </triangles>
      </mesh>
    </geometry>
  </library_geometries>
  <library_visual_scenes>
    <visual_scene id="Scene" name="Scene">
      <node id="Ice_cream_01" name="Ice_cream_01" type="NODE">
        <matrix sid="transform">-0.04351143 1.41778e-8 0 0 -1.41778e-8 -0.04351143 0 0 0 0 0.04351143 0 0 0 0 1</matrix>
        <instance_geometry url="#Ice_cream_01-mesh" name="Ice_cream_01">
          <bind_material>
            <technique_common>
              <instance_material symbol="Ice_cream_01-material" target="#Ice_cream_01-material">
                <bind_vertex_input semantic="UVMap" input_semantic="TEXCOORD" input_set="0"/>
              </instance_material>
            </technique_common>
          </bind_material>
        </instance_geometry>
      </node>
    </visual_scene>
  </library_visual_scenes>
  <scene>
    <instance_visual_scene url="#Scene"/>
  </scene>
</COLLADA>