<?xml version="1.0" encoding="utf-8"?>
<COLLADA xmlns="http://www.collada.org/2005/11/COLLADASchema" version="1.4.1" xmlns:xsi="http://www.w3.org/2001/XMLSchema-instance">
  <asset>
    <contributor>
      <author>Blender User</author>
      <authoring_tool>Blender 4.0.1 commit date:2023-11-16, commit time:16:40, hash:d0dd92834a08</authoring_tool>
    </contributor>
    <created>2023-11-28T13:16:13</created>
    <modified>2023-11-28T13:16:13</modified>
    <unit name="meter" meter="1"/>
    <up_axis>Z_UP</up_axis>
  </asset>
  <library_effects>
    <effect id="Mop-effect">
      <profile_COMMON>
        <newparam sid="Mop-surface">
          <surface type="2D">
            <init_from>Mop</init_from>
          </surface>
        </newparam>
        <newparam sid="Mop-sampler">
          <sampler2D>
            <source>Mop-surface</source>
          </sampler2D>
        </newparam>
        <technique sid="common">
          <lambert>
            <emission>
              <color sid="emission">0 0 0 1</color>
            </emission>
            <diffuse>
              <texture texture="Mop-sampler" texcoord="UVMap"/>
            </diffuse>
            <index_of_refraction>
              <float sid="ior">1.45</float>
            </index_of_refraction>
          </lambert>
        </technique>
      </profile_COMMON>
    </effect>
  </library_effects>
  <library_images>
    <image id="Mop" name="Mop">
      <init_from>Mop.png</init_from>
    </image>
  </library_images>
  <library_materials>
    <material id="Mop-material" name="Mop">
      <instance_effect url="#Mop-effect"/>
    </material>
  </library_materials>
  <library_geometries>
    <geometry id="Mop-mesh" name="Mop">
      <mesh>
        <source id="Mop-mesh-positions">
          <float_array id="Mop-mesh-positions-array" count="126">-0.02425819 0.04950112 -0.3043722 0.02648782 0.03185224 -0.3043722 0.04200059 -0.02084136 -0.3043722 -0.006664991 -0.03930616 -0.3043722 -0.04770869 -0.01670747 -0.3043722 -0.04476773 0.01468056 -0.3043722 0.01445537 0.01092255 -0.2785865 -0.001419365 0.02008789 -0.2785865 0.01445537 -0.007407963 -0.2785865 -0.001419365 -0.01657325 -0.2785865 -0.0172941 -0.007407963 -0.2785865 -0.0172941 0.01092255 -0.2785865 0.01543772 0.01148974 -0.2625119 -0.001419365 0.02122223 -0.2625119 0.01543772 -0.007975161 -0.2625119 -0.001419365 -0.01770758 -0.2625119 -0.01827651 -0.007975161 -0.2625119 -0.01827651 0.01148974 -0.2625119 0.005245506 0.00560528 -0.2516198 -0.001419365 0.009453237 -0.2516198 0.005245506 -0.002090632 -0.2516198 -0.001419365 -0.005938649 -0.2516198 -0.008084237 -0.002090632 -0.2516198 -0.008084237 0.00560528 -0.2516198 0.005245506 0.00560528 0.2917546 -0.001419365 0.009453237 0.2917546 0.005245506 -0.002090632 0.2917546 -0.001419365 -0.005938649 0.2917546 -0.008084237 -0.002090632 0.2917546 -0.008084237 0.00560528 0.2917546 -0.02677363 0.05967026 -0.332148 -0.02941846 0.0716868 -0.3222518 0.02295702 0.04544597 -0.332148 0.03775954 0.05266797 -0.322867 0.03548961 -0.02018469 -0.332148 0.05378335 -0.03066575 -0.3222913 -0.01566582 -0.03683519 -0.332148 -0.01350218 -0.05280596 -0.3221395 -0.04986864 -0.02259135 -0.332148 -0.05995261 -0.0304991 -0.3229926 -0.06392562 0.02991938 -0.332148 -0.07784014 0.03127682 -0.3242034</float_array>
          <technique_common>
            <accessor source="#Mop-mesh-positions-array" count="42" stride="3">
              <param name="X" type="float"/>
              <param name="Y" type="float"/>
              <param name="Z" type="float"/>
            </accessor>
          </technique_common>
        </source>
        <source id="Mop-mesh-normals">
          <float_array id="Mop-mesh-normals-array" count="126">-0.9631736 0.2685672 -0.01297026 -0.174315 0.5624772 0.8082287 -0.2108948 0.9774557 0.01018559 0.8521682 -0.4975872 -0.1619145 -0.02667701 -0.7636014 0.6451366 -0.09072464 -0.9867945 -0.1341853 -0.6568362 -0.2756924 0.7018262 -0.7777922 -0.6263478 -0.05222755 -0.5949358 0.1182925 0.795021 0.5563172 0.4284225 0.712015 0.8061099 -0.448455 0.3861026 0.6808289 -0.2748953 0.6788996 0.7331629 0.6764767 -0.06965303 0 -0.9447342 0.3278374 0.03178048 -0.9323775 0.3600866 -0.7626125 -0.4743249 0.4398159 -0.7780831 0.40986 0.4760271 0.05718642 0.8938274 0.4447498 0.8571395 0.4100906 0.3116692 0.8181639 0.4723671 0.3278372 0.7704668 -0.4448292 0.4566267 0.8181639 -0.4723672 0.3278371 0 0.9447342 0.3278373 -0.818164 0.4723671 0.3278371 -0.8181638 -0.4723671 0.3278373 -1.79062e-7 0.8896585 0.4566266 0.6862406 0.3962041 0.6099969 0.7704663 0.4448297 0.4566273 -0.7704668 0.4448292 0.4566268 -3.17275e-7 -0.8896585 0.4566265 -0.7704665 -0.4448295 0.4566271 3.12478e-7 0.7924058 0.6099945 -0.6862428 -0.3962029 0.6099951 0.6862425 -0.3962034 0.6099951 -0.6862403 0.3962046 0.6099969 -3.47198e-7 -0.7924057 0.6099945 0.2252527 0.2811672 -0.9328485 -0.0792579 0.4077109 -0.9096649 0.2601735 -0.1611216 -0.9520241 -0.03526973 -0.3374696 -0.9406755 -0.2733897 -0.2616667 -0.9256289 -0.3210424 0.1555607 -0.9342016</float_array>
          <technique_common>
            <accessor source="#Mop-mesh-normals-array" count="42" stride="3">
              <param name="X" type="float"/>
              <param name="Y" type="float"/>
              <param name="Z" type="float"/>
            </accessor>
          </technique_common>
        </source>
        <source id="Mop-mesh-map-0">
          <float_array id="Mop-mesh-map-0-array" count="480">0.2258477 0.2514986 0.08237332 0.4545922 0.008609294 0.4158732 0.006326436 0.08928793 0.07135874 0.3419876 0.006326496 0.3668639 0.3615471 0.007912993 0.1598083 0.07443612 0.1486552 0.007913053 0.4306663 0.423973 0.2540943 0.3838539 0.2258477 0.2514986 0.01130467 0.6559652 0.1341034 0.7937318 0.03558665 0.9073864 0.359978 0.8340125 0.643341 0.9012091 0.2834517 0.9012091 0.8539878 0.6020429 0.9277933 0.3218044 0.9277934 0.6406826 0.3685879 0.0847637 0.3105271 0.1435554 0.3105271 0.08476376 0.3774976 0.6228181 0.245344 0.7604193 0.226111 0.6961945 0.01130467 0.6559652 0.1608741 0.6807383 0.1148703 0.729507 0.2563831 0.9145013 0.1341034 0.7937318 0.1993403 0.809188 0.2278953 0.5127673 0.226111 0.6961945 0.1608741 0.6807383 0.2563831 0.9145013 0.245344 0.7604193 0.3774976 0.7590872 0.7387387 0.5104194 0.6989014 0.4607498 0.7387387 0.4392278 0.6025301 0.5420145 0.5444693 0.6008061 0.6061229 0.6008061 0.5444693 0.5420145 0.4828156 0.6008061 0.5444693 0.6008061 0.3105271 0.08476376 0.2488735 0.1435554 0.2524664 0.08476382 0.7975302 0.508345 0.7387387 0.4392278 0.7975302 0.4413021 0.8028491 0.007708489 0.8719664 0.06650006 0.869892 0.007708489 0.03522241 0.0421617 0.9679875 0.7513976 0.0440607 0.03082907 0.8007748 0.06650012 0.8504443 0.1063373 0.8719664 0.06650006 0.4093989 0.2233085 0.3522811 0.1989321 0.3738031 0.1616548 0.1488721 0.2605265 0.124496 0.2034086 0.1488723 0.2174823 0.08721864 0.1537392 0.124496 0.2034086 0.08721864 0.2249307 0.3738031 0.1616548 0.3241337 0.1989321 0.3026117 0.1616548 0.4732862 0.3784197 0.4245336 0.3784197 0.4489099 0.3361987 0.02638405 0.05349433 0.9591492 0.7627303 0.03522241 0.0421617 0.03522241 0.0421617 0.9503109 0.7740629 0.02638405 0.05349433 0.04032516 0.03561878 0.9540464 0.7692731 0.03011959 0.04870462 0.03011959 0.04870462 0.964252 0.7561873 0.04032516 0.03561878 0.0440607 0.03082907 0.9591492 0.7627303 0.03522241 0.0421617 0.8251172 0.9551295 0.7154293 0.7019733 0.7810485 0.9460142 0.7411546 0.6475037 0.4198359 0.6677532 0.7154293 0.7019733 0.6398458 0.7490684 0.7194442 0.979096 0.7951281 0.9938632 0.4294429 0.7166103 0.5956534 0.7880764 0.6398458 0.7490684 0.2499438 0.3999719 0.4266445 0.5928308 0.4625675 0.5627269 0.04059076 0.5742787 0.2442781 0.4507899 0.2499438 0.3999719 0.4522544 0.2818793 0.570351 0.3887576 0.8746247 0.2260313 0.2258477 0.2514986 0.2540943 0.3838539 0.08237332 0.4545922 0.006326436 0.08928793 0.0717777 0.1325135 0.07135874 0.3419876 0.3615471 0.007912993 0.3565116 0.06302928 0.1598083 0.07443612 0.4306663 0.423973 0.3705649 0.4545921 0.2540943 0.3838539 0.01130467 0.6559652 0.1148703 0.729507 0.1341034 0.7937318 0.359978 0.8340125 0.6077931 0.8354624 0.643341 0.9012091 0.8539878 0.6020429 0.8437501 0.3425967 0.9277933 0.3218044 0.3685879 0.0847637 0.3721808 0.1435554 0.3105271 0.1435554 0.3774976 0.6228181 0.3774976 0.7590872 0.245344 0.7604193 0.01130467 0.6559652 0.2278953 0.5127673 0.1608741 0.6807383 0.2563831 0.9145013 0.03558665 0.9073864 0.1341034 0.7937318 0.2278953 0.5127673 0.3774976 0.6228181 0.226111 0.6961945 0.2563831 0.9145013 0.1993403 0.809188 0.245344 0.7604193 0.7387387 0.5104194 0.6989014 0.4888972 0.6989014 0.4607498 0.6025301 0.5420145 0.5444693 0.5420145 0.5444693 0.6008061 0.5444693 0.5420145 0.4864085 0.5420145 0.4828156 0.6008061 0.3105271 0.08476376 0.3105271 0.1435554 0.2488735 0.1435554 0.7975302 0.508345 0.7387387 0.5104194 0.7387387 0.4392278 0.8028491 0.007708489 0.8007748 0.06650012 0.8719664 0.06650006 0.03522241 0.0421617 0.9591492 0.7627303 0.9679875 0.7513976 0.8007748 0.06650012 0.8222969 0.1063373 0.8504443 0.1063373 0.4093989 0.2233085 0.3663547 0.2233085 0.3522811 0.1989321 0.1488721 0.2605265 0.08721864 0.2249307 0.124496 0.2034086 0.08721864 0.1537392 0.124496 0.1752613 0.124496 0.2034086 0.3738031 0.1616548 0.3522811 0.1989321 0.3241337 0.1989321 0.4489099 0.3361987 0.4732862 0.3502724 0.4732862 0.3784197 0.4732862 0.3784197 0.4489099 0.3924934 0.4245336 0.3784197 0.4245336 0.3784197 0.4245336 0.3502723 0.4489099 0.3361987 0.02638405 0.05349433 0.9503109 0.7740629 0.9591492 0.7627303 0.03522241 0.0421617 0.9591492 0.7627303 0.9503109 0.7740629 0.04032516 0.03561878 0.964252 0.7561873 0.9540464 0.7692731 0.03011959 0.04870462 0.9540464 0.7692731 0.964252 0.7561873 0.0440607 0.03082907 0.9679875 0.7513976 0.9591492 0.7627303 0.8251172 0.9551295 0.7411546 0.6475037 0.7154293 0.7019733 0.7411546 0.6475037 0.380657 0.6013368 0.4198359 0.6677532 0.6398458 0.7490684 0.5956534 0.7880764 0.7194442 0.979096 0.4294429 0.7166103 0.4384234 0.7626109 0.5956534 0.7880764 0.2499438 0.3999719 0.2442781 0.4507899 0.4266445 0.5928308 0.04059076 0.5742787 0.08159029 0.5928308 0.2442781 0.4507899 0.7981503 0.428008 0.8746247 0.2260313 0.570351 0.3887576 0.8746247 0.2260313 0.7462599 0.008351862 0.4522544 0.2818793 0.7462599 0.008351862 0.4522544 0.05425542 0.4522544 0.2818793</float_array>
          <technique_common>
            <accessor source="#Mop-mesh-map-0-array" count="240" stride="2">
              <param name="S" type="float"/>
              <param name="T" type="float"/>
            </accessor>
          </technique_common>
        </source>
        <vertices id="Mop-mesh-vertices">
          <input semantic="POSITION" source="#Mop-mesh-positions"/>
        </vertices>
        <triangles material="Mop-material" count="80">
          <input semantic="VERTEX" source="#Mop-mesh-vertices" offset="0"/>
          <input semantic="NORMAL" source="#Mop-mesh-normals" offset="1"/>
          <input semantic="TEXCOORD" source="#Mop-mesh-map-0" offset="2" set="0"/>
          <p>41 0 0 0 1 1 31 2 2 35 3 3 3 4 4 37 5 5 37 5 6 4 6 7 39 7 8 39 7 9 5 8 10 41 0 11 1 9 12 8 10 13 2 11 14 1 9 15 35 3 16 33 12 17 0 1 18 33 12 19 31 2 20 8 10 21 15 13 22 9 14 23 5 8 24 10 15 25 11 16 26 1 9 27 7 17 28 6 18 29 3 4 30 8 10 31 9 14 32 0 1 33 11 16 34 7 17 35 3 4 36 10 15 37 4 6 38 12 19 39 20 20 40 14 21 41 6 18 42 13 22 43 12 19 44 7 17 45 17 23 46 13 22 47 9 14 48 16 24 49 10 15 50 6 18 51 14 21 52 8 10 53 10 15 54 17 23 55 11 16 56 19 25 57 24 26 58 18 27 59 16 24 60 23 28 61 17 23 62 14 21 63 21 29 64 15 13 65 12 19 66 19 25 67 18 27 68 17 23 69 19 25 70 13 22 71 15 13 72 22 30 73 16 24 74 25 31 75 28 32 76 26 33 77 23 28 78 25 31 79 19 25 80 21 29 81 28 32 82 22 30 83 18 27 84 26 33 85 20 20 86 22 30 87 29 34 88 23 28 89 20 20 90 27 35 91 21 29 92 31 2 93 32 36 94 30 37 95 33 12 96 34 38 97 32 36 98 37 5 99 34 38 100 35 3 101 39 7 102 36 39 103 37 5 104 41 0 105 38 40 106 39 7 107 31 2 108 40 41 109 41 0 110 36 39 111 38 40 112 30 37 113 41 0 114 5 8 115 0 1 116 35 3 117 2 11 118 3 4 119 37 5 120 3 4 121 4 6 122 39 7 123 4 6 124 5 8 125 1 9 126 6 18 127 8 10 128 1 9 129 2 11 130 35 3 131 0 1 132 1 9 133 33 12 134 8 10 135 14 21 136 15 13 137 5 8 138 4 6 139 10 15 140 1 9 141 0 1 142 7 17 143 3 4 144 2 11 145 8 10 146 0 1 147 5 8 148 11 16 149 3 4 150 9 14 151 10 15 152 12 19 153 18 27 154 20 20 155 6 18 156 7 17 157 13 22 158 7 17 159 11 16 160 17 23 161 9 14 162 15 13 163 16 24 164 6 18 165 12 19 166 14 21 167 10 15 168 16 24 169 17 23 170 19 25 171 25 31 172 24 26 173 16 24 174 22 30 175 23 28 176 14 21 177 20 20 178 21 29 179 12 19 180 13 22 181 19 25 182 17 23 183 23 28 184 19 25 185 15 13 186 21 29 187 22 30 188 26 33 189 24 26 190 25 31 191 25 31 192 29 34 193 28 32 194 28 32 195 27 35 196 26 33 197 23 28 198 29 34 199 25 31 200 21 29 201 27 35 202 28 32 203 18 27 204 24 26 205 26 33 206 22 30 207 28 32 208 29 34 209 20 20 210 26 33 211 27 35 212 31 2 213 33 12 214 32 36 215 33 12 216 35 3 217 34 38 218 37 5 219 36 39 220 34 38 221 39 7 222 38 40 223 36 39 224 41 0 225 40 41 226 38 40 227 31 2 228 30 37 229 40 41 230 40 41 231 30 37 232 38 40 233 30 37 234 32 36 235 36 39 236 32 36 237 34 38 238 36 39 239</p>
        </triangles>
      </mesh>
    </geometry>
  </library_geometries>
  <library_visual_scenes>
    <visual_scene id="Scene" name="Scene">
      <node id="Mop" name="Mop" type="NODE">
        <matrix sid="transform">-2.614364 8.51868e-7 0 0 -8.51868e-7 -2.614364 0 0 0 0 2.614364 0 0 0 0 1</matrix>
        <instance_geometry url="#Mop-mesh" name="Mop">
          <bind_material>
            <technique_common>
              <instance_material symbol="Mop-material" target="#Mop-material">
                <bind_vertex_input semantic="UVMap" input_semantic="TEXCOORD" input_set="0"/>
              </instance_material>
            </technique_common>
          </bind_material>
        </instance_geometry>
      </node>
    </visual_scene>
  </library_visual_scenes>
  <scene>
    <instance_visual_scene url="#Scene"/>
  </scene>
</COLLADA>