<?xml version="1.0" encoding="utf-8"?>
<COLLADA xmlns="http://www.collada.org/2005/11/COLLADASchema" version="1.4.1" xmlns:xsi="http://www.w3.org/2001/XMLSchema-instance">
  <asset>
    <contributor>
      <author>Blender User</author>
      <authoring_tool>Blender 4.0.1 commit date:2023-11-16, commit time:16:40, hash:d0dd92834a08</authoring_tool>
    </contributor>
    <created>2023-11-28T13:32:54</created>
    <modified>2023-11-28T13:32:54</modified>
    <unit name="meter" meter="1"/>
    <up_axis>Z_UP</up_axis>
  </asset>
  <library_effects>
    <effect id="Hamburger_01-effect">
      <profile_COMMON>
        <newparam sid="Hamburger_01-surface">
          <surface type="2D">
            <init_from>Hamburger_01</init_from>
          </surface>
        </newparam>
        <newparam sid="Hamburger_01-sampler">
          <sampler2D>
            <source>Hamburger_01-surface</source>
          </sampler2D>
        </newparam>
        <technique sid="common">
          <lambert>
            <emission>
              <color sid="emission">0 0 0 1</color>
            </emission>
            <diffuse>
              <texture texture="Hamburger_01-sampler" texcoord="UVMap"/>
            </diffuse>
            <index_of_refraction>
              <float sid="ior">1.45</float>
            </index_of_refraction>
          </lambert>
        </technique>
      </profile_COMMON>
    </effect>
  </library_effects>
  <library_images>
    <image id="Hamburger_01" name="Hamburger_01">
      <init_from>Hamburger_01.png</init_from>
    </image>
  </library_images>
  <library_materials>
    <material id="Hamburger_01-material" name="Hamburger_01">
      <instance_effect url="#Hamburger_01-effect"/>
    </material>
  </library_materials>
  <library_geometries>
    <geometry id="Hamburger_01-mesh" name="Hamburger_01">
      <mesh>
        <source id="Hamburger_01-mesh-positions">
          <float_array id="Hamburger_01-mesh-positions-array" count="198">-1.039823 -0.2237088 2.41101e-5 -0.4621631 -0.9480717 2.41101e-5 0.4643319 -0.9480717 2.41101e-5 1.041992 -0.2237088 2.41101e-5 -0.8336587 0.679557 2.41399e-5 0.8358275 0.679557 2.41101e-5 0.001084327 1.081548 2.41399e-5 0.001084327 0.8134827 -0.8160463 0.001084327 1.032829 -0.5669503 0.6262456 0.512421 -0.8160463 0.7977375 0.6491813 -0.5669503 0.7806476 -0.1640586 -0.8160463 0.9944946 -0.2128679 -0.5669503 0.3480227 -0.7065532 -0.8160463 0.4431936 -0.9041776 -0.5669503 -0.3458539 -0.7065532 -0.8160463 -0.4410248 -0.9041776 -0.5669503 -0.7784789 -0.1640586 -0.8160463 -0.9923259 -0.2128679 -0.5669503 -0.6240768 0.512421 -0.8160463 -0.7955687 0.6491813 -0.5669503 0.001084327 1.036171 0.5669985 0.001084327 0.390026 1.010264 0.001084327 0.825707 0.8232408 0.2951737 0.2484 1.010264 0.8003502 0.6512649 0.5669985 0.6358028 0.5200427 0.8232408 0.3678078 -0.06983065 1.010264 0.9977526 -0.2136114 0.5669985 0.7925652 -0.1667788 0.8232408 0.1642916 -0.3250319 1.010264 0.4446434 -0.9071884 0.5669985 0.3533265 -0.7175668 0.8232408 -0.1621229 -0.3250319 1.010264 -0.4424747 -0.9071884 0.5669985 -0.3511577 -0.7175668 0.8232408 -0.365639 -0.06983065 1.010264 -0.9955838 -0.2136114 0.5669985 -0.7903965 -0.1667788 0.8232408 -0.2930049 0.2484 1.010264 -0.7981814 0.6512649 0.5669985 -0.633634 0.5200427 0.8232408 0.6063601 -1.262372 -0.4045072 0.7766689 -0.509236 -0.06974709 -0.2153285 -0.9235474 -0.1065825 0.6063601 -1.262372 -0.4045072 0.7766689 -0.509236 -0.06974709 -0.2153285 -0.9235474 -0.1065825 1.125916 0.4871472 -0.2762061 0.5639261 0.7847723 -0.06974709 0.9567515 -0.1494436 -0.1065825 1.125916 0.4871472 -0.2762061 0.5639261 0.7847723 -0.06974709 0.9567515 -0.1494436 -0.1065825 -0.5581438 1.203919 -0.4618148 -0.8036985 0.5679232 -0.04505258 -0.009631276 1.058378 -0.1305627 -0.5581438 1.203919 -0.4618148 -0.8036985 0.5679232 -0.04505258 -0.009631276 1.058378 -0.1305627 -1.286397 -0.4588637 -0.370799 -0.6390262 -0.6806267 -0.01854759 -0.9538672 0.07878297 -0.1040577 -1.286397 -0.4588637 -0.370799 -0.6390262 -0.6806267 -0.01854759 -0.9538672 0.07878297 -0.1040577</float_array>
          <technique_common>
            <accessor source="#Hamburger_01-mesh-positions-array" count="66" stride="3">
              <param name="X" type="float"/>
              <param name="Y" type="float"/>
              <param name="Z" type="float"/>
            </accessor>
          </technique_common>
        </source>
        <source id="Hamburger_01-mesh-normals">
          <float_array id="Hamburger_01-mesh-normals-array" count="150">0.7328543 0.584432 0.3483732 0.974924 -0.2225199 -0.002862155 0.7818284 0.6234873 -0.002862155 0.4067034 -0.8445286 0.3483732 -0.433882 -0.9009652 -0.002862155 0.4338819 -0.9009652 -0.002862155 -0.9138544 -0.2085812 0.3483734 -0.974924 -0.2225199 -0.002862155 -0.7818282 0.6234874 -0.002862095 0 0.999996 -0.002862215 0.7279767 0.5805422 -0.3647199 0 0.9311172 -0.3647201 -0.7328543 0.584432 0.3483732 0.9138545 -0.2085812 0.3483732 0 0.2550486 0.9669283 -0.2486538 -0.05675369 0.9669284 0.1106615 -0.2297908 0.9669283 0 0.4994758 -0.8663279 0.9077723 -0.207193 -0.36472 0.390506 0.3114182 -0.8663279 0.4039967 -0.8389076 -0.36472 0.4869529 -0.1111438 -0.8663278 -0.4039967 -0.8389077 -0.3647199 0.2167145 -0.4500122 -0.8663279 -0.9077721 -0.2071931 -0.3647201 -0.2167145 -0.4500123 -0.8663279 -0.390506 0.3114181 -0.8663279 -0.4869529 -0.1111438 -0.8663278 -0.7279767 0.5805422 -0.3647201 0 0.9373561 0.348373 0.5004056 0.39906 0.7683394 0 0.6400427 0.7683394 0.1994051 0.1590202 0.9669282 0.6239953 -0.1424229 0.7683396 0.2486538 -0.05675363 0.9669284 0.2777041 -0.5766585 0.7683395 -0.2777041 -0.5766584 0.7683395 -0.4067035 -0.8445285 0.3483732 -0.1106615 -0.2297909 0.9669283 -0.6239953 -0.1424229 0.7683395 -0.5004056 0.39906 0.7683394 -0.199405 0.1590202 0.9669283 0.1461704 -0.4292227 0.8912924 -0.1461704 0.4292227 -0.8912924 0.4034665 0.1339635 0.9051346 -0.4034665 -0.1339635 -0.9051346 -0.2906134 0.6004086 0.745019 0.2906134 -0.6004086 -0.745019 -0.504425 -0.1127343 0.8560646 0.504425 0.1127343 -0.8560646</float_array>
          <technique_common>
            <accessor source="#Hamburger_01-mesh-normals-array" count="50" stride="3">
              <param name="X" type="float"/>
              <param name="Y" type="float"/>
              <param name="Z" type="float"/>
            </accessor>
          </technique_common>
        </source>
        <source id="Hamburger_01-mesh-map-0">
          <float_array id="Hamburger_01-mesh-map-0-array" count="528">0.8803768 0.01346188 0.7617866 0.1964743 0.7617866 0.007544219 0.845234 0.7252841 0.6555634 0.6066939 0.8493521 0.6066939 0.1793276 0.6045741 0.06073737 0.7581962 0.1793276 0.7560842 0.06073737 0.7581962 0.1793276 0.9450143 0.1793276 0.7560842 0.4740931 0.4791656 0.3074626 0.5977559 0.4740931 0.5977559 0.6412703 0.3605754 0.4740931 0.4791656 0.6486908 0.4791656 0.8803769 0.1943623 0.7617866 0.3479844 0.7617866 0.1964743 0.566147 0.8903569 0.4462061 0.8629812 0.4995848 0.7521392 0.3074626 0.5977559 0.4740931 0.6498576 0.4740931 0.5977559 0.6431964 0.1942068 0.5910946 0.04250293 0.6431964 0.01389771 0.1503576 0.005914926 0.3020614 0.08293914 0.3306667 0.04706931 0.6599847 0.4881036 0.8250245 0.4360019 0.8449308 0.4881036 0.005760908 0.306173 0.04709666 0.1411331 0.005760967 0.1212269 0.2979179 0.7583518 0.3500196 0.9100556 0.3500196 0.7685608 0.6407238 0.5977559 0.4740931 0.6498576 0.604854 0.6498576 0.1605666 0.376756 0.3650325 0.2136999 0.1605667 0.05064386 0.4740931 0.3605754 0.3413333 0.3069789 0.3069161 0.3605754 0.6229647 0.9616041 0.59577 0.8288442 0.6868985 0.8288442 0.8803769 0.1943623 0.9339733 0.04090875 0.9339733 0.1845666 0.6229647 0.6960844 0.59577 0.8288442 0.566147 0.7673316 0.8803769 0.3394331 0.9339733 0.1845666 0.9339733 0.2997713 0.6229647 0.6960844 0.4995848 0.7521392 0.4793068 0.6632955 0.845234 0.7252841 0.6787816 0.7788806 0.6596814 0.7252841 0.4793068 0.6632955 0.4462061 0.7947072 0.3641022 0.7551681 0.06073737 0.6131254 0.007140874 0.7679919 0.06073737 0.7581962 0.3641022 0.9025203 0.4462061 0.7947072 0.4462061 0.8629812 0.06073737 0.7581962 0.007140874 0.9116497 0.06073737 0.9390967 0.3641022 0.9025203 0.4995848 0.9055493 0.4793068 0.9943929 0.4740931 0.3605754 0.606853 0.3069789 0.4740931 0.3069789 0.4793068 0.9943929 0.566147 0.8903569 0.6229647 0.9616041 0.4740931 0.4791656 0.3069161 0.3605754 0.2994955 0.4791656 0.7617866 0.1964743 0.6431964 0.3388034 0.6431964 0.1942068 0.6407238 0.5977559 0.4740931 0.4791656 0.4740931 0.5977559 0.1793276 0.7560842 0.2979179 0.9386609 0.2979179 0.7583518 0.1793276 0.6045741 0.2979179 0.7583518 0.2979179 0.6137551 0.8493521 0.6066939 0.6599847 0.4881036 0.8449308 0.4881036 0.6431964 0.01389771 0.7617866 0.1964743 0.6431964 0.1942068 0.5696039 0.5790246 0.4555321 0.5077657 0.6247617 0.5049821 0.5696039 0.5790246 0.6247617 0.5049821 0.4555321 0.5077657 0.5696039 0.5790246 0.4555321 0.5077657 0.6247617 0.5049821 0.5696039 0.5790246 0.6247617 0.5049821 0.4555321 0.5077657 0.5696039 0.5790246 0.4555321 0.5077657 0.6247617 0.5049821 0.5696039 0.5790246 0.6247617 0.5049821 0.4555321 0.5077657 0.5696039 0.5790246 0.4555321 0.5077657 0.6247617 0.5049821 0.5696039 0.5790246 0.6247617 0.5049821 0.4555321 0.5077657 0.8803768 0.01346188 0.8803769 0.1943623 0.7617866 0.1964743 0.845234 0.7252841 0.6596814 0.7252841 0.6555634 0.6066939 0.1793276 0.6045741 0.06073737 0.6131254 0.06073737 0.7581962 0.06073737 0.7581962 0.06073737 0.9390967 0.1793276 0.9450143 0.4740931 0.4791656 0.2994955 0.4791656 0.3074626 0.5977559 0.6412703 0.3605754 0.4740931 0.3605754 0.4740931 0.4791656 0.8803769 0.1943623 0.8803769 0.3394331 0.7617866 0.3479844 0.566147 0.7673316 0.59577 0.8288442 0.566147 0.8903569 0.566147 0.8903569 0.4995848 0.9055493 0.4462061 0.8629812 0.4462061 0.8629812 0.4462061 0.7947072 0.4995848 0.7521392 0.4995848 0.7521392 0.566147 0.7673316 0.566147 0.8903569 0.3074626 0.5977559 0.3433324 0.6498576 0.4740931 0.6498576 0.6431964 0.1942068 0.5910946 0.1839976 0.5910946 0.04250293 0.1503576 0.005914926 0.1605667 0.05064386 0.3020614 0.08293914 0.6599847 0.4881036 0.6798909 0.4360019 0.8250245 0.4360019 0.005760908 0.306173 0.04709666 0.2862667 0.04709666 0.1411331 0.2979179 0.7583518 0.2979179 0.9386609 0.3500196 0.9100556 0.6407238 0.5977559 0.4740931 0.5977559 0.4740931 0.6498576 0.1605666 0.376756 0.3020614 0.3444607 0.3650325 0.2136999 0.3650325 0.2136999 0.3020614 0.08293914 0.1605667 0.05064386 0.1605667 0.05064386 0.04709666 0.1411331 0.04709666 0.2862667 0.04709666 0.2862667 0.1605666 0.376756 0.1605667 0.05064386 0.4740931 0.3605754 0.4740931 0.3069789 0.3413333 0.3069789 0.6229647 0.9616041 0.566147 0.8903569 0.59577 0.8288442 0.8803769 0.1943623 0.8803768 0.01346188 0.9339733 0.04090875 0.6229647 0.6960844 0.6868985 0.8288442 0.59577 0.8288442 0.8803769 0.3394331 0.8803769 0.1943623 0.9339733 0.1845666 0.6229647 0.6960844 0.566147 0.7673316 0.4995848 0.7521392 0.845234 0.7252841 0.8261339 0.7788806 0.6787816 0.7788806 0.4793068 0.6632955 0.4995848 0.7521392 0.4462061 0.7947072 0.06073737 0.6131254 0.007140874 0.6527873 0.007140874 0.7679919 0.3641022 0.9025203 0.3641022 0.7551681 0.4462061 0.7947072 0.06073737 0.7581962 0.007140874 0.7679919 0.007140874 0.9116497 0.3641022 0.9025203 0.4462061 0.8629812 0.4995848 0.9055493 0.4740931 0.3605754 0.6412703 0.3605754 0.606853 0.3069789 0.4793068 0.9943929 0.4995848 0.9055493 0.566147 0.8903569 0.4740931 0.4791656 0.4740931 0.3605754 0.3069161 0.3605754 0.7617866 0.1964743 0.7617866 0.3479844 0.6431964 0.3388034 0.6407238 0.5977559 0.6486908 0.4791656 0.4740931 0.4791656 0.1793276 0.7560842 0.1793276 0.9450143 0.2979179 0.9386609 0.1793276 0.6045741 0.1793276 0.7560842 0.2979179 0.7583518 0.8493521 0.6066939 0.6555634 0.6066939 0.6599847 0.4881036 0.6431964 0.01389771 0.7617866 0.007544219 0.7617866 0.1964743</float_array>
          <technique_common>
            <accessor source="#Hamburger_01-mesh-map-0-array" count="264" stride="2">
              <param name="S" type="float"/>
              <param name="T" type="float"/>
            </accessor>
          </technique_common>
        </source>
        <vertices id="Hamburger_01-mesh-vertices">
          <input semantic="POSITION" source="#Hamburger_01-mesh-positions"/>
        </vertices>
        <triangles material="Hamburger_01-material" count="88">
          <input semantic="VERTEX" source="#Hamburger_01-mesh-vertices" offset="0"/>
          <input semantic="NORMAL" source="#Hamburger_01-mesh-normals" offset="1"/>
          <input semantic="TEXCOORD" source="#Hamburger_01-mesh-map-0" offset="2" set="0"/>
          <p>25 0 0 3 1 1 5 2 2 31 3 3 1 4 4 2 5 5 1 4 6 37 6 7 0 7 8 37 6 9 4 8 10 0 7 11 6 9 12 10 10 13 8 11 14 40 12 15 6 9 16 4 8 17 28 13 18 2 5 19 3 1 20 22 14 21 36 15 22 30 16 23 10 10 24 7 17 25 8 11 26 12 18 27 9 19 28 10 10 29 14 20 30 11 21 31 12 18 32 16 22 33 13 23 34 14 20 35 18 24 36 15 25 37 16 22 38 18 24 39 19 26 40 17 27 41 20 28 42 7 17 43 19 26 44 19 26 45 9 19 46 13 23 47 21 29 48 26 30 49 25 0 50 23 31 51 24 32 52 26 30 53 28 13 54 26 30 55 29 33 56 29 33 57 24 32 58 27 34 59 31 3 60 29 33 61 32 35 62 29 33 63 30 16 64 32 35 65 31 3 66 35 36 67 34 37 68 32 35 69 33 38 70 35 36 71 34 37 72 38 39 73 37 6 74 38 39 75 33 38 76 36 15 77 37 6 78 41 40 79 40 12 80 38 39 81 39 41 82 41 40 83 21 29 84 41 40 85 23 31 86 41 40 87 22 14 88 23 31 89 6 9 90 25 0 91 5 2 92 3 1 93 14 20 94 12 18 95 20 28 96 6 9 97 8 11 98 0 7 99 20 28 100 18 24 101 1 4 102 18 24 103 16 22 104 2 5 105 16 22 106 14 20 107 10 10 108 3 1 109 12 18 110 42 42 111 43 42 112 44 42 113 45 43 114 47 43 115 46 43 116 48 44 117 49 44 118 50 44 119 51 45 120 53 45 121 52 45 122 54 46 123 55 46 124 56 46 125 57 47 126 59 47 127 58 47 128 60 48 129 61 48 130 62 48 131 63 49 132 65 49 133 64 49 134 25 0 135 28 13 136 3 1 137 31 3 138 34 37 139 1 4 140 1 4 141 34 37 142 37 6 143 37 6 144 40 12 145 4 8 146 6 9 147 5 2 148 10 10 149 40 12 150 21 29 151 6 9 152 28 13 153 31 3 154 2 5 155 27 34 156 24 32 157 22 14 158 22 14 159 39 41 160 36 15 161 36 15 162 33 38 163 30 16 164 30 16 165 27 34 166 22 14 167 10 10 168 9 19 169 7 17 170 12 18 171 11 21 172 9 19 173 14 20 174 13 23 175 11 21 176 16 22 177 15 25 178 13 23 179 18 24 180 17 27 181 15 25 182 18 24 183 20 28 184 19 26 185 20 28 186 8 11 187 7 17 188 19 26 189 7 17 190 9 19 191 9 19 192 11 21 193 13 23 194 13 23 195 15 25 196 17 27 197 17 27 198 19 26 199 13 23 200 21 29 201 23 31 202 26 30 203 23 31 204 22 14 205 24 32 206 28 13 207 25 0 208 26 30 209 29 33 210 26 30 211 24 32 212 31 3 213 28 13 214 29 33 215 29 33 216 27 34 217 30 16 218 31 3 219 32 35 220 35 36 221 32 35 222 30 16 223 33 38 224 34 37 225 35 36 226 38 39 227 38 39 228 35 36 229 33 38 230 37 6 231 38 39 232 41 40 233 38 39 234 36 15 235 39 41 236 21 29 237 40 12 238 41 40 239 41 40 240 39 41 241 22 14 242 6 9 243 21 29 244 25 0 245 3 1 246 2 5 247 14 20 248 20 28 249 4 8 250 6 9 251 0 7 252 4 8 253 20 28 254 1 4 255 0 7 256 18 24 257 2 5 258 1 4 259 16 22 260 10 10 261 5 2 262 3 1 263</p>
        </triangles>
      </mesh>
    </geometry>
  </library_geometries>
  <library_visual_scenes>
    <visual_scene id="Scene" name="Scene">
      <node id="Hamburger_01" name="Hamburger_01" type="NODE">
        <matrix sid="transform">-0.122449 3.9899e-8 0 0 -3.9899e-8 -0.122449 0 0 0 0 0.122449 0 0 0 0 1</matrix>
        <instance_geometry url="#Hamburger_01-mesh" name="Hamburger_01">
          <bind_material>
            <technique_common>
              <instance_material symbol="Hamburger_01-material" target="#Hamburger_01-material">
                <bind_vertex_input semantic="UVMap" input_semantic="TEXCOORD" input_set="0"/>
              </instance_material>
            </technique_common>
          </bind_material>
        </instance_geometry>
      </node>
    </visual_scene>
  </library_visual_scenes>
  <scene>
    <instance_visual_scene url="#Scene"/>
  </scene>
</COLLADA>