<?xml version="1.0" encoding="utf-8"?>
<COLLADA xmlns="http://www.collada.org/2005/11/COLLADASchema" version="1.4.1" xmlns:xsi="http://www.w3.org/2001/XMLSchema-instance">
  <asset>
    <contributor>
      <author>Blender User</author>
      <authoring_tool>Blender 4.0.1 commit date:2023-11-16, commit time:16:40, hash:d0dd92834a08</authoring_tool>
    </contributor>
    <created>2023-11-28T14:01:39</created>
    <modified>2023-11-28T14:01:39</modified>
    <unit name="meter" meter="1"/>
    <up_axis>Z_UP</up_axis>
  </asset>
  <library_effects>
    <effect id="Sauces-effect">
      <profile_COMMON>
        <newparam sid="Sauces-surface">
          <surface type="2D">
            <init_from>Sauces</init_from>
          </surface>
        </newparam>
        <newparam sid="Sauces-sampler">
          <sampler2D>
            <source>Sauces-surface</source>
          </sampler2D>
        </newparam>
        <technique sid="common">
          <lambert>
            <emission>
              <color sid="emission">0 0 0 1</color>
            </emission>
            <diffuse>
              <texture texture="Sauces-sampler" texcoord="UVMap"/>
            </diffuse>
            <index_of_refraction>
              <float sid="ior">1.45</float>
            </index_of_refraction>
          </lambert>
        </technique>
      </profile_COMMON>
    </effect>
  </library_effects>
  <library_images>
    <image id="Sauces" name="Sauces">
      <init_from>Sauces.png</init_from>
    </image>
  </library_images>
  <library_materials>
    <material id="Sauces-material" name="Sauces">
      <instance_effect url="#Sauces-effect"/>
    </material>
  </library_materials>
  <library_geometries>
    <geometry id="Mustard-mesh" name="Mustard">
      <mesh>
        <source id="Mustard-mesh-positions">
          <float_array id="Mustard-mesh-positions-array" count="126">0 0.1059048 -0.3164342 0 0.1059048 0.3164342 0.09171628 0.0529524 -0.3164342 0.09171628 0.0529524 0.3164342 0.09171628 -0.0529524 -0.3164342 0.09171628 -0.0529524 0.3164342 0 -0.1059048 -0.3164342 0 -0.1059048 0.3164342 -0.09171628 -0.0529524 -0.3164342 -0.09171628 -0.0529524 0.3164342 -0.09171628 0.0529524 -0.3164342 -0.09171628 0.0529524 0.3164342 0.01282566 0.08726656 0.3130554 0.01282566 0.08726656 0.3695625 0.08695918 0.0147686 0.3130554 0.08695918 0.0147686 0.3695625 0.04091805 -0.0781396 0.3130554 0.04091805 -0.0781396 0.3695625 -0.06167042 -0.06306213 0.3130554 -0.06167042 -0.06306213 0.3695625 -0.07903248 0.03916448 0.3130554 -0.07903248 0.03916448 0.3695625 0.06309986 0.01183491 0.3695626 0.01027786 0.06349152 0.3695626 0.03029435 -0.05436444 0.3695626 -0.04280239 -0.04362136 0.3695626 -0.05517327 0.0292176 0.3695626 0.06309986 0.01183491 0.3915643 0.01027786 0.06349152 0.3915643 0.03029435 -0.05436444 0.3915643 -0.04280239 -0.04362136 0.3915643 -0.05517327 0.0292176 0.3915643 0.02611994 0.007288038 0.3915644 0.00632894 0.02664244 0.3915644 0.01382857 -0.01751512 0.3915644 -0.01355886 -0.01348996 0.3915644 -0.01819396 0.01380091 0.3915644 0.01438564 0.005845248 0.4995734 0.005075812 0.01494961 0.4995734 0.008603692 -0.005822241 0.4995734 -0.004279434 -0.00392878 0.4995734 -0.006459772 0.008908927 0.4995734</float_array>
          <technique_common>
            <accessor source="#Mustard-mesh-positions-array" count="42" stride="3">
              <param name="X" type="float"/>
              <param name="Y" type="float"/>
              <param name="Z" type="float"/>
            </accessor>
          </technique_common>
        </source>
        <source id="Mustard-mesh-normals">
          <float_array id="Mustard-mesh-normals-array" count="183">0.5 0.8660255 0 1 0 0 0.5 -0.8660255 0 -0.5 -0.8660255 0 0 0 1 -1 0 0 -0.5 0.8660255 0 0 0 -1 0.699176 0.7149496 0 0.8960148 -0.4440242 0 -0.1454086 -0.9893717 0 0 2.65607e-6 1 -0.9858821 -0.167441 0 -0.4639002 0.8858876 0 -0.4639005 0.8858874 0 4.42408e-6 2.26922e-6 1 -8.17351e-7 -2.68323e-6 1 -2.30693e-6 -4.56619e-7 1 8.94788e-7 -1.31831e-6 1 2.27371e-6 1.4641e-6 1 -0.1454087 -0.9893718 0 0.6991771 0.7149486 0 -0.9858822 -0.1674407 0 0.8960147 -0.4440246 0 0.8922942 -0.4421807 0.09103387 0 -2.94612e-7 1 0 -8.50568e-7 1 -3.27571e-6 1.7137e-6 1 7.40122e-7 -1.73122e-6 1 -7.1385e-6 0 1 -0.4620107 0.8822804 0.09015351 -0.1446861 -0.9844545 0.09957635 0.696634 0.7123498 0.08519935 -0.9810357 -0.1666177 0.09903353 -7.67057e-7 0 1 7.67057e-7 0 1 0.6991764 0.7149493 0 0.8960146 -0.4440246 0 -0.1454085 -0.9893717 0 -2.25898e-6 2.65607e-6 1 -0.9858822 -0.167441 0 -0.4638997 0.8858878 0 -0.4638995 0.8858879 0 0 2.26922e-6 1 5.7356e-7 -2.68323e-6 1 -4.52029e-6 -4.5662e-7 1 5.0232e-6 -1.31831e-6 1 1.1559e-6 1.46409e-6 1 0.6991758 0.7149498 0 0.8960147 -0.4440245 0 0.8922939 -0.4421814 0.09103393 -7.44219e-7 -2.94612e-7 1 0 -8.50568e-7 1 -1.63643e-6 1.7137e-6 1 -2.71614e-6 -1.73122e-6 1 5.77517e-6 0 1 1.15503e-5 0 1 -0.4620109 0.8822802 0.09015351 -0.1446858 -0.9844545 0.09957629 0.6966331 0.7123506 0.08519941 -0.9810357 -0.1666178 0.09903359</float_array>
          <technique_common>
            <accessor source="#Mustard-mesh-normals-array" count="61" stride="3">
              <param name="X" type="float"/>
              <param name="Y" type="float"/>
              <param name="Z" type="float"/>
            </accessor>
          </technique_common>
        </source>
        <source id="Mustard-mesh-map-0">
          <float_array id="Mustard-mesh-map-0-array" count="438">0.07001709 0.427906 0.1306733 0.009360849 0.07001709 0.009360849 0.07940065 0.8651729 0.009360849 0.4466277 0.07940065 0.4466277 0.2707076 0.427906 0.2100514 0.009360849 0.2707076 0.009360849 0.2100514 0.427906 0.1493951 0.009360849 0.2100514 0.009360849 0.6632426 0.5516875 0.5419302 0.5516875 0.6025864 0.4466278 0.09812241 0.8651729 0.1681622 0.4466277 0.09812241 0.4466277 0.009360849 0.427906 0.07001709 0.009360849 0.009360849 0.009360849 0.6632426 0.640449 0.5419301 0.640449 0.6025864 0.7455087 0.8869371 0.05838882 0.8495664 0.009360909 0.8495664 0.05838882 0.6353935 0.9230319 0.5980228 0.9844765 0.5980228 0.9230319 0.9763022 0.1896673 0.9389314 0.2575138 0.9389314 0.1896673 0.9275254 0.5021064 0.8830037 0.5410171 0.9117239 0.5014872 0.9836179 0.6873717 0.9462471 0.6197645 0.9462471 0.6873717 0.8869371 0.1191389 0.8495664 0.05838882 0.8495664 0.1191389 0.905659 0.08758038 0.9202097 0.04429447 0.905659 0.04429447 0.9275254 0.5021064 0.8830037 0.4619572 0.8872178 0.4466278 0.8219987 0.4678187 0.8365336 0.525918 0.8219987 0.5363941 0.8872177 0.5575851 0.8365336 0.525918 0.8830037 0.5410171 0.8872178 0.4466278 0.8365336 0.4770563 0.8219987 0.4678187 0.897189 0.8751951 0.8619376 0.8594245 0.8684689 0.8356652 0.9536876 0.3001849 0.9682383 0.3485271 0.9536876 0.3485271 0.905659 0.04429447 0.9202097 0.009360909 0.905659 0.009360909 0.9159108 0.9739902 0.9304616 0.9258184 0.9159108 0.9258184 0.8219987 0.9334468 0.8365494 0.9772275 0.8219987 0.9772275 0.5063428 0.8838947 0.4976723 0.9553261 0.4899392 0.8838947 0.8684689 0.914725 0.8445264 0.883389 0.8619376 0.8890463 0.8684689 0.8356652 0.8445264 0.8650818 0.8219987 0.8507643 0.897189 0.8751951 0.8619376 0.8890463 0.8726983 0.8742354 0.8219987 0.8507643 0.8445264 0.883389 0.8219987 0.899626 0.8546282 0.4087946 0.8546283 0.3948604 0.8628185 0.3975216 0.921877 0.3001849 0.9134193 0.3716163 0.9210483 0.3716163 0.2633265 0.8838947 0.2513508 0.9553261 0.2452138 0.8838947 0.921877 0.3001849 0.9272053 0.3716163 0.9349658 0.3001849 0.3824559 0.8838947 0.3707304 0.9553261 0.3792206 0.9553261 0.07001709 0.427906 0.1306733 0.427906 0.1306733 0.009360849 0.07940065 0.8651729 0.009360849 0.8651729 0.009360849 0.4466277 0.2707076 0.427906 0.2100514 0.427906 0.2100514 0.009360849 0.2100514 0.427906 0.1493951 0.427906 0.1493951 0.009360849 0.6025864 0.4466278 0.6632426 0.4816477 0.6632426 0.5516875 0.6632426 0.5516875 0.6025864 0.5867074 0.5419302 0.5516875 0.5419302 0.5516875 0.5419301 0.4816477 0.6025864 0.4466278 0.09812241 0.8651729 0.1681622 0.8651729 0.1681622 0.4466277 0.009360849 0.427906 0.07001709 0.427906 0.07001709 0.009360849 0.6025864 0.7455087 0.6632426 0.7104888 0.6632426 0.640449 0.6632426 0.640449 0.6025864 0.6054291 0.5419301 0.640449 0.5419301 0.640449 0.5419301 0.7104888 0.6025864 0.7455087 0.8869371 0.05838882 0.8869371 0.009360909 0.8495664 0.009360909 0.6353935 0.9230319 0.6353935 0.9844765 0.5980228 0.9844765 0.9763022 0.1896673 0.9763022 0.2575138 0.9389314 0.2575138 0.9275254 0.5021064 0.8872177 0.5575851 0.8830037 0.5410171 0.9836179 0.6873717 0.9836179 0.6197645 0.9462471 0.6197645 0.8869371 0.1191389 0.8869371 0.05838882 0.8495664 0.05838882 0.905659 0.08758038 0.9202097 0.08758038 0.9202097 0.04429447 0.9275254 0.5021064 0.9117239 0.5014872 0.8830037 0.4619572 0.8219987 0.4678187 0.8365336 0.4770563 0.8365336 0.525918 0.8872177 0.5575851 0.8219987 0.5363941 0.8365336 0.525918 0.8872178 0.4466278 0.8830037 0.4619572 0.8365336 0.4770563 0.897189 0.8751951 0.8726983 0.8742354 0.8619376 0.8594245 0.9536876 0.3001849 0.9682383 0.3001849 0.9682383 0.3485271 0.905659 0.04429447 0.9202097 0.04429447 0.9202097 0.009360909 0.9159108 0.9739902 0.9304616 0.9739902 0.9304616 0.9258184 0.8219987 0.9334468 0.8365494 0.9334468 0.8365494 0.9772275 0.5063428 0.8838947 0.5053886 0.9553261 0.4976723 0.9553261 0.8684689 0.914725 0.8219987 0.899626 0.8445264 0.883389 0.8684689 0.8356652 0.8619376 0.8594245 0.8445264 0.8650818 0.897189 0.8751951 0.8684689 0.914725 0.8619376 0.8890463 0.8219987 0.8507643 0.8445264 0.8650818 0.8445264 0.883389 0.8628185 0.3975216 0.8628185 0.4061334 0.8546282 0.4087946 0.8546282 0.4087946 0.8495664 0.4018275 0.8546283 0.3948604 0.921877 0.3001849 0.9056589 0.3001849 0.9134193 0.3716163 0.2633265 0.8838947 0.259871 0.9553261 0.2513508 0.9553261 0.921877 0.3001849 0.9210483 0.3716163 0.9272053 0.3716163 0.3824559 0.8838947 0.3644071 0.8838947 0.3707304 0.9553261</float_array>
          <technique_common>
            <accessor source="#Mustard-mesh-map-0-array" count="219" stride="2">
              <param name="S" type="float"/>
              <param name="T" type="float"/>
            </accessor>
          </technique_common>
        </source>
        <vertices id="Mustard-mesh-vertices">
          <input semantic="POSITION" source="#Mustard-mesh-positions"/>
        </vertices>
        <triangles material="Sauces-material" count="73">
          <input semantic="VERTEX" source="#Mustard-mesh-vertices" offset="0"/>
          <input semantic="NORMAL" source="#Mustard-mesh-normals" offset="1"/>
          <input semantic="TEXCOORD" source="#Mustard-mesh-map-0" offset="2" set="0"/>
          <p>1 0 0 2 0 1 0 0 2 3 1 3 4 1 4 2 1 5 5 2 6 6 2 7 4 2 8 7 3 9 8 3 10 6 3 11 1 4 12 9 4 13 5 4 14 9 5 15 10 5 16 8 5 17 11 6 18 0 6 19 10 6 20 2 7 21 6 7 22 10 7 23 13 8 24 14 8 25 12 8 26 15 9 27 16 9 28 14 9 29 17 10 30 18 10 31 16 10 32 13 11 33 26 11 34 23 11 35 19 12 36 20 12 37 18 12 38 21 13 39 12 13 40 20 13 41 26 14 42 28 14 43 23 14 44 13 15 45 22 15 46 15 15 47 17 16 48 25 16 49 19 16 50 21 17 51 25 17 52 26 17 53 15 18 54 24 18 55 17 18 56 28 19 57 32 19 58 27 19 59 24 20 60 30 20 61 25 20 62 23 21 63 27 21 64 22 21 65 25 22 66 31 22 67 26 22 68 22 23 69 29 23 70 24 23 71 32 24 72 39 24 73 34 24 74 31 25 75 35 25 76 36 25 77 27 26 78 34 26 79 29 26 80 28 27 81 36 27 82 33 27 83 29 28 84 35 28 85 30 28 86 38 29 87 40 29 88 39 29 89 33 30 90 41 30 91 38 30 92 34 31 93 40 31 94 35 31 95 33 32 96 37 32 97 32 32 98 36 33 99 40 33 100 41 33 101 1 0 102 3 0 103 2 0 104 3 1 105 5 1 106 4 1 107 5 2 108 7 2 109 6 2 110 7 3 111 9 3 112 8 3 113 5 34 114 3 34 115 1 34 116 1 35 117 11 35 118 9 35 119 9 4 120 7 4 121 5 4 122 9 5 123 11 5 124 10 5 125 11 6 126 1 6 127 0 6 128 10 7 129 0 7 130 2 7 131 2 7 132 4 7 133 6 7 134 6 7 135 8 7 136 10 7 137 13 36 138 15 36 139 14 36 140 15 37 141 17 37 142 16 37 143 17 38 144 19 38 145 18 38 146 13 39 147 21 39 148 26 39 149 19 40 150 21 40 151 20 40 152 21 41 153 13 41 154 12 41 155 26 42 156 31 42 157 28 42 158 13 43 159 23 43 160 22 43 161 17 44 162 24 44 163 25 44 164 21 45 165 19 45 166 25 45 167 15 46 168 22 46 169 24 46 170 28 47 171 33 47 172 32 47 173 24 20 174 29 20 175 30 20 176 23 48 177 28 48 178 27 48 179 25 22 180 30 22 181 31 22 182 22 49 183 27 49 184 29 49 185 32 50 186 37 50 187 39 50 188 31 51 189 30 51 190 35 51 191 27 52 192 32 52 193 34 52 194 28 53 195 31 53 196 36 53 197 29 54 198 34 54 199 35 54 200 39 55 201 37 55 202 38 55 203 38 56 204 41 56 205 40 56 206 33 57 207 36 57 208 41 57 209 34 58 210 39 58 211 40 58 212 33 59 213 38 59 214 37 59 215 36 60 216 35 60 217 40 60 218</p>
        </triangles>
      </mesh>
    </geometry>
  </library_geometries>
  <library_visual_scenes>
    <visual_scene id="Scene" name="Scene">
      <node id="Mustard" name="Mustard" type="NODE">
        <matrix sid="transform">-0.3514633 1.14521e-7 0 0 -1.14521e-7 -0.3514633 0 0 0 0 0.3514633 0 0 0 0 1</matrix>
        <instance_geometry url="#Mustard-mesh" name="Mustard">
          <bind_material>
            <technique_common>
              <instance_material symbol="Sauces-material" target="#Sauces-material">
                <bind_vertex_input semantic="UVMap" input_semantic="TEXCOORD" input_set="0"/>
              </instance_material>
            </technique_common>
          </bind_material>
        </instance_geometry>
      </node>
    </visual_scene>
  </library_visual_scenes>
  <scene>
    <instance_visual_scene url="#Scene"/>
  </scene>
</COLLADA>