<?xml version="1.0" encoding="utf-8"?>
<COLLADA xmlns="http://www.collada.org/2005/11/COLLADASchema" version="1.4.1" xmlns:xsi="http://www.w3.org/2001/XMLSchema-instance">
  <asset>
    <contributor>
      <author>Blender User</author>
      <authoring_tool>Blender 4.0.1 commit date:2023-11-16, commit time:16:40, hash:d0dd92834a08</authoring_tool>
    </contributor>
    <created>2023-11-28T13:43:34</created>
    <modified>2023-11-28T13:43:34</modified>
    <unit name="meter" meter="1"/>
    <up_axis>Z_UP</up_axis>
  </asset>
  <library_effects>
    <effect id="Breads-effect">
      <profile_COMMON>
        <newparam sid="Breads-surface">
          <surface type="2D">
            <init_from>Breads</init_from>
          </surface>
        </newparam>
        <newparam sid="Breads-sampler">
          <sampler2D>
            <source>Breads-surface</source>
          </sampler2D>
        </newparam>
        <technique sid="common">
          <lambert>
            <emission>
              <color sid="emission">0 0 0 1</color>
            </emission>
            <diffuse>
              <texture texture="Breads-sampler" texcoord="UVMap"/>
            </diffuse>
            <index_of_refraction>
              <float sid="ior">1.45</float>
            </index_of_refraction>
          </lambert>
        </technique>
      </profile_COMMON>
    </effect>
  </library_effects>
  <library_images>
    <image id="Breads" name="Breads">
      <init_from>Breads.png</init_from>
    </image>
  </library_images>
  <library_materials>
    <material id="Breads-material" name="Breads">
      <instance_effect url="#Breads-effect"/>
    </material>
  </library_materials>
  <library_geometries>
    <geometry id="Bread_01-mesh" name="Bread_01">
      <mesh>
        <source id="Bread_01-mesh-positions">
          <float_array id="Bread_01-mesh-positions-array" count="120">-0.07518976 -0.02899754 0.06027138 -0.02208715 -0.067393 0.06027138 -0.07357889 -4.59422e-5 0.1982219 -0.02761429 -0.04125773 0.2321886 -0.02208715 0.06730109 0.06027138 -0.07518976 0.02890568 0.06027138 -0.02761429 0.04116588 0.2321886 0.03389674 -0.067393 0.06027138 0.08550441 -0.02921873 0.06027138 0.01208084 -4.59489e-5 0.2615225 0.08550441 0.02912688 0.06027138 0.03389674 0.06730109 0.06027138 -0.05352294 0.07439726 0.002389967 -0.102042 0.03807646 0.005442798 -0.102042 -0.03816831 0.005442798 -0.05352294 -0.07448917 0.002389967 0.1210763 0.03828644 -0.008595943 0.07074093 0.07439726 -0.005428791 0.07074093 -0.07448917 -0.005428791 0.1210763 -0.03837835 -0.008595943 -0.03010982 0.07175147 -0.03640598 -0.08077025 0.03356474 -0.03321838 -0.08077025 -0.03365665 -0.03321838 -0.03010982 -0.07184338 -0.03640598 0.1056221 0.03379887 -0.04494637 0.05294716 0.07175147 -0.04163199 0.05294716 -0.07184338 -0.04163199 0.1056221 -0.03389072 -0.04494637 -0.02375435 0.05032956 -0.1452034 -0.07255351 0.013897 -0.1289303 -0.07255351 -0.01398891 -0.1289303 -0.02375435 -0.05042141 -0.1452034 0.05175483 0.01413977 -0.1703835 0.005859375 0.05032956 -0.1550787 0.005859375 -0.05042141 -0.1550787 0.05175483 -0.01423162 -0.1703835 -0.07259041 -4.59423e-5 -0.2282612 -0.03838181 0.02670317 -0.2458261 -0.03838181 -0.02679508 -0.2458261 -0.01069259 -4.59391e-5 -0.2600435</float_array>
          <technique_common>
            <accessor source="#Bread_01-mesh-positions-array" count="40" stride="3">
              <param name="X" type="float"/>
              <param name="Y" type="float"/>
              <param name="Z" type="float"/>
            </accessor>
          </technique_common>
        </source>
        <source id="Bread_01-mesh-normals">
          <float_array id="Bread_01-mesh-normals-array" count="120">0.2808651 -0.9281256 0.2443315 -0.2442502 -0.738357 0.6286261 -0.2600945 -0.9451972 0.1973658 0.280865 0.9281255 0.2443314 -0.397378 0.9176521 -0.002350926 -0.2600945 0.9451972 0.1973656 -0.9036818 0.4281492 -0.006893277 -0.8269008 -0.4454999 -0.343169 -0.9036819 -0.4281491 -0.006893336 -0.397378 -0.917652 -0.002350986 0.3803774 -0.9241846 0.03458356 0.8043922 -0.4208899 0.4192909 0.8992924 0.4365226 0.02685588 0.8043922 0.42089 0.4192909 -0.2442501 0.738357 0.6286261 0.8992924 -0.4365227 0.02685588 0.8060617 0.4328713 -0.4035928 -0.8319272 -0.4645193 0.303511 -0.9363523 0 0.3510618 -0.8319272 0.4645193 0.303511 0.388145 0 0.9215984 -0.8981763 -0.4249475 -0.1126903 -0.8981763 0.4249476 -0.1126903 -0.9128917 0 -0.4082018 -0.273294 -0.941344 -0.1979444 0.2677803 -0.934431 -0.2348032 0.3803773 0.9241846 0.03458356 -0.273294 0.941344 -0.1979444 -0.2383143 0.7021085 -0.6710068 -0.2383143 -0.7021085 -0.6710068 0.2285087 0.9204648 -0.3170623 -0.3463277 0.9199284 -0.1838178 0.8060616 -0.4328713 -0.4035928 0.7652161 0.4203258 -0.4876172 0.2285086 -0.9204648 -0.3170623 0.7652161 -0.4203259 -0.4876173 0.366366 0 -0.9304708 -0.3463276 -0.9199284 -0.1838178 -0.8269008 0.4455 -0.343169 0.2677802 0.934431 -0.2348033</float_array>
          <technique_common>
            <accessor source="#Bread_01-mesh-normals-array" count="40" stride="3">
              <param name="X" type="float"/>
              <param name="Y" type="float"/>
              <param name="Z" type="float"/>
            </accessor>
          </technique_common>
        </source>
        <source id="Bread_01-mesh-map-0">
          <float_array id="Bread_01-mesh-map-0-array" count="456">0.145049 0.3095499 0.1068069 0.4819869 0.09131848 0.3163211 0.3643261 0.3095499 0.2734245 0.2645716 0.3105956 0.3163211 0.2954475 0.5133364 0.2502579 0.5779241 0.2868986 0.5865939 0.145049 0.3095499 0.05414736 0.2645716 0.1724638 0.242038 0.5225169 0.2190873 0.449546 0.2772026 0.466502 0.212172 0.3105956 0.3163211 0.326084 0.4819869 0.3643261 0.3095499 0.5231482 0.286289 0.449546 0.3126327 0.449546 0.2772026 0.3406072 0.5839301 0.4763988 0.5715805 0.3470996 0.5282955 0.466502 0.212172 0.5183622 0.02241832 0.5225169 0.2190873 0.1915343 0.007226467 0.1362221 0.06465208 0.1362221 0.009300947 0.1605013 0.5482953 0.163628 0.5215018 0.06662559 0.5237611 0.1724638 0.242038 0.07192581 0.2245054 0.1510076 0.2094442 0.2502579 0.5779241 0.163628 0.5215018 0.1605013 0.5482953 0.3917409 0.242038 0.2912029 0.2245054 0.2734245 0.2645716 0.4385541 0.4616728 0.4013342 0.4257165 0.3969525 0.4674943 0.2912029 0.2245054 0.3113711 0.1062591 0.2841437 0.1193186 0.5145316 0.3206554 0.4535527 0.4353888 0.449546 0.3126327 0.07192581 0.2245054 0.092094 0.106259 0.1510076 0.2094442 0.2841437 0.1193186 0.3113711 0.1062591 0.2579349 0.02451521 0.4535527 0.4353888 0.4807907 0.4387515 0.456545 0.5231483 0.092094 0.106259 0.06486666 0.1193186 0.03865784 0.02451521 0.09131848 0.3163211 0.05858421 0.4549466 0.04035335 0.3227437 0.3105956 0.3163211 0.2778613 0.4549467 0.326084 0.4819869 0.4138565 0.3033081 0.326084 0.4819869 0.3677293 0.505339 0.1068069 0.4819869 0.1945794 0.3033081 0.1484522 0.505339 0.4138565 0.3033081 0.3917409 0.242038 0.3643261 0.3095499 0.2596304 0.3227438 0.2734245 0.2645716 0.2272276 0.2733699 0.05414736 0.2645716 0.04035335 0.3227437 0.007950603 0.2733699 0.1724638 0.242038 0.1945794 0.3033081 0.145049 0.3095499 0.02369004 0.2336919 0.05414736 0.2645716 0.007950603 0.2733699 0.2011615 0.1998923 0.1724638 0.242038 0.1510076 0.2094442 0.4204385 0.1998923 0.3917409 0.242038 0.4396672 0.2329104 0.2429671 0.233692 0.2734245 0.2645716 0.2912029 0.2245054 0.1510076 0.2094442 0.134291 0.08601933 0.2011615 0.1998923 0.3702846 0.2094442 0.3535681 0.08601933 0.3113711 0.1062591 0.2912029 0.2245054 0.239277 0.1408388 0.2429671 0.233692 0.07192581 0.2245054 0.01999992 0.1408388 0.06486666 0.1193186 0.092094 0.106259 0.06351292 0.007521152 0.134291 0.08601933 0.3113711 0.1062591 0.28279 0.007521212 0.2579349 0.02451521 0.2841437 0.1193186 0.2272276 0.04551053 0.239277 0.1408388 0.06486666 0.1193186 0.007950603 0.04551053 0.03865784 0.02451521 0.3470996 0.5282955 0.2868986 0.5865939 0.3406072 0.5839301 0.3643261 0.3095499 0.3917409 0.242038 0.2734245 0.2645716 0.2954475 0.5133364 0.2577952 0.5133364 0.2502579 0.5779241 0.145049 0.3095499 0.09131848 0.3163211 0.05414736 0.2645716 0.5225169 0.2190873 0.5231482 0.286289 0.449546 0.2772026 0.5231482 0.286289 0.5145316 0.3206554 0.449546 0.3126327 0.1915343 0.007226467 0.1959023 0.06678485 0.1362221 0.06465208 0.1724638 0.242038 0.05414736 0.2645716 0.07192581 0.2245054 0.2502579 0.5779241 0.2577952 0.5133364 0.163628 0.5215018 0.3917409 0.242038 0.3702846 0.2094442 0.2912029 0.2245054 0.4385541 0.4616728 0.4385541 0.4244307 0.4013342 0.4257165 0.2912029 0.2245054 0.3702846 0.2094442 0.3113711 0.1062591 0.5145316 0.3206554 0.4807907 0.4387515 0.4535527 0.4353888 0.07192581 0.2245054 0.06486666 0.1193186 0.092094 0.106259 0.09131848 0.3163211 0.1068069 0.4819869 0.05858421 0.4549466 0.3105956 0.3163211 0.2596304 0.3227438 0.2778613 0.4549467 0.4138565 0.3033081 0.3643261 0.3095499 0.326084 0.4819869 0.1068069 0.4819869 0.145049 0.3095499 0.1945794 0.3033081 0.4138565 0.3033081 0.4396672 0.2329104 0.3917409 0.242038 0.2596304 0.3227438 0.3105956 0.3163211 0.2734245 0.2645716 0.05414736 0.2645716 0.09131848 0.3163211 0.04035335 0.3227437 0.1724638 0.242038 0.2203901 0.2329104 0.1945794 0.3033081 0.02369004 0.2336919 0.07192581 0.2245054 0.05414736 0.2645716 0.2011615 0.1998923 0.2203901 0.2329104 0.1724638 0.242038 0.4204385 0.1998923 0.3702846 0.2094442 0.3917409 0.242038 0.2429671 0.233692 0.2272276 0.2733699 0.2734245 0.2645716 0.1510076 0.2094442 0.092094 0.106259 0.134291 0.08601933 0.3702846 0.2094442 0.4204385 0.1998923 0.3535681 0.08601933 0.2912029 0.2245054 0.2841437 0.1193186 0.239277 0.1408388 0.07192581 0.2245054 0.02369004 0.2336919 0.01999992 0.1408388 0.092094 0.106259 0.03865784 0.02451521 0.06351292 0.007521152 0.3113711 0.1062591 0.3535681 0.08601933 0.28279 0.007521212 0.2841437 0.1193186 0.2579349 0.02451521 0.2272276 0.04551053 0.06486666 0.1193186 0.01999992 0.1408388 0.007950603 0.04551053 0.3470996 0.5282955 0.2954475 0.5133364 0.2868986 0.5865939</float_array>
          <technique_common>
            <accessor source="#Bread_01-mesh-map-0-array" count="228" stride="2">
              <param name="S" type="float"/>
              <param name="T" type="float"/>
            </accessor>
          </technique_common>
        </source>
        <vertices id="Bread_01-mesh-vertices">
          <input semantic="POSITION" source="#Bread_01-mesh-positions"/>
        </vertices>
        <triangles material="Breads-material" count="76">
          <input semantic="VERTEX" source="#Bread_01-mesh-vertices" offset="0"/>
          <input semantic="NORMAL" source="#Bread_01-mesh-normals" offset="1"/>
          <input semantic="TEXCOORD" source="#Bread_01-mesh-map-0" offset="2" set="0"/>
          <p>7 0 0 3 1 1 1 2 2 11 3 3 12 4 4 4 5 5 13 6 6 22 7 7 14 8 8 7 0 9 15 9 10 18 10 11 8 11 12 16 12 13 10 13 14 4 5 15 6 14 16 11 3 17 19 15 18 24 16 19 16 12 20 0 17 21 2 18 22 5 19 23 10 13 24 9 20 25 8 11 26 6 14 27 3 1 28 9 20 29 30 21 30 29 22 31 36 23 32 18 10 33 23 24 34 26 25 35 22 7 36 29 22 37 30 21 38 17 26 39 20 27 40 12 4 41 37 28 42 38 29 43 36 23 44 20 27 45 33 30 46 28 31 47 27 32 48 32 33 49 24 16 50 23 24 51 34 34 52 26 25 53 28 31 54 33 30 55 37 28 56 32 33 57 35 35 58 39 36 59 34 34 60 31 37 61 38 29 62 1 2 63 2 18 64 0 17 65 4 5 66 2 18 67 6 14 68 10 13 69 6 14 70 9 20 71 3 1 72 8 11 73 9 20 74 10 13 75 17 26 76 11 3 77 5 19 78 12 4 79 13 6 80 15 9 81 0 17 82 14 8 83 18 10 84 8 11 85 7 0 86 22 7 87 15 9 88 14 8 89 27 32 90 18 10 91 26 25 92 24 16 93 17 26 94 16 12 95 21 38 96 12 4 97 20 27 98 26 25 99 35 35 100 27 32 101 25 39 102 32 33 103 33 30 104 20 27 105 29 22 106 21 38 107 23 24 108 30 21 109 31 37 110 34 34 111 39 36 112 35 35 113 33 30 114 39 36 115 37 28 116 28 31 117 36 23 118 29 22 119 31 37 120 36 23 121 38 29 122 5 19 123 14 8 124 0 17 125 11 3 126 17 26 127 12 4 128 13 6 129 21 38 130 22 7 131 7 0 132 1 2 133 15 9 134 8 11 135 19 15 136 16 12 137 19 15 138 27 32 139 24 16 140 6 14 141 2 18 142 3 1 143 18 10 144 15 9 145 23 24 146 22 7 147 21 38 148 29 22 149 17 26 150 25 39 151 20 27 152 37 28 153 39 36 154 38 29 155 20 27 156 25 39 157 33 30 158 27 32 159 35 35 160 32 33 161 23 24 162 31 37 163 34 34 164 1 2 165 3 1 166 2 18 167 4 5 168 5 19 169 2 18 170 10 13 171 11 3 172 6 14 173 3 1 174 7 0 175 8 11 176 10 13 177 16 12 178 17 26 179 5 19 180 4 5 181 12 4 182 15 9 183 1 2 184 0 17 185 18 10 186 19 15 187 8 11 188 22 7 189 23 24 190 15 9 191 27 32 192 19 15 193 18 10 194 24 16 195 25 39 196 17 26 197 21 38 198 13 6 199 12 4 200 26 25 201 34 34 202 35 35 203 25 39 204 24 16 205 32 33 206 20 27 207 28 31 208 29 22 209 23 24 210 22 7 211 30 21 212 34 34 213 38 29 214 39 36 215 33 30 216 32 33 217 39 36 218 28 31 219 37 28 220 36 23 221 31 37 222 30 21 223 36 23 224 5 19 225 13 6 226 14 8 227</p>
        </triangles>
      </mesh>
    </geometry>
  </library_geometries>
  <library_visual_scenes>
    <visual_scene id="Scene" name="Scene">
      <node id="Bread_01" name="Bread_01" type="NODE">
        <matrix sid="transform">-0.3600262 -5.12785e-15 1.17311e-7 0 -1.17311e-7 1.57372e-8 -0.3600262 0 0 -0.3600262 -1.57372e-8 0 0 0 0 1</matrix>
        <instance_geometry url="#Bread_01-mesh" name="Bread_01">
          <bind_material>
            <technique_common>
              <instance_material symbol="Breads-material" target="#Breads-material">
                <bind_vertex_input semantic="UVMap" input_semantic="TEXCOORD" input_set="0"/>
              </instance_material>
            </technique_common>
          </bind_material>
        </instance_geometry>
      </node>
    </visual_scene>
  </library_visual_scenes>
  <scene>
    <instance_visual_scene url="#Scene"/>
  </scene>
</COLLADA>