<?xml version="1.0" encoding="utf-8"?>
<COLLADA xmlns="http://www.collada.org/2005/11/COLLADASchema" version="1.4.1" xmlns:xsi="http://www.w3.org/2001/XMLSchema-instance">
  <asset>
    <contributor>
      <author>Blender User</author>
      <authoring_tool>Blender 4.0.1 commit date:2023-11-16, commit time:16:40, hash:d0dd92834a08</authoring_tool>
    </contributor>
    <created>2023-11-28T13:57:24</created>
    <modified>2023-11-28T13:57:24</modified>
    <unit name="meter" meter="1"/>
    <up_axis>Z_UP</up_axis>
  </asset>
  <library_effects>
    <effect id="Cash_register-effect">
      <profile_COMMON>
        <newparam sid="Cash_register-surface">
          <surface type="2D">
            <init_from>Cash_register</init_from>
          </surface>
        </newparam>
        <newparam sid="Cash_register-sampler">
          <sampler2D>
            <source>Cash_register-surface</source>
          </sampler2D>
        </newparam>
        <technique sid="common">
          <lambert>
            <emission>
              <color sid="emission">0 0 0 1</color>
            </emission>
            <diffuse>
              <texture texture="Cash_register-sampler" texcoord="UVMap"/>
            </diffuse>
            <index_of_refraction>
              <float sid="ior">1.45</float>
            </index_of_refraction>
          </lambert>
        </technique>
      </profile_COMMON>
    </effect>
  </library_effects>
  <library_images>
    <image id="Cash_register" name="Cash_register">
      <init_from>Cash_register.png</init_from>
    </image>
  </library_images>
  <library_materials>
    <material id="Cash_register-material" name="Cash_register">
      <instance_effect url="#Cash_register-effect"/>
    </material>
  </library_materials>
  <library_geometries>
    <geometry id="Cash_register-mesh" name="Cash_register">
      <mesh>
        <source id="Cash_register-mesh-positions">
          <float_array id="Cash_register-mesh-positions-array" count="126">-1.61476 -1.266177 0.07898813 -1.61476 -1.266177 0.4970412 -1.61476 1.219693 0.07898813 -2.082466 1.523219 0.07898813 1.61476 -1.266177 0.07898813 1.61476 -1.266177 0.4970412 1.61476 1.219693 0.07898813 -2.082466 -1.682668 0.07898813 -1.61476 0.8892107 1.164052 -1.61476 1.219693 1.179951 1.61476 1.219693 1.179951 1.61476 0.8892107 1.164052 2.082466 -1.682668 0.07898813 2.082466 1.523219 0.07898813 -2.082466 -1.682668 -0.7033192 2.082466 -1.682668 -0.7033192 2.082466 1.523219 -0.7033192 -2.082466 1.523219 -0.7033192 0.4841762 0.2078579 0.9316774 0.4841762 0.2078579 1.089925 0.4841762 0.9436254 1.073798 0.4841762 0.9436254 1.419228 1.490285 0.2078579 0.9316774 1.490285 0.2078579 1.089925 1.490285 0.9436254 1.073798 1.490285 0.9436254 1.419228 0.5235165 1.056713 1.624473 0.5235165 1.056713 2.042772 0.5653305 1.21447 1.624473 0.5653305 1.21447 2.042772 1.410461 0.8293458 1.624473 1.410461 0.8293458 2.042772 1.452275 0.987103 1.624473 1.452275 0.987103 2.042772 0.8845695 1.014993 1.156749 0.8845695 1.014993 1.752308 0.9264642 1.178422 1.156749 0.9264642 1.178422 1.752308 1.047998 0.9730986 1.156749 1.047998 0.9730986 1.752308 1.089893 1.136527 1.156749 1.089893 1.136527 1.752308</float_array>
          <technique_common>
            <accessor source="#Cash_register-mesh-positions-array" count="42" stride="3">
              <param name="X" type="float"/>
              <param name="Y" type="float"/>
              <param name="Z" type="float"/>
            </accessor>
          </technique_common>
        </source>
        <source id="Cash_register-mesh-normals">
          <float_array id="Cash_register-mesh-normals-array" count="111">0 1 0 1 0 0 0 0 1 0 -1 0 0 0 -1 -1 -1.31054e-6 0 0 -0.0480538 0.9988449 0 -0.2956299 0.9553026 -1 0 0 -1 1.2798e-7 0 1 2.55961e-7 0 0 -0.4085151 0.9127517 -0.9666222 0.2562059 0 0.2483193 0.9686783 0 0.9666222 -0.2562059 0 -0.2483192 -0.9686784 0 -0.9686784 0.2483189 0 0.2483188 0.9686784 0 0.9686781 -0.24832 0 -0.2483191 -0.9686783 0 -2.09403e-6 0 1 1 0 0 -1 0 0 0 -0.04805415 0.9988448 0 -0.29563 0.9553026 -1 0 0 1 2.3452e-7 0 0 -0.408515 0.9127517 -0.9666223 0.2562057 0 0.2483192 0.9686784 0 -0.2483189 -0.9686783 0 -3.98882e-7 0 -1 -0.9686784 0.2483188 0 0.2483188 0.9686785 0 0.9686784 -0.2483188 0 -0.2483188 -0.9686785 0 1.04701e-6 0 1</float_array>
          <technique_common>
            <accessor source="#Cash_register-mesh-normals-array" count="37" stride="3">
              <param name="X" type="float"/>
              <param name="Y" type="float"/>
              <param name="Z" type="float"/>
            </accessor>
          </technique_common>
        </source>
        <source id="Cash_register-mesh-map-0">
          <float_array id="Cash_register-mesh-map-0-array" count="348">0.8248446 0.4351354 0.6784086 0.005586326 0.6784087 0.4351354 0.8502742 0.9458571 0.9389913 0.6591753 0.9945954 0.9898136 0.006338953 0.5594599 0.4327446 0.005494475 0.4327446 0.5594599 0.7423602 0.446699 0.6867562 0.8762481 0.6867561 0.446699 0.429996 0.007483363 0.008521258 0.5550428 0.429996 0.5550426 0.4844735 0.8573956 0.4823588 0.9013521 0.6287947 0.9013521 0.005586326 0.6170609 0.4351354 0.5731044 0.4351354 0.6170609 0.4351354 0.6170609 0.005586385 0.9037427 0.005586326 0.6170609 0.8583167 0.446256 0.7542643 0.8726617 0.8583167 0.8726617 0.6670483 0.005494475 0.5629959 0.5594598 0.6670483 0.5594598 0.9408011 0.4327446 0.8367487 0.006338953 0.9408011 0.006338953 0.5510919 0.5594599 0.4470394 0.005494475 0.5510919 0.005494475 0.715237 0.9276512 0.8036847 0.8857153 0.7066386 0.9084397 0.4972977 0.7076929 0.451353 0.5738733 0.451353 0.7076929 0.9133062 0.6865329 0.8713702 0.5980852 0.8905818 0.5894867 0.6622666 0.5738733 0.6412186 0.7076929 0.6412186 0.5738733 0.9706867 0.5785867 0.8728244 0.4447671 0.9706867 0.4447671 0.09706568 0.7316079 0.1215255 0.6689143 0.09706568 0.6689143 0.04197466 0.7316079 0.179206 0.6689143 0.04197466 0.6689143 0.1215255 0.7316079 0.09706568 0.6689143 0.1215255 0.6689143 0.6296376 0.9902992 0.4792152 0.9215793 0.6296376 0.9215793 0.04197466 0.7113958 0.1790066 0.6869359 0.04177528 0.6869359 0.04197466 0.7113958 0.1790066 0.6869359 0.179206 0.7113958 0.1585094 0.6525987 0.06924855 0.6273124 0.06924855 0.6525987 0.1585094 0.6595746 0.06924855 0.6342883 0.06924855 0.6595746 0.1585094 0.6273124 0.06924855 0.6525987 0.06924855 0.6273124 0.1585094 0.6342883 0.06924855 0.6595746 0.06924855 0.6342883 0.09774786 0.7198802 0.1230342 0.6945939 0.1230342 0.7198802 0.8248446 0.4351354 0.8248446 0.005586326 0.6784086 0.005586326 0.9945954 0.6591753 0.9945954 0.9898136 0.9389913 0.6591753 0.9945954 0.9898136 0.8481594 0.9898136 0.8502742 0.9458571 0.006338953 0.5594599 0.006338894 0.005494475 0.4327446 0.005494475 0.7423602 0.446699 0.7423602 0.8762481 0.6867562 0.8762481 0.429996 0.007483363 0.008521199 0.007483363 0.008521258 0.5550428 0.6287947 0.9013521 0.6287947 0.5707138 0.5731907 0.5707138 0.5731907 0.5707138 0.4844735 0.8573956 0.6287947 0.9013521 0.005586326 0.6170609 0.005586326 0.5731045 0.4351354 0.5731044 0.4351354 0.6170609 0.4351354 0.9037427 0.005586385 0.9037427 0.8583167 0.446256 0.7542642 0.446256 0.7542643 0.8726617 0.6670483 0.005494475 0.5629959 0.005494475 0.5629959 0.5594598 0.9408011 0.4327446 0.8367487 0.4327446 0.8367487 0.006338953 0.5510919 0.5594599 0.4470395 0.5594599 0.4470394 0.005494475 0.715237 0.9276512 0.8224537 0.9276512 0.8036847 0.8857153 0.4972977 0.7076929 0.4972977 0.5738733 0.451353 0.5738733 0.9133062 0.6865329 0.8713702 0.705302 0.8713702 0.5980852 0.6622666 0.5738733 0.6622666 0.7076929 0.6412186 0.7076929 0.9706867 0.5785867 0.8728244 0.5785867 0.8728244 0.4447671 0.09706568 0.7316079 0.1215255 0.7316079 0.1215255 0.6689143 0.04197466 0.7316079 0.179206 0.7316079 0.179206 0.6689143 0.1215255 0.7316079 0.09706568 0.7316079 0.09706568 0.6689143 0.6296376 0.9902992 0.4792152 0.9902992 0.4792152 0.9215793 0.04197466 0.7113958 0.179206 0.7113958 0.1790066 0.6869359 0.04197466 0.7113958 0.04177528 0.6869359 0.1790066 0.6869359 0.1585094 0.6525987 0.1585094 0.6273124 0.06924855 0.6273124 0.1585094 0.6595746 0.1585094 0.6342883 0.06924855 0.6342883 0.1585094 0.6273124 0.1585094 0.6525987 0.06924855 0.6525987 0.1585094 0.6342883 0.1585094 0.6595746 0.06924855 0.6595746 0.09774786 0.7198802 0.09774786 0.6945939 0.1230342 0.6945939</float_array>
          <technique_common>
            <accessor source="#Cash_register-mesh-map-0-array" count="174" stride="2">
              <param name="S" type="float"/>
              <param name="T" type="float"/>
            </accessor>
          </technique_common>
        </source>
        <vertices id="Cash_register-mesh-vertices">
          <input semantic="POSITION" source="#Cash_register-mesh-positions"/>
        </vertices>
        <triangles material="Cash_register-material" count="58">
          <input semantic="VERTEX" source="#Cash_register-mesh-vertices" offset="0"/>
          <input semantic="NORMAL" source="#Cash_register-mesh-normals" offset="1"/>
          <input semantic="TEXCOORD" source="#Cash_register-mesh-map-0" offset="2" set="0"/>
          <p>9 0 0 6 0 1 2 0 2 11 1 3 5 1 4 6 1 5 7 2 6 13 2 7 3 2 8 5 3 9 0 3 10 4 3 11 16 4 12 14 4 13 17 4 14 8 5 15 9 5 16 2 5 17 11 6 18 9 6 19 8 6 20 8 7 21 5 7 22 11 7 23 3 8 24 14 8 25 7 8 26 13 0 27 17 0 28 3 0 29 12 1 30 16 1 31 13 1 32 7 3 33 15 3 34 12 3 35 19 9 36 20 9 37 18 9 38 21 0 39 24 0 40 20 0 41 24 10 42 23 10 43 22 10 44 23 3 45 18 3 46 22 3 47 21 11 48 23 11 49 25 11 50 27 12 51 28 12 52 26 12 53 29 13 54 32 13 55 28 13 56 33 14 57 30 14 58 32 14 59 31 15 60 26 15 61 30 15 62 28 4 63 30 4 64 26 4 65 29 2 66 31 2 67 33 2 68 35 16 69 36 16 70 34 16 71 37 17 72 40 17 73 36 17 74 41 18 75 38 18 76 40 18 77 39 19 78 34 19 79 38 19 80 37 20 81 39 20 82 41 20 83 9 0 84 10 0 85 6 0 86 4 1 87 6 1 88 5 1 89 6 21 90 10 21 91 11 21 92 7 2 93 12 2 94 13 2 95 5 3 96 1 3 97 0 3 98 16 4 99 15 4 100 14 4 101 2 8 102 0 8 103 1 8 104 1 22 105 8 22 106 2 22 107 11 23 108 10 23 109 9 23 110 8 24 111 1 24 112 5 24 113 3 8 114 17 8 115 14 8 116 13 0 117 16 0 118 17 0 119 12 1 120 15 1 121 16 1 122 7 3 123 14 3 124 15 3 125 19 25 126 21 25 127 20 25 128 21 0 129 25 0 130 24 0 131 24 26 132 25 26 133 23 26 134 23 3 135 19 3 136 18 3 137 21 27 138 19 27 139 23 27 140 27 28 141 29 28 142 28 28 143 29 29 144 33 29 145 32 29 146 33 14 147 31 14 148 30 14 149 31 30 150 27 30 151 26 30 152 28 31 153 32 31 154 30 31 155 29 2 156 27 2 157 31 2 158 35 32 159 37 32 160 36 32 161 37 33 162 41 33 163 40 33 164 41 34 165 39 34 166 38 34 167 39 35 168 35 35 169 34 35 170 37 36 171 35 36 172 39 36 173</p>
        </triangles>
      </mesh>
    </geometry>
  </library_geometries>
  <library_visual_scenes>
    <visual_scene id="Scene" name="Scene">
      <node id="Cash_register" name="Cash_register" type="NODE">
        <matrix sid="transform">-0.14986 4.88306e-8 0 0 -4.88306e-8 -0.14986 0 0 0 0 0.14986 0 0 0 0 1</matrix>
        <instance_geometry url="#Cash_register-mesh" name="Cash_register">
          <bind_material>
            <technique_common>
              <instance_material symbol="Cash_register-material" target="#Cash_register-material">
                <bind_vertex_input semantic="UVMap" input_semantic="TEXCOORD" input_set="0"/>
              </instance_material>
            </technique_common>
          </bind_material>
        </instance_geometry>
      </node>
    </visual_scene>
  </library_visual_scenes>
  <scene>
    <instance_visual_scene url="#Scene"/>
  </scene>
</COLLADA>