<?xml version="1.0" encoding="utf-8"?>
<COLLADA xmlns="http://www.collada.org/2005/11/COLLADASchema" version="1.4.1" xmlns:xsi="http://www.w3.org/2001/XMLSchema-instance">
  <asset>
    <contributor>
      <author>Blender User</author>
      <authoring_tool>Blender 4.0.1 commit date:2023-11-16, commit time:16:40, hash:d0dd92834a08</authoring_tool>
    </contributor>
    <created>2023-11-28T13:14:03</created>
    <modified>2023-11-28T13:14:03</modified>
    <unit name="meter" meter="1"/>
    <up_axis>Z_UP</up_axis>
  </asset>
  <library_effects>
    <effect id="metal_trash_can-effect">
      <profile_COMMON>
        <newparam sid="metal_trash_can-surface">
          <surface type="2D">
            <init_from>metal_trash_can</init_from>
          </surface>
        </newparam>
        <newparam sid="metal_trash_can-sampler">
          <sampler2D>
            <source>metal_trash_can-surface</source>
          </sampler2D>
        </newparam>
        <technique sid="common">
          <lambert>
            <emission>
              <color sid="emission">0 0 0 1</color>
            </emission>
            <diffuse>
              <texture texture="metal_trash_can-sampler" texcoord="UVMap"/>
            </diffuse>
            <index_of_refraction>
              <float sid="ior">1.45</float>
            </index_of_refraction>
          </lambert>
        </technique>
      </profile_COMMON>
    </effect>
  </library_effects>
  <library_images>
    <image id="metal_trash_can" name="metal_trash_can">
      <init_from>metal_trash_can.png</init_from>
    </image>
  </library_images>
  <library_materials>
    <material id="metal_trash_can-material" name="metal_trash_can">
      <instance_effect url="#metal_trash_can-effect"/>
    </material>
  </library_materials>
  <library_geometries>
    <geometry id="metal_trash_can_top-mesh" name="metal_trash_can_top">
      <mesh>
        <source id="metal_trash_can_top-mesh-positions">
          <float_array id="metal_trash_can_top-mesh-positions-array" count="168">0 0.3058319 0 0.2162557 0.2162557 0 0.3058319 0 0 0.2162557 -0.2162557 0 0 -0.3058319 0 -0.2162557 -0.2162557 0 -0.3058319 0 0 -0.2162557 0.2162557 0 0 0.1173273 0.03961724 0.08296293 0.08296293 0.03961724 0.1173273 0 0.03961724 0.08296293 -0.08296293 0.03961724 0 -0.1173273 0.03961724 -0.08296293 -0.08296293 0.03961724 -0.1173273 0 0.03961724 -0.08296293 0.08296293 0.03961724 0 0.3058319 -0.03059393 0.2162557 0.2162557 -0.03059393 0.3058319 0 -0.03059393 0.2162557 -0.2162557 -0.03059393 0 -0.3058319 -0.03059393 -0.2162557 -0.2162557 -0.03059393 -0.3058319 0 -0.03059393 -0.2162557 0.2162557 -0.03059393 0 0.2975742 -0.005640149 0.2104167 0.2104167 -0.005640149 0.2975742 0 -0.005640149 0.2104167 -0.2104167 -0.005640149 0 -0.2975742 -0.005640149 -0.2104167 -0.2104167 -0.005640149 -0.2975742 0 -0.005640149 -0.2104167 0.2104167 -0.005640149 0 0.1160393 0.02970051 0.08205217 0.08205217 0.02970051 0.1160393 0 0.02970051 0.08205217 -0.08205217 0.02970051 0 -0.1160393 0.02970051 -0.08205217 -0.08205217 0.02970051 -0.1160393 0 0.02970051 -0.08205217 0.08205217 0.02970051 0 0.2958319 -0.03059393 0.2091847 0.2091847 -0.03059393 0.2958319 0 -0.03059393 0.2091847 -0.2091847 -0.03059393 0 -0.2958319 -0.03059393 -0.2091847 -0.2091847 -0.03059393 -0.2958319 0 -0.03059393 -0.2091847 0.2091847 -0.03059393 -0.08623391 -0.0175386 0.03615701 -0.08623391 -0.0175386 0.07123434 -0.08623391 0.0175386 0.03615701 -0.08623391 0.0175386 0.07123434 0.08623582 -0.0175386 0.03615701 0.08623582 -0.0175386 0.07123434 0.08623582 0.0175386 0.03615701 0.08623582 0.0175386 0.07123434</float_array>
          <technique_common>
            <accessor source="#metal_trash_can_top-mesh-positions-array" count="56" stride="3">
              <param name="X" type="float"/>
              <param name="Y" type="float"/>
              <param name="Z" type="float"/>
            </accessor>
          </technique_common>
        </source>
        <source id="metal_trash_can_top-mesh-normals">
          <float_array id="metal_trash_can_top-mesh-normals-array" count="228">0.1288016 0 0.9916704 0.09107649 0.09107649 0.9916704 -0.09107649 -0.09107649 0.9916704 -0.09107649 0.09107649 0.9916704 0 0.2056728 0.9786208 -0.1454326 0.1454326 0.9786208 -0.2056728 0 0.9786208 -0.1454326 -0.1454326 0.9786208 0.09107649 -0.09107649 0.9916704 0 -0.2056728 0.9786208 0.1454326 -0.1454326 0.9786208 0.2056728 0 0.9786208 0.1454326 0.1454326 0.9786208 1 0 0 0.7071068 0.7071067 0 0.7071067 0.7071068 0 -0.7071068 0.7071067 0 -1 0 0 -1 0 0 -0.7071067 -0.7071068 0 0 -1 0 0 -1 0 0.7071068 -0.7071067 0 1 0 0 0 1 0 0 1 0 -0.7071067 0.7071068 0 -0.7071068 -0.7071067 0 0.7071067 -0.7071068 0 -0.08459514 0.08459514 -0.9928179 0.08459514 0.08459514 -0.9928179 0.08459514 -0.08459514 -0.9928179 0 -0.1910899 -0.9815726 0.1351209 -0.1351209 -0.9815726 0.1910899 0 -0.9815726 0.1351209 0.1351209 -0.9815726 0 0.1910899 -0.9815726 -0.1351209 0.1351209 -0.9815726 -0.1910899 0 -0.9815726 -0.08459514 -0.08459514 -0.9928179 -0.1351209 -0.1351209 -0.9815726 0.1196356 0 -0.9928179 0 0.1196356 -0.9928179 -0.1196356 0 -0.9928179 0 -0.1196355 -0.9928179 -0.7053894 -0.7053893 0.06965404 -0.9975712 0 0.06965416 -0.7053894 -0.7053893 0.06965404 0.9975712 0 0.06965416 0.7053894 -0.7053893 0.06965404 0.9975712 0 0.06965416 0 0.9975713 0.0696538 0.7053894 0.7053893 0.06965404 0 0.9975712 0.06965374 -0.9975712 0 0.06965416 -0.7053894 0.7053893 0.06965404 0 -0.9975713 0.0696538 0 -0.9975712 0.06965374 0.7053894 -0.7053893 0.0696541 0.7053894 0.7053893 0.06965404 -0.7053894 0.7053893 0.0696541 0 0 -1 0 0 -1 0 0 -1 0 0 -1 0 0 -1 0 0 -1 0 0 -1 -1 0 0 0 1 0 1 0 0 0 -1 0 0 0 1 0 0.1288016 0.9916704 -0.1288016 0 0.9916704 0 -0.1288016 0.9916704</float_array>
          <technique_common>
            <accessor source="#metal_trash_can_top-mesh-normals-array" count="76" stride="3">
              <param name="X" type="float"/>
              <param name="Y" type="float"/>
              <param name="Z" type="float"/>
            </accessor>
          </technique_common>
        </source>
        <source id="metal_trash_can_top-mesh-map-0">
          <float_array id="metal_trash_can_top-mesh-map-0-array" count="612">0.7481446 0.8674173 0.6816686 0.8674174 0.7481446 0.7069301 0.634663 0.7539358 0.5057391 0.8738136 0.5057391 0.7005337 0.7481446 0.7069301 0.6282666 0.5780062 0.8015466 0.5780062 0.7951502 0.8204118 0.924074 0.7005338 0.9240741 0.8738136 0.6816686 0.8674174 0.8015466 0.9963412 0.6282667 0.9963412 0.6282666 0.5780062 0.634663 0.7539358 0.5057391 0.7005337 0.924074 0.7005338 0.7481446 0.7069301 0.8015466 0.5780062 0.8015466 0.9963412 0.7951502 0.8204118 0.9240741 0.8738136 0.5057391 0.8738136 0.6816686 0.8674174 0.6282667 0.9963412 0.9088192 0.875676 0.8873599 0.719399 0.9088192 0.7098106 0.6307318 0.5848531 0.5386332 0.7070956 0.5163499 0.699971 0.5279267 0.8622034 0.6409656 0.9665811 0.6316009 0.9879691 0.7937125 0.992251 0.8867865 0.8677437 0.9088192 0.875676 0.9088192 0.7098106 0.7856466 0.6114869 0.7944051 0.589788 0.7944051 0.589788 0.6401591 0.6061212 0.6307318 0.5848531 0.5163499 0.699971 0.5486878 0.8531106 0.5279267 0.8622034 0.6316009 0.9879691 0.7840632 0.9710635 0.7937125 0.992251 0.7951502 0.8204118 0.7481446 0.7069301 0.634663 0.7539358 0.5057391 0.8738136 0.634663 0.7539358 0.5057391 0.7005337 0.6282666 0.5780062 0.7481446 0.7069301 0.8015466 0.5780062 0.924074 0.7005338 0.7951502 0.8204118 0.9240741 0.8738136 0.8015466 0.9963412 0.6816686 0.8674174 0.6282667 0.9963412 0.6282666 0.5780062 0.634663 0.7539358 0.6816685 0.70693 0.924074 0.7005338 0.7481446 0.7069301 0.7951502 0.7539357 0.8015466 0.9963412 0.7951502 0.8204118 0.7481446 0.8674173 0.5057391 0.8738136 0.6816686 0.8674174 0.6346629 0.8204118 0.8873599 0.719399 0.9088192 0.875676 0.9088192 0.7098106 0.5386332 0.7070956 0.6307318 0.5848531 0.5163499 0.699971 0.6409656 0.9665811 0.5279267 0.8622034 0.6316009 0.9879691 0.8867865 0.8677437 0.7937125 0.992251 0.9088192 0.875676 0.7856466 0.6114869 0.9088192 0.7098106 0.7944051 0.589788 0.6401591 0.6061212 0.7944051 0.589788 0.6307318 0.5848531 0.5486878 0.8531106 0.5163499 0.699971 0.5279267 0.8622034 0.7840632 0.9710635 0.6316009 0.9879691 0.7937125 0.992251 0.7856466 0.6114869 0.8873599 0.719399 0.7856466 0.6114869 0.8867865 0.8677437 0.8873599 0.719399 0.8873599 0.719399 0.8867865 0.8677437 0.7840632 0.9710635 0.8867865 0.8677437 0.6409656 0.9665811 0.7840632 0.9710635 0.7840632 0.9710635 0.6409656 0.9665811 0.5486878 0.8531106 0.6409656 0.9665811 0.5386332 0.7070956 0.5486878 0.8531106 0.5486878 0.8531106 0.5386332 0.7070956 0.6401591 0.6061212 0.5386332 0.7070956 0.7856466 0.6114869 0.6401591 0.6061212 0.6401591 0.6061212 0.7826679 0.7618631 0.8060781 0.7136434 0.7702631 0.7260481 0.7125272 0.7861567 0.8762188 0.6893497 0.7001224 0.7503417 0.8184828 0.7494583 0.7702631 0.7260481 0.8060781 0.7136434 0.8886235 0.7251647 0.7001224 0.7503417 0.8762188 0.6893497 0.7125272 0.7861567 0.8762188 0.6893497 0.8886235 0.7251647 0.6816686 0.8674174 0.6346629 0.8204118 0.634663 0.7539358 0.634663 0.7539358 0.6816685 0.70693 0.6816686 0.8674174 0.6816685 0.70693 0.7481446 0.7069301 0.6816686 0.8674174 0.7481446 0.7069301 0.7951502 0.7539357 0.7951502 0.8204118 0.7951502 0.8204118 0.7481446 0.8674173 0.7481446 0.7069301 0.634663 0.7539358 0.6346629 0.8204118 0.5057391 0.8738136 0.7481446 0.7069301 0.6816685 0.70693 0.6282666 0.5780062 0.7951502 0.8204118 0.7951502 0.7539357 0.924074 0.7005338 0.6816686 0.8674174 0.7481446 0.8674173 0.8015466 0.9963412 0.6282666 0.5780062 0.6816685 0.70693 0.634663 0.7539358 0.924074 0.7005338 0.7951502 0.7539357 0.7481446 0.7069301 0.8015466 0.9963412 0.7481446 0.8674173 0.7951502 0.8204118 0.5057391 0.8738136 0.6346629 0.8204118 0.6816686 0.8674174 0.9088192 0.875676 0.8867865 0.8677437 0.8873599 0.719399 0.6307318 0.5848531 0.6401591 0.6061212 0.5386332 0.7070956 0.5279267 0.8622034 0.5486878 0.8531106 0.6409656 0.9665811 0.7937125 0.992251 0.7840632 0.9710635 0.8867865 0.8677437 0.9088192 0.7098106 0.8873599 0.719399 0.7856466 0.6114869 0.7944051 0.589788 0.7856466 0.6114869 0.6401591 0.6061212 0.5163499 0.699971 0.5386332 0.7070956 0.5486878 0.8531106 0.6316009 0.9879691 0.6409656 0.9665811 0.7840632 0.9710635 0.634663 0.7539358 0.6346629 0.8204118 0.6816686 0.8674174 0.6816686 0.8674174 0.7481446 0.8674173 0.7951502 0.8204118 0.7951502 0.8204118 0.7951502 0.7539357 0.7481446 0.7069301 0.7481446 0.7069301 0.6816685 0.70693 0.634663 0.7539358 0.634663 0.7539358 0.6816686 0.8674174 0.7951502 0.8204118 0.5057391 0.8738136 0.6346629 0.8204118 0.634663 0.7539358 0.6282666 0.5780062 0.6816685 0.70693 0.7481446 0.7069301 0.924074 0.7005338 0.7951502 0.7539357 0.7951502 0.8204118 0.8015466 0.9963412 0.7481446 0.8674173 0.6816686 0.8674174 0.6282666 0.5780062 0.5057391 0.7005337 0.634663 0.7539358 0.924074 0.7005338 0.8015466 0.5780062 0.7481446 0.7069301 0.8015466 0.9963412 0.9240741 0.8738136 0.7951502 0.8204118 0.5057391 0.8738136 0.6282667 0.9963412 0.6816686 0.8674174 0.8873599 0.719399 0.8867865 0.8677437 0.9088192 0.875676 0.5386332 0.7070956 0.6401591 0.6061212 0.6307318 0.5848531 0.6409656 0.9665811 0.5486878 0.8531106 0.5279267 0.8622034 0.8867865 0.8677437 0.7840632 0.9710635 0.7937125 0.992251 0.7856466 0.6114869 0.8873599 0.719399 0.9088192 0.7098106 0.6401591 0.6061212 0.7856466 0.6114869 0.7944051 0.589788 0.5486878 0.8531106 0.5386332 0.7070956 0.5163499 0.699971 0.7840632 0.9710635 0.6409656 0.9665811 0.6316009 0.9879691 0.7856466 0.6114869 0.8873599 0.719399 0.8873599 0.719399 0.8867865 0.8677437 0.8867865 0.8677437 0.8873599 0.719399 0.8867865 0.8677437 0.7840632 0.9710635 0.7840632 0.9710635 0.6409656 0.9665811 0.6409656 0.9665811 0.7840632 0.9710635 0.6409656 0.9665811 0.5486878 0.8531106 0.5486878 0.8531106 0.5386332 0.7070956 0.5386332 0.7070956 0.5486878 0.8531106 0.5386332 0.7070956 0.6401591 0.6061212 0.6401591 0.6061212 0.7856466 0.6114869 0.7856466 0.6114869 0.6401591 0.6061212 0.7826679 0.7618631 0.8184828 0.7494583 0.8060781 0.7136434 0.7125272 0.7861567 0.8886235 0.7251647 0.8762188 0.6893497 0.8184828 0.7494583 0.7826679 0.7618631 0.7702631 0.7260481 0.8886235 0.7251647 0.7125272 0.7861567 0.7001224 0.7503417 0.7125272 0.7861567 0.7001224 0.7503417 0.8762188 0.6893497</float_array>
          <technique_common>
            <accessor source="#metal_trash_can_top-mesh-map-0-array" count="306" stride="2">
              <param name="S" type="float"/>
              <param name="T" type="float"/>
            </accessor>
          </technique_common>
        </source>
        <vertices id="metal_trash_can_top-mesh-vertices">
          <input semantic="POSITION" source="#metal_trash_can_top-mesh-positions"/>
        </vertices>
        <triangles material="metal_trash_can-material" count="102">
          <input semantic="VERTEX" source="#metal_trash_can_top-mesh-vertices" offset="0"/>
          <input semantic="NORMAL" source="#metal_trash_can_top-mesh-normals" offset="1"/>
          <input semantic="TEXCOORD" source="#metal_trash_can_top-mesh-map-0" offset="2" set="0"/>
          <p>10 0 0 9 1 1 13 2 2 15 3 3 0 4 4 7 5 5 13 2 6 6 6 7 5 7 8 11 8 9 4 9 10 3 10 11 9 1 12 2 11 13 1 12 14 6 6 15 15 3 16 7 5 17 4 9 18 13 2 19 5 7 20 2 11 21 11 8 22 3 10 23 0 4 24 9 1 25 1 12 26 2 13 27 17 14 28 1 15 29 7 16 30 22 17 31 6 18 32 5 19 33 20 20 34 4 21 35 3 22 36 18 23 37 2 13 38 1 15 39 16 24 40 0 25 41 0 25 42 23 26 43 7 16 44 6 18 45 21 27 46 5 19 47 4 21 48 19 28 49 3 22 50 35 29 51 37 30 52 39 31 53 24 32 54 39 31 55 31 33 56 30 34 57 37 30 58 29 35 59 28 36 60 35 29 61 27 37 62 26 38 63 33 39 64 25 40 65 30 34 66 39 31 67 38 41 68 28 36 69 37 30 70 36 42 71 26 38 72 35 29 73 34 43 74 24 32 75 33 39 76 32 44 77 41 45 78 26 46 79 25 47 80 46 48 81 31 49 82 30 50 83 44 51 84 29 52 85 28 53 86 42 54 87 27 55 88 26 46 89 40 56 90 25 47 91 24 57 92 47 58 93 24 57 94 31 49 95 45 59 96 30 50 97 29 52 98 43 60 99 28 53 100 27 55 101 16 61 102 41 62 103 40 61 104 18 63 105 41 62 106 17 64 107 18 63 108 43 62 109 42 61 110 20 61 111 43 62 112 19 64 113 20 61 114 45 65 115 44 61 116 22 66 117 45 65 118 21 67 119 22 66 120 47 65 121 46 61 122 16 61 123 47 65 124 23 67 125 49 68 126 50 68 127 48 68 128 51 69 129 54 69 130 50 69 131 55 70 132 52 70 133 54 70 134 53 71 135 48 71 136 52 71 137 51 72 138 53 72 139 55 72 140 9 1 141 8 73 142 15 3 143 15 3 144 14 74 145 9 1 146 14 74 147 13 2 148 9 1 149 13 2 150 12 75 151 11 8 152 11 8 153 10 0 154 13 2 155 15 3 156 8 73 157 0 4 158 13 2 159 14 74 160 6 6 161 11 8 162 12 75 163 4 9 164 9 1 165 10 0 166 2 11 167 6 6 168 14 74 169 15 3 170 4 9 171 12 75 172 13 2 173 2 11 174 10 0 175 11 8 176 0 4 177 8 73 178 9 1 179 2 13 180 18 23 181 17 14 182 7 16 183 23 26 184 22 17 185 5 19 186 21 27 187 20 20 188 3 22 189 19 28 190 18 23 191 1 15 192 17 14 193 16 24 194 0 25 195 16 24 196 23 26 197 6 18 198 22 17 199 21 27 200 4 21 201 20 20 202 19 28 203 39 31 204 32 44 205 33 39 206 33 39 207 34 43 208 35 29 209 35 29 210 36 42 211 37 30 212 37 30 213 38 41 214 39 31 215 39 31 216 33 39 217 35 29 218 24 32 219 32 44 220 39 31 221 30 34 222 38 41 223 37 30 224 28 36 225 36 42 226 35 29 227 26 38 228 34 43 229 33 39 230 30 34 231 31 33 232 39 31 233 28 36 234 29 35 235 37 30 236 26 38 237 27 37 238 35 29 239 24 32 240 25 40 241 33 39 242 41 45 243 42 54 244 26 46 245 46 48 246 47 58 247 31 49 248 44 51 249 45 59 250 29 52 251 42 54 252 43 60 253 27 55 254 40 56 255 41 45 256 25 47 257 47 58 258 40 56 259 24 57 260 45 59 261 46 48 262 30 50 263 43 60 264 44 51 265 28 53 266 16 61 267 17 64 268 41 62 269 18 63 270 42 61 271 41 62 272 18 63 273 19 64 274 43 62 275 20 61 276 44 61 277 43 62 278 20 61 279 21 67 280 45 65 281 22 66 282 46 61 283 45 65 284 22 66 285 23 67 286 47 65 287 16 61 288 40 61 289 47 65 290 49 68 291 51 68 292 50 68 293 51 69 294 55 69 295 54 69 296 55 70 297 53 70 298 52 70 299 53 71 300 49 71 301 48 71 302 51 72 303 49 72 304 53 72 305</p>
        </triangles>
      </mesh>
    </geometry>
    <geometry id="metal_trash_can-mesh" name="metal_trash_can">
      <mesh>
        <source id="metal_trash_can-mesh-positions">
          <float_array id="metal_trash_can-mesh-positions-array" count="96">0 0.2687887 -0.2825863 0 0.2971037 0.3583567 0.1900623 0.1900623 -0.2825863 0.210084 0.210084 0.3583567 0.2687887 0 -0.2825863 0.2971037 0 0.3583567 0.1900623 -0.1900623 -0.2825863 0.210084 -0.210084 0.3583567 0 -0.2687887 -0.2825863 0 -0.2971037 0.3583567 -0.1900623 -0.1900623 -0.2825863 -0.210084 -0.210084 0.3583567 -0.2687887 0 -0.2825863 -0.2971037 0 0.3583567 -0.1900623 0.1900623 -0.2825863 -0.210084 0.210084 0.3583567 0 0.2535349 -0.269651 0 0.2771232 0.3592394 0.1792762 0.1792762 -0.269651 0.1959556 0.1959556 0.3592394 0.2535349 0 -0.269651 0.2771232 0 0.3592394 0.1792762 -0.1792762 -0.269651 0.1959556 -0.1959556 0.3592394 0 -0.2535349 -0.269651 0 -0.2771232 0.3592394 -0.1792762 -0.1792762 -0.269651 -0.1959556 -0.1959556 0.3592394 -0.2535349 0 -0.269651 -0.2771232 0 0.3592394 -0.1792762 0.1792762 -0.269651 -0.1959556 0.1959556 0.3592394</float_array>
          <technique_common>
            <accessor source="#metal_trash_can-mesh-positions-array" count="32" stride="3">
              <param name="X" type="float"/>
              <param name="Y" type="float"/>
              <param name="Z" type="float"/>
            </accessor>
          </technique_common>
        </source>
        <source id="metal_trash_can-mesh-normals">
          <float_array id="metal_trash_can-mesh-normals-array" count="150">0 0.9990257 -0.04413402 0.7064179 0.7064177 -0.04413402 0 0.9990257 -0.04413402 0.7064178 0.7064179 -0.04413402 0.9990257 0 -0.04413402 0.9990257 0 -0.04413402 0.7064177 -0.7064179 -0.04413402 0.7064178 -0.7064178 -0.04413402 0 -0.9990257 -0.04413402 0 -0.9990257 -0.04413402 -0.7064179 -0.7064177 -0.04413402 -0.7064178 -0.7064179 -0.04413402 -0.9990257 0 -0.04413402 -0.9990257 0 -0.04413402 -0.7064177 0.7064179 -0.04413402 -0.7064178 0.7064178 -0.04413402 0 0 -1 -0.70661 -0.7066099 0.03748142 0 -0.9992973 0.03748142 0 -0.9992973 0.03748142 -0.9992973 0 0.03748142 -0.70661 -0.7066099 0.03748142 -0.70661 0.7066099 0.03748142 -0.9992974 0 0.03748142 0 0.9992973 0.03748142 -0.7066099 0.7066099 0.03748142 0.70661 0.7066099 0.03748142 0 0.9992973 0.03748142 0.9992973 0 0.03748142 0.70661 0.7066099 0.03748142 0.70661 -0.7066099 0.03748142 0.9992974 0 0.03748142 0.7066099 -0.7066099 0.03748142 0 0 1 0.03120642 0.03120756 0.9990257 0 0.04413425 0.9990257 0.0312063 0.03120756 0.9990257 0.04413568 0 0.9990256 0.04413586 0 0.9990255 0.03120642 -0.03120756 0.9990257 0.0312063 -0.03120756 0.9990257 0 -0.04413425 0.9990257 0 -0.04413425 0.9990257 -0.03120642 -0.03120756 0.9990257 -0.0312063 -0.03120756 0.9990257 -0.04413568 0 0.9990256 -0.04413586 0 0.9990255 -0.03120642 0.03120756 0.9990257 -0.0312063 0.03120756 0.9990257 0 0.04413425 0.9990257</float_array>
          <technique_common>
            <accessor source="#metal_trash_can-mesh-normals-array" count="50" stride="3">
              <param name="X" type="float"/>
              <param name="Y" type="float"/>
              <param name="Z" type="float"/>
            </accessor>
          </technique_common>
        </source>
        <source id="metal_trash_can-mesh-map-0">
          <float_array id="metal_trash_can-mesh-map-0-array" count="360">0.185303 0.5603947 0.350765 0.002410709 0.185303 0.002410709 0.3681953 0.5603947 0.185303 0.002410709 0.350765 0.002410709 0.185303 0.5603947 0.01984095 0.002410709 0.185303 0.002410709 0.7388013 0.5603947 0.555909 0.002410709 0.7213711 0.002410709 0.555909 0.5603947 0.390447 0.002410709 0.555909 0.002410709 0.3730168 0.5603947 0.555909 0.002410709 0.390447 0.002410709 0.555909 0.5603947 0.7213711 0.002410709 0.555909 0.002410709 0.002410709 0.5603947 0.185303 0.002410709 0.01984095 0.002410709 0.4347838 0.8709501 0.3081446 0.5652161 0.002410709 0.6918553 0.350765 0.002410709 0.185303 0.5603947 0.185303 0.002410709 0.185303 0.002410709 0.3681953 0.5603947 0.350765 0.002410709 0.01984095 0.002410709 0.185303 0.5603947 0.185303 0.002410709 0.555909 0.002410709 0.7388013 0.5603947 0.7213711 0.002410709 0.390447 0.002410709 0.555909 0.5603947 0.555909 0.002410709 0.555909 0.002410709 0.3730168 0.5603947 0.390447 0.002410709 0.7213711 0.002410709 0.555909 0.5603947 0.555909 0.002410709 0.185303 0.002410709 0.002410709 0.5603947 0.01984095 0.002410709 0.3081446 0.5652161 0.4347838 0.8709501 0.1290498 0.9975892 0.3681953 0.5603947 0.185303 0.5603947 0.3681953 0.5603947 0.3681953 0.5603947 0.185303 0.5603947 0.185303 0.5603947 0.002410709 0.5603947 0.185303 0.5603947 0.002410709 0.5603947 0.7388013 0.5603947 0.555909 0.5603947 0.555909 0.5603947 0.3730168 0.5603947 0.555909 0.5603947 0.3730168 0.5603947 0.3730168 0.5603947 0.555909 0.5603947 0.555909 0.5603947 0.7388013 0.5603947 0.555909 0.5603947 0.7388013 0.5603947 0.002410709 0.5603947 0.185303 0.5603947 0.185303 0.5603947 0.185303 0.5603947 0.3681953 0.5603947 0.350765 0.002410709 0.3681953 0.5603947 0.185303 0.5603947 0.185303 0.002410709 0.185303 0.5603947 0.002410709 0.5603947 0.01984095 0.002410709 0.7388013 0.5603947 0.555909 0.5603947 0.555909 0.002410709 0.555909 0.5603947 0.3730168 0.5603947 0.390447 0.002410709 0.3730168 0.5603947 0.555909 0.5603947 0.555909 0.002410709 0.555909 0.5603947 0.7388013 0.5603947 0.7213711 0.002410709 0.002410709 0.5603947 0.185303 0.5603947 0.185303 0.002410709 0.002410709 0.6918553 0.002410709 0.8709501 0.1290498 0.9975892 0.1290498 0.9975892 0.3081446 0.9975892 0.4347838 0.8709501 0.4347838 0.8709501 0.4347838 0.6918553 0.3081446 0.5652161 0.3081446 0.5652161 0.1290498 0.5652161 0.002410709 0.6918553 0.002410709 0.6918553 0.1290498 0.9975892 0.4347838 0.8709501 0.350765 0.002410709 0.3681953 0.5603947 0.185303 0.5603947 0.185303 0.002410709 0.185303 0.5603947 0.3681953 0.5603947 0.01984095 0.002410709 0.002410709 0.5603947 0.185303 0.5603947 0.555909 0.002410709 0.555909 0.5603947 0.7388013 0.5603947 0.390447 0.002410709 0.3730168 0.5603947 0.555909 0.5603947 0.555909 0.002410709 0.555909 0.5603947 0.3730168 0.5603947 0.7213711 0.002410709 0.7388013 0.5603947 0.555909 0.5603947 0.185303 0.002410709 0.185303 0.5603947 0.002410709 0.5603947 0.1290498 0.9975892 0.002410709 0.8709501 0.002410709 0.6918553 0.002410709 0.6918553 0.1290498 0.5652161 0.3081446 0.5652161 0.3081446 0.5652161 0.4347838 0.6918553 0.4347838 0.8709501 0.4347838 0.8709501 0.3081446 0.9975892 0.1290498 0.9975892 0.1290498 0.9975892 0.002410709 0.6918553 0.3081446 0.5652161 0.3681953 0.5603947 0.185303 0.5603947 0.185303 0.5603947 0.3681953 0.5603947 0.3681953 0.5603947 0.185303 0.5603947 0.002410709 0.5603947 0.185303 0.5603947 0.185303 0.5603947 0.7388013 0.5603947 0.7388013 0.5603947 0.555909 0.5603947 0.3730168 0.5603947 0.555909 0.5603947 0.555909 0.5603947 0.3730168 0.5603947 0.3730168 0.5603947 0.555909 0.5603947 0.7388013 0.5603947 0.555909 0.5603947 0.555909 0.5603947 0.002410709 0.5603947 0.002410709 0.5603947 0.185303 0.5603947</float_array>
          <technique_common>
            <accessor source="#metal_trash_can-mesh-map-0-array" count="180" stride="2">
              <param name="S" type="float"/>
              <param name="T" type="float"/>
            </accessor>
          </technique_common>
        </source>
        <vertices id="metal_trash_can-mesh-vertices">
          <input semantic="POSITION" source="#metal_trash_can-mesh-positions"/>
        </vertices>
        <triangles material="metal_trash_can-material" count="60">
          <input semantic="VERTEX" source="#metal_trash_can-mesh-vertices" offset="0"/>
          <input semantic="NORMAL" source="#metal_trash_can-mesh-normals" offset="1"/>
          <input semantic="TEXCOORD" source="#metal_trash_can-mesh-map-0" offset="2" set="0"/>
          <p>1 0 0 2 1 1 0 2 2 3 3 3 4 4 4 2 1 5 5 5 6 6 6 7 4 4 8 7 7 9 8 8 10 6 6 11 9 9 12 10 10 13 8 8 14 11 11 15 12 12 16 10 10 17 13 13 18 14 14 19 12 12 20 15 15 21 0 2 22 14 14 23 6 16 24 10 16 25 14 16 26 18 17 27 17 18 28 16 19 29 20 20 30 19 21 31 18 17 32 22 22 33 21 23 34 20 20 35 24 24 36 23 25 37 22 22 38 26 26 39 25 27 40 24 24 41 28 28 42 27 29 43 26 26 44 30 30 45 29 31 46 28 28 47 16 19 48 31 32 49 30 30 50 26 33 51 22 33 52 18 33 53 3 34 54 17 35 55 19 36 56 3 34 57 21 37 58 5 38 59 7 39 60 21 37 61 23 40 62 7 39 63 25 41 64 9 42 65 11 43 66 25 41 67 27 44 68 11 43 69 29 45 70 13 46 71 15 47 72 29 45 73 31 48 74 15 47 75 17 35 76 1 49 77 1 0 78 3 3 79 2 1 80 3 3 81 5 5 82 4 4 83 5 5 84 7 7 85 6 6 86 7 7 87 9 9 88 8 8 89 9 9 90 11 11 91 10 10 92 11 11 93 13 13 94 12 12 95 13 13 96 15 15 97 14 14 98 15 15 99 1 0 100 0 2 101 14 16 102 0 16 103 2 16 104 2 16 105 4 16 106 6 16 107 6 16 108 8 16 109 10 16 110 10 16 111 12 16 112 14 16 113 14 16 114 2 16 115 6 16 116 18 17 117 19 21 118 17 18 119 20 20 120 21 23 121 19 21 122 22 22 123 23 25 124 21 23 125 24 24 126 25 27 127 23 25 128 26 26 129 27 29 130 25 27 131 28 28 132 29 31 133 27 29 134 30 30 135 31 32 136 29 31 137 16 19 138 17 18 139 31 32 140 18 33 141 16 33 142 30 33 143 30 33 144 28 33 145 26 33 146 26 33 147 24 33 148 22 33 149 22 33 150 20 33 151 18 33 152 18 33 153 30 33 154 26 33 155 3 34 156 1 49 157 17 35 158 3 34 159 19 36 160 21 37 161 7 39 162 5 38 163 21 37 164 7 39 165 23 40 166 25 41 167 11 43 168 9 42 169 25 41 170 11 43 171 27 44 172 29 45 173 15 47 174 13 46 175 29 45 176 15 47 177 31 48 178 17 35 179</p>
        </triangles>
      </mesh>
    </geometry>
  </library_geometries>
  <library_visual_scenes>
    <visual_scene id="Scene" name="Scene">
      <node id="metal_trash_can_top" name="metal_trash_can_top" type="NODE">
        <matrix sid="transform">1.318007 -8.58922e-7 0 0 8.58922e-7 1.318007 0 0 0 0 1.318007 0.4953704 0 0 0 1</matrix>
        <instance_geometry url="#metal_trash_can_top-mesh" name="metal_trash_can_top">
          <bind_material>
            <technique_common>
              <instance_material symbol="metal_trash_can-material" target="#metal_trash_can-material">
                <bind_vertex_input semantic="UVMap" input_semantic="TEXCOORD" input_set="0"/>
              </instance_material>
            </technique_common>
          </bind_material>
        </instance_geometry>
      </node>
      <node id="metal_trash_can" name="metal_trash_can" type="NODE">
        <matrix sid="transform">1.289165 -8.40126e-7 0 0 8.40126e-7 1.289165 0 0 0 0 1.289165 0 0 0 0 1</matrix>
        <instance_geometry url="#metal_trash_can-mesh" name="metal_trash_can">
          <bind_material>
            <technique_common>
              <instance_material symbol="metal_trash_can-material" target="#metal_trash_can-material">
                <bind_vertex_input semantic="UVMap" input_semantic="TEXCOORD" input_set="0"/>
              </instance_material>
            </technique_common>
          </bind_material>
        </instance_geometry>
      </node>
    </visual_scene>
  </library_visual_scenes>
  <scene>
    <instance_visual_scene url="#Scene"/>
  </scene>
</COLLADA>