<?xml version="1.0" encoding="utf-8"?>
<COLLADA xmlns="http://www.collada.org/2005/11/COLLADASchema" version="1.4.1" xmlns:xsi="http://www.w3.org/2001/XMLSchema-instance">
  <asset>
    <contributor>
      <author>Blender User</author>
      <authoring_tool>Blender 4.0.1 commit date:2023-11-16, commit time:16:40, hash:d0dd92834a08</authoring_tool>
    </contributor>
    <created>2023-11-28T13:32:24</created>
    <modified>2023-11-28T13:32:24</modified>
    <unit name="meter" meter="1"/>
    <up_axis>Z_UP</up_axis>
  </asset>
  <library_effects>
    <effect id="Hamburger-effect">
      <profile_COMMON>
        <newparam sid="Hamburger-surface">
          <surface type="2D">
            <init_from>Hamburger</init_from>
          </surface>
        </newparam>
        <newparam sid="Hamburger-sampler">
          <sampler2D>
            <source>Hamburger-surface</source>
          </sampler2D>
        </newparam>
        <technique sid="common">
          <lambert>
            <emission>
              <color sid="emission">0 0 0 1</color>
            </emission>
            <diffuse>
              <texture texture="Hamburger-sampler" texcoord="UVMap"/>
            </diffuse>
            <index_of_refraction>
              <float sid="ior">1.45</float>
            </index_of_refraction>
          </lambert>
        </technique>
      </profile_COMMON>
    </effect>
  </library_effects>
  <library_images>
    <image id="Hamburger" name="Hamburger">
      <init_from>Hamburger.png</init_from>
    </image>
  </library_images>
  <library_materials>
    <material id="Hamburger-material" name="Hamburger">
      <instance_effect url="#Hamburger-effect"/>
    </material>
  </library_materials>
  <library_geometries>
    <geometry id="Hamburger-mesh" name="Hamburger">
      <mesh>
        <source id="Hamburger-mesh-positions">
          <float_array id="Hamburger-mesh-positions-array" count="216">0 4.464298 -4.393423 0 5.415049 -3.426437 3.490329 2.783444 -4.393423 4.233655 3.376228 -3.426437 4.352369 -0.9934001 -4.393423 5.279282 -1.204962 -3.426437 1.936986 -4.022193 -4.393423 2.349502 -4.87879 -3.426437 -1.936986 -4.022193 -4.393423 -2.349502 -4.87879 -3.426437 -4.352369 -0.9934001 -4.393423 -5.279282 -1.204962 -3.426437 -3.490329 2.783444 -4.393423 -4.233655 3.376228 -3.426437 0 5.458524 1.859971 0 2.380199 4.447729 0 4.436097 3.689792 1.860915 1.48403 4.447729 4.267646 3.403334 1.859971 3.46828 2.765861 3.689792 2.320523 -0.5296444 4.447729 5.321667 -1.214636 1.859971 4.324874 -0.9871245 3.689792 1.03273 -2.144486 4.447729 2.368365 -4.91796 1.859971 1.92475 -3.996785 3.689792 -1.03273 -2.144486 4.447729 -2.368365 -4.91796 1.859971 -1.92475 -3.996785 3.689792 -2.320523 -0.5296446 4.447729 -5.321667 -1.214636 1.859971 -4.324874 -0.9871245 3.689792 -1.860915 1.48403 4.447729 -4.267646 3.403334 1.859971 -3.46828 2.765861 3.689792 0 5.315726 0.249904 4.156002 3.314301 0.2499037 -4.156002 3.314301 0.249904 5.182449 -1.18286 0.2499037 2.306407 -4.789303 0.2499037 -2.306407 -4.789303 0.2499037 -5.182449 -1.18286 0.2499037 3.635797 -2.921603 -2.591135 4.727382 -3.005204 -2.802323 5.738816 -0.9685754 -2.726192 5.877555 -2.284784 -3.356989 5.030712 -0.1127957 -2.57727 3.635797 -2.921603 -2.591135 4.727382 -3.005204 -2.802323 5.738816 -0.9685754 -2.726192 5.877555 -2.284784 -3.356989 5.030712 -0.1127957 -2.57727 -3.87192 -2.85031 -2.556776 -3.765485 -4.394265 -2.808038 -1.183042 -5.200748 -2.71746 -2.70343 -5.328319 -3.467953 -0.3103557 -4.762315 -2.54028 -3.87192 -2.85031 -2.556776 -3.765485 -4.394265 -2.808038 -1.183042 -5.200748 -2.71746 -2.70343 -5.328319 -3.467953 -0.3103557 -4.762315 -2.54028 -2.777392 4.039246 -2.627274 -4.34929 4.10309 -2.878535 -5.627144 1.718448 -2.787958 -5.466447 3.235692 -3.538451 -4.722761 0.5822325 -2.610778 -2.777392 4.039246 -2.627274 -4.34929 4.10309 -2.878535 -5.627144 1.718448 -2.787958 -5.466447 3.235692 -3.538451 -4.722761 0.5822325 -2.610778</float_array>
          <technique_common>
            <accessor source="#Hamburger-mesh-positions-array" count="72" stride="3">
              <param name="X" type="float"/>
              <param name="Y" type="float"/>
              <param name="Z" type="float"/>
            </accessor>
          </technique_common>
        </source>
        <source id="Hamburger-mesh-normals">
          <float_array id="Hamburger-mesh-normals-array" count="216">0.7669693 0.6116376 0.1940558 0.9744527 -0.2224125 -0.03122079 0.7814505 0.6231859 -0.03122073 0.4256359 -0.8838419 0.1940556 -0.4336723 -0.9005298 -0.03122073 0.4336723 -0.9005298 -0.03122067 -0.4256359 -0.883842 0.1940556 -0.9744526 -0.2224126 -0.03122079 -0.7669694 0.6116376 0.1940556 -0.7814504 0.6231859 -0.03122091 0 0.9995126 -0.03122079 0.09689342 -0.2012013 0.9747461 0.2177175 -0.04969263 0.9747461 0 0.2233165 0.9747461 0.7369781 0.5877205 -0.3338383 0 0.4719218 -0.8816406 0 0.9426304 -0.3338382 0.9189967 -0.209755 -0.3338382 0.3689632 0.2942382 -0.8816407 0.408992 -0.8492807 -0.3338382 0.4600896 -0.1050124 -0.8816405 -0.4089921 -0.8492807 -0.3338382 0.2047591 -0.4251868 -0.8816404 -0.9189968 -0.2097551 -0.3338382 -0.2047591 -0.4251866 -0.8816406 -0.3689631 0.2942383 -0.8816406 -0.4600896 -0.1050125 -0.8816404 -0.7369781 0.5877205 -0.3338384 0 0.9809906 0.1940556 0.5469222 0.4361557 0.7145938 0 0.6995396 0.7145938 0.1745959 0.1392355 0.974746 0.6820006 -0.1556622 0.7145939 0.956395 -0.2182909 0.1940557 0.3035189 -0.6302635 0.7145938 -0.3035189 -0.6302634 0.7145938 -0.09689342 -0.2012013 0.9747461 -0.6820007 -0.1556622 0.7145939 -0.956395 -0.218291 0.1940557 -0.2177173 -0.04969263 0.9747461 -0.5469222 0.4361559 0.7145938 -0.174596 0.1392356 0.9747461 0.2521013 -0.1409652 0.9573786 0.2852376 -0.1768681 0.9419965 0.5628922 -0.3082123 0.7669144 0.1631676 -0.1078824 0.9806823 -0.2521013 0.1409651 -0.9573786 -0.5628922 0.3082123 -0.7669144 -0.2852376 0.176868 -0.9419965 -0.1631676 0.1078824 -0.9806823 -0.1309545 -0.3137068 0.9404461 -0.1382821 -0.3206655 0.9370441 -0.2509415 -0.7324602 0.6328748 -0.09567677 -0.1868939 0.9777099 -0.09377688 -0.1662126 0.9816209 0.1309545 0.3137068 -0.9404461 0.2509415 0.7324602 -0.6328748 0.1382821 0.3206655 -0.9370441 0.09567677 0.1868939 -0.9777099 -0.2287434 0.159056 0.9604049 -0.2790243 0.1669875 0.9456536 -0.6721822 0.3842404 0.6328749 -0.1107728 0.08704054 0.990027 -0.1535759 0.0911169 0.9839269 0.2287434 -0.159056 -0.9604049 0.6721822 -0.3842404 -0.6328749 0.2790243 -0.1669875 -0.9456536 0.1107728 -0.08704054 -0.990027 0.1263816 -0.067649 0.9896724 -0.1263815 0.067649 -0.9896724 0.09377688 0.1662126 -0.9816209 0.1535759 -0.0911169 -0.9839269</float_array>
          <technique_common>
            <accessor source="#Hamburger-mesh-normals-array" count="72" stride="3">
              <param name="X" type="float"/>
              <param name="Y" type="float"/>
              <param name="Z" type="float"/>
            </accessor>
          </technique_common>
        </source>
        <source id="Hamburger-mesh-map-0">
          <float_array id="Hamburger-mesh-map-0-array" count="588">0.07874208 0.8925518 0.1473601 0.7021532 0.14736 0.8941272 0.5489172 0.9213617 0.3534312 0.8527438 0.5503423 0.8527438 0.6561597 0.5788058 0.7247777 0.7311212 0.7247776 0.5771698 0.7247777 0.7293258 0.6561597 0.9197244 0.7247777 0.9212998 0.6074755 0.006862103 0.6760935 0.1826259 0.6760934 0.005215167 0.1473601 0.7039486 0.07874208 0.5516332 0.14736 0.5499973 0.4258511 0.5705936 0.3730909 0.5044345 0.4681614 0.3852199 0.8301819 0.3589047 0.8706551 0.1817051 0.8301818 0.1817051 0.3014485 0.7026854 0.3419217 0.8696202 0.3014485 0.8944312 0.3951348 0.126516 0.3592819 0.3059269 0.3951348 0.3231928 0.3513038 0.6986553 0.5307148 0.6581822 0.5479806 0.6986553 0.04962098 0.04765468 0.2325117 0.04268592 0.2413666 0.003889977 0.8788661 0.7298581 0.9193393 0.8967928 0.9193393 0.738713 0.8301818 0.1817051 0.8706551 0.03561735 0.8301818 0.004505395 0.004079759 0.2248544 0.2325117 0.4070227 0.3592819 0.1437818 0.6074755 0.1817051 0.5325089 0.3237985 0.6074755 0.356548 0.4681614 0.3009909 0.3919208 0.4219354 0.326068 0.3694195 0.07874208 0.8925518 0.003775417 0.7126772 0.07874208 0.7033562 0.2909738 0.5231772 0.3919208 0.4219354 0.3730909 0.5044345 0.07874208 0.5516332 0.003775417 0.7126772 0.003775417 0.5893732 0.2909738 0.5231772 0.4258511 0.5705936 0.3893055 0.6464812 0.5466727 0.9213617 0.3707863 0.9963284 0.3526117 0.9213617 0.3893055 0.6464812 0.5104718 0.5705936 0.5470173 0.6464812 0.6561597 0.5788058 0.581193 0.7398498 0.6561597 0.7305288 0.645349 0.5231772 0.5104718 0.5705936 0.5632319 0.5044345 0.6561597 0.9197244 0.581193 0.7398498 0.581193 0.8936074 0.645349 0.5231772 0.544402 0.4219354 0.6102548 0.3694195 0.6074755 0.1817051 0.5325089 0.03961163 0.5325089 0.1817051 0.4681614 0.3009909 0.544402 0.4219354 0.4681614 0.3852199 0.6074755 0.1817051 0.6760935 0.358195 0.6760934 0.1807842 0.676728 0.179645 0.8301819 0.3589047 0.8301818 0.1817051 0.1479946 0.7049352 0.3014485 0.5489174 0.3014485 0.7026854 0.6767281 0.004069209 0.8301818 0.1817051 0.8301818 0.004505395 0.7254123 0.7280911 0.8788661 0.9216037 0.8788661 0.7298581 0.7254124 0.5761734 0.8788661 0.7298581 0.8788661 0.5760899 0.5516104 0.852109 0.3535483 0.6986553 0.5502251 0.6986553 0.1479946 0.8953654 0.3014485 0.7026854 0.3014485 0.8944312 0.8218901 0.3302097 0.8238306 0.2700979 0.8455277 0.3008855 0.8218901 0.3302097 0.8074085 0.2585586 0.8238306 0.2700979 0.8218901 0.3302097 0.8455277 0.3008855 0.8238306 0.2700979 0.8074085 0.2585586 0.8218901 0.3302097 0.8238306 0.2700979 0.8218901 0.3302097 0.8238306 0.2700979 0.8455277 0.3008855 0.8238306 0.2700979 0.8047323 0.3414617 0.8074085 0.2585586 0.8218901 0.3302097 0.8455277 0.3008855 0.8238306 0.2700979 0.8238306 0.2700979 0.8047323 0.3414617 0.8218901 0.3302097 0.8218901 0.3302097 0.8238306 0.2700979 0.8455277 0.3008855 0.8238306 0.2700979 0.8047323 0.3414617 0.8074085 0.2585586 0.8218901 0.3302097 0.8455277 0.3008855 0.8238306 0.2700979 0.8238306 0.2700979 0.8047323 0.3414617 0.8218901 0.3302097 0.07874208 0.8925518 0.07874208 0.7033562 0.1473601 0.7021532 0.5489172 0.9213617 0.3548561 0.9213617 0.3534312 0.8527438 0.6561597 0.5788058 0.6561597 0.7305288 0.7247777 0.7311212 0.7247777 0.7293258 0.6561597 0.7305288 0.6561597 0.9197244 0.6074755 0.006862103 0.6074755 0.1817051 0.6760935 0.1826259 0.1473601 0.7039486 0.07874208 0.7033562 0.07874208 0.5516332 0.3730909 0.5044345 0.3919208 0.4219354 0.4681614 0.3852199 0.4681614 0.3852199 0.544402 0.4219354 0.4258511 0.5705936 0.544402 0.4219354 0.5632319 0.5044345 0.4258511 0.5705936 0.5632319 0.5044345 0.5104718 0.5705936 0.4258511 0.5705936 0.8301819 0.3589047 0.8706551 0.3277928 0.8706551 0.1817051 0.3014485 0.7026854 0.3419217 0.7115404 0.3419217 0.8696202 0.3951348 0.126516 0.3592819 0.1437818 0.3592819 0.3059269 0.3513038 0.6986553 0.3685696 0.6581822 0.5307148 0.6581822 0.04962098 0.04765468 0.07443189 0.07876664 0.2325117 0.04268592 0.8788661 0.7298581 0.8788661 0.9216037 0.9193393 0.8967928 0.8301818 0.1817051 0.8706551 0.1817051 0.8706551 0.03561735 0.004079759 0.2248544 0.07443189 0.3709421 0.2325117 0.4070227 0.2325117 0.4070227 0.3592819 0.3059269 0.3592819 0.1437818 0.3592819 0.1437818 0.2325117 0.04268592 0.07443189 0.07876664 0.07443189 0.07876664 0.004079759 0.2248544 0.3592819 0.1437818 0.6074755 0.1817051 0.5325089 0.1817051 0.5325089 0.3237985 0.4681614 0.3009909 0.4681614 0.3852199 0.3919208 0.4219354 0.07874208 0.8925518 0.003775417 0.8664349 0.003775417 0.7126772 0.2909738 0.5231772 0.326068 0.3694195 0.3919208 0.4219354 0.07874208 0.5516332 0.07874208 0.7033562 0.003775417 0.7126772 0.2909738 0.5231772 0.3730909 0.5044345 0.4258511 0.5705936 0.5466727 0.9213617 0.5284981 0.9963284 0.3707863 0.9963284 0.3893055 0.6464812 0.4258511 0.5705936 0.5104718 0.5705936 0.6561597 0.5788058 0.581193 0.6165457 0.581193 0.7398498 0.645349 0.5231772 0.5470173 0.6464812 0.5104718 0.5705936 0.6561597 0.9197244 0.6561597 0.7305288 0.581193 0.7398498 0.645349 0.5231772 0.5632319 0.5044345 0.544402 0.4219354 0.6074755 0.1817051 0.6074755 0.006862103 0.5325089 0.03961163 0.4681614 0.3009909 0.6102548 0.3694195 0.544402 0.4219354 0.6074755 0.1817051 0.6074755 0.356548 0.6760935 0.358195 0.676728 0.179645 0.6767281 0.3593409 0.8301819 0.3589047 0.1479946 0.7049352 0.1479946 0.5490009 0.3014485 0.5489174 0.6767281 0.004069209 0.676728 0.1837651 0.8301818 0.1817051 0.7254123 0.7280911 0.7254122 0.9225379 0.8788661 0.9216037 0.7254124 0.5761734 0.7254122 0.7321076 0.8788661 0.7298581 0.5516104 0.852109 0.3521629 0.852109 0.3535483 0.6986553 0.1479946 0.8953654 0.1479946 0.7009183 0.3014485 0.7026854 0.8218901 0.3302097 0.8047323 0.3414617 0.8074085 0.2585586 0.8074085 0.2585586 0.8047323 0.3414617 0.8218901 0.3302097 0.8238306 0.2700979 0.8218901 0.3302097 0.8047323 0.3414617 0.8238306 0.2700979 0.8074085 0.2585586 0.8047323 0.3414617 0.8238306 0.2700979 0.8218901 0.3302097 0.8047323 0.3414617 0.8238306 0.2700979 0.8074085 0.2585586 0.8047323 0.3414617</float_array>
          <technique_common>
            <accessor source="#Hamburger-mesh-map-0-array" count="294" stride="2">
              <param name="S" type="float"/>
              <param name="T" type="float"/>
            </accessor>
          </technique_common>
        </source>
        <vertices id="Hamburger-mesh-vertices">
          <input semantic="POSITION" source="#Hamburger-mesh-positions"/>
        </vertices>
        <triangles material="Hamburger-material" count="98">
          <input semantic="VERTEX" source="#Hamburger-mesh-vertices" offset="0"/>
          <input semantic="NORMAL" source="#Hamburger-mesh-normals" offset="1"/>
          <input semantic="TEXCOORD" source="#Hamburger-mesh-map-0" offset="2" set="0"/>
          <p>18 0 0 38 1 1 36 2 2 24 3 3 40 4 4 39 5 5 27 6 6 41 7 7 40 4 8 41 7 9 33 8 10 37 9 11 33 8 12 35 10 13 37 9 14 38 1 15 24 3 16 39 5 17 23 11 18 20 12 19 15 13 20 3 14 21 0 15 22 1 16 23 5 17 24 2 18 25 3 14 26 7 19 27 4 20 28 5 17 29 9 21 30 6 22 31 7 19 32 11 23 33 8 24 34 9 21 35 11 23 36 12 25 37 10 26 38 1 16 39 12 25 40 13 27 41 12 25 42 2 18 43 6 22 44 14 28 45 19 29 46 18 0 47 16 30 48 17 31 49 19 29 50 18 0 51 22 32 52 21 33 53 22 32 54 17 31 55 20 12 56 24 3 57 22 32 58 25 34 59 22 32 60 23 11 61 25 34 62 24 3 63 28 35 64 27 6 65 25 34 66 26 36 67 28 35 68 27 6 69 31 37 70 30 38 71 31 37 72 26 36 73 29 39 74 33 8 75 31 37 76 34 40 77 31 37 78 32 41 79 34 40 80 14 28 81 34 40 82 16 30 83 16 30 84 32 41 85 15 13 86 14 28 87 36 2 88 35 10 89 35 10 90 3 14 91 1 16 92 38 1 93 7 19 94 5 17 95 37 9 96 1 16 97 13 27 98 41 7 99 13 27 100 11 23 101 40 4 102 11 23 103 9 21 104 39 5 105 9 21 106 7 19 107 36 2 108 5 17 109 3 14 110 44 42 111 43 43 112 45 44 113 44 42 114 42 45 115 43 43 116 49 46 117 50 47 118 48 48 119 47 49 120 49 46 121 48 48 122 54 50 123 53 51 124 55 52 125 53 51 126 56 53 127 52 54 128 59 55 129 60 56 130 58 57 131 58 57 132 61 58 133 59 55 134 64 59 135 63 60 136 65 61 137 63 60 138 66 62 139 62 63 140 69 64 141 70 65 142 68 66 143 68 66 144 71 67 145 69 64 146 18 0 147 21 33 148 38 1 149 24 3 150 27 6 151 40 4 152 27 6 153 30 38 154 41 7 155 41 7 156 30 38 157 33 8 158 33 8 159 14 28 160 35 10 161 38 1 162 21 33 163 24 3 164 20 12 165 17 31 166 15 13 167 15 13 168 32 41 169 23 11 170 32 41 171 29 39 172 23 11 173 29 39 174 26 36 175 23 11 176 3 14 177 2 18 178 0 15 179 5 17 180 4 20 181 2 18 182 7 19 183 6 22 184 4 20 185 9 21 186 8 24 187 6 22 188 11 23 189 10 26 190 8 24 191 11 23 192 13 27 193 12 25 194 1 16 195 0 15 196 12 25 197 12 25 198 0 15 199 2 18 200 2 18 201 4 20 202 6 22 203 6 22 204 8 24 205 10 26 206 10 26 207 12 25 208 6 22 209 14 28 210 16 30 211 19 29 212 16 30 213 15 13 214 17 31 215 18 0 216 19 29 217 22 32 218 22 32 219 19 29 220 17 31 221 24 3 222 21 33 223 22 32 224 22 32 225 20 12 226 23 11 227 24 3 228 25 34 229 28 35 230 25 34 231 23 11 232 26 36 233 27 6 234 28 35 235 31 37 236 31 37 237 28 35 238 26 36 239 33 8 240 30 38 241 31 37 242 31 37 243 29 39 244 32 41 245 14 28 246 33 8 247 34 40 248 16 30 249 34 40 250 32 41 251 14 28 252 18 0 253 36 2 254 35 10 255 36 2 256 3 14 257 38 1 258 39 5 259 7 19 260 37 9 261 35 10 262 1 16 263 41 7 264 37 9 265 13 27 266 40 4 267 41 7 268 11 23 269 39 5 270 40 4 271 9 21 272 36 2 273 38 1 274 5 17 275 44 42 276 46 68 277 42 45 278 47 49 279 51 69 280 49 46 281 53 51 282 54 50 283 56 53 284 58 57 285 57 70 286 61 58 287 63 60 288 64 59 289 66 62 290 68 66 291 67 71 292 71 67 293</p>
        </triangles>
      </mesh>
    </geometry>
  </library_geometries>
  <library_visual_scenes>
    <visual_scene id="Scene" name="Scene">
      <node id="Hamburger" name="Hamburger" type="NODE">
        <matrix sid="transform">-0.02349958 7.65714e-9 0 0 -7.65714e-9 -0.02349958 0 0 0 0 0.02349958 0 0 0 0 1</matrix>
        <instance_geometry url="#Hamburger-mesh" name="Hamburger">
          <bind_material>
            <technique_common>
              <instance_material symbol="Hamburger-material" target="#Hamburger-material">
                <bind_vertex_input semantic="UVMap" input_semantic="TEXCOORD" input_set="0"/>
              </instance_material>
            </technique_common>
          </bind_material>
        </instance_geometry>
      </node>
    </visual_scene>
  </library_visual_scenes>
  <scene>
    <instance_visual_scene url="#Scene"/>
  </scene>
</COLLADA>