<?xml version="1.0" encoding="utf-8"?>
<COLLADA xmlns="http://www.collada.org/2005/11/COLLADASchema" version="1.4.1" xmlns:xsi="http://www.w3.org/2001/XMLSchema-instance">
  <asset>
    <contributor>
      <author>Blender User</author>
      <authoring_tool>Blender 4.0.1 commit date:2023-11-16, commit time:16:40, hash:d0dd92834a08</authoring_tool>
    </contributor>
    <created>2023-11-28T13:46:07</created>
    <modified>2023-11-28T13:46:07</modified>
    <unit name="meter" meter="1"/>
    <up_axis>Z_UP</up_axis>
  </asset>
  <library_effects>
    <effect id="Tray-effect">
      <profile_COMMON>
        <newparam sid="Tray-surface">
          <surface type="2D">
            <init_from>Tray</init_from>
          </surface>
        </newparam>
        <newparam sid="Tray-sampler">
          <sampler2D>
            <source>Tray-surface</source>
          </sampler2D>
        </newparam>
        <technique sid="common">
          <lambert>
            <emission>
              <color sid="emission">0 0 0 1</color>
            </emission>
            <diffuse>
              <texture texture="Tray-sampler" texcoord="UVMap"/>
            </diffuse>
            <index_of_refraction>
              <float sid="ior">1.45</float>
            </index_of_refraction>
          </lambert>
        </technique>
      </profile_COMMON>
    </effect>
  </library_effects>
  <library_images>
    <image id="Tray" name="Tray">
      <init_from>Tray.png</init_from>
    </image>
  </library_images>
  <library_materials>
    <material id="Tray-material" name="Tray">
      <instance_effect url="#Tray-effect"/>
    </material>
  </library_materials>
  <library_geometries>
    <geometry id="Tray-mesh" name="Tray">
      <mesh>
        <source id="Tray-mesh-positions">
          <float_array id="Tray-mesh-positions-array" count="96">-0.365655 -0.3107653 -0.01833373 -0.3656721 -0.2996969 0.001676261 -0.4661415 -0.2047882 -0.01833373 -0.456588 -0.203515 0.001676261 -0.4960096 -0.2432279 0.05043244 -0.5096963 -0.2483358 0.03553444 -0.4072404 -0.3298569 0.0497455 -0.4126077 -0.3445635 0.03553479 -0.4661415 0.2047843 -0.01833373 -0.456588 0.2035112 0.001676261 -0.3656721 0.2996931 0.001676261 -0.365655 0.3107615 -0.01833373 -0.4072402 0.3298531 0.04974544 -0.4126077 0.3445597 0.03553479 -0.4960096 0.2432241 0.05043244 -0.5096963 0.248332 0.03553444 0.4661408 -0.2047882 -0.01833373 0.4565871 -0.203515 0.001676261 0.3656712 -0.2996969 0.001676261 0.365654 -0.3107653 -0.01833373 0.4072392 -0.3298569 0.04974544 0.4126065 -0.3445635 0.03553479 0.4960084 -0.2432279 0.05043244 0.5096953 -0.2483358 0.03553444 0.365654 0.3107615 -0.01833373 0.3656712 0.2996931 0.001676261 0.4565871 0.2035112 0.001676261 0.4661408 0.2047843 -0.01833373 0.4960084 0.2432241 0.05043244 0.5096953 0.248332 0.03553444 0.4072392 0.3298531 0.04974544 0.4126065 0.3445597 0.03553479</float_array>
          <technique_common>
            <accessor source="#Tray-mesh-positions-array" count="32" stride="3">
              <param name="X" type="float"/>
              <param name="Y" type="float"/>
              <param name="Z" type="float"/>
            </accessor>
          </technique_common>
        </source>
        <source id="Tray-mesh-normals">
          <float_array id="Tray-mesh-normals-array" count="189">-0.2630858 -0.6210937 0.7382605 -0.6571754 -0.2735428 0.7023496 -0.2523199 -0.6231966 0.7402438 -0.2630823 0.6210905 0.7382645 -0.6571749 0.2735432 0.70235 -0.6550756 0.2853001 0.6996284 0.263085 0.6210932 0.7382612 0.6571707 0.2735405 0.7023549 0.2523188 0.6231962 0.7402445 0.263085 -0.6210919 0.7382622 0.6571706 -0.2735405 0.7023549 0.6550705 -0.2852985 0.6996338 -0.6550757 -0.2852995 0.6996284 0.2523188 -0.6231949 0.7402455 -0.2523198 0.6231917 0.7402479 0.6550705 0.2852987 0.6996338 -0.2099012 -0.7353696 -0.6443393 0.3295475 -0.6356881 -0.6980681 -0.3295478 -0.6356871 -0.6980689 0.2113171 0.7352269 0.6440392 -0.3300885 0.6358398 0.6976742 -0.2113177 0.7352264 0.6440397 0.6774526 0.2057697 -0.7061989 0.6112587 -0.2963938 -0.7338348 0.6774526 -0.2057697 -0.7061989 -0.6103708 0.2961028 0.7346909 -0.6775164 -0.2052187 0.706298 -0.6775165 0.2052187 0.7062979 -0.2099012 0.7353693 -0.6443396 0.3295476 0.6356882 -0.698068 0.2099015 0.73537 -0.6443387 -0.3300886 -0.6358399 0.6976742 0.2113177 -0.7352262 0.6440399 -0.2113177 -0.7352265 0.6440395 -0.677451 -0.2057692 -0.7062005 -0.6112579 0.2963929 -0.7338359 -0.6774511 0.2057693 -0.7062004 0.6103694 -0.2961022 0.7346923 0.6775147 0.2052187 0.7062997 0.6775147 -0.2052189 0.7062996 -0.6112579 -0.2963927 -0.733836 0.3300885 0.6358395 0.6976745 -0.3295478 0.6356868 -0.6980692 0.3300883 -0.6358395 0.6976746 -0.6103708 -0.2961029 0.7346909 0 0 -1 0 0 -1 0 0 -1 0 0 1 0 0 1 0 0 1 0.2099015 -0.7353698 -0.644339 0.6112586 0.2963938 -0.7338349 0.6103695 0.2961021 0.7346922 0 0 -1 0 0 -1 0 0 -1 0 0 -1 0 0 1 0 0 1 0 0 1 0 0 1 0 0 1</float_array>
          <technique_common>
            <accessor source="#Tray-mesh-normals-array" count="63" stride="3">
              <param name="X" type="float"/>
              <param name="Y" type="float"/>
              <param name="Z" type="float"/>
            </accessor>
          </technique_common>
        </source>
        <source id="Tray-mesh-map-0">
          <float_array id="Tray-mesh-map-0-array" count="360">0.002141177 0.0847727 0.09317404 0.01695281 0.02079355 0.09446245 0.5277782 0.08630818 0.4343332 0.01911932 0.4424587 0.002141237 0.4987126 0.664716 0.4179426 0.7245691 0.4832829 0.655724 0.02171969 0.6646647 0.1053361 0.7234587 0.0982142 0.7388539 0.4424587 0.002141237 0.09317404 0.01695281 0.08540213 0.002141237 0.002141177 0.0847727 0.03739255 0.6554468 0.02171969 0.6646647 0.5277782 0.08630818 0.4832829 0.655724 0.508861 0.09614044 0.0982142 0.7388539 0.4179426 0.7245691 0.4248709 0.7379475 0.06875318 0.1353759 0.03739255 0.6554468 0.02079355 0.09446245 0.9563047 0.1081545 0.9978588 0.6172059 0.9586124 0.5813086 0.3822911 0.6774695 0.1053361 0.7234587 0.1380424 0.6782761 0.9284776 0.6857615 0.6313952 0.6406183 0.8961127 0.6428148 0.4605966 0.1359243 0.4832829 0.655724 0.4423361 0.617612 0.5320608 0.6134537 0.5695447 0.1053773 0.5707696 0.5785211 0.1333144 0.06933367 0.4343332 0.01911932 0.3972142 0.06898784 0.6003627 0.002141177 0.8956874 0.04670214 0.6321972 0.04462093 0.1333144 0.06933367 0.02079355 0.09446245 0.09317404 0.01695281 0.8956874 0.04670214 0.9933691 0.07330101 0.9563047 0.1081545 0.508861 0.09614044 0.3972142 0.06898784 0.4343332 0.01911932 0.6321972 0.04462093 0.5320607 0.06951427 0.6003627 0.002141177 0.4832829 0.655724 0.3822911 0.6774695 0.4423361 0.617612 0.5320608 0.6134537 0.6313952 0.6406183 0.5982845 0.6812576 0.03739255 0.6554468 0.1380424 0.6782761 0.1053361 0.7234587 0.8961127 0.6428148 0.9978588 0.6172059 0.9284776 0.6857615 0.07858914 0.6182936 0.06875318 0.1353759 0.4423361 0.617612 0.5695447 0.1053773 0.6321972 0.04462093 0.9563047 0.1081545 0.002141177 0.0847727 0.08540213 0.002141237 0.09317404 0.01695281 0.5277782 0.08630818 0.508861 0.09614044 0.4343332 0.01911932 0.4987126 0.664716 0.4248709 0.7379475 0.4179426 0.7245691 0.02171969 0.6646647 0.03739255 0.6554468 0.1053361 0.7234587 0.4424587 0.002141237 0.4343332 0.01911932 0.09317404 0.01695281 0.002141177 0.0847727 0.02079355 0.09446245 0.03739255 0.6554468 0.5277782 0.08630818 0.4987126 0.664716 0.4832829 0.655724 0.0982142 0.7388539 0.1053361 0.7234587 0.4179426 0.7245691 0.06875318 0.1353759 0.07858914 0.6182936 0.03739255 0.6554468 0.9563047 0.1081545 0.9933691 0.07330101 0.9978588 0.6172059 0.3822911 0.6774695 0.4179426 0.7245691 0.1053361 0.7234587 0.9284776 0.6857615 0.5982845 0.6812576 0.6313952 0.6406183 0.4605966 0.1359243 0.508861 0.09614044 0.4832829 0.655724 0.5320608 0.6134537 0.5320607 0.06951427 0.5695447 0.1053773 0.1333144 0.06933367 0.09317404 0.01695281 0.4343332 0.01911932 0.6003627 0.002141177 0.9282867 0.006513416 0.8956874 0.04670214 0.1333144 0.06933367 0.06875318 0.1353759 0.02079355 0.09446245 0.8956874 0.04670214 0.9282867 0.006513416 0.9933691 0.07330101 0.508861 0.09614044 0.4605966 0.1359243 0.3972142 0.06898784 0.6321972 0.04462093 0.5695447 0.1053773 0.5320607 0.06951427 0.4832829 0.655724 0.4179426 0.7245691 0.3822911 0.6774695 0.5320608 0.6134537 0.5707696 0.5785211 0.6313952 0.6406183 0.03739255 0.6554468 0.07858914 0.6182936 0.1380424 0.6782761 0.8961127 0.6428148 0.9586124 0.5813086 0.9978588 0.6172059 0.06875318 0.1353759 0.1333144 0.06933367 0.3972142 0.06898784 0.3972142 0.06898784 0.4605966 0.1359243 0.06875318 0.1353759 0.4605966 0.1359243 0.4423361 0.617612 0.06875318 0.1353759 0.4423361 0.617612 0.3822911 0.6774695 0.1380424 0.6782761 0.1380424 0.6782761 0.07858914 0.6182936 0.4423361 0.617612 0.6321972 0.04462093 0.8956874 0.04670214 0.9563047 0.1081545 0.9563047 0.1081545 0.9586124 0.5813086 0.5707696 0.5785211 0.9586124 0.5813086 0.8961127 0.6428148 0.5707696 0.5785211 0.8961127 0.6428148 0.6313952 0.6406183 0.5707696 0.5785211 0.5707696 0.5785211 0.5695447 0.1053773 0.9563047 0.1081545</float_array>
          <technique_common>
            <accessor source="#Tray-mesh-map-0-array" count="180" stride="2">
              <param name="S" type="float"/>
              <param name="T" type="float"/>
            </accessor>
          </technique_common>
        </source>
        <vertices id="Tray-mesh-vertices">
          <input semantic="POSITION" source="#Tray-mesh-positions"/>
        </vertices>
        <triangles material="Tray-material" count="60">
          <input semantic="VERTEX" source="#Tray-mesh-vertices" offset="0"/>
          <input semantic="NORMAL" source="#Tray-mesh-normals" offset="1"/>
          <input semantic="TEXCOORD" source="#Tray-mesh-map-0" offset="2" set="0"/>
          <p>6 0 0 5 1 1 7 2 2 12 3 3 15 4 4 14 5 5 30 6 6 29 7 7 31 8 8 20 9 9 23 10 10 22 11 11 14 5 12 5 1 13 4 12 14 6 0 15 21 13 16 20 9 17 12 3 18 31 8 19 13 14 20 22 11 21 29 7 22 28 15 23 0 16 24 21 17 25 7 18 26 1 19 27 20 20 28 18 21 29 27 22 30 23 23 31 16 24 32 22 25 33 26 26 34 17 27 35 11 28 36 31 29 37 24 30 38 30 31 39 10 32 40 25 33 41 2 34 42 15 35 43 8 36 44 14 37 45 3 38 46 9 39 47 2 34 48 7 18 49 5 40 50 3 38 51 6 41 52 1 19 53 13 42 54 8 36 55 15 35 56 9 39 57 12 43 58 14 37 59 31 29 60 27 22 61 24 30 62 30 31 63 26 26 64 28 44 65 21 17 66 16 24 67 23 23 68 17 27 69 20 20 70 22 25 71 19 45 72 0 46 73 24 47 74 10 48 75 9 49 76 1 50 77 6 0 78 4 12 79 5 1 80 12 3 81 13 14 82 15 4 83 30 6 84 28 15 85 29 7 86 20 9 87 21 13 88 23 10 89 14 5 90 15 4 91 5 1 92 6 0 93 7 2 94 21 13 95 12 3 96 30 6 97 31 8 98 22 11 99 23 10 100 29 7 101 0 16 102 19 51 103 21 17 104 1 19 105 6 41 106 20 20 107 27 22 108 29 52 109 23 23 110 22 25 111 28 44 112 26 26 113 11 28 114 13 42 115 31 29 116 30 31 117 12 43 118 10 32 119 2 34 120 5 40 121 15 35 122 14 37 123 4 53 124 3 38 125 2 34 126 0 16 127 7 18 128 3 38 129 4 53 130 6 41 131 13 42 132 11 28 133 8 36 134 9 39 135 10 32 136 12 43 137 31 29 138 29 52 139 27 22 140 30 31 141 25 33 142 26 26 143 21 17 144 19 51 145 16 24 146 17 27 147 18 21 148 20 20 149 0 46 150 2 54 151 8 55 152 8 55 153 11 45 154 0 46 155 11 45 156 24 47 157 0 46 158 24 47 159 27 56 160 16 57 161 16 57 162 19 45 163 24 47 164 9 49 165 3 58 166 1 50 167 1 50 168 18 59 169 25 60 170 18 59 171 17 61 172 25 60 173 17 61 174 26 62 175 25 60 176 25 60 177 10 48 178 1 50 179</p>
        </triangles>
      </mesh>
    </geometry>
  </library_geometries>
  <library_visual_scenes>
    <visual_scene id="Scene" name="Scene">
      <node id="Tray" name="Tray" type="NODE">
        <matrix sid="transform">-0.61028 1.98854e-7 0 0 -1.98854e-7 -0.61028 0 0 0 0 0.61028 0 0 0 0 1</matrix>
        <instance_geometry url="#Tray-mesh" name="Tray">
          <bind_material>
            <technique_common>
              <instance_material symbol="Tray-material" target="#Tray-material">
                <bind_vertex_input semantic="UVMap" input_semantic="TEXCOORD" input_set="0"/>
              </instance_material>
            </technique_common>
          </bind_material>
        </instance_geometry>
      </node>
    </visual_scene>
  </library_visual_scenes>
  <scene>
    <instance_visual_scene url="#Scene"/>
  </scene>
</COLLADA>