<?xml version="1.0" encoding="utf-8"?>
<COLLADA xmlns="http://www.collada.org/2005/11/COLLADASchema" version="1.4.1" xmlns:xsi="http://www.w3.org/2001/XMLSchema-instance">
  <asset>
    <contributor>
      <author>Blender User</author>
      <authoring_tool>Blender 4.0.1 commit date:2023-11-16, commit time:16:40, hash:d0dd92834a08</authoring_tool>
    </contributor>
    <created>2023-11-28T14:05:20</created>
    <modified>2023-11-28T14:05:20</modified>
    <unit name="meter" meter="1"/>
    <up_axis>Z_UP</up_axis>
  </asset>
  <library_effects>
    <effect id="Seat-effect">
      <profile_COMMON>
        <newparam sid="Seat-surface">
          <surface type="2D">
            <init_from>Seat</init_from>
          </surface>
        </newparam>
        <newparam sid="Seat-sampler">
          <sampler2D>
            <source>Seat-surface</source>
          </sampler2D>
        </newparam>
        <technique sid="common">
          <lambert>
            <emission>
              <color sid="emission">0 0 0 1</color>
            </emission>
            <diffuse>
              <texture texture="Seat-sampler" texcoord="UVMap"/>
            </diffuse>
            <index_of_refraction>
              <float sid="ior">1.45</float>
            </index_of_refraction>
          </lambert>
        </technique>
      </profile_COMMON>
    </effect>
  </library_effects>
  <library_images>
    <image id="Seat" name="Seat">
      <init_from>Seat.png</init_from>
    </image>
  </library_images>
  <library_materials>
    <material id="Seat-material" name="Seat">
      <instance_effect url="#Seat-effect"/>
    </material>
  </library_materials>
  <library_geometries>
    <geometry id="Seat-mesh" name="Seat">
      <mesh>
        <source id="Seat-mesh-positions">
          <float_array id="Seat-mesh-positions-array" count="240">-0.08695554 -0.5001177 -0.5001177 -0.08695554 -0.5001177 -0.338252 -0.08695554 0.5001177 -0.5001177 -0.08695554 0.5001177 -0.338252 0.5001177 -0.5001177 -0.5001177 0.5001177 -0.5001177 -0.338252 0.5001177 0.5001177 -0.5001177 0.5001177 0.5001177 -0.338252 0.02100545 0.5001177 -0.5001177 0.02100545 0.5001177 -0.338252 0.02100545 -0.5001177 -0.5001177 0.02100545 -0.5001177 -0.338252 -0.08695554 -0.5001177 -0.1944762 -0.08695554 0.5001177 -0.1944762 0.02100545 0.5001177 -0.1944762 0.5001177 0.5001177 -0.1944762 0.5001177 -0.5001177 -0.1944762 0.02100545 -0.5001177 -0.1944762 0.02100545 0.5445005 -0.338252 0.5001176 0.5445005 -0.338252 0.02100545 -0.5445007 -0.338252 -0.08695548 -0.5445007 -0.338252 -0.08695548 0.5445005 -0.338252 0.5001176 -0.5445007 -0.338252 0.02100545 0.5445005 -0.1944762 0.5001176 0.5445005 -0.1944762 0.02100545 -0.5445007 -0.1944762 -0.08695548 -0.5445007 -0.1944762 -0.08695548 0.5445005 -0.1944762 0.5001176 -0.5445007 -0.1944762 0.5258297 0.5001177 -0.338252 0.5258297 -0.5001177 -0.338252 0.5258297 0.5001177 -0.1944762 0.5258297 -0.5001177 -0.1944762 0.5258297 0.5445005 -0.1944762 0.5258297 0.5445005 -0.338252 0.5258297 -0.5445007 -0.1944762 0.5258297 -0.5445007 -0.338252 -0.08695554 -0.5001177 0.6199767 -0.08695554 0.5001177 0.6199767 -0.02249944 -0.5001177 0.6199767 -0.02249944 0.5001177 0.6199767 -0.08695548 0.5445005 0.6199766 -0.02249944 -0.5445007 0.6199766 -0.08695548 -0.5445007 0.6199766 -0.02249944 0.5445005 0.6199766 0.01905578 0.5001176 -0.06008881 0.01905578 0.5445005 -0.06008887 0.01905578 -0.5445007 -0.06008887 -0.08695548 -0.5445007 0.2127501 -0.08695548 0.5445005 0.2127502 0.01905578 -0.5001177 -0.06008881 -0.08695554 -0.5001177 0.2127502 -0.08695554 0.5001177 0.2127502 0.02100557 0.5464966 -0.1944761 0.5560793 0.5464966 -0.1944761 0.5560793 -0.5464947 -0.1944761 0.02100557 -0.5464947 -0.1944761 0.02100557 0.5464966 -0.06314754 0.02100557 -0.5464947 -0.06314754 0.263352 0.5464966 -0.1944761 0.263352 -0.5464947 -0.1944761 0.263352 0.5464966 -0.04743891 0.263352 -0.5464947 -0.04743891 0.5183276 0.5464966 -0.06150215 0.5560793 0.5464966 -0.1009351 0.5560793 -0.5464947 -0.1009351 0.5183276 -0.5464947 -0.06150215 -0.02867865 0.5464966 0.5887176 0.01124578 0.5464967 -0.06142956 0.01124596 -0.5464947 -0.06142967 -0.02867847 -0.5464948 0.5887175 0.03211259 0.5464966 0.4865957 0.05908513 0.5464967 0.0473631 0.0590853 -0.5464947 0.04736298 0.03211271 -0.5464947 0.4865956 -0.008716404 0.5464966 0.263644 -0.008716225 -0.5464947 0.2636439 0.0601204 0.5464966 0.2678712 0.06012052 -0.5464947 0.267871</float_array>
          <technique_common>
            <accessor source="#Seat-mesh-positions-array" count="80" stride="3">
              <param name="X" type="float"/>
              <param name="Y" type="float"/>
              <param name="Z" type="float"/>
            </accessor>
          </technique_common>
        </source>
        <source id="Seat-mesh-normals">
          <float_array id="Seat-mesh-normals-array" count="330">-1 0 0 -1 0 0 0 1 0 1 0 0 0 -1 0 0 0 -1 3.9874e-7 1 0 0 1 0 4.22004e-7 1 1.78801e-7 -3.9874e-7 -1 1.53054e-7 0 -1 0 0 1.67871e-7 1 0 -1.6787e-7 1 0 1.67871e-7 1 0 -3.3574e-7 1 0 -1.6787e-7 1 -1 1.26684e-7 0 -1 0 0 -1 2.17855e-7 0 -1 2.91897e-7 0 0 -1 -2.44546e-7 0 1 2.87076e-7 -1.19534e-7 -1 -2.12158e-7 -1 -2.17854e-7 0 -1 -1.19333e-7 0 0 3.35741e-7 1 0 3.35741e-7 1 0 -1.67871e-7 1 0 -3.3574e-7 1 0.9992869 -1.61229e-7 0.03775876 0.9981383 -2.52162e-7 0.06099092 0.9981383 -1.25041e-7 0.06099098 1 0 0 1 0 0 1 0 0 1 0 0 1 0 0 1 0 0 0 3.3574e-7 1 0 6.71483e-7 1 0 1.34297e-6 1 0 6.71484e-7 1 0 -6.71481e-7 1 0 -1.34296e-6 1 0 -1.34296e-6 1 0.9981383 1.25041e-7 0.0609911 0.9992869 1.61228e-7 0.03775876 0.9981384 2.52161e-7 0.06099116 0.9992869 3.27942e-7 0.03775876 -1 0 0 -1 1.32359e-7 0 -1 1.42598e-7 0 -1 -2.62076e-7 0 -1 -1.25464e-7 0 -1 2.33587e-7 0 -1 2.50267e-7 0 -1 -1.97774e-7 0 0.9998948 1.90714e-7 0.01450598 0.9998949 3.90319e-7 0.01450598 0.9998948 -1.90715e-7 0.01450598 0.9992869 -3.27943e-7 0.0377587 -4.22004e-7 -1 -1.44362e-7 1.19534e-7 1 2.49055e-7 -0.06468307 0 0.9979059 -0.004814386 0 0.9999884 -0.004814386 0 0.9999884 0 1 0 0.4179049 0 0.9084908 0.4179049 0 0.9084909 0 -1 0 0 1 4.37911e-7 0.927992 0 0.3726004 0.9279918 0 0.3726007 0 -1 0 -0.9981199 -1.25484e-7 -0.06129288 -0.9981199 -1.27068e-7 -0.06129288 -0.9981199 -1.22071e-7 -0.06129288 0.9981199 1.2321e-7 0.06129288 0.9453434 0 0.3260766 0.9981198 1.27155e-7 0.06129288 0 1 0 -6.65148e-7 1 0 0 1 0 0.8592764 0 0.5115116 0.9453435 0 0.3260765 0.8592765 0 0.5115115 0.9154062 1.81218e-7 -0.4025313 0.9781376 1.57562e-7 -0.2079587 0.9154062 1.68487e-7 -0.4025313 0 -1 0 3.26444e-7 -1 0 0 -1 0 6.65148e-7 -1 0 7.49812e-7 -1 0 -3.26444e-7 1 4.16233e-7 -3.65882e-7 1 4.20389e-7 0.9781376 1.59568e-7 -0.2079586 -0.9981199 -1.28058e-7 -0.06129288 -0.9981199 -1.28625e-7 -0.06129288 -1 -2.91896e-7 0 0 -3.35741e-7 1 0 1.34296e-6 1 0 -6.7148e-7 1 0.9998949 -3.9032e-7 0.01450592 -0.06468313 0 0.9979059 0 1 6.30801e-7 0 -1 -1.577e-7 -7.49812e-7 1 0 3.65882e-7 -1 0 -0.9981199 -1.29342e-7 -0.06129288</float_array>
          <technique_common>
            <accessor source="#Seat-mesh-normals-array" count="110" stride="3">
              <param name="X" type="float"/>
              <param name="Y" type="float"/>
              <param name="Z" type="float"/>
            </accessor>
          </technique_common>
        </source>
        <source id="Seat-mesh-map-0">
          <float_array id="Seat-mesh-map-0-array" count="888">0.9972581 0.8096218 0.8666827 0.002741873 0.8666827 0.8096218 0.9928109 0.5487495 0.865729 0.1725946 0.865729 0.5487495 0.9928109 0.02259331 0.865729 0.807886 0.8657289 0.02259331 0.9928109 0.5487495 0.865729 0.6335104 0.865729 0.5487495 0.375 0.5 0.1663923 0.75 0.1663923 0.5 0.6935109 0.1151458 0.678474 0.700105 0.6935109 0.700105 0.8286263 0.4543606 0.7747544 0.114003 0.7400226 0.6823981 0.1663923 0.5 0.125 0.75 0.125 0.5 0.9928109 0.1725946 0.865729 0.5487495 0.865729 0.1725946 0.9928109 0.6335104 0.865729 0.5487495 0.865729 0.6335104 0.8286263 0.4543606 0.7747544 0.114003 0.8286263 0.114003 0.8336077 0.5 0.625 0.75 0.625 0.5 0.625 0.75 0.625 0.75 0.625 0.75 0.560139 0.5504263 0.5860951 0.6135641 0.5860951 0.5504263 0.5366974 0.6961988 0.6202828 0.1147024 0.5366974 0.1147024 0.5366974 0.1147024 0.6202828 0.08889997 0.5366974 0.08889997 0.6499684 0.60593 0.7819938 0.1659744 0.6499684 0.1659744 0.6499684 0.1659744 0.7819938 0.60593 0.6499684 0.60593 0.6499684 0.7050676 0.7819938 0.60593 0.6499684 0.60593 0.6499684 0.60593 0.7819938 0.7050676 0.6499684 0.7050676 0.5366974 0.6961988 0.6202828 0.7220012 0.6202828 0.6961988 0.8336077 0.5 0.625 0.5 0.8336077 0.5 0.6935109 0.1151458 0.678474 0.08918964 0.678474 0.1151458 0.5849072 0.5504263 0.558951 0.6135641 0.5849072 0.6135641 0.8336077 0.75 0.625 0.75 0.625 0.75 0.5849072 0.5504263 0.558951 0.2702311 0.558951 0.5504263 0.560139 0.5504263 0.5860951 0.2702311 0.560139 0.270231 0.5429385 0.231957 0.853887 0.2116637 0.8538871 0.231957 0.5932114 0.06439357 0.6961585 0.7805867 0.5932114 0.7805867 0.5932114 0.06439357 0.6961584 0.03261435 0.6961585 0.06439357 0.5932114 0.7805867 0.6961584 0.812366 0.5932114 0.812366 0.7819938 0.1659744 0.6499684 0.1423638 0.6499684 0.1659744 0.625 0.5 0.625 0.5 0.625 0.5 0.625 0.75 0.625 0.5 0.625 0.5 0.6935109 0.700105 0.678474 0.7260611 0.693511 0.7260611 0.6499684 0.1659744 0.7819938 0.1423638 0.7819938 0.1659744 0.7191506 0.7759176 0.6745992 0.8065947 0.6745992 0.7759176 0.6745992 0.7759176 0.7191506 0.08456474 0.7191506 0.7759176 0.7191506 0.08456474 0.6745992 0.0538876 0.7191506 0.0538876 0.5429385 0.231957 0.8538871 0.689298 0.5429385 0.689298 0.5429385 0.689298 0.853887 0.7095914 0.5429385 0.7095914 0.5471099 0.774315 0.8466154 0.03866535 0.5471099 0.03866535 0.5471099 0.774315 0.8466154 0.8069577 0.8466154 0.774315 0.5471099 0.03866535 0.8466154 0.00602281 0.5471099 0.00602281 0.6202828 0.1147024 0.8570277 0.08889997 0.6202828 0.08889997 0.6202828 0.6961988 0.8570277 0.7220012 0.8570278 0.6961988 0.6202828 0.6961988 0.8570278 0.1147024 0.6202828 0.1147024 0.8336077 0.75 0.8336076 0.75 0.8336077 0.75 0.8336077 0.5 0.8336077 0.7500001 0.8336077 0.75 0.8336077 0.5 0.8336077 0.5 0.8336077 0.5 0.8286263 0.7947183 0.7400226 0.6823981 0.8286263 0.4543606 0.8286263 0.7947183 0.7400226 0.6823981 0.7383931 0.7947183 0.2595373 0.0139501 0.06901717 0.8732027 0.2595373 0.8732027 0.06901717 0.8732027 0.2595373 0.0139501 0.2595373 0.8732027 0.2595373 0.3868677 0.06901717 0.4901114 0.2595373 0.5024607 0.2566431 0.8762272 0.3601161 0.0150662 0.2566431 0.0150662 0.2595373 0.8732027 0.4599858 0.0139501 0.4599858 0.8732027 0.2595373 0.3868677 0.06901717 0.4901114 0.06901717 0.3868677 0.2595373 0.3868677 0.2595373 0.5024607 0.4599858 0.4914048 0.2566431 0.0150662 0.3303435 0.8762272 0.2566431 0.8762272 0.2595373 0.0139501 0.4896642 0.8732027 0.4896642 0.0139501 0.3742259 0.8762272 0.3175301 0.0150662 0.3742257 0.0150662 0.4599858 0.4914048 0.2595373 0.5024607 0.2595373 0.3868677 0.2677952 0.003015816 0.5278782 0.8774903 0.5278782 0.003015816 0.2615655 0.8844473 0.08512276 0.002741932 0.2615656 0.002741992 0.2677953 0.4566749 0.4461731 0.4240086 0.2711772 0.4016003 0.002741992 0.002741873 0.08512258 0.8844473 0.002741873 0.8844473 0.5272092 0.8844473 0.4394474 0.002742052 0.5272094 0.002742052 0.2677951 0.4566748 0.09475427 0.4024285 0.2711771 0.4016002 0.2677951 0.4566748 0.4461731 0.4240085 0.5278782 0.4726461 0.2677953 0.4566749 0.09475433 0.4024286 0.007712125 0.4407036 0.4394472 0.8844473 0.2615656 0.002741992 0.4394474 0.002742052 0.007712125 0.003015756 0.2677952 0.8774903 0.2677952 0.003015816 0.9972581 0.8096218 0.9972581 0.002741873 0.8666827 0.002741873 0.9928109 0.5487495 0.9928109 0.1725946 0.865729 0.1725946 0.9928109 0.02259331 0.9928109 0.807886 0.865729 0.807886 0.9928109 0.5487495 0.9928109 0.6335104 0.865729 0.6335104 0.375 0.5 0.375 0.75 0.1663923 0.75 0.6935109 0.1151458 0.678474 0.1151458 0.678474 0.700105 0.8286263 0.4543606 0.8286263 0.114003 0.7747544 0.114003 0.1663923 0.5 0.1663923 0.75 0.125 0.75 0.9928109 0.1725946 0.9928109 0.5487495 0.865729 0.5487495 0.9928109 0.6335104 0.9928109 0.5487495 0.865729 0.5487495 0.8286263 0.4543606 0.7400226 0.6823981 0.7747544 0.114003 0.8336077 0.5 0.8336077 0.75 0.625 0.75 0.625 0.75 0.625 0.75 0.625 0.75 0.560139 0.5504263 0.560139 0.6135641 0.5860951 0.6135641 0.5366974 0.6961988 0.6202828 0.6961988 0.6202828 0.1147024 0.5366974 0.1147024 0.6202828 0.1147024 0.6202828 0.08889997 0.6499684 0.60593 0.7819938 0.60593 0.7819938 0.1659744 0.6499684 0.1659744 0.7819938 0.1659744 0.7819938 0.60593 0.6499684 0.7050676 0.7819938 0.7050676 0.7819938 0.60593 0.6499684 0.60593 0.7819938 0.60593 0.7819938 0.7050676 0.5366974 0.6961988 0.5366974 0.7220012 0.6202828 0.7220012 0.8336077 0.5 0.625 0.5 0.625 0.5 0.6935109 0.1151458 0.693511 0.08918964 0.678474 0.08918964 0.5849072 0.5504263 0.558951 0.5504263 0.558951 0.6135641 0.8336077 0.75 0.8336077 0.75 0.625 0.75 0.5849072 0.5504263 0.5849072 0.270231 0.558951 0.2702311 0.560139 0.5504263 0.5860951 0.5504263 0.5860951 0.2702311 0.5429385 0.231957 0.5429384 0.2116637 0.853887 0.2116637 0.5932114 0.06439357 0.6961585 0.06439357 0.6961585 0.7805867 0.5932114 0.06439357 0.5932114 0.03261435 0.6961584 0.03261435 0.5932114 0.7805867 0.6961585 0.7805867 0.6961584 0.812366 0.7819938 0.1659744 0.7819938 0.1423638 0.6499684 0.1423638 0.625 0.5 0.625 0.5 0.625 0.5 0.625 0.75 0.625 0.75 0.625 0.5 0.6935109 0.700105 0.678474 0.700105 0.678474 0.7260611 0.6499684 0.1659744 0.6499684 0.1423638 0.7819938 0.1423638 0.7191506 0.7759176 0.7191506 0.8065947 0.6745992 0.8065947 0.6745992 0.7759176 0.6745992 0.08456474 0.7191506 0.08456474 0.7191506 0.08456474 0.6745992 0.08456474 0.6745992 0.0538876 0.5429385 0.231957 0.8538871 0.231957 0.8538871 0.689298 0.5429385 0.689298 0.8538871 0.689298 0.853887 0.7095914 0.5471099 0.774315 0.8466154 0.774315 0.8466154 0.03866535 0.5471099 0.774315 0.5471099 0.8069577 0.8466154 0.8069577 0.5471099 0.03866535 0.8466154 0.03866535 0.8466154 0.00602281 0.6202828 0.1147024 0.8570278 0.1147024 0.8570277 0.08889997 0.6202828 0.6961988 0.6202828 0.7220012 0.8570277 0.7220012 0.6202828 0.6961988 0.8570278 0.6961988 0.8570278 0.1147024 0.8336077 0.75 0.8336077 0.7500001 0.8336076 0.75 0.8336077 0.5 0.8336077 0.5 0.8336077 0.7500001 0.8336077 0.5 0.8336077 0.5 0.8336077 0.5 0.8286263 0.7947183 0.7383931 0.7947183 0.7400226 0.6823981 0.8286263 0.7947183 0.8286263 0.4543606 0.7400226 0.6823981 0.2595373 0.0139501 0.06901717 0.0139501 0.06901717 0.8732027 0.06901717 0.8732027 0.06901717 0.0139501 0.2595373 0.0139501 0.2595373 0.3868677 0.06901717 0.3868677 0.06901717 0.4901114 0.2566431 0.8762272 0.3601161 0.8762272 0.3601161 0.0150662 0.2595373 0.8732027 0.2595373 0.0139501 0.4599858 0.0139501 0.2595373 0.3868677 0.2595373 0.5024607 0.06901717 0.4901114 0.4896642 0.4604047 0.4896642 0.3868677 0.4599858 0.4914048 0.4896642 0.3868677 0.2595373 0.3868677 0.4599858 0.4914048 0.2566431 0.0150662 0.3303434 0.0150662 0.3303435 0.8762272 0.2595373 0.0139501 0.2595373 0.8732027 0.4896642 0.8732027 0.3742259 0.8762272 0.3175302 0.8762272 0.3175301 0.0150662 0.2595373 0.3868677 0.4896642 0.3868677 0.4599858 0.4914048 0.4896642 0.3868677 0.4896642 0.4604047 0.4599858 0.4914048 0.2677952 0.003015816 0.2677952 0.8774903 0.5278782 0.8774903 0.2615655 0.8844473 0.08512258 0.8844473 0.08512276 0.002741932 0.2677953 0.4566749 0.5278783 0.4726462 0.4461731 0.4240086 0.002741992 0.002741873 0.08512276 0.002741932 0.08512258 0.8844473 0.5272092 0.8844473 0.4394472 0.8844473 0.4394474 0.002742052 0.2677951 0.4566748 0.007712006 0.4407035 0.09475427 0.4024285 0.2677951 0.4566748 0.2711771 0.4016002 0.4461731 0.4240085 0.2677953 0.4566749 0.2711772 0.4016003 0.09475433 0.4024286 0.4394472 0.8844473 0.2615655 0.8844473 0.2615656 0.002741992 0.007712125 0.003015756 0.007712066 0.8774902 0.2677952 0.8774903</float_array>
          <technique_common>
            <accessor source="#Seat-mesh-map-0-array" count="444" stride="2">
              <param name="S" type="float"/>
              <param name="T" type="float"/>
            </accessor>
          </technique_common>
        </source>
        <vertices id="Seat-mesh-vertices">
          <input semantic="POSITION" source="#Seat-mesh-positions"/>
        </vertices>
        <triangles material="Seat-material" count="148">
          <input semantic="VERTEX" source="#Seat-mesh-vertices" offset="0"/>
          <input semantic="NORMAL" source="#Seat-mesh-normals" offset="1"/>
          <input semantic="TEXCOORD" source="#Seat-mesh-map-0" offset="2" set="0"/>
          <p>1 0 0 2 1 1 0 1 2 9 2 3 6 2 4 8 2 5 7 3 6 4 3 7 6 3 8 11 4 9 0 4 10 10 4 11 6 5 12 10 5 13 8 5 14 7 5 15 31 5 16 5 5 17 50 6 18 45 7 19 47 8 20 8 5 21 0 5 22 2 5 23 5 4 24 10 4 25 4 4 26 3 2 27 8 2 28 2 2 29 49 9 30 43 10 31 44 4 32 14 11 33 16 12 34 15 13 35 16 12 36 36 14 37 33 15 38 9 5 39 22 5 40 18 5 41 1 0 42 13 16 43 3 17 44 3 17 45 28 18 46 22 19 47 18 2 48 25 2 49 19 2 50 23 4 51 26 20 52 20 4 53 22 2 54 24 21 55 18 2 56 20 4 57 27 22 58 21 4 59 1 0 60 27 23 61 12 24 62 14 11 63 25 25 64 24 26 65 7 5 66 35 5 67 30 5 68 11 5 69 21 5 70 1 5 71 17 27 72 29 28 73 16 12 74 11 5 75 23 5 76 20 5 77 9 5 78 19 5 79 7 5 80 46 29 81 45 30 82 41 31 83 30 32 84 33 33 85 31 34 86 30 32 87 34 35 88 32 36 89 31 34 90 36 37 91 37 3 92 25 2 93 35 2 94 19 2 95 15 13 96 34 38 97 25 25 98 16 12 99 32 13 100 15 13 101 5 5 102 37 5 103 23 5 104 23 4 105 36 4 106 29 4 107 41 39 108 42 40 109 39 41 110 39 41 111 40 42 112 41 39 113 40 42 114 44 43 115 43 44 116 46 29 117 40 45 118 51 46 119 51 46 120 43 47 121 48 48 122 52 49 123 39 50 124 53 51 125 52 49 126 44 52 127 38 53 128 53 51 129 42 54 130 50 55 131 13 16 132 50 55 133 28 18 134 12 24 135 49 56 136 52 49 137 12 24 138 53 51 139 13 16 140 17 57 141 48 48 142 26 58 143 14 59 144 51 46 145 17 57 146 14 59 147 47 60 148 46 29 149 27 22 150 48 61 151 49 9 152 28 62 153 47 8 154 24 21 155 61 5 156 54 5 157 60 5 158 58 63 159 63 64 160 62 65 161 60 66 162 58 2 163 62 2 164 57 1 165 58 1 166 54 1 167 62 65 168 67 67 169 64 68 170 61 69 171 59 4 172 57 4 173 60 66 174 62 2 175 64 70 176 55 3 177 66 71 178 56 3 179 61 5 180 55 5 181 56 5 182 67 67 183 65 72 184 64 68 185 67 73 186 63 4 187 61 69 188 76 74 189 71 75 190 68 76 191 78 77 192 75 78 193 79 79 194 76 80 195 72 81 196 78 82 197 71 83 198 72 84 199 68 85 200 69 86 201 74 87 202 70 88 203 77 89 204 74 90 205 79 91 206 77 89 207 75 92 208 71 93 209 76 80 210 73 94 211 69 95 212 73 96 213 79 79 214 74 87 215 69 97 216 77 98 217 76 74 218 1 0 219 3 17 220 2 1 221 9 2 222 7 2 223 6 2 224 7 3 225 5 3 226 4 3 227 11 4 228 1 4 229 0 4 230 6 5 231 4 5 232 10 5 233 7 5 234 30 5 235 31 5 236 50 6 237 42 2 238 45 7 239 8 5 240 10 5 241 0 5 242 5 4 243 11 4 244 10 4 245 3 2 246 9 2 247 8 2 248 49 9 249 48 61 250 43 10 251 14 11 252 17 27 253 16 12 254 16 12 255 29 28 256 36 14 257 9 5 258 3 5 259 22 5 260 1 0 261 12 24 262 13 16 263 3 17 264 13 16 265 28 18 266 18 2 267 24 21 268 25 2 269 23 4 270 29 4 271 26 20 272 22 2 273 28 62 274 24 21 275 20 4 276 26 20 277 27 22 278 1 0 279 21 99 280 27 23 281 14 11 282 15 13 283 25 25 284 7 5 285 19 5 286 35 5 287 11 5 288 20 5 289 21 5 290 17 27 291 26 100 292 29 28 293 11 5 294 5 5 295 23 5 296 9 5 297 18 5 298 19 5 299 46 29 300 47 60 301 45 30 302 30 32 303 32 36 304 33 33 305 30 32 306 35 3 307 34 35 308 31 34 309 33 33 310 36 37 311 25 2 312 34 2 313 35 2 314 15 13 315 32 13 316 34 38 317 16 12 318 33 15 319 32 13 320 5 5 321 31 5 322 37 5 323 23 4 324 37 4 325 36 4 326 41 39 327 45 101 328 42 40 329 39 41 330 38 102 331 40 42 332 40 42 333 38 102 334 44 43 335 46 29 336 41 31 337 40 45 338 51 46 339 40 45 340 43 47 341 52 49 342 38 53 343 39 50 344 52 49 345 49 56 346 44 52 347 53 51 348 39 50 349 42 54 350 13 16 351 53 51 352 50 55 353 12 24 354 27 23 355 49 56 356 12 24 357 52 49 358 53 51 359 17 57 360 51 46 361 48 48 362 14 59 363 46 29 364 51 46 365 14 59 366 24 103 367 47 60 368 27 22 369 26 20 370 48 61 371 28 62 372 50 6 373 47 8 374 61 5 375 57 5 376 54 5 377 58 63 378 59 104 379 63 64 380 60 66 381 54 2 382 58 2 383 57 1 384 59 1 385 58 1 386 62 65 387 63 64 388 67 67 389 61 69 390 63 4 391 59 4 392 65 2 393 55 105 394 64 70 395 55 105 396 60 66 397 64 70 398 55 3 399 65 72 400 66 71 401 61 5 402 60 5 403 55 5 404 67 67 405 66 71 406 65 72 407 61 69 408 56 106 409 67 73 410 56 106 411 66 4 412 67 73 413 76 74 414 77 98 415 71 75 416 78 77 417 72 84 418 75 78 419 76 80 420 68 107 421 72 81 422 71 83 423 75 78 424 72 84 425 69 86 426 73 96 427 74 87 428 77 89 429 70 108 430 74 90 431 77 89 432 79 91 433 75 92 434 76 80 435 78 82 436 73 94 437 73 96 438 78 77 439 79 79 440 69 97 441 70 109 442 77 98 443</p>
        </triangles>
      </mesh>
    </geometry>
  </library_geometries>
  <library_visual_scenes>
    <visual_scene id="Scene" name="Scene">
      <node id="Seat" name="Seat" type="NODE">
        <matrix sid="transform">-1 3.25841e-7 0 0 -3.25841e-7 -1 0 0 0 0 1 0 0 0 0 1</matrix>
        <instance_geometry url="#Seat-mesh" name="Seat">
          <bind_material>
            <technique_common>
              <instance_material symbol="Seat-material" target="#Seat-material">
                <bind_vertex_input semantic="UVMap" input_semantic="TEXCOORD" input_set="0"/>
              </instance_material>
            </technique_common>
          </bind_material>
        </instance_geometry>
      </node>
    </visual_scene>
  </library_visual_scenes>
  <scene>
    <instance_visual_scene url="#Scene"/>
  </scene>
</COLLADA>